M48
; DRILL file {KiCad (5.1.10)-1} date 11/04/21 17:32:03
; FORMAT={-:-/ absolute / inch / decimal}
; #@! TF.CreationDate,2021-11-04T17:32:03-05:00
; #@! TF.GenerationSoftware,Kicad,Pcbnew,(5.1.10)-1
; #@! TF.FileFunction,Plated,1,2,PTH
FMAT,2
INCH
T1C0.0157
T2C0.0300
T3C0.0315
%
G90
G05
T1
X4.0945Y-2.8346
X4.252Y-2.9921
X4.6832Y-2.9115
T2
X1.811Y-2.7634
X1.811Y-2.8634
X1.811Y-2.9634
X1.811Y-3.0634
X1.811Y-4.8106
X1.811Y-4.9106
X1.811Y-5.0106
X1.811Y-5.1106
X2.3341Y-2.2122
X2.4341Y-2.2122
X2.5341Y-2.2122
X2.6341Y-2.2122
X2.7341Y-2.2122
X2.9671Y-2.206
X3.2433Y-2.2165
X3.2433Y-2.3165
X3.2433Y-2.4165
X3.2433Y-2.5165
X3.2433Y-2.6165
X3.2433Y-2.7165
X3.2433Y-2.8165
X3.2433Y-2.9165
X3.2433Y-3.0165
X3.2433Y-3.1165
X3.2433Y-3.2165
X3.2433Y-3.3165
X3.2433Y-3.4165
X3.2433Y-3.5165
X3.2433Y-3.6165
X3.2433Y-3.7165
X3.2433Y-3.8165
X3.2433Y-3.9165
X3.2433Y-4.0165
X3.2433Y-4.1165
X3.2433Y-4.2165
X3.2433Y-4.3165
X3.2433Y-4.4165
X3.2433Y-4.5165
X3.3433Y-2.4665
X3.3433Y-2.5665
X3.3433Y-2.6665
X3.3433Y-2.7665
X3.3433Y-2.8665
X3.3433Y-4.0165
X3.3933Y-5.6693
X3.4433Y-4.0165
X3.4933Y-5.6693
X3.5433Y-4.0165
X3.5933Y-5.6693
X3.6433Y-4.0165
X3.6933Y-5.6693
X3.7433Y-2.3165
X3.7433Y-4.0165
X3.8433Y-2.2165
X3.8433Y-2.3165
X3.8433Y-2.4165
X3.8433Y-2.5165
X3.8433Y-2.6165
X3.8433Y-2.7165
X3.8433Y-2.8165
X3.8433Y-2.9165
X3.8433Y-3.0165
X3.8433Y-3.1165
X3.8433Y-3.2165
X3.8433Y-3.3165
X3.8433Y-3.4165
X3.8433Y-3.5165
X3.8433Y-3.6165
X3.8433Y-3.7165
X3.8433Y-3.8165
X3.8433Y-3.9165
X3.8433Y-4.0165
X3.8433Y-4.1165
X3.8433Y-4.2165
X3.8433Y-4.3165
X3.8433Y-4.4165
X3.8433Y-4.5165
X4.9356Y-2.206
X5.0396Y-2.206
X5.2756Y-2.7634
X5.2756Y-2.8634
X5.2756Y-2.9634
X5.2756Y-3.0634
X5.2756Y-4.8106
X5.2756Y-4.9106
X5.2756Y-5.0106
X5.2756Y-5.1106
T3
X2.3228Y-3.1496
X2.3228Y-3.5496
X2.3228Y-3.7008
X2.3228Y-4.1008
X2.3228Y-4.4819
X2.3228Y-4.8819
X2.3228Y-5.0331
X2.3228Y-5.4331
X3.0709Y-5.3543
X3.4709Y-5.3543
X3.622Y-5.3543
X4.022Y-5.3543
X4.9213Y-3.2614
X4.9213Y-3.6614
X4.9213Y-3.8126
X4.9213Y-4.2126
X4.9213Y-4.4819
X4.9213Y-4.8819
X4.9213Y-5.0331
X4.9213Y-5.4331
T0
M30
