%FSLAX45Y45*%
G04 Gerber Fmt 4.5, Leading zero omitted, Abs format (unit mm)*
G04 Created by KiCad (PCBNEW 5.1.5+dfsg1-2build2) date 2022-02-08 11:10:52*
%MOMM*%
%LPD*%
G04 APERTURE LIST*
%TA.AperFunction,Profile*%
%ADD10C,0.100000*%
%TD*%
%ADD11C,0.200000*%
%ADD12C,0.300000*%
G04 APERTURE END LIST*
D10*
X4500000Y-4000000D02*
X4500000Y-12000000D01*
X24500000Y-4000000D02*
X4500000Y-4000000D01*
X24500000Y-12000000D02*
X24500000Y-4000000D01*
X8500000Y-16000000D02*
X4500000Y-12000000D01*
X20500000Y-16000000D02*
X24500000Y-12000000D01*
X8500000Y-16000000D02*
X20500000Y-16000000D01*
D11*
X11283000Y-8870000D02*
X11323000Y-8910000D01*
X11323000Y-8870000D02*
X11283000Y-8910000D01*
X11537000Y-10267000D02*
X11577000Y-10307000D01*
X11577000Y-10267000D02*
X11537000Y-10307000D01*
X12172000Y-14077000D02*
X12212000Y-14117000D01*
X12212000Y-14077000D02*
X12172000Y-14117000D01*
X12426000Y-14204000D02*
X12466000Y-14244000D01*
X12466000Y-14204000D02*
X12426000Y-14244000D01*
X12553000Y-13061000D02*
X12593000Y-13101000D01*
X12593000Y-13061000D02*
X12553000Y-13101000D01*
X12934000Y-11410000D02*
X12974000Y-11450000D01*
X12974000Y-11410000D02*
X12934000Y-11450000D01*
X13315000Y-12172000D02*
X13355000Y-12212000D01*
X13355000Y-12172000D02*
X13315000Y-12212000D01*
X13442000Y-12045000D02*
X13482000Y-12085000D01*
X13482000Y-12045000D02*
X13442000Y-12085000D01*
X13696000Y-13696000D02*
X13736000Y-13736000D01*
X13736000Y-13696000D02*
X13696000Y-13736000D01*
X14458000Y-10775000D02*
X14498000Y-10815000D01*
X14498000Y-10775000D02*
X14458000Y-10815000D01*
X14585000Y-10521000D02*
X14625000Y-10561000D01*
X14625000Y-10521000D02*
X14585000Y-10561000D01*
X14851999Y-10492429D02*
X14891999Y-10532429D01*
X14891999Y-10492429D02*
X14851999Y-10532429D01*
X14966000Y-10394000D02*
X15006000Y-10434000D01*
X15006000Y-10394000D02*
X14966000Y-10434000D01*
X14966000Y-10775000D02*
X15006000Y-10815000D01*
X15006000Y-10775000D02*
X14966000Y-10815000D01*
X14966000Y-12299000D02*
X15006000Y-12339000D01*
X15006000Y-12299000D02*
X14966000Y-12339000D01*
X15093000Y-13823000D02*
X15133000Y-13863000D01*
X15133000Y-13823000D02*
X15093000Y-13863000D01*
X15220000Y-10394000D02*
X15260000Y-10434000D01*
X15260000Y-10394000D02*
X15220000Y-10434000D01*
X15347000Y-10648000D02*
X15387000Y-10688000D01*
X15387000Y-10648000D02*
X15347000Y-10688000D01*
X15474000Y-10775000D02*
X15514000Y-10815000D01*
X15514000Y-10775000D02*
X15474000Y-10815000D01*
X15601000Y-10521000D02*
X15641000Y-10561000D01*
X15641000Y-10521000D02*
X15601000Y-10561000D01*
X15728000Y-10648000D02*
X15768000Y-10688000D01*
X15768000Y-10648000D02*
X15728000Y-10688000D01*
X16109000Y-13442000D02*
X16149000Y-13482000D01*
X16149000Y-13442000D02*
X16109000Y-13482000D01*
X16236000Y-13696000D02*
X16276000Y-13736000D01*
X16276000Y-13696000D02*
X16236000Y-13736000D01*
X16236000Y-13823000D02*
X16276000Y-13863000D01*
X16276000Y-13823000D02*
X16236000Y-13863000D01*
X16744000Y-11791000D02*
X16784000Y-11831000D01*
X16784000Y-11791000D02*
X16744000Y-11831000D01*
X17379000Y-12045000D02*
X17419000Y-12085000D01*
X17419000Y-12045000D02*
X17379000Y-12085000D01*
X17379000Y-13188000D02*
X17419000Y-13228000D01*
X17419000Y-13188000D02*
X17379000Y-13228000D01*
X17506000Y-13442000D02*
X17546000Y-13482000D01*
X17546000Y-13442000D02*
X17506000Y-13482000D01*
X17506000Y-13696000D02*
X17546000Y-13736000D01*
X17546000Y-13696000D02*
X17506000Y-13736000D01*
X17887000Y-13188000D02*
X17927000Y-13228000D01*
X17927000Y-13188000D02*
X17887000Y-13228000D01*
X18014000Y-13442000D02*
X18054000Y-13482000D01*
X18054000Y-13442000D02*
X18014000Y-13482000D01*
X18141000Y-13188000D02*
X18181000Y-13228000D01*
X18181000Y-13188000D02*
X18141000Y-13228000D01*
X18522000Y-13442000D02*
X18562000Y-13482000D01*
X18562000Y-13442000D02*
X18522000Y-13482000D01*
X20808000Y-8743000D02*
X20848000Y-8783000D01*
X20848000Y-8743000D02*
X20808000Y-8783000D01*
X21951000Y-7473000D02*
X21991000Y-7513000D01*
X21991000Y-7473000D02*
X21951000Y-7513000D01*
X22459000Y-7473000D02*
X22499000Y-7513000D01*
X22499000Y-7473000D02*
X22459000Y-7513000D01*
X9499600Y-13589000D02*
G75*
G03X9499600Y-13589000I-38100J0D01*
G01*
X10452100Y-13589000D02*
G75*
G03X10452100Y-13589000I-38100J0D01*
G01*
X14157100Y-15000000D02*
G75*
G03X14157100Y-15000000I-38100J0D01*
G01*
X14411100Y-15000000D02*
G75*
G03X14411100Y-15000000I-38100J0D01*
G01*
X14665100Y-15000000D02*
G75*
G03X14665100Y-15000000I-38100J0D01*
G01*
X14919100Y-15000000D02*
G75*
G03X14919100Y-15000000I-38100J0D01*
G01*
X17373600Y-14859000D02*
G75*
G03X17373600Y-14859000I-38100J0D01*
G01*
X18326100Y-14859000D02*
G75*
G03X18326100Y-14859000I-38100J0D01*
G01*
X11792100Y-9254000D02*
G75*
G03X11792100Y-9254000I-38100J0D01*
G01*
X11792100Y-9508000D02*
G75*
G03X11792100Y-9508000I-38100J0D01*
G01*
X12046100Y-9254000D02*
G75*
G03X12046100Y-9254000I-38100J0D01*
G01*
X12046100Y-9508000D02*
G75*
G03X12046100Y-9508000I-38100J0D01*
G01*
X12300100Y-9254000D02*
G75*
G03X12300100Y-9254000I-38100J0D01*
G01*
X12300100Y-9508000D02*
G75*
G03X12300100Y-9508000I-38100J0D01*
G01*
X12554100Y-9254000D02*
G75*
G03X12554100Y-9254000I-38100J0D01*
G01*
X12554100Y-9508000D02*
G75*
G03X12554100Y-9508000I-38100J0D01*
G01*
X12808100Y-9254000D02*
G75*
G03X12808100Y-9254000I-38100J0D01*
G01*
X12808100Y-9508000D02*
G75*
G03X12808100Y-9508000I-38100J0D01*
G01*
X13062100Y-9254000D02*
G75*
G03X13062100Y-9254000I-38100J0D01*
G01*
X13062100Y-9508000D02*
G75*
G03X13062100Y-9508000I-38100J0D01*
G01*
X13316100Y-9254000D02*
G75*
G03X13316100Y-9254000I-38100J0D01*
G01*
X13316100Y-9508000D02*
G75*
G03X13316100Y-9508000I-38100J0D01*
G01*
X13570100Y-9254000D02*
G75*
G03X13570100Y-9254000I-38100J0D01*
G01*
X13570100Y-9508000D02*
G75*
G03X13570100Y-9508000I-38100J0D01*
G01*
X13824100Y-9254000D02*
G75*
G03X13824100Y-9254000I-38100J0D01*
G01*
X13824100Y-9508000D02*
G75*
G03X13824100Y-9508000I-38100J0D01*
G01*
X14078100Y-9254000D02*
G75*
G03X14078100Y-9254000I-38100J0D01*
G01*
X14078100Y-9508000D02*
G75*
G03X14078100Y-9508000I-38100J0D01*
G01*
X14332100Y-9254000D02*
G75*
G03X14332100Y-9254000I-38100J0D01*
G01*
X14332100Y-9508000D02*
G75*
G03X14332100Y-9508000I-38100J0D01*
G01*
X14586100Y-9254000D02*
G75*
G03X14586100Y-9254000I-38100J0D01*
G01*
X14586100Y-9508000D02*
G75*
G03X14586100Y-9508000I-38100J0D01*
G01*
X14840100Y-9254000D02*
G75*
G03X14840100Y-9254000I-38100J0D01*
G01*
X14840100Y-9508000D02*
G75*
G03X14840100Y-9508000I-38100J0D01*
G01*
X15094100Y-9254000D02*
G75*
G03X15094100Y-9254000I-38100J0D01*
G01*
X15094100Y-9508000D02*
G75*
G03X15094100Y-9508000I-38100J0D01*
G01*
X15348100Y-9254000D02*
G75*
G03X15348100Y-9254000I-38100J0D01*
G01*
X15348100Y-9508000D02*
G75*
G03X15348100Y-9508000I-38100J0D01*
G01*
X15602100Y-9254000D02*
G75*
G03X15602100Y-9254000I-38100J0D01*
G01*
X15602100Y-9508000D02*
G75*
G03X15602100Y-9508000I-38100J0D01*
G01*
X15856100Y-9254000D02*
G75*
G03X15856100Y-9254000I-38100J0D01*
G01*
X15856100Y-9508000D02*
G75*
G03X15856100Y-9508000I-38100J0D01*
G01*
X16110100Y-9254000D02*
G75*
G03X16110100Y-9254000I-38100J0D01*
G01*
X16110100Y-9508000D02*
G75*
G03X16110100Y-9508000I-38100J0D01*
G01*
X16364100Y-9254000D02*
G75*
G03X16364100Y-9254000I-38100J0D01*
G01*
X16364100Y-9508000D02*
G75*
G03X16364100Y-9508000I-38100J0D01*
G01*
X16618100Y-9254000D02*
G75*
G03X16618100Y-9254000I-38100J0D01*
G01*
X16618100Y-9508000D02*
G75*
G03X16618100Y-9508000I-38100J0D01*
G01*
X20866100Y-13970000D02*
G75*
G03X20866100Y-13970000I-38100J0D01*
G01*
X21539619Y-13296481D02*
G75*
G03X21539619Y-13296481I-38100J0D01*
G01*
X23025100Y-8191500D02*
G75*
G03X23025100Y-8191500I-38100J0D01*
G01*
X23025100Y-9144000D02*
G75*
G03X23025100Y-9144000I-38100J0D01*
G01*
X19088100Y-14859000D02*
G75*
G03X19088100Y-14859000I-38100J0D01*
G01*
X20040600Y-14859000D02*
G75*
G03X20040600Y-14859000I-38100J0D01*
G01*
X23025100Y-6794500D02*
G75*
G03X23025100Y-6794500I-38100J0D01*
G01*
X23025100Y-7747000D02*
G75*
G03X23025100Y-7747000I-38100J0D01*
G01*
X20231100Y-4445000D02*
G75*
G03X20231100Y-4445000I-38100J0D01*
G01*
X20485100Y-4445000D02*
G75*
G03X20485100Y-4445000I-38100J0D01*
G01*
X20739100Y-4445000D02*
G75*
G03X20739100Y-4445000I-38100J0D01*
G01*
X13373100Y-14478000D02*
G75*
G03X13373100Y-14478000I-38100J0D01*
G01*
X14325600Y-14478000D02*
G75*
G03X14325600Y-14478000I-38100J0D01*
G01*
X21882100Y-12954000D02*
G75*
G03X21882100Y-12954000I-38100J0D01*
G01*
X22555619Y-12280481D02*
G75*
G03X22555619Y-12280481I-38100J0D01*
G01*
X21768692Y-13769408D02*
G75*
G03X21768692Y-13769408I-38100J0D01*
G01*
X21948297Y-13589803D02*
G75*
G03X21948297Y-13589803I-38100J0D01*
G01*
X22127903Y-13410197D02*
G75*
G03X22127903Y-13410197I-38100J0D01*
G01*
X22307508Y-13230592D02*
G75*
G03X22307508Y-13230592I-38100J0D01*
G01*
X13468350Y-13023850D02*
G75*
G03X13468350Y-13023850I-38100J0D01*
G01*
X13722350Y-13023850D02*
G75*
G03X13722350Y-13023850I-38100J0D01*
G01*
X13976350Y-13023850D02*
G75*
G03X13976350Y-13023850I-38100J0D01*
G01*
X14230350Y-13023850D02*
G75*
G03X14230350Y-13023850I-38100J0D01*
G01*
X14484350Y-13023850D02*
G75*
G03X14484350Y-13023850I-38100J0D01*
G01*
X14738350Y-13023850D02*
G75*
G03X14738350Y-13023850I-38100J0D01*
G01*
X14992350Y-13023850D02*
G75*
G03X14992350Y-13023850I-38100J0D01*
G01*
X15246350Y-13023850D02*
G75*
G03X15246350Y-13023850I-38100J0D01*
G01*
X15500350Y-13023850D02*
G75*
G03X15500350Y-13023850I-38100J0D01*
G01*
X15754350Y-13023850D02*
G75*
G03X15754350Y-13023850I-38100J0D01*
G01*
X16008350Y-13023850D02*
G75*
G03X16008350Y-13023850I-38100J0D01*
G01*
X16262350Y-13023850D02*
G75*
G03X16262350Y-13023850I-38100J0D01*
G01*
X16516350Y-13023850D02*
G75*
G03X16516350Y-13023850I-38100J0D01*
G01*
X16770350Y-13023850D02*
G75*
G03X16770350Y-13023850I-38100J0D01*
G01*
X17024350Y-13023850D02*
G75*
G03X17024350Y-13023850I-38100J0D01*
G01*
X17278350Y-13023850D02*
G75*
G03X17278350Y-13023850I-38100J0D01*
G01*
X17532350Y-13023850D02*
G75*
G03X17532350Y-13023850I-38100J0D01*
G01*
X17786350Y-13023850D02*
G75*
G03X17786350Y-13023850I-38100J0D01*
G01*
X18040350Y-13023850D02*
G75*
G03X18040350Y-13023850I-38100J0D01*
G01*
X18294350Y-13023850D02*
G75*
G03X18294350Y-13023850I-38100J0D01*
G01*
X18548350Y-13023850D02*
G75*
G03X18548350Y-13023850I-38100J0D01*
G01*
X18802350Y-13023850D02*
G75*
G03X18802350Y-13023850I-38100J0D01*
G01*
X19056350Y-13023850D02*
G75*
G03X19056350Y-13023850I-38100J0D01*
G01*
X19310350Y-13023850D02*
G75*
G03X19310350Y-13023850I-38100J0D01*
G01*
X6134100Y-7937500D02*
G75*
G03X6134100Y-7937500I-38100J0D01*
G01*
X6134100Y-8890000D02*
G75*
G03X6134100Y-8890000I-38100J0D01*
G01*
X13466100Y-11238000D02*
G75*
G03X13466100Y-11238000I-38100J0D01*
G01*
X13466100Y-12762000D02*
G75*
G03X13466100Y-12762000I-38100J0D01*
G01*
X13720100Y-11238000D02*
G75*
G03X13720100Y-11238000I-38100J0D01*
G01*
X13720100Y-12762000D02*
G75*
G03X13720100Y-12762000I-38100J0D01*
G01*
X13974100Y-11238000D02*
G75*
G03X13974100Y-11238000I-38100J0D01*
G01*
X13974100Y-12762000D02*
G75*
G03X13974100Y-12762000I-38100J0D01*
G01*
X14228100Y-11238000D02*
G75*
G03X14228100Y-11238000I-38100J0D01*
G01*
X14228100Y-12762000D02*
G75*
G03X14228100Y-12762000I-38100J0D01*
G01*
X14482100Y-11238000D02*
G75*
G03X14482100Y-11238000I-38100J0D01*
G01*
X14482100Y-12762000D02*
G75*
G03X14482100Y-12762000I-38100J0D01*
G01*
X14736100Y-11238000D02*
G75*
G03X14736100Y-11238000I-38100J0D01*
G01*
X14736100Y-11492000D02*
G75*
G03X14736100Y-11492000I-38100J0D01*
G01*
X14736100Y-11746000D02*
G75*
G03X14736100Y-11746000I-38100J0D01*
G01*
X14736100Y-12000000D02*
G75*
G03X14736100Y-12000000I-38100J0D01*
G01*
X14736100Y-12254000D02*
G75*
G03X14736100Y-12254000I-38100J0D01*
G01*
X14736100Y-12508000D02*
G75*
G03X14736100Y-12508000I-38100J0D01*
G01*
X14736100Y-12762000D02*
G75*
G03X14736100Y-12762000I-38100J0D01*
G01*
X14990100Y-11238000D02*
G75*
G03X14990100Y-11238000I-38100J0D01*
G01*
X14990100Y-12762000D02*
G75*
G03X14990100Y-12762000I-38100J0D01*
G01*
X15244100Y-11238000D02*
G75*
G03X15244100Y-11238000I-38100J0D01*
G01*
X15244100Y-12762000D02*
G75*
G03X15244100Y-12762000I-38100J0D01*
G01*
X15498100Y-11238000D02*
G75*
G03X15498100Y-11238000I-38100J0D01*
G01*
X15498100Y-12762000D02*
G75*
G03X15498100Y-12762000I-38100J0D01*
G01*
X15752100Y-11238000D02*
G75*
G03X15752100Y-11238000I-38100J0D01*
G01*
X15752100Y-12762000D02*
G75*
G03X15752100Y-12762000I-38100J0D01*
G01*
X16006100Y-11238000D02*
G75*
G03X16006100Y-11238000I-38100J0D01*
G01*
X16006100Y-12762000D02*
G75*
G03X16006100Y-12762000I-38100J0D01*
G01*
X16260100Y-11238000D02*
G75*
G03X16260100Y-11238000I-38100J0D01*
G01*
X16260100Y-12762000D02*
G75*
G03X16260100Y-12762000I-38100J0D01*
G01*
X16514100Y-11238000D02*
G75*
G03X16514100Y-11238000I-38100J0D01*
G01*
X16514100Y-12762000D02*
G75*
G03X16514100Y-12762000I-38100J0D01*
G01*
X16768100Y-11238000D02*
G75*
G03X16768100Y-11238000I-38100J0D01*
G01*
X16768100Y-12762000D02*
G75*
G03X16768100Y-12762000I-38100J0D01*
G01*
X17022100Y-11238000D02*
G75*
G03X17022100Y-11238000I-38100J0D01*
G01*
X17022100Y-12762000D02*
G75*
G03X17022100Y-12762000I-38100J0D01*
G01*
X17276100Y-11238000D02*
G75*
G03X17276100Y-11238000I-38100J0D01*
G01*
X17276100Y-12762000D02*
G75*
G03X17276100Y-12762000I-38100J0D01*
G01*
X17530100Y-11238000D02*
G75*
G03X17530100Y-11238000I-38100J0D01*
G01*
X17530100Y-12762000D02*
G75*
G03X17530100Y-12762000I-38100J0D01*
G01*
X17657100Y-11492000D02*
G75*
G03X17657100Y-11492000I-38100J0D01*
G01*
X17784100Y-11238000D02*
G75*
G03X17784100Y-11238000I-38100J0D01*
G01*
X17784100Y-12762000D02*
G75*
G03X17784100Y-12762000I-38100J0D01*
G01*
X17911100Y-11492000D02*
G75*
G03X17911100Y-11492000I-38100J0D01*
G01*
X18038100Y-11238000D02*
G75*
G03X18038100Y-11238000I-38100J0D01*
G01*
X18038100Y-12762000D02*
G75*
G03X18038100Y-12762000I-38100J0D01*
G01*
X18165100Y-11492000D02*
G75*
G03X18165100Y-11492000I-38100J0D01*
G01*
X18292100Y-11238000D02*
G75*
G03X18292100Y-11238000I-38100J0D01*
G01*
X18292100Y-12762000D02*
G75*
G03X18292100Y-12762000I-38100J0D01*
G01*
X18419100Y-11492000D02*
G75*
G03X18419100Y-11492000I-38100J0D01*
G01*
X18546100Y-11238000D02*
G75*
G03X18546100Y-11238000I-38100J0D01*
G01*
X18546100Y-12762000D02*
G75*
G03X18546100Y-12762000I-38100J0D01*
G01*
X18673100Y-11492000D02*
G75*
G03X18673100Y-11492000I-38100J0D01*
G01*
X18800100Y-11238000D02*
G75*
G03X18800100Y-11238000I-38100J0D01*
G01*
X18800100Y-12762000D02*
G75*
G03X18800100Y-12762000I-38100J0D01*
G01*
X19054100Y-11238000D02*
G75*
G03X19054100Y-11238000I-38100J0D01*
G01*
X19054100Y-12508000D02*
G75*
G03X19054100Y-12508000I-38100J0D01*
G01*
X19054100Y-12762000D02*
G75*
G03X19054100Y-12762000I-38100J0D01*
G01*
X19308100Y-11238000D02*
G75*
G03X19308100Y-11238000I-38100J0D01*
G01*
X19308100Y-12762000D02*
G75*
G03X19308100Y-12762000I-38100J0D01*
G01*
X13467080Y-10979150D02*
G75*
G03X13467080Y-10979150I-38100J0D01*
G01*
X13721080Y-10979150D02*
G75*
G03X13721080Y-10979150I-38100J0D01*
G01*
X13975080Y-10979150D02*
G75*
G03X13975080Y-10979150I-38100J0D01*
G01*
X14229080Y-10979150D02*
G75*
G03X14229080Y-10979150I-38100J0D01*
G01*
X14483080Y-10979150D02*
G75*
G03X14483080Y-10979150I-38100J0D01*
G01*
X14737080Y-10979150D02*
G75*
G03X14737080Y-10979150I-38100J0D01*
G01*
X14991080Y-10979150D02*
G75*
G03X14991080Y-10979150I-38100J0D01*
G01*
X15245080Y-10979150D02*
G75*
G03X15245080Y-10979150I-38100J0D01*
G01*
X15499080Y-10979150D02*
G75*
G03X15499080Y-10979150I-38100J0D01*
G01*
X15753080Y-10979150D02*
G75*
G03X15753080Y-10979150I-38100J0D01*
G01*
X16007080Y-10979150D02*
G75*
G03X16007080Y-10979150I-38100J0D01*
G01*
X16261080Y-10979150D02*
G75*
G03X16261080Y-10979150I-38100J0D01*
G01*
X16515080Y-10979150D02*
G75*
G03X16515080Y-10979150I-38100J0D01*
G01*
X16769080Y-10979150D02*
G75*
G03X16769080Y-10979150I-38100J0D01*
G01*
X17023080Y-10979150D02*
G75*
G03X17023080Y-10979150I-38100J0D01*
G01*
X17277080Y-10979150D02*
G75*
G03X17277080Y-10979150I-38100J0D01*
G01*
X17531080Y-10979150D02*
G75*
G03X17531080Y-10979150I-38100J0D01*
G01*
X17785080Y-10979150D02*
G75*
G03X17785080Y-10979150I-38100J0D01*
G01*
X18039080Y-10979150D02*
G75*
G03X18039080Y-10979150I-38100J0D01*
G01*
X18293080Y-10979150D02*
G75*
G03X18293080Y-10979150I-38100J0D01*
G01*
X18547080Y-10979150D02*
G75*
G03X18547080Y-10979150I-38100J0D01*
G01*
X18801080Y-10979150D02*
G75*
G03X18801080Y-10979150I-38100J0D01*
G01*
X19055080Y-10979150D02*
G75*
G03X19055080Y-10979150I-38100J0D01*
G01*
X19309080Y-10979150D02*
G75*
G03X19309080Y-10979150I-38100J0D01*
G01*
X12738100Y-13398500D02*
G75*
G03X12738100Y-13398500I-38100J0D01*
G01*
X12738100Y-14351000D02*
G75*
G03X12738100Y-14351000I-38100J0D01*
G01*
X9690100Y-15113000D02*
G75*
G03X9690100Y-15113000I-38100J0D01*
G01*
X10642600Y-15113000D02*
G75*
G03X10642600Y-15113000I-38100J0D01*
G01*
X21628100Y-4445000D02*
G75*
G03X21628100Y-4445000I-38100J0D01*
G01*
X21882100Y-4445000D02*
G75*
G03X21882100Y-4445000I-38100J0D01*
G01*
X22136100Y-4445000D02*
G75*
G03X22136100Y-4445000I-38100J0D01*
G01*
X6642100Y-9652000D02*
G75*
G03X6642100Y-9652000I-38100J0D01*
G01*
X6642100Y-9906000D02*
G75*
G03X6642100Y-9906000I-38100J0D01*
G01*
X6642100Y-10160000D02*
G75*
G03X6642100Y-10160000I-38100J0D01*
G01*
X6642100Y-10414000D02*
G75*
G03X6642100Y-10414000I-38100J0D01*
G01*
X6642100Y-10668000D02*
G75*
G03X6642100Y-10668000I-38100J0D01*
G01*
X6642100Y-10922000D02*
G75*
G03X6642100Y-10922000I-38100J0D01*
G01*
X6642100Y-11176000D02*
G75*
G03X6642100Y-11176000I-38100J0D01*
G01*
X6642100Y-11430000D02*
G75*
G03X6642100Y-11430000I-38100J0D01*
G01*
X6896100Y-9652000D02*
G75*
G03X6896100Y-9652000I-38100J0D01*
G01*
X6896100Y-9906000D02*
G75*
G03X6896100Y-9906000I-38100J0D01*
G01*
X6896100Y-10160000D02*
G75*
G03X6896100Y-10160000I-38100J0D01*
G01*
X6896100Y-10414000D02*
G75*
G03X6896100Y-10414000I-38100J0D01*
G01*
X6896100Y-10668000D02*
G75*
G03X6896100Y-10668000I-38100J0D01*
G01*
X6896100Y-10922000D02*
G75*
G03X6896100Y-10922000I-38100J0D01*
G01*
X6896100Y-11176000D02*
G75*
G03X6896100Y-11176000I-38100J0D01*
G01*
X6896100Y-11430000D02*
G75*
G03X6896100Y-11430000I-38100J0D01*
G01*
X6896100Y-11684000D02*
G75*
G03X6896100Y-11684000I-38100J0D01*
G01*
X7150100Y-9652000D02*
G75*
G03X7150100Y-9652000I-38100J0D01*
G01*
X7150100Y-9906000D02*
G75*
G03X7150100Y-9906000I-38100J0D01*
G01*
X7150100Y-10160000D02*
G75*
G03X7150100Y-10160000I-38100J0D01*
G01*
X7150100Y-10414000D02*
G75*
G03X7150100Y-10414000I-38100J0D01*
G01*
X7150100Y-10668000D02*
G75*
G03X7150100Y-10668000I-38100J0D01*
G01*
X7150100Y-10922000D02*
G75*
G03X7150100Y-10922000I-38100J0D01*
G01*
X7150100Y-11176000D02*
G75*
G03X7150100Y-11176000I-38100J0D01*
G01*
X7150100Y-11430000D02*
G75*
G03X7150100Y-11430000I-38100J0D01*
G01*
X7150100Y-11684000D02*
G75*
G03X7150100Y-11684000I-38100J0D01*
G01*
X7150100Y-11938000D02*
G75*
G03X7150100Y-11938000I-38100J0D01*
G01*
X7404100Y-9652000D02*
G75*
G03X7404100Y-9652000I-38100J0D01*
G01*
X7404100Y-9906000D02*
G75*
G03X7404100Y-9906000I-38100J0D01*
G01*
X7404100Y-10160000D02*
G75*
G03X7404100Y-10160000I-38100J0D01*
G01*
X7404100Y-10414000D02*
G75*
G03X7404100Y-10414000I-38100J0D01*
G01*
X7404100Y-10668000D02*
G75*
G03X7404100Y-10668000I-38100J0D01*
G01*
X7404100Y-10922000D02*
G75*
G03X7404100Y-10922000I-38100J0D01*
G01*
X7404100Y-11176000D02*
G75*
G03X7404100Y-11176000I-38100J0D01*
G01*
X7404100Y-11430000D02*
G75*
G03X7404100Y-11430000I-38100J0D01*
G01*
X7404100Y-11684000D02*
G75*
G03X7404100Y-11684000I-38100J0D01*
G01*
X7404100Y-11938000D02*
G75*
G03X7404100Y-11938000I-38100J0D01*
G01*
X7404100Y-12192000D02*
G75*
G03X7404100Y-12192000I-38100J0D01*
G01*
X7658100Y-9652000D02*
G75*
G03X7658100Y-9652000I-38100J0D01*
G01*
X7658100Y-9906000D02*
G75*
G03X7658100Y-9906000I-38100J0D01*
G01*
X7658100Y-10160000D02*
G75*
G03X7658100Y-10160000I-38100J0D01*
G01*
X7658100Y-10414000D02*
G75*
G03X7658100Y-10414000I-38100J0D01*
G01*
X7658100Y-10668000D02*
G75*
G03X7658100Y-10668000I-38100J0D01*
G01*
X7658100Y-10922000D02*
G75*
G03X7658100Y-10922000I-38100J0D01*
G01*
X7658100Y-11176000D02*
G75*
G03X7658100Y-11176000I-38100J0D01*
G01*
X7658100Y-11430000D02*
G75*
G03X7658100Y-11430000I-38100J0D01*
G01*
X7658100Y-11684000D02*
G75*
G03X7658100Y-11684000I-38100J0D01*
G01*
X7658100Y-11938000D02*
G75*
G03X7658100Y-11938000I-38100J0D01*
G01*
X7658100Y-12192000D02*
G75*
G03X7658100Y-12192000I-38100J0D01*
G01*
X7658100Y-12446000D02*
G75*
G03X7658100Y-12446000I-38100J0D01*
G01*
X7912100Y-9652000D02*
G75*
G03X7912100Y-9652000I-38100J0D01*
G01*
X7912100Y-9906000D02*
G75*
G03X7912100Y-9906000I-38100J0D01*
G01*
X7912100Y-10160000D02*
G75*
G03X7912100Y-10160000I-38100J0D01*
G01*
X7912100Y-10414000D02*
G75*
G03X7912100Y-10414000I-38100J0D01*
G01*
X7912100Y-10668000D02*
G75*
G03X7912100Y-10668000I-38100J0D01*
G01*
X7912100Y-10922000D02*
G75*
G03X7912100Y-10922000I-38100J0D01*
G01*
X7912100Y-11176000D02*
G75*
G03X7912100Y-11176000I-38100J0D01*
G01*
X7912100Y-11430000D02*
G75*
G03X7912100Y-11430000I-38100J0D01*
G01*
X7912100Y-11684000D02*
G75*
G03X7912100Y-11684000I-38100J0D01*
G01*
X7912100Y-11938000D02*
G75*
G03X7912100Y-11938000I-38100J0D01*
G01*
X7912100Y-12192000D02*
G75*
G03X7912100Y-12192000I-38100J0D01*
G01*
X7912100Y-12446000D02*
G75*
G03X7912100Y-12446000I-38100J0D01*
G01*
X7912100Y-12700000D02*
G75*
G03X7912100Y-12700000I-38100J0D01*
G01*
X8166100Y-9652000D02*
G75*
G03X8166100Y-9652000I-38100J0D01*
G01*
X8166100Y-9906000D02*
G75*
G03X8166100Y-9906000I-38100J0D01*
G01*
X8166100Y-10160000D02*
G75*
G03X8166100Y-10160000I-38100J0D01*
G01*
X8166100Y-10414000D02*
G75*
G03X8166100Y-10414000I-38100J0D01*
G01*
X8166100Y-10668000D02*
G75*
G03X8166100Y-10668000I-38100J0D01*
G01*
X8166100Y-10922000D02*
G75*
G03X8166100Y-10922000I-38100J0D01*
G01*
X8166100Y-11176000D02*
G75*
G03X8166100Y-11176000I-38100J0D01*
G01*
X8166100Y-11430000D02*
G75*
G03X8166100Y-11430000I-38100J0D01*
G01*
X8166100Y-11684000D02*
G75*
G03X8166100Y-11684000I-38100J0D01*
G01*
X8166100Y-11938000D02*
G75*
G03X8166100Y-11938000I-38100J0D01*
G01*
X8166100Y-12192000D02*
G75*
G03X8166100Y-12192000I-38100J0D01*
G01*
X8166100Y-12446000D02*
G75*
G03X8166100Y-12446000I-38100J0D01*
G01*
X8166100Y-12700000D02*
G75*
G03X8166100Y-12700000I-38100J0D01*
G01*
X8166100Y-12954000D02*
G75*
G03X8166100Y-12954000I-38100J0D01*
G01*
X8420100Y-9652000D02*
G75*
G03X8420100Y-9652000I-38100J0D01*
G01*
X8420100Y-9906000D02*
G75*
G03X8420100Y-9906000I-38100J0D01*
G01*
X8420100Y-10160000D02*
G75*
G03X8420100Y-10160000I-38100J0D01*
G01*
X8420100Y-10414000D02*
G75*
G03X8420100Y-10414000I-38100J0D01*
G01*
X8420100Y-10668000D02*
G75*
G03X8420100Y-10668000I-38100J0D01*
G01*
X8420100Y-10922000D02*
G75*
G03X8420100Y-10922000I-38100J0D01*
G01*
X8420100Y-11176000D02*
G75*
G03X8420100Y-11176000I-38100J0D01*
G01*
X8420100Y-11430000D02*
G75*
G03X8420100Y-11430000I-38100J0D01*
G01*
X8420100Y-11684000D02*
G75*
G03X8420100Y-11684000I-38100J0D01*
G01*
X8420100Y-11938000D02*
G75*
G03X8420100Y-11938000I-38100J0D01*
G01*
X8420100Y-12192000D02*
G75*
G03X8420100Y-12192000I-38100J0D01*
G01*
X8420100Y-12446000D02*
G75*
G03X8420100Y-12446000I-38100J0D01*
G01*
X8420100Y-12700000D02*
G75*
G03X8420100Y-12700000I-38100J0D01*
G01*
X8420100Y-12954000D02*
G75*
G03X8420100Y-12954000I-38100J0D01*
G01*
X8420100Y-13208000D02*
G75*
G03X8420100Y-13208000I-38100J0D01*
G01*
X8674100Y-9652000D02*
G75*
G03X8674100Y-9652000I-38100J0D01*
G01*
X8674100Y-9906000D02*
G75*
G03X8674100Y-9906000I-38100J0D01*
G01*
X8674100Y-10160000D02*
G75*
G03X8674100Y-10160000I-38100J0D01*
G01*
X8674100Y-10414000D02*
G75*
G03X8674100Y-10414000I-38100J0D01*
G01*
X8674100Y-10668000D02*
G75*
G03X8674100Y-10668000I-38100J0D01*
G01*
X8674100Y-10922000D02*
G75*
G03X8674100Y-10922000I-38100J0D01*
G01*
X8674100Y-11176000D02*
G75*
G03X8674100Y-11176000I-38100J0D01*
G01*
X8674100Y-11430000D02*
G75*
G03X8674100Y-11430000I-38100J0D01*
G01*
X8674100Y-11684000D02*
G75*
G03X8674100Y-11684000I-38100J0D01*
G01*
X8674100Y-11938000D02*
G75*
G03X8674100Y-11938000I-38100J0D01*
G01*
X8674100Y-12192000D02*
G75*
G03X8674100Y-12192000I-38100J0D01*
G01*
X8674100Y-12446000D02*
G75*
G03X8674100Y-12446000I-38100J0D01*
G01*
X8674100Y-12700000D02*
G75*
G03X8674100Y-12700000I-38100J0D01*
G01*
X8674100Y-12954000D02*
G75*
G03X8674100Y-12954000I-38100J0D01*
G01*
X8674100Y-13208000D02*
G75*
G03X8674100Y-13208000I-38100J0D01*
G01*
X8928100Y-9652000D02*
G75*
G03X8928100Y-9652000I-38100J0D01*
G01*
X8928100Y-9906000D02*
G75*
G03X8928100Y-9906000I-38100J0D01*
G01*
X8928100Y-10160000D02*
G75*
G03X8928100Y-10160000I-38100J0D01*
G01*
X8928100Y-10414000D02*
G75*
G03X8928100Y-10414000I-38100J0D01*
G01*
X8928100Y-10668000D02*
G75*
G03X8928100Y-10668000I-38100J0D01*
G01*
X8928100Y-10922000D02*
G75*
G03X8928100Y-10922000I-38100J0D01*
G01*
X8928100Y-11176000D02*
G75*
G03X8928100Y-11176000I-38100J0D01*
G01*
X8928100Y-11430000D02*
G75*
G03X8928100Y-11430000I-38100J0D01*
G01*
X8928100Y-11684000D02*
G75*
G03X8928100Y-11684000I-38100J0D01*
G01*
X8928100Y-11938000D02*
G75*
G03X8928100Y-11938000I-38100J0D01*
G01*
X8928100Y-12192000D02*
G75*
G03X8928100Y-12192000I-38100J0D01*
G01*
X8928100Y-12446000D02*
G75*
G03X8928100Y-12446000I-38100J0D01*
G01*
X8928100Y-12700000D02*
G75*
G03X8928100Y-12700000I-38100J0D01*
G01*
X8928100Y-12954000D02*
G75*
G03X8928100Y-12954000I-38100J0D01*
G01*
X8928100Y-13208000D02*
G75*
G03X8928100Y-13208000I-38100J0D01*
G01*
X9182100Y-9652000D02*
G75*
G03X9182100Y-9652000I-38100J0D01*
G01*
X9182100Y-9906000D02*
G75*
G03X9182100Y-9906000I-38100J0D01*
G01*
X9182100Y-10160000D02*
G75*
G03X9182100Y-10160000I-38100J0D01*
G01*
X9182100Y-10414000D02*
G75*
G03X9182100Y-10414000I-38100J0D01*
G01*
X9182100Y-10668000D02*
G75*
G03X9182100Y-10668000I-38100J0D01*
G01*
X9182100Y-10922000D02*
G75*
G03X9182100Y-10922000I-38100J0D01*
G01*
X9182100Y-11176000D02*
G75*
G03X9182100Y-11176000I-38100J0D01*
G01*
X9182100Y-11430000D02*
G75*
G03X9182100Y-11430000I-38100J0D01*
G01*
X9182100Y-11684000D02*
G75*
G03X9182100Y-11684000I-38100J0D01*
G01*
X9182100Y-11938000D02*
G75*
G03X9182100Y-11938000I-38100J0D01*
G01*
X9182100Y-12192000D02*
G75*
G03X9182100Y-12192000I-38100J0D01*
G01*
X9182100Y-12446000D02*
G75*
G03X9182100Y-12446000I-38100J0D01*
G01*
X9182100Y-12700000D02*
G75*
G03X9182100Y-12700000I-38100J0D01*
G01*
X9182100Y-12954000D02*
G75*
G03X9182100Y-12954000I-38100J0D01*
G01*
X9182100Y-13208000D02*
G75*
G03X9182100Y-13208000I-38100J0D01*
G01*
X9436100Y-9652000D02*
G75*
G03X9436100Y-9652000I-38100J0D01*
G01*
X9436100Y-9906000D02*
G75*
G03X9436100Y-9906000I-38100J0D01*
G01*
X9436100Y-10160000D02*
G75*
G03X9436100Y-10160000I-38100J0D01*
G01*
X9436100Y-10414000D02*
G75*
G03X9436100Y-10414000I-38100J0D01*
G01*
X9436100Y-10668000D02*
G75*
G03X9436100Y-10668000I-38100J0D01*
G01*
X9436100Y-10922000D02*
G75*
G03X9436100Y-10922000I-38100J0D01*
G01*
X9436100Y-11176000D02*
G75*
G03X9436100Y-11176000I-38100J0D01*
G01*
X9436100Y-11430000D02*
G75*
G03X9436100Y-11430000I-38100J0D01*
G01*
X9436100Y-11684000D02*
G75*
G03X9436100Y-11684000I-38100J0D01*
G01*
X9436100Y-11938000D02*
G75*
G03X9436100Y-11938000I-38100J0D01*
G01*
X9436100Y-12192000D02*
G75*
G03X9436100Y-12192000I-38100J0D01*
G01*
X9436100Y-12446000D02*
G75*
G03X9436100Y-12446000I-38100J0D01*
G01*
X9436100Y-12700000D02*
G75*
G03X9436100Y-12700000I-38100J0D01*
G01*
X9436100Y-12954000D02*
G75*
G03X9436100Y-12954000I-38100J0D01*
G01*
X9436100Y-13208000D02*
G75*
G03X9436100Y-13208000I-38100J0D01*
G01*
X9690100Y-9652000D02*
G75*
G03X9690100Y-9652000I-38100J0D01*
G01*
X9690100Y-9906000D02*
G75*
G03X9690100Y-9906000I-38100J0D01*
G01*
X9690100Y-10160000D02*
G75*
G03X9690100Y-10160000I-38100J0D01*
G01*
X9690100Y-10414000D02*
G75*
G03X9690100Y-10414000I-38100J0D01*
G01*
X9690100Y-10668000D02*
G75*
G03X9690100Y-10668000I-38100J0D01*
G01*
X9690100Y-10922000D02*
G75*
G03X9690100Y-10922000I-38100J0D01*
G01*
X9690100Y-11176000D02*
G75*
G03X9690100Y-11176000I-38100J0D01*
G01*
X9690100Y-11430000D02*
G75*
G03X9690100Y-11430000I-38100J0D01*
G01*
X9690100Y-11684000D02*
G75*
G03X9690100Y-11684000I-38100J0D01*
G01*
X9690100Y-11938000D02*
G75*
G03X9690100Y-11938000I-38100J0D01*
G01*
X9690100Y-12192000D02*
G75*
G03X9690100Y-12192000I-38100J0D01*
G01*
X9690100Y-12446000D02*
G75*
G03X9690100Y-12446000I-38100J0D01*
G01*
X9690100Y-12700000D02*
G75*
G03X9690100Y-12700000I-38100J0D01*
G01*
X9690100Y-12954000D02*
G75*
G03X9690100Y-12954000I-38100J0D01*
G01*
X9690100Y-13208000D02*
G75*
G03X9690100Y-13208000I-38100J0D01*
G01*
X9944100Y-9652000D02*
G75*
G03X9944100Y-9652000I-38100J0D01*
G01*
X9944100Y-9906000D02*
G75*
G03X9944100Y-9906000I-38100J0D01*
G01*
X9944100Y-10160000D02*
G75*
G03X9944100Y-10160000I-38100J0D01*
G01*
X9944100Y-10414000D02*
G75*
G03X9944100Y-10414000I-38100J0D01*
G01*
X9944100Y-10668000D02*
G75*
G03X9944100Y-10668000I-38100J0D01*
G01*
X9944100Y-10922000D02*
G75*
G03X9944100Y-10922000I-38100J0D01*
G01*
X9944100Y-11176000D02*
G75*
G03X9944100Y-11176000I-38100J0D01*
G01*
X9944100Y-11430000D02*
G75*
G03X9944100Y-11430000I-38100J0D01*
G01*
X9944100Y-11684000D02*
G75*
G03X9944100Y-11684000I-38100J0D01*
G01*
X9944100Y-11938000D02*
G75*
G03X9944100Y-11938000I-38100J0D01*
G01*
X9944100Y-12192000D02*
G75*
G03X9944100Y-12192000I-38100J0D01*
G01*
X9944100Y-12446000D02*
G75*
G03X9944100Y-12446000I-38100J0D01*
G01*
X9944100Y-12700000D02*
G75*
G03X9944100Y-12700000I-38100J0D01*
G01*
X9944100Y-12954000D02*
G75*
G03X9944100Y-12954000I-38100J0D01*
G01*
X9944100Y-13208000D02*
G75*
G03X9944100Y-13208000I-38100J0D01*
G01*
X10198100Y-9906000D02*
G75*
G03X10198100Y-9906000I-38100J0D01*
G01*
X10198100Y-10160000D02*
G75*
G03X10198100Y-10160000I-38100J0D01*
G01*
X10198100Y-10414000D02*
G75*
G03X10198100Y-10414000I-38100J0D01*
G01*
X10198100Y-10668000D02*
G75*
G03X10198100Y-10668000I-38100J0D01*
G01*
X10198100Y-10922000D02*
G75*
G03X10198100Y-10922000I-38100J0D01*
G01*
X10198100Y-11176000D02*
G75*
G03X10198100Y-11176000I-38100J0D01*
G01*
X10198100Y-11430000D02*
G75*
G03X10198100Y-11430000I-38100J0D01*
G01*
X10198100Y-11684000D02*
G75*
G03X10198100Y-11684000I-38100J0D01*
G01*
X10198100Y-11938000D02*
G75*
G03X10198100Y-11938000I-38100J0D01*
G01*
X10198100Y-12192000D02*
G75*
G03X10198100Y-12192000I-38100J0D01*
G01*
X10198100Y-12446000D02*
G75*
G03X10198100Y-12446000I-38100J0D01*
G01*
X10198100Y-12700000D02*
G75*
G03X10198100Y-12700000I-38100J0D01*
G01*
X10198100Y-12954000D02*
G75*
G03X10198100Y-12954000I-38100J0D01*
G01*
X10198100Y-13208000D02*
G75*
G03X10198100Y-13208000I-38100J0D01*
G01*
X10452100Y-10160000D02*
G75*
G03X10452100Y-10160000I-38100J0D01*
G01*
X10452100Y-10414000D02*
G75*
G03X10452100Y-10414000I-38100J0D01*
G01*
X10452100Y-10668000D02*
G75*
G03X10452100Y-10668000I-38100J0D01*
G01*
X10452100Y-10922000D02*
G75*
G03X10452100Y-10922000I-38100J0D01*
G01*
X10452100Y-11176000D02*
G75*
G03X10452100Y-11176000I-38100J0D01*
G01*
X10452100Y-11430000D02*
G75*
G03X10452100Y-11430000I-38100J0D01*
G01*
X10452100Y-11684000D02*
G75*
G03X10452100Y-11684000I-38100J0D01*
G01*
X10452100Y-11938000D02*
G75*
G03X10452100Y-11938000I-38100J0D01*
G01*
X10452100Y-12192000D02*
G75*
G03X10452100Y-12192000I-38100J0D01*
G01*
X10452100Y-12446000D02*
G75*
G03X10452100Y-12446000I-38100J0D01*
G01*
X10452100Y-12700000D02*
G75*
G03X10452100Y-12700000I-38100J0D01*
G01*
X10452100Y-12954000D02*
G75*
G03X10452100Y-12954000I-38100J0D01*
G01*
X10452100Y-13208000D02*
G75*
G03X10452100Y-13208000I-38100J0D01*
G01*
X10706100Y-10414000D02*
G75*
G03X10706100Y-10414000I-38100J0D01*
G01*
X10706100Y-10668000D02*
G75*
G03X10706100Y-10668000I-38100J0D01*
G01*
X10706100Y-10922000D02*
G75*
G03X10706100Y-10922000I-38100J0D01*
G01*
X10706100Y-11176000D02*
G75*
G03X10706100Y-11176000I-38100J0D01*
G01*
X10706100Y-11430000D02*
G75*
G03X10706100Y-11430000I-38100J0D01*
G01*
X10706100Y-11684000D02*
G75*
G03X10706100Y-11684000I-38100J0D01*
G01*
X10706100Y-11938000D02*
G75*
G03X10706100Y-11938000I-38100J0D01*
G01*
X10706100Y-12192000D02*
G75*
G03X10706100Y-12192000I-38100J0D01*
G01*
X10706100Y-12446000D02*
G75*
G03X10706100Y-12446000I-38100J0D01*
G01*
X10706100Y-12700000D02*
G75*
G03X10706100Y-12700000I-38100J0D01*
G01*
X10706100Y-12954000D02*
G75*
G03X10706100Y-12954000I-38100J0D01*
G01*
X10706100Y-13208000D02*
G75*
G03X10706100Y-13208000I-38100J0D01*
G01*
X10960100Y-10668000D02*
G75*
G03X10960100Y-10668000I-38100J0D01*
G01*
X10960100Y-10922000D02*
G75*
G03X10960100Y-10922000I-38100J0D01*
G01*
X10960100Y-11176000D02*
G75*
G03X10960100Y-11176000I-38100J0D01*
G01*
X10960100Y-11430000D02*
G75*
G03X10960100Y-11430000I-38100J0D01*
G01*
X10960100Y-11684000D02*
G75*
G03X10960100Y-11684000I-38100J0D01*
G01*
X10960100Y-11938000D02*
G75*
G03X10960100Y-11938000I-38100J0D01*
G01*
X10960100Y-12192000D02*
G75*
G03X10960100Y-12192000I-38100J0D01*
G01*
X10960100Y-12446000D02*
G75*
G03X10960100Y-12446000I-38100J0D01*
G01*
X10960100Y-12700000D02*
G75*
G03X10960100Y-12700000I-38100J0D01*
G01*
X10960100Y-12954000D02*
G75*
G03X10960100Y-12954000I-38100J0D01*
G01*
X10960100Y-13208000D02*
G75*
G03X10960100Y-13208000I-38100J0D01*
G01*
X11214100Y-10922000D02*
G75*
G03X11214100Y-10922000I-38100J0D01*
G01*
X11214100Y-11176000D02*
G75*
G03X11214100Y-11176000I-38100J0D01*
G01*
X11214100Y-11430000D02*
G75*
G03X11214100Y-11430000I-38100J0D01*
G01*
X11214100Y-11684000D02*
G75*
G03X11214100Y-11684000I-38100J0D01*
G01*
X11214100Y-11938000D02*
G75*
G03X11214100Y-11938000I-38100J0D01*
G01*
X11214100Y-12192000D02*
G75*
G03X11214100Y-12192000I-38100J0D01*
G01*
X11214100Y-12446000D02*
G75*
G03X11214100Y-12446000I-38100J0D01*
G01*
X11214100Y-12700000D02*
G75*
G03X11214100Y-12700000I-38100J0D01*
G01*
X11214100Y-12954000D02*
G75*
G03X11214100Y-12954000I-38100J0D01*
G01*
X11214100Y-13208000D02*
G75*
G03X11214100Y-13208000I-38100J0D01*
G01*
X11468100Y-11176000D02*
G75*
G03X11468100Y-11176000I-38100J0D01*
G01*
X11468100Y-11430000D02*
G75*
G03X11468100Y-11430000I-38100J0D01*
G01*
X11468100Y-11684000D02*
G75*
G03X11468100Y-11684000I-38100J0D01*
G01*
X11468100Y-11938000D02*
G75*
G03X11468100Y-11938000I-38100J0D01*
G01*
X11468100Y-12192000D02*
G75*
G03X11468100Y-12192000I-38100J0D01*
G01*
X11468100Y-12446000D02*
G75*
G03X11468100Y-12446000I-38100J0D01*
G01*
X11468100Y-12700000D02*
G75*
G03X11468100Y-12700000I-38100J0D01*
G01*
X11468100Y-12954000D02*
G75*
G03X11468100Y-12954000I-38100J0D01*
G01*
X11468100Y-13208000D02*
G75*
G03X11468100Y-13208000I-38100J0D01*
G01*
X11722100Y-11430000D02*
G75*
G03X11722100Y-11430000I-38100J0D01*
G01*
X11722100Y-11684000D02*
G75*
G03X11722100Y-11684000I-38100J0D01*
G01*
X11722100Y-11938000D02*
G75*
G03X11722100Y-11938000I-38100J0D01*
G01*
X11722100Y-12192000D02*
G75*
G03X11722100Y-12192000I-38100J0D01*
G01*
X11722100Y-12446000D02*
G75*
G03X11722100Y-12446000I-38100J0D01*
G01*
X11722100Y-12700000D02*
G75*
G03X11722100Y-12700000I-38100J0D01*
G01*
X11722100Y-12954000D02*
G75*
G03X11722100Y-12954000I-38100J0D01*
G01*
X11722100Y-13208000D02*
G75*
G03X11722100Y-13208000I-38100J0D01*
G01*
X11976100Y-11684000D02*
G75*
G03X11976100Y-11684000I-38100J0D01*
G01*
X11976100Y-11938000D02*
G75*
G03X11976100Y-11938000I-38100J0D01*
G01*
X11976100Y-12192000D02*
G75*
G03X11976100Y-12192000I-38100J0D01*
G01*
X11976100Y-12446000D02*
G75*
G03X11976100Y-12446000I-38100J0D01*
G01*
X11976100Y-12700000D02*
G75*
G03X11976100Y-12700000I-38100J0D01*
G01*
X11976100Y-12954000D02*
G75*
G03X11976100Y-12954000I-38100J0D01*
G01*
X11976100Y-13208000D02*
G75*
G03X11976100Y-13208000I-38100J0D01*
G01*
X12230100Y-11938000D02*
G75*
G03X12230100Y-11938000I-38100J0D01*
G01*
X12230100Y-12192000D02*
G75*
G03X12230100Y-12192000I-38100J0D01*
G01*
X12230100Y-12446000D02*
G75*
G03X12230100Y-12446000I-38100J0D01*
G01*
X12230100Y-12700000D02*
G75*
G03X12230100Y-12700000I-38100J0D01*
G01*
X12230100Y-12954000D02*
G75*
G03X12230100Y-12954000I-38100J0D01*
G01*
X12230100Y-13208000D02*
G75*
G03X12230100Y-13208000I-38100J0D01*
G01*
X8166100Y-4445000D02*
G75*
G03X8166100Y-4445000I-38100J0D01*
G01*
X8420100Y-4445000D02*
G75*
G03X8420100Y-4445000I-38100J0D01*
G01*
X8674100Y-4445000D02*
G75*
G03X8674100Y-4445000I-38100J0D01*
G01*
X6768692Y-13230592D02*
G75*
G03X6768692Y-13230592I-38100J0D01*
G01*
X6948297Y-13410197D02*
G75*
G03X6948297Y-13410197I-38100J0D01*
G01*
X7127903Y-13589803D02*
G75*
G03X7127903Y-13589803I-38100J0D01*
G01*
X7307508Y-13769408D02*
G75*
G03X7307508Y-13769408I-38100J0D01*
G01*
X11790680Y-9908540D02*
G75*
G03X11790680Y-9908540I-38100J0D01*
G01*
X11917680Y-10162540D02*
G75*
G03X11917680Y-10162540I-38100J0D01*
G01*
X12044680Y-9908540D02*
G75*
G03X12044680Y-9908540I-38100J0D01*
G01*
X12171680Y-10162540D02*
G75*
G03X12171680Y-10162540I-38100J0D01*
G01*
X12298680Y-9908540D02*
G75*
G03X12298680Y-9908540I-38100J0D01*
G01*
X12425680Y-10162540D02*
G75*
G03X12425680Y-10162540I-38100J0D01*
G01*
X12552680Y-9908540D02*
G75*
G03X12552680Y-9908540I-38100J0D01*
G01*
X12679680Y-10162540D02*
G75*
G03X12679680Y-10162540I-38100J0D01*
G01*
X12806680Y-9908540D02*
G75*
G03X12806680Y-9908540I-38100J0D01*
G01*
X12933680Y-10162540D02*
G75*
G03X12933680Y-10162540I-38100J0D01*
G01*
X13060680Y-9908540D02*
G75*
G03X13060680Y-9908540I-38100J0D01*
G01*
X13187680Y-10162540D02*
G75*
G03X13187680Y-10162540I-38100J0D01*
G01*
X13314680Y-9908540D02*
G75*
G03X13314680Y-9908540I-38100J0D01*
G01*
X13441680Y-10162540D02*
G75*
G03X13441680Y-10162540I-38100J0D01*
G01*
X13568680Y-9908540D02*
G75*
G03X13568680Y-9908540I-38100J0D01*
G01*
X13695680Y-10162540D02*
G75*
G03X13695680Y-10162540I-38100J0D01*
G01*
X13822680Y-9908540D02*
G75*
G03X13822680Y-9908540I-38100J0D01*
G01*
X13949680Y-10162540D02*
G75*
G03X13949680Y-10162540I-38100J0D01*
G01*
X14076680Y-9908540D02*
G75*
G03X14076680Y-9908540I-38100J0D01*
G01*
X14203680Y-10162540D02*
G75*
G03X14203680Y-10162540I-38100J0D01*
G01*
X14330680Y-9908540D02*
G75*
G03X14330680Y-9908540I-38100J0D01*
G01*
X14457680Y-10162540D02*
G75*
G03X14457680Y-10162540I-38100J0D01*
G01*
X14584680Y-9908540D02*
G75*
G03X14584680Y-9908540I-38100J0D01*
G01*
X14711680Y-10162540D02*
G75*
G03X14711680Y-10162540I-38100J0D01*
G01*
X14838680Y-9908540D02*
G75*
G03X14838680Y-9908540I-38100J0D01*
G01*
X14965680Y-10162540D02*
G75*
G03X14965680Y-10162540I-38100J0D01*
G01*
X15092680Y-9908540D02*
G75*
G03X15092680Y-9908540I-38100J0D01*
G01*
X15219680Y-10162540D02*
G75*
G03X15219680Y-10162540I-38100J0D01*
G01*
X15346680Y-9908540D02*
G75*
G03X15346680Y-9908540I-38100J0D01*
G01*
X15473680Y-10162540D02*
G75*
G03X15473680Y-10162540I-38100J0D01*
G01*
X15600680Y-9908540D02*
G75*
G03X15600680Y-9908540I-38100J0D01*
G01*
X15727680Y-10162540D02*
G75*
G03X15727680Y-10162540I-38100J0D01*
G01*
X15854680Y-9908540D02*
G75*
G03X15854680Y-9908540I-38100J0D01*
G01*
X15981680Y-10162540D02*
G75*
G03X15981680Y-10162540I-38100J0D01*
G01*
X16108680Y-9908540D02*
G75*
G03X16108680Y-9908540I-38100J0D01*
G01*
X16235680Y-10162540D02*
G75*
G03X16235680Y-10162540I-38100J0D01*
G01*
X16362680Y-9908540D02*
G75*
G03X16362680Y-9908540I-38100J0D01*
G01*
X16489680Y-10162540D02*
G75*
G03X16489680Y-10162540I-38100J0D01*
G01*
X16616680Y-9908540D02*
G75*
G03X16616680Y-9908540I-38100J0D01*
G01*
X16743680Y-10162540D02*
G75*
G03X16743680Y-10162540I-38100J0D01*
G01*
X23538100Y-7619000D02*
G75*
G03X23538100Y-7619000I-38100J0D01*
G01*
X23538100Y-7873000D02*
G75*
G03X23538100Y-7873000I-38100J0D01*
G01*
X23538100Y-8127000D02*
G75*
G03X23538100Y-8127000I-38100J0D01*
G01*
X23538100Y-8381000D02*
G75*
G03X23538100Y-8381000I-38100J0D01*
G01*
X7619581Y-13296481D02*
G75*
G03X7619581Y-13296481I-38100J0D01*
G01*
X8293100Y-13970000D02*
G75*
G03X8293100Y-13970000I-38100J0D01*
G01*
X11150600Y-15113000D02*
G75*
G03X11150600Y-15113000I-38100J0D01*
G01*
X12103100Y-15113000D02*
G75*
G03X12103100Y-15113000I-38100J0D01*
G01*
X9563100Y-4445000D02*
G75*
G03X9563100Y-4445000I-38100J0D01*
G01*
X9817100Y-4445000D02*
G75*
G03X9817100Y-4445000I-38100J0D01*
G01*
X10071100Y-4445000D02*
G75*
G03X10071100Y-4445000I-38100J0D01*
G01*
X6603581Y-12280481D02*
G75*
G03X6603581Y-12280481I-38100J0D01*
G01*
X7277100Y-12954000D02*
G75*
G03X7277100Y-12954000I-38100J0D01*
G01*
X18199100Y-15240000D02*
G75*
G03X18199100Y-15240000I-38100J0D01*
G01*
X19151600Y-15240000D02*
G75*
G03X19151600Y-15240000I-38100J0D01*
G01*
X14770100Y-14478000D02*
G75*
G03X14770100Y-14478000I-38100J0D01*
G01*
X15722600Y-14478000D02*
G75*
G03X15722600Y-14478000I-38100J0D01*
G01*
X14960600Y-13589000D02*
G75*
G03X14960600Y-13589000I-38100J0D01*
G01*
X15913100Y-13589000D02*
G75*
G03X15913100Y-13589000I-38100J0D01*
G01*
X6134100Y-9461500D02*
G75*
G03X6134100Y-9461500I-38100J0D01*
G01*
X6134100Y-10414000D02*
G75*
G03X6134100Y-10414000I-38100J0D01*
G01*
X5538100Y-7619000D02*
G75*
G03X5538100Y-7619000I-38100J0D01*
G01*
X5538100Y-7873000D02*
G75*
G03X5538100Y-7873000I-38100J0D01*
G01*
X5538100Y-8127000D02*
G75*
G03X5538100Y-8127000I-38100J0D01*
G01*
X5538100Y-8381000D02*
G75*
G03X5538100Y-8381000I-38100J0D01*
G01*
X18161000Y-13656000D02*
X18161000Y-13746000D01*
X18116000Y-13701000D02*
X18206000Y-13701000D01*
X18161000Y-14306000D02*
X18161000Y-14396000D01*
X18116000Y-14351000D02*
X18206000Y-14351000D01*
X18611000Y-13656000D02*
X18611000Y-13746000D01*
X18566000Y-13701000D02*
X18656000Y-13701000D01*
X18611000Y-14306000D02*
X18611000Y-14396000D01*
X18566000Y-14351000D02*
X18656000Y-14351000D01*
X9398000Y-14306000D02*
X9398000Y-14396000D01*
X9353000Y-14351000D02*
X9443000Y-14351000D01*
X9652000Y-14306000D02*
X9652000Y-14396000D01*
X9607000Y-14351000D02*
X9697000Y-14351000D01*
X10922000Y-14306000D02*
X10922000Y-14396000D01*
X10877000Y-14351000D02*
X10967000Y-14351000D01*
X11176000Y-14306000D02*
X11176000Y-14396000D01*
X11131000Y-14351000D02*
X11221000Y-14351000D01*
X16510000Y-13656000D02*
X16510000Y-13746000D01*
X16465000Y-13701000D02*
X16555000Y-13701000D01*
X16510000Y-14306000D02*
X16510000Y-14396000D01*
X16465000Y-14351000D02*
X16555000Y-14351000D01*
X16960000Y-13656000D02*
X16960000Y-13746000D01*
X16915000Y-13701000D02*
X17005000Y-13701000D01*
X16960000Y-14306000D02*
X16960000Y-14396000D01*
X16915000Y-14351000D02*
X17005000Y-14351000D01*
X17330000Y-13656000D02*
X17330000Y-13746000D01*
X17285000Y-13701000D02*
X17375000Y-13701000D01*
X17330000Y-14306000D02*
X17330000Y-14396000D01*
X17285000Y-14351000D02*
X17375000Y-14351000D01*
X17780000Y-13656000D02*
X17780000Y-13746000D01*
X17735000Y-13701000D02*
X17825000Y-13701000D01*
X17780000Y-14306000D02*
X17780000Y-14396000D01*
X17735000Y-14351000D02*
X17825000Y-14351000D01*
X11684000Y-14306000D02*
X11684000Y-14396000D01*
X11639000Y-14351000D02*
X11729000Y-14351000D01*
X11938000Y-14306000D02*
X11938000Y-14396000D01*
X11893000Y-14351000D02*
X11983000Y-14351000D01*
X10160000Y-14306000D02*
X10160000Y-14396000D01*
X10115000Y-14351000D02*
X10205000Y-14351000D01*
X10414000Y-14306000D02*
X10414000Y-14396000D01*
X10369000Y-14351000D02*
X10459000Y-14351000D01*
X19050000Y-13656000D02*
X19050000Y-13746000D01*
X19005000Y-13701000D02*
X19095000Y-13701000D01*
X19050000Y-14306000D02*
X19050000Y-14396000D01*
X19005000Y-14351000D02*
X19095000Y-14351000D01*
X19500000Y-13656000D02*
X19500000Y-13746000D01*
X19455000Y-13701000D02*
X19545000Y-13701000D01*
X19500000Y-14306000D02*
X19500000Y-14396000D01*
X19455000Y-14351000D02*
X19545000Y-14351000D01*
X23122356Y-5382356D02*
X23122356Y-5311644D01*
X23051644Y-5311644D01*
X23051644Y-5382356D01*
X23122356Y-5382356D01*
X20828000Y-8320000D02*
X20893000Y-8255000D01*
X20828000Y-8190000D01*
X20763000Y-8255000D01*
X20828000Y-8320000D01*
X20883000Y-8270000D02*
X20883000Y-8240000D01*
X20773000Y-8270000D02*
X20773000Y-8240000D01*
X20883000Y-8240000D02*
G75*
G03X20773000Y-8240000I-55000J0D01*
G01*
X20773000Y-8270000D02*
G75*
G03X20883000Y-8270000I55000J0D01*
G01*
X22352000Y-8320000D02*
X22417000Y-8255000D01*
X22352000Y-8190000D01*
X22287000Y-8255000D01*
X22352000Y-8320000D01*
X22297000Y-8240000D02*
X22297000Y-8270000D01*
X22407000Y-8240000D02*
X22407000Y-8270000D01*
X22297000Y-8270000D02*
G75*
G03X22407000Y-8270000I55000J0D01*
G01*
X22407000Y-8240000D02*
G75*
G03X22297000Y-8240000I-55000J0D01*
G01*
X6084500Y-7227500D02*
X6234500Y-7377500D01*
X6234500Y-7227500D02*
X6084500Y-7377500D01*
X6234500Y-7302500D02*
G75*
G03X6234500Y-7302500I-75000J0D01*
G01*
X6085770Y-5462200D02*
X6235770Y-5612200D01*
X6235770Y-5462200D02*
X6085770Y-5612200D01*
X6235770Y-5537200D02*
G75*
G03X6235770Y-5537200I-75000J0D01*
G01*
X10059600Y-5462200D02*
X10209600Y-5612200D01*
X10209600Y-5462200D02*
X10059600Y-5612200D01*
X10209600Y-5537200D02*
G75*
G03X10209600Y-5537200I-75000J0D01*
G01*
X10059600Y-7227500D02*
X10209600Y-7377500D01*
X10209600Y-7227500D02*
X10059600Y-7377500D01*
X10209600Y-7302500D02*
G75*
G03X10209600Y-7302500I-75000J0D01*
G01*
X22737000Y-4997000D02*
X22887000Y-5147000D01*
X22887000Y-4997000D02*
X22737000Y-5147000D01*
X22887000Y-5072000D02*
G75*
G03X22887000Y-5072000I-75000J0D01*
G01*
X22737000Y-5547000D02*
X22887000Y-5697000D01*
X22887000Y-5547000D02*
X22737000Y-5697000D01*
X22887000Y-5622000D02*
G75*
G03X22887000Y-5622000I-75000J0D01*
G01*
X23287000Y-4997000D02*
X23437000Y-5147000D01*
X23437000Y-4997000D02*
X23287000Y-5147000D01*
X23437000Y-5072000D02*
G75*
G03X23437000Y-5072000I-75000J0D01*
G01*
X23287000Y-5547000D02*
X23437000Y-5697000D01*
X23437000Y-5547000D02*
X23287000Y-5697000D01*
X23437000Y-5622000D02*
G75*
G03X23437000Y-5622000I-75000J0D01*
G01*
X5952500Y-4567500D02*
X6127500Y-4742500D01*
X6127500Y-4567500D02*
X5952500Y-4742500D01*
X6040000Y-4567500D02*
X6040000Y-4742500D01*
X5952500Y-4655000D02*
X6127500Y-4655000D01*
X5927500Y-4732500D02*
X6152500Y-4732500D01*
X5927500Y-4577500D02*
X6152500Y-4577500D01*
X6152500Y-4732500D02*
G75*
G03X6152500Y-4577500I0J77500D01*
G01*
X5927500Y-4577500D02*
G75*
G03X5927500Y-4732500I0J-77500D01*
G01*
X6502500Y-4542500D02*
X6677500Y-4717500D01*
X6677500Y-4542500D02*
X6502500Y-4717500D01*
X6590000Y-4542500D02*
X6590000Y-4717500D01*
X6502500Y-4630000D02*
X6677500Y-4630000D01*
X6512500Y-4517500D02*
X6512500Y-4742500D01*
X6667500Y-4517500D02*
X6667500Y-4742500D01*
X6512500Y-4742500D02*
G75*
G03X6667500Y-4742500I77500J0D01*
G01*
X6667500Y-4517500D02*
G75*
G03X6512500Y-4517500I-77500J0D01*
G01*
X6514560Y-5484590D02*
X6764560Y-5734590D01*
X6764560Y-5484590D02*
X6514560Y-5734590D01*
X6727949Y-5697979D02*
X6727949Y-5521201D01*
X6551171Y-5521201D01*
X6551171Y-5697979D01*
X6727949Y-5697979D01*
X9529540Y-7102570D02*
X9779540Y-7352570D01*
X9779540Y-7102570D02*
X9529540Y-7352570D01*
X9742929Y-7315959D02*
X9742929Y-7139181D01*
X9566151Y-7139181D01*
X9566151Y-7315959D01*
X9742929Y-7315959D01*
X10943600Y-4328800D02*
X11243600Y-4628800D01*
X11243600Y-4328800D02*
X10943600Y-4628800D01*
X11093600Y-4628800D02*
X11243600Y-4478800D01*
X11093600Y-4328800D01*
X10943600Y-4478800D01*
X11093600Y-4628800D01*
X10943600Y-9256400D02*
X11243600Y-9556400D01*
X11243600Y-9256400D02*
X10943600Y-9556400D01*
X11093600Y-9556400D02*
X11243600Y-9406400D01*
X11093600Y-9256400D01*
X10943600Y-9406400D01*
X11093600Y-9556400D01*
X16938000Y-4328800D02*
X17238000Y-4628800D01*
X17238000Y-4328800D02*
X16938000Y-4628800D01*
X17088000Y-4628800D02*
X17238000Y-4478800D01*
X17088000Y-4328800D01*
X16938000Y-4478800D01*
X17088000Y-4628800D01*
X16938000Y-9256400D02*
X17238000Y-9556400D01*
X17238000Y-9256400D02*
X16938000Y-9556400D01*
X17088000Y-9556400D02*
X17238000Y-9406400D01*
X17088000Y-9256400D01*
X16938000Y-9406400D01*
X17088000Y-9556400D01*
D12*
X4781428Y-16470714D02*
X4781428Y-16170714D01*
X4852857Y-16170714D01*
X4895714Y-16185000D01*
X4924286Y-16213571D01*
X4938571Y-16242143D01*
X4952857Y-16299286D01*
X4952857Y-16342143D01*
X4938571Y-16399286D01*
X4924286Y-16427857D01*
X4895714Y-16456429D01*
X4852857Y-16470714D01*
X4781428Y-16470714D01*
X5081428Y-16470714D02*
X5081428Y-16270714D01*
X5081428Y-16327857D02*
X5095714Y-16299286D01*
X5110000Y-16285000D01*
X5138571Y-16270714D01*
X5167143Y-16270714D01*
X5267143Y-16470714D02*
X5267143Y-16270714D01*
X5267143Y-16170714D02*
X5252857Y-16185000D01*
X5267143Y-16199286D01*
X5281428Y-16185000D01*
X5267143Y-16170714D01*
X5267143Y-16199286D01*
X5452857Y-16470714D02*
X5424286Y-16456429D01*
X5410000Y-16427857D01*
X5410000Y-16170714D01*
X5610000Y-16470714D02*
X5581428Y-16456429D01*
X5567143Y-16427857D01*
X5567143Y-16170714D01*
X5952857Y-16470714D02*
X5952857Y-16170714D01*
X6052857Y-16385000D01*
X6152857Y-16170714D01*
X6152857Y-16470714D01*
X6424286Y-16470714D02*
X6424286Y-16313571D01*
X6410000Y-16285000D01*
X6381428Y-16270714D01*
X6324286Y-16270714D01*
X6295714Y-16285000D01*
X6424286Y-16456429D02*
X6395714Y-16470714D01*
X6324286Y-16470714D01*
X6295714Y-16456429D01*
X6281428Y-16427857D01*
X6281428Y-16399286D01*
X6295714Y-16370714D01*
X6324286Y-16356429D01*
X6395714Y-16356429D01*
X6424286Y-16342143D01*
X6567143Y-16270714D02*
X6567143Y-16570714D01*
X6567143Y-16285000D02*
X6595714Y-16270714D01*
X6652857Y-16270714D01*
X6681428Y-16285000D01*
X6695714Y-16299286D01*
X6710000Y-16327857D01*
X6710000Y-16413571D01*
X6695714Y-16442143D01*
X6681428Y-16456429D01*
X6652857Y-16470714D01*
X6595714Y-16470714D01*
X6567143Y-16456429D01*
X6838571Y-16442143D02*
X6852857Y-16456429D01*
X6838571Y-16470714D01*
X6824286Y-16456429D01*
X6838571Y-16442143D01*
X6838571Y-16470714D01*
X6838571Y-16285000D02*
X6852857Y-16299286D01*
X6838571Y-16313571D01*
X6824286Y-16299286D01*
X6838571Y-16285000D01*
X6838571Y-16313571D01*
X4455000Y-16945000D02*
X4495000Y-16985000D01*
X4495000Y-16945000D02*
X4455000Y-16985000D01*
X4838571Y-16800714D02*
X4867143Y-16800714D01*
X4895714Y-16815000D01*
X4910000Y-16829286D01*
X4924286Y-16857857D01*
X4938571Y-16915000D01*
X4938571Y-16986429D01*
X4924286Y-17043572D01*
X4910000Y-17072143D01*
X4895714Y-17086429D01*
X4867143Y-17100714D01*
X4838571Y-17100714D01*
X4810000Y-17086429D01*
X4795714Y-17072143D01*
X4781428Y-17043572D01*
X4767143Y-16986429D01*
X4767143Y-16915000D01*
X4781428Y-16857857D01*
X4795714Y-16829286D01*
X4810000Y-16815000D01*
X4838571Y-16800714D01*
X5067143Y-17072143D02*
X5081428Y-17086429D01*
X5067143Y-17100714D01*
X5052857Y-17086429D01*
X5067143Y-17072143D01*
X5067143Y-17100714D01*
X5338571Y-16900714D02*
X5338571Y-17100714D01*
X5267143Y-16786429D02*
X5195714Y-17000714D01*
X5381428Y-17000714D01*
X5552857Y-16800714D02*
X5581428Y-16800714D01*
X5610000Y-16815000D01*
X5624286Y-16829286D01*
X5638571Y-16857857D01*
X5652857Y-16915000D01*
X5652857Y-16986429D01*
X5638571Y-17043572D01*
X5624286Y-17072143D01*
X5610000Y-17086429D01*
X5581428Y-17100714D01*
X5552857Y-17100714D01*
X5524286Y-17086429D01*
X5510000Y-17072143D01*
X5495714Y-17043572D01*
X5481428Y-16986429D01*
X5481428Y-16915000D01*
X5495714Y-16857857D01*
X5510000Y-16829286D01*
X5524286Y-16815000D01*
X5552857Y-16800714D01*
X5781428Y-17100714D02*
X5781428Y-16900714D01*
X5781428Y-16929286D02*
X5795714Y-16915000D01*
X5824286Y-16900714D01*
X5867143Y-16900714D01*
X5895714Y-16915000D01*
X5910000Y-16943572D01*
X5910000Y-17100714D01*
X5910000Y-16943572D02*
X5924286Y-16915000D01*
X5952857Y-16900714D01*
X5995714Y-16900714D01*
X6024286Y-16915000D01*
X6038571Y-16943572D01*
X6038571Y-17100714D01*
X6181428Y-17100714D02*
X6181428Y-16900714D01*
X6181428Y-16929286D02*
X6195714Y-16915000D01*
X6224286Y-16900714D01*
X6267143Y-16900714D01*
X6295714Y-16915000D01*
X6310000Y-16943572D01*
X6310000Y-17100714D01*
X6310000Y-16943572D02*
X6324286Y-16915000D01*
X6352857Y-16900714D01*
X6395714Y-16900714D01*
X6424286Y-16915000D01*
X6438571Y-16943572D01*
X6438571Y-17100714D01*
X7024286Y-16786429D02*
X6767143Y-17172143D01*
X7410000Y-16800714D02*
X7438571Y-16800714D01*
X7467143Y-16815000D01*
X7481428Y-16829286D01*
X7495714Y-16857857D01*
X7510000Y-16915000D01*
X7510000Y-16986429D01*
X7495714Y-17043572D01*
X7481428Y-17072143D01*
X7467143Y-17086429D01*
X7438571Y-17100714D01*
X7410000Y-17100714D01*
X7381428Y-17086429D01*
X7367143Y-17072143D01*
X7352857Y-17043572D01*
X7338571Y-16986429D01*
X7338571Y-16915000D01*
X7352857Y-16857857D01*
X7367143Y-16829286D01*
X7381428Y-16815000D01*
X7410000Y-16800714D01*
X7638571Y-17072143D02*
X7652857Y-17086429D01*
X7638571Y-17100714D01*
X7624286Y-17086429D01*
X7638571Y-17072143D01*
X7638571Y-17100714D01*
X7838571Y-16800714D02*
X7867143Y-16800714D01*
X7895714Y-16815000D01*
X7910000Y-16829286D01*
X7924286Y-16857857D01*
X7938571Y-16915000D01*
X7938571Y-16986429D01*
X7924286Y-17043572D01*
X7910000Y-17072143D01*
X7895714Y-17086429D01*
X7867143Y-17100714D01*
X7838571Y-17100714D01*
X7810000Y-17086429D01*
X7795714Y-17072143D01*
X7781428Y-17043572D01*
X7767143Y-16986429D01*
X7767143Y-16915000D01*
X7781428Y-16857857D01*
X7795714Y-16829286D01*
X7810000Y-16815000D01*
X7838571Y-16800714D01*
X8224286Y-17100714D02*
X8052857Y-17100714D01*
X8138571Y-17100714D02*
X8138571Y-16800714D01*
X8110000Y-16843572D01*
X8081428Y-16872143D01*
X8052857Y-16886429D01*
X8481428Y-16800714D02*
X8424286Y-16800714D01*
X8395714Y-16815000D01*
X8381428Y-16829286D01*
X8352857Y-16872143D01*
X8338571Y-16929286D01*
X8338571Y-17043572D01*
X8352857Y-17072143D01*
X8367143Y-17086429D01*
X8395714Y-17100714D01*
X8452857Y-17100714D01*
X8481428Y-17086429D01*
X8495714Y-17072143D01*
X8510000Y-17043572D01*
X8510000Y-16972143D01*
X8495714Y-16943572D01*
X8481428Y-16929286D01*
X8452857Y-16915000D01*
X8395714Y-16915000D01*
X8367143Y-16929286D01*
X8352857Y-16943572D01*
X8338571Y-16972143D01*
X8624286Y-16800714D02*
X8624286Y-16857857D01*
X8738571Y-16800714D02*
X8738571Y-16857857D01*
X9181428Y-17215000D02*
X9167143Y-17200714D01*
X9138571Y-17157857D01*
X9124286Y-17129286D01*
X9110000Y-17086429D01*
X9095714Y-17015000D01*
X9095714Y-16957857D01*
X9110000Y-16886429D01*
X9124286Y-16843572D01*
X9138571Y-16815000D01*
X9167143Y-16772143D01*
X9181428Y-16757857D01*
X9267143Y-16800714D02*
X9452857Y-16800714D01*
X9352857Y-16915000D01*
X9395714Y-16915000D01*
X9424286Y-16929286D01*
X9438571Y-16943572D01*
X9452857Y-16972143D01*
X9452857Y-17043572D01*
X9438571Y-17072143D01*
X9424286Y-17086429D01*
X9395714Y-17100714D01*
X9310000Y-17100714D01*
X9281428Y-17086429D01*
X9267143Y-17072143D01*
X9710000Y-16800714D02*
X9652857Y-16800714D01*
X9624286Y-16815000D01*
X9610000Y-16829286D01*
X9581428Y-16872143D01*
X9567143Y-16929286D01*
X9567143Y-17043572D01*
X9581428Y-17072143D01*
X9595714Y-17086429D01*
X9624286Y-17100714D01*
X9681428Y-17100714D01*
X9710000Y-17086429D01*
X9724286Y-17072143D01*
X9738571Y-17043572D01*
X9738571Y-16972143D01*
X9724286Y-16943572D01*
X9710000Y-16929286D01*
X9681428Y-16915000D01*
X9624286Y-16915000D01*
X9595714Y-16929286D01*
X9581428Y-16943572D01*
X9567143Y-16972143D01*
X10095714Y-17100714D02*
X10095714Y-16800714D01*
X10224286Y-17100714D02*
X10224286Y-16943572D01*
X10210000Y-16915000D01*
X10181428Y-16900714D01*
X10138571Y-16900714D01*
X10110000Y-16915000D01*
X10095714Y-16929286D01*
X10410000Y-17100714D02*
X10381428Y-17086429D01*
X10367143Y-17072143D01*
X10352857Y-17043572D01*
X10352857Y-16957857D01*
X10367143Y-16929286D01*
X10381428Y-16915000D01*
X10410000Y-16900714D01*
X10452857Y-16900714D01*
X10481428Y-16915000D01*
X10495714Y-16929286D01*
X10510000Y-16957857D01*
X10510000Y-17043572D01*
X10495714Y-17072143D01*
X10481428Y-17086429D01*
X10452857Y-17100714D01*
X10410000Y-17100714D01*
X10681428Y-17100714D02*
X10652857Y-17086429D01*
X10638571Y-17057857D01*
X10638571Y-16800714D01*
X10910000Y-17086429D02*
X10881428Y-17100714D01*
X10824286Y-17100714D01*
X10795714Y-17086429D01*
X10781428Y-17057857D01*
X10781428Y-16943572D01*
X10795714Y-16915000D01*
X10824286Y-16900714D01*
X10881428Y-16900714D01*
X10910000Y-16915000D01*
X10924286Y-16943572D01*
X10924286Y-16972143D01*
X10781428Y-17000714D01*
X11038571Y-17086429D02*
X11067143Y-17100714D01*
X11124286Y-17100714D01*
X11152857Y-17086429D01*
X11167143Y-17057857D01*
X11167143Y-17043572D01*
X11152857Y-17015000D01*
X11124286Y-17000714D01*
X11081428Y-17000714D01*
X11052857Y-16986429D01*
X11038571Y-16957857D01*
X11038571Y-16943572D01*
X11052857Y-16915000D01*
X11081428Y-16900714D01*
X11124286Y-16900714D01*
X11152857Y-16915000D01*
X11267143Y-17215000D02*
X11281428Y-17200714D01*
X11310000Y-17157857D01*
X11324286Y-17129286D01*
X11338571Y-17086429D01*
X11352857Y-17015000D01*
X11352857Y-16957857D01*
X11338571Y-16886429D01*
X11324286Y-16843572D01*
X11310000Y-16815000D01*
X11281428Y-16772143D01*
X11267143Y-16757857D01*
X4495000Y-17361000D02*
G75*
G03X4495000Y-17361000I-38100J0D01*
G01*
X4838571Y-17196714D02*
X4867143Y-17196714D01*
X4895714Y-17211000D01*
X4910000Y-17225286D01*
X4924286Y-17253857D01*
X4938571Y-17311000D01*
X4938571Y-17382429D01*
X4924286Y-17439572D01*
X4910000Y-17468143D01*
X4895714Y-17482429D01*
X4867143Y-17496714D01*
X4838571Y-17496714D01*
X4810000Y-17482429D01*
X4795714Y-17468143D01*
X4781428Y-17439572D01*
X4767143Y-17382429D01*
X4767143Y-17311000D01*
X4781428Y-17253857D01*
X4795714Y-17225286D01*
X4810000Y-17211000D01*
X4838571Y-17196714D01*
X5067143Y-17468143D02*
X5081428Y-17482429D01*
X5067143Y-17496714D01*
X5052857Y-17482429D01*
X5067143Y-17468143D01*
X5067143Y-17496714D01*
X5181428Y-17196714D02*
X5381428Y-17196714D01*
X5252857Y-17496714D01*
X5624286Y-17196714D02*
X5567143Y-17196714D01*
X5538571Y-17211000D01*
X5524286Y-17225286D01*
X5495714Y-17268143D01*
X5481428Y-17325286D01*
X5481428Y-17439572D01*
X5495714Y-17468143D01*
X5510000Y-17482429D01*
X5538571Y-17496714D01*
X5595714Y-17496714D01*
X5624286Y-17482429D01*
X5638571Y-17468143D01*
X5652857Y-17439572D01*
X5652857Y-17368143D01*
X5638571Y-17339572D01*
X5624286Y-17325286D01*
X5595714Y-17311000D01*
X5538571Y-17311000D01*
X5510000Y-17325286D01*
X5495714Y-17339572D01*
X5481428Y-17368143D01*
X5781428Y-17496714D02*
X5781428Y-17296714D01*
X5781428Y-17325286D02*
X5795714Y-17311000D01*
X5824286Y-17296714D01*
X5867143Y-17296714D01*
X5895714Y-17311000D01*
X5910000Y-17339572D01*
X5910000Y-17496714D01*
X5910000Y-17339572D02*
X5924286Y-17311000D01*
X5952857Y-17296714D01*
X5995714Y-17296714D01*
X6024286Y-17311000D01*
X6038571Y-17339572D01*
X6038571Y-17496714D01*
X6181428Y-17496714D02*
X6181428Y-17296714D01*
X6181428Y-17325286D02*
X6195714Y-17311000D01*
X6224286Y-17296714D01*
X6267143Y-17296714D01*
X6295714Y-17311000D01*
X6310000Y-17339572D01*
X6310000Y-17496714D01*
X6310000Y-17339572D02*
X6324286Y-17311000D01*
X6352857Y-17296714D01*
X6395714Y-17296714D01*
X6424286Y-17311000D01*
X6438571Y-17339572D01*
X6438571Y-17496714D01*
X7024286Y-17182429D02*
X6767143Y-17568143D01*
X7410000Y-17196714D02*
X7438571Y-17196714D01*
X7467143Y-17211000D01*
X7481428Y-17225286D01*
X7495714Y-17253857D01*
X7510000Y-17311000D01*
X7510000Y-17382429D01*
X7495714Y-17439572D01*
X7481428Y-17468143D01*
X7467143Y-17482429D01*
X7438571Y-17496714D01*
X7410000Y-17496714D01*
X7381428Y-17482429D01*
X7367143Y-17468143D01*
X7352857Y-17439572D01*
X7338571Y-17382429D01*
X7338571Y-17311000D01*
X7352857Y-17253857D01*
X7367143Y-17225286D01*
X7381428Y-17211000D01*
X7410000Y-17196714D01*
X7638571Y-17468143D02*
X7652857Y-17482429D01*
X7638571Y-17496714D01*
X7624286Y-17482429D01*
X7638571Y-17468143D01*
X7638571Y-17496714D01*
X7838571Y-17196714D02*
X7867143Y-17196714D01*
X7895714Y-17211000D01*
X7910000Y-17225286D01*
X7924286Y-17253857D01*
X7938571Y-17311000D01*
X7938571Y-17382429D01*
X7924286Y-17439572D01*
X7910000Y-17468143D01*
X7895714Y-17482429D01*
X7867143Y-17496714D01*
X7838571Y-17496714D01*
X7810000Y-17482429D01*
X7795714Y-17468143D01*
X7781428Y-17439572D01*
X7767143Y-17382429D01*
X7767143Y-17311000D01*
X7781428Y-17253857D01*
X7795714Y-17225286D01*
X7810000Y-17211000D01*
X7838571Y-17196714D01*
X8038571Y-17196714D02*
X8224286Y-17196714D01*
X8124286Y-17311000D01*
X8167143Y-17311000D01*
X8195714Y-17325286D01*
X8210000Y-17339572D01*
X8224286Y-17368143D01*
X8224286Y-17439572D01*
X8210000Y-17468143D01*
X8195714Y-17482429D01*
X8167143Y-17496714D01*
X8081428Y-17496714D01*
X8052857Y-17482429D01*
X8038571Y-17468143D01*
X8410000Y-17196714D02*
X8438571Y-17196714D01*
X8467143Y-17211000D01*
X8481428Y-17225286D01*
X8495714Y-17253857D01*
X8510000Y-17311000D01*
X8510000Y-17382429D01*
X8495714Y-17439572D01*
X8481428Y-17468143D01*
X8467143Y-17482429D01*
X8438571Y-17496714D01*
X8410000Y-17496714D01*
X8381428Y-17482429D01*
X8367143Y-17468143D01*
X8352857Y-17439572D01*
X8338571Y-17382429D01*
X8338571Y-17311000D01*
X8352857Y-17253857D01*
X8367143Y-17225286D01*
X8381428Y-17211000D01*
X8410000Y-17196714D01*
X8624286Y-17196714D02*
X8624286Y-17253857D01*
X8738571Y-17196714D02*
X8738571Y-17253857D01*
X9181428Y-17611000D02*
X9167143Y-17596714D01*
X9138571Y-17553857D01*
X9124286Y-17525286D01*
X9110000Y-17482429D01*
X9095714Y-17411000D01*
X9095714Y-17353857D01*
X9110000Y-17282429D01*
X9124286Y-17239572D01*
X9138571Y-17211000D01*
X9167143Y-17168143D01*
X9181428Y-17153857D01*
X9438571Y-17196714D02*
X9295714Y-17196714D01*
X9281428Y-17339572D01*
X9295714Y-17325286D01*
X9324286Y-17311000D01*
X9395714Y-17311000D01*
X9424286Y-17325286D01*
X9438571Y-17339572D01*
X9452857Y-17368143D01*
X9452857Y-17439572D01*
X9438571Y-17468143D01*
X9424286Y-17482429D01*
X9395714Y-17496714D01*
X9324286Y-17496714D01*
X9295714Y-17482429D01*
X9281428Y-17468143D01*
X9567143Y-17225286D02*
X9581428Y-17211000D01*
X9610000Y-17196714D01*
X9681428Y-17196714D01*
X9710000Y-17211000D01*
X9724286Y-17225286D01*
X9738571Y-17253857D01*
X9738571Y-17282429D01*
X9724286Y-17325286D01*
X9552857Y-17496714D01*
X9738571Y-17496714D01*
X9838571Y-17196714D02*
X10038571Y-17196714D01*
X9910000Y-17496714D01*
X10381428Y-17496714D02*
X10381428Y-17196714D01*
X10510000Y-17496714D02*
X10510000Y-17339572D01*
X10495714Y-17311000D01*
X10467143Y-17296714D01*
X10424286Y-17296714D01*
X10395714Y-17311000D01*
X10381428Y-17325286D01*
X10695714Y-17496714D02*
X10667143Y-17482429D01*
X10652857Y-17468143D01*
X10638571Y-17439572D01*
X10638571Y-17353857D01*
X10652857Y-17325286D01*
X10667143Y-17311000D01*
X10695714Y-17296714D01*
X10738571Y-17296714D01*
X10767143Y-17311000D01*
X10781428Y-17325286D01*
X10795714Y-17353857D01*
X10795714Y-17439572D01*
X10781428Y-17468143D01*
X10767143Y-17482429D01*
X10738571Y-17496714D01*
X10695714Y-17496714D01*
X10967143Y-17496714D02*
X10938571Y-17482429D01*
X10924286Y-17453857D01*
X10924286Y-17196714D01*
X11195714Y-17482429D02*
X11167143Y-17496714D01*
X11110000Y-17496714D01*
X11081428Y-17482429D01*
X11067143Y-17453857D01*
X11067143Y-17339572D01*
X11081428Y-17311000D01*
X11110000Y-17296714D01*
X11167143Y-17296714D01*
X11195714Y-17311000D01*
X11210000Y-17339572D01*
X11210000Y-17368143D01*
X11067143Y-17396714D01*
X11324286Y-17482429D02*
X11352857Y-17496714D01*
X11410000Y-17496714D01*
X11438571Y-17482429D01*
X11452857Y-17453857D01*
X11452857Y-17439572D01*
X11438571Y-17411000D01*
X11410000Y-17396714D01*
X11367143Y-17396714D01*
X11338571Y-17382429D01*
X11324286Y-17353857D01*
X11324286Y-17339572D01*
X11338571Y-17311000D01*
X11367143Y-17296714D01*
X11410000Y-17296714D01*
X11438571Y-17311000D01*
X11552857Y-17611000D02*
X11567143Y-17596714D01*
X11595714Y-17553857D01*
X11610000Y-17525286D01*
X11624286Y-17482429D01*
X11638571Y-17411000D01*
X11638571Y-17353857D01*
X11624286Y-17282429D01*
X11610000Y-17239572D01*
X11595714Y-17211000D01*
X11567143Y-17168143D01*
X11552857Y-17153857D01*
X4450000Y-17712000D02*
X4450000Y-17802000D01*
X4405000Y-17757000D02*
X4495000Y-17757000D01*
X4838571Y-17592714D02*
X4867143Y-17592714D01*
X4895714Y-17607000D01*
X4910000Y-17621286D01*
X4924286Y-17649857D01*
X4938571Y-17707000D01*
X4938571Y-17778429D01*
X4924286Y-17835572D01*
X4910000Y-17864143D01*
X4895714Y-17878429D01*
X4867143Y-17892714D01*
X4838571Y-17892714D01*
X4810000Y-17878429D01*
X4795714Y-17864143D01*
X4781428Y-17835572D01*
X4767143Y-17778429D01*
X4767143Y-17707000D01*
X4781428Y-17649857D01*
X4795714Y-17621286D01*
X4810000Y-17607000D01*
X4838571Y-17592714D01*
X5067143Y-17864143D02*
X5081428Y-17878429D01*
X5067143Y-17892714D01*
X5052857Y-17878429D01*
X5067143Y-17864143D01*
X5067143Y-17892714D01*
X5224286Y-17892714D02*
X5281428Y-17892714D01*
X5310000Y-17878429D01*
X5324286Y-17864143D01*
X5352857Y-17821286D01*
X5367143Y-17764143D01*
X5367143Y-17649857D01*
X5352857Y-17621286D01*
X5338571Y-17607000D01*
X5310000Y-17592714D01*
X5252857Y-17592714D01*
X5224286Y-17607000D01*
X5210000Y-17621286D01*
X5195714Y-17649857D01*
X5195714Y-17721286D01*
X5210000Y-17749857D01*
X5224286Y-17764143D01*
X5252857Y-17778429D01*
X5310000Y-17778429D01*
X5338571Y-17764143D01*
X5352857Y-17749857D01*
X5367143Y-17721286D01*
X5552857Y-17592714D02*
X5581428Y-17592714D01*
X5610000Y-17607000D01*
X5624286Y-17621286D01*
X5638571Y-17649857D01*
X5652857Y-17707000D01*
X5652857Y-17778429D01*
X5638571Y-17835572D01*
X5624286Y-17864143D01*
X5610000Y-17878429D01*
X5581428Y-17892714D01*
X5552857Y-17892714D01*
X5524286Y-17878429D01*
X5510000Y-17864143D01*
X5495714Y-17835572D01*
X5481428Y-17778429D01*
X5481428Y-17707000D01*
X5495714Y-17649857D01*
X5510000Y-17621286D01*
X5524286Y-17607000D01*
X5552857Y-17592714D01*
X5781428Y-17892714D02*
X5781428Y-17692714D01*
X5781428Y-17721286D02*
X5795714Y-17707000D01*
X5824286Y-17692714D01*
X5867143Y-17692714D01*
X5895714Y-17707000D01*
X5910000Y-17735572D01*
X5910000Y-17892714D01*
X5910000Y-17735572D02*
X5924286Y-17707000D01*
X5952857Y-17692714D01*
X5995714Y-17692714D01*
X6024286Y-17707000D01*
X6038571Y-17735572D01*
X6038571Y-17892714D01*
X6181428Y-17892714D02*
X6181428Y-17692714D01*
X6181428Y-17721286D02*
X6195714Y-17707000D01*
X6224286Y-17692714D01*
X6267143Y-17692714D01*
X6295714Y-17707000D01*
X6310000Y-17735572D01*
X6310000Y-17892714D01*
X6310000Y-17735572D02*
X6324286Y-17707000D01*
X6352857Y-17692714D01*
X6395714Y-17692714D01*
X6424286Y-17707000D01*
X6438571Y-17735572D01*
X6438571Y-17892714D01*
X7024286Y-17578429D02*
X6767143Y-17964143D01*
X7410000Y-17592714D02*
X7438571Y-17592714D01*
X7467143Y-17607000D01*
X7481428Y-17621286D01*
X7495714Y-17649857D01*
X7510000Y-17707000D01*
X7510000Y-17778429D01*
X7495714Y-17835572D01*
X7481428Y-17864143D01*
X7467143Y-17878429D01*
X7438571Y-17892714D01*
X7410000Y-17892714D01*
X7381428Y-17878429D01*
X7367143Y-17864143D01*
X7352857Y-17835572D01*
X7338571Y-17778429D01*
X7338571Y-17707000D01*
X7352857Y-17649857D01*
X7367143Y-17621286D01*
X7381428Y-17607000D01*
X7410000Y-17592714D01*
X7638571Y-17864143D02*
X7652857Y-17878429D01*
X7638571Y-17892714D01*
X7624286Y-17878429D01*
X7638571Y-17864143D01*
X7638571Y-17892714D01*
X7838571Y-17592714D02*
X7867143Y-17592714D01*
X7895714Y-17607000D01*
X7910000Y-17621286D01*
X7924286Y-17649857D01*
X7938571Y-17707000D01*
X7938571Y-17778429D01*
X7924286Y-17835572D01*
X7910000Y-17864143D01*
X7895714Y-17878429D01*
X7867143Y-17892714D01*
X7838571Y-17892714D01*
X7810000Y-17878429D01*
X7795714Y-17864143D01*
X7781428Y-17835572D01*
X7767143Y-17778429D01*
X7767143Y-17707000D01*
X7781428Y-17649857D01*
X7795714Y-17621286D01*
X7810000Y-17607000D01*
X7838571Y-17592714D01*
X8038571Y-17592714D02*
X8224286Y-17592714D01*
X8124286Y-17707000D01*
X8167143Y-17707000D01*
X8195714Y-17721286D01*
X8210000Y-17735572D01*
X8224286Y-17764143D01*
X8224286Y-17835572D01*
X8210000Y-17864143D01*
X8195714Y-17878429D01*
X8167143Y-17892714D01*
X8081428Y-17892714D01*
X8052857Y-17878429D01*
X8038571Y-17864143D01*
X8495714Y-17592714D02*
X8352857Y-17592714D01*
X8338571Y-17735572D01*
X8352857Y-17721286D01*
X8381428Y-17707000D01*
X8452857Y-17707000D01*
X8481428Y-17721286D01*
X8495714Y-17735572D01*
X8510000Y-17764143D01*
X8510000Y-17835572D01*
X8495714Y-17864143D01*
X8481428Y-17878429D01*
X8452857Y-17892714D01*
X8381428Y-17892714D01*
X8352857Y-17878429D01*
X8338571Y-17864143D01*
X8624286Y-17592714D02*
X8624286Y-17649857D01*
X8738571Y-17592714D02*
X8738571Y-17649857D01*
X9181428Y-18007000D02*
X9167143Y-17992714D01*
X9138571Y-17949857D01*
X9124286Y-17921286D01*
X9110000Y-17878429D01*
X9095714Y-17807000D01*
X9095714Y-17749857D01*
X9110000Y-17678429D01*
X9124286Y-17635572D01*
X9138571Y-17607000D01*
X9167143Y-17564143D01*
X9181428Y-17549857D01*
X9281428Y-17621286D02*
X9295714Y-17607000D01*
X9324286Y-17592714D01*
X9395714Y-17592714D01*
X9424286Y-17607000D01*
X9438571Y-17621286D01*
X9452857Y-17649857D01*
X9452857Y-17678429D01*
X9438571Y-17721286D01*
X9267143Y-17892714D01*
X9452857Y-17892714D01*
X9710000Y-17692714D02*
X9710000Y-17892714D01*
X9638571Y-17578429D02*
X9567143Y-17792714D01*
X9752857Y-17792714D01*
X10095714Y-17892714D02*
X10095714Y-17592714D01*
X10224286Y-17892714D02*
X10224286Y-17735572D01*
X10210000Y-17707000D01*
X10181428Y-17692714D01*
X10138571Y-17692714D01*
X10110000Y-17707000D01*
X10095714Y-17721286D01*
X10410000Y-17892714D02*
X10381428Y-17878429D01*
X10367143Y-17864143D01*
X10352857Y-17835572D01*
X10352857Y-17749857D01*
X10367143Y-17721286D01*
X10381428Y-17707000D01*
X10410000Y-17692714D01*
X10452857Y-17692714D01*
X10481428Y-17707000D01*
X10495714Y-17721286D01*
X10510000Y-17749857D01*
X10510000Y-17835572D01*
X10495714Y-17864143D01*
X10481428Y-17878429D01*
X10452857Y-17892714D01*
X10410000Y-17892714D01*
X10681428Y-17892714D02*
X10652857Y-17878429D01*
X10638571Y-17849857D01*
X10638571Y-17592714D01*
X10910000Y-17878429D02*
X10881428Y-17892714D01*
X10824286Y-17892714D01*
X10795714Y-17878429D01*
X10781428Y-17849857D01*
X10781428Y-17735572D01*
X10795714Y-17707000D01*
X10824286Y-17692714D01*
X10881428Y-17692714D01*
X10910000Y-17707000D01*
X10924286Y-17735572D01*
X10924286Y-17764143D01*
X10781428Y-17792714D01*
X11038571Y-17878429D02*
X11067143Y-17892714D01*
X11124286Y-17892714D01*
X11152857Y-17878429D01*
X11167143Y-17849857D01*
X11167143Y-17835572D01*
X11152857Y-17807000D01*
X11124286Y-17792714D01*
X11081428Y-17792714D01*
X11052857Y-17778429D01*
X11038571Y-17749857D01*
X11038571Y-17735572D01*
X11052857Y-17707000D01*
X11081428Y-17692714D01*
X11124286Y-17692714D01*
X11152857Y-17707000D01*
X11267143Y-18007000D02*
X11281428Y-17992714D01*
X11310000Y-17949857D01*
X11324286Y-17921286D01*
X11338571Y-17878429D01*
X11352857Y-17807000D01*
X11352857Y-17749857D01*
X11338571Y-17678429D01*
X11324286Y-17635572D01*
X11310000Y-17607000D01*
X11281428Y-17564143D01*
X11267143Y-17549857D01*
X4480356Y-18188356D02*
X4480356Y-18117644D01*
X4409644Y-18117644D01*
X4409644Y-18188356D01*
X4480356Y-18188356D01*
X4938571Y-18288714D02*
X4767143Y-18288714D01*
X4852857Y-18288714D02*
X4852857Y-17988714D01*
X4824286Y-18031572D01*
X4795714Y-18060143D01*
X4767143Y-18074429D01*
X5067143Y-18260143D02*
X5081428Y-18274429D01*
X5067143Y-18288714D01*
X5052857Y-18274429D01*
X5067143Y-18260143D01*
X5067143Y-18288714D01*
X5267143Y-17988714D02*
X5295714Y-17988714D01*
X5324286Y-18003000D01*
X5338571Y-18017286D01*
X5352857Y-18045857D01*
X5367143Y-18103000D01*
X5367143Y-18174429D01*
X5352857Y-18231572D01*
X5338571Y-18260143D01*
X5324286Y-18274429D01*
X5295714Y-18288714D01*
X5267143Y-18288714D01*
X5238571Y-18274429D01*
X5224286Y-18260143D01*
X5210000Y-18231572D01*
X5195714Y-18174429D01*
X5195714Y-18103000D01*
X5210000Y-18045857D01*
X5224286Y-18017286D01*
X5238571Y-18003000D01*
X5267143Y-17988714D01*
X5552857Y-17988714D02*
X5581428Y-17988714D01*
X5610000Y-18003000D01*
X5624286Y-18017286D01*
X5638571Y-18045857D01*
X5652857Y-18103000D01*
X5652857Y-18174429D01*
X5638571Y-18231572D01*
X5624286Y-18260143D01*
X5610000Y-18274429D01*
X5581428Y-18288714D01*
X5552857Y-18288714D01*
X5524286Y-18274429D01*
X5510000Y-18260143D01*
X5495714Y-18231572D01*
X5481428Y-18174429D01*
X5481428Y-18103000D01*
X5495714Y-18045857D01*
X5510000Y-18017286D01*
X5524286Y-18003000D01*
X5552857Y-17988714D01*
X5781428Y-18288714D02*
X5781428Y-18088714D01*
X5781428Y-18117286D02*
X5795714Y-18103000D01*
X5824286Y-18088714D01*
X5867143Y-18088714D01*
X5895714Y-18103000D01*
X5910000Y-18131572D01*
X5910000Y-18288714D01*
X5910000Y-18131572D02*
X5924286Y-18103000D01*
X5952857Y-18088714D01*
X5995714Y-18088714D01*
X6024286Y-18103000D01*
X6038571Y-18131572D01*
X6038571Y-18288714D01*
X6181428Y-18288714D02*
X6181428Y-18088714D01*
X6181428Y-18117286D02*
X6195714Y-18103000D01*
X6224286Y-18088714D01*
X6267143Y-18088714D01*
X6295714Y-18103000D01*
X6310000Y-18131572D01*
X6310000Y-18288714D01*
X6310000Y-18131572D02*
X6324286Y-18103000D01*
X6352857Y-18088714D01*
X6395714Y-18088714D01*
X6424286Y-18103000D01*
X6438571Y-18131572D01*
X6438571Y-18288714D01*
X7024286Y-17974429D02*
X6767143Y-18360143D01*
X7410000Y-17988714D02*
X7438571Y-17988714D01*
X7467143Y-18003000D01*
X7481428Y-18017286D01*
X7495714Y-18045857D01*
X7510000Y-18103000D01*
X7510000Y-18174429D01*
X7495714Y-18231572D01*
X7481428Y-18260143D01*
X7467143Y-18274429D01*
X7438571Y-18288714D01*
X7410000Y-18288714D01*
X7381428Y-18274429D01*
X7367143Y-18260143D01*
X7352857Y-18231572D01*
X7338571Y-18174429D01*
X7338571Y-18103000D01*
X7352857Y-18045857D01*
X7367143Y-18017286D01*
X7381428Y-18003000D01*
X7410000Y-17988714D01*
X7638571Y-18260143D02*
X7652857Y-18274429D01*
X7638571Y-18288714D01*
X7624286Y-18274429D01*
X7638571Y-18260143D01*
X7638571Y-18288714D01*
X7838571Y-17988714D02*
X7867143Y-17988714D01*
X7895714Y-18003000D01*
X7910000Y-18017286D01*
X7924286Y-18045857D01*
X7938571Y-18103000D01*
X7938571Y-18174429D01*
X7924286Y-18231572D01*
X7910000Y-18260143D01*
X7895714Y-18274429D01*
X7867143Y-18288714D01*
X7838571Y-18288714D01*
X7810000Y-18274429D01*
X7795714Y-18260143D01*
X7781428Y-18231572D01*
X7767143Y-18174429D01*
X7767143Y-18103000D01*
X7781428Y-18045857D01*
X7795714Y-18017286D01*
X7810000Y-18003000D01*
X7838571Y-17988714D01*
X8038571Y-17988714D02*
X8224286Y-17988714D01*
X8124286Y-18103000D01*
X8167143Y-18103000D01*
X8195714Y-18117286D01*
X8210000Y-18131572D01*
X8224286Y-18160143D01*
X8224286Y-18231572D01*
X8210000Y-18260143D01*
X8195714Y-18274429D01*
X8167143Y-18288714D01*
X8081428Y-18288714D01*
X8052857Y-18274429D01*
X8038571Y-18260143D01*
X8367143Y-18288714D02*
X8424286Y-18288714D01*
X8452857Y-18274429D01*
X8467143Y-18260143D01*
X8495714Y-18217286D01*
X8510000Y-18160143D01*
X8510000Y-18045857D01*
X8495714Y-18017286D01*
X8481428Y-18003000D01*
X8452857Y-17988714D01*
X8395714Y-17988714D01*
X8367143Y-18003000D01*
X8352857Y-18017286D01*
X8338571Y-18045857D01*
X8338571Y-18117286D01*
X8352857Y-18145857D01*
X8367143Y-18160143D01*
X8395714Y-18174429D01*
X8452857Y-18174429D01*
X8481428Y-18160143D01*
X8495714Y-18145857D01*
X8510000Y-18117286D01*
X8624286Y-17988714D02*
X8624286Y-18045857D01*
X8738571Y-17988714D02*
X8738571Y-18045857D01*
X9181428Y-18403000D02*
X9167143Y-18388714D01*
X9138571Y-18345857D01*
X9124286Y-18317286D01*
X9110000Y-18274429D01*
X9095714Y-18203000D01*
X9095714Y-18145857D01*
X9110000Y-18074429D01*
X9124286Y-18031572D01*
X9138571Y-18003000D01*
X9167143Y-17960143D01*
X9181428Y-17945857D01*
X9452857Y-18288714D02*
X9281428Y-18288714D01*
X9367143Y-18288714D02*
X9367143Y-17988714D01*
X9338571Y-18031572D01*
X9310000Y-18060143D01*
X9281428Y-18074429D01*
X9810000Y-18288714D02*
X9810000Y-17988714D01*
X9938571Y-18288714D02*
X9938571Y-18131572D01*
X9924286Y-18103000D01*
X9895714Y-18088714D01*
X9852857Y-18088714D01*
X9824286Y-18103000D01*
X9810000Y-18117286D01*
X10124286Y-18288714D02*
X10095714Y-18274429D01*
X10081428Y-18260143D01*
X10067143Y-18231572D01*
X10067143Y-18145857D01*
X10081428Y-18117286D01*
X10095714Y-18103000D01*
X10124286Y-18088714D01*
X10167143Y-18088714D01*
X10195714Y-18103000D01*
X10210000Y-18117286D01*
X10224286Y-18145857D01*
X10224286Y-18231572D01*
X10210000Y-18260143D01*
X10195714Y-18274429D01*
X10167143Y-18288714D01*
X10124286Y-18288714D01*
X10395714Y-18288714D02*
X10367143Y-18274429D01*
X10352857Y-18245857D01*
X10352857Y-17988714D01*
X10624286Y-18274429D02*
X10595714Y-18288714D01*
X10538571Y-18288714D01*
X10510000Y-18274429D01*
X10495714Y-18245857D01*
X10495714Y-18131572D01*
X10510000Y-18103000D01*
X10538571Y-18088714D01*
X10595714Y-18088714D01*
X10624286Y-18103000D01*
X10638571Y-18131572D01*
X10638571Y-18160143D01*
X10495714Y-18188714D01*
X10738571Y-18403000D02*
X10752857Y-18388714D01*
X10781428Y-18345857D01*
X10795714Y-18317286D01*
X10810000Y-18274429D01*
X10824286Y-18203000D01*
X10824286Y-18145857D01*
X10810000Y-18074429D01*
X10795714Y-18031572D01*
X10781428Y-18003000D01*
X10752857Y-17960143D01*
X10738571Y-17945857D01*
X4430000Y-18614000D02*
X4495000Y-18549000D01*
X4430000Y-18484000D01*
X4365000Y-18549000D01*
X4430000Y-18614000D01*
X4938571Y-18684714D02*
X4767143Y-18684714D01*
X4852857Y-18684714D02*
X4852857Y-18384714D01*
X4824286Y-18427572D01*
X4795714Y-18456143D01*
X4767143Y-18470429D01*
X5067143Y-18656143D02*
X5081428Y-18670429D01*
X5067143Y-18684714D01*
X5052857Y-18670429D01*
X5067143Y-18656143D01*
X5067143Y-18684714D01*
X5181428Y-18384714D02*
X5367143Y-18384714D01*
X5267143Y-18499000D01*
X5310000Y-18499000D01*
X5338571Y-18513286D01*
X5352857Y-18527572D01*
X5367143Y-18556143D01*
X5367143Y-18627572D01*
X5352857Y-18656143D01*
X5338571Y-18670429D01*
X5310000Y-18684714D01*
X5224286Y-18684714D01*
X5195714Y-18670429D01*
X5181428Y-18656143D01*
X5552857Y-18384714D02*
X5581428Y-18384714D01*
X5610000Y-18399000D01*
X5624286Y-18413286D01*
X5638571Y-18441857D01*
X5652857Y-18499000D01*
X5652857Y-18570429D01*
X5638571Y-18627572D01*
X5624286Y-18656143D01*
X5610000Y-18670429D01*
X5581428Y-18684714D01*
X5552857Y-18684714D01*
X5524286Y-18670429D01*
X5510000Y-18656143D01*
X5495714Y-18627572D01*
X5481428Y-18570429D01*
X5481428Y-18499000D01*
X5495714Y-18441857D01*
X5510000Y-18413286D01*
X5524286Y-18399000D01*
X5552857Y-18384714D01*
X5781428Y-18684714D02*
X5781428Y-18484714D01*
X5781428Y-18513286D02*
X5795714Y-18499000D01*
X5824286Y-18484714D01*
X5867143Y-18484714D01*
X5895714Y-18499000D01*
X5910000Y-18527572D01*
X5910000Y-18684714D01*
X5910000Y-18527572D02*
X5924286Y-18499000D01*
X5952857Y-18484714D01*
X5995714Y-18484714D01*
X6024286Y-18499000D01*
X6038571Y-18527572D01*
X6038571Y-18684714D01*
X6181428Y-18684714D02*
X6181428Y-18484714D01*
X6181428Y-18513286D02*
X6195714Y-18499000D01*
X6224286Y-18484714D01*
X6267143Y-18484714D01*
X6295714Y-18499000D01*
X6310000Y-18527572D01*
X6310000Y-18684714D01*
X6310000Y-18527572D02*
X6324286Y-18499000D01*
X6352857Y-18484714D01*
X6395714Y-18484714D01*
X6424286Y-18499000D01*
X6438571Y-18527572D01*
X6438571Y-18684714D01*
X7024286Y-18370429D02*
X6767143Y-18756143D01*
X7410000Y-18384714D02*
X7438571Y-18384714D01*
X7467143Y-18399000D01*
X7481428Y-18413286D01*
X7495714Y-18441857D01*
X7510000Y-18499000D01*
X7510000Y-18570429D01*
X7495714Y-18627572D01*
X7481428Y-18656143D01*
X7467143Y-18670429D01*
X7438571Y-18684714D01*
X7410000Y-18684714D01*
X7381428Y-18670429D01*
X7367143Y-18656143D01*
X7352857Y-18627572D01*
X7338571Y-18570429D01*
X7338571Y-18499000D01*
X7352857Y-18441857D01*
X7367143Y-18413286D01*
X7381428Y-18399000D01*
X7410000Y-18384714D01*
X7638571Y-18656143D02*
X7652857Y-18670429D01*
X7638571Y-18684714D01*
X7624286Y-18670429D01*
X7638571Y-18656143D01*
X7638571Y-18684714D01*
X7838571Y-18384714D02*
X7867143Y-18384714D01*
X7895714Y-18399000D01*
X7910000Y-18413286D01*
X7924286Y-18441857D01*
X7938571Y-18499000D01*
X7938571Y-18570429D01*
X7924286Y-18627572D01*
X7910000Y-18656143D01*
X7895714Y-18670429D01*
X7867143Y-18684714D01*
X7838571Y-18684714D01*
X7810000Y-18670429D01*
X7795714Y-18656143D01*
X7781428Y-18627572D01*
X7767143Y-18570429D01*
X7767143Y-18499000D01*
X7781428Y-18441857D01*
X7795714Y-18413286D01*
X7810000Y-18399000D01*
X7838571Y-18384714D01*
X8210000Y-18384714D02*
X8067143Y-18384714D01*
X8052857Y-18527572D01*
X8067143Y-18513286D01*
X8095714Y-18499000D01*
X8167143Y-18499000D01*
X8195714Y-18513286D01*
X8210000Y-18527572D01*
X8224286Y-18556143D01*
X8224286Y-18627572D01*
X8210000Y-18656143D01*
X8195714Y-18670429D01*
X8167143Y-18684714D01*
X8095714Y-18684714D01*
X8067143Y-18670429D01*
X8052857Y-18656143D01*
X8510000Y-18684714D02*
X8338571Y-18684714D01*
X8424286Y-18684714D02*
X8424286Y-18384714D01*
X8395714Y-18427572D01*
X8367143Y-18456143D01*
X8338571Y-18470429D01*
X8624286Y-18384714D02*
X8624286Y-18441857D01*
X8738571Y-18384714D02*
X8738571Y-18441857D01*
X9181428Y-18799000D02*
X9167143Y-18784714D01*
X9138571Y-18741857D01*
X9124286Y-18713286D01*
X9110000Y-18670429D01*
X9095714Y-18599000D01*
X9095714Y-18541857D01*
X9110000Y-18470429D01*
X9124286Y-18427572D01*
X9138571Y-18399000D01*
X9167143Y-18356143D01*
X9181428Y-18341857D01*
X9352857Y-18384714D02*
X9381428Y-18384714D01*
X9410000Y-18399000D01*
X9424286Y-18413286D01*
X9438571Y-18441857D01*
X9452857Y-18499000D01*
X9452857Y-18570429D01*
X9438571Y-18627572D01*
X9424286Y-18656143D01*
X9410000Y-18670429D01*
X9381428Y-18684714D01*
X9352857Y-18684714D01*
X9324286Y-18670429D01*
X9310000Y-18656143D01*
X9295714Y-18627572D01*
X9281428Y-18570429D01*
X9281428Y-18499000D01*
X9295714Y-18441857D01*
X9310000Y-18413286D01*
X9324286Y-18399000D01*
X9352857Y-18384714D01*
X9810000Y-18684714D02*
X9810000Y-18384714D01*
X9938571Y-18684714D02*
X9938571Y-18527572D01*
X9924286Y-18499000D01*
X9895714Y-18484714D01*
X9852857Y-18484714D01*
X9824286Y-18499000D01*
X9810000Y-18513286D01*
X10124286Y-18684714D02*
X10095714Y-18670429D01*
X10081428Y-18656143D01*
X10067143Y-18627572D01*
X10067143Y-18541857D01*
X10081428Y-18513286D01*
X10095714Y-18499000D01*
X10124286Y-18484714D01*
X10167143Y-18484714D01*
X10195714Y-18499000D01*
X10210000Y-18513286D01*
X10224286Y-18541857D01*
X10224286Y-18627572D01*
X10210000Y-18656143D01*
X10195714Y-18670429D01*
X10167143Y-18684714D01*
X10124286Y-18684714D01*
X10395714Y-18684714D02*
X10367143Y-18670429D01*
X10352857Y-18641857D01*
X10352857Y-18384714D01*
X10624286Y-18670429D02*
X10595714Y-18684714D01*
X10538571Y-18684714D01*
X10510000Y-18670429D01*
X10495714Y-18641857D01*
X10495714Y-18527572D01*
X10510000Y-18499000D01*
X10538571Y-18484714D01*
X10595714Y-18484714D01*
X10624286Y-18499000D01*
X10638571Y-18527572D01*
X10638571Y-18556143D01*
X10495714Y-18584714D01*
X10752857Y-18670429D02*
X10781428Y-18684714D01*
X10838571Y-18684714D01*
X10867143Y-18670429D01*
X10881428Y-18641857D01*
X10881428Y-18627572D01*
X10867143Y-18599000D01*
X10838571Y-18584714D01*
X10795714Y-18584714D01*
X10767143Y-18570429D01*
X10752857Y-18541857D01*
X10752857Y-18527572D01*
X10767143Y-18499000D01*
X10795714Y-18484714D01*
X10838571Y-18484714D01*
X10867143Y-18499000D01*
X11238571Y-18570429D02*
X11467143Y-18570429D01*
X11352857Y-18684714D02*
X11352857Y-18456143D01*
X11824286Y-18413286D02*
X11838571Y-18399000D01*
X11867143Y-18384714D01*
X11938571Y-18384714D01*
X11967143Y-18399000D01*
X11981428Y-18413286D01*
X11995714Y-18441857D01*
X11995714Y-18470429D01*
X11981428Y-18513286D01*
X11810000Y-18684714D01*
X11995714Y-18684714D01*
X12338571Y-18670429D02*
X12367143Y-18684714D01*
X12424286Y-18684714D01*
X12452857Y-18670429D01*
X12467143Y-18641857D01*
X12467143Y-18627572D01*
X12452857Y-18599000D01*
X12424286Y-18584714D01*
X12381428Y-18584714D01*
X12352857Y-18570429D01*
X12338571Y-18541857D01*
X12338571Y-18527572D01*
X12352857Y-18499000D01*
X12381428Y-18484714D01*
X12424286Y-18484714D01*
X12452857Y-18499000D01*
X12638571Y-18684714D02*
X12610000Y-18670429D01*
X12595714Y-18641857D01*
X12595714Y-18384714D01*
X12795714Y-18684714D02*
X12767143Y-18670429D01*
X12752857Y-18656143D01*
X12738571Y-18627572D01*
X12738571Y-18541857D01*
X12752857Y-18513286D01*
X12767143Y-18499000D01*
X12795714Y-18484714D01*
X12838571Y-18484714D01*
X12867143Y-18499000D01*
X12881428Y-18513286D01*
X12895714Y-18541857D01*
X12895714Y-18627572D01*
X12881428Y-18656143D01*
X12867143Y-18670429D01*
X12838571Y-18684714D01*
X12795714Y-18684714D01*
X12981428Y-18484714D02*
X13095714Y-18484714D01*
X13024286Y-18384714D02*
X13024286Y-18641857D01*
X13038571Y-18670429D01*
X13067143Y-18684714D01*
X13095714Y-18684714D01*
X13181428Y-18670429D02*
X13210000Y-18684714D01*
X13267143Y-18684714D01*
X13295714Y-18670429D01*
X13310000Y-18641857D01*
X13310000Y-18627572D01*
X13295714Y-18599000D01*
X13267143Y-18584714D01*
X13224286Y-18584714D01*
X13195714Y-18570429D01*
X13181428Y-18541857D01*
X13181428Y-18527572D01*
X13195714Y-18499000D01*
X13224286Y-18484714D01*
X13267143Y-18484714D01*
X13295714Y-18499000D01*
X13410000Y-18799000D02*
X13424286Y-18784714D01*
X13452857Y-18741857D01*
X13467143Y-18713286D01*
X13481428Y-18670429D01*
X13495714Y-18599000D01*
X13495714Y-18541857D01*
X13481428Y-18470429D01*
X13467143Y-18427572D01*
X13452857Y-18399000D01*
X13424286Y-18356143D01*
X13410000Y-18341857D01*
X4345000Y-18870000D02*
X4495000Y-19020000D01*
X4495000Y-18870000D02*
X4345000Y-19020000D01*
X4495000Y-18945000D02*
G75*
G03X4495000Y-18945000I-75000J0D01*
G01*
X4938571Y-19080714D02*
X4767143Y-19080714D01*
X4852857Y-19080714D02*
X4852857Y-18780714D01*
X4824286Y-18823572D01*
X4795714Y-18852143D01*
X4767143Y-18866429D01*
X5067143Y-19052143D02*
X5081428Y-19066429D01*
X5067143Y-19080714D01*
X5052857Y-19066429D01*
X5067143Y-19052143D01*
X5067143Y-19080714D01*
X5352857Y-18780714D02*
X5210000Y-18780714D01*
X5195714Y-18923572D01*
X5210000Y-18909286D01*
X5238571Y-18895000D01*
X5310000Y-18895000D01*
X5338571Y-18909286D01*
X5352857Y-18923572D01*
X5367143Y-18952143D01*
X5367143Y-19023572D01*
X5352857Y-19052143D01*
X5338571Y-19066429D01*
X5310000Y-19080714D01*
X5238571Y-19080714D01*
X5210000Y-19066429D01*
X5195714Y-19052143D01*
X5552857Y-18780714D02*
X5581428Y-18780714D01*
X5610000Y-18795000D01*
X5624286Y-18809286D01*
X5638571Y-18837857D01*
X5652857Y-18895000D01*
X5652857Y-18966429D01*
X5638571Y-19023572D01*
X5624286Y-19052143D01*
X5610000Y-19066429D01*
X5581428Y-19080714D01*
X5552857Y-19080714D01*
X5524286Y-19066429D01*
X5510000Y-19052143D01*
X5495714Y-19023572D01*
X5481428Y-18966429D01*
X5481428Y-18895000D01*
X5495714Y-18837857D01*
X5510000Y-18809286D01*
X5524286Y-18795000D01*
X5552857Y-18780714D01*
X5781428Y-19080714D02*
X5781428Y-18880714D01*
X5781428Y-18909286D02*
X5795714Y-18895000D01*
X5824286Y-18880714D01*
X5867143Y-18880714D01*
X5895714Y-18895000D01*
X5910000Y-18923572D01*
X5910000Y-19080714D01*
X5910000Y-18923572D02*
X5924286Y-18895000D01*
X5952857Y-18880714D01*
X5995714Y-18880714D01*
X6024286Y-18895000D01*
X6038571Y-18923572D01*
X6038571Y-19080714D01*
X6181428Y-19080714D02*
X6181428Y-18880714D01*
X6181428Y-18909286D02*
X6195714Y-18895000D01*
X6224286Y-18880714D01*
X6267143Y-18880714D01*
X6295714Y-18895000D01*
X6310000Y-18923572D01*
X6310000Y-19080714D01*
X6310000Y-18923572D02*
X6324286Y-18895000D01*
X6352857Y-18880714D01*
X6395714Y-18880714D01*
X6424286Y-18895000D01*
X6438571Y-18923572D01*
X6438571Y-19080714D01*
X7024286Y-18766429D02*
X6767143Y-19152143D01*
X7410000Y-18780714D02*
X7438571Y-18780714D01*
X7467143Y-18795000D01*
X7481428Y-18809286D01*
X7495714Y-18837857D01*
X7510000Y-18895000D01*
X7510000Y-18966429D01*
X7495714Y-19023572D01*
X7481428Y-19052143D01*
X7467143Y-19066429D01*
X7438571Y-19080714D01*
X7410000Y-19080714D01*
X7381428Y-19066429D01*
X7367143Y-19052143D01*
X7352857Y-19023572D01*
X7338571Y-18966429D01*
X7338571Y-18895000D01*
X7352857Y-18837857D01*
X7367143Y-18809286D01*
X7381428Y-18795000D01*
X7410000Y-18780714D01*
X7638571Y-19052143D02*
X7652857Y-19066429D01*
X7638571Y-19080714D01*
X7624286Y-19066429D01*
X7638571Y-19052143D01*
X7638571Y-19080714D01*
X7838571Y-18780714D02*
X7867143Y-18780714D01*
X7895714Y-18795000D01*
X7910000Y-18809286D01*
X7924286Y-18837857D01*
X7938571Y-18895000D01*
X7938571Y-18966429D01*
X7924286Y-19023572D01*
X7910000Y-19052143D01*
X7895714Y-19066429D01*
X7867143Y-19080714D01*
X7838571Y-19080714D01*
X7810000Y-19066429D01*
X7795714Y-19052143D01*
X7781428Y-19023572D01*
X7767143Y-18966429D01*
X7767143Y-18895000D01*
X7781428Y-18837857D01*
X7795714Y-18809286D01*
X7810000Y-18795000D01*
X7838571Y-18780714D01*
X8210000Y-18780714D02*
X8067143Y-18780714D01*
X8052857Y-18923572D01*
X8067143Y-18909286D01*
X8095714Y-18895000D01*
X8167143Y-18895000D01*
X8195714Y-18909286D01*
X8210000Y-18923572D01*
X8224286Y-18952143D01*
X8224286Y-19023572D01*
X8210000Y-19052143D01*
X8195714Y-19066429D01*
X8167143Y-19080714D01*
X8095714Y-19080714D01*
X8067143Y-19066429D01*
X8052857Y-19052143D01*
X8367143Y-19080714D02*
X8424286Y-19080714D01*
X8452857Y-19066429D01*
X8467143Y-19052143D01*
X8495714Y-19009286D01*
X8510000Y-18952143D01*
X8510000Y-18837857D01*
X8495714Y-18809286D01*
X8481428Y-18795000D01*
X8452857Y-18780714D01*
X8395714Y-18780714D01*
X8367143Y-18795000D01*
X8352857Y-18809286D01*
X8338571Y-18837857D01*
X8338571Y-18909286D01*
X8352857Y-18937857D01*
X8367143Y-18952143D01*
X8395714Y-18966429D01*
X8452857Y-18966429D01*
X8481428Y-18952143D01*
X8495714Y-18937857D01*
X8510000Y-18909286D01*
X8624286Y-18780714D02*
X8624286Y-18837857D01*
X8738571Y-18780714D02*
X8738571Y-18837857D01*
X9181428Y-19195000D02*
X9167143Y-19180714D01*
X9138571Y-19137857D01*
X9124286Y-19109286D01*
X9110000Y-19066429D01*
X9095714Y-18995000D01*
X9095714Y-18937857D01*
X9110000Y-18866429D01*
X9124286Y-18823572D01*
X9138571Y-18795000D01*
X9167143Y-18752143D01*
X9181428Y-18737857D01*
X9338571Y-18909286D02*
X9310000Y-18895000D01*
X9295714Y-18880714D01*
X9281428Y-18852143D01*
X9281428Y-18837857D01*
X9295714Y-18809286D01*
X9310000Y-18795000D01*
X9338571Y-18780714D01*
X9395714Y-18780714D01*
X9424286Y-18795000D01*
X9438571Y-18809286D01*
X9452857Y-18837857D01*
X9452857Y-18852143D01*
X9438571Y-18880714D01*
X9424286Y-18895000D01*
X9395714Y-18909286D01*
X9338571Y-18909286D01*
X9310000Y-18923572D01*
X9295714Y-18937857D01*
X9281428Y-18966429D01*
X9281428Y-19023572D01*
X9295714Y-19052143D01*
X9310000Y-19066429D01*
X9338571Y-19080714D01*
X9395714Y-19080714D01*
X9424286Y-19066429D01*
X9438571Y-19052143D01*
X9452857Y-19023572D01*
X9452857Y-18966429D01*
X9438571Y-18937857D01*
X9424286Y-18923572D01*
X9395714Y-18909286D01*
X9810000Y-19080714D02*
X9810000Y-18780714D01*
X9938571Y-19080714D02*
X9938571Y-18923572D01*
X9924286Y-18895000D01*
X9895714Y-18880714D01*
X9852857Y-18880714D01*
X9824286Y-18895000D01*
X9810000Y-18909286D01*
X10124286Y-19080714D02*
X10095714Y-19066429D01*
X10081428Y-19052143D01*
X10067143Y-19023572D01*
X10067143Y-18937857D01*
X10081428Y-18909286D01*
X10095714Y-18895000D01*
X10124286Y-18880714D01*
X10167143Y-18880714D01*
X10195714Y-18895000D01*
X10210000Y-18909286D01*
X10224286Y-18937857D01*
X10224286Y-19023572D01*
X10210000Y-19052143D01*
X10195714Y-19066429D01*
X10167143Y-19080714D01*
X10124286Y-19080714D01*
X10395714Y-19080714D02*
X10367143Y-19066429D01*
X10352857Y-19037857D01*
X10352857Y-18780714D01*
X10624286Y-19066429D02*
X10595714Y-19080714D01*
X10538571Y-19080714D01*
X10510000Y-19066429D01*
X10495714Y-19037857D01*
X10495714Y-18923572D01*
X10510000Y-18895000D01*
X10538571Y-18880714D01*
X10595714Y-18880714D01*
X10624286Y-18895000D01*
X10638571Y-18923572D01*
X10638571Y-18952143D01*
X10495714Y-18980714D01*
X10752857Y-19066429D02*
X10781428Y-19080714D01*
X10838571Y-19080714D01*
X10867143Y-19066429D01*
X10881428Y-19037857D01*
X10881428Y-19023572D01*
X10867143Y-18995000D01*
X10838571Y-18980714D01*
X10795714Y-18980714D01*
X10767143Y-18966429D01*
X10752857Y-18937857D01*
X10752857Y-18923572D01*
X10767143Y-18895000D01*
X10795714Y-18880714D01*
X10838571Y-18880714D01*
X10867143Y-18895000D01*
X10981428Y-19195000D02*
X10995714Y-19180714D01*
X11024286Y-19137857D01*
X11038571Y-19109286D01*
X11052857Y-19066429D01*
X11067143Y-18995000D01*
X11067143Y-18937857D01*
X11052857Y-18866429D01*
X11038571Y-18823572D01*
X11024286Y-18795000D01*
X10995714Y-18752143D01*
X10981428Y-18737857D01*
X4320000Y-19253500D02*
X4495000Y-19428500D01*
X4495000Y-19253500D02*
X4320000Y-19428500D01*
X4407500Y-19253500D02*
X4407500Y-19428500D01*
X4320000Y-19341000D02*
X4495000Y-19341000D01*
X4938571Y-19476714D02*
X4767143Y-19476714D01*
X4852857Y-19476714D02*
X4852857Y-19176714D01*
X4824286Y-19219572D01*
X4795714Y-19248143D01*
X4767143Y-19262429D01*
X5067143Y-19448143D02*
X5081428Y-19462429D01*
X5067143Y-19476714D01*
X5052857Y-19462429D01*
X5067143Y-19448143D01*
X5067143Y-19476714D01*
X5181428Y-19176714D02*
X5381428Y-19176714D01*
X5252857Y-19476714D01*
X5638571Y-19176714D02*
X5495714Y-19176714D01*
X5481428Y-19319572D01*
X5495714Y-19305286D01*
X5524286Y-19291000D01*
X5595714Y-19291000D01*
X5624286Y-19305286D01*
X5638571Y-19319572D01*
X5652857Y-19348143D01*
X5652857Y-19419572D01*
X5638571Y-19448143D01*
X5624286Y-19462429D01*
X5595714Y-19476714D01*
X5524286Y-19476714D01*
X5495714Y-19462429D01*
X5481428Y-19448143D01*
X5781428Y-19476714D02*
X5781428Y-19276714D01*
X5781428Y-19305286D02*
X5795714Y-19291000D01*
X5824286Y-19276714D01*
X5867143Y-19276714D01*
X5895714Y-19291000D01*
X5910000Y-19319572D01*
X5910000Y-19476714D01*
X5910000Y-19319572D02*
X5924286Y-19291000D01*
X5952857Y-19276714D01*
X5995714Y-19276714D01*
X6024286Y-19291000D01*
X6038571Y-19319572D01*
X6038571Y-19476714D01*
X6181428Y-19476714D02*
X6181428Y-19276714D01*
X6181428Y-19305286D02*
X6195714Y-19291000D01*
X6224286Y-19276714D01*
X6267143Y-19276714D01*
X6295714Y-19291000D01*
X6310000Y-19319572D01*
X6310000Y-19476714D01*
X6310000Y-19319572D02*
X6324286Y-19291000D01*
X6352857Y-19276714D01*
X6395714Y-19276714D01*
X6424286Y-19291000D01*
X6438571Y-19319572D01*
X6438571Y-19476714D01*
X7024286Y-19162429D02*
X6767143Y-19548143D01*
X7410000Y-19176714D02*
X7438571Y-19176714D01*
X7467143Y-19191000D01*
X7481428Y-19205286D01*
X7495714Y-19233857D01*
X7510000Y-19291000D01*
X7510000Y-19362429D01*
X7495714Y-19419572D01*
X7481428Y-19448143D01*
X7467143Y-19462429D01*
X7438571Y-19476714D01*
X7410000Y-19476714D01*
X7381428Y-19462429D01*
X7367143Y-19448143D01*
X7352857Y-19419572D01*
X7338571Y-19362429D01*
X7338571Y-19291000D01*
X7352857Y-19233857D01*
X7367143Y-19205286D01*
X7381428Y-19191000D01*
X7410000Y-19176714D01*
X7638571Y-19448143D02*
X7652857Y-19462429D01*
X7638571Y-19476714D01*
X7624286Y-19462429D01*
X7638571Y-19448143D01*
X7638571Y-19476714D01*
X7838571Y-19176714D02*
X7867143Y-19176714D01*
X7895714Y-19191000D01*
X7910000Y-19205286D01*
X7924286Y-19233857D01*
X7938571Y-19291000D01*
X7938571Y-19362429D01*
X7924286Y-19419572D01*
X7910000Y-19448143D01*
X7895714Y-19462429D01*
X7867143Y-19476714D01*
X7838571Y-19476714D01*
X7810000Y-19462429D01*
X7795714Y-19448143D01*
X7781428Y-19419572D01*
X7767143Y-19362429D01*
X7767143Y-19291000D01*
X7781428Y-19233857D01*
X7795714Y-19205286D01*
X7810000Y-19191000D01*
X7838571Y-19176714D01*
X8195714Y-19176714D02*
X8138571Y-19176714D01*
X8110000Y-19191000D01*
X8095714Y-19205286D01*
X8067143Y-19248143D01*
X8052857Y-19305286D01*
X8052857Y-19419572D01*
X8067143Y-19448143D01*
X8081428Y-19462429D01*
X8110000Y-19476714D01*
X8167143Y-19476714D01*
X8195714Y-19462429D01*
X8210000Y-19448143D01*
X8224286Y-19419572D01*
X8224286Y-19348143D01*
X8210000Y-19319572D01*
X8195714Y-19305286D01*
X8167143Y-19291000D01*
X8110000Y-19291000D01*
X8081428Y-19305286D01*
X8067143Y-19319572D01*
X8052857Y-19348143D01*
X8367143Y-19476714D02*
X8424286Y-19476714D01*
X8452857Y-19462429D01*
X8467143Y-19448143D01*
X8495714Y-19405286D01*
X8510000Y-19348143D01*
X8510000Y-19233857D01*
X8495714Y-19205286D01*
X8481428Y-19191000D01*
X8452857Y-19176714D01*
X8395714Y-19176714D01*
X8367143Y-19191000D01*
X8352857Y-19205286D01*
X8338571Y-19233857D01*
X8338571Y-19305286D01*
X8352857Y-19333857D01*
X8367143Y-19348143D01*
X8395714Y-19362429D01*
X8452857Y-19362429D01*
X8481428Y-19348143D01*
X8495714Y-19333857D01*
X8510000Y-19305286D01*
X8624286Y-19176714D02*
X8624286Y-19233857D01*
X8738571Y-19176714D02*
X8738571Y-19233857D01*
X9181428Y-19591000D02*
X9167143Y-19576714D01*
X9138571Y-19533857D01*
X9124286Y-19505286D01*
X9110000Y-19462429D01*
X9095714Y-19391000D01*
X9095714Y-19333857D01*
X9110000Y-19262429D01*
X9124286Y-19219572D01*
X9138571Y-19191000D01*
X9167143Y-19148143D01*
X9181428Y-19133857D01*
X9352857Y-19176714D02*
X9381428Y-19176714D01*
X9410000Y-19191000D01*
X9424286Y-19205286D01*
X9438571Y-19233857D01*
X9452857Y-19291000D01*
X9452857Y-19362429D01*
X9438571Y-19419572D01*
X9424286Y-19448143D01*
X9410000Y-19462429D01*
X9381428Y-19476714D01*
X9352857Y-19476714D01*
X9324286Y-19462429D01*
X9310000Y-19448143D01*
X9295714Y-19419572D01*
X9281428Y-19362429D01*
X9281428Y-19291000D01*
X9295714Y-19233857D01*
X9310000Y-19205286D01*
X9324286Y-19191000D01*
X9352857Y-19176714D01*
X9810000Y-19476714D02*
X9810000Y-19176714D01*
X9938571Y-19476714D02*
X9938571Y-19319572D01*
X9924286Y-19291000D01*
X9895714Y-19276714D01*
X9852857Y-19276714D01*
X9824286Y-19291000D01*
X9810000Y-19305286D01*
X10124286Y-19476714D02*
X10095714Y-19462429D01*
X10081428Y-19448143D01*
X10067143Y-19419572D01*
X10067143Y-19333857D01*
X10081428Y-19305286D01*
X10095714Y-19291000D01*
X10124286Y-19276714D01*
X10167143Y-19276714D01*
X10195714Y-19291000D01*
X10210000Y-19305286D01*
X10224286Y-19333857D01*
X10224286Y-19419572D01*
X10210000Y-19448143D01*
X10195714Y-19462429D01*
X10167143Y-19476714D01*
X10124286Y-19476714D01*
X10395714Y-19476714D02*
X10367143Y-19462429D01*
X10352857Y-19433857D01*
X10352857Y-19176714D01*
X10624286Y-19462429D02*
X10595714Y-19476714D01*
X10538571Y-19476714D01*
X10510000Y-19462429D01*
X10495714Y-19433857D01*
X10495714Y-19319572D01*
X10510000Y-19291000D01*
X10538571Y-19276714D01*
X10595714Y-19276714D01*
X10624286Y-19291000D01*
X10638571Y-19319572D01*
X10638571Y-19348143D01*
X10495714Y-19376714D01*
X10752857Y-19462429D02*
X10781428Y-19476714D01*
X10838571Y-19476714D01*
X10867143Y-19462429D01*
X10881428Y-19433857D01*
X10881428Y-19419572D01*
X10867143Y-19391000D01*
X10838571Y-19376714D01*
X10795714Y-19376714D01*
X10767143Y-19362429D01*
X10752857Y-19333857D01*
X10752857Y-19319572D01*
X10767143Y-19291000D01*
X10795714Y-19276714D01*
X10838571Y-19276714D01*
X10867143Y-19291000D01*
X11238571Y-19362429D02*
X11467143Y-19362429D01*
X11352857Y-19476714D02*
X11352857Y-19248143D01*
X11824286Y-19205286D02*
X11838571Y-19191000D01*
X11867143Y-19176714D01*
X11938571Y-19176714D01*
X11967143Y-19191000D01*
X11981428Y-19205286D01*
X11995714Y-19233857D01*
X11995714Y-19262429D01*
X11981428Y-19305286D01*
X11810000Y-19476714D01*
X11995714Y-19476714D01*
X12338571Y-19462429D02*
X12367143Y-19476714D01*
X12424286Y-19476714D01*
X12452857Y-19462429D01*
X12467143Y-19433857D01*
X12467143Y-19419572D01*
X12452857Y-19391000D01*
X12424286Y-19376714D01*
X12381428Y-19376714D01*
X12352857Y-19362429D01*
X12338571Y-19333857D01*
X12338571Y-19319572D01*
X12352857Y-19291000D01*
X12381428Y-19276714D01*
X12424286Y-19276714D01*
X12452857Y-19291000D01*
X12638571Y-19476714D02*
X12610000Y-19462429D01*
X12595714Y-19433857D01*
X12595714Y-19176714D01*
X12795714Y-19476714D02*
X12767143Y-19462429D01*
X12752857Y-19448143D01*
X12738571Y-19419572D01*
X12738571Y-19333857D01*
X12752857Y-19305286D01*
X12767143Y-19291000D01*
X12795714Y-19276714D01*
X12838571Y-19276714D01*
X12867143Y-19291000D01*
X12881428Y-19305286D01*
X12895714Y-19333857D01*
X12895714Y-19419572D01*
X12881428Y-19448143D01*
X12867143Y-19462429D01*
X12838571Y-19476714D01*
X12795714Y-19476714D01*
X12981428Y-19276714D02*
X13095714Y-19276714D01*
X13024286Y-19176714D02*
X13024286Y-19433857D01*
X13038571Y-19462429D01*
X13067143Y-19476714D01*
X13095714Y-19476714D01*
X13181428Y-19462429D02*
X13210000Y-19476714D01*
X13267143Y-19476714D01*
X13295714Y-19462429D01*
X13310000Y-19433857D01*
X13310000Y-19419572D01*
X13295714Y-19391000D01*
X13267143Y-19376714D01*
X13224286Y-19376714D01*
X13195714Y-19362429D01*
X13181428Y-19333857D01*
X13181428Y-19319572D01*
X13195714Y-19291000D01*
X13224286Y-19276714D01*
X13267143Y-19276714D01*
X13295714Y-19291000D01*
X13410000Y-19591000D02*
X13424286Y-19576714D01*
X13452857Y-19533857D01*
X13467143Y-19505286D01*
X13481428Y-19462429D01*
X13495714Y-19391000D01*
X13495714Y-19333857D01*
X13481428Y-19262429D01*
X13467143Y-19219572D01*
X13452857Y-19191000D01*
X13424286Y-19148143D01*
X13410000Y-19133857D01*
X4245000Y-19612000D02*
X4495000Y-19862000D01*
X4495000Y-19612000D02*
X4245000Y-19862000D01*
X4458389Y-19825389D02*
X4458389Y-19648611D01*
X4281611Y-19648611D01*
X4281611Y-19825389D01*
X4458389Y-19825389D01*
X4767143Y-19601286D02*
X4781428Y-19587000D01*
X4810000Y-19572714D01*
X4881428Y-19572714D01*
X4910000Y-19587000D01*
X4924286Y-19601286D01*
X4938571Y-19629857D01*
X4938571Y-19658429D01*
X4924286Y-19701286D01*
X4752857Y-19872714D01*
X4938571Y-19872714D01*
X5067143Y-19844143D02*
X5081428Y-19858429D01*
X5067143Y-19872714D01*
X5052857Y-19858429D01*
X5067143Y-19844143D01*
X5067143Y-19872714D01*
X5352857Y-19572714D02*
X5210000Y-19572714D01*
X5195714Y-19715572D01*
X5210000Y-19701286D01*
X5238571Y-19687000D01*
X5310000Y-19687000D01*
X5338571Y-19701286D01*
X5352857Y-19715572D01*
X5367143Y-19744143D01*
X5367143Y-19815572D01*
X5352857Y-19844143D01*
X5338571Y-19858429D01*
X5310000Y-19872714D01*
X5238571Y-19872714D01*
X5210000Y-19858429D01*
X5195714Y-19844143D01*
X5552857Y-19572714D02*
X5581428Y-19572714D01*
X5610000Y-19587000D01*
X5624286Y-19601286D01*
X5638571Y-19629857D01*
X5652857Y-19687000D01*
X5652857Y-19758429D01*
X5638571Y-19815572D01*
X5624286Y-19844143D01*
X5610000Y-19858429D01*
X5581428Y-19872714D01*
X5552857Y-19872714D01*
X5524286Y-19858429D01*
X5510000Y-19844143D01*
X5495714Y-19815572D01*
X5481428Y-19758429D01*
X5481428Y-19687000D01*
X5495714Y-19629857D01*
X5510000Y-19601286D01*
X5524286Y-19587000D01*
X5552857Y-19572714D01*
X5781428Y-19872714D02*
X5781428Y-19672714D01*
X5781428Y-19701286D02*
X5795714Y-19687000D01*
X5824286Y-19672714D01*
X5867143Y-19672714D01*
X5895714Y-19687000D01*
X5910000Y-19715572D01*
X5910000Y-19872714D01*
X5910000Y-19715572D02*
X5924286Y-19687000D01*
X5952857Y-19672714D01*
X5995714Y-19672714D01*
X6024286Y-19687000D01*
X6038571Y-19715572D01*
X6038571Y-19872714D01*
X6181428Y-19872714D02*
X6181428Y-19672714D01*
X6181428Y-19701286D02*
X6195714Y-19687000D01*
X6224286Y-19672714D01*
X6267143Y-19672714D01*
X6295714Y-19687000D01*
X6310000Y-19715572D01*
X6310000Y-19872714D01*
X6310000Y-19715572D02*
X6324286Y-19687000D01*
X6352857Y-19672714D01*
X6395714Y-19672714D01*
X6424286Y-19687000D01*
X6438571Y-19715572D01*
X6438571Y-19872714D01*
X7024286Y-19558429D02*
X6767143Y-19944143D01*
X7410000Y-19572714D02*
X7438571Y-19572714D01*
X7467143Y-19587000D01*
X7481428Y-19601286D01*
X7495714Y-19629857D01*
X7510000Y-19687000D01*
X7510000Y-19758429D01*
X7495714Y-19815572D01*
X7481428Y-19844143D01*
X7467143Y-19858429D01*
X7438571Y-19872714D01*
X7410000Y-19872714D01*
X7381428Y-19858429D01*
X7367143Y-19844143D01*
X7352857Y-19815572D01*
X7338571Y-19758429D01*
X7338571Y-19687000D01*
X7352857Y-19629857D01*
X7367143Y-19601286D01*
X7381428Y-19587000D01*
X7410000Y-19572714D01*
X7638571Y-19844143D02*
X7652857Y-19858429D01*
X7638571Y-19872714D01*
X7624286Y-19858429D01*
X7638571Y-19844143D01*
X7638571Y-19872714D01*
X7838571Y-19572714D02*
X7867143Y-19572714D01*
X7895714Y-19587000D01*
X7910000Y-19601286D01*
X7924286Y-19629857D01*
X7938571Y-19687000D01*
X7938571Y-19758429D01*
X7924286Y-19815572D01*
X7910000Y-19844143D01*
X7895714Y-19858429D01*
X7867143Y-19872714D01*
X7838571Y-19872714D01*
X7810000Y-19858429D01*
X7795714Y-19844143D01*
X7781428Y-19815572D01*
X7767143Y-19758429D01*
X7767143Y-19687000D01*
X7781428Y-19629857D01*
X7795714Y-19601286D01*
X7810000Y-19587000D01*
X7838571Y-19572714D01*
X8081428Y-19872714D02*
X8138571Y-19872714D01*
X8167143Y-19858429D01*
X8181428Y-19844143D01*
X8210000Y-19801286D01*
X8224286Y-19744143D01*
X8224286Y-19629857D01*
X8210000Y-19601286D01*
X8195714Y-19587000D01*
X8167143Y-19572714D01*
X8110000Y-19572714D01*
X8081428Y-19587000D01*
X8067143Y-19601286D01*
X8052857Y-19629857D01*
X8052857Y-19701286D01*
X8067143Y-19729857D01*
X8081428Y-19744143D01*
X8110000Y-19758429D01*
X8167143Y-19758429D01*
X8195714Y-19744143D01*
X8210000Y-19729857D01*
X8224286Y-19701286D01*
X8395714Y-19701286D02*
X8367143Y-19687000D01*
X8352857Y-19672714D01*
X8338571Y-19644143D01*
X8338571Y-19629857D01*
X8352857Y-19601286D01*
X8367143Y-19587000D01*
X8395714Y-19572714D01*
X8452857Y-19572714D01*
X8481428Y-19587000D01*
X8495714Y-19601286D01*
X8510000Y-19629857D01*
X8510000Y-19644143D01*
X8495714Y-19672714D01*
X8481428Y-19687000D01*
X8452857Y-19701286D01*
X8395714Y-19701286D01*
X8367143Y-19715572D01*
X8352857Y-19729857D01*
X8338571Y-19758429D01*
X8338571Y-19815572D01*
X8352857Y-19844143D01*
X8367143Y-19858429D01*
X8395714Y-19872714D01*
X8452857Y-19872714D01*
X8481428Y-19858429D01*
X8495714Y-19844143D01*
X8510000Y-19815572D01*
X8510000Y-19758429D01*
X8495714Y-19729857D01*
X8481428Y-19715572D01*
X8452857Y-19701286D01*
X8624286Y-19572714D02*
X8624286Y-19629857D01*
X8738571Y-19572714D02*
X8738571Y-19629857D01*
X9181428Y-19987000D02*
X9167143Y-19972714D01*
X9138571Y-19929857D01*
X9124286Y-19901286D01*
X9110000Y-19858429D01*
X9095714Y-19787000D01*
X9095714Y-19729857D01*
X9110000Y-19658429D01*
X9124286Y-19615572D01*
X9138571Y-19587000D01*
X9167143Y-19544143D01*
X9181428Y-19529857D01*
X9281428Y-19601286D02*
X9295714Y-19587000D01*
X9324286Y-19572714D01*
X9395714Y-19572714D01*
X9424286Y-19587000D01*
X9438571Y-19601286D01*
X9452857Y-19629857D01*
X9452857Y-19658429D01*
X9438571Y-19701286D01*
X9267143Y-19872714D01*
X9452857Y-19872714D01*
X9810000Y-19872714D02*
X9810000Y-19572714D01*
X9938571Y-19872714D02*
X9938571Y-19715572D01*
X9924286Y-19687000D01*
X9895714Y-19672714D01*
X9852857Y-19672714D01*
X9824286Y-19687000D01*
X9810000Y-19701286D01*
X10124286Y-19872714D02*
X10095714Y-19858429D01*
X10081428Y-19844143D01*
X10067143Y-19815572D01*
X10067143Y-19729857D01*
X10081428Y-19701286D01*
X10095714Y-19687000D01*
X10124286Y-19672714D01*
X10167143Y-19672714D01*
X10195714Y-19687000D01*
X10210000Y-19701286D01*
X10224286Y-19729857D01*
X10224286Y-19815572D01*
X10210000Y-19844143D01*
X10195714Y-19858429D01*
X10167143Y-19872714D01*
X10124286Y-19872714D01*
X10395714Y-19872714D02*
X10367143Y-19858429D01*
X10352857Y-19829857D01*
X10352857Y-19572714D01*
X10624286Y-19858429D02*
X10595714Y-19872714D01*
X10538571Y-19872714D01*
X10510000Y-19858429D01*
X10495714Y-19829857D01*
X10495714Y-19715572D01*
X10510000Y-19687000D01*
X10538571Y-19672714D01*
X10595714Y-19672714D01*
X10624286Y-19687000D01*
X10638571Y-19715572D01*
X10638571Y-19744143D01*
X10495714Y-19772714D01*
X10752857Y-19858429D02*
X10781428Y-19872714D01*
X10838571Y-19872714D01*
X10867143Y-19858429D01*
X10881428Y-19829857D01*
X10881428Y-19815572D01*
X10867143Y-19787000D01*
X10838571Y-19772714D01*
X10795714Y-19772714D01*
X10767143Y-19758429D01*
X10752857Y-19729857D01*
X10752857Y-19715572D01*
X10767143Y-19687000D01*
X10795714Y-19672714D01*
X10838571Y-19672714D01*
X10867143Y-19687000D01*
X10981428Y-19987000D02*
X10995714Y-19972714D01*
X11024286Y-19929857D01*
X11038571Y-19901286D01*
X11052857Y-19858429D01*
X11067143Y-19787000D01*
X11067143Y-19729857D01*
X11052857Y-19658429D01*
X11038571Y-19615572D01*
X11024286Y-19587000D01*
X10995714Y-19544143D01*
X10981428Y-19529857D01*
X4195000Y-19983000D02*
X4495000Y-20283000D01*
X4495000Y-19983000D02*
X4195000Y-20283000D01*
X4345000Y-20283000D02*
X4495000Y-20133000D01*
X4345000Y-19983000D01*
X4195000Y-20133000D01*
X4345000Y-20283000D01*
X4752857Y-19968714D02*
X4938571Y-19968714D01*
X4838571Y-20083000D01*
X4881428Y-20083000D01*
X4910000Y-20097286D01*
X4924286Y-20111572D01*
X4938571Y-20140143D01*
X4938571Y-20211572D01*
X4924286Y-20240143D01*
X4910000Y-20254429D01*
X4881428Y-20268714D01*
X4795714Y-20268714D01*
X4767143Y-20254429D01*
X4752857Y-20240143D01*
X5067143Y-20240143D02*
X5081428Y-20254429D01*
X5067143Y-20268714D01*
X5052857Y-20254429D01*
X5067143Y-20240143D01*
X5067143Y-20268714D01*
X5267143Y-19968714D02*
X5295714Y-19968714D01*
X5324286Y-19983000D01*
X5338571Y-19997286D01*
X5352857Y-20025857D01*
X5367143Y-20083000D01*
X5367143Y-20154429D01*
X5352857Y-20211572D01*
X5338571Y-20240143D01*
X5324286Y-20254429D01*
X5295714Y-20268714D01*
X5267143Y-20268714D01*
X5238571Y-20254429D01*
X5224286Y-20240143D01*
X5210000Y-20211572D01*
X5195714Y-20154429D01*
X5195714Y-20083000D01*
X5210000Y-20025857D01*
X5224286Y-19997286D01*
X5238571Y-19983000D01*
X5267143Y-19968714D01*
X5552857Y-19968714D02*
X5581428Y-19968714D01*
X5610000Y-19983000D01*
X5624286Y-19997286D01*
X5638571Y-20025857D01*
X5652857Y-20083000D01*
X5652857Y-20154429D01*
X5638571Y-20211572D01*
X5624286Y-20240143D01*
X5610000Y-20254429D01*
X5581428Y-20268714D01*
X5552857Y-20268714D01*
X5524286Y-20254429D01*
X5510000Y-20240143D01*
X5495714Y-20211572D01*
X5481428Y-20154429D01*
X5481428Y-20083000D01*
X5495714Y-20025857D01*
X5510000Y-19997286D01*
X5524286Y-19983000D01*
X5552857Y-19968714D01*
X5781428Y-20268714D02*
X5781428Y-20068714D01*
X5781428Y-20097286D02*
X5795714Y-20083000D01*
X5824286Y-20068714D01*
X5867143Y-20068714D01*
X5895714Y-20083000D01*
X5910000Y-20111572D01*
X5910000Y-20268714D01*
X5910000Y-20111572D02*
X5924286Y-20083000D01*
X5952857Y-20068714D01*
X5995714Y-20068714D01*
X6024286Y-20083000D01*
X6038571Y-20111572D01*
X6038571Y-20268714D01*
X6181428Y-20268714D02*
X6181428Y-20068714D01*
X6181428Y-20097286D02*
X6195714Y-20083000D01*
X6224286Y-20068714D01*
X6267143Y-20068714D01*
X6295714Y-20083000D01*
X6310000Y-20111572D01*
X6310000Y-20268714D01*
X6310000Y-20111572D02*
X6324286Y-20083000D01*
X6352857Y-20068714D01*
X6395714Y-20068714D01*
X6424286Y-20083000D01*
X6438571Y-20111572D01*
X6438571Y-20268714D01*
X7024286Y-19954429D02*
X6767143Y-20340143D01*
X7410000Y-19968714D02*
X7438571Y-19968714D01*
X7467143Y-19983000D01*
X7481428Y-19997286D01*
X7495714Y-20025857D01*
X7510000Y-20083000D01*
X7510000Y-20154429D01*
X7495714Y-20211572D01*
X7481428Y-20240143D01*
X7467143Y-20254429D01*
X7438571Y-20268714D01*
X7410000Y-20268714D01*
X7381428Y-20254429D01*
X7367143Y-20240143D01*
X7352857Y-20211572D01*
X7338571Y-20154429D01*
X7338571Y-20083000D01*
X7352857Y-20025857D01*
X7367143Y-19997286D01*
X7381428Y-19983000D01*
X7410000Y-19968714D01*
X7638571Y-20240143D02*
X7652857Y-20254429D01*
X7638571Y-20268714D01*
X7624286Y-20254429D01*
X7638571Y-20240143D01*
X7638571Y-20268714D01*
X7938571Y-20268714D02*
X7767143Y-20268714D01*
X7852857Y-20268714D02*
X7852857Y-19968714D01*
X7824286Y-20011572D01*
X7795714Y-20040143D01*
X7767143Y-20054429D01*
X8224286Y-20268714D02*
X8052857Y-20268714D01*
X8138571Y-20268714D02*
X8138571Y-19968714D01*
X8110000Y-20011572D01*
X8081428Y-20040143D01*
X8052857Y-20054429D01*
X8395714Y-20097286D02*
X8367143Y-20083000D01*
X8352857Y-20068714D01*
X8338571Y-20040143D01*
X8338571Y-20025857D01*
X8352857Y-19997286D01*
X8367143Y-19983000D01*
X8395714Y-19968714D01*
X8452857Y-19968714D01*
X8481428Y-19983000D01*
X8495714Y-19997286D01*
X8510000Y-20025857D01*
X8510000Y-20040143D01*
X8495714Y-20068714D01*
X8481428Y-20083000D01*
X8452857Y-20097286D01*
X8395714Y-20097286D01*
X8367143Y-20111572D01*
X8352857Y-20125857D01*
X8338571Y-20154429D01*
X8338571Y-20211572D01*
X8352857Y-20240143D01*
X8367143Y-20254429D01*
X8395714Y-20268714D01*
X8452857Y-20268714D01*
X8481428Y-20254429D01*
X8495714Y-20240143D01*
X8510000Y-20211572D01*
X8510000Y-20154429D01*
X8495714Y-20125857D01*
X8481428Y-20111572D01*
X8452857Y-20097286D01*
X8624286Y-19968714D02*
X8624286Y-20025857D01*
X8738571Y-19968714D02*
X8738571Y-20025857D01*
X9181428Y-20383000D02*
X9167143Y-20368714D01*
X9138571Y-20325857D01*
X9124286Y-20297286D01*
X9110000Y-20254429D01*
X9095714Y-20183000D01*
X9095714Y-20125857D01*
X9110000Y-20054429D01*
X9124286Y-20011572D01*
X9138571Y-19983000D01*
X9167143Y-19940143D01*
X9181428Y-19925857D01*
X9424286Y-20068714D02*
X9424286Y-20268714D01*
X9352857Y-19954429D02*
X9281428Y-20168714D01*
X9467143Y-20168714D01*
X9810000Y-20268714D02*
X9810000Y-19968714D01*
X9938571Y-20268714D02*
X9938571Y-20111572D01*
X9924286Y-20083000D01*
X9895714Y-20068714D01*
X9852857Y-20068714D01*
X9824286Y-20083000D01*
X9810000Y-20097286D01*
X10124286Y-20268714D02*
X10095714Y-20254429D01*
X10081428Y-20240143D01*
X10067143Y-20211572D01*
X10067143Y-20125857D01*
X10081428Y-20097286D01*
X10095714Y-20083000D01*
X10124286Y-20068714D01*
X10167143Y-20068714D01*
X10195714Y-20083000D01*
X10210000Y-20097286D01*
X10224286Y-20125857D01*
X10224286Y-20211572D01*
X10210000Y-20240143D01*
X10195714Y-20254429D01*
X10167143Y-20268714D01*
X10124286Y-20268714D01*
X10395714Y-20268714D02*
X10367143Y-20254429D01*
X10352857Y-20225857D01*
X10352857Y-19968714D01*
X10624286Y-20254429D02*
X10595714Y-20268714D01*
X10538571Y-20268714D01*
X10510000Y-20254429D01*
X10495714Y-20225857D01*
X10495714Y-20111572D01*
X10510000Y-20083000D01*
X10538571Y-20068714D01*
X10595714Y-20068714D01*
X10624286Y-20083000D01*
X10638571Y-20111572D01*
X10638571Y-20140143D01*
X10495714Y-20168714D01*
X10752857Y-20254429D02*
X10781428Y-20268714D01*
X10838571Y-20268714D01*
X10867143Y-20254429D01*
X10881428Y-20225857D01*
X10881428Y-20211572D01*
X10867143Y-20183000D01*
X10838571Y-20168714D01*
X10795714Y-20168714D01*
X10767143Y-20154429D01*
X10752857Y-20125857D01*
X10752857Y-20111572D01*
X10767143Y-20083000D01*
X10795714Y-20068714D01*
X10838571Y-20068714D01*
X10867143Y-20083000D01*
X10981428Y-20383000D02*
X10995714Y-20368714D01*
X11024286Y-20325857D01*
X11038571Y-20297286D01*
X11052857Y-20254429D01*
X11067143Y-20183000D01*
X11067143Y-20125857D01*
X11052857Y-20054429D01*
X11038571Y-20011572D01*
X11024286Y-19983000D01*
X10995714Y-19940143D01*
X10981428Y-19925857D01*
M02*
