%TF.GenerationSoftware,KiCad,Pcbnew,(5.1.10)-1*%
%TF.CreationDate,2021-11-04T17:31:58-05:00*%
%TF.ProjectId,gpsv1.1,67707376-312e-4312-9e6b-696361645f70,rev?*%
%TF.SameCoordinates,Original*%
%TF.FileFunction,Copper,L1,Top*%
%TF.FilePolarity,Positive*%
%FSLAX46Y46*%
G04 Gerber Fmt 4.6, Leading zero omitted, Abs format (unit mm)*
G04 Created by KiCad (PCBNEW (5.1.10)-1) date 2021-11-04 17:31:58*
%MOMM*%
%LPD*%
G01*
G04 APERTURE LIST*
%TA.AperFunction,ComponentPad*%
%ADD10C,1.524000*%
%TD*%
%TA.AperFunction,ComponentPad*%
%ADD11C,1.600000*%
%TD*%
%TA.AperFunction,ComponentPad*%
%ADD12O,1.600000X1.600000*%
%TD*%
%TA.AperFunction,SMDPad,CuDef*%
%ADD13R,1.000000X2.000000*%
%TD*%
%TA.AperFunction,ViaPad*%
%ADD14C,0.800000*%
%TD*%
%TA.AperFunction,Conductor*%
%ADD15C,0.250000*%
%TD*%
%TA.AperFunction,Conductor*%
%ADD16C,0.254000*%
%TD*%
%TA.AperFunction,Conductor*%
%ADD17C,0.100000*%
%TD*%
G04 APERTURE END LIST*
D10*
%TO.P,J3,1*%
%TO.N,Gnd*%
X128005000Y-56032000D03*
%TD*%
%TO.P,J2,1*%
%TO.N,Net-(J2-Pad1)*%
X125365000Y-56032000D03*
%TD*%
%TO.P,J1,1*%
%TO.N,Net-(J1-Pad1)*%
X75365000Y-56032000D03*
%TD*%
%TO.P,TOF5,1*%
%TO.N,Vin*%
X86190000Y-144000000D03*
%TO.P,TOF5,2*%
%TO.N,Trig3*%
X88730000Y-144000000D03*
%TO.P,TOF5,3*%
%TO.N,Net-(R9-Pad2)*%
X91270000Y-144000000D03*
%TO.P,TOF5,4*%
%TO.N,Gnd*%
X93810000Y-144000000D03*
%TD*%
%TO.P,TOF4,1*%
%TO.N,Vin*%
X134000000Y-129810000D03*
%TO.P,TOF4,2*%
%TO.N,Trig2*%
X134000000Y-127270000D03*
%TO.P,TOF4,3*%
%TO.N,Net-(R6-Pad2)*%
X134000000Y-124730000D03*
%TO.P,TOF4,4*%
%TO.N,Gnd*%
X134000000Y-122190000D03*
%TD*%
%TO.P,TOF3,1*%
%TO.N,Vin*%
X134000000Y-77810000D03*
%TO.P,TOF3,2*%
%TO.N,Trig1*%
X134000000Y-75270000D03*
%TO.P,TOF3,3*%
%TO.N,Net-(R5-Pad2)*%
X134000000Y-72730000D03*
%TO.P,TOF3,4*%
%TO.N,Gnd*%
X134000000Y-70190000D03*
%TD*%
%TO.P,TOF2,1*%
%TO.N,Vin*%
X46000000Y-70190000D03*
%TO.P,TOF2,2*%
%TO.N,Trig5*%
X46000000Y-72730000D03*
%TO.P,TOF2,3*%
%TO.N,Net-(R2-Pad1)*%
X46000000Y-75270000D03*
%TO.P,TOF2,4*%
%TO.N,Gnd*%
X46000000Y-77810000D03*
%TD*%
%TO.P,TOF1,1*%
%TO.N,Vin*%
X46000000Y-122190000D03*
%TO.P,TOF1,2*%
%TO.N,Trig4*%
X46000000Y-124730000D03*
%TO.P,TOF1,3*%
%TO.N,Net-(R1-Pad1)*%
X46000000Y-127270000D03*
%TO.P,TOF1,4*%
%TO.N,Gnd*%
X46000000Y-129810000D03*
%TD*%
%TO.P,Teensy1,G2*%
%TO.N,N/C*%
X95080000Y-58840000D03*
%TO.P,Teensy1,*%
%TO.N,*%
X84920000Y-72810000D03*
X84920000Y-70270000D03*
X84920000Y-67730000D03*
X84920000Y-65190000D03*
X84920000Y-62650000D03*
X95080000Y-102020000D03*
X92540000Y-102020000D03*
X90000000Y-102020000D03*
X87460000Y-102020000D03*
X84920000Y-102020000D03*
%TO.P,Teensy1,G3*%
%TO.N,Gnd*%
X97620000Y-91860000D03*
%TO.P,Teensy1,V2*%
%TO.N,3.3V*%
X82380000Y-91860000D03*
%TO.P,Teensy1,Vin*%
%TO.N,Vin*%
X97620000Y-56300000D03*
%TO.P,Teensy1,G1*%
%TO.N,Gnd*%
X97620000Y-58840000D03*
%TO.P,Teensy1,V1*%
%TO.N,Net-(Teensy1-PadV1)*%
X97620000Y-61380000D03*
%TO.P,Teensy1,G4*%
%TO.N,Gnd*%
X82380000Y-56300000D03*
%TO.P,Teensy1,0*%
%TO.N,TX0*%
X82380000Y-58840000D03*
%TO.P,Teensy1,41*%
%TO.N,Net-(Teensy1-Pad41)*%
X97620000Y-94400000D03*
%TO.P,Teensy1,40*%
%TO.N,Net-(Teensy1-Pad40)*%
X97620000Y-96940000D03*
%TO.P,Teensy1,39*%
%TO.N,Net-(Teensy1-Pad39)*%
X97620000Y-99480000D03*
%TO.P,Teensy1,38*%
%TO.N,Net-(R5-Pad1)*%
X97620000Y-102020000D03*
%TO.P,Teensy1,37*%
%TO.N,Trig1*%
X97620000Y-104560000D03*
%TO.P,Teensy1,36*%
%TO.N,Net-(R6-Pad1)*%
X97620000Y-107100000D03*
%TO.P,Teensy1,35*%
%TO.N,Trig2*%
X97620000Y-109640000D03*
%TO.P,Teensy1,34*%
%TO.N,Net-(R10-Pad2)*%
X97620000Y-112180000D03*
%TO.P,Teensy1,33*%
%TO.N,Trig3*%
X97620000Y-114720000D03*
%TO.P,Teensy1,32*%
%TO.N,Net-(R1-Pad2)*%
X82380000Y-114720000D03*
%TO.P,Teensy1,31*%
%TO.N,Trig4*%
X82380000Y-112180000D03*
%TO.P,Teensy1,30*%
%TO.N,Net-(R2-Pad2)*%
X82380000Y-109640000D03*
%TO.P,Teensy1,29*%
%TO.N,Trig5*%
X82380000Y-107100000D03*
%TO.P,Teensy1,28*%
%TO.N,Net-(Teensy1-Pad28)*%
X82380000Y-104560000D03*
%TO.P,Teensy1,27*%
%TO.N,Net-(Teensy1-Pad27)*%
X82380000Y-102020000D03*
%TO.P,Teensy1,26*%
%TO.N,Net-(Teensy1-Pad26)*%
X82380000Y-99480000D03*
%TO.P,Teensy1,25*%
%TO.N,SDA*%
X82380000Y-96940000D03*
%TO.P,Teensy1,24*%
%TO.N,SCL*%
X82380000Y-94400000D03*
%TO.P,Teensy1,23*%
%TO.N,Net-(Teensy1-Pad23)*%
X97620000Y-63920000D03*
%TO.P,Teensy1,22*%
%TO.N,Net-(Teensy1-Pad22)*%
X97620000Y-66460000D03*
%TO.P,Teensy1,21*%
%TO.N,Net-(Teensy1-Pad21)*%
X97620000Y-69000000D03*
%TO.P,Teensy1,20*%
%TO.N,Net-(Teensy1-Pad20)*%
X97620000Y-71540000D03*
%TO.P,Teensy1,19*%
%TO.N,Net-(Teensy1-Pad19)*%
X97620000Y-74080000D03*
%TO.P,Teensy1,18*%
%TO.N,Net-(Teensy1-Pad18)*%
X97620000Y-76620000D03*
%TO.P,Teensy1,17*%
%TO.N,Net-(Teensy1-Pad17)*%
X97620000Y-79160000D03*
%TO.P,Teensy1,16*%
%TO.N,Net-(Teensy1-Pad16)*%
X97620000Y-81700000D03*
%TO.P,Teensy1,15*%
%TO.N,Net-(Teensy1-Pad15)*%
X97620000Y-84240000D03*
%TO.P,Teensy1,14*%
%TO.N,Net-(Teensy1-Pad14)*%
X97620000Y-86780000D03*
%TO.P,Teensy1,13*%
%TO.N,Net-(Teensy1-Pad13)*%
X97620000Y-89320000D03*
%TO.P,Teensy1,12*%
%TO.N,Net-(Teensy1-Pad12)*%
X82380000Y-89320000D03*
%TO.P,Teensy1,11*%
%TO.N,Net-(Teensy1-Pad11)*%
X82380000Y-86780000D03*
%TO.P,Teensy1,10*%
%TO.N,Net-(Teensy1-Pad10)*%
X82380000Y-84240000D03*
%TO.P,Teensy1,9*%
%TO.N,Net-(Teensy1-Pad9)*%
X82380000Y-81700000D03*
%TO.P,Teensy1,8*%
%TO.N,Net-(Teensy1-Pad8)*%
X82380000Y-79160000D03*
%TO.P,Teensy1,7*%
%TO.N,Net-(Teensy1-Pad7)*%
X82380000Y-76620000D03*
%TO.P,Teensy1,6*%
%TO.N,Net-(Teensy1-Pad6)*%
X82380000Y-74080000D03*
%TO.P,Teensy1,5*%
%TO.N,Net-(Teensy1-Pad5)*%
X82380000Y-71540000D03*
%TO.P,Teensy1,4*%
%TO.N,Net-(Teensy1-Pad4)*%
X82380000Y-69000000D03*
%TO.P,Teensy1,3*%
%TO.N,Net-(Teensy1-Pad3)*%
X82380000Y-66460000D03*
%TO.P,Teensy1,2*%
%TO.N,Net-(Teensy1-Pad2)*%
X82380000Y-63920000D03*
%TO.P,Teensy1,1*%
%TO.N,RX0*%
X82380000Y-61380000D03*
%TD*%
D11*
%TO.P,R9,1*%
%TO.N,Net-(R10-Pad2)*%
X92000000Y-136000000D03*
D12*
%TO.P,R9,2*%
%TO.N,Net-(R9-Pad2)*%
X102160000Y-136000000D03*
%TD*%
D11*
%TO.P,R6,1*%
%TO.N,Net-(R6-Pad1)*%
X125000000Y-124000000D03*
D12*
%TO.P,R6,2*%
%TO.N,Net-(R6-Pad2)*%
X125000000Y-113840000D03*
%TD*%
D11*
%TO.P,R10,1*%
%TO.N,Gnd*%
X78000000Y-136000000D03*
D12*
%TO.P,R10,2*%
%TO.N,Net-(R10-Pad2)*%
X88160000Y-136000000D03*
%TD*%
D11*
%TO.P,R5,1*%
%TO.N,Net-(R5-Pad1)*%
X125000000Y-93000000D03*
D12*
%TO.P,R5,2*%
%TO.N,Net-(R5-Pad2)*%
X125000000Y-82840000D03*
%TD*%
D11*
%TO.P,R8,1*%
%TO.N,Gnd*%
X125000000Y-138000000D03*
D12*
%TO.P,R8,2*%
%TO.N,Net-(R6-Pad1)*%
X125000000Y-127840000D03*
%TD*%
D11*
%TO.P,R7,1*%
%TO.N,Gnd*%
X125000000Y-107000000D03*
D12*
%TO.P,R7,2*%
%TO.N,Net-(R5-Pad1)*%
X125000000Y-96840000D03*
%TD*%
D11*
%TO.P,R4,1*%
%TO.N,Net-(R2-Pad2)*%
X59000000Y-94000000D03*
D12*
%TO.P,R4,2*%
%TO.N,Gnd*%
X59000000Y-104160000D03*
%TD*%
D11*
%TO.P,R3,1*%
%TO.N,Net-(R1-Pad2)*%
X59000000Y-124000000D03*
D12*
%TO.P,R3,2*%
%TO.N,Gnd*%
X59000000Y-113840000D03*
%TD*%
D11*
%TO.P,R2,1*%
%TO.N,Net-(R2-Pad1)*%
X59000000Y-80000000D03*
D12*
%TO.P,R2,2*%
%TO.N,Net-(R2-Pad2)*%
X59000000Y-90160000D03*
%TD*%
D11*
%TO.P,R1,1*%
%TO.N,Net-(R1-Pad1)*%
X59000000Y-138000000D03*
D12*
%TO.P,R1,2*%
%TO.N,Net-(R1-Pad2)*%
X59000000Y-127840000D03*
%TD*%
D13*
%TO.P,PA1,20*%
%TO.N,Net-(PA1-Pad20)*%
X108285000Y-55999000D03*
%TO.P,PA1,19*%
%TO.N,Net-(PA1-Pad19)*%
X109809000Y-55999000D03*
%TO.P,PA1,18*%
%TO.N,Net-(PA1-Pad18)*%
X111333000Y-55999000D03*
%TO.P,PA1,17*%
%TO.N,Net-(PA1-Pad17)*%
X112857000Y-55999000D03*
%TO.P,PA1,16*%
%TO.N,Net-(PA1-Pad16)*%
X114381000Y-55999000D03*
%TO.P,PA1,15*%
%TO.N,Net-(PA1-Pad15)*%
X115905000Y-55999000D03*
%TO.P,PA1,14*%
%TO.N,Net-(PA1-Pad14)*%
X117429000Y-55999000D03*
%TO.P,PA1,13*%
%TO.N,Net-(PA1-Pad13)*%
X118953000Y-55999000D03*
%TO.P,PA1,12*%
%TO.N,Net-(PA1-Pad12)*%
X120477000Y-55999000D03*
%TO.P,PA1,11*%
%TO.N,Net-(J2-Pad1)*%
X122001000Y-55999000D03*
%TO.P,PA1,10*%
%TO.N,RX0*%
X122001000Y-71620000D03*
%TO.P,PA1,9*%
%TO.N,TX0*%
X120477000Y-71620000D03*
%TO.P,PA1,8*%
%TO.N,Gnd*%
X118953000Y-71620000D03*
%TO.P,PA1,7*%
%TO.N,Net-(PA1-Pad7)*%
X117429000Y-71620000D03*
%TO.P,PA1,6*%
%TO.N,Net-(PA1-Pad6)*%
X115905000Y-71620000D03*
%TO.P,PA1,5*%
%TO.N,Net-(PA1-Pad5)*%
X114381000Y-71620000D03*
%TO.P,PA1,4*%
%TO.N,Net-(PA1-Pad4)*%
X112857000Y-71620000D03*
%TO.P,PA1,3*%
%TO.N,Net-(PA1-Pad3)*%
X111333000Y-71620000D03*
%TO.P,PA1,2*%
%TO.N,Net-(PA1-Pad2)*%
X109809000Y-71620000D03*
%TO.P,PA1,1*%
%TO.N,3.3V*%
X108285000Y-71620000D03*
%TD*%
D10*
%TO.P,MAG1,1*%
%TO.N,3.3V*%
X59285000Y-56190000D03*
%TO.P,MAG1,2*%
%TO.N,Gnd*%
X61825000Y-56190000D03*
%TO.P,MAG1,3*%
%TO.N,SCL*%
X64365000Y-56190000D03*
%TO.P,MAG1,4*%
%TO.N,SDA*%
X66905000Y-56190000D03*
%TO.P,MAG1,5*%
%TO.N,Net-(J1-Pad1)*%
X69445000Y-56190000D03*
%TD*%
D14*
%TO.N,Gnd*%
X118953000Y-73953000D03*
%TO.N,Vin*%
X104000000Y-72000000D03*
X108000000Y-76000000D03*
%TD*%
D15*
%TO.N,3.3V*%
X93992999Y-80247001D02*
X82380000Y-91860000D01*
X99657999Y-80247001D02*
X93992999Y-80247001D01*
X108285000Y-71620000D02*
X99657999Y-80247001D01*
%TO.N,SCL*%
X67555000Y-53000000D02*
X64365000Y-56190000D01*
X67555000Y-53000000D02*
X76000000Y-53000000D01*
X76000000Y-53000000D02*
X79000000Y-56000000D01*
X79000000Y-91020000D02*
X82380000Y-94400000D01*
X79000000Y-56000000D02*
X79000000Y-91020000D01*
%TO.N,SDA*%
X82380000Y-96940000D02*
X76440000Y-91000000D01*
X76440000Y-91000000D02*
X76440000Y-60440000D01*
X76440000Y-60440000D02*
X74000000Y-58000000D01*
X74000000Y-58000000D02*
X68000000Y-58000000D01*
X68000000Y-57285000D02*
X66905000Y-56190000D01*
X68000000Y-58000000D02*
X68000000Y-57285000D01*
%TO.N,RX0*%
X83467001Y-60292999D02*
X82380000Y-61380000D01*
X122001000Y-71620000D02*
X122001000Y-70370000D01*
X122001000Y-70370000D02*
X109631000Y-58000000D01*
X109631000Y-58000000D02*
X107000000Y-58000000D01*
X107000000Y-58000000D02*
X104000000Y-55000000D01*
X88760000Y-55000000D02*
X82380000Y-61380000D01*
X104000000Y-55000000D02*
X88760000Y-55000000D01*
%TO.N,TX0*%
X120477000Y-71620000D02*
X120477000Y-73477000D01*
X120477000Y-73477000D02*
X121000000Y-74000000D01*
X121000000Y-74000000D02*
X123000000Y-74000000D01*
X123000000Y-74000000D02*
X124000000Y-73000000D01*
X88220000Y-53000000D02*
X82380000Y-58840000D01*
X122000000Y-53000000D02*
X88220000Y-53000000D01*
X124000000Y-73000000D02*
X124000000Y-63000000D01*
X124000000Y-63000000D02*
X129092001Y-57907999D01*
X129092001Y-57907999D02*
X130000000Y-57000000D01*
X130000000Y-57000000D02*
X130000000Y-55000000D01*
X130000000Y-55000000D02*
X128000000Y-53000000D01*
X128000000Y-53000000D02*
X122000000Y-53000000D01*
%TO.N,Net-(R1-Pad1)*%
X48270000Y-127270000D02*
X59000000Y-138000000D01*
X46000000Y-127270000D02*
X48270000Y-127270000D01*
%TO.N,Net-(R2-Pad1)*%
X46000000Y-75270000D02*
X51270000Y-75270000D01*
X56000000Y-80000000D02*
X59000000Y-80000000D01*
X51270000Y-75270000D02*
X56000000Y-80000000D01*
%TO.N,Gnd*%
X118953000Y-71620000D02*
X118953000Y-73953000D01*
X118953000Y-73953000D02*
X118953000Y-73953000D01*
%TO.N,Net-(R5-Pad2)*%
X125000000Y-81730000D02*
X125000000Y-82840000D01*
X134000000Y-72730000D02*
X125000000Y-81730000D01*
%TO.N,Net-(R6-Pad2)*%
X134000000Y-124730000D02*
X128270000Y-119000000D01*
X128270000Y-119000000D02*
X128270000Y-116270000D01*
X125840000Y-113840000D02*
X125000000Y-113840000D01*
X128270000Y-116270000D02*
X125840000Y-113840000D01*
%TO.N,Net-(R9-Pad2)*%
X91270000Y-144000000D02*
X91000000Y-144000000D01*
X91270000Y-144000000D02*
X97000000Y-138270000D01*
X99890000Y-138270000D02*
X102160000Y-136000000D01*
X97000000Y-138270000D02*
X99890000Y-138270000D01*
%TO.N,Trig1*%
X107180000Y-95000000D02*
X97620000Y-104560000D01*
X128000000Y-95000000D02*
X107180000Y-95000000D01*
X128000000Y-95000000D02*
X130000000Y-93000000D01*
X130000000Y-79270000D02*
X134000000Y-75270000D01*
X130000000Y-93000000D02*
X130000000Y-79270000D01*
%TO.N,Trig2*%
X134000000Y-127270000D02*
X129270000Y-127270000D01*
X129270000Y-127270000D02*
X128000000Y-126000000D01*
X113980000Y-126000000D02*
X97620000Y-109640000D01*
X128000000Y-126000000D02*
X113980000Y-126000000D01*
%TO.N,Trig3*%
X90000000Y-122340000D02*
X97620000Y-114720000D01*
X90000000Y-136334998D02*
X90000000Y-122340000D01*
X88730000Y-137604998D02*
X90000000Y-136334998D01*
X88730000Y-144000000D02*
X88730000Y-137604998D01*
%TO.N,Trig4*%
X46000000Y-124730000D02*
X52000000Y-118730000D01*
X52000000Y-118730000D02*
X52000000Y-115000000D01*
X54820000Y-112180000D02*
X82380000Y-112180000D01*
X52000000Y-115000000D02*
X54820000Y-112180000D01*
%TO.N,Trig5*%
X46000000Y-72730000D02*
X51730000Y-72730000D01*
X51730000Y-72730000D02*
X56000000Y-77000000D01*
X75280000Y-100000000D02*
X82380000Y-107100000D01*
X75000000Y-100000000D02*
X75280000Y-100000000D01*
X75000000Y-100000000D02*
X75000000Y-92000000D01*
X75000000Y-92000000D02*
X60000000Y-77000000D01*
X60000000Y-77000000D02*
X56000000Y-77000000D01*
%TO.N,Net-(J1-Pad1)*%
X75207000Y-56190000D02*
X75365000Y-56032000D01*
X69445000Y-56190000D02*
X75207000Y-56190000D01*
%TO.N,Net-(J2-Pad1)*%
X125332000Y-55999000D02*
X125365000Y-56032000D01*
X122001000Y-55999000D02*
X125332000Y-55999000D01*
%TD*%
D16*
%TO.N,Vin*%
X138873000Y-148873000D02*
X41127000Y-148873000D01*
X41127000Y-144965565D01*
X85404040Y-144965565D01*
X85471020Y-145205656D01*
X85720048Y-145322756D01*
X85987135Y-145389023D01*
X86262017Y-145401910D01*
X86534133Y-145360922D01*
X86793023Y-145267636D01*
X86908980Y-145205656D01*
X86975960Y-144965565D01*
X86190000Y-144179605D01*
X85404040Y-144965565D01*
X41127000Y-144965565D01*
X41127000Y-144072017D01*
X84788090Y-144072017D01*
X84829078Y-144344133D01*
X84922364Y-144603023D01*
X84984344Y-144718980D01*
X85224435Y-144785960D01*
X86010395Y-144000000D01*
X85224435Y-143214040D01*
X84984344Y-143281020D01*
X84867244Y-143530048D01*
X84800977Y-143797135D01*
X84788090Y-144072017D01*
X41127000Y-144072017D01*
X41127000Y-143034435D01*
X85404040Y-143034435D01*
X86190000Y-143820395D01*
X86975960Y-143034435D01*
X86908980Y-142794344D01*
X86659952Y-142677244D01*
X86392865Y-142610977D01*
X86117983Y-142598090D01*
X85845867Y-142639078D01*
X85586977Y-142732364D01*
X85471020Y-142794344D01*
X85404040Y-143034435D01*
X41127000Y-143034435D01*
X41127000Y-122262017D01*
X44598090Y-122262017D01*
X44639078Y-122534133D01*
X44732364Y-122793023D01*
X44794344Y-122908980D01*
X45034435Y-122975960D01*
X45820395Y-122190000D01*
X45034435Y-121404040D01*
X44794344Y-121471020D01*
X44677244Y-121720048D01*
X44610977Y-121987135D01*
X44598090Y-122262017D01*
X41127000Y-122262017D01*
X41127000Y-121224435D01*
X45214040Y-121224435D01*
X46000000Y-122010395D01*
X46785960Y-121224435D01*
X46718980Y-120984344D01*
X46469952Y-120867244D01*
X46202865Y-120800977D01*
X45927983Y-120788090D01*
X45655867Y-120829078D01*
X45396977Y-120922364D01*
X45281020Y-120984344D01*
X45214040Y-121224435D01*
X41127000Y-121224435D01*
X41127000Y-104018665D01*
X57565000Y-104018665D01*
X57565000Y-104301335D01*
X57620147Y-104578574D01*
X57728320Y-104839727D01*
X57885363Y-105074759D01*
X58085241Y-105274637D01*
X58320273Y-105431680D01*
X58581426Y-105539853D01*
X58858665Y-105595000D01*
X59141335Y-105595000D01*
X59418574Y-105539853D01*
X59679727Y-105431680D01*
X59914759Y-105274637D01*
X60114637Y-105074759D01*
X60271680Y-104839727D01*
X60379853Y-104578574D01*
X60435000Y-104301335D01*
X60435000Y-104018665D01*
X60379853Y-103741426D01*
X60271680Y-103480273D01*
X60114637Y-103245241D01*
X59914759Y-103045363D01*
X59679727Y-102888320D01*
X59418574Y-102780147D01*
X59141335Y-102725000D01*
X58858665Y-102725000D01*
X58581426Y-102780147D01*
X58320273Y-102888320D01*
X58085241Y-103045363D01*
X57885363Y-103245241D01*
X57728320Y-103480273D01*
X57620147Y-103741426D01*
X57565000Y-104018665D01*
X41127000Y-104018665D01*
X41127000Y-93858665D01*
X57565000Y-93858665D01*
X57565000Y-94141335D01*
X57620147Y-94418574D01*
X57728320Y-94679727D01*
X57885363Y-94914759D01*
X58085241Y-95114637D01*
X58320273Y-95271680D01*
X58581426Y-95379853D01*
X58858665Y-95435000D01*
X59141335Y-95435000D01*
X59418574Y-95379853D01*
X59679727Y-95271680D01*
X59914759Y-95114637D01*
X60114637Y-94914759D01*
X60271680Y-94679727D01*
X60379853Y-94418574D01*
X60435000Y-94141335D01*
X60435000Y-93858665D01*
X60379853Y-93581426D01*
X60271680Y-93320273D01*
X60114637Y-93085241D01*
X59914759Y-92885363D01*
X59679727Y-92728320D01*
X59418574Y-92620147D01*
X59141335Y-92565000D01*
X58858665Y-92565000D01*
X58581426Y-92620147D01*
X58320273Y-92728320D01*
X58085241Y-92885363D01*
X57885363Y-93085241D01*
X57728320Y-93320273D01*
X57620147Y-93581426D01*
X57565000Y-93858665D01*
X41127000Y-93858665D01*
X41127000Y-90018665D01*
X57565000Y-90018665D01*
X57565000Y-90301335D01*
X57620147Y-90578574D01*
X57728320Y-90839727D01*
X57885363Y-91074759D01*
X58085241Y-91274637D01*
X58320273Y-91431680D01*
X58581426Y-91539853D01*
X58858665Y-91595000D01*
X59141335Y-91595000D01*
X59418574Y-91539853D01*
X59679727Y-91431680D01*
X59914759Y-91274637D01*
X60114637Y-91074759D01*
X60271680Y-90839727D01*
X60379853Y-90578574D01*
X60435000Y-90301335D01*
X60435000Y-90018665D01*
X60379853Y-89741426D01*
X60271680Y-89480273D01*
X60114637Y-89245241D01*
X59914759Y-89045363D01*
X59679727Y-88888320D01*
X59418574Y-88780147D01*
X59141335Y-88725000D01*
X58858665Y-88725000D01*
X58581426Y-88780147D01*
X58320273Y-88888320D01*
X58085241Y-89045363D01*
X57885363Y-89245241D01*
X57728320Y-89480273D01*
X57620147Y-89741426D01*
X57565000Y-90018665D01*
X41127000Y-90018665D01*
X41127000Y-72592408D01*
X44603000Y-72592408D01*
X44603000Y-72867592D01*
X44656686Y-73137490D01*
X44761995Y-73391727D01*
X44914880Y-73620535D01*
X45109465Y-73815120D01*
X45338273Y-73968005D01*
X45415515Y-74000000D01*
X45338273Y-74031995D01*
X45109465Y-74184880D01*
X44914880Y-74379465D01*
X44761995Y-74608273D01*
X44656686Y-74862510D01*
X44603000Y-75132408D01*
X44603000Y-75407592D01*
X44656686Y-75677490D01*
X44761995Y-75931727D01*
X44914880Y-76160535D01*
X45109465Y-76355120D01*
X45338273Y-76508005D01*
X45415515Y-76540000D01*
X45338273Y-76571995D01*
X45109465Y-76724880D01*
X44914880Y-76919465D01*
X44761995Y-77148273D01*
X44656686Y-77402510D01*
X44603000Y-77672408D01*
X44603000Y-77947592D01*
X44656686Y-78217490D01*
X44761995Y-78471727D01*
X44914880Y-78700535D01*
X45109465Y-78895120D01*
X45338273Y-79048005D01*
X45592510Y-79153314D01*
X45862408Y-79207000D01*
X46137592Y-79207000D01*
X46407490Y-79153314D01*
X46661727Y-79048005D01*
X46890535Y-78895120D01*
X47085120Y-78700535D01*
X47238005Y-78471727D01*
X47343314Y-78217490D01*
X47397000Y-77947592D01*
X47397000Y-77672408D01*
X47343314Y-77402510D01*
X47238005Y-77148273D01*
X47085120Y-76919465D01*
X46890535Y-76724880D01*
X46661727Y-76571995D01*
X46584485Y-76540000D01*
X46661727Y-76508005D01*
X46890535Y-76355120D01*
X47085120Y-76160535D01*
X47172341Y-76030000D01*
X50955199Y-76030000D01*
X55436201Y-80511003D01*
X55459999Y-80540001D01*
X55488997Y-80563799D01*
X55575723Y-80634974D01*
X55707753Y-80705546D01*
X55851014Y-80749003D01*
X55962667Y-80760000D01*
X55962676Y-80760000D01*
X55999999Y-80763676D01*
X56037322Y-80760000D01*
X57781957Y-80760000D01*
X57885363Y-80914759D01*
X58085241Y-81114637D01*
X58320273Y-81271680D01*
X58581426Y-81379853D01*
X58858665Y-81435000D01*
X59141335Y-81435000D01*
X59418574Y-81379853D01*
X59679727Y-81271680D01*
X59914759Y-81114637D01*
X60114637Y-80914759D01*
X60271680Y-80679727D01*
X60379853Y-80418574D01*
X60435000Y-80141335D01*
X60435000Y-79858665D01*
X60379853Y-79581426D01*
X60271680Y-79320273D01*
X60114637Y-79085241D01*
X59914759Y-78885363D01*
X59679727Y-78728320D01*
X59418574Y-78620147D01*
X59141335Y-78565000D01*
X58858665Y-78565000D01*
X58581426Y-78620147D01*
X58320273Y-78728320D01*
X58085241Y-78885363D01*
X57885363Y-79085241D01*
X57781957Y-79240000D01*
X56314802Y-79240000D01*
X51833804Y-74759003D01*
X51810001Y-74729999D01*
X51694276Y-74635026D01*
X51562247Y-74564454D01*
X51418986Y-74520997D01*
X51307333Y-74510000D01*
X51307322Y-74510000D01*
X51270000Y-74506324D01*
X51232678Y-74510000D01*
X47172341Y-74510000D01*
X47085120Y-74379465D01*
X46890535Y-74184880D01*
X46661727Y-74031995D01*
X46584485Y-74000000D01*
X46661727Y-73968005D01*
X46890535Y-73815120D01*
X47085120Y-73620535D01*
X47172341Y-73490000D01*
X51415199Y-73490000D01*
X55436200Y-77511002D01*
X55459999Y-77540001D01*
X55488997Y-77563799D01*
X55575723Y-77634974D01*
X55645757Y-77672408D01*
X55707753Y-77705546D01*
X55851014Y-77749003D01*
X55962667Y-77760000D01*
X55962677Y-77760000D01*
X56000000Y-77763676D01*
X56037323Y-77760000D01*
X59685199Y-77760000D01*
X74240001Y-92314804D01*
X74240000Y-99962667D01*
X74236323Y-100000000D01*
X74250997Y-100148986D01*
X74294454Y-100292247D01*
X74365026Y-100424276D01*
X74436200Y-100511002D01*
X74459999Y-100540001D01*
X74575724Y-100634974D01*
X74707753Y-100705546D01*
X74851014Y-100749003D01*
X74965476Y-100760277D01*
X81013628Y-106808430D01*
X80983000Y-106962408D01*
X80983000Y-107237592D01*
X81036686Y-107507490D01*
X81141995Y-107761727D01*
X81294880Y-107990535D01*
X81489465Y-108185120D01*
X81718273Y-108338005D01*
X81795515Y-108370000D01*
X81718273Y-108401995D01*
X81489465Y-108554880D01*
X81294880Y-108749465D01*
X81141995Y-108978273D01*
X81036686Y-109232510D01*
X80983000Y-109502408D01*
X80983000Y-109777592D01*
X81036686Y-110047490D01*
X81141995Y-110301727D01*
X81294880Y-110530535D01*
X81489465Y-110725120D01*
X81718273Y-110878005D01*
X81795515Y-110910000D01*
X81718273Y-110941995D01*
X81489465Y-111094880D01*
X81294880Y-111289465D01*
X81207659Y-111420000D01*
X54857322Y-111420000D01*
X54819999Y-111416324D01*
X54782676Y-111420000D01*
X54782667Y-111420000D01*
X54671014Y-111430997D01*
X54527753Y-111474454D01*
X54395724Y-111545026D01*
X54279999Y-111639999D01*
X54256201Y-111668997D01*
X51488998Y-114436201D01*
X51460000Y-114459999D01*
X51436202Y-114488997D01*
X51436201Y-114488998D01*
X51365026Y-114575724D01*
X51294454Y-114707754D01*
X51250998Y-114851015D01*
X51236324Y-115000000D01*
X51240001Y-115037332D01*
X51240000Y-118415197D01*
X47395255Y-122259944D01*
X47401910Y-122117983D01*
X47360922Y-121845867D01*
X47267636Y-121586977D01*
X47205656Y-121471020D01*
X46965565Y-121404040D01*
X46179605Y-122190000D01*
X46193748Y-122204143D01*
X46014143Y-122383748D01*
X46000000Y-122369605D01*
X45214040Y-123155565D01*
X45281020Y-123395656D01*
X45416760Y-123459485D01*
X45338273Y-123491995D01*
X45109465Y-123644880D01*
X44914880Y-123839465D01*
X44761995Y-124068273D01*
X44656686Y-124322510D01*
X44603000Y-124592408D01*
X44603000Y-124867592D01*
X44656686Y-125137490D01*
X44761995Y-125391727D01*
X44914880Y-125620535D01*
X45109465Y-125815120D01*
X45338273Y-125968005D01*
X45415515Y-126000000D01*
X45338273Y-126031995D01*
X45109465Y-126184880D01*
X44914880Y-126379465D01*
X44761995Y-126608273D01*
X44656686Y-126862510D01*
X44603000Y-127132408D01*
X44603000Y-127407592D01*
X44656686Y-127677490D01*
X44761995Y-127931727D01*
X44914880Y-128160535D01*
X45109465Y-128355120D01*
X45338273Y-128508005D01*
X45415515Y-128540000D01*
X45338273Y-128571995D01*
X45109465Y-128724880D01*
X44914880Y-128919465D01*
X44761995Y-129148273D01*
X44656686Y-129402510D01*
X44603000Y-129672408D01*
X44603000Y-129947592D01*
X44656686Y-130217490D01*
X44761995Y-130471727D01*
X44914880Y-130700535D01*
X45109465Y-130895120D01*
X45338273Y-131048005D01*
X45592510Y-131153314D01*
X45862408Y-131207000D01*
X46137592Y-131207000D01*
X46407490Y-131153314D01*
X46661727Y-131048005D01*
X46890535Y-130895120D01*
X47085120Y-130700535D01*
X47238005Y-130471727D01*
X47343314Y-130217490D01*
X47397000Y-129947592D01*
X47397000Y-129672408D01*
X47343314Y-129402510D01*
X47238005Y-129148273D01*
X47085120Y-128919465D01*
X46890535Y-128724880D01*
X46661727Y-128571995D01*
X46584485Y-128540000D01*
X46661727Y-128508005D01*
X46890535Y-128355120D01*
X47085120Y-128160535D01*
X47172341Y-128030000D01*
X47955199Y-128030000D01*
X57601312Y-137676114D01*
X57565000Y-137858665D01*
X57565000Y-138141335D01*
X57620147Y-138418574D01*
X57728320Y-138679727D01*
X57885363Y-138914759D01*
X58085241Y-139114637D01*
X58320273Y-139271680D01*
X58581426Y-139379853D01*
X58858665Y-139435000D01*
X59141335Y-139435000D01*
X59418574Y-139379853D01*
X59679727Y-139271680D01*
X59914759Y-139114637D01*
X60114637Y-138914759D01*
X60271680Y-138679727D01*
X60379853Y-138418574D01*
X60435000Y-138141335D01*
X60435000Y-137858665D01*
X60379853Y-137581426D01*
X60271680Y-137320273D01*
X60114637Y-137085241D01*
X59914759Y-136885363D01*
X59679727Y-136728320D01*
X59418574Y-136620147D01*
X59141335Y-136565000D01*
X58858665Y-136565000D01*
X58676114Y-136601312D01*
X57933467Y-135858665D01*
X76565000Y-135858665D01*
X76565000Y-136141335D01*
X76620147Y-136418574D01*
X76728320Y-136679727D01*
X76885363Y-136914759D01*
X77085241Y-137114637D01*
X77320273Y-137271680D01*
X77581426Y-137379853D01*
X77858665Y-137435000D01*
X78141335Y-137435000D01*
X78418574Y-137379853D01*
X78679727Y-137271680D01*
X78914759Y-137114637D01*
X79114637Y-136914759D01*
X79271680Y-136679727D01*
X79379853Y-136418574D01*
X79435000Y-136141335D01*
X79435000Y-135858665D01*
X79379853Y-135581426D01*
X79271680Y-135320273D01*
X79114637Y-135085241D01*
X78914759Y-134885363D01*
X78679727Y-134728320D01*
X78418574Y-134620147D01*
X78141335Y-134565000D01*
X77858665Y-134565000D01*
X77581426Y-134620147D01*
X77320273Y-134728320D01*
X77085241Y-134885363D01*
X76885363Y-135085241D01*
X76728320Y-135320273D01*
X76620147Y-135581426D01*
X76565000Y-135858665D01*
X57933467Y-135858665D01*
X49773467Y-127698665D01*
X57565000Y-127698665D01*
X57565000Y-127981335D01*
X57620147Y-128258574D01*
X57728320Y-128519727D01*
X57885363Y-128754759D01*
X58085241Y-128954637D01*
X58320273Y-129111680D01*
X58581426Y-129219853D01*
X58858665Y-129275000D01*
X59141335Y-129275000D01*
X59418574Y-129219853D01*
X59679727Y-129111680D01*
X59914759Y-128954637D01*
X60114637Y-128754759D01*
X60271680Y-128519727D01*
X60379853Y-128258574D01*
X60435000Y-127981335D01*
X60435000Y-127698665D01*
X60379853Y-127421426D01*
X60271680Y-127160273D01*
X60114637Y-126925241D01*
X59914759Y-126725363D01*
X59679727Y-126568320D01*
X59418574Y-126460147D01*
X59141335Y-126405000D01*
X58858665Y-126405000D01*
X58581426Y-126460147D01*
X58320273Y-126568320D01*
X58085241Y-126725363D01*
X57885363Y-126925241D01*
X57728320Y-127160273D01*
X57620147Y-127421426D01*
X57565000Y-127698665D01*
X49773467Y-127698665D01*
X48833804Y-126759003D01*
X48810001Y-126729999D01*
X48694276Y-126635026D01*
X48562247Y-126564454D01*
X48418986Y-126520997D01*
X48307333Y-126510000D01*
X48307322Y-126510000D01*
X48270000Y-126506324D01*
X48232678Y-126510000D01*
X47172341Y-126510000D01*
X47085120Y-126379465D01*
X46890535Y-126184880D01*
X46661727Y-126031995D01*
X46584485Y-126000000D01*
X46661727Y-125968005D01*
X46890535Y-125815120D01*
X47085120Y-125620535D01*
X47238005Y-125391727D01*
X47343314Y-125137490D01*
X47397000Y-124867592D01*
X47397000Y-124592408D01*
X47366372Y-124438429D01*
X47946136Y-123858665D01*
X57565000Y-123858665D01*
X57565000Y-124141335D01*
X57620147Y-124418574D01*
X57728320Y-124679727D01*
X57885363Y-124914759D01*
X58085241Y-125114637D01*
X58320273Y-125271680D01*
X58581426Y-125379853D01*
X58858665Y-125435000D01*
X59141335Y-125435000D01*
X59418574Y-125379853D01*
X59679727Y-125271680D01*
X59914759Y-125114637D01*
X60114637Y-124914759D01*
X60271680Y-124679727D01*
X60379853Y-124418574D01*
X60435000Y-124141335D01*
X60435000Y-123858665D01*
X60379853Y-123581426D01*
X60271680Y-123320273D01*
X60114637Y-123085241D01*
X59914759Y-122885363D01*
X59679727Y-122728320D01*
X59418574Y-122620147D01*
X59141335Y-122565000D01*
X58858665Y-122565000D01*
X58581426Y-122620147D01*
X58320273Y-122728320D01*
X58085241Y-122885363D01*
X57885363Y-123085241D01*
X57728320Y-123320273D01*
X57620147Y-123581426D01*
X57565000Y-123858665D01*
X47946136Y-123858665D01*
X52511009Y-119293794D01*
X52540001Y-119270001D01*
X52563795Y-119241008D01*
X52563799Y-119241004D01*
X52634973Y-119154277D01*
X52634974Y-119154276D01*
X52705546Y-119022247D01*
X52749003Y-118878986D01*
X52760000Y-118767333D01*
X52760000Y-118767324D01*
X52763676Y-118730001D01*
X52760000Y-118692678D01*
X52760000Y-115314801D01*
X55134802Y-112940000D01*
X57875501Y-112940000D01*
X57728320Y-113160273D01*
X57620147Y-113421426D01*
X57565000Y-113698665D01*
X57565000Y-113981335D01*
X57620147Y-114258574D01*
X57728320Y-114519727D01*
X57885363Y-114754759D01*
X58085241Y-114954637D01*
X58320273Y-115111680D01*
X58581426Y-115219853D01*
X58858665Y-115275000D01*
X59141335Y-115275000D01*
X59418574Y-115219853D01*
X59679727Y-115111680D01*
X59914759Y-114954637D01*
X60114637Y-114754759D01*
X60271680Y-114519727D01*
X60379853Y-114258574D01*
X60435000Y-113981335D01*
X60435000Y-113698665D01*
X60379853Y-113421426D01*
X60271680Y-113160273D01*
X60124499Y-112940000D01*
X81207659Y-112940000D01*
X81294880Y-113070535D01*
X81489465Y-113265120D01*
X81718273Y-113418005D01*
X81795515Y-113450000D01*
X81718273Y-113481995D01*
X81489465Y-113634880D01*
X81294880Y-113829465D01*
X81141995Y-114058273D01*
X81036686Y-114312510D01*
X80983000Y-114582408D01*
X80983000Y-114857592D01*
X81036686Y-115127490D01*
X81141995Y-115381727D01*
X81294880Y-115610535D01*
X81489465Y-115805120D01*
X81718273Y-115958005D01*
X81972510Y-116063314D01*
X82242408Y-116117000D01*
X82517592Y-116117000D01*
X82787490Y-116063314D01*
X83041727Y-115958005D01*
X83270535Y-115805120D01*
X83465120Y-115610535D01*
X83618005Y-115381727D01*
X83723314Y-115127490D01*
X83777000Y-114857592D01*
X83777000Y-114582408D01*
X83723314Y-114312510D01*
X83618005Y-114058273D01*
X83465120Y-113829465D01*
X83270535Y-113634880D01*
X83041727Y-113481995D01*
X82964485Y-113450000D01*
X83041727Y-113418005D01*
X83270535Y-113265120D01*
X83465120Y-113070535D01*
X83618005Y-112841727D01*
X83723314Y-112587490D01*
X83777000Y-112317592D01*
X83777000Y-112042408D01*
X83723314Y-111772510D01*
X83618005Y-111518273D01*
X83465120Y-111289465D01*
X83270535Y-111094880D01*
X83041727Y-110941995D01*
X82964485Y-110910000D01*
X83041727Y-110878005D01*
X83270535Y-110725120D01*
X83465120Y-110530535D01*
X83618005Y-110301727D01*
X83723314Y-110047490D01*
X83777000Y-109777592D01*
X83777000Y-109502408D01*
X83723314Y-109232510D01*
X83618005Y-108978273D01*
X83465120Y-108749465D01*
X83270535Y-108554880D01*
X83041727Y-108401995D01*
X82964485Y-108370000D01*
X83041727Y-108338005D01*
X83270535Y-108185120D01*
X83465120Y-107990535D01*
X83618005Y-107761727D01*
X83723314Y-107507490D01*
X83777000Y-107237592D01*
X83777000Y-106962408D01*
X83723314Y-106692510D01*
X83618005Y-106438273D01*
X83465120Y-106209465D01*
X83270535Y-106014880D01*
X83041727Y-105861995D01*
X82964485Y-105830000D01*
X83041727Y-105798005D01*
X83270535Y-105645120D01*
X83465120Y-105450535D01*
X83618005Y-105221727D01*
X83723314Y-104967490D01*
X83777000Y-104697592D01*
X83777000Y-104422408D01*
X83723314Y-104152510D01*
X83618005Y-103898273D01*
X83465120Y-103669465D01*
X83270535Y-103474880D01*
X83041727Y-103321995D01*
X82964485Y-103290000D01*
X83041727Y-103258005D01*
X83270535Y-103105120D01*
X83465120Y-102910535D01*
X83618005Y-102681727D01*
X83650000Y-102604485D01*
X83681995Y-102681727D01*
X83834880Y-102910535D01*
X84029465Y-103105120D01*
X84258273Y-103258005D01*
X84512510Y-103363314D01*
X84782408Y-103417000D01*
X85057592Y-103417000D01*
X85327490Y-103363314D01*
X85581727Y-103258005D01*
X85810535Y-103105120D01*
X86005120Y-102910535D01*
X86158005Y-102681727D01*
X86190000Y-102604485D01*
X86221995Y-102681727D01*
X86374880Y-102910535D01*
X86569465Y-103105120D01*
X86798273Y-103258005D01*
X87052510Y-103363314D01*
X87322408Y-103417000D01*
X87597592Y-103417000D01*
X87867490Y-103363314D01*
X88121727Y-103258005D01*
X88350535Y-103105120D01*
X88545120Y-102910535D01*
X88698005Y-102681727D01*
X88730000Y-102604485D01*
X88761995Y-102681727D01*
X88914880Y-102910535D01*
X89109465Y-103105120D01*
X89338273Y-103258005D01*
X89592510Y-103363314D01*
X89862408Y-103417000D01*
X90137592Y-103417000D01*
X90407490Y-103363314D01*
X90661727Y-103258005D01*
X90890535Y-103105120D01*
X91085120Y-102910535D01*
X91238005Y-102681727D01*
X91270000Y-102604485D01*
X91301995Y-102681727D01*
X91454880Y-102910535D01*
X91649465Y-103105120D01*
X91878273Y-103258005D01*
X92132510Y-103363314D01*
X92402408Y-103417000D01*
X92677592Y-103417000D01*
X92947490Y-103363314D01*
X93201727Y-103258005D01*
X93430535Y-103105120D01*
X93625120Y-102910535D01*
X93778005Y-102681727D01*
X93810000Y-102604485D01*
X93841995Y-102681727D01*
X93994880Y-102910535D01*
X94189465Y-103105120D01*
X94418273Y-103258005D01*
X94672510Y-103363314D01*
X94942408Y-103417000D01*
X95217592Y-103417000D01*
X95487490Y-103363314D01*
X95741727Y-103258005D01*
X95970535Y-103105120D01*
X96165120Y-102910535D01*
X96318005Y-102681727D01*
X96350000Y-102604485D01*
X96381995Y-102681727D01*
X96534880Y-102910535D01*
X96729465Y-103105120D01*
X96958273Y-103258005D01*
X97035515Y-103290000D01*
X96958273Y-103321995D01*
X96729465Y-103474880D01*
X96534880Y-103669465D01*
X96381995Y-103898273D01*
X96276686Y-104152510D01*
X96223000Y-104422408D01*
X96223000Y-104697592D01*
X96276686Y-104967490D01*
X96381995Y-105221727D01*
X96534880Y-105450535D01*
X96729465Y-105645120D01*
X96958273Y-105798005D01*
X97035515Y-105830000D01*
X96958273Y-105861995D01*
X96729465Y-106014880D01*
X96534880Y-106209465D01*
X96381995Y-106438273D01*
X96276686Y-106692510D01*
X96223000Y-106962408D01*
X96223000Y-107237592D01*
X96276686Y-107507490D01*
X96381995Y-107761727D01*
X96534880Y-107990535D01*
X96729465Y-108185120D01*
X96958273Y-108338005D01*
X97035515Y-108370000D01*
X96958273Y-108401995D01*
X96729465Y-108554880D01*
X96534880Y-108749465D01*
X96381995Y-108978273D01*
X96276686Y-109232510D01*
X96223000Y-109502408D01*
X96223000Y-109777592D01*
X96276686Y-110047490D01*
X96381995Y-110301727D01*
X96534880Y-110530535D01*
X96729465Y-110725120D01*
X96958273Y-110878005D01*
X97035515Y-110910000D01*
X96958273Y-110941995D01*
X96729465Y-111094880D01*
X96534880Y-111289465D01*
X96381995Y-111518273D01*
X96276686Y-111772510D01*
X96223000Y-112042408D01*
X96223000Y-112317592D01*
X96276686Y-112587490D01*
X96381995Y-112841727D01*
X96534880Y-113070535D01*
X96729465Y-113265120D01*
X96958273Y-113418005D01*
X97035515Y-113450000D01*
X96958273Y-113481995D01*
X96729465Y-113634880D01*
X96534880Y-113829465D01*
X96381995Y-114058273D01*
X96276686Y-114312510D01*
X96223000Y-114582408D01*
X96223000Y-114857592D01*
X96253628Y-115011570D01*
X89488998Y-121776201D01*
X89460000Y-121799999D01*
X89436202Y-121828997D01*
X89436201Y-121828998D01*
X89365026Y-121915724D01*
X89294454Y-122047754D01*
X89250998Y-122191015D01*
X89236324Y-122340000D01*
X89240001Y-122377332D01*
X89240000Y-135050604D01*
X89074759Y-134885363D01*
X88839727Y-134728320D01*
X88578574Y-134620147D01*
X88301335Y-134565000D01*
X88018665Y-134565000D01*
X87741426Y-134620147D01*
X87480273Y-134728320D01*
X87245241Y-134885363D01*
X87045363Y-135085241D01*
X86888320Y-135320273D01*
X86780147Y-135581426D01*
X86725000Y-135858665D01*
X86725000Y-136141335D01*
X86780147Y-136418574D01*
X86888320Y-136679727D01*
X87045363Y-136914759D01*
X87245241Y-137114637D01*
X87480273Y-137271680D01*
X87741426Y-137379853D01*
X87989153Y-137429130D01*
X87980998Y-137456012D01*
X87970317Y-137564454D01*
X87966324Y-137604998D01*
X87970001Y-137642330D01*
X87970000Y-142827659D01*
X87839465Y-142914880D01*
X87644880Y-143109465D01*
X87491995Y-143338273D01*
X87462308Y-143409943D01*
X87457636Y-143396977D01*
X87395656Y-143281020D01*
X87155565Y-143214040D01*
X86369605Y-144000000D01*
X87155565Y-144785960D01*
X87395656Y-144718980D01*
X87459485Y-144583240D01*
X87491995Y-144661727D01*
X87644880Y-144890535D01*
X87839465Y-145085120D01*
X88068273Y-145238005D01*
X88322510Y-145343314D01*
X88592408Y-145397000D01*
X88867592Y-145397000D01*
X89137490Y-145343314D01*
X89391727Y-145238005D01*
X89620535Y-145085120D01*
X89815120Y-144890535D01*
X89968005Y-144661727D01*
X90000000Y-144584485D01*
X90031995Y-144661727D01*
X90184880Y-144890535D01*
X90379465Y-145085120D01*
X90608273Y-145238005D01*
X90862510Y-145343314D01*
X91132408Y-145397000D01*
X91407592Y-145397000D01*
X91677490Y-145343314D01*
X91931727Y-145238005D01*
X92160535Y-145085120D01*
X92355120Y-144890535D01*
X92508005Y-144661727D01*
X92540000Y-144584485D01*
X92571995Y-144661727D01*
X92724880Y-144890535D01*
X92919465Y-145085120D01*
X93148273Y-145238005D01*
X93402510Y-145343314D01*
X93672408Y-145397000D01*
X93947592Y-145397000D01*
X94217490Y-145343314D01*
X94471727Y-145238005D01*
X94700535Y-145085120D01*
X94895120Y-144890535D01*
X95048005Y-144661727D01*
X95153314Y-144407490D01*
X95207000Y-144137592D01*
X95207000Y-143862408D01*
X95153314Y-143592510D01*
X95048005Y-143338273D01*
X94895120Y-143109465D01*
X94700535Y-142914880D01*
X94471727Y-142761995D01*
X94217490Y-142656686D01*
X93947592Y-142603000D01*
X93741801Y-142603000D01*
X97314802Y-139030000D01*
X99852678Y-139030000D01*
X99890000Y-139033676D01*
X99927322Y-139030000D01*
X99927333Y-139030000D01*
X100038986Y-139019003D01*
X100182247Y-138975546D01*
X100314276Y-138904974D01*
X100430001Y-138810001D01*
X100453804Y-138780997D01*
X101376136Y-137858665D01*
X123565000Y-137858665D01*
X123565000Y-138141335D01*
X123620147Y-138418574D01*
X123728320Y-138679727D01*
X123885363Y-138914759D01*
X124085241Y-139114637D01*
X124320273Y-139271680D01*
X124581426Y-139379853D01*
X124858665Y-139435000D01*
X125141335Y-139435000D01*
X125418574Y-139379853D01*
X125679727Y-139271680D01*
X125914759Y-139114637D01*
X126114637Y-138914759D01*
X126271680Y-138679727D01*
X126379853Y-138418574D01*
X126435000Y-138141335D01*
X126435000Y-137858665D01*
X126379853Y-137581426D01*
X126271680Y-137320273D01*
X126114637Y-137085241D01*
X125914759Y-136885363D01*
X125679727Y-136728320D01*
X125418574Y-136620147D01*
X125141335Y-136565000D01*
X124858665Y-136565000D01*
X124581426Y-136620147D01*
X124320273Y-136728320D01*
X124085241Y-136885363D01*
X123885363Y-137085241D01*
X123728320Y-137320273D01*
X123620147Y-137581426D01*
X123565000Y-137858665D01*
X101376136Y-137858665D01*
X101836114Y-137398688D01*
X102018665Y-137435000D01*
X102301335Y-137435000D01*
X102578574Y-137379853D01*
X102839727Y-137271680D01*
X103074759Y-137114637D01*
X103274637Y-136914759D01*
X103431680Y-136679727D01*
X103539853Y-136418574D01*
X103595000Y-136141335D01*
X103595000Y-135858665D01*
X103539853Y-135581426D01*
X103431680Y-135320273D01*
X103274637Y-135085241D01*
X103074759Y-134885363D01*
X102839727Y-134728320D01*
X102578574Y-134620147D01*
X102301335Y-134565000D01*
X102018665Y-134565000D01*
X101741426Y-134620147D01*
X101480273Y-134728320D01*
X101245241Y-134885363D01*
X101045363Y-135085241D01*
X100888320Y-135320273D01*
X100780147Y-135581426D01*
X100725000Y-135858665D01*
X100725000Y-136141335D01*
X100761312Y-136323886D01*
X99575199Y-137510000D01*
X97037325Y-137510000D01*
X97000000Y-137506324D01*
X96962675Y-137510000D01*
X96962667Y-137510000D01*
X96851014Y-137520997D01*
X96707753Y-137564454D01*
X96575724Y-137635026D01*
X96459999Y-137729999D01*
X96436201Y-137758997D01*
X91561571Y-142633628D01*
X91407592Y-142603000D01*
X91132408Y-142603000D01*
X90862510Y-142656686D01*
X90608273Y-142761995D01*
X90379465Y-142914880D01*
X90184880Y-143109465D01*
X90031995Y-143338273D01*
X90000000Y-143415515D01*
X89968005Y-143338273D01*
X89815120Y-143109465D01*
X89620535Y-142914880D01*
X89490000Y-142827659D01*
X89490000Y-137919799D01*
X90511004Y-136898796D01*
X90540001Y-136874999D01*
X90634974Y-136759274D01*
X90705546Y-136627245D01*
X90705984Y-136625802D01*
X90728320Y-136679727D01*
X90885363Y-136914759D01*
X91085241Y-137114637D01*
X91320273Y-137271680D01*
X91581426Y-137379853D01*
X91858665Y-137435000D01*
X92141335Y-137435000D01*
X92418574Y-137379853D01*
X92679727Y-137271680D01*
X92914759Y-137114637D01*
X93114637Y-136914759D01*
X93271680Y-136679727D01*
X93379853Y-136418574D01*
X93435000Y-136141335D01*
X93435000Y-135858665D01*
X93379853Y-135581426D01*
X93271680Y-135320273D01*
X93114637Y-135085241D01*
X92914759Y-134885363D01*
X92679727Y-134728320D01*
X92418574Y-134620147D01*
X92141335Y-134565000D01*
X91858665Y-134565000D01*
X91581426Y-134620147D01*
X91320273Y-134728320D01*
X91085241Y-134885363D01*
X90885363Y-135085241D01*
X90760000Y-135272860D01*
X90760000Y-130775565D01*
X133214040Y-130775565D01*
X133281020Y-131015656D01*
X133530048Y-131132756D01*
X133797135Y-131199023D01*
X134072017Y-131211910D01*
X134344133Y-131170922D01*
X134603023Y-131077636D01*
X134718980Y-131015656D01*
X134785960Y-130775565D01*
X134000000Y-129989605D01*
X133214040Y-130775565D01*
X90760000Y-130775565D01*
X90760000Y-129882017D01*
X132598090Y-129882017D01*
X132639078Y-130154133D01*
X132732364Y-130413023D01*
X132794344Y-130528980D01*
X133034435Y-130595960D01*
X133820395Y-129810000D01*
X134179605Y-129810000D01*
X134965565Y-130595960D01*
X135205656Y-130528980D01*
X135322756Y-130279952D01*
X135389023Y-130012865D01*
X135401910Y-129737983D01*
X135360922Y-129465867D01*
X135267636Y-129206977D01*
X135205656Y-129091020D01*
X134965565Y-129024040D01*
X134179605Y-129810000D01*
X133820395Y-129810000D01*
X133034435Y-129024040D01*
X132794344Y-129091020D01*
X132677244Y-129340048D01*
X132610977Y-129607135D01*
X132598090Y-129882017D01*
X90760000Y-129882017D01*
X90760000Y-122654801D01*
X97328430Y-116086372D01*
X97482408Y-116117000D01*
X97757592Y-116117000D01*
X98027490Y-116063314D01*
X98281727Y-115958005D01*
X98510535Y-115805120D01*
X98705120Y-115610535D01*
X98858005Y-115381727D01*
X98963314Y-115127490D01*
X99017000Y-114857592D01*
X99017000Y-114582408D01*
X98963314Y-114312510D01*
X98858005Y-114058273D01*
X98705120Y-113829465D01*
X98510535Y-113634880D01*
X98281727Y-113481995D01*
X98204485Y-113450000D01*
X98281727Y-113418005D01*
X98510535Y-113265120D01*
X98705120Y-113070535D01*
X98858005Y-112841727D01*
X98963314Y-112587490D01*
X99017000Y-112317592D01*
X99017000Y-112111801D01*
X113416200Y-126511002D01*
X113439999Y-126540001D01*
X113468997Y-126563799D01*
X113555723Y-126634974D01*
X113687753Y-126705546D01*
X113831014Y-126749003D01*
X113942667Y-126760000D01*
X113942677Y-126760000D01*
X113980000Y-126763676D01*
X114017323Y-126760000D01*
X124050604Y-126760000D01*
X123885363Y-126925241D01*
X123728320Y-127160273D01*
X123620147Y-127421426D01*
X123565000Y-127698665D01*
X123565000Y-127981335D01*
X123620147Y-128258574D01*
X123728320Y-128519727D01*
X123885363Y-128754759D01*
X124085241Y-128954637D01*
X124320273Y-129111680D01*
X124581426Y-129219853D01*
X124858665Y-129275000D01*
X125141335Y-129275000D01*
X125418574Y-129219853D01*
X125679727Y-129111680D01*
X125914759Y-128954637D01*
X126114637Y-128754759D01*
X126271680Y-128519727D01*
X126379853Y-128258574D01*
X126435000Y-127981335D01*
X126435000Y-127698665D01*
X126379853Y-127421426D01*
X126271680Y-127160273D01*
X126114637Y-126925241D01*
X125949396Y-126760000D01*
X127685199Y-126760000D01*
X128706200Y-127781002D01*
X128729999Y-127810001D01*
X128845724Y-127904974D01*
X128977753Y-127975546D01*
X129121014Y-128019003D01*
X129232667Y-128030000D01*
X129232676Y-128030000D01*
X129269999Y-128033676D01*
X129307322Y-128030000D01*
X132827659Y-128030000D01*
X132914880Y-128160535D01*
X133109465Y-128355120D01*
X133338273Y-128508005D01*
X133409943Y-128537692D01*
X133396977Y-128542364D01*
X133281020Y-128604344D01*
X133214040Y-128844435D01*
X134000000Y-129630395D01*
X134785960Y-128844435D01*
X134718980Y-128604344D01*
X134583240Y-128540515D01*
X134661727Y-128508005D01*
X134890535Y-128355120D01*
X135085120Y-128160535D01*
X135238005Y-127931727D01*
X135343314Y-127677490D01*
X135397000Y-127407592D01*
X135397000Y-127132408D01*
X135343314Y-126862510D01*
X135238005Y-126608273D01*
X135085120Y-126379465D01*
X134890535Y-126184880D01*
X134661727Y-126031995D01*
X134584485Y-126000000D01*
X134661727Y-125968005D01*
X134890535Y-125815120D01*
X135085120Y-125620535D01*
X135238005Y-125391727D01*
X135343314Y-125137490D01*
X135397000Y-124867592D01*
X135397000Y-124592408D01*
X135343314Y-124322510D01*
X135238005Y-124068273D01*
X135085120Y-123839465D01*
X134890535Y-123644880D01*
X134661727Y-123491995D01*
X134584485Y-123460000D01*
X134661727Y-123428005D01*
X134890535Y-123275120D01*
X135085120Y-123080535D01*
X135238005Y-122851727D01*
X135343314Y-122597490D01*
X135397000Y-122327592D01*
X135397000Y-122052408D01*
X135343314Y-121782510D01*
X135238005Y-121528273D01*
X135085120Y-121299465D01*
X134890535Y-121104880D01*
X134661727Y-120951995D01*
X134407490Y-120846686D01*
X134137592Y-120793000D01*
X133862408Y-120793000D01*
X133592510Y-120846686D01*
X133338273Y-120951995D01*
X133109465Y-121104880D01*
X132914880Y-121299465D01*
X132761995Y-121528273D01*
X132656686Y-121782510D01*
X132603000Y-122052408D01*
X132603000Y-122258198D01*
X129030000Y-118685199D01*
X129030000Y-116307323D01*
X129033676Y-116270000D01*
X129030000Y-116232677D01*
X129030000Y-116232667D01*
X129019003Y-116121014D01*
X128975546Y-115977753D01*
X128964990Y-115958005D01*
X128904974Y-115845723D01*
X128833799Y-115758997D01*
X128810001Y-115729999D01*
X128781003Y-115706201D01*
X126403804Y-113329003D01*
X126380001Y-113299999D01*
X126303577Y-113237280D01*
X126271680Y-113160273D01*
X126114637Y-112925241D01*
X125914759Y-112725363D01*
X125679727Y-112568320D01*
X125418574Y-112460147D01*
X125141335Y-112405000D01*
X124858665Y-112405000D01*
X124581426Y-112460147D01*
X124320273Y-112568320D01*
X124085241Y-112725363D01*
X123885363Y-112925241D01*
X123728320Y-113160273D01*
X123620147Y-113421426D01*
X123565000Y-113698665D01*
X123565000Y-113981335D01*
X123620147Y-114258574D01*
X123728320Y-114519727D01*
X123885363Y-114754759D01*
X124085241Y-114954637D01*
X124320273Y-115111680D01*
X124581426Y-115219853D01*
X124858665Y-115275000D01*
X125141335Y-115275000D01*
X125418574Y-115219853D01*
X125679727Y-115111680D01*
X125893824Y-114968625D01*
X127510001Y-116584803D01*
X127510000Y-118962677D01*
X127506324Y-119000000D01*
X127510000Y-119037322D01*
X127510000Y-119037332D01*
X127520997Y-119148985D01*
X127557706Y-119270001D01*
X127564454Y-119292246D01*
X127635026Y-119424276D01*
X127674871Y-119472826D01*
X127729999Y-119540001D01*
X127759003Y-119563804D01*
X132633628Y-124438430D01*
X132603000Y-124592408D01*
X132603000Y-124867592D01*
X132656686Y-125137490D01*
X132761995Y-125391727D01*
X132914880Y-125620535D01*
X133109465Y-125815120D01*
X133338273Y-125968005D01*
X133415515Y-126000000D01*
X133338273Y-126031995D01*
X133109465Y-126184880D01*
X132914880Y-126379465D01*
X132827659Y-126510000D01*
X129584802Y-126510000D01*
X128563804Y-125489003D01*
X128540001Y-125459999D01*
X128424276Y-125365026D01*
X128292247Y-125294454D01*
X128148986Y-125250997D01*
X128037333Y-125240000D01*
X128037322Y-125240000D01*
X128000000Y-125236324D01*
X127962678Y-125240000D01*
X125727140Y-125240000D01*
X125914759Y-125114637D01*
X126114637Y-124914759D01*
X126271680Y-124679727D01*
X126379853Y-124418574D01*
X126435000Y-124141335D01*
X126435000Y-123858665D01*
X126379853Y-123581426D01*
X126271680Y-123320273D01*
X126114637Y-123085241D01*
X125914759Y-122885363D01*
X125679727Y-122728320D01*
X125418574Y-122620147D01*
X125141335Y-122565000D01*
X124858665Y-122565000D01*
X124581426Y-122620147D01*
X124320273Y-122728320D01*
X124085241Y-122885363D01*
X123885363Y-123085241D01*
X123728320Y-123320273D01*
X123620147Y-123581426D01*
X123565000Y-123858665D01*
X123565000Y-124141335D01*
X123620147Y-124418574D01*
X123728320Y-124679727D01*
X123885363Y-124914759D01*
X124085241Y-125114637D01*
X124272860Y-125240000D01*
X114294802Y-125240000D01*
X98986372Y-109931571D01*
X99017000Y-109777592D01*
X99017000Y-109502408D01*
X98963314Y-109232510D01*
X98858005Y-108978273D01*
X98705120Y-108749465D01*
X98510535Y-108554880D01*
X98281727Y-108401995D01*
X98204485Y-108370000D01*
X98281727Y-108338005D01*
X98510535Y-108185120D01*
X98705120Y-107990535D01*
X98858005Y-107761727D01*
X98963314Y-107507490D01*
X99017000Y-107237592D01*
X99017000Y-106962408D01*
X98996365Y-106858665D01*
X123565000Y-106858665D01*
X123565000Y-107141335D01*
X123620147Y-107418574D01*
X123728320Y-107679727D01*
X123885363Y-107914759D01*
X124085241Y-108114637D01*
X124320273Y-108271680D01*
X124581426Y-108379853D01*
X124858665Y-108435000D01*
X125141335Y-108435000D01*
X125418574Y-108379853D01*
X125679727Y-108271680D01*
X125914759Y-108114637D01*
X126114637Y-107914759D01*
X126271680Y-107679727D01*
X126379853Y-107418574D01*
X126435000Y-107141335D01*
X126435000Y-106858665D01*
X126379853Y-106581426D01*
X126271680Y-106320273D01*
X126114637Y-106085241D01*
X125914759Y-105885363D01*
X125679727Y-105728320D01*
X125418574Y-105620147D01*
X125141335Y-105565000D01*
X124858665Y-105565000D01*
X124581426Y-105620147D01*
X124320273Y-105728320D01*
X124085241Y-105885363D01*
X123885363Y-106085241D01*
X123728320Y-106320273D01*
X123620147Y-106581426D01*
X123565000Y-106858665D01*
X98996365Y-106858665D01*
X98963314Y-106692510D01*
X98858005Y-106438273D01*
X98705120Y-106209465D01*
X98510535Y-106014880D01*
X98281727Y-105861995D01*
X98204485Y-105830000D01*
X98281727Y-105798005D01*
X98510535Y-105645120D01*
X98705120Y-105450535D01*
X98858005Y-105221727D01*
X98963314Y-104967490D01*
X99017000Y-104697592D01*
X99017000Y-104422408D01*
X98986372Y-104268429D01*
X107494802Y-95760000D01*
X124050604Y-95760000D01*
X123885363Y-95925241D01*
X123728320Y-96160273D01*
X123620147Y-96421426D01*
X123565000Y-96698665D01*
X123565000Y-96981335D01*
X123620147Y-97258574D01*
X123728320Y-97519727D01*
X123885363Y-97754759D01*
X124085241Y-97954637D01*
X124320273Y-98111680D01*
X124581426Y-98219853D01*
X124858665Y-98275000D01*
X125141335Y-98275000D01*
X125418574Y-98219853D01*
X125679727Y-98111680D01*
X125914759Y-97954637D01*
X126114637Y-97754759D01*
X126271680Y-97519727D01*
X126379853Y-97258574D01*
X126435000Y-96981335D01*
X126435000Y-96698665D01*
X126379853Y-96421426D01*
X126271680Y-96160273D01*
X126114637Y-95925241D01*
X125949396Y-95760000D01*
X127962678Y-95760000D01*
X128000000Y-95763676D01*
X128037322Y-95760000D01*
X128037333Y-95760000D01*
X128148986Y-95749003D01*
X128292247Y-95705546D01*
X128424276Y-95634974D01*
X128540001Y-95540001D01*
X128563804Y-95510997D01*
X130511004Y-93563798D01*
X130540001Y-93540001D01*
X130566332Y-93507917D01*
X130634974Y-93424277D01*
X130705546Y-93292247D01*
X130732523Y-93203314D01*
X130749003Y-93148986D01*
X130760000Y-93037333D01*
X130760000Y-93037324D01*
X130763676Y-93000001D01*
X130760000Y-92962678D01*
X130760000Y-79584801D01*
X131569236Y-78775565D01*
X133214040Y-78775565D01*
X133281020Y-79015656D01*
X133530048Y-79132756D01*
X133797135Y-79199023D01*
X134072017Y-79211910D01*
X134344133Y-79170922D01*
X134603023Y-79077636D01*
X134718980Y-79015656D01*
X134785960Y-78775565D01*
X134000000Y-77989605D01*
X133214040Y-78775565D01*
X131569236Y-78775565D01*
X132604745Y-77740056D01*
X132598090Y-77882017D01*
X132639078Y-78154133D01*
X132732364Y-78413023D01*
X132794344Y-78528980D01*
X133034435Y-78595960D01*
X133820395Y-77810000D01*
X134179605Y-77810000D01*
X134965565Y-78595960D01*
X135205656Y-78528980D01*
X135322756Y-78279952D01*
X135389023Y-78012865D01*
X135401910Y-77737983D01*
X135360922Y-77465867D01*
X135267636Y-77206977D01*
X135205656Y-77091020D01*
X134965565Y-77024040D01*
X134179605Y-77810000D01*
X133820395Y-77810000D01*
X133806253Y-77795858D01*
X133985858Y-77616253D01*
X134000000Y-77630395D01*
X134785960Y-76844435D01*
X134718980Y-76604344D01*
X134583240Y-76540515D01*
X134661727Y-76508005D01*
X134890535Y-76355120D01*
X135085120Y-76160535D01*
X135238005Y-75931727D01*
X135343314Y-75677490D01*
X135397000Y-75407592D01*
X135397000Y-75132408D01*
X135343314Y-74862510D01*
X135238005Y-74608273D01*
X135085120Y-74379465D01*
X134890535Y-74184880D01*
X134661727Y-74031995D01*
X134584485Y-74000000D01*
X134661727Y-73968005D01*
X134890535Y-73815120D01*
X135085120Y-73620535D01*
X135238005Y-73391727D01*
X135343314Y-73137490D01*
X135397000Y-72867592D01*
X135397000Y-72592408D01*
X135343314Y-72322510D01*
X135238005Y-72068273D01*
X135085120Y-71839465D01*
X134890535Y-71644880D01*
X134661727Y-71491995D01*
X134584485Y-71460000D01*
X134661727Y-71428005D01*
X134890535Y-71275120D01*
X135085120Y-71080535D01*
X135238005Y-70851727D01*
X135343314Y-70597490D01*
X135397000Y-70327592D01*
X135397000Y-70052408D01*
X135343314Y-69782510D01*
X135238005Y-69528273D01*
X135085120Y-69299465D01*
X134890535Y-69104880D01*
X134661727Y-68951995D01*
X134407490Y-68846686D01*
X134137592Y-68793000D01*
X133862408Y-68793000D01*
X133592510Y-68846686D01*
X133338273Y-68951995D01*
X133109465Y-69104880D01*
X132914880Y-69299465D01*
X132761995Y-69528273D01*
X132656686Y-69782510D01*
X132603000Y-70052408D01*
X132603000Y-70327592D01*
X132656686Y-70597490D01*
X132761995Y-70851727D01*
X132914880Y-71080535D01*
X133109465Y-71275120D01*
X133338273Y-71428005D01*
X133415515Y-71460000D01*
X133338273Y-71491995D01*
X133109465Y-71644880D01*
X132914880Y-71839465D01*
X132761995Y-72068273D01*
X132656686Y-72322510D01*
X132603000Y-72592408D01*
X132603000Y-72867592D01*
X132633628Y-73021570D01*
X124489003Y-81166196D01*
X124459999Y-81189999D01*
X124404871Y-81257174D01*
X124365026Y-81305724D01*
X124325403Y-81379853D01*
X124294454Y-81437754D01*
X124250997Y-81581015D01*
X124247455Y-81616975D01*
X124085241Y-81725363D01*
X123885363Y-81925241D01*
X123728320Y-82160273D01*
X123620147Y-82421426D01*
X123565000Y-82698665D01*
X123565000Y-82981335D01*
X123620147Y-83258574D01*
X123728320Y-83519727D01*
X123885363Y-83754759D01*
X124085241Y-83954637D01*
X124320273Y-84111680D01*
X124581426Y-84219853D01*
X124858665Y-84275000D01*
X125141335Y-84275000D01*
X125418574Y-84219853D01*
X125679727Y-84111680D01*
X125914759Y-83954637D01*
X126114637Y-83754759D01*
X126271680Y-83519727D01*
X126379853Y-83258574D01*
X126435000Y-82981335D01*
X126435000Y-82698665D01*
X126379853Y-82421426D01*
X126271680Y-82160273D01*
X126114637Y-81925241D01*
X125997099Y-81807703D01*
X132603000Y-75201802D01*
X132603000Y-75407592D01*
X132633628Y-75561570D01*
X129488998Y-78706201D01*
X129460000Y-78729999D01*
X129436202Y-78758997D01*
X129436201Y-78758998D01*
X129365026Y-78845724D01*
X129294454Y-78977754D01*
X129264180Y-79077558D01*
X129250998Y-79121014D01*
X129243315Y-79199023D01*
X129236324Y-79270000D01*
X129240001Y-79307332D01*
X129240000Y-92685198D01*
X127685199Y-94240000D01*
X125727140Y-94240000D01*
X125914759Y-94114637D01*
X126114637Y-93914759D01*
X126271680Y-93679727D01*
X126379853Y-93418574D01*
X126435000Y-93141335D01*
X126435000Y-92858665D01*
X126379853Y-92581426D01*
X126271680Y-92320273D01*
X126114637Y-92085241D01*
X125914759Y-91885363D01*
X125679727Y-91728320D01*
X125418574Y-91620147D01*
X125141335Y-91565000D01*
X124858665Y-91565000D01*
X124581426Y-91620147D01*
X124320273Y-91728320D01*
X124085241Y-91885363D01*
X123885363Y-92085241D01*
X123728320Y-92320273D01*
X123620147Y-92581426D01*
X123565000Y-92858665D01*
X123565000Y-93141335D01*
X123620147Y-93418574D01*
X123728320Y-93679727D01*
X123885363Y-93914759D01*
X124085241Y-94114637D01*
X124272860Y-94240000D01*
X107217325Y-94240000D01*
X107180000Y-94236324D01*
X107142675Y-94240000D01*
X107142667Y-94240000D01*
X107031014Y-94250997D01*
X106887753Y-94294454D01*
X106755724Y-94365026D01*
X106639999Y-94459999D01*
X106616201Y-94488997D01*
X99017000Y-102088199D01*
X99017000Y-101882408D01*
X98963314Y-101612510D01*
X98858005Y-101358273D01*
X98705120Y-101129465D01*
X98510535Y-100934880D01*
X98281727Y-100781995D01*
X98204485Y-100750000D01*
X98281727Y-100718005D01*
X98510535Y-100565120D01*
X98705120Y-100370535D01*
X98858005Y-100141727D01*
X98963314Y-99887490D01*
X99017000Y-99617592D01*
X99017000Y-99342408D01*
X98963314Y-99072510D01*
X98858005Y-98818273D01*
X98705120Y-98589465D01*
X98510535Y-98394880D01*
X98281727Y-98241995D01*
X98204485Y-98210000D01*
X98281727Y-98178005D01*
X98510535Y-98025120D01*
X98705120Y-97830535D01*
X98858005Y-97601727D01*
X98963314Y-97347490D01*
X99017000Y-97077592D01*
X99017000Y-96802408D01*
X98963314Y-96532510D01*
X98858005Y-96278273D01*
X98705120Y-96049465D01*
X98510535Y-95854880D01*
X98281727Y-95701995D01*
X98204485Y-95670000D01*
X98281727Y-95638005D01*
X98510535Y-95485120D01*
X98705120Y-95290535D01*
X98858005Y-95061727D01*
X98963314Y-94807490D01*
X99017000Y-94537592D01*
X99017000Y-94262408D01*
X98963314Y-93992510D01*
X98858005Y-93738273D01*
X98705120Y-93509465D01*
X98510535Y-93314880D01*
X98281727Y-93161995D01*
X98204485Y-93130000D01*
X98281727Y-93098005D01*
X98510535Y-92945120D01*
X98705120Y-92750535D01*
X98858005Y-92521727D01*
X98963314Y-92267490D01*
X99017000Y-91997592D01*
X99017000Y-91722408D01*
X98963314Y-91452510D01*
X98858005Y-91198273D01*
X98705120Y-90969465D01*
X98510535Y-90774880D01*
X98281727Y-90621995D01*
X98204485Y-90590000D01*
X98281727Y-90558005D01*
X98510535Y-90405120D01*
X98705120Y-90210535D01*
X98858005Y-89981727D01*
X98963314Y-89727490D01*
X99017000Y-89457592D01*
X99017000Y-89182408D01*
X98963314Y-88912510D01*
X98858005Y-88658273D01*
X98705120Y-88429465D01*
X98510535Y-88234880D01*
X98281727Y-88081995D01*
X98204485Y-88050000D01*
X98281727Y-88018005D01*
X98510535Y-87865120D01*
X98705120Y-87670535D01*
X98858005Y-87441727D01*
X98963314Y-87187490D01*
X99017000Y-86917592D01*
X99017000Y-86642408D01*
X98963314Y-86372510D01*
X98858005Y-86118273D01*
X98705120Y-85889465D01*
X98510535Y-85694880D01*
X98281727Y-85541995D01*
X98204485Y-85510000D01*
X98281727Y-85478005D01*
X98510535Y-85325120D01*
X98705120Y-85130535D01*
X98858005Y-84901727D01*
X98963314Y-84647490D01*
X99017000Y-84377592D01*
X99017000Y-84102408D01*
X98963314Y-83832510D01*
X98858005Y-83578273D01*
X98705120Y-83349465D01*
X98510535Y-83154880D01*
X98281727Y-83001995D01*
X98204485Y-82970000D01*
X98281727Y-82938005D01*
X98510535Y-82785120D01*
X98705120Y-82590535D01*
X98858005Y-82361727D01*
X98963314Y-82107490D01*
X99017000Y-81837592D01*
X99017000Y-81562408D01*
X98963314Y-81292510D01*
X98858005Y-81038273D01*
X98837110Y-81007001D01*
X99620677Y-81007001D01*
X99657999Y-81010677D01*
X99695321Y-81007001D01*
X99695332Y-81007001D01*
X99806985Y-80996004D01*
X99950246Y-80952547D01*
X100082275Y-80881975D01*
X100198000Y-80787002D01*
X100221803Y-80757998D01*
X107727403Y-73252399D01*
X107785000Y-73258072D01*
X108785000Y-73258072D01*
X108909482Y-73245812D01*
X109029180Y-73209502D01*
X109047000Y-73199977D01*
X109064820Y-73209502D01*
X109184518Y-73245812D01*
X109309000Y-73258072D01*
X110309000Y-73258072D01*
X110433482Y-73245812D01*
X110553180Y-73209502D01*
X110571000Y-73199977D01*
X110588820Y-73209502D01*
X110708518Y-73245812D01*
X110833000Y-73258072D01*
X111833000Y-73258072D01*
X111957482Y-73245812D01*
X112077180Y-73209502D01*
X112095000Y-73199977D01*
X112112820Y-73209502D01*
X112232518Y-73245812D01*
X112357000Y-73258072D01*
X113357000Y-73258072D01*
X113481482Y-73245812D01*
X113601180Y-73209502D01*
X113619000Y-73199977D01*
X113636820Y-73209502D01*
X113756518Y-73245812D01*
X113881000Y-73258072D01*
X114881000Y-73258072D01*
X115005482Y-73245812D01*
X115125180Y-73209502D01*
X115143000Y-73199977D01*
X115160820Y-73209502D01*
X115280518Y-73245812D01*
X115405000Y-73258072D01*
X116405000Y-73258072D01*
X116529482Y-73245812D01*
X116649180Y-73209502D01*
X116667000Y-73199977D01*
X116684820Y-73209502D01*
X116804518Y-73245812D01*
X116929000Y-73258072D01*
X117929000Y-73258072D01*
X118053482Y-73245812D01*
X118173180Y-73209502D01*
X118191000Y-73199977D01*
X118193001Y-73201046D01*
X118193001Y-73249288D01*
X118149063Y-73293226D01*
X118035795Y-73462744D01*
X117957774Y-73651102D01*
X117918000Y-73851061D01*
X117918000Y-74054939D01*
X117957774Y-74254898D01*
X118035795Y-74443256D01*
X118149063Y-74612774D01*
X118293226Y-74756937D01*
X118462744Y-74870205D01*
X118651102Y-74948226D01*
X118851061Y-74988000D01*
X119054939Y-74988000D01*
X119254898Y-74948226D01*
X119443256Y-74870205D01*
X119612774Y-74756937D01*
X119756937Y-74612774D01*
X119870205Y-74443256D01*
X119948226Y-74254898D01*
X119986696Y-74061497D01*
X120436200Y-74511002D01*
X120459999Y-74540001D01*
X120575724Y-74634974D01*
X120707753Y-74705546D01*
X120851014Y-74749003D01*
X120962667Y-74760000D01*
X120962675Y-74760000D01*
X121000000Y-74763676D01*
X121037325Y-74760000D01*
X122962678Y-74760000D01*
X123000000Y-74763676D01*
X123037322Y-74760000D01*
X123037333Y-74760000D01*
X123148986Y-74749003D01*
X123292247Y-74705546D01*
X123424276Y-74634974D01*
X123540001Y-74540001D01*
X123563804Y-74510998D01*
X124511004Y-73563798D01*
X124540001Y-73540001D01*
X124634974Y-73424276D01*
X124705546Y-73292247D01*
X124749003Y-73148986D01*
X124760000Y-73037333D01*
X124760000Y-73037332D01*
X124763677Y-73000000D01*
X124760000Y-72962667D01*
X124760000Y-63314801D01*
X129655800Y-58419002D01*
X129655804Y-58418997D01*
X130511004Y-57563798D01*
X130540001Y-57540001D01*
X130634974Y-57424276D01*
X130705546Y-57292247D01*
X130749003Y-57148986D01*
X130760000Y-57037333D01*
X130760000Y-57037332D01*
X130763677Y-57000000D01*
X130760000Y-56962667D01*
X130760000Y-55037322D01*
X130763676Y-54999999D01*
X130760000Y-54962676D01*
X130760000Y-54962667D01*
X130749003Y-54851014D01*
X130705546Y-54707753D01*
X130695354Y-54688686D01*
X130634974Y-54575723D01*
X130563799Y-54488997D01*
X130540001Y-54459999D01*
X130511003Y-54436201D01*
X128563804Y-52489003D01*
X128540001Y-52459999D01*
X128424276Y-52365026D01*
X128292247Y-52294454D01*
X128148986Y-52250997D01*
X128037333Y-52240000D01*
X128037322Y-52240000D01*
X128000000Y-52236324D01*
X127962678Y-52240000D01*
X88257322Y-52240000D01*
X88219999Y-52236324D01*
X88182676Y-52240000D01*
X88182667Y-52240000D01*
X88071014Y-52250997D01*
X87927753Y-52294454D01*
X87795724Y-52365026D01*
X87679999Y-52459999D01*
X87656201Y-52488997D01*
X83777000Y-56368199D01*
X83777000Y-56162408D01*
X83723314Y-55892510D01*
X83618005Y-55638273D01*
X83465120Y-55409465D01*
X83270535Y-55214880D01*
X83041727Y-55061995D01*
X82787490Y-54956686D01*
X82517592Y-54903000D01*
X82242408Y-54903000D01*
X81972510Y-54956686D01*
X81718273Y-55061995D01*
X81489465Y-55214880D01*
X81294880Y-55409465D01*
X81141995Y-55638273D01*
X81036686Y-55892510D01*
X80983000Y-56162408D01*
X80983000Y-56437592D01*
X81036686Y-56707490D01*
X81141995Y-56961727D01*
X81294880Y-57190535D01*
X81489465Y-57385120D01*
X81718273Y-57538005D01*
X81795515Y-57570000D01*
X81718273Y-57601995D01*
X81489465Y-57754880D01*
X81294880Y-57949465D01*
X81141995Y-58178273D01*
X81036686Y-58432510D01*
X80983000Y-58702408D01*
X80983000Y-58977592D01*
X81036686Y-59247490D01*
X81141995Y-59501727D01*
X81294880Y-59730535D01*
X81489465Y-59925120D01*
X81718273Y-60078005D01*
X81795515Y-60110000D01*
X81718273Y-60141995D01*
X81489465Y-60294880D01*
X81294880Y-60489465D01*
X81141995Y-60718273D01*
X81036686Y-60972510D01*
X80983000Y-61242408D01*
X80983000Y-61517592D01*
X81036686Y-61787490D01*
X81141995Y-62041727D01*
X81294880Y-62270535D01*
X81489465Y-62465120D01*
X81718273Y-62618005D01*
X81795515Y-62650000D01*
X81718273Y-62681995D01*
X81489465Y-62834880D01*
X81294880Y-63029465D01*
X81141995Y-63258273D01*
X81036686Y-63512510D01*
X80983000Y-63782408D01*
X80983000Y-64057592D01*
X81036686Y-64327490D01*
X81141995Y-64581727D01*
X81294880Y-64810535D01*
X81489465Y-65005120D01*
X81718273Y-65158005D01*
X81795515Y-65190000D01*
X81718273Y-65221995D01*
X81489465Y-65374880D01*
X81294880Y-65569465D01*
X81141995Y-65798273D01*
X81036686Y-66052510D01*
X80983000Y-66322408D01*
X80983000Y-66597592D01*
X81036686Y-66867490D01*
X81141995Y-67121727D01*
X81294880Y-67350535D01*
X81489465Y-67545120D01*
X81718273Y-67698005D01*
X81795515Y-67730000D01*
X81718273Y-67761995D01*
X81489465Y-67914880D01*
X81294880Y-68109465D01*
X81141995Y-68338273D01*
X81036686Y-68592510D01*
X80983000Y-68862408D01*
X80983000Y-69137592D01*
X81036686Y-69407490D01*
X81141995Y-69661727D01*
X81294880Y-69890535D01*
X81489465Y-70085120D01*
X81718273Y-70238005D01*
X81795515Y-70270000D01*
X81718273Y-70301995D01*
X81489465Y-70454880D01*
X81294880Y-70649465D01*
X81141995Y-70878273D01*
X81036686Y-71132510D01*
X80983000Y-71402408D01*
X80983000Y-71677592D01*
X81036686Y-71947490D01*
X81141995Y-72201727D01*
X81294880Y-72430535D01*
X81489465Y-72625120D01*
X81718273Y-72778005D01*
X81795515Y-72810000D01*
X81718273Y-72841995D01*
X81489465Y-72994880D01*
X81294880Y-73189465D01*
X81141995Y-73418273D01*
X81036686Y-73672510D01*
X80983000Y-73942408D01*
X80983000Y-74217592D01*
X81036686Y-74487490D01*
X81141995Y-74741727D01*
X81294880Y-74970535D01*
X81489465Y-75165120D01*
X81718273Y-75318005D01*
X81795515Y-75350000D01*
X81718273Y-75381995D01*
X81489465Y-75534880D01*
X81294880Y-75729465D01*
X81141995Y-75958273D01*
X81036686Y-76212510D01*
X80983000Y-76482408D01*
X80983000Y-76757592D01*
X81036686Y-77027490D01*
X81141995Y-77281727D01*
X81294880Y-77510535D01*
X81489465Y-77705120D01*
X81718273Y-77858005D01*
X81795515Y-77890000D01*
X81718273Y-77921995D01*
X81489465Y-78074880D01*
X81294880Y-78269465D01*
X81141995Y-78498273D01*
X81036686Y-78752510D01*
X80983000Y-79022408D01*
X80983000Y-79297592D01*
X81036686Y-79567490D01*
X81141995Y-79821727D01*
X81294880Y-80050535D01*
X81489465Y-80245120D01*
X81718273Y-80398005D01*
X81795515Y-80430000D01*
X81718273Y-80461995D01*
X81489465Y-80614880D01*
X81294880Y-80809465D01*
X81141995Y-81038273D01*
X81036686Y-81292510D01*
X80983000Y-81562408D01*
X80983000Y-81837592D01*
X81036686Y-82107490D01*
X81141995Y-82361727D01*
X81294880Y-82590535D01*
X81489465Y-82785120D01*
X81718273Y-82938005D01*
X81795515Y-82970000D01*
X81718273Y-83001995D01*
X81489465Y-83154880D01*
X81294880Y-83349465D01*
X81141995Y-83578273D01*
X81036686Y-83832510D01*
X80983000Y-84102408D01*
X80983000Y-84377592D01*
X81036686Y-84647490D01*
X81141995Y-84901727D01*
X81294880Y-85130535D01*
X81489465Y-85325120D01*
X81718273Y-85478005D01*
X81795515Y-85510000D01*
X81718273Y-85541995D01*
X81489465Y-85694880D01*
X81294880Y-85889465D01*
X81141995Y-86118273D01*
X81036686Y-86372510D01*
X80983000Y-86642408D01*
X80983000Y-86917592D01*
X81036686Y-87187490D01*
X81141995Y-87441727D01*
X81294880Y-87670535D01*
X81489465Y-87865120D01*
X81718273Y-88018005D01*
X81795515Y-88050000D01*
X81718273Y-88081995D01*
X81489465Y-88234880D01*
X81294880Y-88429465D01*
X81141995Y-88658273D01*
X81036686Y-88912510D01*
X80983000Y-89182408D01*
X80983000Y-89457592D01*
X81036686Y-89727490D01*
X81141995Y-89981727D01*
X81294880Y-90210535D01*
X81489465Y-90405120D01*
X81718273Y-90558005D01*
X81795515Y-90590000D01*
X81718273Y-90621995D01*
X81489465Y-90774880D01*
X81294880Y-90969465D01*
X81141995Y-91198273D01*
X81036686Y-91452510D01*
X80983000Y-91722408D01*
X80983000Y-91928199D01*
X79760000Y-90705199D01*
X79760000Y-56037325D01*
X79763676Y-56000000D01*
X79760000Y-55962675D01*
X79760000Y-55962667D01*
X79749003Y-55851014D01*
X79705546Y-55707753D01*
X79634974Y-55575724D01*
X79540001Y-55459999D01*
X79511004Y-55436202D01*
X76563804Y-52489003D01*
X76540001Y-52459999D01*
X76424276Y-52365026D01*
X76292247Y-52294454D01*
X76148986Y-52250997D01*
X76037333Y-52240000D01*
X76037322Y-52240000D01*
X76000000Y-52236324D01*
X75962678Y-52240000D01*
X67592322Y-52240000D01*
X67554999Y-52236324D01*
X67517676Y-52240000D01*
X67517667Y-52240000D01*
X67406014Y-52250997D01*
X67262753Y-52294454D01*
X67130724Y-52365026D01*
X67014999Y-52459999D01*
X66991201Y-52488997D01*
X64656571Y-54823628D01*
X64502592Y-54793000D01*
X64227408Y-54793000D01*
X63957510Y-54846686D01*
X63703273Y-54951995D01*
X63474465Y-55104880D01*
X63279880Y-55299465D01*
X63126995Y-55528273D01*
X63095000Y-55605515D01*
X63063005Y-55528273D01*
X62910120Y-55299465D01*
X62715535Y-55104880D01*
X62486727Y-54951995D01*
X62232490Y-54846686D01*
X61962592Y-54793000D01*
X61687408Y-54793000D01*
X61417510Y-54846686D01*
X61163273Y-54951995D01*
X60934465Y-55104880D01*
X60739880Y-55299465D01*
X60586995Y-55528273D01*
X60555000Y-55605515D01*
X60523005Y-55528273D01*
X60370120Y-55299465D01*
X60175535Y-55104880D01*
X59946727Y-54951995D01*
X59692490Y-54846686D01*
X59422592Y-54793000D01*
X59147408Y-54793000D01*
X58877510Y-54846686D01*
X58623273Y-54951995D01*
X58394465Y-55104880D01*
X58199880Y-55299465D01*
X58046995Y-55528273D01*
X57941686Y-55782510D01*
X57888000Y-56052408D01*
X57888000Y-56327592D01*
X57941686Y-56597490D01*
X58046995Y-56851727D01*
X58199880Y-57080535D01*
X58394465Y-57275120D01*
X58623273Y-57428005D01*
X58877510Y-57533314D01*
X59147408Y-57587000D01*
X59422592Y-57587000D01*
X59692490Y-57533314D01*
X59946727Y-57428005D01*
X60175535Y-57275120D01*
X60370120Y-57080535D01*
X60523005Y-56851727D01*
X60555000Y-56774485D01*
X60586995Y-56851727D01*
X60739880Y-57080535D01*
X60934465Y-57275120D01*
X61163273Y-57428005D01*
X61417510Y-57533314D01*
X61687408Y-57587000D01*
X61962592Y-57587000D01*
X62232490Y-57533314D01*
X62486727Y-57428005D01*
X62715535Y-57275120D01*
X62910120Y-57080535D01*
X63063005Y-56851727D01*
X63095000Y-56774485D01*
X63126995Y-56851727D01*
X63279880Y-57080535D01*
X63474465Y-57275120D01*
X63703273Y-57428005D01*
X63957510Y-57533314D01*
X64227408Y-57587000D01*
X64502592Y-57587000D01*
X64772490Y-57533314D01*
X65026727Y-57428005D01*
X65255535Y-57275120D01*
X65450120Y-57080535D01*
X65603005Y-56851727D01*
X65635000Y-56774485D01*
X65666995Y-56851727D01*
X65819880Y-57080535D01*
X66014465Y-57275120D01*
X66243273Y-57428005D01*
X66497510Y-57533314D01*
X66767408Y-57587000D01*
X67042592Y-57587000D01*
X67196570Y-57556372D01*
X67240000Y-57599802D01*
X67240000Y-57962667D01*
X67236323Y-58000000D01*
X67250997Y-58148986D01*
X67294454Y-58292247D01*
X67365026Y-58424276D01*
X67436200Y-58511002D01*
X67459999Y-58540001D01*
X67575724Y-58634974D01*
X67707753Y-58705546D01*
X67851014Y-58749003D01*
X68000000Y-58763677D01*
X68037333Y-58760000D01*
X73685199Y-58760000D01*
X75680001Y-60754803D01*
X75680000Y-90962678D01*
X75676324Y-91000000D01*
X75680000Y-91037322D01*
X75680000Y-91037332D01*
X75690997Y-91148985D01*
X75734454Y-91292246D01*
X75805026Y-91424276D01*
X75844871Y-91472826D01*
X75899999Y-91540001D01*
X75929003Y-91563804D01*
X81013628Y-96648430D01*
X80983000Y-96802408D01*
X80983000Y-97077592D01*
X81036686Y-97347490D01*
X81141995Y-97601727D01*
X81294880Y-97830535D01*
X81489465Y-98025120D01*
X81718273Y-98178005D01*
X81795515Y-98210000D01*
X81718273Y-98241995D01*
X81489465Y-98394880D01*
X81294880Y-98589465D01*
X81141995Y-98818273D01*
X81036686Y-99072510D01*
X80983000Y-99342408D01*
X80983000Y-99617592D01*
X81036686Y-99887490D01*
X81141995Y-100141727D01*
X81294880Y-100370535D01*
X81489465Y-100565120D01*
X81718273Y-100718005D01*
X81795515Y-100750000D01*
X81718273Y-100781995D01*
X81489465Y-100934880D01*
X81294880Y-101129465D01*
X81141995Y-101358273D01*
X81036686Y-101612510D01*
X80983000Y-101882408D01*
X80983000Y-102157592D01*
X81036686Y-102427490D01*
X81141995Y-102681727D01*
X81294880Y-102910535D01*
X81489465Y-103105120D01*
X81718273Y-103258005D01*
X81795515Y-103290000D01*
X81718273Y-103321995D01*
X81489465Y-103474880D01*
X81294880Y-103669465D01*
X81141995Y-103898273D01*
X81036686Y-104152510D01*
X80983000Y-104422408D01*
X80983000Y-104628198D01*
X75843804Y-99489003D01*
X75820001Y-99459999D01*
X75760000Y-99410757D01*
X75760000Y-92037322D01*
X75763676Y-91999999D01*
X75760000Y-91962676D01*
X75760000Y-91962667D01*
X75749003Y-91851014D01*
X75705546Y-91707753D01*
X75634974Y-91575724D01*
X75605657Y-91540001D01*
X75563799Y-91488996D01*
X75563795Y-91488992D01*
X75540001Y-91459999D01*
X75511008Y-91436205D01*
X60563804Y-76489003D01*
X60540001Y-76459999D01*
X60424276Y-76365026D01*
X60292247Y-76294454D01*
X60148986Y-76250997D01*
X60037333Y-76240000D01*
X60037322Y-76240000D01*
X60000000Y-76236324D01*
X59962678Y-76240000D01*
X56314802Y-76240000D01*
X52293804Y-72219003D01*
X52270001Y-72189999D01*
X52154276Y-72095026D01*
X52022247Y-72024454D01*
X51878986Y-71980997D01*
X51767333Y-71970000D01*
X51767322Y-71970000D01*
X51730000Y-71966324D01*
X51692678Y-71970000D01*
X47172341Y-71970000D01*
X47085120Y-71839465D01*
X46890535Y-71644880D01*
X46661727Y-71491995D01*
X46590057Y-71462308D01*
X46603023Y-71457636D01*
X46718980Y-71395656D01*
X46785960Y-71155565D01*
X46000000Y-70369605D01*
X45214040Y-71155565D01*
X45281020Y-71395656D01*
X45416760Y-71459485D01*
X45338273Y-71491995D01*
X45109465Y-71644880D01*
X44914880Y-71839465D01*
X44761995Y-72068273D01*
X44656686Y-72322510D01*
X44603000Y-72592408D01*
X41127000Y-72592408D01*
X41127000Y-70262017D01*
X44598090Y-70262017D01*
X44639078Y-70534133D01*
X44732364Y-70793023D01*
X44794344Y-70908980D01*
X45034435Y-70975960D01*
X45820395Y-70190000D01*
X46179605Y-70190000D01*
X46965565Y-70975960D01*
X47205656Y-70908980D01*
X47322756Y-70659952D01*
X47389023Y-70392865D01*
X47401910Y-70117983D01*
X47360922Y-69845867D01*
X47267636Y-69586977D01*
X47205656Y-69471020D01*
X46965565Y-69404040D01*
X46179605Y-70190000D01*
X45820395Y-70190000D01*
X45034435Y-69404040D01*
X44794344Y-69471020D01*
X44677244Y-69720048D01*
X44610977Y-69987135D01*
X44598090Y-70262017D01*
X41127000Y-70262017D01*
X41127000Y-69224435D01*
X45214040Y-69224435D01*
X46000000Y-70010395D01*
X46785960Y-69224435D01*
X46718980Y-68984344D01*
X46469952Y-68867244D01*
X46202865Y-68800977D01*
X45927983Y-68788090D01*
X45655867Y-68829078D01*
X45396977Y-68922364D01*
X45281020Y-68984344D01*
X45214040Y-69224435D01*
X41127000Y-69224435D01*
X41127000Y-51127000D01*
X138873000Y-51127000D01*
X138873000Y-148873000D01*
%TA.AperFunction,Conductor*%
D17*
G36*
X138873000Y-148873000D02*
G01*
X41127000Y-148873000D01*
X41127000Y-144965565D01*
X85404040Y-144965565D01*
X85471020Y-145205656D01*
X85720048Y-145322756D01*
X85987135Y-145389023D01*
X86262017Y-145401910D01*
X86534133Y-145360922D01*
X86793023Y-145267636D01*
X86908980Y-145205656D01*
X86975960Y-144965565D01*
X86190000Y-144179605D01*
X85404040Y-144965565D01*
X41127000Y-144965565D01*
X41127000Y-144072017D01*
X84788090Y-144072017D01*
X84829078Y-144344133D01*
X84922364Y-144603023D01*
X84984344Y-144718980D01*
X85224435Y-144785960D01*
X86010395Y-144000000D01*
X85224435Y-143214040D01*
X84984344Y-143281020D01*
X84867244Y-143530048D01*
X84800977Y-143797135D01*
X84788090Y-144072017D01*
X41127000Y-144072017D01*
X41127000Y-143034435D01*
X85404040Y-143034435D01*
X86190000Y-143820395D01*
X86975960Y-143034435D01*
X86908980Y-142794344D01*
X86659952Y-142677244D01*
X86392865Y-142610977D01*
X86117983Y-142598090D01*
X85845867Y-142639078D01*
X85586977Y-142732364D01*
X85471020Y-142794344D01*
X85404040Y-143034435D01*
X41127000Y-143034435D01*
X41127000Y-122262017D01*
X44598090Y-122262017D01*
X44639078Y-122534133D01*
X44732364Y-122793023D01*
X44794344Y-122908980D01*
X45034435Y-122975960D01*
X45820395Y-122190000D01*
X45034435Y-121404040D01*
X44794344Y-121471020D01*
X44677244Y-121720048D01*
X44610977Y-121987135D01*
X44598090Y-122262017D01*
X41127000Y-122262017D01*
X41127000Y-121224435D01*
X45214040Y-121224435D01*
X46000000Y-122010395D01*
X46785960Y-121224435D01*
X46718980Y-120984344D01*
X46469952Y-120867244D01*
X46202865Y-120800977D01*
X45927983Y-120788090D01*
X45655867Y-120829078D01*
X45396977Y-120922364D01*
X45281020Y-120984344D01*
X45214040Y-121224435D01*
X41127000Y-121224435D01*
X41127000Y-104018665D01*
X57565000Y-104018665D01*
X57565000Y-104301335D01*
X57620147Y-104578574D01*
X57728320Y-104839727D01*
X57885363Y-105074759D01*
X58085241Y-105274637D01*
X58320273Y-105431680D01*
X58581426Y-105539853D01*
X58858665Y-105595000D01*
X59141335Y-105595000D01*
X59418574Y-105539853D01*
X59679727Y-105431680D01*
X59914759Y-105274637D01*
X60114637Y-105074759D01*
X60271680Y-104839727D01*
X60379853Y-104578574D01*
X60435000Y-104301335D01*
X60435000Y-104018665D01*
X60379853Y-103741426D01*
X60271680Y-103480273D01*
X60114637Y-103245241D01*
X59914759Y-103045363D01*
X59679727Y-102888320D01*
X59418574Y-102780147D01*
X59141335Y-102725000D01*
X58858665Y-102725000D01*
X58581426Y-102780147D01*
X58320273Y-102888320D01*
X58085241Y-103045363D01*
X57885363Y-103245241D01*
X57728320Y-103480273D01*
X57620147Y-103741426D01*
X57565000Y-104018665D01*
X41127000Y-104018665D01*
X41127000Y-93858665D01*
X57565000Y-93858665D01*
X57565000Y-94141335D01*
X57620147Y-94418574D01*
X57728320Y-94679727D01*
X57885363Y-94914759D01*
X58085241Y-95114637D01*
X58320273Y-95271680D01*
X58581426Y-95379853D01*
X58858665Y-95435000D01*
X59141335Y-95435000D01*
X59418574Y-95379853D01*
X59679727Y-95271680D01*
X59914759Y-95114637D01*
X60114637Y-94914759D01*
X60271680Y-94679727D01*
X60379853Y-94418574D01*
X60435000Y-94141335D01*
X60435000Y-93858665D01*
X60379853Y-93581426D01*
X60271680Y-93320273D01*
X60114637Y-93085241D01*
X59914759Y-92885363D01*
X59679727Y-92728320D01*
X59418574Y-92620147D01*
X59141335Y-92565000D01*
X58858665Y-92565000D01*
X58581426Y-92620147D01*
X58320273Y-92728320D01*
X58085241Y-92885363D01*
X57885363Y-93085241D01*
X57728320Y-93320273D01*
X57620147Y-93581426D01*
X57565000Y-93858665D01*
X41127000Y-93858665D01*
X41127000Y-90018665D01*
X57565000Y-90018665D01*
X57565000Y-90301335D01*
X57620147Y-90578574D01*
X57728320Y-90839727D01*
X57885363Y-91074759D01*
X58085241Y-91274637D01*
X58320273Y-91431680D01*
X58581426Y-91539853D01*
X58858665Y-91595000D01*
X59141335Y-91595000D01*
X59418574Y-91539853D01*
X59679727Y-91431680D01*
X59914759Y-91274637D01*
X60114637Y-91074759D01*
X60271680Y-90839727D01*
X60379853Y-90578574D01*
X60435000Y-90301335D01*
X60435000Y-90018665D01*
X60379853Y-89741426D01*
X60271680Y-89480273D01*
X60114637Y-89245241D01*
X59914759Y-89045363D01*
X59679727Y-88888320D01*
X59418574Y-88780147D01*
X59141335Y-88725000D01*
X58858665Y-88725000D01*
X58581426Y-88780147D01*
X58320273Y-88888320D01*
X58085241Y-89045363D01*
X57885363Y-89245241D01*
X57728320Y-89480273D01*
X57620147Y-89741426D01*
X57565000Y-90018665D01*
X41127000Y-90018665D01*
X41127000Y-72592408D01*
X44603000Y-72592408D01*
X44603000Y-72867592D01*
X44656686Y-73137490D01*
X44761995Y-73391727D01*
X44914880Y-73620535D01*
X45109465Y-73815120D01*
X45338273Y-73968005D01*
X45415515Y-74000000D01*
X45338273Y-74031995D01*
X45109465Y-74184880D01*
X44914880Y-74379465D01*
X44761995Y-74608273D01*
X44656686Y-74862510D01*
X44603000Y-75132408D01*
X44603000Y-75407592D01*
X44656686Y-75677490D01*
X44761995Y-75931727D01*
X44914880Y-76160535D01*
X45109465Y-76355120D01*
X45338273Y-76508005D01*
X45415515Y-76540000D01*
X45338273Y-76571995D01*
X45109465Y-76724880D01*
X44914880Y-76919465D01*
X44761995Y-77148273D01*
X44656686Y-77402510D01*
X44603000Y-77672408D01*
X44603000Y-77947592D01*
X44656686Y-78217490D01*
X44761995Y-78471727D01*
X44914880Y-78700535D01*
X45109465Y-78895120D01*
X45338273Y-79048005D01*
X45592510Y-79153314D01*
X45862408Y-79207000D01*
X46137592Y-79207000D01*
X46407490Y-79153314D01*
X46661727Y-79048005D01*
X46890535Y-78895120D01*
X47085120Y-78700535D01*
X47238005Y-78471727D01*
X47343314Y-78217490D01*
X47397000Y-77947592D01*
X47397000Y-77672408D01*
X47343314Y-77402510D01*
X47238005Y-77148273D01*
X47085120Y-76919465D01*
X46890535Y-76724880D01*
X46661727Y-76571995D01*
X46584485Y-76540000D01*
X46661727Y-76508005D01*
X46890535Y-76355120D01*
X47085120Y-76160535D01*
X47172341Y-76030000D01*
X50955199Y-76030000D01*
X55436201Y-80511003D01*
X55459999Y-80540001D01*
X55488997Y-80563799D01*
X55575723Y-80634974D01*
X55707753Y-80705546D01*
X55851014Y-80749003D01*
X55962667Y-80760000D01*
X55962676Y-80760000D01*
X55999999Y-80763676D01*
X56037322Y-80760000D01*
X57781957Y-80760000D01*
X57885363Y-80914759D01*
X58085241Y-81114637D01*
X58320273Y-81271680D01*
X58581426Y-81379853D01*
X58858665Y-81435000D01*
X59141335Y-81435000D01*
X59418574Y-81379853D01*
X59679727Y-81271680D01*
X59914759Y-81114637D01*
X60114637Y-80914759D01*
X60271680Y-80679727D01*
X60379853Y-80418574D01*
X60435000Y-80141335D01*
X60435000Y-79858665D01*
X60379853Y-79581426D01*
X60271680Y-79320273D01*
X60114637Y-79085241D01*
X59914759Y-78885363D01*
X59679727Y-78728320D01*
X59418574Y-78620147D01*
X59141335Y-78565000D01*
X58858665Y-78565000D01*
X58581426Y-78620147D01*
X58320273Y-78728320D01*
X58085241Y-78885363D01*
X57885363Y-79085241D01*
X57781957Y-79240000D01*
X56314802Y-79240000D01*
X51833804Y-74759003D01*
X51810001Y-74729999D01*
X51694276Y-74635026D01*
X51562247Y-74564454D01*
X51418986Y-74520997D01*
X51307333Y-74510000D01*
X51307322Y-74510000D01*
X51270000Y-74506324D01*
X51232678Y-74510000D01*
X47172341Y-74510000D01*
X47085120Y-74379465D01*
X46890535Y-74184880D01*
X46661727Y-74031995D01*
X46584485Y-74000000D01*
X46661727Y-73968005D01*
X46890535Y-73815120D01*
X47085120Y-73620535D01*
X47172341Y-73490000D01*
X51415199Y-73490000D01*
X55436200Y-77511002D01*
X55459999Y-77540001D01*
X55488997Y-77563799D01*
X55575723Y-77634974D01*
X55645757Y-77672408D01*
X55707753Y-77705546D01*
X55851014Y-77749003D01*
X55962667Y-77760000D01*
X55962677Y-77760000D01*
X56000000Y-77763676D01*
X56037323Y-77760000D01*
X59685199Y-77760000D01*
X74240001Y-92314804D01*
X74240000Y-99962667D01*
X74236323Y-100000000D01*
X74250997Y-100148986D01*
X74294454Y-100292247D01*
X74365026Y-100424276D01*
X74436200Y-100511002D01*
X74459999Y-100540001D01*
X74575724Y-100634974D01*
X74707753Y-100705546D01*
X74851014Y-100749003D01*
X74965476Y-100760277D01*
X81013628Y-106808430D01*
X80983000Y-106962408D01*
X80983000Y-107237592D01*
X81036686Y-107507490D01*
X81141995Y-107761727D01*
X81294880Y-107990535D01*
X81489465Y-108185120D01*
X81718273Y-108338005D01*
X81795515Y-108370000D01*
X81718273Y-108401995D01*
X81489465Y-108554880D01*
X81294880Y-108749465D01*
X81141995Y-108978273D01*
X81036686Y-109232510D01*
X80983000Y-109502408D01*
X80983000Y-109777592D01*
X81036686Y-110047490D01*
X81141995Y-110301727D01*
X81294880Y-110530535D01*
X81489465Y-110725120D01*
X81718273Y-110878005D01*
X81795515Y-110910000D01*
X81718273Y-110941995D01*
X81489465Y-111094880D01*
X81294880Y-111289465D01*
X81207659Y-111420000D01*
X54857322Y-111420000D01*
X54819999Y-111416324D01*
X54782676Y-111420000D01*
X54782667Y-111420000D01*
X54671014Y-111430997D01*
X54527753Y-111474454D01*
X54395724Y-111545026D01*
X54279999Y-111639999D01*
X54256201Y-111668997D01*
X51488998Y-114436201D01*
X51460000Y-114459999D01*
X51436202Y-114488997D01*
X51436201Y-114488998D01*
X51365026Y-114575724D01*
X51294454Y-114707754D01*
X51250998Y-114851015D01*
X51236324Y-115000000D01*
X51240001Y-115037332D01*
X51240000Y-118415197D01*
X47395255Y-122259944D01*
X47401910Y-122117983D01*
X47360922Y-121845867D01*
X47267636Y-121586977D01*
X47205656Y-121471020D01*
X46965565Y-121404040D01*
X46179605Y-122190000D01*
X46193748Y-122204143D01*
X46014143Y-122383748D01*
X46000000Y-122369605D01*
X45214040Y-123155565D01*
X45281020Y-123395656D01*
X45416760Y-123459485D01*
X45338273Y-123491995D01*
X45109465Y-123644880D01*
X44914880Y-123839465D01*
X44761995Y-124068273D01*
X44656686Y-124322510D01*
X44603000Y-124592408D01*
X44603000Y-124867592D01*
X44656686Y-125137490D01*
X44761995Y-125391727D01*
X44914880Y-125620535D01*
X45109465Y-125815120D01*
X45338273Y-125968005D01*
X45415515Y-126000000D01*
X45338273Y-126031995D01*
X45109465Y-126184880D01*
X44914880Y-126379465D01*
X44761995Y-126608273D01*
X44656686Y-126862510D01*
X44603000Y-127132408D01*
X44603000Y-127407592D01*
X44656686Y-127677490D01*
X44761995Y-127931727D01*
X44914880Y-128160535D01*
X45109465Y-128355120D01*
X45338273Y-128508005D01*
X45415515Y-128540000D01*
X45338273Y-128571995D01*
X45109465Y-128724880D01*
X44914880Y-128919465D01*
X44761995Y-129148273D01*
X44656686Y-129402510D01*
X44603000Y-129672408D01*
X44603000Y-129947592D01*
X44656686Y-130217490D01*
X44761995Y-130471727D01*
X44914880Y-130700535D01*
X45109465Y-130895120D01*
X45338273Y-131048005D01*
X45592510Y-131153314D01*
X45862408Y-131207000D01*
X46137592Y-131207000D01*
X46407490Y-131153314D01*
X46661727Y-131048005D01*
X46890535Y-130895120D01*
X47085120Y-130700535D01*
X47238005Y-130471727D01*
X47343314Y-130217490D01*
X47397000Y-129947592D01*
X47397000Y-129672408D01*
X47343314Y-129402510D01*
X47238005Y-129148273D01*
X47085120Y-128919465D01*
X46890535Y-128724880D01*
X46661727Y-128571995D01*
X46584485Y-128540000D01*
X46661727Y-128508005D01*
X46890535Y-128355120D01*
X47085120Y-128160535D01*
X47172341Y-128030000D01*
X47955199Y-128030000D01*
X57601312Y-137676114D01*
X57565000Y-137858665D01*
X57565000Y-138141335D01*
X57620147Y-138418574D01*
X57728320Y-138679727D01*
X57885363Y-138914759D01*
X58085241Y-139114637D01*
X58320273Y-139271680D01*
X58581426Y-139379853D01*
X58858665Y-139435000D01*
X59141335Y-139435000D01*
X59418574Y-139379853D01*
X59679727Y-139271680D01*
X59914759Y-139114637D01*
X60114637Y-138914759D01*
X60271680Y-138679727D01*
X60379853Y-138418574D01*
X60435000Y-138141335D01*
X60435000Y-137858665D01*
X60379853Y-137581426D01*
X60271680Y-137320273D01*
X60114637Y-137085241D01*
X59914759Y-136885363D01*
X59679727Y-136728320D01*
X59418574Y-136620147D01*
X59141335Y-136565000D01*
X58858665Y-136565000D01*
X58676114Y-136601312D01*
X57933467Y-135858665D01*
X76565000Y-135858665D01*
X76565000Y-136141335D01*
X76620147Y-136418574D01*
X76728320Y-136679727D01*
X76885363Y-136914759D01*
X77085241Y-137114637D01*
X77320273Y-137271680D01*
X77581426Y-137379853D01*
X77858665Y-137435000D01*
X78141335Y-137435000D01*
X78418574Y-137379853D01*
X78679727Y-137271680D01*
X78914759Y-137114637D01*
X79114637Y-136914759D01*
X79271680Y-136679727D01*
X79379853Y-136418574D01*
X79435000Y-136141335D01*
X79435000Y-135858665D01*
X79379853Y-135581426D01*
X79271680Y-135320273D01*
X79114637Y-135085241D01*
X78914759Y-134885363D01*
X78679727Y-134728320D01*
X78418574Y-134620147D01*
X78141335Y-134565000D01*
X77858665Y-134565000D01*
X77581426Y-134620147D01*
X77320273Y-134728320D01*
X77085241Y-134885363D01*
X76885363Y-135085241D01*
X76728320Y-135320273D01*
X76620147Y-135581426D01*
X76565000Y-135858665D01*
X57933467Y-135858665D01*
X49773467Y-127698665D01*
X57565000Y-127698665D01*
X57565000Y-127981335D01*
X57620147Y-128258574D01*
X57728320Y-128519727D01*
X57885363Y-128754759D01*
X58085241Y-128954637D01*
X58320273Y-129111680D01*
X58581426Y-129219853D01*
X58858665Y-129275000D01*
X59141335Y-129275000D01*
X59418574Y-129219853D01*
X59679727Y-129111680D01*
X59914759Y-128954637D01*
X60114637Y-128754759D01*
X60271680Y-128519727D01*
X60379853Y-128258574D01*
X60435000Y-127981335D01*
X60435000Y-127698665D01*
X60379853Y-127421426D01*
X60271680Y-127160273D01*
X60114637Y-126925241D01*
X59914759Y-126725363D01*
X59679727Y-126568320D01*
X59418574Y-126460147D01*
X59141335Y-126405000D01*
X58858665Y-126405000D01*
X58581426Y-126460147D01*
X58320273Y-126568320D01*
X58085241Y-126725363D01*
X57885363Y-126925241D01*
X57728320Y-127160273D01*
X57620147Y-127421426D01*
X57565000Y-127698665D01*
X49773467Y-127698665D01*
X48833804Y-126759003D01*
X48810001Y-126729999D01*
X48694276Y-126635026D01*
X48562247Y-126564454D01*
X48418986Y-126520997D01*
X48307333Y-126510000D01*
X48307322Y-126510000D01*
X48270000Y-126506324D01*
X48232678Y-126510000D01*
X47172341Y-126510000D01*
X47085120Y-126379465D01*
X46890535Y-126184880D01*
X46661727Y-126031995D01*
X46584485Y-126000000D01*
X46661727Y-125968005D01*
X46890535Y-125815120D01*
X47085120Y-125620535D01*
X47238005Y-125391727D01*
X47343314Y-125137490D01*
X47397000Y-124867592D01*
X47397000Y-124592408D01*
X47366372Y-124438429D01*
X47946136Y-123858665D01*
X57565000Y-123858665D01*
X57565000Y-124141335D01*
X57620147Y-124418574D01*
X57728320Y-124679727D01*
X57885363Y-124914759D01*
X58085241Y-125114637D01*
X58320273Y-125271680D01*
X58581426Y-125379853D01*
X58858665Y-125435000D01*
X59141335Y-125435000D01*
X59418574Y-125379853D01*
X59679727Y-125271680D01*
X59914759Y-125114637D01*
X60114637Y-124914759D01*
X60271680Y-124679727D01*
X60379853Y-124418574D01*
X60435000Y-124141335D01*
X60435000Y-123858665D01*
X60379853Y-123581426D01*
X60271680Y-123320273D01*
X60114637Y-123085241D01*
X59914759Y-122885363D01*
X59679727Y-122728320D01*
X59418574Y-122620147D01*
X59141335Y-122565000D01*
X58858665Y-122565000D01*
X58581426Y-122620147D01*
X58320273Y-122728320D01*
X58085241Y-122885363D01*
X57885363Y-123085241D01*
X57728320Y-123320273D01*
X57620147Y-123581426D01*
X57565000Y-123858665D01*
X47946136Y-123858665D01*
X52511009Y-119293794D01*
X52540001Y-119270001D01*
X52563795Y-119241008D01*
X52563799Y-119241004D01*
X52634973Y-119154277D01*
X52634974Y-119154276D01*
X52705546Y-119022247D01*
X52749003Y-118878986D01*
X52760000Y-118767333D01*
X52760000Y-118767324D01*
X52763676Y-118730001D01*
X52760000Y-118692678D01*
X52760000Y-115314801D01*
X55134802Y-112940000D01*
X57875501Y-112940000D01*
X57728320Y-113160273D01*
X57620147Y-113421426D01*
X57565000Y-113698665D01*
X57565000Y-113981335D01*
X57620147Y-114258574D01*
X57728320Y-114519727D01*
X57885363Y-114754759D01*
X58085241Y-114954637D01*
X58320273Y-115111680D01*
X58581426Y-115219853D01*
X58858665Y-115275000D01*
X59141335Y-115275000D01*
X59418574Y-115219853D01*
X59679727Y-115111680D01*
X59914759Y-114954637D01*
X60114637Y-114754759D01*
X60271680Y-114519727D01*
X60379853Y-114258574D01*
X60435000Y-113981335D01*
X60435000Y-113698665D01*
X60379853Y-113421426D01*
X60271680Y-113160273D01*
X60124499Y-112940000D01*
X81207659Y-112940000D01*
X81294880Y-113070535D01*
X81489465Y-113265120D01*
X81718273Y-113418005D01*
X81795515Y-113450000D01*
X81718273Y-113481995D01*
X81489465Y-113634880D01*
X81294880Y-113829465D01*
X81141995Y-114058273D01*
X81036686Y-114312510D01*
X80983000Y-114582408D01*
X80983000Y-114857592D01*
X81036686Y-115127490D01*
X81141995Y-115381727D01*
X81294880Y-115610535D01*
X81489465Y-115805120D01*
X81718273Y-115958005D01*
X81972510Y-116063314D01*
X82242408Y-116117000D01*
X82517592Y-116117000D01*
X82787490Y-116063314D01*
X83041727Y-115958005D01*
X83270535Y-115805120D01*
X83465120Y-115610535D01*
X83618005Y-115381727D01*
X83723314Y-115127490D01*
X83777000Y-114857592D01*
X83777000Y-114582408D01*
X83723314Y-114312510D01*
X83618005Y-114058273D01*
X83465120Y-113829465D01*
X83270535Y-113634880D01*
X83041727Y-113481995D01*
X82964485Y-113450000D01*
X83041727Y-113418005D01*
X83270535Y-113265120D01*
X83465120Y-113070535D01*
X83618005Y-112841727D01*
X83723314Y-112587490D01*
X83777000Y-112317592D01*
X83777000Y-112042408D01*
X83723314Y-111772510D01*
X83618005Y-111518273D01*
X83465120Y-111289465D01*
X83270535Y-111094880D01*
X83041727Y-110941995D01*
X82964485Y-110910000D01*
X83041727Y-110878005D01*
X83270535Y-110725120D01*
X83465120Y-110530535D01*
X83618005Y-110301727D01*
X83723314Y-110047490D01*
X83777000Y-109777592D01*
X83777000Y-109502408D01*
X83723314Y-109232510D01*
X83618005Y-108978273D01*
X83465120Y-108749465D01*
X83270535Y-108554880D01*
X83041727Y-108401995D01*
X82964485Y-108370000D01*
X83041727Y-108338005D01*
X83270535Y-108185120D01*
X83465120Y-107990535D01*
X83618005Y-107761727D01*
X83723314Y-107507490D01*
X83777000Y-107237592D01*
X83777000Y-106962408D01*
X83723314Y-106692510D01*
X83618005Y-106438273D01*
X83465120Y-106209465D01*
X83270535Y-106014880D01*
X83041727Y-105861995D01*
X82964485Y-105830000D01*
X83041727Y-105798005D01*
X83270535Y-105645120D01*
X83465120Y-105450535D01*
X83618005Y-105221727D01*
X83723314Y-104967490D01*
X83777000Y-104697592D01*
X83777000Y-104422408D01*
X83723314Y-104152510D01*
X83618005Y-103898273D01*
X83465120Y-103669465D01*
X83270535Y-103474880D01*
X83041727Y-103321995D01*
X82964485Y-103290000D01*
X83041727Y-103258005D01*
X83270535Y-103105120D01*
X83465120Y-102910535D01*
X83618005Y-102681727D01*
X83650000Y-102604485D01*
X83681995Y-102681727D01*
X83834880Y-102910535D01*
X84029465Y-103105120D01*
X84258273Y-103258005D01*
X84512510Y-103363314D01*
X84782408Y-103417000D01*
X85057592Y-103417000D01*
X85327490Y-103363314D01*
X85581727Y-103258005D01*
X85810535Y-103105120D01*
X86005120Y-102910535D01*
X86158005Y-102681727D01*
X86190000Y-102604485D01*
X86221995Y-102681727D01*
X86374880Y-102910535D01*
X86569465Y-103105120D01*
X86798273Y-103258005D01*
X87052510Y-103363314D01*
X87322408Y-103417000D01*
X87597592Y-103417000D01*
X87867490Y-103363314D01*
X88121727Y-103258005D01*
X88350535Y-103105120D01*
X88545120Y-102910535D01*
X88698005Y-102681727D01*
X88730000Y-102604485D01*
X88761995Y-102681727D01*
X88914880Y-102910535D01*
X89109465Y-103105120D01*
X89338273Y-103258005D01*
X89592510Y-103363314D01*
X89862408Y-103417000D01*
X90137592Y-103417000D01*
X90407490Y-103363314D01*
X90661727Y-103258005D01*
X90890535Y-103105120D01*
X91085120Y-102910535D01*
X91238005Y-102681727D01*
X91270000Y-102604485D01*
X91301995Y-102681727D01*
X91454880Y-102910535D01*
X91649465Y-103105120D01*
X91878273Y-103258005D01*
X92132510Y-103363314D01*
X92402408Y-103417000D01*
X92677592Y-103417000D01*
X92947490Y-103363314D01*
X93201727Y-103258005D01*
X93430535Y-103105120D01*
X93625120Y-102910535D01*
X93778005Y-102681727D01*
X93810000Y-102604485D01*
X93841995Y-102681727D01*
X93994880Y-102910535D01*
X94189465Y-103105120D01*
X94418273Y-103258005D01*
X94672510Y-103363314D01*
X94942408Y-103417000D01*
X95217592Y-103417000D01*
X95487490Y-103363314D01*
X95741727Y-103258005D01*
X95970535Y-103105120D01*
X96165120Y-102910535D01*
X96318005Y-102681727D01*
X96350000Y-102604485D01*
X96381995Y-102681727D01*
X96534880Y-102910535D01*
X96729465Y-103105120D01*
X96958273Y-103258005D01*
X97035515Y-103290000D01*
X96958273Y-103321995D01*
X96729465Y-103474880D01*
X96534880Y-103669465D01*
X96381995Y-103898273D01*
X96276686Y-104152510D01*
X96223000Y-104422408D01*
X96223000Y-104697592D01*
X96276686Y-104967490D01*
X96381995Y-105221727D01*
X96534880Y-105450535D01*
X96729465Y-105645120D01*
X96958273Y-105798005D01*
X97035515Y-105830000D01*
X96958273Y-105861995D01*
X96729465Y-106014880D01*
X96534880Y-106209465D01*
X96381995Y-106438273D01*
X96276686Y-106692510D01*
X96223000Y-106962408D01*
X96223000Y-107237592D01*
X96276686Y-107507490D01*
X96381995Y-107761727D01*
X96534880Y-107990535D01*
X96729465Y-108185120D01*
X96958273Y-108338005D01*
X97035515Y-108370000D01*
X96958273Y-108401995D01*
X96729465Y-108554880D01*
X96534880Y-108749465D01*
X96381995Y-108978273D01*
X96276686Y-109232510D01*
X96223000Y-109502408D01*
X96223000Y-109777592D01*
X96276686Y-110047490D01*
X96381995Y-110301727D01*
X96534880Y-110530535D01*
X96729465Y-110725120D01*
X96958273Y-110878005D01*
X97035515Y-110910000D01*
X96958273Y-110941995D01*
X96729465Y-111094880D01*
X96534880Y-111289465D01*
X96381995Y-111518273D01*
X96276686Y-111772510D01*
X96223000Y-112042408D01*
X96223000Y-112317592D01*
X96276686Y-112587490D01*
X96381995Y-112841727D01*
X96534880Y-113070535D01*
X96729465Y-113265120D01*
X96958273Y-113418005D01*
X97035515Y-113450000D01*
X96958273Y-113481995D01*
X96729465Y-113634880D01*
X96534880Y-113829465D01*
X96381995Y-114058273D01*
X96276686Y-114312510D01*
X96223000Y-114582408D01*
X96223000Y-114857592D01*
X96253628Y-115011570D01*
X89488998Y-121776201D01*
X89460000Y-121799999D01*
X89436202Y-121828997D01*
X89436201Y-121828998D01*
X89365026Y-121915724D01*
X89294454Y-122047754D01*
X89250998Y-122191015D01*
X89236324Y-122340000D01*
X89240001Y-122377332D01*
X89240000Y-135050604D01*
X89074759Y-134885363D01*
X88839727Y-134728320D01*
X88578574Y-134620147D01*
X88301335Y-134565000D01*
X88018665Y-134565000D01*
X87741426Y-134620147D01*
X87480273Y-134728320D01*
X87245241Y-134885363D01*
X87045363Y-135085241D01*
X86888320Y-135320273D01*
X86780147Y-135581426D01*
X86725000Y-135858665D01*
X86725000Y-136141335D01*
X86780147Y-136418574D01*
X86888320Y-136679727D01*
X87045363Y-136914759D01*
X87245241Y-137114637D01*
X87480273Y-137271680D01*
X87741426Y-137379853D01*
X87989153Y-137429130D01*
X87980998Y-137456012D01*
X87970317Y-137564454D01*
X87966324Y-137604998D01*
X87970001Y-137642330D01*
X87970000Y-142827659D01*
X87839465Y-142914880D01*
X87644880Y-143109465D01*
X87491995Y-143338273D01*
X87462308Y-143409943D01*
X87457636Y-143396977D01*
X87395656Y-143281020D01*
X87155565Y-143214040D01*
X86369605Y-144000000D01*
X87155565Y-144785960D01*
X87395656Y-144718980D01*
X87459485Y-144583240D01*
X87491995Y-144661727D01*
X87644880Y-144890535D01*
X87839465Y-145085120D01*
X88068273Y-145238005D01*
X88322510Y-145343314D01*
X88592408Y-145397000D01*
X88867592Y-145397000D01*
X89137490Y-145343314D01*
X89391727Y-145238005D01*
X89620535Y-145085120D01*
X89815120Y-144890535D01*
X89968005Y-144661727D01*
X90000000Y-144584485D01*
X90031995Y-144661727D01*
X90184880Y-144890535D01*
X90379465Y-145085120D01*
X90608273Y-145238005D01*
X90862510Y-145343314D01*
X91132408Y-145397000D01*
X91407592Y-145397000D01*
X91677490Y-145343314D01*
X91931727Y-145238005D01*
X92160535Y-145085120D01*
X92355120Y-144890535D01*
X92508005Y-144661727D01*
X92540000Y-144584485D01*
X92571995Y-144661727D01*
X92724880Y-144890535D01*
X92919465Y-145085120D01*
X93148273Y-145238005D01*
X93402510Y-145343314D01*
X93672408Y-145397000D01*
X93947592Y-145397000D01*
X94217490Y-145343314D01*
X94471727Y-145238005D01*
X94700535Y-145085120D01*
X94895120Y-144890535D01*
X95048005Y-144661727D01*
X95153314Y-144407490D01*
X95207000Y-144137592D01*
X95207000Y-143862408D01*
X95153314Y-143592510D01*
X95048005Y-143338273D01*
X94895120Y-143109465D01*
X94700535Y-142914880D01*
X94471727Y-142761995D01*
X94217490Y-142656686D01*
X93947592Y-142603000D01*
X93741801Y-142603000D01*
X97314802Y-139030000D01*
X99852678Y-139030000D01*
X99890000Y-139033676D01*
X99927322Y-139030000D01*
X99927333Y-139030000D01*
X100038986Y-139019003D01*
X100182247Y-138975546D01*
X100314276Y-138904974D01*
X100430001Y-138810001D01*
X100453804Y-138780997D01*
X101376136Y-137858665D01*
X123565000Y-137858665D01*
X123565000Y-138141335D01*
X123620147Y-138418574D01*
X123728320Y-138679727D01*
X123885363Y-138914759D01*
X124085241Y-139114637D01*
X124320273Y-139271680D01*
X124581426Y-139379853D01*
X124858665Y-139435000D01*
X125141335Y-139435000D01*
X125418574Y-139379853D01*
X125679727Y-139271680D01*
X125914759Y-139114637D01*
X126114637Y-138914759D01*
X126271680Y-138679727D01*
X126379853Y-138418574D01*
X126435000Y-138141335D01*
X126435000Y-137858665D01*
X126379853Y-137581426D01*
X126271680Y-137320273D01*
X126114637Y-137085241D01*
X125914759Y-136885363D01*
X125679727Y-136728320D01*
X125418574Y-136620147D01*
X125141335Y-136565000D01*
X124858665Y-136565000D01*
X124581426Y-136620147D01*
X124320273Y-136728320D01*
X124085241Y-136885363D01*
X123885363Y-137085241D01*
X123728320Y-137320273D01*
X123620147Y-137581426D01*
X123565000Y-137858665D01*
X101376136Y-137858665D01*
X101836114Y-137398688D01*
X102018665Y-137435000D01*
X102301335Y-137435000D01*
X102578574Y-137379853D01*
X102839727Y-137271680D01*
X103074759Y-137114637D01*
X103274637Y-136914759D01*
X103431680Y-136679727D01*
X103539853Y-136418574D01*
X103595000Y-136141335D01*
X103595000Y-135858665D01*
X103539853Y-135581426D01*
X103431680Y-135320273D01*
X103274637Y-135085241D01*
X103074759Y-134885363D01*
X102839727Y-134728320D01*
X102578574Y-134620147D01*
X102301335Y-134565000D01*
X102018665Y-134565000D01*
X101741426Y-134620147D01*
X101480273Y-134728320D01*
X101245241Y-134885363D01*
X101045363Y-135085241D01*
X100888320Y-135320273D01*
X100780147Y-135581426D01*
X100725000Y-135858665D01*
X100725000Y-136141335D01*
X100761312Y-136323886D01*
X99575199Y-137510000D01*
X97037325Y-137510000D01*
X97000000Y-137506324D01*
X96962675Y-137510000D01*
X96962667Y-137510000D01*
X96851014Y-137520997D01*
X96707753Y-137564454D01*
X96575724Y-137635026D01*
X96459999Y-137729999D01*
X96436201Y-137758997D01*
X91561571Y-142633628D01*
X91407592Y-142603000D01*
X91132408Y-142603000D01*
X90862510Y-142656686D01*
X90608273Y-142761995D01*
X90379465Y-142914880D01*
X90184880Y-143109465D01*
X90031995Y-143338273D01*
X90000000Y-143415515D01*
X89968005Y-143338273D01*
X89815120Y-143109465D01*
X89620535Y-142914880D01*
X89490000Y-142827659D01*
X89490000Y-137919799D01*
X90511004Y-136898796D01*
X90540001Y-136874999D01*
X90634974Y-136759274D01*
X90705546Y-136627245D01*
X90705984Y-136625802D01*
X90728320Y-136679727D01*
X90885363Y-136914759D01*
X91085241Y-137114637D01*
X91320273Y-137271680D01*
X91581426Y-137379853D01*
X91858665Y-137435000D01*
X92141335Y-137435000D01*
X92418574Y-137379853D01*
X92679727Y-137271680D01*
X92914759Y-137114637D01*
X93114637Y-136914759D01*
X93271680Y-136679727D01*
X93379853Y-136418574D01*
X93435000Y-136141335D01*
X93435000Y-135858665D01*
X93379853Y-135581426D01*
X93271680Y-135320273D01*
X93114637Y-135085241D01*
X92914759Y-134885363D01*
X92679727Y-134728320D01*
X92418574Y-134620147D01*
X92141335Y-134565000D01*
X91858665Y-134565000D01*
X91581426Y-134620147D01*
X91320273Y-134728320D01*
X91085241Y-134885363D01*
X90885363Y-135085241D01*
X90760000Y-135272860D01*
X90760000Y-130775565D01*
X133214040Y-130775565D01*
X133281020Y-131015656D01*
X133530048Y-131132756D01*
X133797135Y-131199023D01*
X134072017Y-131211910D01*
X134344133Y-131170922D01*
X134603023Y-131077636D01*
X134718980Y-131015656D01*
X134785960Y-130775565D01*
X134000000Y-129989605D01*
X133214040Y-130775565D01*
X90760000Y-130775565D01*
X90760000Y-129882017D01*
X132598090Y-129882017D01*
X132639078Y-130154133D01*
X132732364Y-130413023D01*
X132794344Y-130528980D01*
X133034435Y-130595960D01*
X133820395Y-129810000D01*
X134179605Y-129810000D01*
X134965565Y-130595960D01*
X135205656Y-130528980D01*
X135322756Y-130279952D01*
X135389023Y-130012865D01*
X135401910Y-129737983D01*
X135360922Y-129465867D01*
X135267636Y-129206977D01*
X135205656Y-129091020D01*
X134965565Y-129024040D01*
X134179605Y-129810000D01*
X133820395Y-129810000D01*
X133034435Y-129024040D01*
X132794344Y-129091020D01*
X132677244Y-129340048D01*
X132610977Y-129607135D01*
X132598090Y-129882017D01*
X90760000Y-129882017D01*
X90760000Y-122654801D01*
X97328430Y-116086372D01*
X97482408Y-116117000D01*
X97757592Y-116117000D01*
X98027490Y-116063314D01*
X98281727Y-115958005D01*
X98510535Y-115805120D01*
X98705120Y-115610535D01*
X98858005Y-115381727D01*
X98963314Y-115127490D01*
X99017000Y-114857592D01*
X99017000Y-114582408D01*
X98963314Y-114312510D01*
X98858005Y-114058273D01*
X98705120Y-113829465D01*
X98510535Y-113634880D01*
X98281727Y-113481995D01*
X98204485Y-113450000D01*
X98281727Y-113418005D01*
X98510535Y-113265120D01*
X98705120Y-113070535D01*
X98858005Y-112841727D01*
X98963314Y-112587490D01*
X99017000Y-112317592D01*
X99017000Y-112111801D01*
X113416200Y-126511002D01*
X113439999Y-126540001D01*
X113468997Y-126563799D01*
X113555723Y-126634974D01*
X113687753Y-126705546D01*
X113831014Y-126749003D01*
X113942667Y-126760000D01*
X113942677Y-126760000D01*
X113980000Y-126763676D01*
X114017323Y-126760000D01*
X124050604Y-126760000D01*
X123885363Y-126925241D01*
X123728320Y-127160273D01*
X123620147Y-127421426D01*
X123565000Y-127698665D01*
X123565000Y-127981335D01*
X123620147Y-128258574D01*
X123728320Y-128519727D01*
X123885363Y-128754759D01*
X124085241Y-128954637D01*
X124320273Y-129111680D01*
X124581426Y-129219853D01*
X124858665Y-129275000D01*
X125141335Y-129275000D01*
X125418574Y-129219853D01*
X125679727Y-129111680D01*
X125914759Y-128954637D01*
X126114637Y-128754759D01*
X126271680Y-128519727D01*
X126379853Y-128258574D01*
X126435000Y-127981335D01*
X126435000Y-127698665D01*
X126379853Y-127421426D01*
X126271680Y-127160273D01*
X126114637Y-126925241D01*
X125949396Y-126760000D01*
X127685199Y-126760000D01*
X128706200Y-127781002D01*
X128729999Y-127810001D01*
X128845724Y-127904974D01*
X128977753Y-127975546D01*
X129121014Y-128019003D01*
X129232667Y-128030000D01*
X129232676Y-128030000D01*
X129269999Y-128033676D01*
X129307322Y-128030000D01*
X132827659Y-128030000D01*
X132914880Y-128160535D01*
X133109465Y-128355120D01*
X133338273Y-128508005D01*
X133409943Y-128537692D01*
X133396977Y-128542364D01*
X133281020Y-128604344D01*
X133214040Y-128844435D01*
X134000000Y-129630395D01*
X134785960Y-128844435D01*
X134718980Y-128604344D01*
X134583240Y-128540515D01*
X134661727Y-128508005D01*
X134890535Y-128355120D01*
X135085120Y-128160535D01*
X135238005Y-127931727D01*
X135343314Y-127677490D01*
X135397000Y-127407592D01*
X135397000Y-127132408D01*
X135343314Y-126862510D01*
X135238005Y-126608273D01*
X135085120Y-126379465D01*
X134890535Y-126184880D01*
X134661727Y-126031995D01*
X134584485Y-126000000D01*
X134661727Y-125968005D01*
X134890535Y-125815120D01*
X135085120Y-125620535D01*
X135238005Y-125391727D01*
X135343314Y-125137490D01*
X135397000Y-124867592D01*
X135397000Y-124592408D01*
X135343314Y-124322510D01*
X135238005Y-124068273D01*
X135085120Y-123839465D01*
X134890535Y-123644880D01*
X134661727Y-123491995D01*
X134584485Y-123460000D01*
X134661727Y-123428005D01*
X134890535Y-123275120D01*
X135085120Y-123080535D01*
X135238005Y-122851727D01*
X135343314Y-122597490D01*
X135397000Y-122327592D01*
X135397000Y-122052408D01*
X135343314Y-121782510D01*
X135238005Y-121528273D01*
X135085120Y-121299465D01*
X134890535Y-121104880D01*
X134661727Y-120951995D01*
X134407490Y-120846686D01*
X134137592Y-120793000D01*
X133862408Y-120793000D01*
X133592510Y-120846686D01*
X133338273Y-120951995D01*
X133109465Y-121104880D01*
X132914880Y-121299465D01*
X132761995Y-121528273D01*
X132656686Y-121782510D01*
X132603000Y-122052408D01*
X132603000Y-122258198D01*
X129030000Y-118685199D01*
X129030000Y-116307323D01*
X129033676Y-116270000D01*
X129030000Y-116232677D01*
X129030000Y-116232667D01*
X129019003Y-116121014D01*
X128975546Y-115977753D01*
X128964990Y-115958005D01*
X128904974Y-115845723D01*
X128833799Y-115758997D01*
X128810001Y-115729999D01*
X128781003Y-115706201D01*
X126403804Y-113329003D01*
X126380001Y-113299999D01*
X126303577Y-113237280D01*
X126271680Y-113160273D01*
X126114637Y-112925241D01*
X125914759Y-112725363D01*
X125679727Y-112568320D01*
X125418574Y-112460147D01*
X125141335Y-112405000D01*
X124858665Y-112405000D01*
X124581426Y-112460147D01*
X124320273Y-112568320D01*
X124085241Y-112725363D01*
X123885363Y-112925241D01*
X123728320Y-113160273D01*
X123620147Y-113421426D01*
X123565000Y-113698665D01*
X123565000Y-113981335D01*
X123620147Y-114258574D01*
X123728320Y-114519727D01*
X123885363Y-114754759D01*
X124085241Y-114954637D01*
X124320273Y-115111680D01*
X124581426Y-115219853D01*
X124858665Y-115275000D01*
X125141335Y-115275000D01*
X125418574Y-115219853D01*
X125679727Y-115111680D01*
X125893824Y-114968625D01*
X127510001Y-116584803D01*
X127510000Y-118962677D01*
X127506324Y-119000000D01*
X127510000Y-119037322D01*
X127510000Y-119037332D01*
X127520997Y-119148985D01*
X127557706Y-119270001D01*
X127564454Y-119292246D01*
X127635026Y-119424276D01*
X127674871Y-119472826D01*
X127729999Y-119540001D01*
X127759003Y-119563804D01*
X132633628Y-124438430D01*
X132603000Y-124592408D01*
X132603000Y-124867592D01*
X132656686Y-125137490D01*
X132761995Y-125391727D01*
X132914880Y-125620535D01*
X133109465Y-125815120D01*
X133338273Y-125968005D01*
X133415515Y-126000000D01*
X133338273Y-126031995D01*
X133109465Y-126184880D01*
X132914880Y-126379465D01*
X132827659Y-126510000D01*
X129584802Y-126510000D01*
X128563804Y-125489003D01*
X128540001Y-125459999D01*
X128424276Y-125365026D01*
X128292247Y-125294454D01*
X128148986Y-125250997D01*
X128037333Y-125240000D01*
X128037322Y-125240000D01*
X128000000Y-125236324D01*
X127962678Y-125240000D01*
X125727140Y-125240000D01*
X125914759Y-125114637D01*
X126114637Y-124914759D01*
X126271680Y-124679727D01*
X126379853Y-124418574D01*
X126435000Y-124141335D01*
X126435000Y-123858665D01*
X126379853Y-123581426D01*
X126271680Y-123320273D01*
X126114637Y-123085241D01*
X125914759Y-122885363D01*
X125679727Y-122728320D01*
X125418574Y-122620147D01*
X125141335Y-122565000D01*
X124858665Y-122565000D01*
X124581426Y-122620147D01*
X124320273Y-122728320D01*
X124085241Y-122885363D01*
X123885363Y-123085241D01*
X123728320Y-123320273D01*
X123620147Y-123581426D01*
X123565000Y-123858665D01*
X123565000Y-124141335D01*
X123620147Y-124418574D01*
X123728320Y-124679727D01*
X123885363Y-124914759D01*
X124085241Y-125114637D01*
X124272860Y-125240000D01*
X114294802Y-125240000D01*
X98986372Y-109931571D01*
X99017000Y-109777592D01*
X99017000Y-109502408D01*
X98963314Y-109232510D01*
X98858005Y-108978273D01*
X98705120Y-108749465D01*
X98510535Y-108554880D01*
X98281727Y-108401995D01*
X98204485Y-108370000D01*
X98281727Y-108338005D01*
X98510535Y-108185120D01*
X98705120Y-107990535D01*
X98858005Y-107761727D01*
X98963314Y-107507490D01*
X99017000Y-107237592D01*
X99017000Y-106962408D01*
X98996365Y-106858665D01*
X123565000Y-106858665D01*
X123565000Y-107141335D01*
X123620147Y-107418574D01*
X123728320Y-107679727D01*
X123885363Y-107914759D01*
X124085241Y-108114637D01*
X124320273Y-108271680D01*
X124581426Y-108379853D01*
X124858665Y-108435000D01*
X125141335Y-108435000D01*
X125418574Y-108379853D01*
X125679727Y-108271680D01*
X125914759Y-108114637D01*
X126114637Y-107914759D01*
X126271680Y-107679727D01*
X126379853Y-107418574D01*
X126435000Y-107141335D01*
X126435000Y-106858665D01*
X126379853Y-106581426D01*
X126271680Y-106320273D01*
X126114637Y-106085241D01*
X125914759Y-105885363D01*
X125679727Y-105728320D01*
X125418574Y-105620147D01*
X125141335Y-105565000D01*
X124858665Y-105565000D01*
X124581426Y-105620147D01*
X124320273Y-105728320D01*
X124085241Y-105885363D01*
X123885363Y-106085241D01*
X123728320Y-106320273D01*
X123620147Y-106581426D01*
X123565000Y-106858665D01*
X98996365Y-106858665D01*
X98963314Y-106692510D01*
X98858005Y-106438273D01*
X98705120Y-106209465D01*
X98510535Y-106014880D01*
X98281727Y-105861995D01*
X98204485Y-105830000D01*
X98281727Y-105798005D01*
X98510535Y-105645120D01*
X98705120Y-105450535D01*
X98858005Y-105221727D01*
X98963314Y-104967490D01*
X99017000Y-104697592D01*
X99017000Y-104422408D01*
X98986372Y-104268429D01*
X107494802Y-95760000D01*
X124050604Y-95760000D01*
X123885363Y-95925241D01*
X123728320Y-96160273D01*
X123620147Y-96421426D01*
X123565000Y-96698665D01*
X123565000Y-96981335D01*
X123620147Y-97258574D01*
X123728320Y-97519727D01*
X123885363Y-97754759D01*
X124085241Y-97954637D01*
X124320273Y-98111680D01*
X124581426Y-98219853D01*
X124858665Y-98275000D01*
X125141335Y-98275000D01*
X125418574Y-98219853D01*
X125679727Y-98111680D01*
X125914759Y-97954637D01*
X126114637Y-97754759D01*
X126271680Y-97519727D01*
X126379853Y-97258574D01*
X126435000Y-96981335D01*
X126435000Y-96698665D01*
X126379853Y-96421426D01*
X126271680Y-96160273D01*
X126114637Y-95925241D01*
X125949396Y-95760000D01*
X127962678Y-95760000D01*
X128000000Y-95763676D01*
X128037322Y-95760000D01*
X128037333Y-95760000D01*
X128148986Y-95749003D01*
X128292247Y-95705546D01*
X128424276Y-95634974D01*
X128540001Y-95540001D01*
X128563804Y-95510997D01*
X130511004Y-93563798D01*
X130540001Y-93540001D01*
X130566332Y-93507917D01*
X130634974Y-93424277D01*
X130705546Y-93292247D01*
X130732523Y-93203314D01*
X130749003Y-93148986D01*
X130760000Y-93037333D01*
X130760000Y-93037324D01*
X130763676Y-93000001D01*
X130760000Y-92962678D01*
X130760000Y-79584801D01*
X131569236Y-78775565D01*
X133214040Y-78775565D01*
X133281020Y-79015656D01*
X133530048Y-79132756D01*
X133797135Y-79199023D01*
X134072017Y-79211910D01*
X134344133Y-79170922D01*
X134603023Y-79077636D01*
X134718980Y-79015656D01*
X134785960Y-78775565D01*
X134000000Y-77989605D01*
X133214040Y-78775565D01*
X131569236Y-78775565D01*
X132604745Y-77740056D01*
X132598090Y-77882017D01*
X132639078Y-78154133D01*
X132732364Y-78413023D01*
X132794344Y-78528980D01*
X133034435Y-78595960D01*
X133820395Y-77810000D01*
X134179605Y-77810000D01*
X134965565Y-78595960D01*
X135205656Y-78528980D01*
X135322756Y-78279952D01*
X135389023Y-78012865D01*
X135401910Y-77737983D01*
X135360922Y-77465867D01*
X135267636Y-77206977D01*
X135205656Y-77091020D01*
X134965565Y-77024040D01*
X134179605Y-77810000D01*
X133820395Y-77810000D01*
X133806253Y-77795858D01*
X133985858Y-77616253D01*
X134000000Y-77630395D01*
X134785960Y-76844435D01*
X134718980Y-76604344D01*
X134583240Y-76540515D01*
X134661727Y-76508005D01*
X134890535Y-76355120D01*
X135085120Y-76160535D01*
X135238005Y-75931727D01*
X135343314Y-75677490D01*
X135397000Y-75407592D01*
X135397000Y-75132408D01*
X135343314Y-74862510D01*
X135238005Y-74608273D01*
X135085120Y-74379465D01*
X134890535Y-74184880D01*
X134661727Y-74031995D01*
X134584485Y-74000000D01*
X134661727Y-73968005D01*
X134890535Y-73815120D01*
X135085120Y-73620535D01*
X135238005Y-73391727D01*
X135343314Y-73137490D01*
X135397000Y-72867592D01*
X135397000Y-72592408D01*
X135343314Y-72322510D01*
X135238005Y-72068273D01*
X135085120Y-71839465D01*
X134890535Y-71644880D01*
X134661727Y-71491995D01*
X134584485Y-71460000D01*
X134661727Y-71428005D01*
X134890535Y-71275120D01*
X135085120Y-71080535D01*
X135238005Y-70851727D01*
X135343314Y-70597490D01*
X135397000Y-70327592D01*
X135397000Y-70052408D01*
X135343314Y-69782510D01*
X135238005Y-69528273D01*
X135085120Y-69299465D01*
X134890535Y-69104880D01*
X134661727Y-68951995D01*
X134407490Y-68846686D01*
X134137592Y-68793000D01*
X133862408Y-68793000D01*
X133592510Y-68846686D01*
X133338273Y-68951995D01*
X133109465Y-69104880D01*
X132914880Y-69299465D01*
X132761995Y-69528273D01*
X132656686Y-69782510D01*
X132603000Y-70052408D01*
X132603000Y-70327592D01*
X132656686Y-70597490D01*
X132761995Y-70851727D01*
X132914880Y-71080535D01*
X133109465Y-71275120D01*
X133338273Y-71428005D01*
X133415515Y-71460000D01*
X133338273Y-71491995D01*
X133109465Y-71644880D01*
X132914880Y-71839465D01*
X132761995Y-72068273D01*
X132656686Y-72322510D01*
X132603000Y-72592408D01*
X132603000Y-72867592D01*
X132633628Y-73021570D01*
X124489003Y-81166196D01*
X124459999Y-81189999D01*
X124404871Y-81257174D01*
X124365026Y-81305724D01*
X124325403Y-81379853D01*
X124294454Y-81437754D01*
X124250997Y-81581015D01*
X124247455Y-81616975D01*
X124085241Y-81725363D01*
X123885363Y-81925241D01*
X123728320Y-82160273D01*
X123620147Y-82421426D01*
X123565000Y-82698665D01*
X123565000Y-82981335D01*
X123620147Y-83258574D01*
X123728320Y-83519727D01*
X123885363Y-83754759D01*
X124085241Y-83954637D01*
X124320273Y-84111680D01*
X124581426Y-84219853D01*
X124858665Y-84275000D01*
X125141335Y-84275000D01*
X125418574Y-84219853D01*
X125679727Y-84111680D01*
X125914759Y-83954637D01*
X126114637Y-83754759D01*
X126271680Y-83519727D01*
X126379853Y-83258574D01*
X126435000Y-82981335D01*
X126435000Y-82698665D01*
X126379853Y-82421426D01*
X126271680Y-82160273D01*
X126114637Y-81925241D01*
X125997099Y-81807703D01*
X132603000Y-75201802D01*
X132603000Y-75407592D01*
X132633628Y-75561570D01*
X129488998Y-78706201D01*
X129460000Y-78729999D01*
X129436202Y-78758997D01*
X129436201Y-78758998D01*
X129365026Y-78845724D01*
X129294454Y-78977754D01*
X129264180Y-79077558D01*
X129250998Y-79121014D01*
X129243315Y-79199023D01*
X129236324Y-79270000D01*
X129240001Y-79307332D01*
X129240000Y-92685198D01*
X127685199Y-94240000D01*
X125727140Y-94240000D01*
X125914759Y-94114637D01*
X126114637Y-93914759D01*
X126271680Y-93679727D01*
X126379853Y-93418574D01*
X126435000Y-93141335D01*
X126435000Y-92858665D01*
X126379853Y-92581426D01*
X126271680Y-92320273D01*
X126114637Y-92085241D01*
X125914759Y-91885363D01*
X125679727Y-91728320D01*
X125418574Y-91620147D01*
X125141335Y-91565000D01*
X124858665Y-91565000D01*
X124581426Y-91620147D01*
X124320273Y-91728320D01*
X124085241Y-91885363D01*
X123885363Y-92085241D01*
X123728320Y-92320273D01*
X123620147Y-92581426D01*
X123565000Y-92858665D01*
X123565000Y-93141335D01*
X123620147Y-93418574D01*
X123728320Y-93679727D01*
X123885363Y-93914759D01*
X124085241Y-94114637D01*
X124272860Y-94240000D01*
X107217325Y-94240000D01*
X107180000Y-94236324D01*
X107142675Y-94240000D01*
X107142667Y-94240000D01*
X107031014Y-94250997D01*
X106887753Y-94294454D01*
X106755724Y-94365026D01*
X106639999Y-94459999D01*
X106616201Y-94488997D01*
X99017000Y-102088199D01*
X99017000Y-101882408D01*
X98963314Y-101612510D01*
X98858005Y-101358273D01*
X98705120Y-101129465D01*
X98510535Y-100934880D01*
X98281727Y-100781995D01*
X98204485Y-100750000D01*
X98281727Y-100718005D01*
X98510535Y-100565120D01*
X98705120Y-100370535D01*
X98858005Y-100141727D01*
X98963314Y-99887490D01*
X99017000Y-99617592D01*
X99017000Y-99342408D01*
X98963314Y-99072510D01*
X98858005Y-98818273D01*
X98705120Y-98589465D01*
X98510535Y-98394880D01*
X98281727Y-98241995D01*
X98204485Y-98210000D01*
X98281727Y-98178005D01*
X98510535Y-98025120D01*
X98705120Y-97830535D01*
X98858005Y-97601727D01*
X98963314Y-97347490D01*
X99017000Y-97077592D01*
X99017000Y-96802408D01*
X98963314Y-96532510D01*
X98858005Y-96278273D01*
X98705120Y-96049465D01*
X98510535Y-95854880D01*
X98281727Y-95701995D01*
X98204485Y-95670000D01*
X98281727Y-95638005D01*
X98510535Y-95485120D01*
X98705120Y-95290535D01*
X98858005Y-95061727D01*
X98963314Y-94807490D01*
X99017000Y-94537592D01*
X99017000Y-94262408D01*
X98963314Y-93992510D01*
X98858005Y-93738273D01*
X98705120Y-93509465D01*
X98510535Y-93314880D01*
X98281727Y-93161995D01*
X98204485Y-93130000D01*
X98281727Y-93098005D01*
X98510535Y-92945120D01*
X98705120Y-92750535D01*
X98858005Y-92521727D01*
X98963314Y-92267490D01*
X99017000Y-91997592D01*
X99017000Y-91722408D01*
X98963314Y-91452510D01*
X98858005Y-91198273D01*
X98705120Y-90969465D01*
X98510535Y-90774880D01*
X98281727Y-90621995D01*
X98204485Y-90590000D01*
X98281727Y-90558005D01*
X98510535Y-90405120D01*
X98705120Y-90210535D01*
X98858005Y-89981727D01*
X98963314Y-89727490D01*
X99017000Y-89457592D01*
X99017000Y-89182408D01*
X98963314Y-88912510D01*
X98858005Y-88658273D01*
X98705120Y-88429465D01*
X98510535Y-88234880D01*
X98281727Y-88081995D01*
X98204485Y-88050000D01*
X98281727Y-88018005D01*
X98510535Y-87865120D01*
X98705120Y-87670535D01*
X98858005Y-87441727D01*
X98963314Y-87187490D01*
X99017000Y-86917592D01*
X99017000Y-86642408D01*
X98963314Y-86372510D01*
X98858005Y-86118273D01*
X98705120Y-85889465D01*
X98510535Y-85694880D01*
X98281727Y-85541995D01*
X98204485Y-85510000D01*
X98281727Y-85478005D01*
X98510535Y-85325120D01*
X98705120Y-85130535D01*
X98858005Y-84901727D01*
X98963314Y-84647490D01*
X99017000Y-84377592D01*
X99017000Y-84102408D01*
X98963314Y-83832510D01*
X98858005Y-83578273D01*
X98705120Y-83349465D01*
X98510535Y-83154880D01*
X98281727Y-83001995D01*
X98204485Y-82970000D01*
X98281727Y-82938005D01*
X98510535Y-82785120D01*
X98705120Y-82590535D01*
X98858005Y-82361727D01*
X98963314Y-82107490D01*
X99017000Y-81837592D01*
X99017000Y-81562408D01*
X98963314Y-81292510D01*
X98858005Y-81038273D01*
X98837110Y-81007001D01*
X99620677Y-81007001D01*
X99657999Y-81010677D01*
X99695321Y-81007001D01*
X99695332Y-81007001D01*
X99806985Y-80996004D01*
X99950246Y-80952547D01*
X100082275Y-80881975D01*
X100198000Y-80787002D01*
X100221803Y-80757998D01*
X107727403Y-73252399D01*
X107785000Y-73258072D01*
X108785000Y-73258072D01*
X108909482Y-73245812D01*
X109029180Y-73209502D01*
X109047000Y-73199977D01*
X109064820Y-73209502D01*
X109184518Y-73245812D01*
X109309000Y-73258072D01*
X110309000Y-73258072D01*
X110433482Y-73245812D01*
X110553180Y-73209502D01*
X110571000Y-73199977D01*
X110588820Y-73209502D01*
X110708518Y-73245812D01*
X110833000Y-73258072D01*
X111833000Y-73258072D01*
X111957482Y-73245812D01*
X112077180Y-73209502D01*
X112095000Y-73199977D01*
X112112820Y-73209502D01*
X112232518Y-73245812D01*
X112357000Y-73258072D01*
X113357000Y-73258072D01*
X113481482Y-73245812D01*
X113601180Y-73209502D01*
X113619000Y-73199977D01*
X113636820Y-73209502D01*
X113756518Y-73245812D01*
X113881000Y-73258072D01*
X114881000Y-73258072D01*
X115005482Y-73245812D01*
X115125180Y-73209502D01*
X115143000Y-73199977D01*
X115160820Y-73209502D01*
X115280518Y-73245812D01*
X115405000Y-73258072D01*
X116405000Y-73258072D01*
X116529482Y-73245812D01*
X116649180Y-73209502D01*
X116667000Y-73199977D01*
X116684820Y-73209502D01*
X116804518Y-73245812D01*
X116929000Y-73258072D01*
X117929000Y-73258072D01*
X118053482Y-73245812D01*
X118173180Y-73209502D01*
X118191000Y-73199977D01*
X118193001Y-73201046D01*
X118193001Y-73249288D01*
X118149063Y-73293226D01*
X118035795Y-73462744D01*
X117957774Y-73651102D01*
X117918000Y-73851061D01*
X117918000Y-74054939D01*
X117957774Y-74254898D01*
X118035795Y-74443256D01*
X118149063Y-74612774D01*
X118293226Y-74756937D01*
X118462744Y-74870205D01*
X118651102Y-74948226D01*
X118851061Y-74988000D01*
X119054939Y-74988000D01*
X119254898Y-74948226D01*
X119443256Y-74870205D01*
X119612774Y-74756937D01*
X119756937Y-74612774D01*
X119870205Y-74443256D01*
X119948226Y-74254898D01*
X119986696Y-74061497D01*
X120436200Y-74511002D01*
X120459999Y-74540001D01*
X120575724Y-74634974D01*
X120707753Y-74705546D01*
X120851014Y-74749003D01*
X120962667Y-74760000D01*
X120962675Y-74760000D01*
X121000000Y-74763676D01*
X121037325Y-74760000D01*
X122962678Y-74760000D01*
X123000000Y-74763676D01*
X123037322Y-74760000D01*
X123037333Y-74760000D01*
X123148986Y-74749003D01*
X123292247Y-74705546D01*
X123424276Y-74634974D01*
X123540001Y-74540001D01*
X123563804Y-74510998D01*
X124511004Y-73563798D01*
X124540001Y-73540001D01*
X124634974Y-73424276D01*
X124705546Y-73292247D01*
X124749003Y-73148986D01*
X124760000Y-73037333D01*
X124760000Y-73037332D01*
X124763677Y-73000000D01*
X124760000Y-72962667D01*
X124760000Y-63314801D01*
X129655800Y-58419002D01*
X129655804Y-58418997D01*
X130511004Y-57563798D01*
X130540001Y-57540001D01*
X130634974Y-57424276D01*
X130705546Y-57292247D01*
X130749003Y-57148986D01*
X130760000Y-57037333D01*
X130760000Y-57037332D01*
X130763677Y-57000000D01*
X130760000Y-56962667D01*
X130760000Y-55037322D01*
X130763676Y-54999999D01*
X130760000Y-54962676D01*
X130760000Y-54962667D01*
X130749003Y-54851014D01*
X130705546Y-54707753D01*
X130695354Y-54688686D01*
X130634974Y-54575723D01*
X130563799Y-54488997D01*
X130540001Y-54459999D01*
X130511003Y-54436201D01*
X128563804Y-52489003D01*
X128540001Y-52459999D01*
X128424276Y-52365026D01*
X128292247Y-52294454D01*
X128148986Y-52250997D01*
X128037333Y-52240000D01*
X128037322Y-52240000D01*
X128000000Y-52236324D01*
X127962678Y-52240000D01*
X88257322Y-52240000D01*
X88219999Y-52236324D01*
X88182676Y-52240000D01*
X88182667Y-52240000D01*
X88071014Y-52250997D01*
X87927753Y-52294454D01*
X87795724Y-52365026D01*
X87679999Y-52459999D01*
X87656201Y-52488997D01*
X83777000Y-56368199D01*
X83777000Y-56162408D01*
X83723314Y-55892510D01*
X83618005Y-55638273D01*
X83465120Y-55409465D01*
X83270535Y-55214880D01*
X83041727Y-55061995D01*
X82787490Y-54956686D01*
X82517592Y-54903000D01*
X82242408Y-54903000D01*
X81972510Y-54956686D01*
X81718273Y-55061995D01*
X81489465Y-55214880D01*
X81294880Y-55409465D01*
X81141995Y-55638273D01*
X81036686Y-55892510D01*
X80983000Y-56162408D01*
X80983000Y-56437592D01*
X81036686Y-56707490D01*
X81141995Y-56961727D01*
X81294880Y-57190535D01*
X81489465Y-57385120D01*
X81718273Y-57538005D01*
X81795515Y-57570000D01*
X81718273Y-57601995D01*
X81489465Y-57754880D01*
X81294880Y-57949465D01*
X81141995Y-58178273D01*
X81036686Y-58432510D01*
X80983000Y-58702408D01*
X80983000Y-58977592D01*
X81036686Y-59247490D01*
X81141995Y-59501727D01*
X81294880Y-59730535D01*
X81489465Y-59925120D01*
X81718273Y-60078005D01*
X81795515Y-60110000D01*
X81718273Y-60141995D01*
X81489465Y-60294880D01*
X81294880Y-60489465D01*
X81141995Y-60718273D01*
X81036686Y-60972510D01*
X80983000Y-61242408D01*
X80983000Y-61517592D01*
X81036686Y-61787490D01*
X81141995Y-62041727D01*
X81294880Y-62270535D01*
X81489465Y-62465120D01*
X81718273Y-62618005D01*
X81795515Y-62650000D01*
X81718273Y-62681995D01*
X81489465Y-62834880D01*
X81294880Y-63029465D01*
X81141995Y-63258273D01*
X81036686Y-63512510D01*
X80983000Y-63782408D01*
X80983000Y-64057592D01*
X81036686Y-64327490D01*
X81141995Y-64581727D01*
X81294880Y-64810535D01*
X81489465Y-65005120D01*
X81718273Y-65158005D01*
X81795515Y-65190000D01*
X81718273Y-65221995D01*
X81489465Y-65374880D01*
X81294880Y-65569465D01*
X81141995Y-65798273D01*
X81036686Y-66052510D01*
X80983000Y-66322408D01*
X80983000Y-66597592D01*
X81036686Y-66867490D01*
X81141995Y-67121727D01*
X81294880Y-67350535D01*
X81489465Y-67545120D01*
X81718273Y-67698005D01*
X81795515Y-67730000D01*
X81718273Y-67761995D01*
X81489465Y-67914880D01*
X81294880Y-68109465D01*
X81141995Y-68338273D01*
X81036686Y-68592510D01*
X80983000Y-68862408D01*
X80983000Y-69137592D01*
X81036686Y-69407490D01*
X81141995Y-69661727D01*
X81294880Y-69890535D01*
X81489465Y-70085120D01*
X81718273Y-70238005D01*
X81795515Y-70270000D01*
X81718273Y-70301995D01*
X81489465Y-70454880D01*
X81294880Y-70649465D01*
X81141995Y-70878273D01*
X81036686Y-71132510D01*
X80983000Y-71402408D01*
X80983000Y-71677592D01*
X81036686Y-71947490D01*
X81141995Y-72201727D01*
X81294880Y-72430535D01*
X81489465Y-72625120D01*
X81718273Y-72778005D01*
X81795515Y-72810000D01*
X81718273Y-72841995D01*
X81489465Y-72994880D01*
X81294880Y-73189465D01*
X81141995Y-73418273D01*
X81036686Y-73672510D01*
X80983000Y-73942408D01*
X80983000Y-74217592D01*
X81036686Y-74487490D01*
X81141995Y-74741727D01*
X81294880Y-74970535D01*
X81489465Y-75165120D01*
X81718273Y-75318005D01*
X81795515Y-75350000D01*
X81718273Y-75381995D01*
X81489465Y-75534880D01*
X81294880Y-75729465D01*
X81141995Y-75958273D01*
X81036686Y-76212510D01*
X80983000Y-76482408D01*
X80983000Y-76757592D01*
X81036686Y-77027490D01*
X81141995Y-77281727D01*
X81294880Y-77510535D01*
X81489465Y-77705120D01*
X81718273Y-77858005D01*
X81795515Y-77890000D01*
X81718273Y-77921995D01*
X81489465Y-78074880D01*
X81294880Y-78269465D01*
X81141995Y-78498273D01*
X81036686Y-78752510D01*
X80983000Y-79022408D01*
X80983000Y-79297592D01*
X81036686Y-79567490D01*
X81141995Y-79821727D01*
X81294880Y-80050535D01*
X81489465Y-80245120D01*
X81718273Y-80398005D01*
X81795515Y-80430000D01*
X81718273Y-80461995D01*
X81489465Y-80614880D01*
X81294880Y-80809465D01*
X81141995Y-81038273D01*
X81036686Y-81292510D01*
X80983000Y-81562408D01*
X80983000Y-81837592D01*
X81036686Y-82107490D01*
X81141995Y-82361727D01*
X81294880Y-82590535D01*
X81489465Y-82785120D01*
X81718273Y-82938005D01*
X81795515Y-82970000D01*
X81718273Y-83001995D01*
X81489465Y-83154880D01*
X81294880Y-83349465D01*
X81141995Y-83578273D01*
X81036686Y-83832510D01*
X80983000Y-84102408D01*
X80983000Y-84377592D01*
X81036686Y-84647490D01*
X81141995Y-84901727D01*
X81294880Y-85130535D01*
X81489465Y-85325120D01*
X81718273Y-85478005D01*
X81795515Y-85510000D01*
X81718273Y-85541995D01*
X81489465Y-85694880D01*
X81294880Y-85889465D01*
X81141995Y-86118273D01*
X81036686Y-86372510D01*
X80983000Y-86642408D01*
X80983000Y-86917592D01*
X81036686Y-87187490D01*
X81141995Y-87441727D01*
X81294880Y-87670535D01*
X81489465Y-87865120D01*
X81718273Y-88018005D01*
X81795515Y-88050000D01*
X81718273Y-88081995D01*
X81489465Y-88234880D01*
X81294880Y-88429465D01*
X81141995Y-88658273D01*
X81036686Y-88912510D01*
X80983000Y-89182408D01*
X80983000Y-89457592D01*
X81036686Y-89727490D01*
X81141995Y-89981727D01*
X81294880Y-90210535D01*
X81489465Y-90405120D01*
X81718273Y-90558005D01*
X81795515Y-90590000D01*
X81718273Y-90621995D01*
X81489465Y-90774880D01*
X81294880Y-90969465D01*
X81141995Y-91198273D01*
X81036686Y-91452510D01*
X80983000Y-91722408D01*
X80983000Y-91928199D01*
X79760000Y-90705199D01*
X79760000Y-56037325D01*
X79763676Y-56000000D01*
X79760000Y-55962675D01*
X79760000Y-55962667D01*
X79749003Y-55851014D01*
X79705546Y-55707753D01*
X79634974Y-55575724D01*
X79540001Y-55459999D01*
X79511004Y-55436202D01*
X76563804Y-52489003D01*
X76540001Y-52459999D01*
X76424276Y-52365026D01*
X76292247Y-52294454D01*
X76148986Y-52250997D01*
X76037333Y-52240000D01*
X76037322Y-52240000D01*
X76000000Y-52236324D01*
X75962678Y-52240000D01*
X67592322Y-52240000D01*
X67554999Y-52236324D01*
X67517676Y-52240000D01*
X67517667Y-52240000D01*
X67406014Y-52250997D01*
X67262753Y-52294454D01*
X67130724Y-52365026D01*
X67014999Y-52459999D01*
X66991201Y-52488997D01*
X64656571Y-54823628D01*
X64502592Y-54793000D01*
X64227408Y-54793000D01*
X63957510Y-54846686D01*
X63703273Y-54951995D01*
X63474465Y-55104880D01*
X63279880Y-55299465D01*
X63126995Y-55528273D01*
X63095000Y-55605515D01*
X63063005Y-55528273D01*
X62910120Y-55299465D01*
X62715535Y-55104880D01*
X62486727Y-54951995D01*
X62232490Y-54846686D01*
X61962592Y-54793000D01*
X61687408Y-54793000D01*
X61417510Y-54846686D01*
X61163273Y-54951995D01*
X60934465Y-55104880D01*
X60739880Y-55299465D01*
X60586995Y-55528273D01*
X60555000Y-55605515D01*
X60523005Y-55528273D01*
X60370120Y-55299465D01*
X60175535Y-55104880D01*
X59946727Y-54951995D01*
X59692490Y-54846686D01*
X59422592Y-54793000D01*
X59147408Y-54793000D01*
X58877510Y-54846686D01*
X58623273Y-54951995D01*
X58394465Y-55104880D01*
X58199880Y-55299465D01*
X58046995Y-55528273D01*
X57941686Y-55782510D01*
X57888000Y-56052408D01*
X57888000Y-56327592D01*
X57941686Y-56597490D01*
X58046995Y-56851727D01*
X58199880Y-57080535D01*
X58394465Y-57275120D01*
X58623273Y-57428005D01*
X58877510Y-57533314D01*
X59147408Y-57587000D01*
X59422592Y-57587000D01*
X59692490Y-57533314D01*
X59946727Y-57428005D01*
X60175535Y-57275120D01*
X60370120Y-57080535D01*
X60523005Y-56851727D01*
X60555000Y-56774485D01*
X60586995Y-56851727D01*
X60739880Y-57080535D01*
X60934465Y-57275120D01*
X61163273Y-57428005D01*
X61417510Y-57533314D01*
X61687408Y-57587000D01*
X61962592Y-57587000D01*
X62232490Y-57533314D01*
X62486727Y-57428005D01*
X62715535Y-57275120D01*
X62910120Y-57080535D01*
X63063005Y-56851727D01*
X63095000Y-56774485D01*
X63126995Y-56851727D01*
X63279880Y-57080535D01*
X63474465Y-57275120D01*
X63703273Y-57428005D01*
X63957510Y-57533314D01*
X64227408Y-57587000D01*
X64502592Y-57587000D01*
X64772490Y-57533314D01*
X65026727Y-57428005D01*
X65255535Y-57275120D01*
X65450120Y-57080535D01*
X65603005Y-56851727D01*
X65635000Y-56774485D01*
X65666995Y-56851727D01*
X65819880Y-57080535D01*
X66014465Y-57275120D01*
X66243273Y-57428005D01*
X66497510Y-57533314D01*
X66767408Y-57587000D01*
X67042592Y-57587000D01*
X67196570Y-57556372D01*
X67240000Y-57599802D01*
X67240000Y-57962667D01*
X67236323Y-58000000D01*
X67250997Y-58148986D01*
X67294454Y-58292247D01*
X67365026Y-58424276D01*
X67436200Y-58511002D01*
X67459999Y-58540001D01*
X67575724Y-58634974D01*
X67707753Y-58705546D01*
X67851014Y-58749003D01*
X68000000Y-58763677D01*
X68037333Y-58760000D01*
X73685199Y-58760000D01*
X75680001Y-60754803D01*
X75680000Y-90962678D01*
X75676324Y-91000000D01*
X75680000Y-91037322D01*
X75680000Y-91037332D01*
X75690997Y-91148985D01*
X75734454Y-91292246D01*
X75805026Y-91424276D01*
X75844871Y-91472826D01*
X75899999Y-91540001D01*
X75929003Y-91563804D01*
X81013628Y-96648430D01*
X80983000Y-96802408D01*
X80983000Y-97077592D01*
X81036686Y-97347490D01*
X81141995Y-97601727D01*
X81294880Y-97830535D01*
X81489465Y-98025120D01*
X81718273Y-98178005D01*
X81795515Y-98210000D01*
X81718273Y-98241995D01*
X81489465Y-98394880D01*
X81294880Y-98589465D01*
X81141995Y-98818273D01*
X81036686Y-99072510D01*
X80983000Y-99342408D01*
X80983000Y-99617592D01*
X81036686Y-99887490D01*
X81141995Y-100141727D01*
X81294880Y-100370535D01*
X81489465Y-100565120D01*
X81718273Y-100718005D01*
X81795515Y-100750000D01*
X81718273Y-100781995D01*
X81489465Y-100934880D01*
X81294880Y-101129465D01*
X81141995Y-101358273D01*
X81036686Y-101612510D01*
X80983000Y-101882408D01*
X80983000Y-102157592D01*
X81036686Y-102427490D01*
X81141995Y-102681727D01*
X81294880Y-102910535D01*
X81489465Y-103105120D01*
X81718273Y-103258005D01*
X81795515Y-103290000D01*
X81718273Y-103321995D01*
X81489465Y-103474880D01*
X81294880Y-103669465D01*
X81141995Y-103898273D01*
X81036686Y-104152510D01*
X80983000Y-104422408D01*
X80983000Y-104628198D01*
X75843804Y-99489003D01*
X75820001Y-99459999D01*
X75760000Y-99410757D01*
X75760000Y-92037322D01*
X75763676Y-91999999D01*
X75760000Y-91962676D01*
X75760000Y-91962667D01*
X75749003Y-91851014D01*
X75705546Y-91707753D01*
X75634974Y-91575724D01*
X75605657Y-91540001D01*
X75563799Y-91488996D01*
X75563795Y-91488992D01*
X75540001Y-91459999D01*
X75511008Y-91436205D01*
X60563804Y-76489003D01*
X60540001Y-76459999D01*
X60424276Y-76365026D01*
X60292247Y-76294454D01*
X60148986Y-76250997D01*
X60037333Y-76240000D01*
X60037322Y-76240000D01*
X60000000Y-76236324D01*
X59962678Y-76240000D01*
X56314802Y-76240000D01*
X52293804Y-72219003D01*
X52270001Y-72189999D01*
X52154276Y-72095026D01*
X52022247Y-72024454D01*
X51878986Y-71980997D01*
X51767333Y-71970000D01*
X51767322Y-71970000D01*
X51730000Y-71966324D01*
X51692678Y-71970000D01*
X47172341Y-71970000D01*
X47085120Y-71839465D01*
X46890535Y-71644880D01*
X46661727Y-71491995D01*
X46590057Y-71462308D01*
X46603023Y-71457636D01*
X46718980Y-71395656D01*
X46785960Y-71155565D01*
X46000000Y-70369605D01*
X45214040Y-71155565D01*
X45281020Y-71395656D01*
X45416760Y-71459485D01*
X45338273Y-71491995D01*
X45109465Y-71644880D01*
X44914880Y-71839465D01*
X44761995Y-72068273D01*
X44656686Y-72322510D01*
X44603000Y-72592408D01*
X41127000Y-72592408D01*
X41127000Y-70262017D01*
X44598090Y-70262017D01*
X44639078Y-70534133D01*
X44732364Y-70793023D01*
X44794344Y-70908980D01*
X45034435Y-70975960D01*
X45820395Y-70190000D01*
X46179605Y-70190000D01*
X46965565Y-70975960D01*
X47205656Y-70908980D01*
X47322756Y-70659952D01*
X47389023Y-70392865D01*
X47401910Y-70117983D01*
X47360922Y-69845867D01*
X47267636Y-69586977D01*
X47205656Y-69471020D01*
X46965565Y-69404040D01*
X46179605Y-70190000D01*
X45820395Y-70190000D01*
X45034435Y-69404040D01*
X44794344Y-69471020D01*
X44677244Y-69720048D01*
X44610977Y-69987135D01*
X44598090Y-70262017D01*
X41127000Y-70262017D01*
X41127000Y-69224435D01*
X45214040Y-69224435D01*
X46000000Y-70010395D01*
X46785960Y-69224435D01*
X46718980Y-68984344D01*
X46469952Y-68867244D01*
X46202865Y-68800977D01*
X45927983Y-68788090D01*
X45655867Y-68829078D01*
X45396977Y-68922364D01*
X45281020Y-68984344D01*
X45214040Y-69224435D01*
X41127000Y-69224435D01*
X41127000Y-51127000D01*
X138873000Y-51127000D01*
X138873000Y-148873000D01*
G37*
%TD.AperFunction*%
D16*
X96297244Y-55830048D02*
X96230977Y-56097135D01*
X96218090Y-56372017D01*
X96259078Y-56644133D01*
X96352364Y-56903023D01*
X96414344Y-57018980D01*
X96654435Y-57085960D01*
X97440395Y-56300000D01*
X97426253Y-56285858D01*
X97605858Y-56106253D01*
X97620000Y-56120395D01*
X97634143Y-56106253D01*
X97813748Y-56285858D01*
X97799605Y-56300000D01*
X98585565Y-57085960D01*
X98825656Y-57018980D01*
X98942756Y-56769952D01*
X99009023Y-56502865D01*
X99021910Y-56227983D01*
X98980922Y-55955867D01*
X98910345Y-55760000D01*
X103685199Y-55760000D01*
X106436200Y-58511002D01*
X106459999Y-58540001D01*
X106575724Y-58634974D01*
X106707753Y-58705546D01*
X106851014Y-58749003D01*
X106962667Y-58760000D01*
X106962675Y-58760000D01*
X107000000Y-58763676D01*
X107037325Y-58760000D01*
X109316199Y-58760000D01*
X120538126Y-69981928D01*
X119977000Y-69981928D01*
X119852518Y-69994188D01*
X119732820Y-70030498D01*
X119715000Y-70040023D01*
X119697180Y-70030498D01*
X119577482Y-69994188D01*
X119453000Y-69981928D01*
X118453000Y-69981928D01*
X118328518Y-69994188D01*
X118208820Y-70030498D01*
X118191000Y-70040023D01*
X118173180Y-70030498D01*
X118053482Y-69994188D01*
X117929000Y-69981928D01*
X116929000Y-69981928D01*
X116804518Y-69994188D01*
X116684820Y-70030498D01*
X116667000Y-70040023D01*
X116649180Y-70030498D01*
X116529482Y-69994188D01*
X116405000Y-69981928D01*
X115405000Y-69981928D01*
X115280518Y-69994188D01*
X115160820Y-70030498D01*
X115143000Y-70040023D01*
X115125180Y-70030498D01*
X115005482Y-69994188D01*
X114881000Y-69981928D01*
X113881000Y-69981928D01*
X113756518Y-69994188D01*
X113636820Y-70030498D01*
X113619000Y-70040023D01*
X113601180Y-70030498D01*
X113481482Y-69994188D01*
X113357000Y-69981928D01*
X112357000Y-69981928D01*
X112232518Y-69994188D01*
X112112820Y-70030498D01*
X112095000Y-70040023D01*
X112077180Y-70030498D01*
X111957482Y-69994188D01*
X111833000Y-69981928D01*
X110833000Y-69981928D01*
X110708518Y-69994188D01*
X110588820Y-70030498D01*
X110571000Y-70040023D01*
X110553180Y-70030498D01*
X110433482Y-69994188D01*
X110309000Y-69981928D01*
X109309000Y-69981928D01*
X109184518Y-69994188D01*
X109064820Y-70030498D01*
X109047000Y-70040023D01*
X109029180Y-70030498D01*
X108909482Y-69994188D01*
X108785000Y-69981928D01*
X107785000Y-69981928D01*
X107660518Y-69994188D01*
X107540820Y-70030498D01*
X107430506Y-70089463D01*
X107333815Y-70168815D01*
X107254463Y-70265506D01*
X107195498Y-70375820D01*
X107159188Y-70495518D01*
X107146928Y-70620000D01*
X107146928Y-71683270D01*
X99343198Y-79487001D01*
X98979324Y-79487001D01*
X99017000Y-79297592D01*
X99017000Y-79022408D01*
X98963314Y-78752510D01*
X98858005Y-78498273D01*
X98705120Y-78269465D01*
X98510535Y-78074880D01*
X98281727Y-77921995D01*
X98204485Y-77890000D01*
X98281727Y-77858005D01*
X98510535Y-77705120D01*
X98705120Y-77510535D01*
X98858005Y-77281727D01*
X98963314Y-77027490D01*
X99017000Y-76757592D01*
X99017000Y-76482408D01*
X98963314Y-76212510D01*
X98858005Y-75958273D01*
X98705120Y-75729465D01*
X98510535Y-75534880D01*
X98281727Y-75381995D01*
X98204485Y-75350000D01*
X98281727Y-75318005D01*
X98510535Y-75165120D01*
X98705120Y-74970535D01*
X98858005Y-74741727D01*
X98963314Y-74487490D01*
X99017000Y-74217592D01*
X99017000Y-73942408D01*
X98963314Y-73672510D01*
X98858005Y-73418273D01*
X98705120Y-73189465D01*
X98510535Y-72994880D01*
X98281727Y-72841995D01*
X98204485Y-72810000D01*
X98281727Y-72778005D01*
X98510535Y-72625120D01*
X98705120Y-72430535D01*
X98858005Y-72201727D01*
X98963314Y-71947490D01*
X99017000Y-71677592D01*
X99017000Y-71402408D01*
X98963314Y-71132510D01*
X98858005Y-70878273D01*
X98705120Y-70649465D01*
X98510535Y-70454880D01*
X98281727Y-70301995D01*
X98204485Y-70270000D01*
X98281727Y-70238005D01*
X98510535Y-70085120D01*
X98705120Y-69890535D01*
X98858005Y-69661727D01*
X98963314Y-69407490D01*
X99017000Y-69137592D01*
X99017000Y-68862408D01*
X98963314Y-68592510D01*
X98858005Y-68338273D01*
X98705120Y-68109465D01*
X98510535Y-67914880D01*
X98281727Y-67761995D01*
X98204485Y-67730000D01*
X98281727Y-67698005D01*
X98510535Y-67545120D01*
X98705120Y-67350535D01*
X98858005Y-67121727D01*
X98963314Y-66867490D01*
X99017000Y-66597592D01*
X99017000Y-66322408D01*
X98963314Y-66052510D01*
X98858005Y-65798273D01*
X98705120Y-65569465D01*
X98510535Y-65374880D01*
X98281727Y-65221995D01*
X98204485Y-65190000D01*
X98281727Y-65158005D01*
X98510535Y-65005120D01*
X98705120Y-64810535D01*
X98858005Y-64581727D01*
X98963314Y-64327490D01*
X99017000Y-64057592D01*
X99017000Y-63782408D01*
X98963314Y-63512510D01*
X98858005Y-63258273D01*
X98705120Y-63029465D01*
X98510535Y-62834880D01*
X98281727Y-62681995D01*
X98204485Y-62650000D01*
X98281727Y-62618005D01*
X98510535Y-62465120D01*
X98705120Y-62270535D01*
X98858005Y-62041727D01*
X98963314Y-61787490D01*
X99017000Y-61517592D01*
X99017000Y-61242408D01*
X98963314Y-60972510D01*
X98858005Y-60718273D01*
X98705120Y-60489465D01*
X98510535Y-60294880D01*
X98281727Y-60141995D01*
X98204485Y-60110000D01*
X98281727Y-60078005D01*
X98510535Y-59925120D01*
X98705120Y-59730535D01*
X98858005Y-59501727D01*
X98963314Y-59247490D01*
X99017000Y-58977592D01*
X99017000Y-58702408D01*
X98963314Y-58432510D01*
X98858005Y-58178273D01*
X98705120Y-57949465D01*
X98510535Y-57754880D01*
X98281727Y-57601995D01*
X98210057Y-57572308D01*
X98223023Y-57567636D01*
X98338980Y-57505656D01*
X98405960Y-57265565D01*
X97620000Y-56479605D01*
X96834040Y-57265565D01*
X96901020Y-57505656D01*
X97036760Y-57569485D01*
X96958273Y-57601995D01*
X96729465Y-57754880D01*
X96534880Y-57949465D01*
X96381995Y-58178273D01*
X96350000Y-58255515D01*
X96318005Y-58178273D01*
X96165120Y-57949465D01*
X95970535Y-57754880D01*
X95741727Y-57601995D01*
X95487490Y-57496686D01*
X95217592Y-57443000D01*
X94942408Y-57443000D01*
X94672510Y-57496686D01*
X94418273Y-57601995D01*
X94189465Y-57754880D01*
X93994880Y-57949465D01*
X93841995Y-58178273D01*
X93736686Y-58432510D01*
X93683000Y-58702408D01*
X93683000Y-58977592D01*
X93736686Y-59247490D01*
X93841995Y-59501727D01*
X93994880Y-59730535D01*
X94189465Y-59925120D01*
X94418273Y-60078005D01*
X94672510Y-60183314D01*
X94942408Y-60237000D01*
X95217592Y-60237000D01*
X95487490Y-60183314D01*
X95741727Y-60078005D01*
X95970535Y-59925120D01*
X96165120Y-59730535D01*
X96318005Y-59501727D01*
X96350000Y-59424485D01*
X96381995Y-59501727D01*
X96534880Y-59730535D01*
X96729465Y-59925120D01*
X96958273Y-60078005D01*
X97035515Y-60110000D01*
X96958273Y-60141995D01*
X96729465Y-60294880D01*
X96534880Y-60489465D01*
X96381995Y-60718273D01*
X96276686Y-60972510D01*
X96223000Y-61242408D01*
X96223000Y-61517592D01*
X96276686Y-61787490D01*
X96381995Y-62041727D01*
X96534880Y-62270535D01*
X96729465Y-62465120D01*
X96958273Y-62618005D01*
X97035515Y-62650000D01*
X96958273Y-62681995D01*
X96729465Y-62834880D01*
X96534880Y-63029465D01*
X96381995Y-63258273D01*
X96276686Y-63512510D01*
X96223000Y-63782408D01*
X96223000Y-64057592D01*
X96276686Y-64327490D01*
X96381995Y-64581727D01*
X96534880Y-64810535D01*
X96729465Y-65005120D01*
X96958273Y-65158005D01*
X97035515Y-65190000D01*
X96958273Y-65221995D01*
X96729465Y-65374880D01*
X96534880Y-65569465D01*
X96381995Y-65798273D01*
X96276686Y-66052510D01*
X96223000Y-66322408D01*
X96223000Y-66597592D01*
X96276686Y-66867490D01*
X96381995Y-67121727D01*
X96534880Y-67350535D01*
X96729465Y-67545120D01*
X96958273Y-67698005D01*
X97035515Y-67730000D01*
X96958273Y-67761995D01*
X96729465Y-67914880D01*
X96534880Y-68109465D01*
X96381995Y-68338273D01*
X96276686Y-68592510D01*
X96223000Y-68862408D01*
X96223000Y-69137592D01*
X96276686Y-69407490D01*
X96381995Y-69661727D01*
X96534880Y-69890535D01*
X96729465Y-70085120D01*
X96958273Y-70238005D01*
X97035515Y-70270000D01*
X96958273Y-70301995D01*
X96729465Y-70454880D01*
X96534880Y-70649465D01*
X96381995Y-70878273D01*
X96276686Y-71132510D01*
X96223000Y-71402408D01*
X96223000Y-71677592D01*
X96276686Y-71947490D01*
X96381995Y-72201727D01*
X96534880Y-72430535D01*
X96729465Y-72625120D01*
X96958273Y-72778005D01*
X97035515Y-72810000D01*
X96958273Y-72841995D01*
X96729465Y-72994880D01*
X96534880Y-73189465D01*
X96381995Y-73418273D01*
X96276686Y-73672510D01*
X96223000Y-73942408D01*
X96223000Y-74217592D01*
X96276686Y-74487490D01*
X96381995Y-74741727D01*
X96534880Y-74970535D01*
X96729465Y-75165120D01*
X96958273Y-75318005D01*
X97035515Y-75350000D01*
X96958273Y-75381995D01*
X96729465Y-75534880D01*
X96534880Y-75729465D01*
X96381995Y-75958273D01*
X96276686Y-76212510D01*
X96223000Y-76482408D01*
X96223000Y-76757592D01*
X96276686Y-77027490D01*
X96381995Y-77281727D01*
X96534880Y-77510535D01*
X96729465Y-77705120D01*
X96958273Y-77858005D01*
X97035515Y-77890000D01*
X96958273Y-77921995D01*
X96729465Y-78074880D01*
X96534880Y-78269465D01*
X96381995Y-78498273D01*
X96276686Y-78752510D01*
X96223000Y-79022408D01*
X96223000Y-79297592D01*
X96260676Y-79487001D01*
X94030324Y-79487001D01*
X93992999Y-79483325D01*
X93955674Y-79487001D01*
X93955666Y-79487001D01*
X93844013Y-79497998D01*
X93700752Y-79541455D01*
X93568723Y-79612027D01*
X93452998Y-79707000D01*
X93429200Y-79735998D01*
X83777000Y-89388199D01*
X83777000Y-89182408D01*
X83723314Y-88912510D01*
X83618005Y-88658273D01*
X83465120Y-88429465D01*
X83270535Y-88234880D01*
X83041727Y-88081995D01*
X82964485Y-88050000D01*
X83041727Y-88018005D01*
X83270535Y-87865120D01*
X83465120Y-87670535D01*
X83618005Y-87441727D01*
X83723314Y-87187490D01*
X83777000Y-86917592D01*
X83777000Y-86642408D01*
X83723314Y-86372510D01*
X83618005Y-86118273D01*
X83465120Y-85889465D01*
X83270535Y-85694880D01*
X83041727Y-85541995D01*
X82964485Y-85510000D01*
X83041727Y-85478005D01*
X83270535Y-85325120D01*
X83465120Y-85130535D01*
X83618005Y-84901727D01*
X83723314Y-84647490D01*
X83777000Y-84377592D01*
X83777000Y-84102408D01*
X83723314Y-83832510D01*
X83618005Y-83578273D01*
X83465120Y-83349465D01*
X83270535Y-83154880D01*
X83041727Y-83001995D01*
X82964485Y-82970000D01*
X83041727Y-82938005D01*
X83270535Y-82785120D01*
X83465120Y-82590535D01*
X83618005Y-82361727D01*
X83723314Y-82107490D01*
X83777000Y-81837592D01*
X83777000Y-81562408D01*
X83723314Y-81292510D01*
X83618005Y-81038273D01*
X83465120Y-80809465D01*
X83270535Y-80614880D01*
X83041727Y-80461995D01*
X82964485Y-80430000D01*
X83041727Y-80398005D01*
X83270535Y-80245120D01*
X83465120Y-80050535D01*
X83618005Y-79821727D01*
X83723314Y-79567490D01*
X83777000Y-79297592D01*
X83777000Y-79022408D01*
X83723314Y-78752510D01*
X83618005Y-78498273D01*
X83465120Y-78269465D01*
X83270535Y-78074880D01*
X83041727Y-77921995D01*
X82964485Y-77890000D01*
X83041727Y-77858005D01*
X83270535Y-77705120D01*
X83465120Y-77510535D01*
X83618005Y-77281727D01*
X83723314Y-77027490D01*
X83777000Y-76757592D01*
X83777000Y-76482408D01*
X83723314Y-76212510D01*
X83618005Y-75958273D01*
X83465120Y-75729465D01*
X83270535Y-75534880D01*
X83041727Y-75381995D01*
X82964485Y-75350000D01*
X83041727Y-75318005D01*
X83270535Y-75165120D01*
X83465120Y-74970535D01*
X83618005Y-74741727D01*
X83723314Y-74487490D01*
X83777000Y-74217592D01*
X83777000Y-73942408D01*
X83723314Y-73672510D01*
X83618005Y-73418273D01*
X83465120Y-73189465D01*
X83270535Y-72994880D01*
X83041727Y-72841995D01*
X82964485Y-72810000D01*
X83041727Y-72778005D01*
X83270535Y-72625120D01*
X83465120Y-72430535D01*
X83618005Y-72201727D01*
X83723314Y-71947490D01*
X83777000Y-71677592D01*
X83777000Y-71402408D01*
X83723314Y-71132510D01*
X83618005Y-70878273D01*
X83465120Y-70649465D01*
X83270535Y-70454880D01*
X83041727Y-70301995D01*
X82964485Y-70270000D01*
X83041727Y-70238005D01*
X83270535Y-70085120D01*
X83465120Y-69890535D01*
X83618005Y-69661727D01*
X83723314Y-69407490D01*
X83777000Y-69137592D01*
X83777000Y-68862408D01*
X83723314Y-68592510D01*
X83618005Y-68338273D01*
X83465120Y-68109465D01*
X83270535Y-67914880D01*
X83041727Y-67761995D01*
X82964485Y-67730000D01*
X83041727Y-67698005D01*
X83270535Y-67545120D01*
X83465120Y-67350535D01*
X83618005Y-67121727D01*
X83723314Y-66867490D01*
X83777000Y-66597592D01*
X83777000Y-66322408D01*
X83723314Y-66052510D01*
X83618005Y-65798273D01*
X83465120Y-65569465D01*
X83270535Y-65374880D01*
X83041727Y-65221995D01*
X82964485Y-65190000D01*
X83041727Y-65158005D01*
X83270535Y-65005120D01*
X83465120Y-64810535D01*
X83618005Y-64581727D01*
X83723314Y-64327490D01*
X83777000Y-64057592D01*
X83777000Y-63782408D01*
X83723314Y-63512510D01*
X83618005Y-63258273D01*
X83465120Y-63029465D01*
X83270535Y-62834880D01*
X83041727Y-62681995D01*
X82964485Y-62650000D01*
X83041727Y-62618005D01*
X83199763Y-62512408D01*
X83523000Y-62512408D01*
X83523000Y-62787592D01*
X83576686Y-63057490D01*
X83681995Y-63311727D01*
X83834880Y-63540535D01*
X84029465Y-63735120D01*
X84258273Y-63888005D01*
X84335515Y-63920000D01*
X84258273Y-63951995D01*
X84029465Y-64104880D01*
X83834880Y-64299465D01*
X83681995Y-64528273D01*
X83576686Y-64782510D01*
X83523000Y-65052408D01*
X83523000Y-65327592D01*
X83576686Y-65597490D01*
X83681995Y-65851727D01*
X83834880Y-66080535D01*
X84029465Y-66275120D01*
X84258273Y-66428005D01*
X84335515Y-66460000D01*
X84258273Y-66491995D01*
X84029465Y-66644880D01*
X83834880Y-66839465D01*
X83681995Y-67068273D01*
X83576686Y-67322510D01*
X83523000Y-67592408D01*
X83523000Y-67867592D01*
X83576686Y-68137490D01*
X83681995Y-68391727D01*
X83834880Y-68620535D01*
X84029465Y-68815120D01*
X84258273Y-68968005D01*
X84335515Y-69000000D01*
X84258273Y-69031995D01*
X84029465Y-69184880D01*
X83834880Y-69379465D01*
X83681995Y-69608273D01*
X83576686Y-69862510D01*
X83523000Y-70132408D01*
X83523000Y-70407592D01*
X83576686Y-70677490D01*
X83681995Y-70931727D01*
X83834880Y-71160535D01*
X84029465Y-71355120D01*
X84258273Y-71508005D01*
X84335515Y-71540000D01*
X84258273Y-71571995D01*
X84029465Y-71724880D01*
X83834880Y-71919465D01*
X83681995Y-72148273D01*
X83576686Y-72402510D01*
X83523000Y-72672408D01*
X83523000Y-72947592D01*
X83576686Y-73217490D01*
X83681995Y-73471727D01*
X83834880Y-73700535D01*
X84029465Y-73895120D01*
X84258273Y-74048005D01*
X84512510Y-74153314D01*
X84782408Y-74207000D01*
X85057592Y-74207000D01*
X85327490Y-74153314D01*
X85581727Y-74048005D01*
X85810535Y-73895120D01*
X86005120Y-73700535D01*
X86158005Y-73471727D01*
X86263314Y-73217490D01*
X86317000Y-72947592D01*
X86317000Y-72672408D01*
X86263314Y-72402510D01*
X86158005Y-72148273D01*
X86005120Y-71919465D01*
X85810535Y-71724880D01*
X85581727Y-71571995D01*
X85504485Y-71540000D01*
X85581727Y-71508005D01*
X85810535Y-71355120D01*
X86005120Y-71160535D01*
X86158005Y-70931727D01*
X86263314Y-70677490D01*
X86317000Y-70407592D01*
X86317000Y-70132408D01*
X86263314Y-69862510D01*
X86158005Y-69608273D01*
X86005120Y-69379465D01*
X85810535Y-69184880D01*
X85581727Y-69031995D01*
X85504485Y-69000000D01*
X85581727Y-68968005D01*
X85810535Y-68815120D01*
X86005120Y-68620535D01*
X86158005Y-68391727D01*
X86263314Y-68137490D01*
X86317000Y-67867592D01*
X86317000Y-67592408D01*
X86263314Y-67322510D01*
X86158005Y-67068273D01*
X86005120Y-66839465D01*
X85810535Y-66644880D01*
X85581727Y-66491995D01*
X85504485Y-66460000D01*
X85581727Y-66428005D01*
X85810535Y-66275120D01*
X86005120Y-66080535D01*
X86158005Y-65851727D01*
X86263314Y-65597490D01*
X86317000Y-65327592D01*
X86317000Y-65052408D01*
X86263314Y-64782510D01*
X86158005Y-64528273D01*
X86005120Y-64299465D01*
X85810535Y-64104880D01*
X85581727Y-63951995D01*
X85504485Y-63920000D01*
X85581727Y-63888005D01*
X85810535Y-63735120D01*
X86005120Y-63540535D01*
X86158005Y-63311727D01*
X86263314Y-63057490D01*
X86317000Y-62787592D01*
X86317000Y-62512408D01*
X86263314Y-62242510D01*
X86158005Y-61988273D01*
X86005120Y-61759465D01*
X85810535Y-61564880D01*
X85581727Y-61411995D01*
X85327490Y-61306686D01*
X85057592Y-61253000D01*
X84782408Y-61253000D01*
X84512510Y-61306686D01*
X84258273Y-61411995D01*
X84029465Y-61564880D01*
X83834880Y-61759465D01*
X83681995Y-61988273D01*
X83576686Y-62242510D01*
X83523000Y-62512408D01*
X83199763Y-62512408D01*
X83270535Y-62465120D01*
X83465120Y-62270535D01*
X83618005Y-62041727D01*
X83723314Y-61787490D01*
X83777000Y-61517592D01*
X83777000Y-61242408D01*
X83746372Y-61088430D01*
X84030800Y-60804002D01*
X84030804Y-60803997D01*
X89074802Y-55760000D01*
X96330183Y-55760000D01*
X96297244Y-55830048D01*
%TA.AperFunction,Conductor*%
D17*
G36*
X96297244Y-55830048D02*
G01*
X96230977Y-56097135D01*
X96218090Y-56372017D01*
X96259078Y-56644133D01*
X96352364Y-56903023D01*
X96414344Y-57018980D01*
X96654435Y-57085960D01*
X97440395Y-56300000D01*
X97426253Y-56285858D01*
X97605858Y-56106253D01*
X97620000Y-56120395D01*
X97634143Y-56106253D01*
X97813748Y-56285858D01*
X97799605Y-56300000D01*
X98585565Y-57085960D01*
X98825656Y-57018980D01*
X98942756Y-56769952D01*
X99009023Y-56502865D01*
X99021910Y-56227983D01*
X98980922Y-55955867D01*
X98910345Y-55760000D01*
X103685199Y-55760000D01*
X106436200Y-58511002D01*
X106459999Y-58540001D01*
X106575724Y-58634974D01*
X106707753Y-58705546D01*
X106851014Y-58749003D01*
X106962667Y-58760000D01*
X106962675Y-58760000D01*
X107000000Y-58763676D01*
X107037325Y-58760000D01*
X109316199Y-58760000D01*
X120538126Y-69981928D01*
X119977000Y-69981928D01*
X119852518Y-69994188D01*
X119732820Y-70030498D01*
X119715000Y-70040023D01*
X119697180Y-70030498D01*
X119577482Y-69994188D01*
X119453000Y-69981928D01*
X118453000Y-69981928D01*
X118328518Y-69994188D01*
X118208820Y-70030498D01*
X118191000Y-70040023D01*
X118173180Y-70030498D01*
X118053482Y-69994188D01*
X117929000Y-69981928D01*
X116929000Y-69981928D01*
X116804518Y-69994188D01*
X116684820Y-70030498D01*
X116667000Y-70040023D01*
X116649180Y-70030498D01*
X116529482Y-69994188D01*
X116405000Y-69981928D01*
X115405000Y-69981928D01*
X115280518Y-69994188D01*
X115160820Y-70030498D01*
X115143000Y-70040023D01*
X115125180Y-70030498D01*
X115005482Y-69994188D01*
X114881000Y-69981928D01*
X113881000Y-69981928D01*
X113756518Y-69994188D01*
X113636820Y-70030498D01*
X113619000Y-70040023D01*
X113601180Y-70030498D01*
X113481482Y-69994188D01*
X113357000Y-69981928D01*
X112357000Y-69981928D01*
X112232518Y-69994188D01*
X112112820Y-70030498D01*
X112095000Y-70040023D01*
X112077180Y-70030498D01*
X111957482Y-69994188D01*
X111833000Y-69981928D01*
X110833000Y-69981928D01*
X110708518Y-69994188D01*
X110588820Y-70030498D01*
X110571000Y-70040023D01*
X110553180Y-70030498D01*
X110433482Y-69994188D01*
X110309000Y-69981928D01*
X109309000Y-69981928D01*
X109184518Y-69994188D01*
X109064820Y-70030498D01*
X109047000Y-70040023D01*
X109029180Y-70030498D01*
X108909482Y-69994188D01*
X108785000Y-69981928D01*
X107785000Y-69981928D01*
X107660518Y-69994188D01*
X107540820Y-70030498D01*
X107430506Y-70089463D01*
X107333815Y-70168815D01*
X107254463Y-70265506D01*
X107195498Y-70375820D01*
X107159188Y-70495518D01*
X107146928Y-70620000D01*
X107146928Y-71683270D01*
X99343198Y-79487001D01*
X98979324Y-79487001D01*
X99017000Y-79297592D01*
X99017000Y-79022408D01*
X98963314Y-78752510D01*
X98858005Y-78498273D01*
X98705120Y-78269465D01*
X98510535Y-78074880D01*
X98281727Y-77921995D01*
X98204485Y-77890000D01*
X98281727Y-77858005D01*
X98510535Y-77705120D01*
X98705120Y-77510535D01*
X98858005Y-77281727D01*
X98963314Y-77027490D01*
X99017000Y-76757592D01*
X99017000Y-76482408D01*
X98963314Y-76212510D01*
X98858005Y-75958273D01*
X98705120Y-75729465D01*
X98510535Y-75534880D01*
X98281727Y-75381995D01*
X98204485Y-75350000D01*
X98281727Y-75318005D01*
X98510535Y-75165120D01*
X98705120Y-74970535D01*
X98858005Y-74741727D01*
X98963314Y-74487490D01*
X99017000Y-74217592D01*
X99017000Y-73942408D01*
X98963314Y-73672510D01*
X98858005Y-73418273D01*
X98705120Y-73189465D01*
X98510535Y-72994880D01*
X98281727Y-72841995D01*
X98204485Y-72810000D01*
X98281727Y-72778005D01*
X98510535Y-72625120D01*
X98705120Y-72430535D01*
X98858005Y-72201727D01*
X98963314Y-71947490D01*
X99017000Y-71677592D01*
X99017000Y-71402408D01*
X98963314Y-71132510D01*
X98858005Y-70878273D01*
X98705120Y-70649465D01*
X98510535Y-70454880D01*
X98281727Y-70301995D01*
X98204485Y-70270000D01*
X98281727Y-70238005D01*
X98510535Y-70085120D01*
X98705120Y-69890535D01*
X98858005Y-69661727D01*
X98963314Y-69407490D01*
X99017000Y-69137592D01*
X99017000Y-68862408D01*
X98963314Y-68592510D01*
X98858005Y-68338273D01*
X98705120Y-68109465D01*
X98510535Y-67914880D01*
X98281727Y-67761995D01*
X98204485Y-67730000D01*
X98281727Y-67698005D01*
X98510535Y-67545120D01*
X98705120Y-67350535D01*
X98858005Y-67121727D01*
X98963314Y-66867490D01*
X99017000Y-66597592D01*
X99017000Y-66322408D01*
X98963314Y-66052510D01*
X98858005Y-65798273D01*
X98705120Y-65569465D01*
X98510535Y-65374880D01*
X98281727Y-65221995D01*
X98204485Y-65190000D01*
X98281727Y-65158005D01*
X98510535Y-65005120D01*
X98705120Y-64810535D01*
X98858005Y-64581727D01*
X98963314Y-64327490D01*
X99017000Y-64057592D01*
X99017000Y-63782408D01*
X98963314Y-63512510D01*
X98858005Y-63258273D01*
X98705120Y-63029465D01*
X98510535Y-62834880D01*
X98281727Y-62681995D01*
X98204485Y-62650000D01*
X98281727Y-62618005D01*
X98510535Y-62465120D01*
X98705120Y-62270535D01*
X98858005Y-62041727D01*
X98963314Y-61787490D01*
X99017000Y-61517592D01*
X99017000Y-61242408D01*
X98963314Y-60972510D01*
X98858005Y-60718273D01*
X98705120Y-60489465D01*
X98510535Y-60294880D01*
X98281727Y-60141995D01*
X98204485Y-60110000D01*
X98281727Y-60078005D01*
X98510535Y-59925120D01*
X98705120Y-59730535D01*
X98858005Y-59501727D01*
X98963314Y-59247490D01*
X99017000Y-58977592D01*
X99017000Y-58702408D01*
X98963314Y-58432510D01*
X98858005Y-58178273D01*
X98705120Y-57949465D01*
X98510535Y-57754880D01*
X98281727Y-57601995D01*
X98210057Y-57572308D01*
X98223023Y-57567636D01*
X98338980Y-57505656D01*
X98405960Y-57265565D01*
X97620000Y-56479605D01*
X96834040Y-57265565D01*
X96901020Y-57505656D01*
X97036760Y-57569485D01*
X96958273Y-57601995D01*
X96729465Y-57754880D01*
X96534880Y-57949465D01*
X96381995Y-58178273D01*
X96350000Y-58255515D01*
X96318005Y-58178273D01*
X96165120Y-57949465D01*
X95970535Y-57754880D01*
X95741727Y-57601995D01*
X95487490Y-57496686D01*
X95217592Y-57443000D01*
X94942408Y-57443000D01*
X94672510Y-57496686D01*
X94418273Y-57601995D01*
X94189465Y-57754880D01*
X93994880Y-57949465D01*
X93841995Y-58178273D01*
X93736686Y-58432510D01*
X93683000Y-58702408D01*
X93683000Y-58977592D01*
X93736686Y-59247490D01*
X93841995Y-59501727D01*
X93994880Y-59730535D01*
X94189465Y-59925120D01*
X94418273Y-60078005D01*
X94672510Y-60183314D01*
X94942408Y-60237000D01*
X95217592Y-60237000D01*
X95487490Y-60183314D01*
X95741727Y-60078005D01*
X95970535Y-59925120D01*
X96165120Y-59730535D01*
X96318005Y-59501727D01*
X96350000Y-59424485D01*
X96381995Y-59501727D01*
X96534880Y-59730535D01*
X96729465Y-59925120D01*
X96958273Y-60078005D01*
X97035515Y-60110000D01*
X96958273Y-60141995D01*
X96729465Y-60294880D01*
X96534880Y-60489465D01*
X96381995Y-60718273D01*
X96276686Y-60972510D01*
X96223000Y-61242408D01*
X96223000Y-61517592D01*
X96276686Y-61787490D01*
X96381995Y-62041727D01*
X96534880Y-62270535D01*
X96729465Y-62465120D01*
X96958273Y-62618005D01*
X97035515Y-62650000D01*
X96958273Y-62681995D01*
X96729465Y-62834880D01*
X96534880Y-63029465D01*
X96381995Y-63258273D01*
X96276686Y-63512510D01*
X96223000Y-63782408D01*
X96223000Y-64057592D01*
X96276686Y-64327490D01*
X96381995Y-64581727D01*
X96534880Y-64810535D01*
X96729465Y-65005120D01*
X96958273Y-65158005D01*
X97035515Y-65190000D01*
X96958273Y-65221995D01*
X96729465Y-65374880D01*
X96534880Y-65569465D01*
X96381995Y-65798273D01*
X96276686Y-66052510D01*
X96223000Y-66322408D01*
X96223000Y-66597592D01*
X96276686Y-66867490D01*
X96381995Y-67121727D01*
X96534880Y-67350535D01*
X96729465Y-67545120D01*
X96958273Y-67698005D01*
X97035515Y-67730000D01*
X96958273Y-67761995D01*
X96729465Y-67914880D01*
X96534880Y-68109465D01*
X96381995Y-68338273D01*
X96276686Y-68592510D01*
X96223000Y-68862408D01*
X96223000Y-69137592D01*
X96276686Y-69407490D01*
X96381995Y-69661727D01*
X96534880Y-69890535D01*
X96729465Y-70085120D01*
X96958273Y-70238005D01*
X97035515Y-70270000D01*
X96958273Y-70301995D01*
X96729465Y-70454880D01*
X96534880Y-70649465D01*
X96381995Y-70878273D01*
X96276686Y-71132510D01*
X96223000Y-71402408D01*
X96223000Y-71677592D01*
X96276686Y-71947490D01*
X96381995Y-72201727D01*
X96534880Y-72430535D01*
X96729465Y-72625120D01*
X96958273Y-72778005D01*
X97035515Y-72810000D01*
X96958273Y-72841995D01*
X96729465Y-72994880D01*
X96534880Y-73189465D01*
X96381995Y-73418273D01*
X96276686Y-73672510D01*
X96223000Y-73942408D01*
X96223000Y-74217592D01*
X96276686Y-74487490D01*
X96381995Y-74741727D01*
X96534880Y-74970535D01*
X96729465Y-75165120D01*
X96958273Y-75318005D01*
X97035515Y-75350000D01*
X96958273Y-75381995D01*
X96729465Y-75534880D01*
X96534880Y-75729465D01*
X96381995Y-75958273D01*
X96276686Y-76212510D01*
X96223000Y-76482408D01*
X96223000Y-76757592D01*
X96276686Y-77027490D01*
X96381995Y-77281727D01*
X96534880Y-77510535D01*
X96729465Y-77705120D01*
X96958273Y-77858005D01*
X97035515Y-77890000D01*
X96958273Y-77921995D01*
X96729465Y-78074880D01*
X96534880Y-78269465D01*
X96381995Y-78498273D01*
X96276686Y-78752510D01*
X96223000Y-79022408D01*
X96223000Y-79297592D01*
X96260676Y-79487001D01*
X94030324Y-79487001D01*
X93992999Y-79483325D01*
X93955674Y-79487001D01*
X93955666Y-79487001D01*
X93844013Y-79497998D01*
X93700752Y-79541455D01*
X93568723Y-79612027D01*
X93452998Y-79707000D01*
X93429200Y-79735998D01*
X83777000Y-89388199D01*
X83777000Y-89182408D01*
X83723314Y-88912510D01*
X83618005Y-88658273D01*
X83465120Y-88429465D01*
X83270535Y-88234880D01*
X83041727Y-88081995D01*
X82964485Y-88050000D01*
X83041727Y-88018005D01*
X83270535Y-87865120D01*
X83465120Y-87670535D01*
X83618005Y-87441727D01*
X83723314Y-87187490D01*
X83777000Y-86917592D01*
X83777000Y-86642408D01*
X83723314Y-86372510D01*
X83618005Y-86118273D01*
X83465120Y-85889465D01*
X83270535Y-85694880D01*
X83041727Y-85541995D01*
X82964485Y-85510000D01*
X83041727Y-85478005D01*
X83270535Y-85325120D01*
X83465120Y-85130535D01*
X83618005Y-84901727D01*
X83723314Y-84647490D01*
X83777000Y-84377592D01*
X83777000Y-84102408D01*
X83723314Y-83832510D01*
X83618005Y-83578273D01*
X83465120Y-83349465D01*
X83270535Y-83154880D01*
X83041727Y-83001995D01*
X82964485Y-82970000D01*
X83041727Y-82938005D01*
X83270535Y-82785120D01*
X83465120Y-82590535D01*
X83618005Y-82361727D01*
X83723314Y-82107490D01*
X83777000Y-81837592D01*
X83777000Y-81562408D01*
X83723314Y-81292510D01*
X83618005Y-81038273D01*
X83465120Y-80809465D01*
X83270535Y-80614880D01*
X83041727Y-80461995D01*
X82964485Y-80430000D01*
X83041727Y-80398005D01*
X83270535Y-80245120D01*
X83465120Y-80050535D01*
X83618005Y-79821727D01*
X83723314Y-79567490D01*
X83777000Y-79297592D01*
X83777000Y-79022408D01*
X83723314Y-78752510D01*
X83618005Y-78498273D01*
X83465120Y-78269465D01*
X83270535Y-78074880D01*
X83041727Y-77921995D01*
X82964485Y-77890000D01*
X83041727Y-77858005D01*
X83270535Y-77705120D01*
X83465120Y-77510535D01*
X83618005Y-77281727D01*
X83723314Y-77027490D01*
X83777000Y-76757592D01*
X83777000Y-76482408D01*
X83723314Y-76212510D01*
X83618005Y-75958273D01*
X83465120Y-75729465D01*
X83270535Y-75534880D01*
X83041727Y-75381995D01*
X82964485Y-75350000D01*
X83041727Y-75318005D01*
X83270535Y-75165120D01*
X83465120Y-74970535D01*
X83618005Y-74741727D01*
X83723314Y-74487490D01*
X83777000Y-74217592D01*
X83777000Y-73942408D01*
X83723314Y-73672510D01*
X83618005Y-73418273D01*
X83465120Y-73189465D01*
X83270535Y-72994880D01*
X83041727Y-72841995D01*
X82964485Y-72810000D01*
X83041727Y-72778005D01*
X83270535Y-72625120D01*
X83465120Y-72430535D01*
X83618005Y-72201727D01*
X83723314Y-71947490D01*
X83777000Y-71677592D01*
X83777000Y-71402408D01*
X83723314Y-71132510D01*
X83618005Y-70878273D01*
X83465120Y-70649465D01*
X83270535Y-70454880D01*
X83041727Y-70301995D01*
X82964485Y-70270000D01*
X83041727Y-70238005D01*
X83270535Y-70085120D01*
X83465120Y-69890535D01*
X83618005Y-69661727D01*
X83723314Y-69407490D01*
X83777000Y-69137592D01*
X83777000Y-68862408D01*
X83723314Y-68592510D01*
X83618005Y-68338273D01*
X83465120Y-68109465D01*
X83270535Y-67914880D01*
X83041727Y-67761995D01*
X82964485Y-67730000D01*
X83041727Y-67698005D01*
X83270535Y-67545120D01*
X83465120Y-67350535D01*
X83618005Y-67121727D01*
X83723314Y-66867490D01*
X83777000Y-66597592D01*
X83777000Y-66322408D01*
X83723314Y-66052510D01*
X83618005Y-65798273D01*
X83465120Y-65569465D01*
X83270535Y-65374880D01*
X83041727Y-65221995D01*
X82964485Y-65190000D01*
X83041727Y-65158005D01*
X83270535Y-65005120D01*
X83465120Y-64810535D01*
X83618005Y-64581727D01*
X83723314Y-64327490D01*
X83777000Y-64057592D01*
X83777000Y-63782408D01*
X83723314Y-63512510D01*
X83618005Y-63258273D01*
X83465120Y-63029465D01*
X83270535Y-62834880D01*
X83041727Y-62681995D01*
X82964485Y-62650000D01*
X83041727Y-62618005D01*
X83199763Y-62512408D01*
X83523000Y-62512408D01*
X83523000Y-62787592D01*
X83576686Y-63057490D01*
X83681995Y-63311727D01*
X83834880Y-63540535D01*
X84029465Y-63735120D01*
X84258273Y-63888005D01*
X84335515Y-63920000D01*
X84258273Y-63951995D01*
X84029465Y-64104880D01*
X83834880Y-64299465D01*
X83681995Y-64528273D01*
X83576686Y-64782510D01*
X83523000Y-65052408D01*
X83523000Y-65327592D01*
X83576686Y-65597490D01*
X83681995Y-65851727D01*
X83834880Y-66080535D01*
X84029465Y-66275120D01*
X84258273Y-66428005D01*
X84335515Y-66460000D01*
X84258273Y-66491995D01*
X84029465Y-66644880D01*
X83834880Y-66839465D01*
X83681995Y-67068273D01*
X83576686Y-67322510D01*
X83523000Y-67592408D01*
X83523000Y-67867592D01*
X83576686Y-68137490D01*
X83681995Y-68391727D01*
X83834880Y-68620535D01*
X84029465Y-68815120D01*
X84258273Y-68968005D01*
X84335515Y-69000000D01*
X84258273Y-69031995D01*
X84029465Y-69184880D01*
X83834880Y-69379465D01*
X83681995Y-69608273D01*
X83576686Y-69862510D01*
X83523000Y-70132408D01*
X83523000Y-70407592D01*
X83576686Y-70677490D01*
X83681995Y-70931727D01*
X83834880Y-71160535D01*
X84029465Y-71355120D01*
X84258273Y-71508005D01*
X84335515Y-71540000D01*
X84258273Y-71571995D01*
X84029465Y-71724880D01*
X83834880Y-71919465D01*
X83681995Y-72148273D01*
X83576686Y-72402510D01*
X83523000Y-72672408D01*
X83523000Y-72947592D01*
X83576686Y-73217490D01*
X83681995Y-73471727D01*
X83834880Y-73700535D01*
X84029465Y-73895120D01*
X84258273Y-74048005D01*
X84512510Y-74153314D01*
X84782408Y-74207000D01*
X85057592Y-74207000D01*
X85327490Y-74153314D01*
X85581727Y-74048005D01*
X85810535Y-73895120D01*
X86005120Y-73700535D01*
X86158005Y-73471727D01*
X86263314Y-73217490D01*
X86317000Y-72947592D01*
X86317000Y-72672408D01*
X86263314Y-72402510D01*
X86158005Y-72148273D01*
X86005120Y-71919465D01*
X85810535Y-71724880D01*
X85581727Y-71571995D01*
X85504485Y-71540000D01*
X85581727Y-71508005D01*
X85810535Y-71355120D01*
X86005120Y-71160535D01*
X86158005Y-70931727D01*
X86263314Y-70677490D01*
X86317000Y-70407592D01*
X86317000Y-70132408D01*
X86263314Y-69862510D01*
X86158005Y-69608273D01*
X86005120Y-69379465D01*
X85810535Y-69184880D01*
X85581727Y-69031995D01*
X85504485Y-69000000D01*
X85581727Y-68968005D01*
X85810535Y-68815120D01*
X86005120Y-68620535D01*
X86158005Y-68391727D01*
X86263314Y-68137490D01*
X86317000Y-67867592D01*
X86317000Y-67592408D01*
X86263314Y-67322510D01*
X86158005Y-67068273D01*
X86005120Y-66839465D01*
X85810535Y-66644880D01*
X85581727Y-66491995D01*
X85504485Y-66460000D01*
X85581727Y-66428005D01*
X85810535Y-66275120D01*
X86005120Y-66080535D01*
X86158005Y-65851727D01*
X86263314Y-65597490D01*
X86317000Y-65327592D01*
X86317000Y-65052408D01*
X86263314Y-64782510D01*
X86158005Y-64528273D01*
X86005120Y-64299465D01*
X85810535Y-64104880D01*
X85581727Y-63951995D01*
X85504485Y-63920000D01*
X85581727Y-63888005D01*
X85810535Y-63735120D01*
X86005120Y-63540535D01*
X86158005Y-63311727D01*
X86263314Y-63057490D01*
X86317000Y-62787592D01*
X86317000Y-62512408D01*
X86263314Y-62242510D01*
X86158005Y-61988273D01*
X86005120Y-61759465D01*
X85810535Y-61564880D01*
X85581727Y-61411995D01*
X85327490Y-61306686D01*
X85057592Y-61253000D01*
X84782408Y-61253000D01*
X84512510Y-61306686D01*
X84258273Y-61411995D01*
X84029465Y-61564880D01*
X83834880Y-61759465D01*
X83681995Y-61988273D01*
X83576686Y-62242510D01*
X83523000Y-62512408D01*
X83199763Y-62512408D01*
X83270535Y-62465120D01*
X83465120Y-62270535D01*
X83618005Y-62041727D01*
X83723314Y-61787490D01*
X83777000Y-61517592D01*
X83777000Y-61242408D01*
X83746372Y-61088430D01*
X84030800Y-60804002D01*
X84030804Y-60803997D01*
X89074802Y-55760000D01*
X96330183Y-55760000D01*
X96297244Y-55830048D01*
G37*
%TD.AperFunction*%
%TD*%
M02*
