%TF.GenerationSoftware,KiCad,Pcbnew,5.1.5+dfsg1-2build2*%
%TF.CreationDate,2022-02-07T12:49:49-06:00*%
%TF.ProjectId,gpsv1.3,67707376-312e-4332-9e6b-696361645f70,rev?*%
%TF.SameCoordinates,Original*%
%TF.FileFunction,Legend,Top*%
%TF.FilePolarity,Positive*%
%FSLAX46Y46*%
G04 Gerber Fmt 4.6, Leading zero omitted, Abs format (unit mm)*
G04 Created by KiCad (PCBNEW 5.1.5+dfsg1-2build2) date 2022-02-07 12:49:49*
%MOMM*%
%LPD*%
G04 APERTURE LIST*
%ADD10C,0.150000*%
%ADD11C,0.010000*%
%ADD12C,0.120000*%
G04 APERTURE END LIST*
D10*
X197407142Y-117290952D02*
X197407142Y-114790952D01*
X198835714Y-117290952D02*
X197764285Y-115862380D01*
X198835714Y-114790952D02*
X197407142Y-116219523D01*
X199788095Y-117171904D02*
X200145238Y-117290952D01*
X200740476Y-117290952D01*
X200978571Y-117171904D01*
X201097619Y-117052857D01*
X201216666Y-116814761D01*
X201216666Y-116576666D01*
X201097619Y-116338571D01*
X200978571Y-116219523D01*
X200740476Y-116100476D01*
X200264285Y-115981428D01*
X200026190Y-115862380D01*
X199907142Y-115743333D01*
X199788095Y-115505238D01*
X199788095Y-115267142D01*
X199907142Y-115029047D01*
X200026190Y-114910000D01*
X200264285Y-114790952D01*
X200859523Y-114790952D01*
X201216666Y-114910000D01*
X202288095Y-114790952D02*
X202288095Y-116814761D01*
X202407142Y-117052857D01*
X202526190Y-117171904D01*
X202764285Y-117290952D01*
X203240476Y-117290952D01*
X203478571Y-117171904D01*
X203597619Y-117052857D01*
X203716666Y-116814761D01*
X203716666Y-114790952D01*
X208240476Y-117290952D02*
X207407142Y-116100476D01*
X206811904Y-117290952D02*
X206811904Y-114790952D01*
X207764285Y-114790952D01*
X208002380Y-114910000D01*
X208121428Y-115029047D01*
X208240476Y-115267142D01*
X208240476Y-115624285D01*
X208121428Y-115862380D01*
X208002380Y-115981428D01*
X207764285Y-116100476D01*
X206811904Y-116100476D01*
X209669047Y-117290952D02*
X209430952Y-117171904D01*
X209311904Y-117052857D01*
X209192857Y-116814761D01*
X209192857Y-116100476D01*
X209311904Y-115862380D01*
X209430952Y-115743333D01*
X209669047Y-115624285D01*
X210026190Y-115624285D01*
X210264285Y-115743333D01*
X210383333Y-115862380D01*
X210502380Y-116100476D01*
X210502380Y-116814761D01*
X210383333Y-117052857D01*
X210264285Y-117171904D01*
X210026190Y-117290952D01*
X209669047Y-117290952D01*
X211573809Y-117290952D02*
X211573809Y-114790952D01*
X211573809Y-115743333D02*
X211811904Y-115624285D01*
X212288095Y-115624285D01*
X212526190Y-115743333D01*
X212645238Y-115862380D01*
X212764285Y-116100476D01*
X212764285Y-116814761D01*
X212645238Y-117052857D01*
X212526190Y-117171904D01*
X212288095Y-117290952D01*
X211811904Y-117290952D01*
X211573809Y-117171904D01*
X214192857Y-117290952D02*
X213954761Y-117171904D01*
X213835714Y-117052857D01*
X213716666Y-116814761D01*
X213716666Y-116100476D01*
X213835714Y-115862380D01*
X213954761Y-115743333D01*
X214192857Y-115624285D01*
X214550000Y-115624285D01*
X214788095Y-115743333D01*
X214907142Y-115862380D01*
X215026190Y-116100476D01*
X215026190Y-116814761D01*
X214907142Y-117052857D01*
X214788095Y-117171904D01*
X214550000Y-117290952D01*
X214192857Y-117290952D01*
X215740476Y-115624285D02*
X216692857Y-115624285D01*
X216097619Y-114790952D02*
X216097619Y-116933809D01*
X216216666Y-117171904D01*
X216454761Y-117290952D01*
X216692857Y-117290952D01*
X217526190Y-117290952D02*
X217526190Y-115624285D01*
X217526190Y-114790952D02*
X217407142Y-114910000D01*
X217526190Y-115029047D01*
X217645238Y-114910000D01*
X217526190Y-114790952D01*
X217526190Y-115029047D01*
X219788095Y-117171904D02*
X219550000Y-117290952D01*
X219073809Y-117290952D01*
X218835714Y-117171904D01*
X218716666Y-117052857D01*
X218597619Y-116814761D01*
X218597619Y-116100476D01*
X218716666Y-115862380D01*
X218835714Y-115743333D01*
X219073809Y-115624285D01*
X219550000Y-115624285D01*
X219788095Y-115743333D01*
X220740476Y-117171904D02*
X220978571Y-117290952D01*
X221454761Y-117290952D01*
X221692857Y-117171904D01*
X221811904Y-116933809D01*
X221811904Y-116814761D01*
X221692857Y-116576666D01*
X221454761Y-116457619D01*
X221097619Y-116457619D01*
X220859523Y-116338571D01*
X220740476Y-116100476D01*
X220740476Y-115981428D01*
X220859523Y-115743333D01*
X221097619Y-115624285D01*
X221454761Y-115624285D01*
X221692857Y-115743333D01*
X200859523Y-120476666D02*
X202050000Y-120476666D01*
X200621428Y-121190952D02*
X201454761Y-118690952D01*
X202288095Y-121190952D01*
X202764285Y-118690952D02*
X203597619Y-121190952D01*
X204430952Y-118690952D01*
X206692857Y-120952857D02*
X206573809Y-121071904D01*
X206216666Y-121190952D01*
X205978571Y-121190952D01*
X205621428Y-121071904D01*
X205383333Y-120833809D01*
X205264285Y-120595714D01*
X205145238Y-120119523D01*
X205145238Y-119762380D01*
X205264285Y-119286190D01*
X205383333Y-119048095D01*
X205621428Y-118810000D01*
X205978571Y-118690952D01*
X206216666Y-118690952D01*
X206573809Y-118810000D01*
X206692857Y-118929047D01*
X209311904Y-118690952D02*
X210740476Y-118690952D01*
X210026190Y-121190952D02*
X210026190Y-118690952D01*
X212526190Y-121071904D02*
X212288095Y-121190952D01*
X211811904Y-121190952D01*
X211573809Y-121071904D01*
X211454761Y-120833809D01*
X211454761Y-119881428D01*
X211573809Y-119643333D01*
X211811904Y-119524285D01*
X212288095Y-119524285D01*
X212526190Y-119643333D01*
X212645238Y-119881428D01*
X212645238Y-120119523D01*
X211454761Y-120357619D01*
X214788095Y-121190952D02*
X214788095Y-119881428D01*
X214669047Y-119643333D01*
X214430952Y-119524285D01*
X213954761Y-119524285D01*
X213716666Y-119643333D01*
X214788095Y-121071904D02*
X214550000Y-121190952D01*
X213954761Y-121190952D01*
X213716666Y-121071904D01*
X213597619Y-120833809D01*
X213597619Y-120595714D01*
X213716666Y-120357619D01*
X213954761Y-120238571D01*
X214550000Y-120238571D01*
X214788095Y-120119523D01*
X215978571Y-121190952D02*
X215978571Y-119524285D01*
X215978571Y-119762380D02*
X216097619Y-119643333D01*
X216335714Y-119524285D01*
X216692857Y-119524285D01*
X216930952Y-119643333D01*
X217050000Y-119881428D01*
X217050000Y-121190952D01*
X217050000Y-119881428D02*
X217169047Y-119643333D01*
X217407142Y-119524285D01*
X217764285Y-119524285D01*
X218002380Y-119643333D01*
X218121428Y-119881428D01*
X218121428Y-121190952D01*
D11*
%TO.C,G\002A\002A\002A*%
G36*
X214393237Y-104783431D02*
G01*
X215088670Y-104831535D01*
X215771902Y-104913032D01*
X216451035Y-105028924D01*
X217134174Y-105180215D01*
X217254667Y-105210386D01*
X217425392Y-105254184D01*
X217558982Y-105289327D01*
X217659460Y-105317052D01*
X217730853Y-105338598D01*
X217777185Y-105355204D01*
X217802482Y-105368107D01*
X217810768Y-105378546D01*
X217810535Y-105381394D01*
X217802010Y-105407299D01*
X217782423Y-105464869D01*
X217754621Y-105545787D01*
X217721451Y-105641736D01*
X217718863Y-105649203D01*
X217663757Y-105826354D01*
X217630018Y-105977272D01*
X217620617Y-106052658D01*
X217608995Y-106206326D01*
X217437123Y-106168239D01*
X217169825Y-106116432D01*
X216872452Y-106071765D01*
X216556819Y-106035292D01*
X216234744Y-106008063D01*
X215918043Y-105991131D01*
X215618535Y-105985547D01*
X215423750Y-105989014D01*
X214934370Y-106020955D01*
X214476057Y-106080786D01*
X214047642Y-106168955D01*
X213647959Y-106285909D01*
X213275840Y-106432096D01*
X212930118Y-106607962D01*
X212609625Y-106813956D01*
X212313194Y-107050525D01*
X212086802Y-107268115D01*
X211872004Y-107518495D01*
X211673830Y-107802451D01*
X211495662Y-108113349D01*
X211340883Y-108444558D01*
X211212874Y-108789444D01*
X211115017Y-109141373D01*
X211102072Y-109199341D01*
X211080584Y-109337007D01*
X211067254Y-109504599D01*
X211061963Y-109690524D01*
X211064596Y-109883192D01*
X211075036Y-110071011D01*
X211093166Y-110242389D01*
X211113791Y-110363000D01*
X211211780Y-110729395D01*
X211348177Y-111094186D01*
X211519414Y-111450270D01*
X211721923Y-111790541D01*
X211952139Y-112107894D01*
X212047400Y-112222456D01*
X212107185Y-112294822D01*
X212152618Y-112356060D01*
X212178775Y-112399090D01*
X212182110Y-112416120D01*
X212154484Y-112428543D01*
X212096236Y-112447128D01*
X212018013Y-112468596D01*
X211984167Y-112477097D01*
X211544366Y-112563602D01*
X211092634Y-112611580D01*
X210635645Y-112620528D01*
X210312000Y-112602943D01*
X209892712Y-112547000D01*
X209490973Y-112452755D01*
X209107622Y-112320801D01*
X208743498Y-112151731D01*
X208399438Y-111946139D01*
X208076284Y-111704619D01*
X207774872Y-111427764D01*
X207496043Y-111116168D01*
X207240635Y-110770424D01*
X207009488Y-110391125D01*
X206905077Y-110192683D01*
X206840427Y-110061296D01*
X206792515Y-109957191D01*
X206757633Y-109870580D01*
X206732071Y-109791678D01*
X206712121Y-109710697D01*
X206700524Y-109652933D01*
X206679081Y-109500325D01*
X206665305Y-109318684D01*
X206659201Y-109120611D01*
X206660768Y-108918706D01*
X206670010Y-108725570D01*
X206686928Y-108553804D01*
X206700326Y-108468583D01*
X206790111Y-108101289D01*
X206919034Y-107749796D01*
X207086839Y-107414403D01*
X207293270Y-107095408D01*
X207538073Y-106793110D01*
X207820991Y-106507808D01*
X208141770Y-106239800D01*
X208500155Y-105989385D01*
X208895888Y-105756862D01*
X209116084Y-105643250D01*
X209395899Y-105510800D01*
X209665037Y-105395951D01*
X209932026Y-105296013D01*
X210205395Y-105208297D01*
X210493674Y-105130114D01*
X210805391Y-105058774D01*
X211149077Y-104991590D01*
X211227660Y-104977482D01*
X211651492Y-104908038D01*
X212056900Y-104853788D01*
X212456109Y-104813684D01*
X212861345Y-104786682D01*
X213284834Y-104771733D01*
X213677500Y-104767717D01*
X214393237Y-104783431D01*
G37*
X214393237Y-104783431D02*
X215088670Y-104831535D01*
X215771902Y-104913032D01*
X216451035Y-105028924D01*
X217134174Y-105180215D01*
X217254667Y-105210386D01*
X217425392Y-105254184D01*
X217558982Y-105289327D01*
X217659460Y-105317052D01*
X217730853Y-105338598D01*
X217777185Y-105355204D01*
X217802482Y-105368107D01*
X217810768Y-105378546D01*
X217810535Y-105381394D01*
X217802010Y-105407299D01*
X217782423Y-105464869D01*
X217754621Y-105545787D01*
X217721451Y-105641736D01*
X217718863Y-105649203D01*
X217663757Y-105826354D01*
X217630018Y-105977272D01*
X217620617Y-106052658D01*
X217608995Y-106206326D01*
X217437123Y-106168239D01*
X217169825Y-106116432D01*
X216872452Y-106071765D01*
X216556819Y-106035292D01*
X216234744Y-106008063D01*
X215918043Y-105991131D01*
X215618535Y-105985547D01*
X215423750Y-105989014D01*
X214934370Y-106020955D01*
X214476057Y-106080786D01*
X214047642Y-106168955D01*
X213647959Y-106285909D01*
X213275840Y-106432096D01*
X212930118Y-106607962D01*
X212609625Y-106813956D01*
X212313194Y-107050525D01*
X212086802Y-107268115D01*
X211872004Y-107518495D01*
X211673830Y-107802451D01*
X211495662Y-108113349D01*
X211340883Y-108444558D01*
X211212874Y-108789444D01*
X211115017Y-109141373D01*
X211102072Y-109199341D01*
X211080584Y-109337007D01*
X211067254Y-109504599D01*
X211061963Y-109690524D01*
X211064596Y-109883192D01*
X211075036Y-110071011D01*
X211093166Y-110242389D01*
X211113791Y-110363000D01*
X211211780Y-110729395D01*
X211348177Y-111094186D01*
X211519414Y-111450270D01*
X211721923Y-111790541D01*
X211952139Y-112107894D01*
X212047400Y-112222456D01*
X212107185Y-112294822D01*
X212152618Y-112356060D01*
X212178775Y-112399090D01*
X212182110Y-112416120D01*
X212154484Y-112428543D01*
X212096236Y-112447128D01*
X212018013Y-112468596D01*
X211984167Y-112477097D01*
X211544366Y-112563602D01*
X211092634Y-112611580D01*
X210635645Y-112620528D01*
X210312000Y-112602943D01*
X209892712Y-112547000D01*
X209490973Y-112452755D01*
X209107622Y-112320801D01*
X208743498Y-112151731D01*
X208399438Y-111946139D01*
X208076284Y-111704619D01*
X207774872Y-111427764D01*
X207496043Y-111116168D01*
X207240635Y-110770424D01*
X207009488Y-110391125D01*
X206905077Y-110192683D01*
X206840427Y-110061296D01*
X206792515Y-109957191D01*
X206757633Y-109870580D01*
X206732071Y-109791678D01*
X206712121Y-109710697D01*
X206700524Y-109652933D01*
X206679081Y-109500325D01*
X206665305Y-109318684D01*
X206659201Y-109120611D01*
X206660768Y-108918706D01*
X206670010Y-108725570D01*
X206686928Y-108553804D01*
X206700326Y-108468583D01*
X206790111Y-108101289D01*
X206919034Y-107749796D01*
X207086839Y-107414403D01*
X207293270Y-107095408D01*
X207538073Y-106793110D01*
X207820991Y-106507808D01*
X208141770Y-106239800D01*
X208500155Y-105989385D01*
X208895888Y-105756862D01*
X209116084Y-105643250D01*
X209395899Y-105510800D01*
X209665037Y-105395951D01*
X209932026Y-105296013D01*
X210205395Y-105208297D01*
X210493674Y-105130114D01*
X210805391Y-105058774D01*
X211149077Y-104991590D01*
X211227660Y-104977482D01*
X211651492Y-104908038D01*
X212056900Y-104853788D01*
X212456109Y-104813684D01*
X212861345Y-104786682D01*
X213284834Y-104771733D01*
X213677500Y-104767717D01*
X214393237Y-104783431D01*
G36*
X213312444Y-111567708D02*
G01*
X213341540Y-111578428D01*
X213419064Y-111625637D01*
X213494226Y-111695106D01*
X213552215Y-111771912D01*
X213570369Y-111809002D01*
X213583957Y-111866636D01*
X213591945Y-111942256D01*
X213592834Y-111973887D01*
X213573214Y-112102830D01*
X213517271Y-112214447D01*
X213429376Y-112303072D01*
X213313901Y-112363039D01*
X213285917Y-112371636D01*
X213224597Y-112387109D01*
X213181508Y-112391235D01*
X213134213Y-112384420D01*
X213093949Y-112375122D01*
X212975152Y-112327184D01*
X212881079Y-112250642D01*
X212814154Y-112152839D01*
X212776800Y-112041117D01*
X212771440Y-111922818D01*
X212772053Y-111920338D01*
X212840022Y-111920338D01*
X212842528Y-112024040D01*
X212875521Y-112121408D01*
X212935954Y-112205376D01*
X213020777Y-112268877D01*
X213126939Y-112304846D01*
X213192498Y-112310333D01*
X213298859Y-112293792D01*
X213360215Y-112262708D01*
X213450677Y-112183494D01*
X213504140Y-112091040D01*
X213524040Y-111998142D01*
X213517143Y-111882202D01*
X213477359Y-111783172D01*
X213411592Y-111704307D01*
X213326745Y-111648861D01*
X213229725Y-111620089D01*
X213127434Y-111621247D01*
X213026777Y-111655588D01*
X212938677Y-111722198D01*
X212871056Y-111817368D01*
X212840022Y-111920338D01*
X212772053Y-111920338D01*
X212800497Y-111805284D01*
X212866394Y-111695856D01*
X212868818Y-111692950D01*
X212959907Y-111615512D01*
X213072227Y-111566882D01*
X213193749Y-111549977D01*
X213312444Y-111567708D01*
G37*
X213312444Y-111567708D02*
X213341540Y-111578428D01*
X213419064Y-111625637D01*
X213494226Y-111695106D01*
X213552215Y-111771912D01*
X213570369Y-111809002D01*
X213583957Y-111866636D01*
X213591945Y-111942256D01*
X213592834Y-111973887D01*
X213573214Y-112102830D01*
X213517271Y-112214447D01*
X213429376Y-112303072D01*
X213313901Y-112363039D01*
X213285917Y-112371636D01*
X213224597Y-112387109D01*
X213181508Y-112391235D01*
X213134213Y-112384420D01*
X213093949Y-112375122D01*
X212975152Y-112327184D01*
X212881079Y-112250642D01*
X212814154Y-112152839D01*
X212776800Y-112041117D01*
X212771440Y-111922818D01*
X212772053Y-111920338D01*
X212840022Y-111920338D01*
X212842528Y-112024040D01*
X212875521Y-112121408D01*
X212935954Y-112205376D01*
X213020777Y-112268877D01*
X213126939Y-112304846D01*
X213192498Y-112310333D01*
X213298859Y-112293792D01*
X213360215Y-112262708D01*
X213450677Y-112183494D01*
X213504140Y-112091040D01*
X213524040Y-111998142D01*
X213517143Y-111882202D01*
X213477359Y-111783172D01*
X213411592Y-111704307D01*
X213326745Y-111648861D01*
X213229725Y-111620089D01*
X213127434Y-111621247D01*
X213026777Y-111655588D01*
X212938677Y-111722198D01*
X212871056Y-111817368D01*
X212840022Y-111920338D01*
X212772053Y-111920338D01*
X212800497Y-111805284D01*
X212866394Y-111695856D01*
X212868818Y-111692950D01*
X212959907Y-111615512D01*
X213072227Y-111566882D01*
X213193749Y-111549977D01*
X213312444Y-111567708D01*
G36*
X216492982Y-106541162D02*
G01*
X216640614Y-106549733D01*
X216772368Y-106561287D01*
X216916422Y-106576779D01*
X217063812Y-106594962D01*
X217205574Y-106614590D01*
X217332744Y-106634417D01*
X217436360Y-106653195D01*
X217507457Y-106669678D01*
X217511349Y-106670824D01*
X217538571Y-106698103D01*
X217558058Y-106752981D01*
X217559372Y-106759973D01*
X217582691Y-106852306D01*
X217623003Y-106968777D01*
X217675307Y-107097352D01*
X217734600Y-107225997D01*
X217795880Y-107342679D01*
X217815560Y-107376300D01*
X217958816Y-107579875D01*
X218120707Y-107748579D01*
X218299101Y-107880529D01*
X218491863Y-107973843D01*
X218492917Y-107974230D01*
X218604476Y-108002801D01*
X218743127Y-108019780D01*
X218895190Y-108024969D01*
X219046986Y-108018172D01*
X219184835Y-107999191D01*
X219244334Y-107985048D01*
X219343416Y-107958498D01*
X219451627Y-107931723D01*
X219515441Y-107917145D01*
X219658526Y-107873306D01*
X219817958Y-107802222D01*
X219982938Y-107709132D01*
X220087749Y-107639507D01*
X220184973Y-107563341D01*
X220298425Y-107462736D01*
X220418784Y-107347007D01*
X220536729Y-107225467D01*
X220642938Y-107107432D01*
X220728091Y-107002216D01*
X220735492Y-106992208D01*
X220785120Y-106926814D01*
X220826227Y-106877154D01*
X220852015Y-106851281D01*
X220856088Y-106849333D01*
X220873735Y-106868593D01*
X220891072Y-106918867D01*
X220905546Y-106988894D01*
X220914605Y-107067415D01*
X220916382Y-107115320D01*
X220906011Y-107259438D01*
X220876598Y-107428055D01*
X220831121Y-107609512D01*
X220772555Y-107792152D01*
X220703876Y-107964315D01*
X220694207Y-107985653D01*
X220624204Y-108137723D01*
X220780928Y-108257764D01*
X220909913Y-108365292D01*
X221006488Y-108467133D01*
X221078203Y-108571576D01*
X221094856Y-108602413D01*
X221115463Y-108647058D01*
X221117331Y-108678941D01*
X221097736Y-108715401D01*
X221071582Y-108750579D01*
X220969042Y-108878474D01*
X220840447Y-109028142D01*
X220691662Y-109193549D01*
X220528554Y-109368665D01*
X220356989Y-109547458D01*
X220182835Y-109723896D01*
X220011957Y-109891946D01*
X219850222Y-110045577D01*
X219703497Y-110178757D01*
X219583000Y-110281128D01*
X219353821Y-110461383D01*
X219143427Y-110614575D01*
X218943489Y-110746152D01*
X218745682Y-110861565D01*
X218541680Y-110966262D01*
X218521170Y-110976090D01*
X218415301Y-111023142D01*
X218298141Y-111069691D01*
X218179081Y-111112575D01*
X218067513Y-111148636D01*
X217972829Y-111174715D01*
X217904420Y-111187651D01*
X217889767Y-111188500D01*
X217859747Y-111171249D01*
X217811900Y-111122617D01*
X217750572Y-111047285D01*
X217717821Y-111003291D01*
X217563147Y-110810595D01*
X217387482Y-110626676D01*
X217202181Y-110462584D01*
X217039189Y-110342720D01*
X216790909Y-110201703D01*
X216538280Y-110102741D01*
X216281684Y-110045819D01*
X216021506Y-110030923D01*
X215758126Y-110058039D01*
X215491929Y-110127154D01*
X215223297Y-110238253D01*
X214952613Y-110391323D01*
X214908367Y-110420221D01*
X214701076Y-110572990D01*
X214523995Y-110734379D01*
X214380249Y-110900865D01*
X214272960Y-111068926D01*
X214215707Y-111201456D01*
X214168917Y-111340494D01*
X213995692Y-111142788D01*
X213789835Y-110887556D01*
X213605722Y-110618293D01*
X213446770Y-110341482D01*
X213316395Y-110063603D01*
X213218016Y-109791139D01*
X213159988Y-109557677D01*
X213138134Y-109394184D01*
X213128375Y-109208962D01*
X213130553Y-109017808D01*
X213144511Y-108836519D01*
X213168694Y-108687106D01*
X213245603Y-108422231D01*
X213357598Y-108168045D01*
X213506553Y-107921382D01*
X213694340Y-107679075D01*
X213886870Y-107473202D01*
X214027721Y-107340991D01*
X214180694Y-107210409D01*
X214336505Y-107088629D01*
X214485869Y-106982819D01*
X214619502Y-106900151D01*
X214651040Y-106883063D01*
X214901738Y-106771275D01*
X215183591Y-106679962D01*
X215490119Y-106610209D01*
X215814846Y-106563101D01*
X216151293Y-106539723D01*
X216492982Y-106541162D01*
G37*
X216492982Y-106541162D02*
X216640614Y-106549733D01*
X216772368Y-106561287D01*
X216916422Y-106576779D01*
X217063812Y-106594962D01*
X217205574Y-106614590D01*
X217332744Y-106634417D01*
X217436360Y-106653195D01*
X217507457Y-106669678D01*
X217511349Y-106670824D01*
X217538571Y-106698103D01*
X217558058Y-106752981D01*
X217559372Y-106759973D01*
X217582691Y-106852306D01*
X217623003Y-106968777D01*
X217675307Y-107097352D01*
X217734600Y-107225997D01*
X217795880Y-107342679D01*
X217815560Y-107376300D01*
X217958816Y-107579875D01*
X218120707Y-107748579D01*
X218299101Y-107880529D01*
X218491863Y-107973843D01*
X218492917Y-107974230D01*
X218604476Y-108002801D01*
X218743127Y-108019780D01*
X218895190Y-108024969D01*
X219046986Y-108018172D01*
X219184835Y-107999191D01*
X219244334Y-107985048D01*
X219343416Y-107958498D01*
X219451627Y-107931723D01*
X219515441Y-107917145D01*
X219658526Y-107873306D01*
X219817958Y-107802222D01*
X219982938Y-107709132D01*
X220087749Y-107639507D01*
X220184973Y-107563341D01*
X220298425Y-107462736D01*
X220418784Y-107347007D01*
X220536729Y-107225467D01*
X220642938Y-107107432D01*
X220728091Y-107002216D01*
X220735492Y-106992208D01*
X220785120Y-106926814D01*
X220826227Y-106877154D01*
X220852015Y-106851281D01*
X220856088Y-106849333D01*
X220873735Y-106868593D01*
X220891072Y-106918867D01*
X220905546Y-106988894D01*
X220914605Y-107067415D01*
X220916382Y-107115320D01*
X220906011Y-107259438D01*
X220876598Y-107428055D01*
X220831121Y-107609512D01*
X220772555Y-107792152D01*
X220703876Y-107964315D01*
X220694207Y-107985653D01*
X220624204Y-108137723D01*
X220780928Y-108257764D01*
X220909913Y-108365292D01*
X221006488Y-108467133D01*
X221078203Y-108571576D01*
X221094856Y-108602413D01*
X221115463Y-108647058D01*
X221117331Y-108678941D01*
X221097736Y-108715401D01*
X221071582Y-108750579D01*
X220969042Y-108878474D01*
X220840447Y-109028142D01*
X220691662Y-109193549D01*
X220528554Y-109368665D01*
X220356989Y-109547458D01*
X220182835Y-109723896D01*
X220011957Y-109891946D01*
X219850222Y-110045577D01*
X219703497Y-110178757D01*
X219583000Y-110281128D01*
X219353821Y-110461383D01*
X219143427Y-110614575D01*
X218943489Y-110746152D01*
X218745682Y-110861565D01*
X218541680Y-110966262D01*
X218521170Y-110976090D01*
X218415301Y-111023142D01*
X218298141Y-111069691D01*
X218179081Y-111112575D01*
X218067513Y-111148636D01*
X217972829Y-111174715D01*
X217904420Y-111187651D01*
X217889767Y-111188500D01*
X217859747Y-111171249D01*
X217811900Y-111122617D01*
X217750572Y-111047285D01*
X217717821Y-111003291D01*
X217563147Y-110810595D01*
X217387482Y-110626676D01*
X217202181Y-110462584D01*
X217039189Y-110342720D01*
X216790909Y-110201703D01*
X216538280Y-110102741D01*
X216281684Y-110045819D01*
X216021506Y-110030923D01*
X215758126Y-110058039D01*
X215491929Y-110127154D01*
X215223297Y-110238253D01*
X214952613Y-110391323D01*
X214908367Y-110420221D01*
X214701076Y-110572990D01*
X214523995Y-110734379D01*
X214380249Y-110900865D01*
X214272960Y-111068926D01*
X214215707Y-111201456D01*
X214168917Y-111340494D01*
X213995692Y-111142788D01*
X213789835Y-110887556D01*
X213605722Y-110618293D01*
X213446770Y-110341482D01*
X213316395Y-110063603D01*
X213218016Y-109791139D01*
X213159988Y-109557677D01*
X213138134Y-109394184D01*
X213128375Y-109208962D01*
X213130553Y-109017808D01*
X213144511Y-108836519D01*
X213168694Y-108687106D01*
X213245603Y-108422231D01*
X213357598Y-108168045D01*
X213506553Y-107921382D01*
X213694340Y-107679075D01*
X213886870Y-107473202D01*
X214027721Y-107340991D01*
X214180694Y-107210409D01*
X214336505Y-107088629D01*
X214485869Y-106982819D01*
X214619502Y-106900151D01*
X214651040Y-106883063D01*
X214901738Y-106771275D01*
X215183591Y-106679962D01*
X215490119Y-106610209D01*
X215814846Y-106563101D01*
X216151293Y-106539723D01*
X216492982Y-106541162D01*
G36*
X214616154Y-98071548D02*
G01*
X214843459Y-98078001D01*
X214979250Y-98084404D01*
X215645461Y-98135126D01*
X216281449Y-98211273D01*
X216891598Y-98313888D01*
X217480290Y-98444012D01*
X218051908Y-98602688D01*
X218610837Y-98790958D01*
X219161459Y-99009865D01*
X219492342Y-99157591D01*
X219558167Y-99189832D01*
X219605589Y-99216201D01*
X219624607Y-99231124D01*
X219624634Y-99231326D01*
X219604775Y-99235913D01*
X219549040Y-99241253D01*
X219463868Y-99246922D01*
X219355700Y-99252500D01*
X219230977Y-99257562D01*
X219217875Y-99258023D01*
X218980427Y-99266494D01*
X218782977Y-99274119D01*
X218623204Y-99281058D01*
X218498786Y-99287470D01*
X218407399Y-99293517D01*
X218346721Y-99299358D01*
X218314430Y-99305153D01*
X218308204Y-99311063D01*
X218325720Y-99317248D01*
X218334167Y-99318976D01*
X219039115Y-99461636D01*
X219705147Y-99615196D01*
X220334441Y-99780387D01*
X220929175Y-99957941D01*
X221491528Y-100148589D01*
X222023676Y-100353063D01*
X222527798Y-100572095D01*
X223006073Y-100806417D01*
X223396342Y-101019553D01*
X223529710Y-101098586D01*
X223673315Y-101188099D01*
X223821599Y-101284218D01*
X223969006Y-101383068D01*
X224109978Y-101480772D01*
X224238958Y-101573455D01*
X224350389Y-101657243D01*
X224438712Y-101728260D01*
X224498372Y-101782630D01*
X224511747Y-101797364D01*
X224520729Y-101835792D01*
X224516230Y-101909018D01*
X224499330Y-102012087D01*
X224471110Y-102140048D01*
X224432649Y-102287948D01*
X224385029Y-102450833D01*
X224335477Y-102605416D01*
X224175442Y-103036337D01*
X223986489Y-103454077D01*
X223764709Y-103866490D01*
X223506194Y-104281433D01*
X223487588Y-104309333D01*
X223393025Y-104447546D01*
X223301194Y-104576157D01*
X223215517Y-104690821D01*
X223139422Y-104787194D01*
X223076331Y-104860932D01*
X223029671Y-104907691D01*
X223003633Y-104923166D01*
X222972966Y-104918667D01*
X222909645Y-104906346D01*
X222822254Y-104887965D01*
X222719374Y-104865287D01*
X222694500Y-104859666D01*
X222589849Y-104836302D01*
X222499292Y-104816824D01*
X222431212Y-104802980D01*
X222393994Y-104796520D01*
X222390606Y-104796263D01*
X222371531Y-104814043D01*
X222339116Y-104861983D01*
X222298407Y-104932109D01*
X222266695Y-104992055D01*
X222148148Y-105208604D01*
X222028910Y-105395328D01*
X221911029Y-105549700D01*
X221796557Y-105669194D01*
X221687543Y-105751283D01*
X221626502Y-105781190D01*
X221568083Y-105800416D01*
X221527329Y-105808118D01*
X221517364Y-105806252D01*
X221516930Y-105781712D01*
X221526108Y-105726556D01*
X221543066Y-105650923D01*
X221551412Y-105617988D01*
X221596314Y-105388181D01*
X221613174Y-105156432D01*
X221602501Y-104931152D01*
X221564805Y-104720752D01*
X221500595Y-104533642D01*
X221483568Y-104497650D01*
X221398318Y-104356566D01*
X221290513Y-104232587D01*
X221156629Y-104123478D01*
X220993140Y-104027000D01*
X220796522Y-103940918D01*
X220563251Y-103862993D01*
X220421794Y-103823776D01*
X220296912Y-103791412D01*
X220203608Y-103768632D01*
X220132504Y-103754300D01*
X220074223Y-103747281D01*
X220019390Y-103746440D01*
X219958628Y-103750641D01*
X219883668Y-103758627D01*
X219608609Y-103810242D01*
X219336187Y-103902763D01*
X219069857Y-104034768D01*
X218831656Y-104190992D01*
X218694736Y-104301609D01*
X218547055Y-104437200D01*
X218399749Y-104586506D01*
X218263953Y-104738271D01*
X218156200Y-104873858D01*
X218031151Y-105043889D01*
X217873478Y-104983175D01*
X217676647Y-104912522D01*
X217445424Y-104838275D01*
X217187382Y-104762408D01*
X216910095Y-104686891D01*
X216621135Y-104613697D01*
X216328076Y-104544799D01*
X216038492Y-104482169D01*
X215759956Y-104427778D01*
X215697384Y-104416487D01*
X215082686Y-104322269D01*
X214458040Y-104255205D01*
X213831289Y-104215578D01*
X213210279Y-104203668D01*
X212602853Y-104219759D01*
X212016854Y-104264132D01*
X211878334Y-104279246D01*
X211215565Y-104376210D01*
X210568596Y-104511334D01*
X209938511Y-104684204D01*
X209326401Y-104894407D01*
X208733351Y-105141530D01*
X208160449Y-105425160D01*
X207608784Y-105744884D01*
X207079442Y-106100287D01*
X207073500Y-106104572D01*
X206577986Y-106486097D01*
X206104309Y-106900072D01*
X205649730Y-107349045D01*
X205213194Y-107833583D01*
X205141073Y-107918147D01*
X205078018Y-107991892D01*
X205029472Y-108048464D01*
X205000881Y-108081511D01*
X204996430Y-108086525D01*
X204994546Y-108067738D01*
X204992725Y-108008375D01*
X204990975Y-107910194D01*
X204989303Y-107774950D01*
X204987716Y-107604402D01*
X204986222Y-107400307D01*
X204984828Y-107164421D01*
X204983542Y-106898503D01*
X204982371Y-106604308D01*
X204981322Y-106283595D01*
X204980404Y-105938120D01*
X204979622Y-105569640D01*
X204978985Y-105179914D01*
X204978500Y-104770697D01*
X204978174Y-104343748D01*
X204978015Y-103900823D01*
X204978000Y-103712897D01*
X204978000Y-99319161D01*
X205099709Y-99274987D01*
X205145108Y-99259179D01*
X205225979Y-99231741D01*
X205337574Y-99194256D01*
X205475148Y-99148307D01*
X205633952Y-99095478D01*
X205809241Y-99037351D01*
X205996266Y-98975509D01*
X206131584Y-98930872D01*
X206319504Y-98868922D01*
X206495282Y-98810932D01*
X206654790Y-98758269D01*
X206793897Y-98712297D01*
X206908474Y-98674382D01*
X206994391Y-98645889D01*
X207047519Y-98628184D01*
X207063623Y-98622710D01*
X207084850Y-98634893D01*
X207125885Y-98674196D01*
X207180589Y-98734292D01*
X207235849Y-98800203D01*
X207439845Y-99032820D01*
X207674643Y-99267206D01*
X207930077Y-99494457D01*
X208195982Y-99705670D01*
X208462196Y-99891939D01*
X208534844Y-99938064D01*
X208845717Y-100111722D01*
X209166926Y-100255038D01*
X209494579Y-100367651D01*
X209824784Y-100449195D01*
X210153648Y-100499307D01*
X210477279Y-100517623D01*
X210791785Y-100503779D01*
X211093273Y-100457412D01*
X211377851Y-100378157D01*
X211641627Y-100265651D01*
X211700764Y-100234020D01*
X211942294Y-100076500D01*
X212151824Y-99891712D01*
X212328715Y-99680825D01*
X212472323Y-99445009D01*
X212582008Y-99185435D01*
X212657130Y-98903272D01*
X212697046Y-98599692D01*
X212703834Y-98403464D01*
X212703834Y-98154640D01*
X212793792Y-98141684D01*
X212952164Y-98122908D01*
X213145329Y-98106600D01*
X213365809Y-98092955D01*
X213606123Y-98082170D01*
X213858794Y-98074441D01*
X214116343Y-98069964D01*
X214371289Y-98068934D01*
X214616154Y-98071548D01*
G37*
X214616154Y-98071548D02*
X214843459Y-98078001D01*
X214979250Y-98084404D01*
X215645461Y-98135126D01*
X216281449Y-98211273D01*
X216891598Y-98313888D01*
X217480290Y-98444012D01*
X218051908Y-98602688D01*
X218610837Y-98790958D01*
X219161459Y-99009865D01*
X219492342Y-99157591D01*
X219558167Y-99189832D01*
X219605589Y-99216201D01*
X219624607Y-99231124D01*
X219624634Y-99231326D01*
X219604775Y-99235913D01*
X219549040Y-99241253D01*
X219463868Y-99246922D01*
X219355700Y-99252500D01*
X219230977Y-99257562D01*
X219217875Y-99258023D01*
X218980427Y-99266494D01*
X218782977Y-99274119D01*
X218623204Y-99281058D01*
X218498786Y-99287470D01*
X218407399Y-99293517D01*
X218346721Y-99299358D01*
X218314430Y-99305153D01*
X218308204Y-99311063D01*
X218325720Y-99317248D01*
X218334167Y-99318976D01*
X219039115Y-99461636D01*
X219705147Y-99615196D01*
X220334441Y-99780387D01*
X220929175Y-99957941D01*
X221491528Y-100148589D01*
X222023676Y-100353063D01*
X222527798Y-100572095D01*
X223006073Y-100806417D01*
X223396342Y-101019553D01*
X223529710Y-101098586D01*
X223673315Y-101188099D01*
X223821599Y-101284218D01*
X223969006Y-101383068D01*
X224109978Y-101480772D01*
X224238958Y-101573455D01*
X224350389Y-101657243D01*
X224438712Y-101728260D01*
X224498372Y-101782630D01*
X224511747Y-101797364D01*
X224520729Y-101835792D01*
X224516230Y-101909018D01*
X224499330Y-102012087D01*
X224471110Y-102140048D01*
X224432649Y-102287948D01*
X224385029Y-102450833D01*
X224335477Y-102605416D01*
X224175442Y-103036337D01*
X223986489Y-103454077D01*
X223764709Y-103866490D01*
X223506194Y-104281433D01*
X223487588Y-104309333D01*
X223393025Y-104447546D01*
X223301194Y-104576157D01*
X223215517Y-104690821D01*
X223139422Y-104787194D01*
X223076331Y-104860932D01*
X223029671Y-104907691D01*
X223003633Y-104923166D01*
X222972966Y-104918667D01*
X222909645Y-104906346D01*
X222822254Y-104887965D01*
X222719374Y-104865287D01*
X222694500Y-104859666D01*
X222589849Y-104836302D01*
X222499292Y-104816824D01*
X222431212Y-104802980D01*
X222393994Y-104796520D01*
X222390606Y-104796263D01*
X222371531Y-104814043D01*
X222339116Y-104861983D01*
X222298407Y-104932109D01*
X222266695Y-104992055D01*
X222148148Y-105208604D01*
X222028910Y-105395328D01*
X221911029Y-105549700D01*
X221796557Y-105669194D01*
X221687543Y-105751283D01*
X221626502Y-105781190D01*
X221568083Y-105800416D01*
X221527329Y-105808118D01*
X221517364Y-105806252D01*
X221516930Y-105781712D01*
X221526108Y-105726556D01*
X221543066Y-105650923D01*
X221551412Y-105617988D01*
X221596314Y-105388181D01*
X221613174Y-105156432D01*
X221602501Y-104931152D01*
X221564805Y-104720752D01*
X221500595Y-104533642D01*
X221483568Y-104497650D01*
X221398318Y-104356566D01*
X221290513Y-104232587D01*
X221156629Y-104123478D01*
X220993140Y-104027000D01*
X220796522Y-103940918D01*
X220563251Y-103862993D01*
X220421794Y-103823776D01*
X220296912Y-103791412D01*
X220203608Y-103768632D01*
X220132504Y-103754300D01*
X220074223Y-103747281D01*
X220019390Y-103746440D01*
X219958628Y-103750641D01*
X219883668Y-103758627D01*
X219608609Y-103810242D01*
X219336187Y-103902763D01*
X219069857Y-104034768D01*
X218831656Y-104190992D01*
X218694736Y-104301609D01*
X218547055Y-104437200D01*
X218399749Y-104586506D01*
X218263953Y-104738271D01*
X218156200Y-104873858D01*
X218031151Y-105043889D01*
X217873478Y-104983175D01*
X217676647Y-104912522D01*
X217445424Y-104838275D01*
X217187382Y-104762408D01*
X216910095Y-104686891D01*
X216621135Y-104613697D01*
X216328076Y-104544799D01*
X216038492Y-104482169D01*
X215759956Y-104427778D01*
X215697384Y-104416487D01*
X215082686Y-104322269D01*
X214458040Y-104255205D01*
X213831289Y-104215578D01*
X213210279Y-104203668D01*
X212602853Y-104219759D01*
X212016854Y-104264132D01*
X211878334Y-104279246D01*
X211215565Y-104376210D01*
X210568596Y-104511334D01*
X209938511Y-104684204D01*
X209326401Y-104894407D01*
X208733351Y-105141530D01*
X208160449Y-105425160D01*
X207608784Y-105744884D01*
X207079442Y-106100287D01*
X207073500Y-106104572D01*
X206577986Y-106486097D01*
X206104309Y-106900072D01*
X205649730Y-107349045D01*
X205213194Y-107833583D01*
X205141073Y-107918147D01*
X205078018Y-107991892D01*
X205029472Y-108048464D01*
X205000881Y-108081511D01*
X204996430Y-108086525D01*
X204994546Y-108067738D01*
X204992725Y-108008375D01*
X204990975Y-107910194D01*
X204989303Y-107774950D01*
X204987716Y-107604402D01*
X204986222Y-107400307D01*
X204984828Y-107164421D01*
X204983542Y-106898503D01*
X204982371Y-106604308D01*
X204981322Y-106283595D01*
X204980404Y-105938120D01*
X204979622Y-105569640D01*
X204978985Y-105179914D01*
X204978500Y-104770697D01*
X204978174Y-104343748D01*
X204978015Y-103900823D01*
X204978000Y-103712897D01*
X204978000Y-99319161D01*
X205099709Y-99274987D01*
X205145108Y-99259179D01*
X205225979Y-99231741D01*
X205337574Y-99194256D01*
X205475148Y-99148307D01*
X205633952Y-99095478D01*
X205809241Y-99037351D01*
X205996266Y-98975509D01*
X206131584Y-98930872D01*
X206319504Y-98868922D01*
X206495282Y-98810932D01*
X206654790Y-98758269D01*
X206793897Y-98712297D01*
X206908474Y-98674382D01*
X206994391Y-98645889D01*
X207047519Y-98628184D01*
X207063623Y-98622710D01*
X207084850Y-98634893D01*
X207125885Y-98674196D01*
X207180589Y-98734292D01*
X207235849Y-98800203D01*
X207439845Y-99032820D01*
X207674643Y-99267206D01*
X207930077Y-99494457D01*
X208195982Y-99705670D01*
X208462196Y-99891939D01*
X208534844Y-99938064D01*
X208845717Y-100111722D01*
X209166926Y-100255038D01*
X209494579Y-100367651D01*
X209824784Y-100449195D01*
X210153648Y-100499307D01*
X210477279Y-100517623D01*
X210791785Y-100503779D01*
X211093273Y-100457412D01*
X211377851Y-100378157D01*
X211641627Y-100265651D01*
X211700764Y-100234020D01*
X211942294Y-100076500D01*
X212151824Y-99891712D01*
X212328715Y-99680825D01*
X212472323Y-99445009D01*
X212582008Y-99185435D01*
X212657130Y-98903272D01*
X212697046Y-98599692D01*
X212703834Y-98403464D01*
X212703834Y-98154640D01*
X212793792Y-98141684D01*
X212952164Y-98122908D01*
X213145329Y-98106600D01*
X213365809Y-98092955D01*
X213606123Y-98082170D01*
X213858794Y-98074441D01*
X214116343Y-98069964D01*
X214371289Y-98068934D01*
X214616154Y-98071548D01*
G36*
X207873091Y-98184170D02*
G01*
X208066805Y-98184347D01*
X208286983Y-98184648D01*
X208530981Y-98185071D01*
X208796155Y-98185612D01*
X209079858Y-98186268D01*
X209379448Y-98187035D01*
X209692278Y-98187910D01*
X209851625Y-98188383D01*
X212301667Y-98195800D01*
X212301582Y-98379192D01*
X212297613Y-98492521D01*
X212287223Y-98621528D01*
X212272551Y-98740430D01*
X212270557Y-98753083D01*
X212222496Y-98980833D01*
X212155363Y-99177812D01*
X212064823Y-99352938D01*
X211946539Y-99515126D01*
X211847357Y-99623269D01*
X211755597Y-99711854D01*
X211676292Y-99777298D01*
X211595689Y-99829707D01*
X211500036Y-99879187D01*
X211497334Y-99880474D01*
X211388090Y-99930375D01*
X211291009Y-99968809D01*
X211197633Y-99997342D01*
X211099506Y-100017540D01*
X210988169Y-100030967D01*
X210855166Y-100039190D01*
X210692040Y-100043774D01*
X210608334Y-100045045D01*
X210472896Y-100046304D01*
X210348316Y-100046604D01*
X210242131Y-100045993D01*
X210161879Y-100044522D01*
X210115098Y-100042240D01*
X210110917Y-100041761D01*
X209754848Y-99972998D01*
X209411813Y-99866688D01*
X209080072Y-99721936D01*
X208757882Y-99537851D01*
X208443501Y-99313541D01*
X208135187Y-99048113D01*
X208092180Y-99007402D01*
X208019286Y-98934786D01*
X207936043Y-98847187D01*
X207846580Y-98749471D01*
X207755030Y-98646501D01*
X207665522Y-98543143D01*
X207582189Y-98444261D01*
X207509161Y-98354721D01*
X207450569Y-98279387D01*
X207410545Y-98223124D01*
X207393218Y-98190796D01*
X207394059Y-98185272D01*
X207415778Y-98184775D01*
X207477186Y-98184420D01*
X207575637Y-98184203D01*
X207708487Y-98184121D01*
X207873091Y-98184170D01*
G37*
X207873091Y-98184170D02*
X208066805Y-98184347D01*
X208286983Y-98184648D01*
X208530981Y-98185071D01*
X208796155Y-98185612D01*
X209079858Y-98186268D01*
X209379448Y-98187035D01*
X209692278Y-98187910D01*
X209851625Y-98188383D01*
X212301667Y-98195800D01*
X212301582Y-98379192D01*
X212297613Y-98492521D01*
X212287223Y-98621528D01*
X212272551Y-98740430D01*
X212270557Y-98753083D01*
X212222496Y-98980833D01*
X212155363Y-99177812D01*
X212064823Y-99352938D01*
X211946539Y-99515126D01*
X211847357Y-99623269D01*
X211755597Y-99711854D01*
X211676292Y-99777298D01*
X211595689Y-99829707D01*
X211500036Y-99879187D01*
X211497334Y-99880474D01*
X211388090Y-99930375D01*
X211291009Y-99968809D01*
X211197633Y-99997342D01*
X211099506Y-100017540D01*
X210988169Y-100030967D01*
X210855166Y-100039190D01*
X210692040Y-100043774D01*
X210608334Y-100045045D01*
X210472896Y-100046304D01*
X210348316Y-100046604D01*
X210242131Y-100045993D01*
X210161879Y-100044522D01*
X210115098Y-100042240D01*
X210110917Y-100041761D01*
X209754848Y-99972998D01*
X209411813Y-99866688D01*
X209080072Y-99721936D01*
X208757882Y-99537851D01*
X208443501Y-99313541D01*
X208135187Y-99048113D01*
X208092180Y-99007402D01*
X208019286Y-98934786D01*
X207936043Y-98847187D01*
X207846580Y-98749471D01*
X207755030Y-98646501D01*
X207665522Y-98543143D01*
X207582189Y-98444261D01*
X207509161Y-98354721D01*
X207450569Y-98279387D01*
X207410545Y-98223124D01*
X207393218Y-98190796D01*
X207394059Y-98185272D01*
X207415778Y-98184775D01*
X207477186Y-98184420D01*
X207575637Y-98184203D01*
X207708487Y-98184121D01*
X207873091Y-98184170D01*
G36*
X213137956Y-111744097D02*
G01*
X213214337Y-111753710D01*
X213276274Y-111767752D01*
X213307289Y-111781337D01*
X213333403Y-111825509D01*
X213335677Y-111883082D01*
X213318087Y-111939635D01*
X213284611Y-111980749D01*
X213248965Y-111992833D01*
X213244809Y-112005808D01*
X213266222Y-112037355D01*
X213268999Y-112040458D01*
X213308004Y-112090232D01*
X213341198Y-112143881D01*
X213359048Y-112185478D01*
X213360000Y-112192525D01*
X213342836Y-112203303D01*
X213329649Y-112204500D01*
X213301284Y-112188134D01*
X213262308Y-112146337D01*
X213239040Y-112114541D01*
X213184943Y-112049099D01*
X213132685Y-112019914D01*
X213121224Y-112017885D01*
X213086045Y-112016621D01*
X213069232Y-112030715D01*
X213064028Y-112070730D01*
X213063667Y-112107844D01*
X213059628Y-112171133D01*
X213045856Y-112200269D01*
X213031917Y-112204500D01*
X213017781Y-112197891D01*
X213008443Y-112173613D01*
X213003006Y-112124991D01*
X213000569Y-112045347D01*
X213000167Y-111968768D01*
X213000167Y-111875626D01*
X213063376Y-111875626D01*
X213071796Y-111919986D01*
X213100714Y-111943138D01*
X213152755Y-111949588D01*
X213211786Y-111938482D01*
X213234392Y-111928588D01*
X213268932Y-111895658D01*
X213268747Y-111859632D01*
X213240106Y-111827969D01*
X213189280Y-111808127D01*
X213131593Y-111806320D01*
X213081935Y-111828732D01*
X213063376Y-111875626D01*
X213000167Y-111875626D01*
X213000167Y-111733037D01*
X213137956Y-111744097D01*
G37*
X213137956Y-111744097D02*
X213214337Y-111753710D01*
X213276274Y-111767752D01*
X213307289Y-111781337D01*
X213333403Y-111825509D01*
X213335677Y-111883082D01*
X213318087Y-111939635D01*
X213284611Y-111980749D01*
X213248965Y-111992833D01*
X213244809Y-112005808D01*
X213266222Y-112037355D01*
X213268999Y-112040458D01*
X213308004Y-112090232D01*
X213341198Y-112143881D01*
X213359048Y-112185478D01*
X213360000Y-112192525D01*
X213342836Y-112203303D01*
X213329649Y-112204500D01*
X213301284Y-112188134D01*
X213262308Y-112146337D01*
X213239040Y-112114541D01*
X213184943Y-112049099D01*
X213132685Y-112019914D01*
X213121224Y-112017885D01*
X213086045Y-112016621D01*
X213069232Y-112030715D01*
X213064028Y-112070730D01*
X213063667Y-112107844D01*
X213059628Y-112171133D01*
X213045856Y-112200269D01*
X213031917Y-112204500D01*
X213017781Y-112197891D01*
X213008443Y-112173613D01*
X213003006Y-112124991D01*
X213000569Y-112045347D01*
X213000167Y-111968768D01*
X213000167Y-111875626D01*
X213063376Y-111875626D01*
X213071796Y-111919986D01*
X213100714Y-111943138D01*
X213152755Y-111949588D01*
X213211786Y-111938482D01*
X213234392Y-111928588D01*
X213268932Y-111895658D01*
X213268747Y-111859632D01*
X213240106Y-111827969D01*
X213189280Y-111808127D01*
X213131593Y-111806320D01*
X213081935Y-111828732D01*
X213063376Y-111875626D01*
X213000167Y-111875626D01*
X213000167Y-111733037D01*
X213137956Y-111744097D01*
D10*
%TO.C,Ant1*%
X226970000Y-57320000D02*
X226970000Y-49620000D01*
X227070000Y-57320000D02*
X226970000Y-57320000D01*
X226970000Y-57320000D02*
X227070000Y-57320000D01*
X227070000Y-57320000D02*
X226970000Y-57320000D01*
X234770000Y-57320000D02*
X227070000Y-57320000D01*
X234770000Y-49620000D02*
X234770000Y-57320000D01*
X226970000Y-49620000D02*
X234770000Y-49620000D01*
%TO.C,DC-DC1*%
X102997000Y-53403500D02*
X102997000Y-74930000D01*
X102997000Y-74930000D02*
X59944000Y-74930000D01*
X59944000Y-74930000D02*
X59944000Y-53403500D01*
X59944000Y-53403500D02*
X102997000Y-53403500D01*
%TO.C,PA1*%
X223266000Y-72263000D02*
X220980000Y-72263000D01*
X223266000Y-54356000D02*
X223266000Y-72263000D01*
X220980000Y-54356000D02*
X223266000Y-54356000D01*
X217333102Y-63500000D02*
G75*
G03X217333102Y-63500000I-1796051J0D01*
G01*
X213995000Y-66040000D02*
G75*
G03X213995000Y-66040000I-635000J0D01*
G01*
X208280000Y-54356000D02*
X220980000Y-54356000D01*
X220980000Y-72263000D02*
X208280000Y-72263000D01*
X208280000Y-72263000D02*
X208280000Y-54356000D01*
%TO.C,R1*%
X77610859Y-132964808D02*
X82550000Y-137903949D01*
X75814808Y-134760859D02*
X77610859Y-132964808D01*
X80753949Y-139700000D02*
X75814808Y-134760859D01*
X82550000Y-137903949D02*
X80753949Y-139700000D01*
%TO.C,R2*%
X62230000Y-102870000D02*
X59690000Y-102870000D01*
X59690000Y-102870000D02*
X59690000Y-95885000D01*
X59690000Y-95885000D02*
X62230000Y-95885000D01*
X62230000Y-95885000D02*
X62230000Y-102870000D01*
%TO.C,R3*%
X72390000Y-127743949D02*
X70593949Y-129540000D01*
X70593949Y-129540000D02*
X65654808Y-124600859D01*
X65654808Y-124600859D02*
X67450859Y-122804808D01*
X67450859Y-122804808D02*
X72390000Y-127743949D01*
%TO.C,R4*%
X62230000Y-80645000D02*
X62230000Y-87630000D01*
X59690000Y-80645000D02*
X62230000Y-80645000D01*
X59690000Y-87630000D02*
X59690000Y-80645000D01*
X62230000Y-87630000D02*
X59690000Y-87630000D01*
%TO.C,R5*%
X231140000Y-69215000D02*
X231140000Y-76200000D01*
X228600000Y-69215000D02*
X231140000Y-69215000D01*
X228600000Y-76200000D02*
X228600000Y-69215000D01*
X231140000Y-76200000D02*
X228600000Y-76200000D01*
%TO.C,R6*%
X225175192Y-124600859D02*
X220236051Y-129540000D01*
X223379141Y-122804808D02*
X225175192Y-124600859D01*
X218440000Y-127743949D02*
X223379141Y-122804808D01*
X220236051Y-129540000D02*
X218440000Y-127743949D01*
%TO.C,R7*%
X231140000Y-90170000D02*
X228600000Y-90170000D01*
X228600000Y-90170000D02*
X228600000Y-83185000D01*
X228600000Y-83185000D02*
X231140000Y-83185000D01*
X231140000Y-83185000D02*
X231140000Y-90170000D01*
%TO.C,R8*%
X210076051Y-139700000D02*
X208280000Y-137903949D01*
X208280000Y-137903949D02*
X213219141Y-132964808D01*
X213219141Y-132964808D02*
X215015192Y-134760859D01*
X215015192Y-134760859D02*
X210076051Y-139700000D01*
%TO.C,R9*%
X148590000Y-146050000D02*
X148590000Y-143510000D01*
X148590000Y-143510000D02*
X155575000Y-143510000D01*
X155575000Y-143510000D02*
X155575000Y-146050000D01*
X155575000Y-146050000D02*
X148590000Y-146050000D01*
%TO.C,R10*%
X141605000Y-146050000D02*
X134620000Y-146050000D01*
X141605000Y-143510000D02*
X141605000Y-146050000D01*
X134620000Y-143510000D02*
X141605000Y-143510000D01*
X134620000Y-146050000D02*
X134620000Y-143510000D01*
%TO.C,Rasp1*%
X163260000Y-70188000D02*
X163260000Y-79332000D01*
X172404000Y-70188000D02*
X163260000Y-70188000D01*
X172404000Y-70188000D02*
X172404000Y-79332000D01*
X172404000Y-79332000D02*
X163260000Y-79332000D01*
X163260000Y-79332000D02*
X163768000Y-79332000D01*
X163260000Y-79332000D02*
X163260000Y-78824000D01*
X127700000Y-65616000D02*
X127700000Y-79840000D01*
X141924000Y-65616000D02*
X127700000Y-65616000D01*
X141924000Y-65616000D02*
X141924000Y-79840000D01*
X141924000Y-79840000D02*
X127700000Y-79840000D01*
X113476000Y-80348000D02*
X110428000Y-80348000D01*
X113476000Y-58504000D02*
X113476000Y-80348000D01*
X113476000Y-58504000D02*
X110428000Y-58504000D01*
X110428000Y-58504000D02*
X110428000Y-80348000D01*
X177484000Y-64092000D02*
X192724000Y-64092000D01*
X177484000Y-77300000D02*
X177484000Y-64092000D01*
X192724000Y-77300000D02*
X177484000Y-77300000D01*
X192724000Y-77300000D02*
X192724000Y-81872000D01*
X192724000Y-64092000D02*
X192724000Y-60028000D01*
X193232000Y-64092000D02*
X192724000Y-64092000D01*
X194756000Y-64092000D02*
X193232000Y-64092000D01*
X194756000Y-77300000D02*
X194756000Y-64092000D01*
X193232000Y-77300000D02*
X194756000Y-77300000D01*
X192216000Y-64092000D02*
X193232000Y-64092000D01*
X192216000Y-77300000D02*
X193232000Y-77300000D01*
X192724000Y-59520000D02*
X192724000Y-60028000D01*
X192724000Y-41232000D02*
X192724000Y-43264000D01*
X192724000Y-81872000D02*
X192724000Y-81364000D01*
X192724000Y-96096000D02*
X192724000Y-95588000D01*
X177484000Y-81872000D02*
X192724000Y-81872000D01*
X177484000Y-95588000D02*
X177484000Y-81872000D01*
X177484000Y-95588000D02*
X192724000Y-95588000D01*
X194756000Y-81872000D02*
X192724000Y-81872000D01*
X194756000Y-95588000D02*
X194756000Y-81872000D01*
X192724000Y-95588000D02*
X194756000Y-95588000D01*
X192724000Y-81872000D02*
X192216000Y-81872000D01*
X173420000Y-59520000D02*
X192216000Y-59520000D01*
X173420000Y-43264000D02*
X173420000Y-59520000D01*
X173420000Y-43264000D02*
X192724000Y-43264000D01*
X194756000Y-59520000D02*
X192724000Y-59520000D01*
X194756000Y-43264000D02*
X194756000Y-59520000D01*
X192724000Y-43264000D02*
X194756000Y-43264000D01*
X192724000Y-59520000D02*
X192216000Y-59520000D01*
X192724000Y-43264000D02*
X192216000Y-43264000D01*
X167832000Y-41232000D02*
X192216000Y-41232000D01*
X192724000Y-95588000D02*
X192216000Y-95588000D01*
X166816000Y-38184000D02*
X166816000Y-41232000D01*
X160720000Y-38184000D02*
X166816000Y-38184000D01*
X160720000Y-41232000D02*
X160720000Y-38184000D01*
X167324000Y-41740000D02*
X167324000Y-41232000D01*
X160212000Y-41232000D02*
X167832000Y-41232000D01*
X160212000Y-41740000D02*
X160212000Y-41232000D01*
X160212000Y-53424000D02*
X160212000Y-41740000D01*
X167324000Y-53424000D02*
X160212000Y-53424000D01*
X167324000Y-53424000D02*
X167324000Y-41740000D01*
X167324000Y-41232000D02*
X167832000Y-41232000D01*
X160212000Y-41232000D02*
X156148000Y-41232000D01*
X160212000Y-41740000D02*
X160212000Y-41232000D01*
X160212000Y-41232000D02*
X160212000Y-41740000D01*
X156148000Y-64600000D02*
X156148000Y-42248000D01*
X153100000Y-64600000D02*
X156148000Y-64600000D01*
X153100000Y-64600000D02*
X153100000Y-42248000D01*
X156148000Y-41232000D02*
X153100000Y-41232000D01*
X153100000Y-42248000D02*
X156148000Y-42248000D01*
X153100000Y-41232000D02*
X148528000Y-41232000D01*
X148020000Y-51392000D02*
X148020000Y-41740000D01*
X132780000Y-51392000D02*
X148020000Y-51392000D01*
X132780000Y-51392000D02*
X132780000Y-41740000D01*
X132780000Y-39200000D02*
X132780000Y-40724000D01*
X148020000Y-39200000D02*
X132780000Y-39200000D01*
X148020000Y-39200000D02*
X148020000Y-40724000D01*
X132272000Y-41232000D02*
X123636000Y-41232000D01*
X148020000Y-41232000D02*
X148528000Y-41232000D01*
X148020000Y-41740000D02*
X148020000Y-40724000D01*
X132780000Y-41232000D02*
X132272000Y-41232000D01*
X132780000Y-40724000D02*
X132780000Y-41232000D01*
X132780000Y-41740000D02*
X132780000Y-40724000D01*
X132780000Y-41232000D02*
X132780000Y-41740000D01*
X122620000Y-41232000D02*
X123636000Y-41232000D01*
X108396000Y-41232000D02*
X114492000Y-41232000D01*
X122620000Y-45296000D02*
X122620000Y-42248000D01*
X114492000Y-45296000D02*
X122620000Y-45296000D01*
X114492000Y-42248000D02*
X114492000Y-45296000D01*
X114492000Y-45296000D02*
X114492000Y-42248000D01*
X122620000Y-39200000D02*
X122620000Y-41232000D01*
X114492000Y-39200000D02*
X122620000Y-39200000D01*
X114492000Y-41232000D02*
X114492000Y-39200000D01*
X122620000Y-41232000D02*
X122620000Y-42248000D01*
X114492000Y-41232000D02*
X114492000Y-42248000D01*
X192724000Y-41232000D02*
X192216000Y-41232000D01*
X192724000Y-97620000D02*
X168340000Y-97620000D01*
X192724000Y-97620000D02*
X192724000Y-96096000D01*
X107380000Y-87460000D02*
X107380000Y-86952000D01*
X107380000Y-41232000D02*
X107380000Y-87460000D01*
X107380000Y-41232000D02*
X108396000Y-41232000D01*
X167070000Y-96350000D02*
X116270000Y-96350000D01*
X167070000Y-91270000D02*
X167070000Y-96350000D01*
X116270000Y-91270000D02*
X167070000Y-91270000D01*
X116270000Y-96350000D02*
X116270000Y-91270000D01*
X117540000Y-96350000D02*
X116270000Y-96350000D01*
X107380000Y-97620000D02*
X115000000Y-97620000D01*
X107380000Y-87460000D02*
X107380000Y-97620000D01*
X107380000Y-97620000D02*
X107380000Y-87460000D01*
X115000000Y-97620000D02*
X168340000Y-97620000D01*
%TO.C,Teensy1*%
X193970000Y-128890000D02*
X193970000Y-127620000D01*
X133010000Y-128890000D02*
X193970000Y-128890000D01*
X133010000Y-127620000D02*
X133010000Y-128890000D01*
X133010000Y-111110000D02*
X133010000Y-112380000D01*
X193970000Y-111110000D02*
X133010000Y-111110000D01*
X193970000Y-112380000D02*
X193970000Y-111110000D01*
X190160000Y-116190000D02*
X190160000Y-121270000D01*
X190160000Y-116190000D02*
X195240000Y-116190000D01*
X190160000Y-121270000D02*
X190160000Y-123810000D01*
X190160000Y-123810000D02*
X195240000Y-123810000D01*
X195240000Y-116190000D02*
X195240000Y-123810000D01*
X193970000Y-116190000D02*
X193970000Y-112380000D01*
X133010000Y-112380000D02*
X133010000Y-127620000D01*
X193970000Y-127620000D02*
X193970000Y-123810000D01*
X187620000Y-113650000D02*
X187620000Y-116190000D01*
X187620000Y-116190000D02*
X174920000Y-116190000D01*
X174920000Y-116190000D02*
X174920000Y-113650000D01*
X174920000Y-113650000D02*
X187620000Y-113650000D01*
X185080000Y-113650000D02*
X185080000Y-116190000D01*
X133010000Y-113650000D02*
X145710000Y-113650000D01*
X145710000Y-113650000D02*
X145710000Y-126350000D01*
X145710000Y-126350000D02*
X133010000Y-126350000D01*
%TO.C,TOF1*%
X74130918Y-137694077D02*
X71616446Y-140208549D01*
X67305923Y-130869082D02*
X74130918Y-137694077D01*
X64791451Y-133383554D02*
X67305923Y-130869082D01*
X64611846Y-136796051D02*
X50243437Y-122427641D01*
X82572359Y-154756563D02*
X64611846Y-136796051D01*
X50243437Y-122427641D02*
X52039488Y-120631590D01*
X84368410Y-152960512D02*
X52039488Y-120631590D01*
X84368410Y-152960512D02*
X82572359Y-154756563D01*
X80776307Y-152960512D02*
X71796051Y-161940768D01*
X61019744Y-151164461D02*
X71796051Y-161940768D01*
X61019744Y-151164461D02*
X70000000Y-142184205D01*
X52039488Y-124223693D02*
X43059232Y-133203949D01*
X43059232Y-133203949D02*
X53835539Y-143980256D01*
X53835539Y-143980256D02*
X62815795Y-135000000D01*
%TO.C,TOF2*%
X56016000Y-84826000D02*
X52460000Y-84826000D01*
X56016000Y-75174000D02*
X56016000Y-84826000D01*
X52460000Y-75174000D02*
X56016000Y-75174000D01*
X49920000Y-77460000D02*
X49920000Y-57140000D01*
X49920000Y-102860000D02*
X49920000Y-77460000D01*
X49920000Y-57140000D02*
X52460000Y-57140000D01*
X52460000Y-102860000D02*
X52460000Y-57140000D01*
X52460000Y-102860000D02*
X49920000Y-102860000D01*
X49920000Y-100320000D02*
X37220000Y-100320000D01*
X37220000Y-85080000D02*
X37220000Y-100320000D01*
X37220000Y-85080000D02*
X49920000Y-85080000D01*
X49920000Y-59680000D02*
X37220000Y-59680000D01*
X37220000Y-59680000D02*
X37220000Y-74920000D01*
X37220000Y-74920000D02*
X49920000Y-74920000D01*
%TO.C,TOF3*%
X252780000Y-85080000D02*
X240080000Y-85080000D01*
X252780000Y-100320000D02*
X252780000Y-85080000D01*
X240080000Y-100320000D02*
X252780000Y-100320000D01*
X252780000Y-74920000D02*
X240080000Y-74920000D01*
X252780000Y-74920000D02*
X252780000Y-59680000D01*
X240080000Y-59680000D02*
X252780000Y-59680000D01*
X237540000Y-57140000D02*
X240080000Y-57140000D01*
X237540000Y-57140000D02*
X237540000Y-102860000D01*
X240080000Y-102860000D02*
X237540000Y-102860000D01*
X240080000Y-57140000D02*
X240080000Y-82540000D01*
X240080000Y-82540000D02*
X240080000Y-102860000D01*
X237540000Y-84826000D02*
X233984000Y-84826000D01*
X233984000Y-84826000D02*
X233984000Y-75174000D01*
X233984000Y-75174000D02*
X237540000Y-75174000D01*
%TO.C,TOF4*%
X228980256Y-151164461D02*
X220000000Y-142184205D01*
X218203949Y-161940768D02*
X228980256Y-151164461D01*
X209223693Y-152960512D02*
X218203949Y-161940768D01*
X236164461Y-143980256D02*
X227184205Y-135000000D01*
X236164461Y-143980256D02*
X246940768Y-133203949D01*
X237960512Y-124223693D02*
X246940768Y-133203949D01*
X237960512Y-120631590D02*
X239756563Y-122427641D01*
X237960512Y-120631590D02*
X205631590Y-152960512D01*
X207427641Y-154756563D02*
X205631590Y-152960512D01*
X239756563Y-122427641D02*
X221796051Y-140388154D01*
X221796051Y-140388154D02*
X207427641Y-154756563D01*
X218383554Y-140208549D02*
X215869082Y-137694077D01*
X215869082Y-137694077D02*
X222694077Y-130869082D01*
X222694077Y-130869082D02*
X225208549Y-133383554D01*
%TO.C,TOF5*%
X149826000Y-148984000D02*
X149826000Y-152540000D01*
X140174000Y-148984000D02*
X149826000Y-148984000D01*
X140174000Y-152540000D02*
X140174000Y-148984000D01*
X142460000Y-155080000D02*
X122140000Y-155080000D01*
X167860000Y-155080000D02*
X142460000Y-155080000D01*
X122140000Y-155080000D02*
X122140000Y-152540000D01*
X167860000Y-152540000D02*
X122140000Y-152540000D01*
X167860000Y-152540000D02*
X167860000Y-155080000D01*
X165320000Y-155080000D02*
X165320000Y-167780000D01*
X150080000Y-167780000D02*
X165320000Y-167780000D01*
X150080000Y-167780000D02*
X150080000Y-155080000D01*
X124680000Y-155080000D02*
X124680000Y-167780000D01*
X124680000Y-167780000D02*
X139920000Y-167780000D01*
X139920000Y-167780000D02*
X139920000Y-155080000D01*
%TO.C,U1*%
X55900000Y-49550000D02*
X63150000Y-49550000D01*
X55900000Y-43050000D02*
X63150000Y-43050000D01*
X55900000Y-49550000D02*
X55900000Y-43050000D01*
X63650000Y-42550000D02*
X63150000Y-43050000D01*
X63150000Y-49550000D02*
X63650000Y-50050000D01*
X69900000Y-50050000D02*
X63650000Y-50050000D01*
X69900000Y-42550000D02*
X63650000Y-42550000D01*
X69900000Y-46300000D02*
X69900000Y-50050000D01*
X69900000Y-46300000D02*
X69900000Y-42550000D01*
%TO.C,XH-3A1*%
X201422000Y-47498000D02*
X207518000Y-47498000D01*
X199390000Y-44450000D02*
X199390000Y-46990000D01*
X209550000Y-44450000D02*
X209550000Y-46990000D01*
X199390000Y-47498000D02*
X199390000Y-46990000D01*
X199390000Y-47498000D02*
X201422000Y-47498000D01*
X207518000Y-47498000D02*
X209550000Y-47498000D01*
X209550000Y-47498000D02*
X209550000Y-46990000D01*
X209550000Y-44450000D02*
X209550000Y-43942000D01*
X199390000Y-44450000D02*
X199390000Y-43942000D01*
X199390000Y-41910000D02*
X201422000Y-41910000D01*
X209550000Y-41910000D02*
X207518000Y-41910000D01*
X205486000Y-41910000D02*
X203454000Y-41910000D01*
X209550000Y-42418000D02*
X209550000Y-41910000D01*
X199390000Y-41910000D02*
X199390000Y-42418000D01*
%TO.C,XH-3A2*%
X213360000Y-41910000D02*
X213360000Y-42418000D01*
X223520000Y-42418000D02*
X223520000Y-41910000D01*
X219456000Y-41910000D02*
X217424000Y-41910000D01*
X223520000Y-41910000D02*
X221488000Y-41910000D01*
X213360000Y-41910000D02*
X215392000Y-41910000D01*
X213360000Y-44450000D02*
X213360000Y-43942000D01*
X223520000Y-44450000D02*
X223520000Y-43942000D01*
X223520000Y-47498000D02*
X223520000Y-46990000D01*
X221488000Y-47498000D02*
X223520000Y-47498000D01*
X213360000Y-47498000D02*
X215392000Y-47498000D01*
X213360000Y-47498000D02*
X213360000Y-46990000D01*
X223520000Y-44450000D02*
X223520000Y-46990000D01*
X213360000Y-44450000D02*
X213360000Y-46990000D01*
X215392000Y-47498000D02*
X221488000Y-47498000D01*
%TO.C,XH-3A3*%
X80772000Y-47498000D02*
X86868000Y-47498000D01*
X78740000Y-44450000D02*
X78740000Y-46990000D01*
X88900000Y-44450000D02*
X88900000Y-46990000D01*
X78740000Y-47498000D02*
X78740000Y-46990000D01*
X78740000Y-47498000D02*
X80772000Y-47498000D01*
X86868000Y-47498000D02*
X88900000Y-47498000D01*
X88900000Y-47498000D02*
X88900000Y-46990000D01*
X88900000Y-44450000D02*
X88900000Y-43942000D01*
X78740000Y-44450000D02*
X78740000Y-43942000D01*
X78740000Y-41910000D02*
X80772000Y-41910000D01*
X88900000Y-41910000D02*
X86868000Y-41910000D01*
X84836000Y-41910000D02*
X82804000Y-41910000D01*
X88900000Y-42418000D02*
X88900000Y-41910000D01*
X78740000Y-41910000D02*
X78740000Y-42418000D01*
%TO.C,XH-3A4*%
X92710000Y-41910000D02*
X92710000Y-42418000D01*
X102870000Y-42418000D02*
X102870000Y-41910000D01*
X98806000Y-41910000D02*
X96774000Y-41910000D01*
X102870000Y-41910000D02*
X100838000Y-41910000D01*
X92710000Y-41910000D02*
X94742000Y-41910000D01*
X92710000Y-44450000D02*
X92710000Y-43942000D01*
X102870000Y-44450000D02*
X102870000Y-43942000D01*
X102870000Y-47498000D02*
X102870000Y-46990000D01*
X100838000Y-47498000D02*
X102870000Y-47498000D01*
X92710000Y-47498000D02*
X94742000Y-47498000D01*
X92710000Y-47498000D02*
X92710000Y-46990000D01*
X102870000Y-44450000D02*
X102870000Y-46990000D01*
X92710000Y-44450000D02*
X92710000Y-46990000D01*
X94742000Y-47498000D02*
X100838000Y-47498000D01*
D12*
%TO.C,B1*%
X181610000Y-138010000D02*
X181610000Y-142510000D01*
X186110000Y-138110000D02*
X186110000Y-142410000D01*
%TO.C,B2*%
X177800000Y-138110000D02*
X177800000Y-142410000D01*
X173300000Y-138010000D02*
X173300000Y-142510000D01*
%TO.C,B3*%
X190500000Y-138010000D02*
X190500000Y-142510000D01*
X195000000Y-138110000D02*
X195000000Y-142410000D01*
%TO.C,B4*%
X169600000Y-138110000D02*
X169600000Y-142410000D01*
X165100000Y-138010000D02*
X165100000Y-142510000D01*
%TO.C,LED1*%
X92690000Y-141965000D02*
X92690000Y-145055000D01*
X97750000Y-143510000D02*
G75*
G03X97750000Y-143510000I-2500000J0D01*
G01*
X98240000Y-143510462D02*
G75*
G03X92690000Y-141965170I-2990000J462D01*
G01*
X98240000Y-143509538D02*
G75*
G02X92690000Y-145054830I-2990000J-462D01*
G01*
%TO.C,LED2*%
X105860000Y-143509538D02*
G75*
G02X100310000Y-145054830I-2990000J-462D01*
G01*
X105860000Y-143510462D02*
G75*
G03X100310000Y-141965170I-2990000J462D01*
G01*
X105370000Y-143510000D02*
G75*
G03X105370000Y-143510000I-2500000J0D01*
G01*
X100310000Y-141965000D02*
X100310000Y-145055000D01*
%TO.C,LED3*%
X107930000Y-141965000D02*
X107930000Y-145055000D01*
X112990000Y-143510000D02*
G75*
G03X112990000Y-143510000I-2500000J0D01*
G01*
X113480000Y-143510462D02*
G75*
G03X107930000Y-141965170I-2990000J462D01*
G01*
X113480000Y-143509538D02*
G75*
G02X107930000Y-145054830I-2990000J-462D01*
G01*
%TO.C,LED4*%
X121100000Y-143509538D02*
G75*
G02X115550000Y-145054830I-2990000J-462D01*
G01*
X121100000Y-143510462D02*
G75*
G03X115550000Y-141965170I-2990000J462D01*
G01*
X120610000Y-143510000D02*
G75*
G03X120610000Y-143510000I-2500000J0D01*
G01*
X115550000Y-141965000D02*
X115550000Y-145055000D01*
D10*
%TO.C,R11*%
X104775000Y-152400000D02*
X97790000Y-152400000D01*
X104775000Y-149860000D02*
X104775000Y-152400000D01*
X97790000Y-149860000D02*
X104775000Y-149860000D01*
X97790000Y-152400000D02*
X97790000Y-149860000D01*
%TO.C,R12*%
X102870000Y-134620000D02*
X102870000Y-137160000D01*
X102870000Y-137160000D02*
X95885000Y-137160000D01*
X95885000Y-137160000D02*
X95885000Y-134620000D01*
X95885000Y-134620000D02*
X102870000Y-134620000D01*
%TO.C,R13*%
X112395000Y-152400000D02*
X112395000Y-149860000D01*
X112395000Y-149860000D02*
X119380000Y-149860000D01*
X119380000Y-149860000D02*
X119380000Y-152400000D01*
X119380000Y-152400000D02*
X112395000Y-152400000D01*
%TO.C,R14*%
X128270000Y-135255000D02*
X128270000Y-142240000D01*
X125730000Y-135255000D02*
X128270000Y-135255000D01*
X125730000Y-142240000D02*
X125730000Y-135255000D01*
X128270000Y-142240000D02*
X125730000Y-142240000D01*
%TO.C,R15*%
X182880000Y-153670000D02*
X182880000Y-151130000D01*
X182880000Y-151130000D02*
X189865000Y-151130000D01*
X189865000Y-151130000D02*
X189865000Y-153670000D01*
X189865000Y-153670000D02*
X182880000Y-153670000D01*
%TO.C,R16*%
X181610000Y-149860000D02*
X174625000Y-149860000D01*
X181610000Y-147320000D02*
X181610000Y-149860000D01*
X174625000Y-147320000D02*
X181610000Y-147320000D01*
X174625000Y-149860000D02*
X174625000Y-147320000D01*
%TO.C,R17*%
X198755000Y-149860000D02*
X191770000Y-149860000D01*
X198755000Y-147320000D02*
X198755000Y-149860000D01*
X191770000Y-147320000D02*
X198755000Y-147320000D01*
X191770000Y-149860000D02*
X191770000Y-147320000D01*
%TO.C,R18*%
X157480000Y-134620000D02*
X157480000Y-137160000D01*
X157480000Y-137160000D02*
X150495000Y-137160000D01*
X150495000Y-137160000D02*
X150495000Y-134620000D01*
X150495000Y-134620000D02*
X157480000Y-134620000D01*
%TO.C,Proto*%
X79518095Y-94932380D02*
X79518095Y-93932380D01*
X79899047Y-93932380D01*
X79994285Y-93980000D01*
X80041904Y-94027619D01*
X80089523Y-94122857D01*
X80089523Y-94265714D01*
X80041904Y-94360952D01*
X79994285Y-94408571D01*
X79899047Y-94456190D01*
X79518095Y-94456190D01*
X80518095Y-94932380D02*
X80518095Y-94265714D01*
X80518095Y-94456190D02*
X80565714Y-94360952D01*
X80613333Y-94313333D01*
X80708571Y-94265714D01*
X80803809Y-94265714D01*
X81280000Y-94932380D02*
X81184761Y-94884761D01*
X81137142Y-94837142D01*
X81089523Y-94741904D01*
X81089523Y-94456190D01*
X81137142Y-94360952D01*
X81184761Y-94313333D01*
X81280000Y-94265714D01*
X81422857Y-94265714D01*
X81518095Y-94313333D01*
X81565714Y-94360952D01*
X81613333Y-94456190D01*
X81613333Y-94741904D01*
X81565714Y-94837142D01*
X81518095Y-94884761D01*
X81422857Y-94932380D01*
X81280000Y-94932380D01*
X81899047Y-94265714D02*
X82280000Y-94265714D01*
X82041904Y-93932380D02*
X82041904Y-94789523D01*
X82089523Y-94884761D01*
X82184761Y-94932380D01*
X82280000Y-94932380D01*
X82756190Y-94932380D02*
X82660952Y-94884761D01*
X82613333Y-94837142D01*
X82565714Y-94741904D01*
X82565714Y-94456190D01*
X82613333Y-94360952D01*
X82660952Y-94313333D01*
X82756190Y-94265714D01*
X82899047Y-94265714D01*
X82994285Y-94313333D01*
X83041904Y-94360952D01*
X83089523Y-94456190D01*
X83089523Y-94741904D01*
X83041904Y-94837142D01*
X82994285Y-94884761D01*
X82899047Y-94932380D01*
X82756190Y-94932380D01*
%TO.C,REF\002A\002A*%
X237426666Y-114752380D02*
X237093333Y-114276190D01*
X236855238Y-114752380D02*
X236855238Y-113752380D01*
X237236190Y-113752380D01*
X237331428Y-113800000D01*
X237379047Y-113847619D01*
X237426666Y-113942857D01*
X237426666Y-114085714D01*
X237379047Y-114180952D01*
X237331428Y-114228571D01*
X237236190Y-114276190D01*
X236855238Y-114276190D01*
X237855238Y-114228571D02*
X238188571Y-114228571D01*
X238331428Y-114752380D02*
X237855238Y-114752380D01*
X237855238Y-113752380D01*
X238331428Y-113752380D01*
X239093333Y-114228571D02*
X238760000Y-114228571D01*
X238760000Y-114752380D02*
X238760000Y-113752380D01*
X239236190Y-113752380D01*
X239760000Y-113752380D02*
X239760000Y-113990476D01*
X239521904Y-113895238D02*
X239760000Y-113990476D01*
X239998095Y-113895238D01*
X239617142Y-114180952D02*
X239760000Y-113990476D01*
X239902857Y-114180952D01*
X240521904Y-113752380D02*
X240521904Y-113990476D01*
X240283809Y-113895238D02*
X240521904Y-113990476D01*
X240760000Y-113895238D01*
X240379047Y-114180952D02*
X240521904Y-113990476D01*
X240664761Y-114180952D01*
X49466666Y-114752380D02*
X49133333Y-114276190D01*
X48895238Y-114752380D02*
X48895238Y-113752380D01*
X49276190Y-113752380D01*
X49371428Y-113800000D01*
X49419047Y-113847619D01*
X49466666Y-113942857D01*
X49466666Y-114085714D01*
X49419047Y-114180952D01*
X49371428Y-114228571D01*
X49276190Y-114276190D01*
X48895238Y-114276190D01*
X49895238Y-114228571D02*
X50228571Y-114228571D01*
X50371428Y-114752380D02*
X49895238Y-114752380D01*
X49895238Y-113752380D01*
X50371428Y-113752380D01*
X51133333Y-114228571D02*
X50800000Y-114228571D01*
X50800000Y-114752380D02*
X50800000Y-113752380D01*
X51276190Y-113752380D01*
X51800000Y-113752380D02*
X51800000Y-113990476D01*
X51561904Y-113895238D02*
X51800000Y-113990476D01*
X52038095Y-113895238D01*
X51657142Y-114180952D02*
X51800000Y-113990476D01*
X51942857Y-114180952D01*
X52561904Y-113752380D02*
X52561904Y-113990476D01*
X52323809Y-113895238D02*
X52561904Y-113990476D01*
X52800000Y-113895238D01*
X52419047Y-114180952D02*
X52561904Y-113990476D01*
X52704761Y-114180952D01*
X49466666Y-43632380D02*
X49133333Y-43156190D01*
X48895238Y-43632380D02*
X48895238Y-42632380D01*
X49276190Y-42632380D01*
X49371428Y-42680000D01*
X49419047Y-42727619D01*
X49466666Y-42822857D01*
X49466666Y-42965714D01*
X49419047Y-43060952D01*
X49371428Y-43108571D01*
X49276190Y-43156190D01*
X48895238Y-43156190D01*
X49895238Y-43108571D02*
X50228571Y-43108571D01*
X50371428Y-43632380D02*
X49895238Y-43632380D01*
X49895238Y-42632380D01*
X50371428Y-42632380D01*
X51133333Y-43108571D02*
X50800000Y-43108571D01*
X50800000Y-43632380D02*
X50800000Y-42632380D01*
X51276190Y-42632380D01*
X51800000Y-42632380D02*
X51800000Y-42870476D01*
X51561904Y-42775238D02*
X51800000Y-42870476D01*
X52038095Y-42775238D01*
X51657142Y-43060952D02*
X51800000Y-42870476D01*
X51942857Y-43060952D01*
X52561904Y-42632380D02*
X52561904Y-42870476D01*
X52323809Y-42775238D02*
X52561904Y-42870476D01*
X52800000Y-42775238D01*
X52419047Y-43060952D02*
X52561904Y-42870476D01*
X52704761Y-43060952D01*
X237426666Y-43632380D02*
X237093333Y-43156190D01*
X236855238Y-43632380D02*
X236855238Y-42632380D01*
X237236190Y-42632380D01*
X237331428Y-42680000D01*
X237379047Y-42727619D01*
X237426666Y-42822857D01*
X237426666Y-42965714D01*
X237379047Y-43060952D01*
X237331428Y-43108571D01*
X237236190Y-43156190D01*
X236855238Y-43156190D01*
X237855238Y-43108571D02*
X238188571Y-43108571D01*
X238331428Y-43632380D02*
X237855238Y-43632380D01*
X237855238Y-42632380D01*
X238331428Y-42632380D01*
X239093333Y-43108571D02*
X238760000Y-43108571D01*
X238760000Y-43632380D02*
X238760000Y-42632380D01*
X239236190Y-42632380D01*
X239760000Y-42632380D02*
X239760000Y-42870476D01*
X239521904Y-42775238D02*
X239760000Y-42870476D01*
X239998095Y-42775238D01*
X239617142Y-43060952D02*
X239760000Y-42870476D01*
X239902857Y-43060952D01*
X240521904Y-42632380D02*
X240521904Y-42870476D01*
X240283809Y-42775238D02*
X240521904Y-42870476D01*
X240760000Y-42775238D01*
X240379047Y-43060952D02*
X240521904Y-42870476D01*
X240664761Y-43060952D01*
%TO.C,Ant1*%
X229417619Y-51886666D02*
X229893809Y-51886666D01*
X229322380Y-52172380D02*
X229655714Y-51172380D01*
X229989047Y-52172380D01*
X230322380Y-51505714D02*
X230322380Y-52172380D01*
X230322380Y-51600952D02*
X230370000Y-51553333D01*
X230465238Y-51505714D01*
X230608095Y-51505714D01*
X230703333Y-51553333D01*
X230750952Y-51648571D01*
X230750952Y-52172380D01*
X231084285Y-51505714D02*
X231465238Y-51505714D01*
X231227142Y-51172380D02*
X231227142Y-52029523D01*
X231274761Y-52124761D01*
X231370000Y-52172380D01*
X231465238Y-52172380D01*
X232322380Y-52172380D02*
X231750952Y-52172380D01*
X232036666Y-52172380D02*
X232036666Y-51172380D01*
X231941428Y-51315238D01*
X231846190Y-51410476D01*
X231750952Y-51458095D01*
%TO.C,DC-DC1*%
X73280071Y-66571642D02*
X73280071Y-63571642D01*
X73994357Y-63571642D01*
X74422928Y-63714500D01*
X74708642Y-64000214D01*
X74851500Y-64285928D01*
X74994357Y-64857357D01*
X74994357Y-65285928D01*
X74851500Y-65857357D01*
X74708642Y-66143071D01*
X74422928Y-66428785D01*
X73994357Y-66571642D01*
X73280071Y-66571642D01*
X77994357Y-66285928D02*
X77851500Y-66428785D01*
X77422928Y-66571642D01*
X77137214Y-66571642D01*
X76708642Y-66428785D01*
X76422928Y-66143071D01*
X76280071Y-65857357D01*
X76137214Y-65285928D01*
X76137214Y-64857357D01*
X76280071Y-64285928D01*
X76422928Y-64000214D01*
X76708642Y-63714500D01*
X77137214Y-63571642D01*
X77422928Y-63571642D01*
X77851500Y-63714500D01*
X77994357Y-63857357D01*
X79280071Y-65428785D02*
X81565785Y-65428785D01*
X82994357Y-66571642D02*
X82994357Y-63571642D01*
X83708642Y-63571642D01*
X84137214Y-63714500D01*
X84422928Y-64000214D01*
X84565785Y-64285928D01*
X84708642Y-64857357D01*
X84708642Y-65285928D01*
X84565785Y-65857357D01*
X84422928Y-66143071D01*
X84137214Y-66428785D01*
X83708642Y-66571642D01*
X82994357Y-66571642D01*
X87708642Y-66285928D02*
X87565785Y-66428785D01*
X87137214Y-66571642D01*
X86851500Y-66571642D01*
X86422928Y-66428785D01*
X86137214Y-66143071D01*
X85994357Y-65857357D01*
X85851500Y-65285928D01*
X85851500Y-64857357D01*
X85994357Y-64285928D01*
X86137214Y-64000214D01*
X86422928Y-63714500D01*
X86851500Y-63571642D01*
X87137214Y-63571642D01*
X87565785Y-63714500D01*
X87708642Y-63857357D01*
X90565785Y-66571642D02*
X88851500Y-66571642D01*
X89708642Y-66571642D02*
X89708642Y-63571642D01*
X89422928Y-64000214D01*
X89137214Y-64285928D01*
X88851500Y-64428785D01*
%TO.C,Debug1*%
X115938180Y-104149209D02*
X114938180Y-104149209D01*
X114938180Y-103911114D01*
X114985800Y-103768257D01*
X115081038Y-103673019D01*
X115176276Y-103625400D01*
X115366752Y-103577780D01*
X115509609Y-103577780D01*
X115700085Y-103625400D01*
X115795323Y-103673019D01*
X115890561Y-103768257D01*
X115938180Y-103911114D01*
X115938180Y-104149209D01*
X115890561Y-102768257D02*
X115938180Y-102863495D01*
X115938180Y-103053971D01*
X115890561Y-103149209D01*
X115795323Y-103196828D01*
X115414371Y-103196828D01*
X115319133Y-103149209D01*
X115271514Y-103053971D01*
X115271514Y-102863495D01*
X115319133Y-102768257D01*
X115414371Y-102720638D01*
X115509609Y-102720638D01*
X115604847Y-103196828D01*
X115938180Y-102292066D02*
X114938180Y-102292066D01*
X115319133Y-102292066D02*
X115271514Y-102196828D01*
X115271514Y-102006352D01*
X115319133Y-101911114D01*
X115366752Y-101863495D01*
X115461990Y-101815876D01*
X115747704Y-101815876D01*
X115842942Y-101863495D01*
X115890561Y-101911114D01*
X115938180Y-102006352D01*
X115938180Y-102196828D01*
X115890561Y-102292066D01*
X115271514Y-100958733D02*
X115938180Y-100958733D01*
X115271514Y-101387304D02*
X115795323Y-101387304D01*
X115890561Y-101339685D01*
X115938180Y-101244447D01*
X115938180Y-101101590D01*
X115890561Y-101006352D01*
X115842942Y-100958733D01*
X115271514Y-100053971D02*
X116081038Y-100053971D01*
X116176276Y-100101590D01*
X116223895Y-100149209D01*
X116271514Y-100244447D01*
X116271514Y-100387304D01*
X116223895Y-100482542D01*
X115890561Y-100053971D02*
X115938180Y-100149209D01*
X115938180Y-100339685D01*
X115890561Y-100434923D01*
X115842942Y-100482542D01*
X115747704Y-100530161D01*
X115461990Y-100530161D01*
X115366752Y-100482542D01*
X115319133Y-100434923D01*
X115271514Y-100339685D01*
X115271514Y-100149209D01*
X115319133Y-100053971D01*
X115938180Y-99053971D02*
X115938180Y-99625400D01*
X115938180Y-99339685D02*
X114938180Y-99339685D01*
X115081038Y-99434923D01*
X115176276Y-99530161D01*
X115223895Y-99625400D01*
%TO.C,PA1*%
X215971380Y-64666666D02*
X214971380Y-64666666D01*
X214971380Y-64285714D01*
X215019000Y-64190476D01*
X215066619Y-64142857D01*
X215161857Y-64095238D01*
X215304714Y-64095238D01*
X215399952Y-64142857D01*
X215447571Y-64190476D01*
X215495190Y-64285714D01*
X215495190Y-64666666D01*
X215685666Y-63714285D02*
X215685666Y-63238095D01*
X215971380Y-63809523D02*
X214971380Y-63476190D01*
X215971380Y-63142857D01*
X215971380Y-62285714D02*
X215971380Y-62857142D01*
X215971380Y-62571428D02*
X214971380Y-62571428D01*
X215114238Y-62666666D01*
X215209476Y-62761904D01*
X215257095Y-62857142D01*
X209254285Y-69508714D02*
X209254285Y-69937285D01*
X209254285Y-69723000D02*
X208504285Y-69723000D01*
X208611428Y-69794428D01*
X208682857Y-69865857D01*
X208718571Y-69937285D01*
X222970285Y-69484857D02*
X222970285Y-69913428D01*
X222970285Y-69699142D02*
X222220285Y-69699142D01*
X222327428Y-69770571D01*
X222398857Y-69842000D01*
X222434571Y-69913428D01*
X222220285Y-69020571D02*
X222220285Y-68949142D01*
X222256000Y-68877714D01*
X222291714Y-68842000D01*
X222363142Y-68806285D01*
X222506000Y-68770571D01*
X222684571Y-68770571D01*
X222827428Y-68806285D01*
X222898857Y-68842000D01*
X222934571Y-68877714D01*
X222970285Y-68949142D01*
X222970285Y-69020571D01*
X222934571Y-69092000D01*
X222898857Y-69127714D01*
X222827428Y-69163428D01*
X222684571Y-69199142D01*
X222506000Y-69199142D01*
X222363142Y-69163428D01*
X222291714Y-69127714D01*
X222256000Y-69092000D01*
X222220285Y-69020571D01*
X222970285Y-57419857D02*
X222970285Y-57848428D01*
X222970285Y-57634142D02*
X222220285Y-57634142D01*
X222327428Y-57705571D01*
X222398857Y-57777000D01*
X222434571Y-57848428D01*
X222970285Y-56705571D02*
X222970285Y-57134142D01*
X222970285Y-56919857D02*
X222220285Y-56919857D01*
X222327428Y-56991285D01*
X222398857Y-57062714D01*
X222434571Y-57134142D01*
X208575714Y-57848428D02*
X208540000Y-57812714D01*
X208504285Y-57741285D01*
X208504285Y-57562714D01*
X208540000Y-57491285D01*
X208575714Y-57455571D01*
X208647142Y-57419857D01*
X208718571Y-57419857D01*
X208825714Y-57455571D01*
X209254285Y-57884142D01*
X209254285Y-57419857D01*
X208504285Y-56955571D02*
X208504285Y-56884142D01*
X208540000Y-56812714D01*
X208575714Y-56777000D01*
X208647142Y-56741285D01*
X208790000Y-56705571D01*
X208968571Y-56705571D01*
X209111428Y-56741285D01*
X209182857Y-56777000D01*
X209218571Y-56812714D01*
X209254285Y-56884142D01*
X209254285Y-56955571D01*
X209218571Y-57027000D01*
X209182857Y-57062714D01*
X209111428Y-57098428D01*
X208968571Y-57134142D01*
X208790000Y-57134142D01*
X208647142Y-57098428D01*
X208575714Y-57062714D01*
X208540000Y-57027000D01*
X208504285Y-56955571D01*
%TO.C,R1*%
X80765229Y-134962889D02*
X80866244Y-134390469D01*
X80361168Y-134558828D02*
X81068274Y-133851721D01*
X81337649Y-134121095D01*
X81371320Y-134222110D01*
X81371320Y-134289454D01*
X81337649Y-134390469D01*
X81236633Y-134491484D01*
X81135618Y-134525156D01*
X81068274Y-134525156D01*
X80967259Y-134491484D01*
X80697885Y-134222110D01*
X81438664Y-135636324D02*
X81034603Y-135232263D01*
X81236633Y-135434294D02*
X81943740Y-134727187D01*
X81775381Y-134760859D01*
X81640694Y-134760859D01*
X81539679Y-134727187D01*
%TO.C,R2*%
X63952380Y-99861666D02*
X63476190Y-100195000D01*
X63952380Y-100433095D02*
X62952380Y-100433095D01*
X62952380Y-100052142D01*
X63000000Y-99956904D01*
X63047619Y-99909285D01*
X63142857Y-99861666D01*
X63285714Y-99861666D01*
X63380952Y-99909285D01*
X63428571Y-99956904D01*
X63476190Y-100052142D01*
X63476190Y-100433095D01*
X63047619Y-99480714D02*
X63000000Y-99433095D01*
X62952380Y-99337857D01*
X62952380Y-99099761D01*
X63000000Y-99004523D01*
X63047619Y-98956904D01*
X63142857Y-98909285D01*
X63238095Y-98909285D01*
X63380952Y-98956904D01*
X63952380Y-99528333D01*
X63952380Y-98909285D01*
%TO.C,R3*%
X70605229Y-124802889D02*
X70706244Y-124230469D01*
X70201168Y-124398828D02*
X70908274Y-123691721D01*
X71177649Y-123961095D01*
X71211320Y-124062110D01*
X71211320Y-124129454D01*
X71177649Y-124230469D01*
X71076633Y-124331484D01*
X70975618Y-124365156D01*
X70908274Y-124365156D01*
X70807259Y-124331484D01*
X70537885Y-124062110D01*
X71548038Y-124331484D02*
X71985771Y-124769217D01*
X71480694Y-124802889D01*
X71581710Y-124903904D01*
X71615381Y-125004920D01*
X71615381Y-125072263D01*
X71581710Y-125173278D01*
X71413351Y-125341637D01*
X71312336Y-125375309D01*
X71244992Y-125375309D01*
X71143977Y-125341637D01*
X70941946Y-125139607D01*
X70908274Y-125038591D01*
X70908274Y-124971248D01*
%TO.C,R4*%
X63952380Y-84621666D02*
X63476190Y-84955000D01*
X63952380Y-85193095D02*
X62952380Y-85193095D01*
X62952380Y-84812142D01*
X63000000Y-84716904D01*
X63047619Y-84669285D01*
X63142857Y-84621666D01*
X63285714Y-84621666D01*
X63380952Y-84669285D01*
X63428571Y-84716904D01*
X63476190Y-84812142D01*
X63476190Y-85193095D01*
X63285714Y-83764523D02*
X63952380Y-83764523D01*
X62904761Y-84002619D02*
X63619047Y-84240714D01*
X63619047Y-83621666D01*
%TO.C,R5*%
X232862380Y-73191666D02*
X232386190Y-73525000D01*
X232862380Y-73763095D02*
X231862380Y-73763095D01*
X231862380Y-73382142D01*
X231910000Y-73286904D01*
X231957619Y-73239285D01*
X232052857Y-73191666D01*
X232195714Y-73191666D01*
X232290952Y-73239285D01*
X232338571Y-73286904D01*
X232386190Y-73382142D01*
X232386190Y-73763095D01*
X231862380Y-72286904D02*
X231862380Y-72763095D01*
X232338571Y-72810714D01*
X232290952Y-72763095D01*
X232243333Y-72667857D01*
X232243333Y-72429761D01*
X232290952Y-72334523D01*
X232338571Y-72286904D01*
X232433809Y-72239285D01*
X232671904Y-72239285D01*
X232767142Y-72286904D01*
X232814761Y-72334523D01*
X232862380Y-72429761D01*
X232862380Y-72667857D01*
X232814761Y-72763095D01*
X232767142Y-72810714D01*
%TO.C,R6*%
X223581171Y-128630694D02*
X223008751Y-128529679D01*
X223177110Y-129034755D02*
X222470003Y-128327649D01*
X222739377Y-128058274D01*
X222840392Y-128024603D01*
X222907736Y-128024603D01*
X223008751Y-128058274D01*
X223109766Y-128159290D01*
X223143438Y-128260305D01*
X223143438Y-128327649D01*
X223109766Y-128428664D01*
X222840392Y-128698038D01*
X223480156Y-127317496D02*
X223345469Y-127452183D01*
X223311797Y-127553198D01*
X223311797Y-127620542D01*
X223345469Y-127788900D01*
X223446484Y-127957259D01*
X223715858Y-128226633D01*
X223816873Y-128260305D01*
X223884217Y-128260305D01*
X223985232Y-128226633D01*
X224119919Y-128091946D01*
X224153591Y-127990931D01*
X224153591Y-127923587D01*
X224119919Y-127822572D01*
X223951560Y-127654213D01*
X223850545Y-127620542D01*
X223783202Y-127620542D01*
X223682186Y-127654213D01*
X223547499Y-127788900D01*
X223513828Y-127889916D01*
X223513828Y-127957259D01*
X223547499Y-128058274D01*
%TO.C,R7*%
X232862380Y-87161666D02*
X232386190Y-87495000D01*
X232862380Y-87733095D02*
X231862380Y-87733095D01*
X231862380Y-87352142D01*
X231910000Y-87256904D01*
X231957619Y-87209285D01*
X232052857Y-87161666D01*
X232195714Y-87161666D01*
X232290952Y-87209285D01*
X232338571Y-87256904D01*
X232386190Y-87352142D01*
X232386190Y-87733095D01*
X231862380Y-86828333D02*
X231862380Y-86161666D01*
X232862380Y-86590238D01*
%TO.C,R8*%
X213421171Y-138790694D02*
X212848751Y-138689679D01*
X213017110Y-139194755D02*
X212310003Y-138487649D01*
X212579377Y-138218274D01*
X212680392Y-138184603D01*
X212747736Y-138184603D01*
X212848751Y-138218274D01*
X212949766Y-138319290D01*
X212983438Y-138420305D01*
X212983438Y-138487649D01*
X212949766Y-138588664D01*
X212680392Y-138858038D01*
X213421171Y-137982572D02*
X213320156Y-138016244D01*
X213252812Y-138016244D01*
X213151797Y-137982572D01*
X213118125Y-137948900D01*
X213084453Y-137847885D01*
X213084453Y-137780542D01*
X213118125Y-137679526D01*
X213252812Y-137544839D01*
X213353828Y-137511168D01*
X213421171Y-137511168D01*
X213522186Y-137544839D01*
X213555858Y-137578511D01*
X213589530Y-137679526D01*
X213589530Y-137746870D01*
X213555858Y-137847885D01*
X213421171Y-137982572D01*
X213387499Y-138083587D01*
X213387499Y-138150931D01*
X213421171Y-138251946D01*
X213555858Y-138386633D01*
X213656873Y-138420305D01*
X213724217Y-138420305D01*
X213825232Y-138386633D01*
X213959919Y-138251946D01*
X213993591Y-138150931D01*
X213993591Y-138083587D01*
X213959919Y-137982572D01*
X213825232Y-137847885D01*
X213724217Y-137814213D01*
X213656873Y-137814213D01*
X213555858Y-137847885D01*
%TO.C,R9*%
X151598333Y-147772380D02*
X151265000Y-147296190D01*
X151026904Y-147772380D02*
X151026904Y-146772380D01*
X151407857Y-146772380D01*
X151503095Y-146820000D01*
X151550714Y-146867619D01*
X151598333Y-146962857D01*
X151598333Y-147105714D01*
X151550714Y-147200952D01*
X151503095Y-147248571D01*
X151407857Y-147296190D01*
X151026904Y-147296190D01*
X152074523Y-147772380D02*
X152265000Y-147772380D01*
X152360238Y-147724761D01*
X152407857Y-147677142D01*
X152503095Y-147534285D01*
X152550714Y-147343809D01*
X152550714Y-146962857D01*
X152503095Y-146867619D01*
X152455476Y-146820000D01*
X152360238Y-146772380D01*
X152169761Y-146772380D01*
X152074523Y-146820000D01*
X152026904Y-146867619D01*
X151979285Y-146962857D01*
X151979285Y-147200952D01*
X152026904Y-147296190D01*
X152074523Y-147343809D01*
X152169761Y-147391428D01*
X152360238Y-147391428D01*
X152455476Y-147343809D01*
X152503095Y-147296190D01*
X152550714Y-147200952D01*
%TO.C,R10*%
X137152142Y-147772380D02*
X136818809Y-147296190D01*
X136580714Y-147772380D02*
X136580714Y-146772380D01*
X136961666Y-146772380D01*
X137056904Y-146820000D01*
X137104523Y-146867619D01*
X137152142Y-146962857D01*
X137152142Y-147105714D01*
X137104523Y-147200952D01*
X137056904Y-147248571D01*
X136961666Y-147296190D01*
X136580714Y-147296190D01*
X138104523Y-147772380D02*
X137533095Y-147772380D01*
X137818809Y-147772380D02*
X137818809Y-146772380D01*
X137723571Y-146915238D01*
X137628333Y-147010476D01*
X137533095Y-147058095D01*
X138723571Y-146772380D02*
X138818809Y-146772380D01*
X138914047Y-146820000D01*
X138961666Y-146867619D01*
X139009285Y-146962857D01*
X139056904Y-147153333D01*
X139056904Y-147391428D01*
X139009285Y-147581904D01*
X138961666Y-147677142D01*
X138914047Y-147724761D01*
X138818809Y-147772380D01*
X138723571Y-147772380D01*
X138628333Y-147724761D01*
X138580714Y-147677142D01*
X138533095Y-147581904D01*
X138485476Y-147391428D01*
X138485476Y-147153333D01*
X138533095Y-146962857D01*
X138580714Y-146867619D01*
X138628333Y-146820000D01*
X138723571Y-146772380D01*
%TO.C,Rasp1*%
X149488380Y-69124190D02*
X149012190Y-69457523D01*
X149488380Y-69695619D02*
X148488380Y-69695619D01*
X148488380Y-69314666D01*
X148536000Y-69219428D01*
X148583619Y-69171809D01*
X148678857Y-69124190D01*
X148821714Y-69124190D01*
X148916952Y-69171809D01*
X148964571Y-69219428D01*
X149012190Y-69314666D01*
X149012190Y-69695619D01*
X149488380Y-68267047D02*
X148964571Y-68267047D01*
X148869333Y-68314666D01*
X148821714Y-68409904D01*
X148821714Y-68600380D01*
X148869333Y-68695619D01*
X149440761Y-68267047D02*
X149488380Y-68362285D01*
X149488380Y-68600380D01*
X149440761Y-68695619D01*
X149345523Y-68743238D01*
X149250285Y-68743238D01*
X149155047Y-68695619D01*
X149107428Y-68600380D01*
X149107428Y-68362285D01*
X149059809Y-68267047D01*
X149440761Y-67838476D02*
X149488380Y-67743238D01*
X149488380Y-67552761D01*
X149440761Y-67457523D01*
X149345523Y-67409904D01*
X149297904Y-67409904D01*
X149202666Y-67457523D01*
X149155047Y-67552761D01*
X149155047Y-67695619D01*
X149107428Y-67790857D01*
X149012190Y-67838476D01*
X148964571Y-67838476D01*
X148869333Y-67790857D01*
X148821714Y-67695619D01*
X148821714Y-67552761D01*
X148869333Y-67457523D01*
X148821714Y-66981333D02*
X149821714Y-66981333D01*
X148869333Y-66981333D02*
X148821714Y-66886095D01*
X148821714Y-66695619D01*
X148869333Y-66600380D01*
X148916952Y-66552761D01*
X149012190Y-66505142D01*
X149297904Y-66505142D01*
X149393142Y-66552761D01*
X149440761Y-66600380D01*
X149488380Y-66695619D01*
X149488380Y-66886095D01*
X149440761Y-66981333D01*
X149488380Y-65552761D02*
X149488380Y-66124190D01*
X149488380Y-65838476D02*
X148488380Y-65838476D01*
X148631238Y-65933714D01*
X148726476Y-66028952D01*
X148774095Y-66124190D01*
%TO.C,Teensy1*%
X163172857Y-119452380D02*
X163744285Y-119452380D01*
X163458571Y-120452380D02*
X163458571Y-119452380D01*
X164458571Y-120404761D02*
X164363333Y-120452380D01*
X164172857Y-120452380D01*
X164077619Y-120404761D01*
X164030000Y-120309523D01*
X164030000Y-119928571D01*
X164077619Y-119833333D01*
X164172857Y-119785714D01*
X164363333Y-119785714D01*
X164458571Y-119833333D01*
X164506190Y-119928571D01*
X164506190Y-120023809D01*
X164030000Y-120119047D01*
X165315714Y-120404761D02*
X165220476Y-120452380D01*
X165030000Y-120452380D01*
X164934761Y-120404761D01*
X164887142Y-120309523D01*
X164887142Y-119928571D01*
X164934761Y-119833333D01*
X165030000Y-119785714D01*
X165220476Y-119785714D01*
X165315714Y-119833333D01*
X165363333Y-119928571D01*
X165363333Y-120023809D01*
X164887142Y-120119047D01*
X165791904Y-119785714D02*
X165791904Y-120452380D01*
X165791904Y-119880952D02*
X165839523Y-119833333D01*
X165934761Y-119785714D01*
X166077619Y-119785714D01*
X166172857Y-119833333D01*
X166220476Y-119928571D01*
X166220476Y-120452380D01*
X166649047Y-120404761D02*
X166744285Y-120452380D01*
X166934761Y-120452380D01*
X167030000Y-120404761D01*
X167077619Y-120309523D01*
X167077619Y-120261904D01*
X167030000Y-120166666D01*
X166934761Y-120119047D01*
X166791904Y-120119047D01*
X166696666Y-120071428D01*
X166649047Y-119976190D01*
X166649047Y-119928571D01*
X166696666Y-119833333D01*
X166791904Y-119785714D01*
X166934761Y-119785714D01*
X167030000Y-119833333D01*
X167410952Y-119785714D02*
X167649047Y-120452380D01*
X167887142Y-119785714D02*
X167649047Y-120452380D01*
X167553809Y-120690476D01*
X167506190Y-120738095D01*
X167410952Y-120785714D01*
X168791904Y-120452380D02*
X168220476Y-120452380D01*
X168506190Y-120452380D02*
X168506190Y-119452380D01*
X168410952Y-119595238D01*
X168315714Y-119690476D01*
X168220476Y-119738095D01*
%TO.C,TOF1*%
X66480965Y-136094668D02*
X66885026Y-136498729D01*
X65975888Y-137003806D02*
X66682995Y-136296699D01*
X67255415Y-136869119D02*
X67390102Y-137003806D01*
X67423774Y-137104821D01*
X67423774Y-137239508D01*
X67322758Y-137407867D01*
X67087056Y-137643569D01*
X66918697Y-137744584D01*
X66784010Y-137744584D01*
X66682995Y-137710912D01*
X66548308Y-137576225D01*
X66514636Y-137475210D01*
X66514636Y-137340523D01*
X66615652Y-137172164D01*
X66851354Y-136936462D01*
X67019713Y-136835447D01*
X67154400Y-136835447D01*
X67255415Y-136869119D01*
X67760491Y-138047630D02*
X67524789Y-137811928D01*
X67154400Y-138182317D02*
X67861506Y-137475210D01*
X68198224Y-137811928D01*
X68130880Y-139158798D02*
X67726819Y-138754737D01*
X67928850Y-138956767D02*
X68635957Y-138249660D01*
X68467598Y-138283332D01*
X68332911Y-138283332D01*
X68231896Y-138249660D01*
X68141941Y-131157733D02*
X68740625Y-131457074D01*
X68441283Y-130858391D01*
X69211020Y-130943917D02*
X69189638Y-131008062D01*
X69104112Y-131093588D01*
X69039967Y-131114969D01*
X68997204Y-131114969D01*
X68933059Y-131093588D01*
X68804770Y-130965299D01*
X68783388Y-130901154D01*
X68783388Y-130858391D01*
X68804770Y-130794246D01*
X68890296Y-130708720D01*
X68954441Y-130687338D01*
X69595888Y-130559049D02*
X69574506Y-130623194D01*
X69488980Y-130708720D01*
X69424835Y-130730101D01*
X69382072Y-130730101D01*
X69317927Y-130708720D01*
X69189638Y-130580430D01*
X69168256Y-130516286D01*
X69168256Y-130473523D01*
X69189638Y-130409378D01*
X69275164Y-130323852D01*
X69339309Y-130302470D01*
X69895229Y-132996547D02*
X70151808Y-132739968D01*
X70472532Y-133317270D02*
X70023519Y-132868257D01*
X70750492Y-133039310D02*
X70451150Y-132739968D01*
X70536676Y-132825494D02*
X70515295Y-132761350D01*
X70515295Y-132718586D01*
X70536676Y-132654442D01*
X70579439Y-132611679D01*
X71028452Y-132761350D02*
X70729110Y-132462008D01*
X70579439Y-132312337D02*
X70579439Y-132355100D01*
X70622202Y-132355100D01*
X70622202Y-132312337D01*
X70579439Y-132312337D01*
X70622202Y-132355100D01*
X71135360Y-132055758D02*
X71498847Y-132419245D01*
X71520228Y-132483389D01*
X71520228Y-132526152D01*
X71498847Y-132590297D01*
X71434702Y-132654442D01*
X71370557Y-132675823D01*
X71413320Y-132333718D02*
X71391939Y-132397863D01*
X71306412Y-132483389D01*
X71242268Y-132504771D01*
X71199505Y-132504771D01*
X71135360Y-132483389D01*
X71007071Y-132355100D01*
X70985689Y-132290955D01*
X70985689Y-132248192D01*
X71007071Y-132184047D01*
X71092597Y-132098521D01*
X71156742Y-132077140D01*
X71787498Y-134944408D02*
X71937169Y-134794737D01*
X72236511Y-134965789D02*
X72022696Y-135179605D01*
X71573683Y-134730592D01*
X71787498Y-134516777D01*
X72599998Y-134559540D02*
X72578616Y-134623684D01*
X72493090Y-134709211D01*
X72428945Y-134730592D01*
X72386182Y-134730592D01*
X72322037Y-134709211D01*
X72193748Y-134580921D01*
X72172367Y-134516777D01*
X72172367Y-134474014D01*
X72193748Y-134409869D01*
X72279274Y-134324343D01*
X72343419Y-134302961D01*
X72813813Y-134388487D02*
X72364801Y-133939475D01*
X73006247Y-134196053D02*
X72771050Y-133960856D01*
X72706906Y-133939475D01*
X72642761Y-133960856D01*
X72578616Y-134025001D01*
X72557235Y-134089145D01*
X72557235Y-134131909D01*
X73284208Y-133918093D02*
X73220063Y-133939475D01*
X73177300Y-133939475D01*
X73113155Y-133918093D01*
X72984866Y-133789804D01*
X72963484Y-133725659D01*
X72963484Y-133682896D01*
X72984866Y-133618751D01*
X73049011Y-133554606D01*
X73113155Y-133533225D01*
X73155918Y-133533225D01*
X73220063Y-133554606D01*
X73348352Y-133682896D01*
X73369734Y-133747040D01*
X73369734Y-133789804D01*
X73348352Y-133853948D01*
X73284208Y-133918093D01*
X73743911Y-136374834D02*
X73679766Y-136396216D01*
X73615622Y-136460360D01*
X73572859Y-136545887D01*
X73572859Y-136631413D01*
X73594240Y-136695558D01*
X73658385Y-136802465D01*
X73722530Y-136866610D01*
X73829437Y-136930755D01*
X73893582Y-136952136D01*
X73979108Y-136952136D01*
X74064635Y-136909373D01*
X74107398Y-136866610D01*
X74150161Y-136781084D01*
X74150161Y-136738321D01*
X74000490Y-136588650D01*
X73914964Y-136674176D01*
X74385358Y-136588650D02*
X73936345Y-136139637D01*
X74641937Y-136332071D01*
X74192924Y-135883058D01*
X74855752Y-136118255D02*
X74406740Y-135669243D01*
X74513647Y-135562335D01*
X74599174Y-135519572D01*
X74684700Y-135519572D01*
X74748845Y-135540953D01*
X74855752Y-135605098D01*
X74919897Y-135669243D01*
X74984042Y-135776150D01*
X75005423Y-135840295D01*
X75005423Y-135925821D01*
X74962660Y-136011348D01*
X74855752Y-136118255D01*
%TO.C,TOF2*%
X50642380Y-81714285D02*
X50642380Y-81142857D01*
X51642380Y-81428571D02*
X50642380Y-81428571D01*
X50642380Y-80619047D02*
X50642380Y-80428571D01*
X50690000Y-80333333D01*
X50785238Y-80238095D01*
X50975714Y-80190476D01*
X51309047Y-80190476D01*
X51499523Y-80238095D01*
X51594761Y-80333333D01*
X51642380Y-80428571D01*
X51642380Y-80619047D01*
X51594761Y-80714285D01*
X51499523Y-80809523D01*
X51309047Y-80857142D01*
X50975714Y-80857142D01*
X50785238Y-80809523D01*
X50690000Y-80714285D01*
X50642380Y-80619047D01*
X51118571Y-79428571D02*
X51118571Y-79761904D01*
X51642380Y-79761904D02*
X50642380Y-79761904D01*
X50642380Y-79285714D01*
X50737619Y-78952380D02*
X50690000Y-78904761D01*
X50642380Y-78809523D01*
X50642380Y-78571428D01*
X50690000Y-78476190D01*
X50737619Y-78428571D01*
X50832857Y-78380952D01*
X50928095Y-78380952D01*
X51070952Y-78428571D01*
X51642380Y-79000000D01*
X51642380Y-78380952D01*
X56403047Y-75969261D02*
X56614714Y-76604261D01*
X56826380Y-75969261D01*
X57310190Y-76574023D02*
X57249714Y-76604261D01*
X57128761Y-76604261D01*
X57068285Y-76574023D01*
X57038047Y-76543785D01*
X57007809Y-76483309D01*
X57007809Y-76301880D01*
X57038047Y-76241404D01*
X57068285Y-76211166D01*
X57128761Y-76180928D01*
X57249714Y-76180928D01*
X57310190Y-76211166D01*
X57854476Y-76574023D02*
X57794000Y-76604261D01*
X57673047Y-76604261D01*
X57612571Y-76574023D01*
X57582333Y-76543785D01*
X57552095Y-76483309D01*
X57552095Y-76301880D01*
X57582333Y-76241404D01*
X57612571Y-76211166D01*
X57673047Y-76180928D01*
X57794000Y-76180928D01*
X57854476Y-76211166D01*
X56342571Y-78509261D02*
X56705428Y-78509261D01*
X56524000Y-79144261D02*
X56524000Y-78509261D01*
X56917095Y-79144261D02*
X56917095Y-78720928D01*
X56917095Y-78841880D02*
X56947333Y-78781404D01*
X56977571Y-78751166D01*
X57038047Y-78720928D01*
X57098523Y-78720928D01*
X57310190Y-79144261D02*
X57310190Y-78720928D01*
X57310190Y-78509261D02*
X57279952Y-78539500D01*
X57310190Y-78569738D01*
X57340428Y-78539500D01*
X57310190Y-78509261D01*
X57310190Y-78569738D01*
X57884714Y-78720928D02*
X57884714Y-79234976D01*
X57854476Y-79295452D01*
X57824238Y-79325690D01*
X57763761Y-79355928D01*
X57673047Y-79355928D01*
X57612571Y-79325690D01*
X57884714Y-79114023D02*
X57824238Y-79144261D01*
X57703285Y-79144261D01*
X57642809Y-79114023D01*
X57612571Y-79083785D01*
X57582333Y-79023309D01*
X57582333Y-78841880D01*
X57612571Y-78781404D01*
X57642809Y-78751166D01*
X57703285Y-78720928D01*
X57824238Y-78720928D01*
X57884714Y-78751166D01*
X56303261Y-81224642D02*
X56514928Y-81224642D01*
X56605642Y-81557261D02*
X56303261Y-81557261D01*
X56303261Y-80922261D01*
X56605642Y-80922261D01*
X57149928Y-81527023D02*
X57089452Y-81557261D01*
X56968500Y-81557261D01*
X56908023Y-81527023D01*
X56877785Y-81496785D01*
X56847547Y-81436309D01*
X56847547Y-81254880D01*
X56877785Y-81194404D01*
X56908023Y-81164166D01*
X56968500Y-81133928D01*
X57089452Y-81133928D01*
X57149928Y-81164166D01*
X57422071Y-81557261D02*
X57422071Y-80922261D01*
X57694214Y-81557261D02*
X57694214Y-81224642D01*
X57663976Y-81164166D01*
X57603500Y-81133928D01*
X57512785Y-81133928D01*
X57452309Y-81164166D01*
X57422071Y-81194404D01*
X58087309Y-81557261D02*
X58026833Y-81527023D01*
X57996595Y-81496785D01*
X57966357Y-81436309D01*
X57966357Y-81254880D01*
X57996595Y-81194404D01*
X58026833Y-81164166D01*
X58087309Y-81133928D01*
X58178023Y-81133928D01*
X58238500Y-81164166D01*
X58268738Y-81194404D01*
X58298976Y-81254880D01*
X58298976Y-81436309D01*
X58268738Y-81496785D01*
X58238500Y-81527023D01*
X58178023Y-81557261D01*
X58087309Y-81557261D01*
X56675190Y-83619500D02*
X56614714Y-83589261D01*
X56524000Y-83589261D01*
X56433285Y-83619500D01*
X56372809Y-83679976D01*
X56342571Y-83740452D01*
X56312333Y-83861404D01*
X56312333Y-83952119D01*
X56342571Y-84073071D01*
X56372809Y-84133547D01*
X56433285Y-84194023D01*
X56524000Y-84224261D01*
X56584476Y-84224261D01*
X56675190Y-84194023D01*
X56705428Y-84163785D01*
X56705428Y-83952119D01*
X56584476Y-83952119D01*
X56977571Y-84224261D02*
X56977571Y-83589261D01*
X57340428Y-84224261D01*
X57340428Y-83589261D01*
X57642809Y-84224261D02*
X57642809Y-83589261D01*
X57794000Y-83589261D01*
X57884714Y-83619500D01*
X57945190Y-83679976D01*
X57975428Y-83740452D01*
X58005666Y-83861404D01*
X58005666Y-83952119D01*
X57975428Y-84073071D01*
X57945190Y-84133547D01*
X57884714Y-84194023D01*
X57794000Y-84224261D01*
X57642809Y-84224261D01*
%TO.C,TOF3*%
X238262380Y-81714285D02*
X238262380Y-81142857D01*
X239262380Y-81428571D02*
X238262380Y-81428571D01*
X238262380Y-80619047D02*
X238262380Y-80428571D01*
X238310000Y-80333333D01*
X238405238Y-80238095D01*
X238595714Y-80190476D01*
X238929047Y-80190476D01*
X239119523Y-80238095D01*
X239214761Y-80333333D01*
X239262380Y-80428571D01*
X239262380Y-80619047D01*
X239214761Y-80714285D01*
X239119523Y-80809523D01*
X238929047Y-80857142D01*
X238595714Y-80857142D01*
X238405238Y-80809523D01*
X238310000Y-80714285D01*
X238262380Y-80619047D01*
X238738571Y-79428571D02*
X238738571Y-79761904D01*
X239262380Y-79761904D02*
X238262380Y-79761904D01*
X238262380Y-79285714D01*
X238262380Y-79000000D02*
X238262380Y-78380952D01*
X238643333Y-78714285D01*
X238643333Y-78571428D01*
X238690952Y-78476190D01*
X238738571Y-78428571D01*
X238833809Y-78380952D01*
X239071904Y-78380952D01*
X239167142Y-78428571D01*
X239214761Y-78476190D01*
X239262380Y-78571428D01*
X239262380Y-78857142D01*
X239214761Y-78952380D01*
X239167142Y-79000000D01*
X232357190Y-75745500D02*
X232296714Y-75715261D01*
X232206000Y-75715261D01*
X232115285Y-75745500D01*
X232054809Y-75805976D01*
X232024571Y-75866452D01*
X231994333Y-75987404D01*
X231994333Y-76078119D01*
X232024571Y-76199071D01*
X232054809Y-76259547D01*
X232115285Y-76320023D01*
X232206000Y-76350261D01*
X232266476Y-76350261D01*
X232357190Y-76320023D01*
X232387428Y-76289785D01*
X232387428Y-76078119D01*
X232266476Y-76078119D01*
X232659571Y-76350261D02*
X232659571Y-75715261D01*
X233022428Y-76350261D01*
X233022428Y-75715261D01*
X233324809Y-76350261D02*
X233324809Y-75715261D01*
X233476000Y-75715261D01*
X233566714Y-75745500D01*
X233627190Y-75805976D01*
X233657428Y-75866452D01*
X233687666Y-75987404D01*
X233687666Y-76078119D01*
X233657428Y-76199071D01*
X233627190Y-76259547D01*
X233566714Y-76320023D01*
X233476000Y-76350261D01*
X233324809Y-76350261D01*
X231731261Y-78684642D02*
X231942928Y-78684642D01*
X232033642Y-79017261D02*
X231731261Y-79017261D01*
X231731261Y-78382261D01*
X232033642Y-78382261D01*
X232577928Y-78987023D02*
X232517452Y-79017261D01*
X232396500Y-79017261D01*
X232336023Y-78987023D01*
X232305785Y-78956785D01*
X232275547Y-78896309D01*
X232275547Y-78714880D01*
X232305785Y-78654404D01*
X232336023Y-78624166D01*
X232396500Y-78593928D01*
X232517452Y-78593928D01*
X232577928Y-78624166D01*
X232850071Y-79017261D02*
X232850071Y-78382261D01*
X233122214Y-79017261D02*
X233122214Y-78684642D01*
X233091976Y-78624166D01*
X233031500Y-78593928D01*
X232940785Y-78593928D01*
X232880309Y-78624166D01*
X232850071Y-78654404D01*
X233515309Y-79017261D02*
X233454833Y-78987023D01*
X233424595Y-78956785D01*
X233394357Y-78896309D01*
X233394357Y-78714880D01*
X233424595Y-78654404D01*
X233454833Y-78624166D01*
X233515309Y-78593928D01*
X233606023Y-78593928D01*
X233666500Y-78624166D01*
X233696738Y-78654404D01*
X233726976Y-78714880D01*
X233726976Y-78896309D01*
X233696738Y-78956785D01*
X233666500Y-78987023D01*
X233606023Y-79017261D01*
X233515309Y-79017261D01*
X232024571Y-80795261D02*
X232387428Y-80795261D01*
X232206000Y-81430261D02*
X232206000Y-80795261D01*
X232599095Y-81430261D02*
X232599095Y-81006928D01*
X232599095Y-81127880D02*
X232629333Y-81067404D01*
X232659571Y-81037166D01*
X232720047Y-81006928D01*
X232780523Y-81006928D01*
X232992190Y-81430261D02*
X232992190Y-81006928D01*
X232992190Y-80795261D02*
X232961952Y-80825500D01*
X232992190Y-80855738D01*
X233022428Y-80825500D01*
X232992190Y-80795261D01*
X232992190Y-80855738D01*
X233566714Y-81006928D02*
X233566714Y-81520976D01*
X233536476Y-81581452D01*
X233506238Y-81611690D01*
X233445761Y-81641928D01*
X233355047Y-81641928D01*
X233294571Y-81611690D01*
X233566714Y-81400023D02*
X233506238Y-81430261D01*
X233385285Y-81430261D01*
X233324809Y-81400023D01*
X233294571Y-81369785D01*
X233264333Y-81309309D01*
X233264333Y-81127880D01*
X233294571Y-81067404D01*
X233324809Y-81037166D01*
X233385285Y-81006928D01*
X233506238Y-81006928D01*
X233566714Y-81037166D01*
X232085047Y-83335261D02*
X232296714Y-83970261D01*
X232508380Y-83335261D01*
X232992190Y-83940023D02*
X232931714Y-83970261D01*
X232810761Y-83970261D01*
X232750285Y-83940023D01*
X232720047Y-83909785D01*
X232689809Y-83849309D01*
X232689809Y-83667880D01*
X232720047Y-83607404D01*
X232750285Y-83577166D01*
X232810761Y-83546928D01*
X232931714Y-83546928D01*
X232992190Y-83577166D01*
X233536476Y-83940023D02*
X233476000Y-83970261D01*
X233355047Y-83970261D01*
X233294571Y-83940023D01*
X233264333Y-83909785D01*
X233234095Y-83849309D01*
X233234095Y-83667880D01*
X233264333Y-83607404D01*
X233294571Y-83577166D01*
X233355047Y-83546928D01*
X233476000Y-83546928D01*
X233536476Y-83577166D01*
%TO.C,TOF4*%
X221094668Y-138519034D02*
X221498729Y-138114973D01*
X222003806Y-139024111D02*
X221296699Y-138317004D01*
X221869119Y-137744584D02*
X222003806Y-137609897D01*
X222104821Y-137576225D01*
X222239508Y-137576225D01*
X222407867Y-137677241D01*
X222643569Y-137912943D01*
X222744584Y-138081302D01*
X222744584Y-138215989D01*
X222710912Y-138317004D01*
X222576225Y-138451691D01*
X222475210Y-138485363D01*
X222340523Y-138485363D01*
X222172164Y-138384347D01*
X221936462Y-138148645D01*
X221835447Y-137980286D01*
X221835447Y-137845599D01*
X221869119Y-137744584D01*
X223047630Y-137239508D02*
X222811928Y-137475210D01*
X223182317Y-137845599D02*
X222475210Y-137138493D01*
X222811928Y-136801775D01*
X223620050Y-136465058D02*
X224091454Y-136936462D01*
X223182317Y-136364042D02*
X223519034Y-137037477D01*
X223956767Y-136599745D01*
X221139637Y-130122865D02*
X221118255Y-130058720D01*
X221054111Y-129994576D01*
X220968584Y-129951813D01*
X220883058Y-129951813D01*
X220818913Y-129973194D01*
X220712006Y-130037339D01*
X220647861Y-130101484D01*
X220583716Y-130208391D01*
X220562335Y-130272536D01*
X220562335Y-130358062D01*
X220605098Y-130443589D01*
X220647861Y-130486352D01*
X220733387Y-130529115D01*
X220776150Y-130529115D01*
X220925821Y-130379444D01*
X220840295Y-130293918D01*
X220925821Y-130764312D02*
X221374834Y-130315299D01*
X221182400Y-131020891D01*
X221631413Y-130571878D01*
X221396216Y-131234706D02*
X221845228Y-130785694D01*
X221952136Y-130892601D01*
X221994899Y-130978128D01*
X221994899Y-131063654D01*
X221973518Y-131127799D01*
X221909373Y-131234706D01*
X221845228Y-131298851D01*
X221738321Y-131362996D01*
X221674176Y-131384377D01*
X221588650Y-131384377D01*
X221503123Y-131341614D01*
X221396216Y-131234706D01*
X218618751Y-131758554D02*
X218768422Y-131908225D01*
X218597370Y-132207567D02*
X218383554Y-131993752D01*
X218832567Y-131544739D01*
X219046382Y-131758554D01*
X219003619Y-132571054D02*
X218939475Y-132549672D01*
X218853948Y-132464146D01*
X218832567Y-132400001D01*
X218832567Y-132357238D01*
X218853948Y-132293093D01*
X218982238Y-132164804D01*
X219046382Y-132143423D01*
X219089145Y-132143423D01*
X219153290Y-132164804D01*
X219238816Y-132250330D01*
X219260198Y-132314475D01*
X219174672Y-132784869D02*
X219623684Y-132335857D01*
X219367106Y-132977303D02*
X219602303Y-132742106D01*
X219623684Y-132677962D01*
X219602303Y-132613817D01*
X219538158Y-132549672D01*
X219474014Y-132528291D01*
X219431250Y-132528291D01*
X219645066Y-133255264D02*
X219623684Y-133191119D01*
X219623684Y-133148356D01*
X219645066Y-133084211D01*
X219773355Y-132955922D01*
X219837500Y-132934540D01*
X219880263Y-132934540D01*
X219944408Y-132955922D01*
X220008553Y-133020067D01*
X220029934Y-133084211D01*
X220029934Y-133126974D01*
X220008553Y-133191119D01*
X219880263Y-133319408D01*
X219816119Y-133340790D01*
X219773355Y-133340790D01*
X219709211Y-133319408D01*
X219645066Y-133255264D01*
X217333718Y-133458389D02*
X217590297Y-133714968D01*
X217012995Y-134035692D02*
X217462008Y-133586679D01*
X217290955Y-134313652D02*
X217590297Y-134014310D01*
X217504771Y-134099836D02*
X217568915Y-134078455D01*
X217611679Y-134078455D01*
X217675823Y-134099836D01*
X217718586Y-134142599D01*
X217568915Y-134591612D02*
X217868257Y-134292270D01*
X218017928Y-134142599D02*
X217975165Y-134142599D01*
X217975165Y-134185362D01*
X218017928Y-134185362D01*
X218017928Y-134142599D01*
X217975165Y-134185362D01*
X218274507Y-134698520D02*
X217911020Y-135062007D01*
X217846876Y-135083388D01*
X217804113Y-135083388D01*
X217739968Y-135062007D01*
X217675823Y-134997862D01*
X217654442Y-134933717D01*
X217996547Y-134976480D02*
X217932402Y-134955099D01*
X217846876Y-134869572D01*
X217825494Y-134805428D01*
X217825494Y-134762665D01*
X217846876Y-134698520D01*
X217975165Y-134570231D01*
X218039310Y-134548849D01*
X218082073Y-134548849D01*
X218146218Y-134570231D01*
X218231744Y-134655757D01*
X218253125Y-134719902D01*
X215580430Y-135297203D02*
X215281089Y-135895887D01*
X215879772Y-135596545D01*
X215794246Y-136366282D02*
X215730101Y-136344900D01*
X215644575Y-136259374D01*
X215623194Y-136195229D01*
X215623194Y-136152466D01*
X215644575Y-136088321D01*
X215772864Y-135960032D01*
X215837009Y-135938650D01*
X215879772Y-135938650D01*
X215943917Y-135960032D01*
X216029443Y-136045558D01*
X216050825Y-136109703D01*
X216179114Y-136751150D02*
X216114969Y-136729768D01*
X216029443Y-136644242D01*
X216008062Y-136580097D01*
X216008062Y-136537334D01*
X216029443Y-136473189D01*
X216157733Y-136344900D01*
X216221877Y-136323518D01*
X216264640Y-136323518D01*
X216328785Y-136344900D01*
X216414311Y-136430426D01*
X216435693Y-136494571D01*
%TO.C,TOF5*%
X143285714Y-153262380D02*
X143857142Y-153262380D01*
X143571428Y-154262380D02*
X143571428Y-153262380D01*
X144380952Y-153262380D02*
X144571428Y-153262380D01*
X144666666Y-153310000D01*
X144761904Y-153405238D01*
X144809523Y-153595714D01*
X144809523Y-153929047D01*
X144761904Y-154119523D01*
X144666666Y-154214761D01*
X144571428Y-154262380D01*
X144380952Y-154262380D01*
X144285714Y-154214761D01*
X144190476Y-154119523D01*
X144142857Y-153929047D01*
X144142857Y-153595714D01*
X144190476Y-153405238D01*
X144285714Y-153310000D01*
X144380952Y-153262380D01*
X145571428Y-153738571D02*
X145238095Y-153738571D01*
X145238095Y-154262380D02*
X145238095Y-153262380D01*
X145714285Y-153262380D01*
X146571428Y-153262380D02*
X146095238Y-153262380D01*
X146047619Y-153738571D01*
X146095238Y-153690952D01*
X146190476Y-153643333D01*
X146428571Y-153643333D01*
X146523809Y-153690952D01*
X146571428Y-153738571D01*
X146619047Y-153833809D01*
X146619047Y-154071904D01*
X146571428Y-154167142D01*
X146523809Y-154214761D01*
X146428571Y-154262380D01*
X146190476Y-154262380D01*
X146095238Y-154214761D01*
X146047619Y-154167142D01*
X140969261Y-148596952D02*
X141604261Y-148385285D01*
X140969261Y-148173619D01*
X141574023Y-147689809D02*
X141604261Y-147750285D01*
X141604261Y-147871238D01*
X141574023Y-147931714D01*
X141543785Y-147961952D01*
X141483309Y-147992190D01*
X141301880Y-147992190D01*
X141241404Y-147961952D01*
X141211166Y-147931714D01*
X141180928Y-147871238D01*
X141180928Y-147750285D01*
X141211166Y-147689809D01*
X141574023Y-147145523D02*
X141604261Y-147206000D01*
X141604261Y-147326952D01*
X141574023Y-147387428D01*
X141543785Y-147417666D01*
X141483309Y-147447904D01*
X141301880Y-147447904D01*
X141241404Y-147417666D01*
X141211166Y-147387428D01*
X141180928Y-147326952D01*
X141180928Y-147206000D01*
X141211166Y-147145523D01*
X143509261Y-148657428D02*
X143509261Y-148294571D01*
X144144261Y-148476000D02*
X143509261Y-148476000D01*
X144144261Y-148082904D02*
X143720928Y-148082904D01*
X143841880Y-148082904D02*
X143781404Y-148052666D01*
X143751166Y-148022428D01*
X143720928Y-147961952D01*
X143720928Y-147901476D01*
X144144261Y-147689809D02*
X143720928Y-147689809D01*
X143509261Y-147689809D02*
X143539500Y-147720047D01*
X143569738Y-147689809D01*
X143539500Y-147659571D01*
X143509261Y-147689809D01*
X143569738Y-147689809D01*
X143720928Y-147115285D02*
X144234976Y-147115285D01*
X144295452Y-147145523D01*
X144325690Y-147175761D01*
X144355928Y-147236238D01*
X144355928Y-147326952D01*
X144325690Y-147387428D01*
X144114023Y-147115285D02*
X144144261Y-147175761D01*
X144144261Y-147296714D01*
X144114023Y-147357190D01*
X144083785Y-147387428D01*
X144023309Y-147417666D01*
X143841880Y-147417666D01*
X143781404Y-147387428D01*
X143751166Y-147357190D01*
X143720928Y-147296714D01*
X143720928Y-147175761D01*
X143751166Y-147115285D01*
X146224642Y-148696738D02*
X146224642Y-148485071D01*
X146557261Y-148394357D02*
X146557261Y-148696738D01*
X145922261Y-148696738D01*
X145922261Y-148394357D01*
X146527023Y-147850071D02*
X146557261Y-147910547D01*
X146557261Y-148031500D01*
X146527023Y-148091976D01*
X146496785Y-148122214D01*
X146436309Y-148152452D01*
X146254880Y-148152452D01*
X146194404Y-148122214D01*
X146164166Y-148091976D01*
X146133928Y-148031500D01*
X146133928Y-147910547D01*
X146164166Y-147850071D01*
X146557261Y-147577928D02*
X145922261Y-147577928D01*
X146557261Y-147305785D02*
X146224642Y-147305785D01*
X146164166Y-147336023D01*
X146133928Y-147396500D01*
X146133928Y-147487214D01*
X146164166Y-147547690D01*
X146194404Y-147577928D01*
X146557261Y-146912690D02*
X146527023Y-146973166D01*
X146496785Y-147003404D01*
X146436309Y-147033642D01*
X146254880Y-147033642D01*
X146194404Y-147003404D01*
X146164166Y-146973166D01*
X146133928Y-146912690D01*
X146133928Y-146821976D01*
X146164166Y-146761500D01*
X146194404Y-146731261D01*
X146254880Y-146701023D01*
X146436309Y-146701023D01*
X146496785Y-146731261D01*
X146527023Y-146761500D01*
X146557261Y-146821976D01*
X146557261Y-146912690D01*
X148619500Y-148324809D02*
X148589261Y-148385285D01*
X148589261Y-148476000D01*
X148619500Y-148566714D01*
X148679976Y-148627190D01*
X148740452Y-148657428D01*
X148861404Y-148687666D01*
X148952119Y-148687666D01*
X149073071Y-148657428D01*
X149133547Y-148627190D01*
X149194023Y-148566714D01*
X149224261Y-148476000D01*
X149224261Y-148415523D01*
X149194023Y-148324809D01*
X149163785Y-148294571D01*
X148952119Y-148294571D01*
X148952119Y-148415523D01*
X149224261Y-148022428D02*
X148589261Y-148022428D01*
X149224261Y-147659571D01*
X148589261Y-147659571D01*
X149224261Y-147357190D02*
X148589261Y-147357190D01*
X148589261Y-147206000D01*
X148619500Y-147115285D01*
X148679976Y-147054809D01*
X148740452Y-147024571D01*
X148861404Y-146994333D01*
X148952119Y-146994333D01*
X149073071Y-147024571D01*
X149133547Y-147054809D01*
X149194023Y-147115285D01*
X149224261Y-147206000D01*
X149224261Y-147357190D01*
%TO.C,U1*%
X63138095Y-40752380D02*
X63138095Y-41561904D01*
X63185714Y-41657142D01*
X63233333Y-41704761D01*
X63328571Y-41752380D01*
X63519047Y-41752380D01*
X63614285Y-41704761D01*
X63661904Y-41657142D01*
X63709523Y-41561904D01*
X63709523Y-40752380D01*
X64709523Y-41752380D02*
X64138095Y-41752380D01*
X64423809Y-41752380D02*
X64423809Y-40752380D01*
X64328571Y-40895238D01*
X64233333Y-40990476D01*
X64138095Y-41038095D01*
X68221428Y-46680952D02*
X68221428Y-45919047D01*
X68602380Y-46300000D02*
X67840476Y-46300000D01*
X57792857Y-47311904D02*
X57792857Y-45788095D01*
%TO.C,U2*%
X188352180Y-105473404D02*
X189161704Y-105473404D01*
X189256942Y-105425785D01*
X189304561Y-105378166D01*
X189352180Y-105282928D01*
X189352180Y-105092452D01*
X189304561Y-104997214D01*
X189256942Y-104949595D01*
X189161704Y-104901976D01*
X188352180Y-104901976D01*
X188447419Y-104473404D02*
X188399800Y-104425785D01*
X188352180Y-104330547D01*
X188352180Y-104092452D01*
X188399800Y-103997214D01*
X188447419Y-103949595D01*
X188542657Y-103901976D01*
X188637895Y-103901976D01*
X188780752Y-103949595D01*
X189352180Y-104521023D01*
X189352180Y-103901976D01*
%TO.C,U3*%
X188364880Y-125920404D02*
X189174404Y-125920404D01*
X189269642Y-125872785D01*
X189317261Y-125825166D01*
X189364880Y-125729928D01*
X189364880Y-125539452D01*
X189317261Y-125444214D01*
X189269642Y-125396595D01*
X189174404Y-125348976D01*
X188364880Y-125348976D01*
X188364880Y-124968023D02*
X188364880Y-124348976D01*
X188745833Y-124682309D01*
X188745833Y-124539452D01*
X188793452Y-124444214D01*
X188841071Y-124396595D01*
X188936309Y-124348976D01*
X189174404Y-124348976D01*
X189269642Y-124396595D01*
X189317261Y-124444214D01*
X189364880Y-124539452D01*
X189364880Y-124825166D01*
X189317261Y-124920404D01*
X189269642Y-124968023D01*
%TO.C,U4*%
X215138095Y-89622380D02*
X215138095Y-90431904D01*
X215185714Y-90527142D01*
X215233333Y-90574761D01*
X215328571Y-90622380D01*
X215519047Y-90622380D01*
X215614285Y-90574761D01*
X215661904Y-90527142D01*
X215709523Y-90431904D01*
X215709523Y-89622380D01*
X216614285Y-89955714D02*
X216614285Y-90622380D01*
X216376190Y-89574761D02*
X216138095Y-90289047D01*
X216757142Y-90289047D01*
%TO.C,XH-3A1*%
X201612857Y-42378380D02*
X202279523Y-43378380D01*
X202279523Y-42378380D02*
X201612857Y-43378380D01*
X202660476Y-43378380D02*
X202660476Y-42378380D01*
X202660476Y-42854571D02*
X203231904Y-42854571D01*
X203231904Y-43378380D02*
X203231904Y-42378380D01*
X203708095Y-42997428D02*
X204470000Y-42997428D01*
X204850952Y-42378380D02*
X205470000Y-42378380D01*
X205136666Y-42759333D01*
X205279523Y-42759333D01*
X205374761Y-42806952D01*
X205422380Y-42854571D01*
X205470000Y-42949809D01*
X205470000Y-43187904D01*
X205422380Y-43283142D01*
X205374761Y-43330761D01*
X205279523Y-43378380D01*
X204993809Y-43378380D01*
X204898571Y-43330761D01*
X204850952Y-43283142D01*
X205850952Y-43092666D02*
X206327142Y-43092666D01*
X205755714Y-43378380D02*
X206089047Y-42378380D01*
X206422380Y-43378380D01*
X207279523Y-43378380D02*
X206708095Y-43378380D01*
X206993809Y-43378380D02*
X206993809Y-42378380D01*
X206898571Y-42521238D01*
X206803333Y-42616476D01*
X206708095Y-42664095D01*
X199644095Y-48014000D02*
X199548857Y-47966380D01*
X199406000Y-47966380D01*
X199263142Y-48014000D01*
X199167904Y-48109238D01*
X199120285Y-48204476D01*
X199072666Y-48394952D01*
X199072666Y-48537809D01*
X199120285Y-48728285D01*
X199167904Y-48823523D01*
X199263142Y-48918761D01*
X199406000Y-48966380D01*
X199501238Y-48966380D01*
X199644095Y-48918761D01*
X199691714Y-48871142D01*
X199691714Y-48537809D01*
X199501238Y-48537809D01*
X200120285Y-48966380D02*
X200120285Y-47966380D01*
X200691714Y-48966380D01*
X200691714Y-47966380D01*
X201167904Y-48966380D02*
X201167904Y-47966380D01*
X201406000Y-47966380D01*
X201548857Y-48014000D01*
X201644095Y-48109238D01*
X201691714Y-48204476D01*
X201739333Y-48394952D01*
X201739333Y-48537809D01*
X201691714Y-48728285D01*
X201644095Y-48823523D01*
X201548857Y-48918761D01*
X201406000Y-48966380D01*
X201167904Y-48966380D01*
X207534000Y-48966380D02*
X207534000Y-47966380D01*
X207772095Y-47966380D01*
X207914952Y-48014000D01*
X208010190Y-48109238D01*
X208057809Y-48204476D01*
X208105428Y-48394952D01*
X208105428Y-48537809D01*
X208057809Y-48728285D01*
X208010190Y-48823523D01*
X207914952Y-48918761D01*
X207772095Y-48966380D01*
X207534000Y-48966380D01*
X208534000Y-48966380D02*
X208534000Y-47966380D01*
X209581619Y-48966380D02*
X209248285Y-48490190D01*
X209010190Y-48966380D02*
X209010190Y-47966380D01*
X209391142Y-47966380D01*
X209486380Y-48014000D01*
X209534000Y-48061619D01*
X209581619Y-48156857D01*
X209581619Y-48299714D01*
X209534000Y-48394952D01*
X209486380Y-48442571D01*
X209391142Y-48490190D01*
X209010190Y-48490190D01*
X203065238Y-48966380D02*
X203065238Y-47966380D01*
X203446190Y-47966380D01*
X203541428Y-48014000D01*
X203589047Y-48061619D01*
X203636666Y-48156857D01*
X203636666Y-48299714D01*
X203589047Y-48394952D01*
X203541428Y-48442571D01*
X203446190Y-48490190D01*
X203065238Y-48490190D01*
X203970000Y-47966380D02*
X204208095Y-48966380D01*
X204398571Y-48252095D01*
X204589047Y-48966380D01*
X204827142Y-47966380D01*
X205208095Y-48966380D02*
X205208095Y-47966380D01*
X205541428Y-48680666D01*
X205874761Y-47966380D01*
X205874761Y-48966380D01*
%TO.C,XH-3A2*%
X215582857Y-42378380D02*
X216249523Y-43378380D01*
X216249523Y-42378380D02*
X215582857Y-43378380D01*
X216630476Y-43378380D02*
X216630476Y-42378380D01*
X216630476Y-42854571D02*
X217201904Y-42854571D01*
X217201904Y-43378380D02*
X217201904Y-42378380D01*
X217678095Y-42997428D02*
X218440000Y-42997428D01*
X218820952Y-42378380D02*
X219440000Y-42378380D01*
X219106666Y-42759333D01*
X219249523Y-42759333D01*
X219344761Y-42806952D01*
X219392380Y-42854571D01*
X219440000Y-42949809D01*
X219440000Y-43187904D01*
X219392380Y-43283142D01*
X219344761Y-43330761D01*
X219249523Y-43378380D01*
X218963809Y-43378380D01*
X218868571Y-43330761D01*
X218820952Y-43283142D01*
X219820952Y-43092666D02*
X220297142Y-43092666D01*
X219725714Y-43378380D02*
X220059047Y-42378380D01*
X220392380Y-43378380D01*
X220678095Y-42473619D02*
X220725714Y-42426000D01*
X220820952Y-42378380D01*
X221059047Y-42378380D01*
X221154285Y-42426000D01*
X221201904Y-42473619D01*
X221249523Y-42568857D01*
X221249523Y-42664095D01*
X221201904Y-42806952D01*
X220630476Y-43378380D01*
X221249523Y-43378380D01*
X217035238Y-48966380D02*
X217035238Y-47966380D01*
X217416190Y-47966380D01*
X217511428Y-48014000D01*
X217559047Y-48061619D01*
X217606666Y-48156857D01*
X217606666Y-48299714D01*
X217559047Y-48394952D01*
X217511428Y-48442571D01*
X217416190Y-48490190D01*
X217035238Y-48490190D01*
X217940000Y-47966380D02*
X218178095Y-48966380D01*
X218368571Y-48252095D01*
X218559047Y-48966380D01*
X218797142Y-47966380D01*
X219178095Y-48966380D02*
X219178095Y-47966380D01*
X219511428Y-48680666D01*
X219844761Y-47966380D01*
X219844761Y-48966380D01*
X221504000Y-48966380D02*
X221504000Y-47966380D01*
X221742095Y-47966380D01*
X221884952Y-48014000D01*
X221980190Y-48109238D01*
X222027809Y-48204476D01*
X222075428Y-48394952D01*
X222075428Y-48537809D01*
X222027809Y-48728285D01*
X221980190Y-48823523D01*
X221884952Y-48918761D01*
X221742095Y-48966380D01*
X221504000Y-48966380D01*
X222504000Y-48966380D02*
X222504000Y-47966380D01*
X223551619Y-48966380D02*
X223218285Y-48490190D01*
X222980190Y-48966380D02*
X222980190Y-47966380D01*
X223361142Y-47966380D01*
X223456380Y-48014000D01*
X223504000Y-48061619D01*
X223551619Y-48156857D01*
X223551619Y-48299714D01*
X223504000Y-48394952D01*
X223456380Y-48442571D01*
X223361142Y-48490190D01*
X222980190Y-48490190D01*
X213614095Y-48014000D02*
X213518857Y-47966380D01*
X213376000Y-47966380D01*
X213233142Y-48014000D01*
X213137904Y-48109238D01*
X213090285Y-48204476D01*
X213042666Y-48394952D01*
X213042666Y-48537809D01*
X213090285Y-48728285D01*
X213137904Y-48823523D01*
X213233142Y-48918761D01*
X213376000Y-48966380D01*
X213471238Y-48966380D01*
X213614095Y-48918761D01*
X213661714Y-48871142D01*
X213661714Y-48537809D01*
X213471238Y-48537809D01*
X214090285Y-48966380D02*
X214090285Y-47966380D01*
X214661714Y-48966380D01*
X214661714Y-47966380D01*
X215137904Y-48966380D02*
X215137904Y-47966380D01*
X215376000Y-47966380D01*
X215518857Y-48014000D01*
X215614095Y-48109238D01*
X215661714Y-48204476D01*
X215709333Y-48394952D01*
X215709333Y-48537809D01*
X215661714Y-48728285D01*
X215614095Y-48823523D01*
X215518857Y-48918761D01*
X215376000Y-48966380D01*
X215137904Y-48966380D01*
%TO.C,XH-3A3*%
X80962857Y-42378380D02*
X81629523Y-43378380D01*
X81629523Y-42378380D02*
X80962857Y-43378380D01*
X82010476Y-43378380D02*
X82010476Y-42378380D01*
X82010476Y-42854571D02*
X82581904Y-42854571D01*
X82581904Y-43378380D02*
X82581904Y-42378380D01*
X83058095Y-42997428D02*
X83820000Y-42997428D01*
X84200952Y-42378380D02*
X84820000Y-42378380D01*
X84486666Y-42759333D01*
X84629523Y-42759333D01*
X84724761Y-42806952D01*
X84772380Y-42854571D01*
X84820000Y-42949809D01*
X84820000Y-43187904D01*
X84772380Y-43283142D01*
X84724761Y-43330761D01*
X84629523Y-43378380D01*
X84343809Y-43378380D01*
X84248571Y-43330761D01*
X84200952Y-43283142D01*
X85200952Y-43092666D02*
X85677142Y-43092666D01*
X85105714Y-43378380D02*
X85439047Y-42378380D01*
X85772380Y-43378380D01*
X86010476Y-42378380D02*
X86629523Y-42378380D01*
X86296190Y-42759333D01*
X86439047Y-42759333D01*
X86534285Y-42806952D01*
X86581904Y-42854571D01*
X86629523Y-42949809D01*
X86629523Y-43187904D01*
X86581904Y-43283142D01*
X86534285Y-43330761D01*
X86439047Y-43378380D01*
X86153333Y-43378380D01*
X86058095Y-43330761D01*
X86010476Y-43283142D01*
X78994095Y-48014000D02*
X78898857Y-47966380D01*
X78756000Y-47966380D01*
X78613142Y-48014000D01*
X78517904Y-48109238D01*
X78470285Y-48204476D01*
X78422666Y-48394952D01*
X78422666Y-48537809D01*
X78470285Y-48728285D01*
X78517904Y-48823523D01*
X78613142Y-48918761D01*
X78756000Y-48966380D01*
X78851238Y-48966380D01*
X78994095Y-48918761D01*
X79041714Y-48871142D01*
X79041714Y-48537809D01*
X78851238Y-48537809D01*
X79470285Y-48966380D02*
X79470285Y-47966380D01*
X80041714Y-48966380D01*
X80041714Y-47966380D01*
X80517904Y-48966380D02*
X80517904Y-47966380D01*
X80756000Y-47966380D01*
X80898857Y-48014000D01*
X80994095Y-48109238D01*
X81041714Y-48204476D01*
X81089333Y-48394952D01*
X81089333Y-48537809D01*
X81041714Y-48728285D01*
X80994095Y-48823523D01*
X80898857Y-48918761D01*
X80756000Y-48966380D01*
X80517904Y-48966380D01*
X86884000Y-48966380D02*
X86884000Y-47966380D01*
X87122095Y-47966380D01*
X87264952Y-48014000D01*
X87360190Y-48109238D01*
X87407809Y-48204476D01*
X87455428Y-48394952D01*
X87455428Y-48537809D01*
X87407809Y-48728285D01*
X87360190Y-48823523D01*
X87264952Y-48918761D01*
X87122095Y-48966380D01*
X86884000Y-48966380D01*
X87884000Y-48966380D02*
X87884000Y-47966380D01*
X88931619Y-48966380D02*
X88598285Y-48490190D01*
X88360190Y-48966380D02*
X88360190Y-47966380D01*
X88741142Y-47966380D01*
X88836380Y-48014000D01*
X88884000Y-48061619D01*
X88931619Y-48156857D01*
X88931619Y-48299714D01*
X88884000Y-48394952D01*
X88836380Y-48442571D01*
X88741142Y-48490190D01*
X88360190Y-48490190D01*
X82415238Y-48966380D02*
X82415238Y-47966380D01*
X82796190Y-47966380D01*
X82891428Y-48014000D01*
X82939047Y-48061619D01*
X82986666Y-48156857D01*
X82986666Y-48299714D01*
X82939047Y-48394952D01*
X82891428Y-48442571D01*
X82796190Y-48490190D01*
X82415238Y-48490190D01*
X83320000Y-47966380D02*
X83558095Y-48966380D01*
X83748571Y-48252095D01*
X83939047Y-48966380D01*
X84177142Y-47966380D01*
X84558095Y-48966380D02*
X84558095Y-47966380D01*
X84891428Y-48680666D01*
X85224761Y-47966380D01*
X85224761Y-48966380D01*
%TO.C,XH-3A4*%
X94932857Y-42378380D02*
X95599523Y-43378380D01*
X95599523Y-42378380D02*
X94932857Y-43378380D01*
X95980476Y-43378380D02*
X95980476Y-42378380D01*
X95980476Y-42854571D02*
X96551904Y-42854571D01*
X96551904Y-43378380D02*
X96551904Y-42378380D01*
X97028095Y-42997428D02*
X97790000Y-42997428D01*
X98170952Y-42378380D02*
X98790000Y-42378380D01*
X98456666Y-42759333D01*
X98599523Y-42759333D01*
X98694761Y-42806952D01*
X98742380Y-42854571D01*
X98790000Y-42949809D01*
X98790000Y-43187904D01*
X98742380Y-43283142D01*
X98694761Y-43330761D01*
X98599523Y-43378380D01*
X98313809Y-43378380D01*
X98218571Y-43330761D01*
X98170952Y-43283142D01*
X99170952Y-43092666D02*
X99647142Y-43092666D01*
X99075714Y-43378380D02*
X99409047Y-42378380D01*
X99742380Y-43378380D01*
X100504285Y-42711714D02*
X100504285Y-43378380D01*
X100266190Y-42330761D02*
X100028095Y-43045047D01*
X100647142Y-43045047D01*
X96385238Y-48966380D02*
X96385238Y-47966380D01*
X96766190Y-47966380D01*
X96861428Y-48014000D01*
X96909047Y-48061619D01*
X96956666Y-48156857D01*
X96956666Y-48299714D01*
X96909047Y-48394952D01*
X96861428Y-48442571D01*
X96766190Y-48490190D01*
X96385238Y-48490190D01*
X97290000Y-47966380D02*
X97528095Y-48966380D01*
X97718571Y-48252095D01*
X97909047Y-48966380D01*
X98147142Y-47966380D01*
X98528095Y-48966380D02*
X98528095Y-47966380D01*
X98861428Y-48680666D01*
X99194761Y-47966380D01*
X99194761Y-48966380D01*
X100854000Y-48966380D02*
X100854000Y-47966380D01*
X101092095Y-47966380D01*
X101234952Y-48014000D01*
X101330190Y-48109238D01*
X101377809Y-48204476D01*
X101425428Y-48394952D01*
X101425428Y-48537809D01*
X101377809Y-48728285D01*
X101330190Y-48823523D01*
X101234952Y-48918761D01*
X101092095Y-48966380D01*
X100854000Y-48966380D01*
X101854000Y-48966380D02*
X101854000Y-47966380D01*
X102901619Y-48966380D02*
X102568285Y-48490190D01*
X102330190Y-48966380D02*
X102330190Y-47966380D01*
X102711142Y-47966380D01*
X102806380Y-48014000D01*
X102854000Y-48061619D01*
X102901619Y-48156857D01*
X102901619Y-48299714D01*
X102854000Y-48394952D01*
X102806380Y-48442571D01*
X102711142Y-48490190D01*
X102330190Y-48490190D01*
X92964095Y-48014000D02*
X92868857Y-47966380D01*
X92726000Y-47966380D01*
X92583142Y-48014000D01*
X92487904Y-48109238D01*
X92440285Y-48204476D01*
X92392666Y-48394952D01*
X92392666Y-48537809D01*
X92440285Y-48728285D01*
X92487904Y-48823523D01*
X92583142Y-48918761D01*
X92726000Y-48966380D01*
X92821238Y-48966380D01*
X92964095Y-48918761D01*
X93011714Y-48871142D01*
X93011714Y-48537809D01*
X92821238Y-48537809D01*
X93440285Y-48966380D02*
X93440285Y-47966380D01*
X94011714Y-48966380D01*
X94011714Y-47966380D01*
X94487904Y-48966380D02*
X94487904Y-47966380D01*
X94726000Y-47966380D01*
X94868857Y-48014000D01*
X94964095Y-48109238D01*
X95011714Y-48204476D01*
X95059333Y-48394952D01*
X95059333Y-48537809D01*
X95011714Y-48728285D01*
X94964095Y-48823523D01*
X94868857Y-48918761D01*
X94726000Y-48966380D01*
X94487904Y-48966380D01*
%TO.C,B1*%
X183745238Y-140128571D02*
X183888095Y-140176190D01*
X183935714Y-140223809D01*
X183983333Y-140319047D01*
X183983333Y-140461904D01*
X183935714Y-140557142D01*
X183888095Y-140604761D01*
X183792857Y-140652380D01*
X183411904Y-140652380D01*
X183411904Y-139652380D01*
X183745238Y-139652380D01*
X183840476Y-139700000D01*
X183888095Y-139747619D01*
X183935714Y-139842857D01*
X183935714Y-139938095D01*
X183888095Y-140033333D01*
X183840476Y-140080952D01*
X183745238Y-140128571D01*
X183411904Y-140128571D01*
X184935714Y-140652380D02*
X184364285Y-140652380D01*
X184650000Y-140652380D02*
X184650000Y-139652380D01*
X184554761Y-139795238D01*
X184459523Y-139890476D01*
X184364285Y-139938095D01*
%TO.C,B2*%
X175435238Y-140128571D02*
X175578095Y-140176190D01*
X175625714Y-140223809D01*
X175673333Y-140319047D01*
X175673333Y-140461904D01*
X175625714Y-140557142D01*
X175578095Y-140604761D01*
X175482857Y-140652380D01*
X175101904Y-140652380D01*
X175101904Y-139652380D01*
X175435238Y-139652380D01*
X175530476Y-139700000D01*
X175578095Y-139747619D01*
X175625714Y-139842857D01*
X175625714Y-139938095D01*
X175578095Y-140033333D01*
X175530476Y-140080952D01*
X175435238Y-140128571D01*
X175101904Y-140128571D01*
X176054285Y-139747619D02*
X176101904Y-139700000D01*
X176197142Y-139652380D01*
X176435238Y-139652380D01*
X176530476Y-139700000D01*
X176578095Y-139747619D01*
X176625714Y-139842857D01*
X176625714Y-139938095D01*
X176578095Y-140080952D01*
X176006666Y-140652380D01*
X176625714Y-140652380D01*
%TO.C,B3*%
X192635238Y-140128571D02*
X192778095Y-140176190D01*
X192825714Y-140223809D01*
X192873333Y-140319047D01*
X192873333Y-140461904D01*
X192825714Y-140557142D01*
X192778095Y-140604761D01*
X192682857Y-140652380D01*
X192301904Y-140652380D01*
X192301904Y-139652380D01*
X192635238Y-139652380D01*
X192730476Y-139700000D01*
X192778095Y-139747619D01*
X192825714Y-139842857D01*
X192825714Y-139938095D01*
X192778095Y-140033333D01*
X192730476Y-140080952D01*
X192635238Y-140128571D01*
X192301904Y-140128571D01*
X193206666Y-139652380D02*
X193825714Y-139652380D01*
X193492380Y-140033333D01*
X193635238Y-140033333D01*
X193730476Y-140080952D01*
X193778095Y-140128571D01*
X193825714Y-140223809D01*
X193825714Y-140461904D01*
X193778095Y-140557142D01*
X193730476Y-140604761D01*
X193635238Y-140652380D01*
X193349523Y-140652380D01*
X193254285Y-140604761D01*
X193206666Y-140557142D01*
%TO.C,B4*%
X167235238Y-140128571D02*
X167378095Y-140176190D01*
X167425714Y-140223809D01*
X167473333Y-140319047D01*
X167473333Y-140461904D01*
X167425714Y-140557142D01*
X167378095Y-140604761D01*
X167282857Y-140652380D01*
X166901904Y-140652380D01*
X166901904Y-139652380D01*
X167235238Y-139652380D01*
X167330476Y-139700000D01*
X167378095Y-139747619D01*
X167425714Y-139842857D01*
X167425714Y-139938095D01*
X167378095Y-140033333D01*
X167330476Y-140080952D01*
X167235238Y-140128571D01*
X166901904Y-140128571D01*
X168330476Y-139985714D02*
X168330476Y-140652380D01*
X168092380Y-139604761D02*
X167854285Y-140319047D01*
X168473333Y-140319047D01*
%TO.C,LED1*%
X94130952Y-140002380D02*
X93654761Y-140002380D01*
X93654761Y-139002380D01*
X94464285Y-139478571D02*
X94797619Y-139478571D01*
X94940476Y-140002380D02*
X94464285Y-140002380D01*
X94464285Y-139002380D01*
X94940476Y-139002380D01*
X95369047Y-140002380D02*
X95369047Y-139002380D01*
X95607142Y-139002380D01*
X95750000Y-139050000D01*
X95845238Y-139145238D01*
X95892857Y-139240476D01*
X95940476Y-139430952D01*
X95940476Y-139573809D01*
X95892857Y-139764285D01*
X95845238Y-139859523D01*
X95750000Y-139954761D01*
X95607142Y-140002380D01*
X95369047Y-140002380D01*
X96892857Y-140002380D02*
X96321428Y-140002380D01*
X96607142Y-140002380D02*
X96607142Y-139002380D01*
X96511904Y-139145238D01*
X96416666Y-139240476D01*
X96321428Y-139288095D01*
%TO.C,LED2*%
X101750952Y-140002380D02*
X101274761Y-140002380D01*
X101274761Y-139002380D01*
X102084285Y-139478571D02*
X102417619Y-139478571D01*
X102560476Y-140002380D02*
X102084285Y-140002380D01*
X102084285Y-139002380D01*
X102560476Y-139002380D01*
X102989047Y-140002380D02*
X102989047Y-139002380D01*
X103227142Y-139002380D01*
X103370000Y-139050000D01*
X103465238Y-139145238D01*
X103512857Y-139240476D01*
X103560476Y-139430952D01*
X103560476Y-139573809D01*
X103512857Y-139764285D01*
X103465238Y-139859523D01*
X103370000Y-139954761D01*
X103227142Y-140002380D01*
X102989047Y-140002380D01*
X103941428Y-139097619D02*
X103989047Y-139050000D01*
X104084285Y-139002380D01*
X104322380Y-139002380D01*
X104417619Y-139050000D01*
X104465238Y-139097619D01*
X104512857Y-139192857D01*
X104512857Y-139288095D01*
X104465238Y-139430952D01*
X103893809Y-140002380D01*
X104512857Y-140002380D01*
%TO.C,LED3*%
X109370952Y-140002380D02*
X108894761Y-140002380D01*
X108894761Y-139002380D01*
X109704285Y-139478571D02*
X110037619Y-139478571D01*
X110180476Y-140002380D02*
X109704285Y-140002380D01*
X109704285Y-139002380D01*
X110180476Y-139002380D01*
X110609047Y-140002380D02*
X110609047Y-139002380D01*
X110847142Y-139002380D01*
X110990000Y-139050000D01*
X111085238Y-139145238D01*
X111132857Y-139240476D01*
X111180476Y-139430952D01*
X111180476Y-139573809D01*
X111132857Y-139764285D01*
X111085238Y-139859523D01*
X110990000Y-139954761D01*
X110847142Y-140002380D01*
X110609047Y-140002380D01*
X111513809Y-139002380D02*
X112132857Y-139002380D01*
X111799523Y-139383333D01*
X111942380Y-139383333D01*
X112037619Y-139430952D01*
X112085238Y-139478571D01*
X112132857Y-139573809D01*
X112132857Y-139811904D01*
X112085238Y-139907142D01*
X112037619Y-139954761D01*
X111942380Y-140002380D01*
X111656666Y-140002380D01*
X111561428Y-139954761D01*
X111513809Y-139907142D01*
%TO.C,LED4*%
X116990952Y-140002380D02*
X116514761Y-140002380D01*
X116514761Y-139002380D01*
X117324285Y-139478571D02*
X117657619Y-139478571D01*
X117800476Y-140002380D02*
X117324285Y-140002380D01*
X117324285Y-139002380D01*
X117800476Y-139002380D01*
X118229047Y-140002380D02*
X118229047Y-139002380D01*
X118467142Y-139002380D01*
X118610000Y-139050000D01*
X118705238Y-139145238D01*
X118752857Y-139240476D01*
X118800476Y-139430952D01*
X118800476Y-139573809D01*
X118752857Y-139764285D01*
X118705238Y-139859523D01*
X118610000Y-139954761D01*
X118467142Y-140002380D01*
X118229047Y-140002380D01*
X119657619Y-139335714D02*
X119657619Y-140002380D01*
X119419523Y-138954761D02*
X119181428Y-139669047D01*
X119800476Y-139669047D01*
%TO.C,R11*%
X100322142Y-154122380D02*
X99988809Y-153646190D01*
X99750714Y-154122380D02*
X99750714Y-153122380D01*
X100131666Y-153122380D01*
X100226904Y-153170000D01*
X100274523Y-153217619D01*
X100322142Y-153312857D01*
X100322142Y-153455714D01*
X100274523Y-153550952D01*
X100226904Y-153598571D01*
X100131666Y-153646190D01*
X99750714Y-153646190D01*
X101274523Y-154122380D02*
X100703095Y-154122380D01*
X100988809Y-154122380D02*
X100988809Y-153122380D01*
X100893571Y-153265238D01*
X100798333Y-153360476D01*
X100703095Y-153408095D01*
X102226904Y-154122380D02*
X101655476Y-154122380D01*
X101941190Y-154122380D02*
X101941190Y-153122380D01*
X101845952Y-153265238D01*
X101750714Y-153360476D01*
X101655476Y-153408095D01*
%TO.C,R12*%
X99052142Y-133802380D02*
X98718809Y-133326190D01*
X98480714Y-133802380D02*
X98480714Y-132802380D01*
X98861666Y-132802380D01*
X98956904Y-132850000D01*
X99004523Y-132897619D01*
X99052142Y-132992857D01*
X99052142Y-133135714D01*
X99004523Y-133230952D01*
X98956904Y-133278571D01*
X98861666Y-133326190D01*
X98480714Y-133326190D01*
X100004523Y-133802380D02*
X99433095Y-133802380D01*
X99718809Y-133802380D02*
X99718809Y-132802380D01*
X99623571Y-132945238D01*
X99528333Y-133040476D01*
X99433095Y-133088095D01*
X100385476Y-132897619D02*
X100433095Y-132850000D01*
X100528333Y-132802380D01*
X100766428Y-132802380D01*
X100861666Y-132850000D01*
X100909285Y-132897619D01*
X100956904Y-132992857D01*
X100956904Y-133088095D01*
X100909285Y-133230952D01*
X100337857Y-133802380D01*
X100956904Y-133802380D01*
%TO.C,R13*%
X114927142Y-154122380D02*
X114593809Y-153646190D01*
X114355714Y-154122380D02*
X114355714Y-153122380D01*
X114736666Y-153122380D01*
X114831904Y-153170000D01*
X114879523Y-153217619D01*
X114927142Y-153312857D01*
X114927142Y-153455714D01*
X114879523Y-153550952D01*
X114831904Y-153598571D01*
X114736666Y-153646190D01*
X114355714Y-153646190D01*
X115879523Y-154122380D02*
X115308095Y-154122380D01*
X115593809Y-154122380D02*
X115593809Y-153122380D01*
X115498571Y-153265238D01*
X115403333Y-153360476D01*
X115308095Y-153408095D01*
X116212857Y-153122380D02*
X116831904Y-153122380D01*
X116498571Y-153503333D01*
X116641428Y-153503333D01*
X116736666Y-153550952D01*
X116784285Y-153598571D01*
X116831904Y-153693809D01*
X116831904Y-153931904D01*
X116784285Y-154027142D01*
X116736666Y-154074761D01*
X116641428Y-154122380D01*
X116355714Y-154122380D01*
X116260476Y-154074761D01*
X116212857Y-154027142D01*
%TO.C,R14*%
X129992380Y-139707857D02*
X129516190Y-140041190D01*
X129992380Y-140279285D02*
X128992380Y-140279285D01*
X128992380Y-139898333D01*
X129040000Y-139803095D01*
X129087619Y-139755476D01*
X129182857Y-139707857D01*
X129325714Y-139707857D01*
X129420952Y-139755476D01*
X129468571Y-139803095D01*
X129516190Y-139898333D01*
X129516190Y-140279285D01*
X129992380Y-138755476D02*
X129992380Y-139326904D01*
X129992380Y-139041190D02*
X128992380Y-139041190D01*
X129135238Y-139136428D01*
X129230476Y-139231666D01*
X129278095Y-139326904D01*
X129325714Y-137898333D02*
X129992380Y-137898333D01*
X128944761Y-138136428D02*
X129659047Y-138374523D01*
X129659047Y-137755476D01*
%TO.C,R15*%
X185412142Y-155392380D02*
X185078809Y-154916190D01*
X184840714Y-155392380D02*
X184840714Y-154392380D01*
X185221666Y-154392380D01*
X185316904Y-154440000D01*
X185364523Y-154487619D01*
X185412142Y-154582857D01*
X185412142Y-154725714D01*
X185364523Y-154820952D01*
X185316904Y-154868571D01*
X185221666Y-154916190D01*
X184840714Y-154916190D01*
X186364523Y-155392380D02*
X185793095Y-155392380D01*
X186078809Y-155392380D02*
X186078809Y-154392380D01*
X185983571Y-154535238D01*
X185888333Y-154630476D01*
X185793095Y-154678095D01*
X187269285Y-154392380D02*
X186793095Y-154392380D01*
X186745476Y-154868571D01*
X186793095Y-154820952D01*
X186888333Y-154773333D01*
X187126428Y-154773333D01*
X187221666Y-154820952D01*
X187269285Y-154868571D01*
X187316904Y-154963809D01*
X187316904Y-155201904D01*
X187269285Y-155297142D01*
X187221666Y-155344761D01*
X187126428Y-155392380D01*
X186888333Y-155392380D01*
X186793095Y-155344761D01*
X186745476Y-155297142D01*
%TO.C,R16*%
X177157142Y-151582380D02*
X176823809Y-151106190D01*
X176585714Y-151582380D02*
X176585714Y-150582380D01*
X176966666Y-150582380D01*
X177061904Y-150630000D01*
X177109523Y-150677619D01*
X177157142Y-150772857D01*
X177157142Y-150915714D01*
X177109523Y-151010952D01*
X177061904Y-151058571D01*
X176966666Y-151106190D01*
X176585714Y-151106190D01*
X178109523Y-151582380D02*
X177538095Y-151582380D01*
X177823809Y-151582380D02*
X177823809Y-150582380D01*
X177728571Y-150725238D01*
X177633333Y-150820476D01*
X177538095Y-150868095D01*
X178966666Y-150582380D02*
X178776190Y-150582380D01*
X178680952Y-150630000D01*
X178633333Y-150677619D01*
X178538095Y-150820476D01*
X178490476Y-151010952D01*
X178490476Y-151391904D01*
X178538095Y-151487142D01*
X178585714Y-151534761D01*
X178680952Y-151582380D01*
X178871428Y-151582380D01*
X178966666Y-151534761D01*
X179014285Y-151487142D01*
X179061904Y-151391904D01*
X179061904Y-151153809D01*
X179014285Y-151058571D01*
X178966666Y-151010952D01*
X178871428Y-150963333D01*
X178680952Y-150963333D01*
X178585714Y-151010952D01*
X178538095Y-151058571D01*
X178490476Y-151153809D01*
%TO.C,R17*%
X194302142Y-151582380D02*
X193968809Y-151106190D01*
X193730714Y-151582380D02*
X193730714Y-150582380D01*
X194111666Y-150582380D01*
X194206904Y-150630000D01*
X194254523Y-150677619D01*
X194302142Y-150772857D01*
X194302142Y-150915714D01*
X194254523Y-151010952D01*
X194206904Y-151058571D01*
X194111666Y-151106190D01*
X193730714Y-151106190D01*
X195254523Y-151582380D02*
X194683095Y-151582380D01*
X194968809Y-151582380D02*
X194968809Y-150582380D01*
X194873571Y-150725238D01*
X194778333Y-150820476D01*
X194683095Y-150868095D01*
X195587857Y-150582380D02*
X196254523Y-150582380D01*
X195825952Y-151582380D01*
%TO.C,R18*%
X153662142Y-133802380D02*
X153328809Y-133326190D01*
X153090714Y-133802380D02*
X153090714Y-132802380D01*
X153471666Y-132802380D01*
X153566904Y-132850000D01*
X153614523Y-132897619D01*
X153662142Y-132992857D01*
X153662142Y-133135714D01*
X153614523Y-133230952D01*
X153566904Y-133278571D01*
X153471666Y-133326190D01*
X153090714Y-133326190D01*
X154614523Y-133802380D02*
X154043095Y-133802380D01*
X154328809Y-133802380D02*
X154328809Y-132802380D01*
X154233571Y-132945238D01*
X154138333Y-133040476D01*
X154043095Y-133088095D01*
X155185952Y-133230952D02*
X155090714Y-133183333D01*
X155043095Y-133135714D01*
X154995476Y-133040476D01*
X154995476Y-132992857D01*
X155043095Y-132897619D01*
X155090714Y-132850000D01*
X155185952Y-132802380D01*
X155376428Y-132802380D01*
X155471666Y-132850000D01*
X155519285Y-132897619D01*
X155566904Y-132992857D01*
X155566904Y-133040476D01*
X155519285Y-133135714D01*
X155471666Y-133183333D01*
X155376428Y-133230952D01*
X155185952Y-133230952D01*
X155090714Y-133278571D01*
X155043095Y-133326190D01*
X154995476Y-133421428D01*
X154995476Y-133611904D01*
X155043095Y-133707142D01*
X155090714Y-133754761D01*
X155185952Y-133802380D01*
X155376428Y-133802380D01*
X155471666Y-133754761D01*
X155519285Y-133707142D01*
X155566904Y-133611904D01*
X155566904Y-133421428D01*
X155519285Y-133326190D01*
X155471666Y-133278571D01*
X155376428Y-133230952D01*
%TD*%
M02*
