%TF.GenerationSoftware,KiCad,Pcbnew,(5.1.10)-1*%
%TF.CreationDate,2021-11-04T17:31:58-05:00*%
%TF.ProjectId,gpsv1.1,67707376-312e-4312-9e6b-696361645f70,rev?*%
%TF.SameCoordinates,Original*%
%TF.FileFunction,Copper,L2,Bot*%
%TF.FilePolarity,Positive*%
%FSLAX46Y46*%
G04 Gerber Fmt 4.6, Leading zero omitted, Abs format (unit mm)*
G04 Created by KiCad (PCBNEW (5.1.10)-1) date 2021-11-04 17:31:58*
%MOMM*%
%LPD*%
G01*
G04 APERTURE LIST*
%TA.AperFunction,ComponentPad*%
%ADD10C,1.524000*%
%TD*%
%TA.AperFunction,ComponentPad*%
%ADD11C,1.600000*%
%TD*%
%TA.AperFunction,ComponentPad*%
%ADD12O,1.600000X1.600000*%
%TD*%
%TA.AperFunction,ViaPad*%
%ADD13C,0.800000*%
%TD*%
%TA.AperFunction,Conductor*%
%ADD14C,0.250000*%
%TD*%
%TA.AperFunction,Conductor*%
%ADD15C,0.254000*%
%TD*%
%TA.AperFunction,Conductor*%
%ADD16C,0.100000*%
%TD*%
G04 APERTURE END LIST*
D10*
%TO.P,J3,1*%
%TO.N,Gnd*%
X128005000Y-56032000D03*
%TD*%
%TO.P,J2,1*%
%TO.N,Net-(J2-Pad1)*%
X125365000Y-56032000D03*
%TD*%
%TO.P,J1,1*%
%TO.N,Net-(J1-Pad1)*%
X75365000Y-56032000D03*
%TD*%
%TO.P,TOF5,1*%
%TO.N,Vin*%
X86190000Y-144000000D03*
%TO.P,TOF5,2*%
%TO.N,Trig3*%
X88730000Y-144000000D03*
%TO.P,TOF5,3*%
%TO.N,Net-(R9-Pad2)*%
X91270000Y-144000000D03*
%TO.P,TOF5,4*%
%TO.N,Gnd*%
X93810000Y-144000000D03*
%TD*%
%TO.P,TOF4,1*%
%TO.N,Vin*%
X134000000Y-129810000D03*
%TO.P,TOF4,2*%
%TO.N,Trig2*%
X134000000Y-127270000D03*
%TO.P,TOF4,3*%
%TO.N,Net-(R6-Pad2)*%
X134000000Y-124730000D03*
%TO.P,TOF4,4*%
%TO.N,Gnd*%
X134000000Y-122190000D03*
%TD*%
%TO.P,TOF3,1*%
%TO.N,Vin*%
X134000000Y-77810000D03*
%TO.P,TOF3,2*%
%TO.N,Trig1*%
X134000000Y-75270000D03*
%TO.P,TOF3,3*%
%TO.N,Net-(R5-Pad2)*%
X134000000Y-72730000D03*
%TO.P,TOF3,4*%
%TO.N,Gnd*%
X134000000Y-70190000D03*
%TD*%
%TO.P,TOF2,1*%
%TO.N,Vin*%
X46000000Y-70190000D03*
%TO.P,TOF2,2*%
%TO.N,Trig5*%
X46000000Y-72730000D03*
%TO.P,TOF2,3*%
%TO.N,Net-(R2-Pad1)*%
X46000000Y-75270000D03*
%TO.P,TOF2,4*%
%TO.N,Gnd*%
X46000000Y-77810000D03*
%TD*%
%TO.P,TOF1,1*%
%TO.N,Vin*%
X46000000Y-122190000D03*
%TO.P,TOF1,2*%
%TO.N,Trig4*%
X46000000Y-124730000D03*
%TO.P,TOF1,3*%
%TO.N,Net-(R1-Pad1)*%
X46000000Y-127270000D03*
%TO.P,TOF1,4*%
%TO.N,Gnd*%
X46000000Y-129810000D03*
%TD*%
%TO.P,Teensy1,G2*%
%TO.N,N/C*%
X95080000Y-58840000D03*
%TO.P,Teensy1,*%
%TO.N,*%
X84920000Y-72810000D03*
X84920000Y-70270000D03*
X84920000Y-67730000D03*
X84920000Y-65190000D03*
X84920000Y-62650000D03*
X95080000Y-102020000D03*
X92540000Y-102020000D03*
X90000000Y-102020000D03*
X87460000Y-102020000D03*
X84920000Y-102020000D03*
%TO.P,Teensy1,G3*%
%TO.N,Gnd*%
X97620000Y-91860000D03*
%TO.P,Teensy1,V2*%
%TO.N,3.3V*%
X82380000Y-91860000D03*
%TO.P,Teensy1,Vin*%
%TO.N,Vin*%
X97620000Y-56300000D03*
%TO.P,Teensy1,G1*%
%TO.N,Gnd*%
X97620000Y-58840000D03*
%TO.P,Teensy1,V1*%
%TO.N,Net-(Teensy1-PadV1)*%
X97620000Y-61380000D03*
%TO.P,Teensy1,G4*%
%TO.N,Gnd*%
X82380000Y-56300000D03*
%TO.P,Teensy1,0*%
%TO.N,TX0*%
X82380000Y-58840000D03*
%TO.P,Teensy1,41*%
%TO.N,Net-(Teensy1-Pad41)*%
X97620000Y-94400000D03*
%TO.P,Teensy1,40*%
%TO.N,Net-(Teensy1-Pad40)*%
X97620000Y-96940000D03*
%TO.P,Teensy1,39*%
%TO.N,Net-(Teensy1-Pad39)*%
X97620000Y-99480000D03*
%TO.P,Teensy1,38*%
%TO.N,Net-(R5-Pad1)*%
X97620000Y-102020000D03*
%TO.P,Teensy1,37*%
%TO.N,Trig1*%
X97620000Y-104560000D03*
%TO.P,Teensy1,36*%
%TO.N,Net-(R6-Pad1)*%
X97620000Y-107100000D03*
%TO.P,Teensy1,35*%
%TO.N,Trig2*%
X97620000Y-109640000D03*
%TO.P,Teensy1,34*%
%TO.N,Net-(R10-Pad2)*%
X97620000Y-112180000D03*
%TO.P,Teensy1,33*%
%TO.N,Trig3*%
X97620000Y-114720000D03*
%TO.P,Teensy1,32*%
%TO.N,Net-(R1-Pad2)*%
X82380000Y-114720000D03*
%TO.P,Teensy1,31*%
%TO.N,Trig4*%
X82380000Y-112180000D03*
%TO.P,Teensy1,30*%
%TO.N,Net-(R2-Pad2)*%
X82380000Y-109640000D03*
%TO.P,Teensy1,29*%
%TO.N,Trig5*%
X82380000Y-107100000D03*
%TO.P,Teensy1,28*%
%TO.N,Net-(Teensy1-Pad28)*%
X82380000Y-104560000D03*
%TO.P,Teensy1,27*%
%TO.N,Net-(Teensy1-Pad27)*%
X82380000Y-102020000D03*
%TO.P,Teensy1,26*%
%TO.N,Net-(Teensy1-Pad26)*%
X82380000Y-99480000D03*
%TO.P,Teensy1,25*%
%TO.N,SDA*%
X82380000Y-96940000D03*
%TO.P,Teensy1,24*%
%TO.N,SCL*%
X82380000Y-94400000D03*
%TO.P,Teensy1,23*%
%TO.N,Net-(Teensy1-Pad23)*%
X97620000Y-63920000D03*
%TO.P,Teensy1,22*%
%TO.N,Net-(Teensy1-Pad22)*%
X97620000Y-66460000D03*
%TO.P,Teensy1,21*%
%TO.N,Net-(Teensy1-Pad21)*%
X97620000Y-69000000D03*
%TO.P,Teensy1,20*%
%TO.N,Net-(Teensy1-Pad20)*%
X97620000Y-71540000D03*
%TO.P,Teensy1,19*%
%TO.N,Net-(Teensy1-Pad19)*%
X97620000Y-74080000D03*
%TO.P,Teensy1,18*%
%TO.N,Net-(Teensy1-Pad18)*%
X97620000Y-76620000D03*
%TO.P,Teensy1,17*%
%TO.N,Net-(Teensy1-Pad17)*%
X97620000Y-79160000D03*
%TO.P,Teensy1,16*%
%TO.N,Net-(Teensy1-Pad16)*%
X97620000Y-81700000D03*
%TO.P,Teensy1,15*%
%TO.N,Net-(Teensy1-Pad15)*%
X97620000Y-84240000D03*
%TO.P,Teensy1,14*%
%TO.N,Net-(Teensy1-Pad14)*%
X97620000Y-86780000D03*
%TO.P,Teensy1,13*%
%TO.N,Net-(Teensy1-Pad13)*%
X97620000Y-89320000D03*
%TO.P,Teensy1,12*%
%TO.N,Net-(Teensy1-Pad12)*%
X82380000Y-89320000D03*
%TO.P,Teensy1,11*%
%TO.N,Net-(Teensy1-Pad11)*%
X82380000Y-86780000D03*
%TO.P,Teensy1,10*%
%TO.N,Net-(Teensy1-Pad10)*%
X82380000Y-84240000D03*
%TO.P,Teensy1,9*%
%TO.N,Net-(Teensy1-Pad9)*%
X82380000Y-81700000D03*
%TO.P,Teensy1,8*%
%TO.N,Net-(Teensy1-Pad8)*%
X82380000Y-79160000D03*
%TO.P,Teensy1,7*%
%TO.N,Net-(Teensy1-Pad7)*%
X82380000Y-76620000D03*
%TO.P,Teensy1,6*%
%TO.N,Net-(Teensy1-Pad6)*%
X82380000Y-74080000D03*
%TO.P,Teensy1,5*%
%TO.N,Net-(Teensy1-Pad5)*%
X82380000Y-71540000D03*
%TO.P,Teensy1,4*%
%TO.N,Net-(Teensy1-Pad4)*%
X82380000Y-69000000D03*
%TO.P,Teensy1,3*%
%TO.N,Net-(Teensy1-Pad3)*%
X82380000Y-66460000D03*
%TO.P,Teensy1,2*%
%TO.N,Net-(Teensy1-Pad2)*%
X82380000Y-63920000D03*
%TO.P,Teensy1,1*%
%TO.N,RX0*%
X82380000Y-61380000D03*
%TD*%
D11*
%TO.P,R9,1*%
%TO.N,Net-(R10-Pad2)*%
X92000000Y-136000000D03*
D12*
%TO.P,R9,2*%
%TO.N,Net-(R9-Pad2)*%
X102160000Y-136000000D03*
%TD*%
D11*
%TO.P,R6,1*%
%TO.N,Net-(R6-Pad1)*%
X125000000Y-124000000D03*
D12*
%TO.P,R6,2*%
%TO.N,Net-(R6-Pad2)*%
X125000000Y-113840000D03*
%TD*%
D11*
%TO.P,R10,1*%
%TO.N,Gnd*%
X78000000Y-136000000D03*
D12*
%TO.P,R10,2*%
%TO.N,Net-(R10-Pad2)*%
X88160000Y-136000000D03*
%TD*%
D11*
%TO.P,R5,1*%
%TO.N,Net-(R5-Pad1)*%
X125000000Y-93000000D03*
D12*
%TO.P,R5,2*%
%TO.N,Net-(R5-Pad2)*%
X125000000Y-82840000D03*
%TD*%
D11*
%TO.P,R8,1*%
%TO.N,Gnd*%
X125000000Y-138000000D03*
D12*
%TO.P,R8,2*%
%TO.N,Net-(R6-Pad1)*%
X125000000Y-127840000D03*
%TD*%
D11*
%TO.P,R7,1*%
%TO.N,Gnd*%
X125000000Y-107000000D03*
D12*
%TO.P,R7,2*%
%TO.N,Net-(R5-Pad1)*%
X125000000Y-96840000D03*
%TD*%
D11*
%TO.P,R4,1*%
%TO.N,Net-(R2-Pad2)*%
X59000000Y-94000000D03*
D12*
%TO.P,R4,2*%
%TO.N,Gnd*%
X59000000Y-104160000D03*
%TD*%
D11*
%TO.P,R3,1*%
%TO.N,Net-(R1-Pad2)*%
X59000000Y-124000000D03*
D12*
%TO.P,R3,2*%
%TO.N,Gnd*%
X59000000Y-113840000D03*
%TD*%
D11*
%TO.P,R2,1*%
%TO.N,Net-(R2-Pad1)*%
X59000000Y-80000000D03*
D12*
%TO.P,R2,2*%
%TO.N,Net-(R2-Pad2)*%
X59000000Y-90160000D03*
%TD*%
D11*
%TO.P,R1,1*%
%TO.N,Net-(R1-Pad1)*%
X59000000Y-138000000D03*
D12*
%TO.P,R1,2*%
%TO.N,Net-(R1-Pad2)*%
X59000000Y-127840000D03*
%TD*%
D10*
%TO.P,MAG1,1*%
%TO.N,3.3V*%
X59285000Y-56190000D03*
%TO.P,MAG1,2*%
%TO.N,Gnd*%
X61825000Y-56190000D03*
%TO.P,MAG1,3*%
%TO.N,SCL*%
X64365000Y-56190000D03*
%TO.P,MAG1,4*%
%TO.N,SDA*%
X66905000Y-56190000D03*
%TO.P,MAG1,5*%
%TO.N,Net-(J1-Pad1)*%
X69445000Y-56190000D03*
%TD*%
D13*
%TO.N,Gnd*%
X118953000Y-73953000D03*
%TO.N,Vin*%
X104000000Y-72000000D03*
X108000000Y-76000000D03*
%TD*%
D14*
%TO.N,3.3V*%
X59285000Y-68765000D02*
X82380000Y-91860000D01*
X59285000Y-56190000D02*
X59285000Y-68765000D01*
%TO.N,Net-(R1-Pad2)*%
X71100000Y-126000000D02*
X82380000Y-114720000D01*
X59000000Y-126000000D02*
X71100000Y-126000000D01*
X59000000Y-124000000D02*
X59000000Y-126000000D01*
X59000000Y-126000000D02*
X59000000Y-127840000D01*
%TO.N,Net-(R2-Pad2)*%
X59000000Y-90160000D02*
X59000000Y-92000000D01*
X59000000Y-92000000D02*
X59000000Y-94000000D01*
X73000000Y-100260000D02*
X82380000Y-109640000D01*
X73000000Y-92000000D02*
X73000000Y-100260000D01*
X59000000Y-92000000D02*
X73000000Y-92000000D01*
%TO.N,Net-(R10-Pad2)*%
X90000000Y-119800000D02*
X97620000Y-112180000D01*
X90000000Y-136000000D02*
X90000000Y-119800000D01*
X88160000Y-136000000D02*
X90000000Y-136000000D01*
X90000000Y-136000000D02*
X92000000Y-136000000D01*
%TO.N,Vin*%
X104000000Y-72000000D02*
X108000000Y-76000000D01*
%TO.N,Net-(R5-Pad1)*%
X125000000Y-93000000D02*
X125000000Y-95000000D01*
X125000000Y-95000000D02*
X125000000Y-96840000D01*
X104640000Y-95000000D02*
X97620000Y-102020000D01*
X125000000Y-95000000D02*
X104640000Y-95000000D01*
%TO.N,Net-(R6-Pad1)*%
X116520000Y-126000000D02*
X97620000Y-107100000D01*
X125000000Y-126000000D02*
X116520000Y-126000000D01*
X125000000Y-127840000D02*
X125000000Y-125000000D01*
X125000000Y-125000000D02*
X125000000Y-124000000D01*
X125000000Y-126000000D02*
X125000000Y-125000000D01*
%TD*%
D15*
%TO.N,Gnd*%
X138873000Y-148873000D02*
X41127000Y-148873000D01*
X41127000Y-143862408D01*
X84793000Y-143862408D01*
X84793000Y-144137592D01*
X84846686Y-144407490D01*
X84951995Y-144661727D01*
X85104880Y-144890535D01*
X85299465Y-145085120D01*
X85528273Y-145238005D01*
X85782510Y-145343314D01*
X86052408Y-145397000D01*
X86327592Y-145397000D01*
X86597490Y-145343314D01*
X86851727Y-145238005D01*
X87080535Y-145085120D01*
X87275120Y-144890535D01*
X87428005Y-144661727D01*
X87460000Y-144584485D01*
X87491995Y-144661727D01*
X87644880Y-144890535D01*
X87839465Y-145085120D01*
X88068273Y-145238005D01*
X88322510Y-145343314D01*
X88592408Y-145397000D01*
X88867592Y-145397000D01*
X89137490Y-145343314D01*
X89391727Y-145238005D01*
X89620535Y-145085120D01*
X89815120Y-144890535D01*
X89968005Y-144661727D01*
X90000000Y-144584485D01*
X90031995Y-144661727D01*
X90184880Y-144890535D01*
X90379465Y-145085120D01*
X90608273Y-145238005D01*
X90862510Y-145343314D01*
X91132408Y-145397000D01*
X91407592Y-145397000D01*
X91677490Y-145343314D01*
X91931727Y-145238005D01*
X92160535Y-145085120D01*
X92280090Y-144965565D01*
X93024040Y-144965565D01*
X93091020Y-145205656D01*
X93340048Y-145322756D01*
X93607135Y-145389023D01*
X93882017Y-145401910D01*
X94154133Y-145360922D01*
X94413023Y-145267636D01*
X94528980Y-145205656D01*
X94595960Y-144965565D01*
X93810000Y-144179605D01*
X93024040Y-144965565D01*
X92280090Y-144965565D01*
X92355120Y-144890535D01*
X92508005Y-144661727D01*
X92537692Y-144590057D01*
X92542364Y-144603023D01*
X92604344Y-144718980D01*
X92844435Y-144785960D01*
X93630395Y-144000000D01*
X93989605Y-144000000D01*
X94775565Y-144785960D01*
X95015656Y-144718980D01*
X95132756Y-144469952D01*
X95199023Y-144202865D01*
X95211910Y-143927983D01*
X95170922Y-143655867D01*
X95077636Y-143396977D01*
X95015656Y-143281020D01*
X94775565Y-143214040D01*
X93989605Y-144000000D01*
X93630395Y-144000000D01*
X92844435Y-143214040D01*
X92604344Y-143281020D01*
X92540515Y-143416760D01*
X92508005Y-143338273D01*
X92355120Y-143109465D01*
X92280090Y-143034435D01*
X93024040Y-143034435D01*
X93810000Y-143820395D01*
X94595960Y-143034435D01*
X94528980Y-142794344D01*
X94279952Y-142677244D01*
X94012865Y-142610977D01*
X93737983Y-142598090D01*
X93465867Y-142639078D01*
X93206977Y-142732364D01*
X93091020Y-142794344D01*
X93024040Y-143034435D01*
X92280090Y-143034435D01*
X92160535Y-142914880D01*
X91931727Y-142761995D01*
X91677490Y-142656686D01*
X91407592Y-142603000D01*
X91132408Y-142603000D01*
X90862510Y-142656686D01*
X90608273Y-142761995D01*
X90379465Y-142914880D01*
X90184880Y-143109465D01*
X90031995Y-143338273D01*
X90000000Y-143415515D01*
X89968005Y-143338273D01*
X89815120Y-143109465D01*
X89620535Y-142914880D01*
X89391727Y-142761995D01*
X89137490Y-142656686D01*
X88867592Y-142603000D01*
X88592408Y-142603000D01*
X88322510Y-142656686D01*
X88068273Y-142761995D01*
X87839465Y-142914880D01*
X87644880Y-143109465D01*
X87491995Y-143338273D01*
X87460000Y-143415515D01*
X87428005Y-143338273D01*
X87275120Y-143109465D01*
X87080535Y-142914880D01*
X86851727Y-142761995D01*
X86597490Y-142656686D01*
X86327592Y-142603000D01*
X86052408Y-142603000D01*
X85782510Y-142656686D01*
X85528273Y-142761995D01*
X85299465Y-142914880D01*
X85104880Y-143109465D01*
X84951995Y-143338273D01*
X84846686Y-143592510D01*
X84793000Y-143862408D01*
X41127000Y-143862408D01*
X41127000Y-137858665D01*
X57565000Y-137858665D01*
X57565000Y-138141335D01*
X57620147Y-138418574D01*
X57728320Y-138679727D01*
X57885363Y-138914759D01*
X58085241Y-139114637D01*
X58320273Y-139271680D01*
X58581426Y-139379853D01*
X58858665Y-139435000D01*
X59141335Y-139435000D01*
X59418574Y-139379853D01*
X59679727Y-139271680D01*
X59914759Y-139114637D01*
X60036694Y-138992702D01*
X124186903Y-138992702D01*
X124258486Y-139236671D01*
X124513996Y-139357571D01*
X124788184Y-139426300D01*
X125070512Y-139440217D01*
X125350130Y-139398787D01*
X125616292Y-139303603D01*
X125741514Y-139236671D01*
X125813097Y-138992702D01*
X125000000Y-138179605D01*
X124186903Y-138992702D01*
X60036694Y-138992702D01*
X60114637Y-138914759D01*
X60271680Y-138679727D01*
X60379853Y-138418574D01*
X60435000Y-138141335D01*
X60435000Y-138070512D01*
X123559783Y-138070512D01*
X123601213Y-138350130D01*
X123696397Y-138616292D01*
X123763329Y-138741514D01*
X124007298Y-138813097D01*
X124820395Y-138000000D01*
X125179605Y-138000000D01*
X125992702Y-138813097D01*
X126236671Y-138741514D01*
X126357571Y-138486004D01*
X126426300Y-138211816D01*
X126440217Y-137929488D01*
X126398787Y-137649870D01*
X126303603Y-137383708D01*
X126236671Y-137258486D01*
X125992702Y-137186903D01*
X125179605Y-138000000D01*
X124820395Y-138000000D01*
X124007298Y-137186903D01*
X123763329Y-137258486D01*
X123642429Y-137513996D01*
X123573700Y-137788184D01*
X123559783Y-138070512D01*
X60435000Y-138070512D01*
X60435000Y-137858665D01*
X60379853Y-137581426D01*
X60271680Y-137320273D01*
X60114637Y-137085241D01*
X60022098Y-136992702D01*
X77186903Y-136992702D01*
X77258486Y-137236671D01*
X77513996Y-137357571D01*
X77788184Y-137426300D01*
X78070512Y-137440217D01*
X78350130Y-137398787D01*
X78616292Y-137303603D01*
X78741514Y-137236671D01*
X78813097Y-136992702D01*
X78000000Y-136179605D01*
X77186903Y-136992702D01*
X60022098Y-136992702D01*
X59914759Y-136885363D01*
X59679727Y-136728320D01*
X59418574Y-136620147D01*
X59141335Y-136565000D01*
X58858665Y-136565000D01*
X58581426Y-136620147D01*
X58320273Y-136728320D01*
X58085241Y-136885363D01*
X57885363Y-137085241D01*
X57728320Y-137320273D01*
X57620147Y-137581426D01*
X57565000Y-137858665D01*
X41127000Y-137858665D01*
X41127000Y-136070512D01*
X76559783Y-136070512D01*
X76601213Y-136350130D01*
X76696397Y-136616292D01*
X76763329Y-136741514D01*
X77007298Y-136813097D01*
X77820395Y-136000000D01*
X78179605Y-136000000D01*
X78992702Y-136813097D01*
X79236671Y-136741514D01*
X79357571Y-136486004D01*
X79426300Y-136211816D01*
X79440217Y-135929488D01*
X79398787Y-135649870D01*
X79303603Y-135383708D01*
X79236671Y-135258486D01*
X78992702Y-135186903D01*
X78179605Y-136000000D01*
X77820395Y-136000000D01*
X77007298Y-135186903D01*
X76763329Y-135258486D01*
X76642429Y-135513996D01*
X76573700Y-135788184D01*
X76559783Y-136070512D01*
X41127000Y-136070512D01*
X41127000Y-135007298D01*
X77186903Y-135007298D01*
X78000000Y-135820395D01*
X78813097Y-135007298D01*
X78741514Y-134763329D01*
X78486004Y-134642429D01*
X78211816Y-134573700D01*
X77929488Y-134559783D01*
X77649870Y-134601213D01*
X77383708Y-134696397D01*
X77258486Y-134763329D01*
X77186903Y-135007298D01*
X41127000Y-135007298D01*
X41127000Y-130775565D01*
X45214040Y-130775565D01*
X45281020Y-131015656D01*
X45530048Y-131132756D01*
X45797135Y-131199023D01*
X46072017Y-131211910D01*
X46344133Y-131170922D01*
X46603023Y-131077636D01*
X46718980Y-131015656D01*
X46785960Y-130775565D01*
X46000000Y-129989605D01*
X45214040Y-130775565D01*
X41127000Y-130775565D01*
X41127000Y-129882017D01*
X44598090Y-129882017D01*
X44639078Y-130154133D01*
X44732364Y-130413023D01*
X44794344Y-130528980D01*
X45034435Y-130595960D01*
X45820395Y-129810000D01*
X46179605Y-129810000D01*
X46965565Y-130595960D01*
X47205656Y-130528980D01*
X47322756Y-130279952D01*
X47389023Y-130012865D01*
X47401910Y-129737983D01*
X47360922Y-129465867D01*
X47267636Y-129206977D01*
X47205656Y-129091020D01*
X46965565Y-129024040D01*
X46179605Y-129810000D01*
X45820395Y-129810000D01*
X45034435Y-129024040D01*
X44794344Y-129091020D01*
X44677244Y-129340048D01*
X44610977Y-129607135D01*
X44598090Y-129882017D01*
X41127000Y-129882017D01*
X41127000Y-122052408D01*
X44603000Y-122052408D01*
X44603000Y-122327592D01*
X44656686Y-122597490D01*
X44761995Y-122851727D01*
X44914880Y-123080535D01*
X45109465Y-123275120D01*
X45338273Y-123428005D01*
X45415515Y-123460000D01*
X45338273Y-123491995D01*
X45109465Y-123644880D01*
X44914880Y-123839465D01*
X44761995Y-124068273D01*
X44656686Y-124322510D01*
X44603000Y-124592408D01*
X44603000Y-124867592D01*
X44656686Y-125137490D01*
X44761995Y-125391727D01*
X44914880Y-125620535D01*
X45109465Y-125815120D01*
X45338273Y-125968005D01*
X45415515Y-126000000D01*
X45338273Y-126031995D01*
X45109465Y-126184880D01*
X44914880Y-126379465D01*
X44761995Y-126608273D01*
X44656686Y-126862510D01*
X44603000Y-127132408D01*
X44603000Y-127407592D01*
X44656686Y-127677490D01*
X44761995Y-127931727D01*
X44914880Y-128160535D01*
X45109465Y-128355120D01*
X45338273Y-128508005D01*
X45409943Y-128537692D01*
X45396977Y-128542364D01*
X45281020Y-128604344D01*
X45214040Y-128844435D01*
X46000000Y-129630395D01*
X46785960Y-128844435D01*
X46718980Y-128604344D01*
X46583240Y-128540515D01*
X46661727Y-128508005D01*
X46890535Y-128355120D01*
X47085120Y-128160535D01*
X47238005Y-127931727D01*
X47343314Y-127677490D01*
X47397000Y-127407592D01*
X47397000Y-127132408D01*
X47343314Y-126862510D01*
X47238005Y-126608273D01*
X47085120Y-126379465D01*
X46890535Y-126184880D01*
X46661727Y-126031995D01*
X46584485Y-126000000D01*
X46661727Y-125968005D01*
X46890535Y-125815120D01*
X47085120Y-125620535D01*
X47238005Y-125391727D01*
X47343314Y-125137490D01*
X47397000Y-124867592D01*
X47397000Y-124592408D01*
X47343314Y-124322510D01*
X47238005Y-124068273D01*
X47085120Y-123839465D01*
X46890535Y-123644880D01*
X46661727Y-123491995D01*
X46584485Y-123460000D01*
X46661727Y-123428005D01*
X46890535Y-123275120D01*
X47085120Y-123080535D01*
X47238005Y-122851727D01*
X47343314Y-122597490D01*
X47397000Y-122327592D01*
X47397000Y-122052408D01*
X47343314Y-121782510D01*
X47238005Y-121528273D01*
X47085120Y-121299465D01*
X46890535Y-121104880D01*
X46661727Y-120951995D01*
X46407490Y-120846686D01*
X46137592Y-120793000D01*
X45862408Y-120793000D01*
X45592510Y-120846686D01*
X45338273Y-120951995D01*
X45109465Y-121104880D01*
X44914880Y-121299465D01*
X44761995Y-121528273D01*
X44656686Y-121782510D01*
X44603000Y-122052408D01*
X41127000Y-122052408D01*
X41127000Y-114189040D01*
X57608091Y-114189040D01*
X57702930Y-114453881D01*
X57847615Y-114695131D01*
X58036586Y-114903519D01*
X58262580Y-115071037D01*
X58516913Y-115191246D01*
X58650961Y-115231904D01*
X58873000Y-115109915D01*
X58873000Y-113967000D01*
X59127000Y-113967000D01*
X59127000Y-115109915D01*
X59349039Y-115231904D01*
X59483087Y-115191246D01*
X59737420Y-115071037D01*
X59963414Y-114903519D01*
X60152385Y-114695131D01*
X60297070Y-114453881D01*
X60391909Y-114189040D01*
X60270624Y-113967000D01*
X59127000Y-113967000D01*
X58873000Y-113967000D01*
X57729376Y-113967000D01*
X57608091Y-114189040D01*
X41127000Y-114189040D01*
X41127000Y-113490960D01*
X57608091Y-113490960D01*
X57729376Y-113713000D01*
X58873000Y-113713000D01*
X58873000Y-112570085D01*
X59127000Y-112570085D01*
X59127000Y-113713000D01*
X60270624Y-113713000D01*
X60391909Y-113490960D01*
X60297070Y-113226119D01*
X60152385Y-112984869D01*
X59963414Y-112776481D01*
X59737420Y-112608963D01*
X59483087Y-112488754D01*
X59349039Y-112448096D01*
X59127000Y-112570085D01*
X58873000Y-112570085D01*
X58650961Y-112448096D01*
X58516913Y-112488754D01*
X58262580Y-112608963D01*
X58036586Y-112776481D01*
X57847615Y-112984869D01*
X57702930Y-113226119D01*
X57608091Y-113490960D01*
X41127000Y-113490960D01*
X41127000Y-104509040D01*
X57608091Y-104509040D01*
X57702930Y-104773881D01*
X57847615Y-105015131D01*
X58036586Y-105223519D01*
X58262580Y-105391037D01*
X58516913Y-105511246D01*
X58650961Y-105551904D01*
X58873000Y-105429915D01*
X58873000Y-104287000D01*
X59127000Y-104287000D01*
X59127000Y-105429915D01*
X59349039Y-105551904D01*
X59483087Y-105511246D01*
X59737420Y-105391037D01*
X59963414Y-105223519D01*
X60152385Y-105015131D01*
X60297070Y-104773881D01*
X60391909Y-104509040D01*
X60270624Y-104287000D01*
X59127000Y-104287000D01*
X58873000Y-104287000D01*
X57729376Y-104287000D01*
X57608091Y-104509040D01*
X41127000Y-104509040D01*
X41127000Y-103810960D01*
X57608091Y-103810960D01*
X57729376Y-104033000D01*
X58873000Y-104033000D01*
X58873000Y-102890085D01*
X59127000Y-102890085D01*
X59127000Y-104033000D01*
X60270624Y-104033000D01*
X60391909Y-103810960D01*
X60297070Y-103546119D01*
X60152385Y-103304869D01*
X59963414Y-103096481D01*
X59737420Y-102928963D01*
X59483087Y-102808754D01*
X59349039Y-102768096D01*
X59127000Y-102890085D01*
X58873000Y-102890085D01*
X58650961Y-102768096D01*
X58516913Y-102808754D01*
X58262580Y-102928963D01*
X58036586Y-103096481D01*
X57847615Y-103304869D01*
X57702930Y-103546119D01*
X57608091Y-103810960D01*
X41127000Y-103810960D01*
X41127000Y-90018665D01*
X57565000Y-90018665D01*
X57565000Y-90301335D01*
X57620147Y-90578574D01*
X57728320Y-90839727D01*
X57885363Y-91074759D01*
X58085241Y-91274637D01*
X58240001Y-91378044D01*
X58240001Y-91962657D01*
X58236323Y-92000000D01*
X58240000Y-92037333D01*
X58240000Y-92781956D01*
X58085241Y-92885363D01*
X57885363Y-93085241D01*
X57728320Y-93320273D01*
X57620147Y-93581426D01*
X57565000Y-93858665D01*
X57565000Y-94141335D01*
X57620147Y-94418574D01*
X57728320Y-94679727D01*
X57885363Y-94914759D01*
X58085241Y-95114637D01*
X58320273Y-95271680D01*
X58581426Y-95379853D01*
X58858665Y-95435000D01*
X59141335Y-95435000D01*
X59418574Y-95379853D01*
X59679727Y-95271680D01*
X59914759Y-95114637D01*
X60114637Y-94914759D01*
X60271680Y-94679727D01*
X60379853Y-94418574D01*
X60435000Y-94141335D01*
X60435000Y-93858665D01*
X60379853Y-93581426D01*
X60271680Y-93320273D01*
X60114637Y-93085241D01*
X59914759Y-92885363D01*
X59760000Y-92781957D01*
X59760000Y-92760000D01*
X72240000Y-92760000D01*
X72240001Y-100222668D01*
X72236324Y-100260000D01*
X72250998Y-100408985D01*
X72294454Y-100552246D01*
X72365026Y-100684276D01*
X72436201Y-100771002D01*
X72460000Y-100800001D01*
X72488998Y-100823799D01*
X81013628Y-109348430D01*
X80983000Y-109502408D01*
X80983000Y-109777592D01*
X81036686Y-110047490D01*
X81141995Y-110301727D01*
X81294880Y-110530535D01*
X81489465Y-110725120D01*
X81718273Y-110878005D01*
X81795515Y-110910000D01*
X81718273Y-110941995D01*
X81489465Y-111094880D01*
X81294880Y-111289465D01*
X81141995Y-111518273D01*
X81036686Y-111772510D01*
X80983000Y-112042408D01*
X80983000Y-112317592D01*
X81036686Y-112587490D01*
X81141995Y-112841727D01*
X81294880Y-113070535D01*
X81489465Y-113265120D01*
X81718273Y-113418005D01*
X81795515Y-113450000D01*
X81718273Y-113481995D01*
X81489465Y-113634880D01*
X81294880Y-113829465D01*
X81141995Y-114058273D01*
X81036686Y-114312510D01*
X80983000Y-114582408D01*
X80983000Y-114857592D01*
X81013628Y-115011570D01*
X70785199Y-125240000D01*
X59760000Y-125240000D01*
X59760000Y-125218043D01*
X59914759Y-125114637D01*
X60114637Y-124914759D01*
X60271680Y-124679727D01*
X60379853Y-124418574D01*
X60435000Y-124141335D01*
X60435000Y-123858665D01*
X60379853Y-123581426D01*
X60271680Y-123320273D01*
X60114637Y-123085241D01*
X59914759Y-122885363D01*
X59679727Y-122728320D01*
X59418574Y-122620147D01*
X59141335Y-122565000D01*
X58858665Y-122565000D01*
X58581426Y-122620147D01*
X58320273Y-122728320D01*
X58085241Y-122885363D01*
X57885363Y-123085241D01*
X57728320Y-123320273D01*
X57620147Y-123581426D01*
X57565000Y-123858665D01*
X57565000Y-124141335D01*
X57620147Y-124418574D01*
X57728320Y-124679727D01*
X57885363Y-124914759D01*
X58085241Y-125114637D01*
X58240001Y-125218044D01*
X58240001Y-125962657D01*
X58236323Y-126000000D01*
X58240000Y-126037332D01*
X58240000Y-126621956D01*
X58085241Y-126725363D01*
X57885363Y-126925241D01*
X57728320Y-127160273D01*
X57620147Y-127421426D01*
X57565000Y-127698665D01*
X57565000Y-127981335D01*
X57620147Y-128258574D01*
X57728320Y-128519727D01*
X57885363Y-128754759D01*
X58085241Y-128954637D01*
X58320273Y-129111680D01*
X58581426Y-129219853D01*
X58858665Y-129275000D01*
X59141335Y-129275000D01*
X59418574Y-129219853D01*
X59679727Y-129111680D01*
X59914759Y-128954637D01*
X60114637Y-128754759D01*
X60271680Y-128519727D01*
X60379853Y-128258574D01*
X60435000Y-127981335D01*
X60435000Y-127698665D01*
X60379853Y-127421426D01*
X60271680Y-127160273D01*
X60114637Y-126925241D01*
X59949396Y-126760000D01*
X71062678Y-126760000D01*
X71100000Y-126763676D01*
X71137322Y-126760000D01*
X71137333Y-126760000D01*
X71248986Y-126749003D01*
X71392247Y-126705546D01*
X71524276Y-126634974D01*
X71640001Y-126540001D01*
X71663804Y-126510997D01*
X82088430Y-116086372D01*
X82242408Y-116117000D01*
X82517592Y-116117000D01*
X82787490Y-116063314D01*
X83041727Y-115958005D01*
X83270535Y-115805120D01*
X83465120Y-115610535D01*
X83618005Y-115381727D01*
X83723314Y-115127490D01*
X83777000Y-114857592D01*
X83777000Y-114582408D01*
X83723314Y-114312510D01*
X83618005Y-114058273D01*
X83465120Y-113829465D01*
X83270535Y-113634880D01*
X83041727Y-113481995D01*
X82964485Y-113450000D01*
X83041727Y-113418005D01*
X83270535Y-113265120D01*
X83465120Y-113070535D01*
X83618005Y-112841727D01*
X83723314Y-112587490D01*
X83777000Y-112317592D01*
X83777000Y-112042408D01*
X83723314Y-111772510D01*
X83618005Y-111518273D01*
X83465120Y-111289465D01*
X83270535Y-111094880D01*
X83041727Y-110941995D01*
X82964485Y-110910000D01*
X83041727Y-110878005D01*
X83270535Y-110725120D01*
X83465120Y-110530535D01*
X83618005Y-110301727D01*
X83723314Y-110047490D01*
X83777000Y-109777592D01*
X83777000Y-109502408D01*
X83723314Y-109232510D01*
X83618005Y-108978273D01*
X83465120Y-108749465D01*
X83270535Y-108554880D01*
X83041727Y-108401995D01*
X82964485Y-108370000D01*
X83041727Y-108338005D01*
X83270535Y-108185120D01*
X83465120Y-107990535D01*
X83618005Y-107761727D01*
X83723314Y-107507490D01*
X83777000Y-107237592D01*
X83777000Y-106962408D01*
X83723314Y-106692510D01*
X83618005Y-106438273D01*
X83465120Y-106209465D01*
X83270535Y-106014880D01*
X83041727Y-105861995D01*
X82964485Y-105830000D01*
X83041727Y-105798005D01*
X83270535Y-105645120D01*
X83465120Y-105450535D01*
X83618005Y-105221727D01*
X83723314Y-104967490D01*
X83777000Y-104697592D01*
X83777000Y-104422408D01*
X83723314Y-104152510D01*
X83618005Y-103898273D01*
X83465120Y-103669465D01*
X83270535Y-103474880D01*
X83041727Y-103321995D01*
X82964485Y-103290000D01*
X83041727Y-103258005D01*
X83270535Y-103105120D01*
X83465120Y-102910535D01*
X83618005Y-102681727D01*
X83650000Y-102604485D01*
X83681995Y-102681727D01*
X83834880Y-102910535D01*
X84029465Y-103105120D01*
X84258273Y-103258005D01*
X84512510Y-103363314D01*
X84782408Y-103417000D01*
X85057592Y-103417000D01*
X85327490Y-103363314D01*
X85581727Y-103258005D01*
X85810535Y-103105120D01*
X86005120Y-102910535D01*
X86158005Y-102681727D01*
X86190000Y-102604485D01*
X86221995Y-102681727D01*
X86374880Y-102910535D01*
X86569465Y-103105120D01*
X86798273Y-103258005D01*
X87052510Y-103363314D01*
X87322408Y-103417000D01*
X87597592Y-103417000D01*
X87867490Y-103363314D01*
X88121727Y-103258005D01*
X88350535Y-103105120D01*
X88545120Y-102910535D01*
X88698005Y-102681727D01*
X88730000Y-102604485D01*
X88761995Y-102681727D01*
X88914880Y-102910535D01*
X89109465Y-103105120D01*
X89338273Y-103258005D01*
X89592510Y-103363314D01*
X89862408Y-103417000D01*
X90137592Y-103417000D01*
X90407490Y-103363314D01*
X90661727Y-103258005D01*
X90890535Y-103105120D01*
X91085120Y-102910535D01*
X91238005Y-102681727D01*
X91270000Y-102604485D01*
X91301995Y-102681727D01*
X91454880Y-102910535D01*
X91649465Y-103105120D01*
X91878273Y-103258005D01*
X92132510Y-103363314D01*
X92402408Y-103417000D01*
X92677592Y-103417000D01*
X92947490Y-103363314D01*
X93201727Y-103258005D01*
X93430535Y-103105120D01*
X93625120Y-102910535D01*
X93778005Y-102681727D01*
X93810000Y-102604485D01*
X93841995Y-102681727D01*
X93994880Y-102910535D01*
X94189465Y-103105120D01*
X94418273Y-103258005D01*
X94672510Y-103363314D01*
X94942408Y-103417000D01*
X95217592Y-103417000D01*
X95487490Y-103363314D01*
X95741727Y-103258005D01*
X95970535Y-103105120D01*
X96165120Y-102910535D01*
X96318005Y-102681727D01*
X96350000Y-102604485D01*
X96381995Y-102681727D01*
X96534880Y-102910535D01*
X96729465Y-103105120D01*
X96958273Y-103258005D01*
X97035515Y-103290000D01*
X96958273Y-103321995D01*
X96729465Y-103474880D01*
X96534880Y-103669465D01*
X96381995Y-103898273D01*
X96276686Y-104152510D01*
X96223000Y-104422408D01*
X96223000Y-104697592D01*
X96276686Y-104967490D01*
X96381995Y-105221727D01*
X96534880Y-105450535D01*
X96729465Y-105645120D01*
X96958273Y-105798005D01*
X97035515Y-105830000D01*
X96958273Y-105861995D01*
X96729465Y-106014880D01*
X96534880Y-106209465D01*
X96381995Y-106438273D01*
X96276686Y-106692510D01*
X96223000Y-106962408D01*
X96223000Y-107237592D01*
X96276686Y-107507490D01*
X96381995Y-107761727D01*
X96534880Y-107990535D01*
X96729465Y-108185120D01*
X96958273Y-108338005D01*
X97035515Y-108370000D01*
X96958273Y-108401995D01*
X96729465Y-108554880D01*
X96534880Y-108749465D01*
X96381995Y-108978273D01*
X96276686Y-109232510D01*
X96223000Y-109502408D01*
X96223000Y-109777592D01*
X96276686Y-110047490D01*
X96381995Y-110301727D01*
X96534880Y-110530535D01*
X96729465Y-110725120D01*
X96958273Y-110878005D01*
X97035515Y-110910000D01*
X96958273Y-110941995D01*
X96729465Y-111094880D01*
X96534880Y-111289465D01*
X96381995Y-111518273D01*
X96276686Y-111772510D01*
X96223000Y-112042408D01*
X96223000Y-112317592D01*
X96253628Y-112471570D01*
X89488998Y-119236201D01*
X89460000Y-119259999D01*
X89436202Y-119288997D01*
X89436201Y-119288998D01*
X89365026Y-119375724D01*
X89294454Y-119507754D01*
X89250998Y-119651015D01*
X89236324Y-119800000D01*
X89240001Y-119837333D01*
X89240000Y-135050604D01*
X89074759Y-134885363D01*
X88839727Y-134728320D01*
X88578574Y-134620147D01*
X88301335Y-134565000D01*
X88018665Y-134565000D01*
X87741426Y-134620147D01*
X87480273Y-134728320D01*
X87245241Y-134885363D01*
X87045363Y-135085241D01*
X86888320Y-135320273D01*
X86780147Y-135581426D01*
X86725000Y-135858665D01*
X86725000Y-136141335D01*
X86780147Y-136418574D01*
X86888320Y-136679727D01*
X87045363Y-136914759D01*
X87245241Y-137114637D01*
X87480273Y-137271680D01*
X87741426Y-137379853D01*
X88018665Y-137435000D01*
X88301335Y-137435000D01*
X88578574Y-137379853D01*
X88839727Y-137271680D01*
X89074759Y-137114637D01*
X89274637Y-136914759D01*
X89378043Y-136760000D01*
X89962667Y-136760000D01*
X90000000Y-136763677D01*
X90037333Y-136760000D01*
X90781957Y-136760000D01*
X90885363Y-136914759D01*
X91085241Y-137114637D01*
X91320273Y-137271680D01*
X91581426Y-137379853D01*
X91858665Y-137435000D01*
X92141335Y-137435000D01*
X92418574Y-137379853D01*
X92679727Y-137271680D01*
X92914759Y-137114637D01*
X93114637Y-136914759D01*
X93271680Y-136679727D01*
X93379853Y-136418574D01*
X93435000Y-136141335D01*
X93435000Y-135858665D01*
X100725000Y-135858665D01*
X100725000Y-136141335D01*
X100780147Y-136418574D01*
X100888320Y-136679727D01*
X101045363Y-136914759D01*
X101245241Y-137114637D01*
X101480273Y-137271680D01*
X101741426Y-137379853D01*
X102018665Y-137435000D01*
X102301335Y-137435000D01*
X102578574Y-137379853D01*
X102839727Y-137271680D01*
X103074759Y-137114637D01*
X103182098Y-137007298D01*
X124186903Y-137007298D01*
X125000000Y-137820395D01*
X125813097Y-137007298D01*
X125741514Y-136763329D01*
X125486004Y-136642429D01*
X125211816Y-136573700D01*
X124929488Y-136559783D01*
X124649870Y-136601213D01*
X124383708Y-136696397D01*
X124258486Y-136763329D01*
X124186903Y-137007298D01*
X103182098Y-137007298D01*
X103274637Y-136914759D01*
X103431680Y-136679727D01*
X103539853Y-136418574D01*
X103595000Y-136141335D01*
X103595000Y-135858665D01*
X103539853Y-135581426D01*
X103431680Y-135320273D01*
X103274637Y-135085241D01*
X103074759Y-134885363D01*
X102839727Y-134728320D01*
X102578574Y-134620147D01*
X102301335Y-134565000D01*
X102018665Y-134565000D01*
X101741426Y-134620147D01*
X101480273Y-134728320D01*
X101245241Y-134885363D01*
X101045363Y-135085241D01*
X100888320Y-135320273D01*
X100780147Y-135581426D01*
X100725000Y-135858665D01*
X93435000Y-135858665D01*
X93379853Y-135581426D01*
X93271680Y-135320273D01*
X93114637Y-135085241D01*
X92914759Y-134885363D01*
X92679727Y-134728320D01*
X92418574Y-134620147D01*
X92141335Y-134565000D01*
X91858665Y-134565000D01*
X91581426Y-134620147D01*
X91320273Y-134728320D01*
X91085241Y-134885363D01*
X90885363Y-135085241D01*
X90781957Y-135240000D01*
X90760000Y-135240000D01*
X90760000Y-120114801D01*
X96223000Y-114651802D01*
X96223000Y-114857592D01*
X96276686Y-115127490D01*
X96381995Y-115381727D01*
X96534880Y-115610535D01*
X96729465Y-115805120D01*
X96958273Y-115958005D01*
X97212510Y-116063314D01*
X97482408Y-116117000D01*
X97757592Y-116117000D01*
X98027490Y-116063314D01*
X98281727Y-115958005D01*
X98510535Y-115805120D01*
X98705120Y-115610535D01*
X98858005Y-115381727D01*
X98963314Y-115127490D01*
X99017000Y-114857592D01*
X99017000Y-114582408D01*
X98963314Y-114312510D01*
X98858005Y-114058273D01*
X98705120Y-113829465D01*
X98510535Y-113634880D01*
X98281727Y-113481995D01*
X98204485Y-113450000D01*
X98281727Y-113418005D01*
X98510535Y-113265120D01*
X98705120Y-113070535D01*
X98858005Y-112841727D01*
X98963314Y-112587490D01*
X99017000Y-112317592D01*
X99017000Y-112042408D01*
X98963314Y-111772510D01*
X98858005Y-111518273D01*
X98705120Y-111289465D01*
X98510535Y-111094880D01*
X98281727Y-110941995D01*
X98204485Y-110910000D01*
X98281727Y-110878005D01*
X98510535Y-110725120D01*
X98705120Y-110530535D01*
X98858005Y-110301727D01*
X98963314Y-110047490D01*
X99017000Y-109777592D01*
X99017000Y-109571801D01*
X115956201Y-126511003D01*
X115979999Y-126540001D01*
X116095724Y-126634974D01*
X116227753Y-126705546D01*
X116371014Y-126749003D01*
X116482667Y-126760000D01*
X116482676Y-126760000D01*
X116519999Y-126763676D01*
X116557322Y-126760000D01*
X124050604Y-126760000D01*
X123885363Y-126925241D01*
X123728320Y-127160273D01*
X123620147Y-127421426D01*
X123565000Y-127698665D01*
X123565000Y-127981335D01*
X123620147Y-128258574D01*
X123728320Y-128519727D01*
X123885363Y-128754759D01*
X124085241Y-128954637D01*
X124320273Y-129111680D01*
X124581426Y-129219853D01*
X124858665Y-129275000D01*
X125141335Y-129275000D01*
X125418574Y-129219853D01*
X125679727Y-129111680D01*
X125914759Y-128954637D01*
X126114637Y-128754759D01*
X126271680Y-128519727D01*
X126379853Y-128258574D01*
X126435000Y-127981335D01*
X126435000Y-127698665D01*
X126379853Y-127421426D01*
X126271680Y-127160273D01*
X126114637Y-126925241D01*
X125914759Y-126725363D01*
X125760000Y-126621957D01*
X125760000Y-126037332D01*
X125763677Y-126000000D01*
X125760000Y-125962667D01*
X125760000Y-125218043D01*
X125914759Y-125114637D01*
X126114637Y-124914759D01*
X126271680Y-124679727D01*
X126307848Y-124592408D01*
X132603000Y-124592408D01*
X132603000Y-124867592D01*
X132656686Y-125137490D01*
X132761995Y-125391727D01*
X132914880Y-125620535D01*
X133109465Y-125815120D01*
X133338273Y-125968005D01*
X133415515Y-126000000D01*
X133338273Y-126031995D01*
X133109465Y-126184880D01*
X132914880Y-126379465D01*
X132761995Y-126608273D01*
X132656686Y-126862510D01*
X132603000Y-127132408D01*
X132603000Y-127407592D01*
X132656686Y-127677490D01*
X132761995Y-127931727D01*
X132914880Y-128160535D01*
X133109465Y-128355120D01*
X133338273Y-128508005D01*
X133415515Y-128540000D01*
X133338273Y-128571995D01*
X133109465Y-128724880D01*
X132914880Y-128919465D01*
X132761995Y-129148273D01*
X132656686Y-129402510D01*
X132603000Y-129672408D01*
X132603000Y-129947592D01*
X132656686Y-130217490D01*
X132761995Y-130471727D01*
X132914880Y-130700535D01*
X133109465Y-130895120D01*
X133338273Y-131048005D01*
X133592510Y-131153314D01*
X133862408Y-131207000D01*
X134137592Y-131207000D01*
X134407490Y-131153314D01*
X134661727Y-131048005D01*
X134890535Y-130895120D01*
X135085120Y-130700535D01*
X135238005Y-130471727D01*
X135343314Y-130217490D01*
X135397000Y-129947592D01*
X135397000Y-129672408D01*
X135343314Y-129402510D01*
X135238005Y-129148273D01*
X135085120Y-128919465D01*
X134890535Y-128724880D01*
X134661727Y-128571995D01*
X134584485Y-128540000D01*
X134661727Y-128508005D01*
X134890535Y-128355120D01*
X135085120Y-128160535D01*
X135238005Y-127931727D01*
X135343314Y-127677490D01*
X135397000Y-127407592D01*
X135397000Y-127132408D01*
X135343314Y-126862510D01*
X135238005Y-126608273D01*
X135085120Y-126379465D01*
X134890535Y-126184880D01*
X134661727Y-126031995D01*
X134584485Y-126000000D01*
X134661727Y-125968005D01*
X134890535Y-125815120D01*
X135085120Y-125620535D01*
X135238005Y-125391727D01*
X135343314Y-125137490D01*
X135397000Y-124867592D01*
X135397000Y-124592408D01*
X135343314Y-124322510D01*
X135238005Y-124068273D01*
X135085120Y-123839465D01*
X134890535Y-123644880D01*
X134661727Y-123491995D01*
X134590057Y-123462308D01*
X134603023Y-123457636D01*
X134718980Y-123395656D01*
X134785960Y-123155565D01*
X134000000Y-122369605D01*
X133214040Y-123155565D01*
X133281020Y-123395656D01*
X133416760Y-123459485D01*
X133338273Y-123491995D01*
X133109465Y-123644880D01*
X132914880Y-123839465D01*
X132761995Y-124068273D01*
X132656686Y-124322510D01*
X132603000Y-124592408D01*
X126307848Y-124592408D01*
X126379853Y-124418574D01*
X126435000Y-124141335D01*
X126435000Y-123858665D01*
X126379853Y-123581426D01*
X126271680Y-123320273D01*
X126114637Y-123085241D01*
X125914759Y-122885363D01*
X125679727Y-122728320D01*
X125418574Y-122620147D01*
X125141335Y-122565000D01*
X124858665Y-122565000D01*
X124581426Y-122620147D01*
X124320273Y-122728320D01*
X124085241Y-122885363D01*
X123885363Y-123085241D01*
X123728320Y-123320273D01*
X123620147Y-123581426D01*
X123565000Y-123858665D01*
X123565000Y-124141335D01*
X123620147Y-124418574D01*
X123728320Y-124679727D01*
X123885363Y-124914759D01*
X124085241Y-125114637D01*
X124240001Y-125218044D01*
X124240001Y-125240000D01*
X116834802Y-125240000D01*
X113856819Y-122262017D01*
X132598090Y-122262017D01*
X132639078Y-122534133D01*
X132732364Y-122793023D01*
X132794344Y-122908980D01*
X133034435Y-122975960D01*
X133820395Y-122190000D01*
X134179605Y-122190000D01*
X134965565Y-122975960D01*
X135205656Y-122908980D01*
X135322756Y-122659952D01*
X135389023Y-122392865D01*
X135401910Y-122117983D01*
X135360922Y-121845867D01*
X135267636Y-121586977D01*
X135205656Y-121471020D01*
X134965565Y-121404040D01*
X134179605Y-122190000D01*
X133820395Y-122190000D01*
X133034435Y-121404040D01*
X132794344Y-121471020D01*
X132677244Y-121720048D01*
X132610977Y-121987135D01*
X132598090Y-122262017D01*
X113856819Y-122262017D01*
X112819237Y-121224435D01*
X133214040Y-121224435D01*
X134000000Y-122010395D01*
X134785960Y-121224435D01*
X134718980Y-120984344D01*
X134469952Y-120867244D01*
X134202865Y-120800977D01*
X133927983Y-120788090D01*
X133655867Y-120829078D01*
X133396977Y-120922364D01*
X133281020Y-120984344D01*
X133214040Y-121224435D01*
X112819237Y-121224435D01*
X105293467Y-113698665D01*
X123565000Y-113698665D01*
X123565000Y-113981335D01*
X123620147Y-114258574D01*
X123728320Y-114519727D01*
X123885363Y-114754759D01*
X124085241Y-114954637D01*
X124320273Y-115111680D01*
X124581426Y-115219853D01*
X124858665Y-115275000D01*
X125141335Y-115275000D01*
X125418574Y-115219853D01*
X125679727Y-115111680D01*
X125914759Y-114954637D01*
X126114637Y-114754759D01*
X126271680Y-114519727D01*
X126379853Y-114258574D01*
X126435000Y-113981335D01*
X126435000Y-113698665D01*
X126379853Y-113421426D01*
X126271680Y-113160273D01*
X126114637Y-112925241D01*
X125914759Y-112725363D01*
X125679727Y-112568320D01*
X125418574Y-112460147D01*
X125141335Y-112405000D01*
X124858665Y-112405000D01*
X124581426Y-112460147D01*
X124320273Y-112568320D01*
X124085241Y-112725363D01*
X123885363Y-112925241D01*
X123728320Y-113160273D01*
X123620147Y-113421426D01*
X123565000Y-113698665D01*
X105293467Y-113698665D01*
X99587504Y-107992702D01*
X124186903Y-107992702D01*
X124258486Y-108236671D01*
X124513996Y-108357571D01*
X124788184Y-108426300D01*
X125070512Y-108440217D01*
X125350130Y-108398787D01*
X125616292Y-108303603D01*
X125741514Y-108236671D01*
X125813097Y-107992702D01*
X125000000Y-107179605D01*
X124186903Y-107992702D01*
X99587504Y-107992702D01*
X98986372Y-107391571D01*
X99017000Y-107237592D01*
X99017000Y-107070512D01*
X123559783Y-107070512D01*
X123601213Y-107350130D01*
X123696397Y-107616292D01*
X123763329Y-107741514D01*
X124007298Y-107813097D01*
X124820395Y-107000000D01*
X125179605Y-107000000D01*
X125992702Y-107813097D01*
X126236671Y-107741514D01*
X126357571Y-107486004D01*
X126426300Y-107211816D01*
X126440217Y-106929488D01*
X126398787Y-106649870D01*
X126303603Y-106383708D01*
X126236671Y-106258486D01*
X125992702Y-106186903D01*
X125179605Y-107000000D01*
X124820395Y-107000000D01*
X124007298Y-106186903D01*
X123763329Y-106258486D01*
X123642429Y-106513996D01*
X123573700Y-106788184D01*
X123559783Y-107070512D01*
X99017000Y-107070512D01*
X99017000Y-106962408D01*
X98963314Y-106692510D01*
X98858005Y-106438273D01*
X98705120Y-106209465D01*
X98510535Y-106014880D01*
X98499188Y-106007298D01*
X124186903Y-106007298D01*
X125000000Y-106820395D01*
X125813097Y-106007298D01*
X125741514Y-105763329D01*
X125486004Y-105642429D01*
X125211816Y-105573700D01*
X124929488Y-105559783D01*
X124649870Y-105601213D01*
X124383708Y-105696397D01*
X124258486Y-105763329D01*
X124186903Y-106007298D01*
X98499188Y-106007298D01*
X98281727Y-105861995D01*
X98204485Y-105830000D01*
X98281727Y-105798005D01*
X98510535Y-105645120D01*
X98705120Y-105450535D01*
X98858005Y-105221727D01*
X98963314Y-104967490D01*
X99017000Y-104697592D01*
X99017000Y-104422408D01*
X98963314Y-104152510D01*
X98858005Y-103898273D01*
X98705120Y-103669465D01*
X98510535Y-103474880D01*
X98281727Y-103321995D01*
X98204485Y-103290000D01*
X98281727Y-103258005D01*
X98510535Y-103105120D01*
X98705120Y-102910535D01*
X98858005Y-102681727D01*
X98963314Y-102427490D01*
X99017000Y-102157592D01*
X99017000Y-101882408D01*
X98986372Y-101728429D01*
X104954802Y-95760000D01*
X124050604Y-95760000D01*
X123885363Y-95925241D01*
X123728320Y-96160273D01*
X123620147Y-96421426D01*
X123565000Y-96698665D01*
X123565000Y-96981335D01*
X123620147Y-97258574D01*
X123728320Y-97519727D01*
X123885363Y-97754759D01*
X124085241Y-97954637D01*
X124320273Y-98111680D01*
X124581426Y-98219853D01*
X124858665Y-98275000D01*
X125141335Y-98275000D01*
X125418574Y-98219853D01*
X125679727Y-98111680D01*
X125914759Y-97954637D01*
X126114637Y-97754759D01*
X126271680Y-97519727D01*
X126379853Y-97258574D01*
X126435000Y-96981335D01*
X126435000Y-96698665D01*
X126379853Y-96421426D01*
X126271680Y-96160273D01*
X126114637Y-95925241D01*
X125914759Y-95725363D01*
X125760000Y-95621957D01*
X125760000Y-95037333D01*
X125763677Y-95000000D01*
X125760000Y-94962667D01*
X125760000Y-94218043D01*
X125914759Y-94114637D01*
X126114637Y-93914759D01*
X126271680Y-93679727D01*
X126379853Y-93418574D01*
X126435000Y-93141335D01*
X126435000Y-92858665D01*
X126379853Y-92581426D01*
X126271680Y-92320273D01*
X126114637Y-92085241D01*
X125914759Y-91885363D01*
X125679727Y-91728320D01*
X125418574Y-91620147D01*
X125141335Y-91565000D01*
X124858665Y-91565000D01*
X124581426Y-91620147D01*
X124320273Y-91728320D01*
X124085241Y-91885363D01*
X123885363Y-92085241D01*
X123728320Y-92320273D01*
X123620147Y-92581426D01*
X123565000Y-92858665D01*
X123565000Y-93141335D01*
X123620147Y-93418574D01*
X123728320Y-93679727D01*
X123885363Y-93914759D01*
X124085241Y-94114637D01*
X124240001Y-94218044D01*
X124240001Y-94240000D01*
X104677322Y-94240000D01*
X104639999Y-94236324D01*
X104602676Y-94240000D01*
X104602667Y-94240000D01*
X104491014Y-94250997D01*
X104347753Y-94294454D01*
X104215724Y-94365026D01*
X104099999Y-94459999D01*
X104076201Y-94488997D01*
X99017000Y-99548199D01*
X99017000Y-99342408D01*
X98963314Y-99072510D01*
X98858005Y-98818273D01*
X98705120Y-98589465D01*
X98510535Y-98394880D01*
X98281727Y-98241995D01*
X98204485Y-98210000D01*
X98281727Y-98178005D01*
X98510535Y-98025120D01*
X98705120Y-97830535D01*
X98858005Y-97601727D01*
X98963314Y-97347490D01*
X99017000Y-97077592D01*
X99017000Y-96802408D01*
X98963314Y-96532510D01*
X98858005Y-96278273D01*
X98705120Y-96049465D01*
X98510535Y-95854880D01*
X98281727Y-95701995D01*
X98204485Y-95670000D01*
X98281727Y-95638005D01*
X98510535Y-95485120D01*
X98705120Y-95290535D01*
X98858005Y-95061727D01*
X98963314Y-94807490D01*
X99017000Y-94537592D01*
X99017000Y-94262408D01*
X98963314Y-93992510D01*
X98858005Y-93738273D01*
X98705120Y-93509465D01*
X98510535Y-93314880D01*
X98281727Y-93161995D01*
X98210057Y-93132308D01*
X98223023Y-93127636D01*
X98338980Y-93065656D01*
X98405960Y-92825565D01*
X97620000Y-92039605D01*
X96834040Y-92825565D01*
X96901020Y-93065656D01*
X97036760Y-93129485D01*
X96958273Y-93161995D01*
X96729465Y-93314880D01*
X96534880Y-93509465D01*
X96381995Y-93738273D01*
X96276686Y-93992510D01*
X96223000Y-94262408D01*
X96223000Y-94537592D01*
X96276686Y-94807490D01*
X96381995Y-95061727D01*
X96534880Y-95290535D01*
X96729465Y-95485120D01*
X96958273Y-95638005D01*
X97035515Y-95670000D01*
X96958273Y-95701995D01*
X96729465Y-95854880D01*
X96534880Y-96049465D01*
X96381995Y-96278273D01*
X96276686Y-96532510D01*
X96223000Y-96802408D01*
X96223000Y-97077592D01*
X96276686Y-97347490D01*
X96381995Y-97601727D01*
X96534880Y-97830535D01*
X96729465Y-98025120D01*
X96958273Y-98178005D01*
X97035515Y-98210000D01*
X96958273Y-98241995D01*
X96729465Y-98394880D01*
X96534880Y-98589465D01*
X96381995Y-98818273D01*
X96276686Y-99072510D01*
X96223000Y-99342408D01*
X96223000Y-99617592D01*
X96276686Y-99887490D01*
X96381995Y-100141727D01*
X96534880Y-100370535D01*
X96729465Y-100565120D01*
X96958273Y-100718005D01*
X97035515Y-100750000D01*
X96958273Y-100781995D01*
X96729465Y-100934880D01*
X96534880Y-101129465D01*
X96381995Y-101358273D01*
X96350000Y-101435515D01*
X96318005Y-101358273D01*
X96165120Y-101129465D01*
X95970535Y-100934880D01*
X95741727Y-100781995D01*
X95487490Y-100676686D01*
X95217592Y-100623000D01*
X94942408Y-100623000D01*
X94672510Y-100676686D01*
X94418273Y-100781995D01*
X94189465Y-100934880D01*
X93994880Y-101129465D01*
X93841995Y-101358273D01*
X93810000Y-101435515D01*
X93778005Y-101358273D01*
X93625120Y-101129465D01*
X93430535Y-100934880D01*
X93201727Y-100781995D01*
X92947490Y-100676686D01*
X92677592Y-100623000D01*
X92402408Y-100623000D01*
X92132510Y-100676686D01*
X91878273Y-100781995D01*
X91649465Y-100934880D01*
X91454880Y-101129465D01*
X91301995Y-101358273D01*
X91270000Y-101435515D01*
X91238005Y-101358273D01*
X91085120Y-101129465D01*
X90890535Y-100934880D01*
X90661727Y-100781995D01*
X90407490Y-100676686D01*
X90137592Y-100623000D01*
X89862408Y-100623000D01*
X89592510Y-100676686D01*
X89338273Y-100781995D01*
X89109465Y-100934880D01*
X88914880Y-101129465D01*
X88761995Y-101358273D01*
X88730000Y-101435515D01*
X88698005Y-101358273D01*
X88545120Y-101129465D01*
X88350535Y-100934880D01*
X88121727Y-100781995D01*
X87867490Y-100676686D01*
X87597592Y-100623000D01*
X87322408Y-100623000D01*
X87052510Y-100676686D01*
X86798273Y-100781995D01*
X86569465Y-100934880D01*
X86374880Y-101129465D01*
X86221995Y-101358273D01*
X86190000Y-101435515D01*
X86158005Y-101358273D01*
X86005120Y-101129465D01*
X85810535Y-100934880D01*
X85581727Y-100781995D01*
X85327490Y-100676686D01*
X85057592Y-100623000D01*
X84782408Y-100623000D01*
X84512510Y-100676686D01*
X84258273Y-100781995D01*
X84029465Y-100934880D01*
X83834880Y-101129465D01*
X83681995Y-101358273D01*
X83650000Y-101435515D01*
X83618005Y-101358273D01*
X83465120Y-101129465D01*
X83270535Y-100934880D01*
X83041727Y-100781995D01*
X82964485Y-100750000D01*
X83041727Y-100718005D01*
X83270535Y-100565120D01*
X83465120Y-100370535D01*
X83618005Y-100141727D01*
X83723314Y-99887490D01*
X83777000Y-99617592D01*
X83777000Y-99342408D01*
X83723314Y-99072510D01*
X83618005Y-98818273D01*
X83465120Y-98589465D01*
X83270535Y-98394880D01*
X83041727Y-98241995D01*
X82964485Y-98210000D01*
X83041727Y-98178005D01*
X83270535Y-98025120D01*
X83465120Y-97830535D01*
X83618005Y-97601727D01*
X83723314Y-97347490D01*
X83777000Y-97077592D01*
X83777000Y-96802408D01*
X83723314Y-96532510D01*
X83618005Y-96278273D01*
X83465120Y-96049465D01*
X83270535Y-95854880D01*
X83041727Y-95701995D01*
X82964485Y-95670000D01*
X83041727Y-95638005D01*
X83270535Y-95485120D01*
X83465120Y-95290535D01*
X83618005Y-95061727D01*
X83723314Y-94807490D01*
X83777000Y-94537592D01*
X83777000Y-94262408D01*
X83723314Y-93992510D01*
X83618005Y-93738273D01*
X83465120Y-93509465D01*
X83270535Y-93314880D01*
X83041727Y-93161995D01*
X82964485Y-93130000D01*
X83041727Y-93098005D01*
X83270535Y-92945120D01*
X83465120Y-92750535D01*
X83618005Y-92521727D01*
X83723314Y-92267490D01*
X83777000Y-91997592D01*
X83777000Y-91932017D01*
X96218090Y-91932017D01*
X96259078Y-92204133D01*
X96352364Y-92463023D01*
X96414344Y-92578980D01*
X96654435Y-92645960D01*
X97440395Y-91860000D01*
X97799605Y-91860000D01*
X98585565Y-92645960D01*
X98825656Y-92578980D01*
X98942756Y-92329952D01*
X99009023Y-92062865D01*
X99021910Y-91787983D01*
X98980922Y-91515867D01*
X98887636Y-91256977D01*
X98825656Y-91141020D01*
X98585565Y-91074040D01*
X97799605Y-91860000D01*
X97440395Y-91860000D01*
X96654435Y-91074040D01*
X96414344Y-91141020D01*
X96297244Y-91390048D01*
X96230977Y-91657135D01*
X96218090Y-91932017D01*
X83777000Y-91932017D01*
X83777000Y-91722408D01*
X83723314Y-91452510D01*
X83618005Y-91198273D01*
X83465120Y-90969465D01*
X83270535Y-90774880D01*
X83041727Y-90621995D01*
X82964485Y-90590000D01*
X83041727Y-90558005D01*
X83270535Y-90405120D01*
X83465120Y-90210535D01*
X83618005Y-89981727D01*
X83723314Y-89727490D01*
X83777000Y-89457592D01*
X83777000Y-89182408D01*
X83723314Y-88912510D01*
X83618005Y-88658273D01*
X83465120Y-88429465D01*
X83270535Y-88234880D01*
X83041727Y-88081995D01*
X82964485Y-88050000D01*
X83041727Y-88018005D01*
X83270535Y-87865120D01*
X83465120Y-87670535D01*
X83618005Y-87441727D01*
X83723314Y-87187490D01*
X83777000Y-86917592D01*
X83777000Y-86642408D01*
X83723314Y-86372510D01*
X83618005Y-86118273D01*
X83465120Y-85889465D01*
X83270535Y-85694880D01*
X83041727Y-85541995D01*
X82964485Y-85510000D01*
X83041727Y-85478005D01*
X83270535Y-85325120D01*
X83465120Y-85130535D01*
X83618005Y-84901727D01*
X83723314Y-84647490D01*
X83777000Y-84377592D01*
X83777000Y-84102408D01*
X83723314Y-83832510D01*
X83618005Y-83578273D01*
X83465120Y-83349465D01*
X83270535Y-83154880D01*
X83041727Y-83001995D01*
X82964485Y-82970000D01*
X83041727Y-82938005D01*
X83270535Y-82785120D01*
X83465120Y-82590535D01*
X83618005Y-82361727D01*
X83723314Y-82107490D01*
X83777000Y-81837592D01*
X83777000Y-81562408D01*
X83723314Y-81292510D01*
X83618005Y-81038273D01*
X83465120Y-80809465D01*
X83270535Y-80614880D01*
X83041727Y-80461995D01*
X82964485Y-80430000D01*
X83041727Y-80398005D01*
X83270535Y-80245120D01*
X83465120Y-80050535D01*
X83618005Y-79821727D01*
X83723314Y-79567490D01*
X83777000Y-79297592D01*
X83777000Y-79022408D01*
X83723314Y-78752510D01*
X83618005Y-78498273D01*
X83465120Y-78269465D01*
X83270535Y-78074880D01*
X83041727Y-77921995D01*
X82964485Y-77890000D01*
X83041727Y-77858005D01*
X83270535Y-77705120D01*
X83465120Y-77510535D01*
X83618005Y-77281727D01*
X83723314Y-77027490D01*
X83777000Y-76757592D01*
X83777000Y-76482408D01*
X83723314Y-76212510D01*
X83618005Y-75958273D01*
X83465120Y-75729465D01*
X83270535Y-75534880D01*
X83041727Y-75381995D01*
X82964485Y-75350000D01*
X83041727Y-75318005D01*
X83270535Y-75165120D01*
X83465120Y-74970535D01*
X83618005Y-74741727D01*
X83723314Y-74487490D01*
X83777000Y-74217592D01*
X83777000Y-73942408D01*
X83723314Y-73672510D01*
X83618005Y-73418273D01*
X83465120Y-73189465D01*
X83270535Y-72994880D01*
X83041727Y-72841995D01*
X82964485Y-72810000D01*
X83041727Y-72778005D01*
X83270535Y-72625120D01*
X83465120Y-72430535D01*
X83618005Y-72201727D01*
X83723314Y-71947490D01*
X83777000Y-71677592D01*
X83777000Y-71402408D01*
X83723314Y-71132510D01*
X83618005Y-70878273D01*
X83465120Y-70649465D01*
X83270535Y-70454880D01*
X83041727Y-70301995D01*
X82964485Y-70270000D01*
X83041727Y-70238005D01*
X83270535Y-70085120D01*
X83465120Y-69890535D01*
X83618005Y-69661727D01*
X83723314Y-69407490D01*
X83777000Y-69137592D01*
X83777000Y-68862408D01*
X83723314Y-68592510D01*
X83618005Y-68338273D01*
X83465120Y-68109465D01*
X83270535Y-67914880D01*
X83041727Y-67761995D01*
X82964485Y-67730000D01*
X83041727Y-67698005D01*
X83270535Y-67545120D01*
X83465120Y-67350535D01*
X83618005Y-67121727D01*
X83723314Y-66867490D01*
X83777000Y-66597592D01*
X83777000Y-66322408D01*
X83723314Y-66052510D01*
X83618005Y-65798273D01*
X83465120Y-65569465D01*
X83270535Y-65374880D01*
X83041727Y-65221995D01*
X82964485Y-65190000D01*
X83041727Y-65158005D01*
X83270535Y-65005120D01*
X83465120Y-64810535D01*
X83618005Y-64581727D01*
X83723314Y-64327490D01*
X83777000Y-64057592D01*
X83777000Y-63782408D01*
X83723314Y-63512510D01*
X83618005Y-63258273D01*
X83465120Y-63029465D01*
X83270535Y-62834880D01*
X83041727Y-62681995D01*
X82964485Y-62650000D01*
X83041727Y-62618005D01*
X83199763Y-62512408D01*
X83523000Y-62512408D01*
X83523000Y-62787592D01*
X83576686Y-63057490D01*
X83681995Y-63311727D01*
X83834880Y-63540535D01*
X84029465Y-63735120D01*
X84258273Y-63888005D01*
X84335515Y-63920000D01*
X84258273Y-63951995D01*
X84029465Y-64104880D01*
X83834880Y-64299465D01*
X83681995Y-64528273D01*
X83576686Y-64782510D01*
X83523000Y-65052408D01*
X83523000Y-65327592D01*
X83576686Y-65597490D01*
X83681995Y-65851727D01*
X83834880Y-66080535D01*
X84029465Y-66275120D01*
X84258273Y-66428005D01*
X84335515Y-66460000D01*
X84258273Y-66491995D01*
X84029465Y-66644880D01*
X83834880Y-66839465D01*
X83681995Y-67068273D01*
X83576686Y-67322510D01*
X83523000Y-67592408D01*
X83523000Y-67867592D01*
X83576686Y-68137490D01*
X83681995Y-68391727D01*
X83834880Y-68620535D01*
X84029465Y-68815120D01*
X84258273Y-68968005D01*
X84335515Y-69000000D01*
X84258273Y-69031995D01*
X84029465Y-69184880D01*
X83834880Y-69379465D01*
X83681995Y-69608273D01*
X83576686Y-69862510D01*
X83523000Y-70132408D01*
X83523000Y-70407592D01*
X83576686Y-70677490D01*
X83681995Y-70931727D01*
X83834880Y-71160535D01*
X84029465Y-71355120D01*
X84258273Y-71508005D01*
X84335515Y-71540000D01*
X84258273Y-71571995D01*
X84029465Y-71724880D01*
X83834880Y-71919465D01*
X83681995Y-72148273D01*
X83576686Y-72402510D01*
X83523000Y-72672408D01*
X83523000Y-72947592D01*
X83576686Y-73217490D01*
X83681995Y-73471727D01*
X83834880Y-73700535D01*
X84029465Y-73895120D01*
X84258273Y-74048005D01*
X84512510Y-74153314D01*
X84782408Y-74207000D01*
X85057592Y-74207000D01*
X85327490Y-74153314D01*
X85581727Y-74048005D01*
X85810535Y-73895120D01*
X86005120Y-73700535D01*
X86158005Y-73471727D01*
X86263314Y-73217490D01*
X86317000Y-72947592D01*
X86317000Y-72672408D01*
X86263314Y-72402510D01*
X86158005Y-72148273D01*
X86005120Y-71919465D01*
X85810535Y-71724880D01*
X85581727Y-71571995D01*
X85504485Y-71540000D01*
X85581727Y-71508005D01*
X85810535Y-71355120D01*
X86005120Y-71160535D01*
X86158005Y-70931727D01*
X86263314Y-70677490D01*
X86317000Y-70407592D01*
X86317000Y-70132408D01*
X86263314Y-69862510D01*
X86158005Y-69608273D01*
X86005120Y-69379465D01*
X85810535Y-69184880D01*
X85581727Y-69031995D01*
X85504485Y-69000000D01*
X85581727Y-68968005D01*
X85810535Y-68815120D01*
X86005120Y-68620535D01*
X86158005Y-68391727D01*
X86263314Y-68137490D01*
X86317000Y-67867592D01*
X86317000Y-67592408D01*
X86263314Y-67322510D01*
X86158005Y-67068273D01*
X86005120Y-66839465D01*
X85810535Y-66644880D01*
X85581727Y-66491995D01*
X85504485Y-66460000D01*
X85581727Y-66428005D01*
X85810535Y-66275120D01*
X86005120Y-66080535D01*
X86158005Y-65851727D01*
X86263314Y-65597490D01*
X86317000Y-65327592D01*
X86317000Y-65052408D01*
X86263314Y-64782510D01*
X86158005Y-64528273D01*
X86005120Y-64299465D01*
X85810535Y-64104880D01*
X85581727Y-63951995D01*
X85504485Y-63920000D01*
X85581727Y-63888005D01*
X85810535Y-63735120D01*
X86005120Y-63540535D01*
X86158005Y-63311727D01*
X86263314Y-63057490D01*
X86317000Y-62787592D01*
X86317000Y-62512408D01*
X86263314Y-62242510D01*
X86158005Y-61988273D01*
X86005120Y-61759465D01*
X85810535Y-61564880D01*
X85581727Y-61411995D01*
X85327490Y-61306686D01*
X85057592Y-61253000D01*
X84782408Y-61253000D01*
X84512510Y-61306686D01*
X84258273Y-61411995D01*
X84029465Y-61564880D01*
X83834880Y-61759465D01*
X83681995Y-61988273D01*
X83576686Y-62242510D01*
X83523000Y-62512408D01*
X83199763Y-62512408D01*
X83270535Y-62465120D01*
X83465120Y-62270535D01*
X83618005Y-62041727D01*
X83723314Y-61787490D01*
X83777000Y-61517592D01*
X83777000Y-61242408D01*
X96223000Y-61242408D01*
X96223000Y-61517592D01*
X96276686Y-61787490D01*
X96381995Y-62041727D01*
X96534880Y-62270535D01*
X96729465Y-62465120D01*
X96958273Y-62618005D01*
X97035515Y-62650000D01*
X96958273Y-62681995D01*
X96729465Y-62834880D01*
X96534880Y-63029465D01*
X96381995Y-63258273D01*
X96276686Y-63512510D01*
X96223000Y-63782408D01*
X96223000Y-64057592D01*
X96276686Y-64327490D01*
X96381995Y-64581727D01*
X96534880Y-64810535D01*
X96729465Y-65005120D01*
X96958273Y-65158005D01*
X97035515Y-65190000D01*
X96958273Y-65221995D01*
X96729465Y-65374880D01*
X96534880Y-65569465D01*
X96381995Y-65798273D01*
X96276686Y-66052510D01*
X96223000Y-66322408D01*
X96223000Y-66597592D01*
X96276686Y-66867490D01*
X96381995Y-67121727D01*
X96534880Y-67350535D01*
X96729465Y-67545120D01*
X96958273Y-67698005D01*
X97035515Y-67730000D01*
X96958273Y-67761995D01*
X96729465Y-67914880D01*
X96534880Y-68109465D01*
X96381995Y-68338273D01*
X96276686Y-68592510D01*
X96223000Y-68862408D01*
X96223000Y-69137592D01*
X96276686Y-69407490D01*
X96381995Y-69661727D01*
X96534880Y-69890535D01*
X96729465Y-70085120D01*
X96958273Y-70238005D01*
X97035515Y-70270000D01*
X96958273Y-70301995D01*
X96729465Y-70454880D01*
X96534880Y-70649465D01*
X96381995Y-70878273D01*
X96276686Y-71132510D01*
X96223000Y-71402408D01*
X96223000Y-71677592D01*
X96276686Y-71947490D01*
X96381995Y-72201727D01*
X96534880Y-72430535D01*
X96729465Y-72625120D01*
X96958273Y-72778005D01*
X97035515Y-72810000D01*
X96958273Y-72841995D01*
X96729465Y-72994880D01*
X96534880Y-73189465D01*
X96381995Y-73418273D01*
X96276686Y-73672510D01*
X96223000Y-73942408D01*
X96223000Y-74217592D01*
X96276686Y-74487490D01*
X96381995Y-74741727D01*
X96534880Y-74970535D01*
X96729465Y-75165120D01*
X96958273Y-75318005D01*
X97035515Y-75350000D01*
X96958273Y-75381995D01*
X96729465Y-75534880D01*
X96534880Y-75729465D01*
X96381995Y-75958273D01*
X96276686Y-76212510D01*
X96223000Y-76482408D01*
X96223000Y-76757592D01*
X96276686Y-77027490D01*
X96381995Y-77281727D01*
X96534880Y-77510535D01*
X96729465Y-77705120D01*
X96958273Y-77858005D01*
X97035515Y-77890000D01*
X96958273Y-77921995D01*
X96729465Y-78074880D01*
X96534880Y-78269465D01*
X96381995Y-78498273D01*
X96276686Y-78752510D01*
X96223000Y-79022408D01*
X96223000Y-79297592D01*
X96276686Y-79567490D01*
X96381995Y-79821727D01*
X96534880Y-80050535D01*
X96729465Y-80245120D01*
X96958273Y-80398005D01*
X97035515Y-80430000D01*
X96958273Y-80461995D01*
X96729465Y-80614880D01*
X96534880Y-80809465D01*
X96381995Y-81038273D01*
X96276686Y-81292510D01*
X96223000Y-81562408D01*
X96223000Y-81837592D01*
X96276686Y-82107490D01*
X96381995Y-82361727D01*
X96534880Y-82590535D01*
X96729465Y-82785120D01*
X96958273Y-82938005D01*
X97035515Y-82970000D01*
X96958273Y-83001995D01*
X96729465Y-83154880D01*
X96534880Y-83349465D01*
X96381995Y-83578273D01*
X96276686Y-83832510D01*
X96223000Y-84102408D01*
X96223000Y-84377592D01*
X96276686Y-84647490D01*
X96381995Y-84901727D01*
X96534880Y-85130535D01*
X96729465Y-85325120D01*
X96958273Y-85478005D01*
X97035515Y-85510000D01*
X96958273Y-85541995D01*
X96729465Y-85694880D01*
X96534880Y-85889465D01*
X96381995Y-86118273D01*
X96276686Y-86372510D01*
X96223000Y-86642408D01*
X96223000Y-86917592D01*
X96276686Y-87187490D01*
X96381995Y-87441727D01*
X96534880Y-87670535D01*
X96729465Y-87865120D01*
X96958273Y-88018005D01*
X97035515Y-88050000D01*
X96958273Y-88081995D01*
X96729465Y-88234880D01*
X96534880Y-88429465D01*
X96381995Y-88658273D01*
X96276686Y-88912510D01*
X96223000Y-89182408D01*
X96223000Y-89457592D01*
X96276686Y-89727490D01*
X96381995Y-89981727D01*
X96534880Y-90210535D01*
X96729465Y-90405120D01*
X96958273Y-90558005D01*
X97029943Y-90587692D01*
X97016977Y-90592364D01*
X96901020Y-90654344D01*
X96834040Y-90894435D01*
X97620000Y-91680395D01*
X98405960Y-90894435D01*
X98338980Y-90654344D01*
X98203240Y-90590515D01*
X98281727Y-90558005D01*
X98510535Y-90405120D01*
X98705120Y-90210535D01*
X98858005Y-89981727D01*
X98963314Y-89727490D01*
X99017000Y-89457592D01*
X99017000Y-89182408D01*
X98963314Y-88912510D01*
X98858005Y-88658273D01*
X98705120Y-88429465D01*
X98510535Y-88234880D01*
X98281727Y-88081995D01*
X98204485Y-88050000D01*
X98281727Y-88018005D01*
X98510535Y-87865120D01*
X98705120Y-87670535D01*
X98858005Y-87441727D01*
X98963314Y-87187490D01*
X99017000Y-86917592D01*
X99017000Y-86642408D01*
X98963314Y-86372510D01*
X98858005Y-86118273D01*
X98705120Y-85889465D01*
X98510535Y-85694880D01*
X98281727Y-85541995D01*
X98204485Y-85510000D01*
X98281727Y-85478005D01*
X98510535Y-85325120D01*
X98705120Y-85130535D01*
X98858005Y-84901727D01*
X98963314Y-84647490D01*
X99017000Y-84377592D01*
X99017000Y-84102408D01*
X98963314Y-83832510D01*
X98858005Y-83578273D01*
X98705120Y-83349465D01*
X98510535Y-83154880D01*
X98281727Y-83001995D01*
X98204485Y-82970000D01*
X98281727Y-82938005D01*
X98510535Y-82785120D01*
X98596990Y-82698665D01*
X123565000Y-82698665D01*
X123565000Y-82981335D01*
X123620147Y-83258574D01*
X123728320Y-83519727D01*
X123885363Y-83754759D01*
X124085241Y-83954637D01*
X124320273Y-84111680D01*
X124581426Y-84219853D01*
X124858665Y-84275000D01*
X125141335Y-84275000D01*
X125418574Y-84219853D01*
X125679727Y-84111680D01*
X125914759Y-83954637D01*
X126114637Y-83754759D01*
X126271680Y-83519727D01*
X126379853Y-83258574D01*
X126435000Y-82981335D01*
X126435000Y-82698665D01*
X126379853Y-82421426D01*
X126271680Y-82160273D01*
X126114637Y-81925241D01*
X125914759Y-81725363D01*
X125679727Y-81568320D01*
X125418574Y-81460147D01*
X125141335Y-81405000D01*
X124858665Y-81405000D01*
X124581426Y-81460147D01*
X124320273Y-81568320D01*
X124085241Y-81725363D01*
X123885363Y-81925241D01*
X123728320Y-82160273D01*
X123620147Y-82421426D01*
X123565000Y-82698665D01*
X98596990Y-82698665D01*
X98705120Y-82590535D01*
X98858005Y-82361727D01*
X98963314Y-82107490D01*
X99017000Y-81837592D01*
X99017000Y-81562408D01*
X98963314Y-81292510D01*
X98858005Y-81038273D01*
X98705120Y-80809465D01*
X98510535Y-80614880D01*
X98281727Y-80461995D01*
X98204485Y-80430000D01*
X98281727Y-80398005D01*
X98510535Y-80245120D01*
X98705120Y-80050535D01*
X98858005Y-79821727D01*
X98963314Y-79567490D01*
X99017000Y-79297592D01*
X99017000Y-79022408D01*
X98963314Y-78752510D01*
X98858005Y-78498273D01*
X98705120Y-78269465D01*
X98510535Y-78074880D01*
X98281727Y-77921995D01*
X98204485Y-77890000D01*
X98281727Y-77858005D01*
X98510535Y-77705120D01*
X98705120Y-77510535D01*
X98858005Y-77281727D01*
X98963314Y-77027490D01*
X99017000Y-76757592D01*
X99017000Y-76482408D01*
X98963314Y-76212510D01*
X98858005Y-75958273D01*
X98705120Y-75729465D01*
X98510535Y-75534880D01*
X98281727Y-75381995D01*
X98204485Y-75350000D01*
X98281727Y-75318005D01*
X98510535Y-75165120D01*
X98705120Y-74970535D01*
X98858005Y-74741727D01*
X98963314Y-74487490D01*
X99017000Y-74217592D01*
X99017000Y-73942408D01*
X98963314Y-73672510D01*
X98858005Y-73418273D01*
X98705120Y-73189465D01*
X98510535Y-72994880D01*
X98281727Y-72841995D01*
X98204485Y-72810000D01*
X98281727Y-72778005D01*
X98510535Y-72625120D01*
X98705120Y-72430535D01*
X98858005Y-72201727D01*
X98963314Y-71947490D01*
X98973146Y-71898061D01*
X102965000Y-71898061D01*
X102965000Y-72101939D01*
X103004774Y-72301898D01*
X103082795Y-72490256D01*
X103196063Y-72659774D01*
X103340226Y-72803937D01*
X103509744Y-72917205D01*
X103698102Y-72995226D01*
X103898061Y-73035000D01*
X103960199Y-73035000D01*
X106965000Y-76039802D01*
X106965000Y-76101939D01*
X107004774Y-76301898D01*
X107082795Y-76490256D01*
X107196063Y-76659774D01*
X107340226Y-76803937D01*
X107509744Y-76917205D01*
X107698102Y-76995226D01*
X107898061Y-77035000D01*
X108101939Y-77035000D01*
X108301898Y-76995226D01*
X108490256Y-76917205D01*
X108659774Y-76803937D01*
X108803937Y-76659774D01*
X108917205Y-76490256D01*
X108995226Y-76301898D01*
X109035000Y-76101939D01*
X109035000Y-75898061D01*
X108995226Y-75698102D01*
X108917205Y-75509744D01*
X108803937Y-75340226D01*
X108659774Y-75196063D01*
X108490256Y-75082795D01*
X108301898Y-75004774D01*
X108101939Y-74965000D01*
X108039802Y-74965000D01*
X105667210Y-72592408D01*
X132603000Y-72592408D01*
X132603000Y-72867592D01*
X132656686Y-73137490D01*
X132761995Y-73391727D01*
X132914880Y-73620535D01*
X133109465Y-73815120D01*
X133338273Y-73968005D01*
X133415515Y-74000000D01*
X133338273Y-74031995D01*
X133109465Y-74184880D01*
X132914880Y-74379465D01*
X132761995Y-74608273D01*
X132656686Y-74862510D01*
X132603000Y-75132408D01*
X132603000Y-75407592D01*
X132656686Y-75677490D01*
X132761995Y-75931727D01*
X132914880Y-76160535D01*
X133109465Y-76355120D01*
X133338273Y-76508005D01*
X133415515Y-76540000D01*
X133338273Y-76571995D01*
X133109465Y-76724880D01*
X132914880Y-76919465D01*
X132761995Y-77148273D01*
X132656686Y-77402510D01*
X132603000Y-77672408D01*
X132603000Y-77947592D01*
X132656686Y-78217490D01*
X132761995Y-78471727D01*
X132914880Y-78700535D01*
X133109465Y-78895120D01*
X133338273Y-79048005D01*
X133592510Y-79153314D01*
X133862408Y-79207000D01*
X134137592Y-79207000D01*
X134407490Y-79153314D01*
X134661727Y-79048005D01*
X134890535Y-78895120D01*
X135085120Y-78700535D01*
X135238005Y-78471727D01*
X135343314Y-78217490D01*
X135397000Y-77947592D01*
X135397000Y-77672408D01*
X135343314Y-77402510D01*
X135238005Y-77148273D01*
X135085120Y-76919465D01*
X134890535Y-76724880D01*
X134661727Y-76571995D01*
X134584485Y-76540000D01*
X134661727Y-76508005D01*
X134890535Y-76355120D01*
X135085120Y-76160535D01*
X135238005Y-75931727D01*
X135343314Y-75677490D01*
X135397000Y-75407592D01*
X135397000Y-75132408D01*
X135343314Y-74862510D01*
X135238005Y-74608273D01*
X135085120Y-74379465D01*
X134890535Y-74184880D01*
X134661727Y-74031995D01*
X134584485Y-74000000D01*
X134661727Y-73968005D01*
X134890535Y-73815120D01*
X135085120Y-73620535D01*
X135238005Y-73391727D01*
X135343314Y-73137490D01*
X135397000Y-72867592D01*
X135397000Y-72592408D01*
X135343314Y-72322510D01*
X135238005Y-72068273D01*
X135085120Y-71839465D01*
X134890535Y-71644880D01*
X134661727Y-71491995D01*
X134590057Y-71462308D01*
X134603023Y-71457636D01*
X134718980Y-71395656D01*
X134785960Y-71155565D01*
X134000000Y-70369605D01*
X133214040Y-71155565D01*
X133281020Y-71395656D01*
X133416760Y-71459485D01*
X133338273Y-71491995D01*
X133109465Y-71644880D01*
X132914880Y-71839465D01*
X132761995Y-72068273D01*
X132656686Y-72322510D01*
X132603000Y-72592408D01*
X105667210Y-72592408D01*
X105035000Y-71960199D01*
X105035000Y-71898061D01*
X104995226Y-71698102D01*
X104917205Y-71509744D01*
X104803937Y-71340226D01*
X104659774Y-71196063D01*
X104490256Y-71082795D01*
X104301898Y-71004774D01*
X104101939Y-70965000D01*
X103898061Y-70965000D01*
X103698102Y-71004774D01*
X103509744Y-71082795D01*
X103340226Y-71196063D01*
X103196063Y-71340226D01*
X103082795Y-71509744D01*
X103004774Y-71698102D01*
X102965000Y-71898061D01*
X98973146Y-71898061D01*
X99017000Y-71677592D01*
X99017000Y-71402408D01*
X98963314Y-71132510D01*
X98858005Y-70878273D01*
X98705120Y-70649465D01*
X98510535Y-70454880D01*
X98281727Y-70301995D01*
X98204485Y-70270000D01*
X98223757Y-70262017D01*
X132598090Y-70262017D01*
X132639078Y-70534133D01*
X132732364Y-70793023D01*
X132794344Y-70908980D01*
X133034435Y-70975960D01*
X133820395Y-70190000D01*
X134179605Y-70190000D01*
X134965565Y-70975960D01*
X135205656Y-70908980D01*
X135322756Y-70659952D01*
X135389023Y-70392865D01*
X135401910Y-70117983D01*
X135360922Y-69845867D01*
X135267636Y-69586977D01*
X135205656Y-69471020D01*
X134965565Y-69404040D01*
X134179605Y-70190000D01*
X133820395Y-70190000D01*
X133034435Y-69404040D01*
X132794344Y-69471020D01*
X132677244Y-69720048D01*
X132610977Y-69987135D01*
X132598090Y-70262017D01*
X98223757Y-70262017D01*
X98281727Y-70238005D01*
X98510535Y-70085120D01*
X98705120Y-69890535D01*
X98858005Y-69661727D01*
X98963314Y-69407490D01*
X98999725Y-69224435D01*
X133214040Y-69224435D01*
X134000000Y-70010395D01*
X134785960Y-69224435D01*
X134718980Y-68984344D01*
X134469952Y-68867244D01*
X134202865Y-68800977D01*
X133927983Y-68788090D01*
X133655867Y-68829078D01*
X133396977Y-68922364D01*
X133281020Y-68984344D01*
X133214040Y-69224435D01*
X98999725Y-69224435D01*
X99017000Y-69137592D01*
X99017000Y-68862408D01*
X98963314Y-68592510D01*
X98858005Y-68338273D01*
X98705120Y-68109465D01*
X98510535Y-67914880D01*
X98281727Y-67761995D01*
X98204485Y-67730000D01*
X98281727Y-67698005D01*
X98510535Y-67545120D01*
X98705120Y-67350535D01*
X98858005Y-67121727D01*
X98963314Y-66867490D01*
X99017000Y-66597592D01*
X99017000Y-66322408D01*
X98963314Y-66052510D01*
X98858005Y-65798273D01*
X98705120Y-65569465D01*
X98510535Y-65374880D01*
X98281727Y-65221995D01*
X98204485Y-65190000D01*
X98281727Y-65158005D01*
X98510535Y-65005120D01*
X98705120Y-64810535D01*
X98858005Y-64581727D01*
X98963314Y-64327490D01*
X99017000Y-64057592D01*
X99017000Y-63782408D01*
X98963314Y-63512510D01*
X98858005Y-63258273D01*
X98705120Y-63029465D01*
X98510535Y-62834880D01*
X98281727Y-62681995D01*
X98204485Y-62650000D01*
X98281727Y-62618005D01*
X98510535Y-62465120D01*
X98705120Y-62270535D01*
X98858005Y-62041727D01*
X98963314Y-61787490D01*
X99017000Y-61517592D01*
X99017000Y-61242408D01*
X98963314Y-60972510D01*
X98858005Y-60718273D01*
X98705120Y-60489465D01*
X98510535Y-60294880D01*
X98281727Y-60141995D01*
X98210057Y-60112308D01*
X98223023Y-60107636D01*
X98338980Y-60045656D01*
X98405960Y-59805565D01*
X97620000Y-59019605D01*
X96834040Y-59805565D01*
X96901020Y-60045656D01*
X97036760Y-60109485D01*
X96958273Y-60141995D01*
X96729465Y-60294880D01*
X96534880Y-60489465D01*
X96381995Y-60718273D01*
X96276686Y-60972510D01*
X96223000Y-61242408D01*
X83777000Y-61242408D01*
X83723314Y-60972510D01*
X83618005Y-60718273D01*
X83465120Y-60489465D01*
X83270535Y-60294880D01*
X83041727Y-60141995D01*
X82964485Y-60110000D01*
X83041727Y-60078005D01*
X83270535Y-59925120D01*
X83465120Y-59730535D01*
X83618005Y-59501727D01*
X83723314Y-59247490D01*
X83777000Y-58977592D01*
X83777000Y-58702408D01*
X93683000Y-58702408D01*
X93683000Y-58977592D01*
X93736686Y-59247490D01*
X93841995Y-59501727D01*
X93994880Y-59730535D01*
X94189465Y-59925120D01*
X94418273Y-60078005D01*
X94672510Y-60183314D01*
X94942408Y-60237000D01*
X95217592Y-60237000D01*
X95487490Y-60183314D01*
X95741727Y-60078005D01*
X95970535Y-59925120D01*
X96165120Y-59730535D01*
X96318005Y-59501727D01*
X96347692Y-59430057D01*
X96352364Y-59443023D01*
X96414344Y-59558980D01*
X96654435Y-59625960D01*
X97440395Y-58840000D01*
X97799605Y-58840000D01*
X98585565Y-59625960D01*
X98825656Y-59558980D01*
X98942756Y-59309952D01*
X99009023Y-59042865D01*
X99021910Y-58767983D01*
X98980922Y-58495867D01*
X98887636Y-58236977D01*
X98825656Y-58121020D01*
X98585565Y-58054040D01*
X97799605Y-58840000D01*
X97440395Y-58840000D01*
X96654435Y-58054040D01*
X96414344Y-58121020D01*
X96350515Y-58256760D01*
X96318005Y-58178273D01*
X96165120Y-57949465D01*
X95970535Y-57754880D01*
X95741727Y-57601995D01*
X95487490Y-57496686D01*
X95217592Y-57443000D01*
X94942408Y-57443000D01*
X94672510Y-57496686D01*
X94418273Y-57601995D01*
X94189465Y-57754880D01*
X93994880Y-57949465D01*
X93841995Y-58178273D01*
X93736686Y-58432510D01*
X93683000Y-58702408D01*
X83777000Y-58702408D01*
X83723314Y-58432510D01*
X83618005Y-58178273D01*
X83465120Y-57949465D01*
X83270535Y-57754880D01*
X83041727Y-57601995D01*
X82970057Y-57572308D01*
X82983023Y-57567636D01*
X83098980Y-57505656D01*
X83165960Y-57265565D01*
X82380000Y-56479605D01*
X81594040Y-57265565D01*
X81661020Y-57505656D01*
X81796760Y-57569485D01*
X81718273Y-57601995D01*
X81489465Y-57754880D01*
X81294880Y-57949465D01*
X81141995Y-58178273D01*
X81036686Y-58432510D01*
X80983000Y-58702408D01*
X80983000Y-58977592D01*
X81036686Y-59247490D01*
X81141995Y-59501727D01*
X81294880Y-59730535D01*
X81489465Y-59925120D01*
X81718273Y-60078005D01*
X81795515Y-60110000D01*
X81718273Y-60141995D01*
X81489465Y-60294880D01*
X81294880Y-60489465D01*
X81141995Y-60718273D01*
X81036686Y-60972510D01*
X80983000Y-61242408D01*
X80983000Y-61517592D01*
X81036686Y-61787490D01*
X81141995Y-62041727D01*
X81294880Y-62270535D01*
X81489465Y-62465120D01*
X81718273Y-62618005D01*
X81795515Y-62650000D01*
X81718273Y-62681995D01*
X81489465Y-62834880D01*
X81294880Y-63029465D01*
X81141995Y-63258273D01*
X81036686Y-63512510D01*
X80983000Y-63782408D01*
X80983000Y-64057592D01*
X81036686Y-64327490D01*
X81141995Y-64581727D01*
X81294880Y-64810535D01*
X81489465Y-65005120D01*
X81718273Y-65158005D01*
X81795515Y-65190000D01*
X81718273Y-65221995D01*
X81489465Y-65374880D01*
X81294880Y-65569465D01*
X81141995Y-65798273D01*
X81036686Y-66052510D01*
X80983000Y-66322408D01*
X80983000Y-66597592D01*
X81036686Y-66867490D01*
X81141995Y-67121727D01*
X81294880Y-67350535D01*
X81489465Y-67545120D01*
X81718273Y-67698005D01*
X81795515Y-67730000D01*
X81718273Y-67761995D01*
X81489465Y-67914880D01*
X81294880Y-68109465D01*
X81141995Y-68338273D01*
X81036686Y-68592510D01*
X80983000Y-68862408D01*
X80983000Y-69137592D01*
X81036686Y-69407490D01*
X81141995Y-69661727D01*
X81294880Y-69890535D01*
X81489465Y-70085120D01*
X81718273Y-70238005D01*
X81795515Y-70270000D01*
X81718273Y-70301995D01*
X81489465Y-70454880D01*
X81294880Y-70649465D01*
X81141995Y-70878273D01*
X81036686Y-71132510D01*
X80983000Y-71402408D01*
X80983000Y-71677592D01*
X81036686Y-71947490D01*
X81141995Y-72201727D01*
X81294880Y-72430535D01*
X81489465Y-72625120D01*
X81718273Y-72778005D01*
X81795515Y-72810000D01*
X81718273Y-72841995D01*
X81489465Y-72994880D01*
X81294880Y-73189465D01*
X81141995Y-73418273D01*
X81036686Y-73672510D01*
X80983000Y-73942408D01*
X80983000Y-74217592D01*
X81036686Y-74487490D01*
X81141995Y-74741727D01*
X81294880Y-74970535D01*
X81489465Y-75165120D01*
X81718273Y-75318005D01*
X81795515Y-75350000D01*
X81718273Y-75381995D01*
X81489465Y-75534880D01*
X81294880Y-75729465D01*
X81141995Y-75958273D01*
X81036686Y-76212510D01*
X80983000Y-76482408D01*
X80983000Y-76757592D01*
X81036686Y-77027490D01*
X81141995Y-77281727D01*
X81294880Y-77510535D01*
X81489465Y-77705120D01*
X81718273Y-77858005D01*
X81795515Y-77890000D01*
X81718273Y-77921995D01*
X81489465Y-78074880D01*
X81294880Y-78269465D01*
X81141995Y-78498273D01*
X81036686Y-78752510D01*
X80983000Y-79022408D01*
X80983000Y-79297592D01*
X81036686Y-79567490D01*
X81141995Y-79821727D01*
X81294880Y-80050535D01*
X81489465Y-80245120D01*
X81718273Y-80398005D01*
X81795515Y-80430000D01*
X81718273Y-80461995D01*
X81489465Y-80614880D01*
X81294880Y-80809465D01*
X81141995Y-81038273D01*
X81036686Y-81292510D01*
X80983000Y-81562408D01*
X80983000Y-81837592D01*
X81036686Y-82107490D01*
X81141995Y-82361727D01*
X81294880Y-82590535D01*
X81489465Y-82785120D01*
X81718273Y-82938005D01*
X81795515Y-82970000D01*
X81718273Y-83001995D01*
X81489465Y-83154880D01*
X81294880Y-83349465D01*
X81141995Y-83578273D01*
X81036686Y-83832510D01*
X80983000Y-84102408D01*
X80983000Y-84377592D01*
X81036686Y-84647490D01*
X81141995Y-84901727D01*
X81294880Y-85130535D01*
X81489465Y-85325120D01*
X81718273Y-85478005D01*
X81795515Y-85510000D01*
X81718273Y-85541995D01*
X81489465Y-85694880D01*
X81294880Y-85889465D01*
X81141995Y-86118273D01*
X81036686Y-86372510D01*
X80983000Y-86642408D01*
X80983000Y-86917592D01*
X81036686Y-87187490D01*
X81141995Y-87441727D01*
X81294880Y-87670535D01*
X81489465Y-87865120D01*
X81718273Y-88018005D01*
X81795515Y-88050000D01*
X81718273Y-88081995D01*
X81489465Y-88234880D01*
X81294880Y-88429465D01*
X81141995Y-88658273D01*
X81036686Y-88912510D01*
X80983000Y-89182408D01*
X80983000Y-89388198D01*
X60045000Y-68450199D01*
X60045000Y-57362341D01*
X60175535Y-57275120D01*
X60295090Y-57155565D01*
X61039040Y-57155565D01*
X61106020Y-57395656D01*
X61355048Y-57512756D01*
X61622135Y-57579023D01*
X61897017Y-57591910D01*
X62169133Y-57550922D01*
X62428023Y-57457636D01*
X62543980Y-57395656D01*
X62610960Y-57155565D01*
X61825000Y-56369605D01*
X61039040Y-57155565D01*
X60295090Y-57155565D01*
X60370120Y-57080535D01*
X60523005Y-56851727D01*
X60552692Y-56780057D01*
X60557364Y-56793023D01*
X60619344Y-56908980D01*
X60859435Y-56975960D01*
X61645395Y-56190000D01*
X62004605Y-56190000D01*
X62790565Y-56975960D01*
X63030656Y-56908980D01*
X63094485Y-56773240D01*
X63126995Y-56851727D01*
X63279880Y-57080535D01*
X63474465Y-57275120D01*
X63703273Y-57428005D01*
X63957510Y-57533314D01*
X64227408Y-57587000D01*
X64502592Y-57587000D01*
X64772490Y-57533314D01*
X65026727Y-57428005D01*
X65255535Y-57275120D01*
X65450120Y-57080535D01*
X65603005Y-56851727D01*
X65635000Y-56774485D01*
X65666995Y-56851727D01*
X65819880Y-57080535D01*
X66014465Y-57275120D01*
X66243273Y-57428005D01*
X66497510Y-57533314D01*
X66767408Y-57587000D01*
X67042592Y-57587000D01*
X67312490Y-57533314D01*
X67566727Y-57428005D01*
X67795535Y-57275120D01*
X67990120Y-57080535D01*
X68143005Y-56851727D01*
X68175000Y-56774485D01*
X68206995Y-56851727D01*
X68359880Y-57080535D01*
X68554465Y-57275120D01*
X68783273Y-57428005D01*
X69037510Y-57533314D01*
X69307408Y-57587000D01*
X69582592Y-57587000D01*
X69852490Y-57533314D01*
X70106727Y-57428005D01*
X70335535Y-57275120D01*
X70530120Y-57080535D01*
X70683005Y-56851727D01*
X70788314Y-56597490D01*
X70842000Y-56327592D01*
X70842000Y-56052408D01*
X70810572Y-55894408D01*
X73968000Y-55894408D01*
X73968000Y-56169592D01*
X74021686Y-56439490D01*
X74126995Y-56693727D01*
X74279880Y-56922535D01*
X74474465Y-57117120D01*
X74703273Y-57270005D01*
X74957510Y-57375314D01*
X75227408Y-57429000D01*
X75502592Y-57429000D01*
X75772490Y-57375314D01*
X76026727Y-57270005D01*
X76255535Y-57117120D01*
X76450120Y-56922535D01*
X76603005Y-56693727D01*
X76708314Y-56439490D01*
X76721735Y-56372017D01*
X80978090Y-56372017D01*
X81019078Y-56644133D01*
X81112364Y-56903023D01*
X81174344Y-57018980D01*
X81414435Y-57085960D01*
X82200395Y-56300000D01*
X82559605Y-56300000D01*
X83345565Y-57085960D01*
X83585656Y-57018980D01*
X83702756Y-56769952D01*
X83769023Y-56502865D01*
X83781910Y-56227983D01*
X83772033Y-56162408D01*
X96223000Y-56162408D01*
X96223000Y-56437592D01*
X96276686Y-56707490D01*
X96381995Y-56961727D01*
X96534880Y-57190535D01*
X96729465Y-57385120D01*
X96958273Y-57538005D01*
X97029943Y-57567692D01*
X97016977Y-57572364D01*
X96901020Y-57634344D01*
X96834040Y-57874435D01*
X97620000Y-58660395D01*
X98405960Y-57874435D01*
X98338980Y-57634344D01*
X98203240Y-57570515D01*
X98281727Y-57538005D01*
X98510535Y-57385120D01*
X98705120Y-57190535D01*
X98858005Y-56961727D01*
X98963314Y-56707490D01*
X99017000Y-56437592D01*
X99017000Y-56162408D01*
X98963692Y-55894408D01*
X123968000Y-55894408D01*
X123968000Y-56169592D01*
X124021686Y-56439490D01*
X124126995Y-56693727D01*
X124279880Y-56922535D01*
X124474465Y-57117120D01*
X124703273Y-57270005D01*
X124957510Y-57375314D01*
X125227408Y-57429000D01*
X125502592Y-57429000D01*
X125772490Y-57375314D01*
X126026727Y-57270005D01*
X126255535Y-57117120D01*
X126375090Y-56997565D01*
X127219040Y-56997565D01*
X127286020Y-57237656D01*
X127535048Y-57354756D01*
X127802135Y-57421023D01*
X128077017Y-57433910D01*
X128349133Y-57392922D01*
X128608023Y-57299636D01*
X128723980Y-57237656D01*
X128790960Y-56997565D01*
X128005000Y-56211605D01*
X127219040Y-56997565D01*
X126375090Y-56997565D01*
X126450120Y-56922535D01*
X126603005Y-56693727D01*
X126686170Y-56492949D01*
X126737364Y-56635023D01*
X126799344Y-56750980D01*
X127039435Y-56817960D01*
X127825395Y-56032000D01*
X128184605Y-56032000D01*
X128970565Y-56817960D01*
X129210656Y-56750980D01*
X129327756Y-56501952D01*
X129394023Y-56234865D01*
X129406910Y-55959983D01*
X129365922Y-55687867D01*
X129272636Y-55428977D01*
X129210656Y-55313020D01*
X128970565Y-55246040D01*
X128184605Y-56032000D01*
X127825395Y-56032000D01*
X127039435Y-55246040D01*
X126799344Y-55313020D01*
X126682349Y-55561825D01*
X126603005Y-55370273D01*
X126450120Y-55141465D01*
X126375090Y-55066435D01*
X127219040Y-55066435D01*
X128005000Y-55852395D01*
X128790960Y-55066435D01*
X128723980Y-54826344D01*
X128474952Y-54709244D01*
X128207865Y-54642977D01*
X127932983Y-54630090D01*
X127660867Y-54671078D01*
X127401977Y-54764364D01*
X127286020Y-54826344D01*
X127219040Y-55066435D01*
X126375090Y-55066435D01*
X126255535Y-54946880D01*
X126026727Y-54793995D01*
X125772490Y-54688686D01*
X125502592Y-54635000D01*
X125227408Y-54635000D01*
X124957510Y-54688686D01*
X124703273Y-54793995D01*
X124474465Y-54946880D01*
X124279880Y-55141465D01*
X124126995Y-55370273D01*
X124021686Y-55624510D01*
X123968000Y-55894408D01*
X98963692Y-55894408D01*
X98963314Y-55892510D01*
X98858005Y-55638273D01*
X98705120Y-55409465D01*
X98510535Y-55214880D01*
X98281727Y-55061995D01*
X98027490Y-54956686D01*
X97757592Y-54903000D01*
X97482408Y-54903000D01*
X97212510Y-54956686D01*
X96958273Y-55061995D01*
X96729465Y-55214880D01*
X96534880Y-55409465D01*
X96381995Y-55638273D01*
X96276686Y-55892510D01*
X96223000Y-56162408D01*
X83772033Y-56162408D01*
X83740922Y-55955867D01*
X83647636Y-55696977D01*
X83585656Y-55581020D01*
X83345565Y-55514040D01*
X82559605Y-56300000D01*
X82200395Y-56300000D01*
X81414435Y-55514040D01*
X81174344Y-55581020D01*
X81057244Y-55830048D01*
X80990977Y-56097135D01*
X80978090Y-56372017D01*
X76721735Y-56372017D01*
X76762000Y-56169592D01*
X76762000Y-55894408D01*
X76708314Y-55624510D01*
X76603005Y-55370273D01*
X76579059Y-55334435D01*
X81594040Y-55334435D01*
X82380000Y-56120395D01*
X83165960Y-55334435D01*
X83098980Y-55094344D01*
X82849952Y-54977244D01*
X82582865Y-54910977D01*
X82307983Y-54898090D01*
X82035867Y-54939078D01*
X81776977Y-55032364D01*
X81661020Y-55094344D01*
X81594040Y-55334435D01*
X76579059Y-55334435D01*
X76450120Y-55141465D01*
X76255535Y-54946880D01*
X76026727Y-54793995D01*
X75772490Y-54688686D01*
X75502592Y-54635000D01*
X75227408Y-54635000D01*
X74957510Y-54688686D01*
X74703273Y-54793995D01*
X74474465Y-54946880D01*
X74279880Y-55141465D01*
X74126995Y-55370273D01*
X74021686Y-55624510D01*
X73968000Y-55894408D01*
X70810572Y-55894408D01*
X70788314Y-55782510D01*
X70683005Y-55528273D01*
X70530120Y-55299465D01*
X70335535Y-55104880D01*
X70106727Y-54951995D01*
X69852490Y-54846686D01*
X69582592Y-54793000D01*
X69307408Y-54793000D01*
X69037510Y-54846686D01*
X68783273Y-54951995D01*
X68554465Y-55104880D01*
X68359880Y-55299465D01*
X68206995Y-55528273D01*
X68175000Y-55605515D01*
X68143005Y-55528273D01*
X67990120Y-55299465D01*
X67795535Y-55104880D01*
X67566727Y-54951995D01*
X67312490Y-54846686D01*
X67042592Y-54793000D01*
X66767408Y-54793000D01*
X66497510Y-54846686D01*
X66243273Y-54951995D01*
X66014465Y-55104880D01*
X65819880Y-55299465D01*
X65666995Y-55528273D01*
X65635000Y-55605515D01*
X65603005Y-55528273D01*
X65450120Y-55299465D01*
X65255535Y-55104880D01*
X65026727Y-54951995D01*
X64772490Y-54846686D01*
X64502592Y-54793000D01*
X64227408Y-54793000D01*
X63957510Y-54846686D01*
X63703273Y-54951995D01*
X63474465Y-55104880D01*
X63279880Y-55299465D01*
X63126995Y-55528273D01*
X63097308Y-55599943D01*
X63092636Y-55586977D01*
X63030656Y-55471020D01*
X62790565Y-55404040D01*
X62004605Y-56190000D01*
X61645395Y-56190000D01*
X60859435Y-55404040D01*
X60619344Y-55471020D01*
X60555515Y-55606760D01*
X60523005Y-55528273D01*
X60370120Y-55299465D01*
X60295090Y-55224435D01*
X61039040Y-55224435D01*
X61825000Y-56010395D01*
X62610960Y-55224435D01*
X62543980Y-54984344D01*
X62294952Y-54867244D01*
X62027865Y-54800977D01*
X61752983Y-54788090D01*
X61480867Y-54829078D01*
X61221977Y-54922364D01*
X61106020Y-54984344D01*
X61039040Y-55224435D01*
X60295090Y-55224435D01*
X60175535Y-55104880D01*
X59946727Y-54951995D01*
X59692490Y-54846686D01*
X59422592Y-54793000D01*
X59147408Y-54793000D01*
X58877510Y-54846686D01*
X58623273Y-54951995D01*
X58394465Y-55104880D01*
X58199880Y-55299465D01*
X58046995Y-55528273D01*
X57941686Y-55782510D01*
X57888000Y-56052408D01*
X57888000Y-56327592D01*
X57941686Y-56597490D01*
X58046995Y-56851727D01*
X58199880Y-57080535D01*
X58394465Y-57275120D01*
X58525000Y-57362341D01*
X58525001Y-68727668D01*
X58521324Y-68765000D01*
X58525001Y-68802333D01*
X58535998Y-68913986D01*
X58547528Y-68951995D01*
X58579454Y-69057246D01*
X58650026Y-69189276D01*
X58678881Y-69224435D01*
X58745000Y-69305001D01*
X58773998Y-69328799D01*
X81013628Y-91568430D01*
X80983000Y-91722408D01*
X80983000Y-91997592D01*
X81036686Y-92267490D01*
X81141995Y-92521727D01*
X81294880Y-92750535D01*
X81489465Y-92945120D01*
X81718273Y-93098005D01*
X81795515Y-93130000D01*
X81718273Y-93161995D01*
X81489465Y-93314880D01*
X81294880Y-93509465D01*
X81141995Y-93738273D01*
X81036686Y-93992510D01*
X80983000Y-94262408D01*
X80983000Y-94537592D01*
X81036686Y-94807490D01*
X81141995Y-95061727D01*
X81294880Y-95290535D01*
X81489465Y-95485120D01*
X81718273Y-95638005D01*
X81795515Y-95670000D01*
X81718273Y-95701995D01*
X81489465Y-95854880D01*
X81294880Y-96049465D01*
X81141995Y-96278273D01*
X81036686Y-96532510D01*
X80983000Y-96802408D01*
X80983000Y-97077592D01*
X81036686Y-97347490D01*
X81141995Y-97601727D01*
X81294880Y-97830535D01*
X81489465Y-98025120D01*
X81718273Y-98178005D01*
X81795515Y-98210000D01*
X81718273Y-98241995D01*
X81489465Y-98394880D01*
X81294880Y-98589465D01*
X81141995Y-98818273D01*
X81036686Y-99072510D01*
X80983000Y-99342408D01*
X80983000Y-99617592D01*
X81036686Y-99887490D01*
X81141995Y-100141727D01*
X81294880Y-100370535D01*
X81489465Y-100565120D01*
X81718273Y-100718005D01*
X81795515Y-100750000D01*
X81718273Y-100781995D01*
X81489465Y-100934880D01*
X81294880Y-101129465D01*
X81141995Y-101358273D01*
X81036686Y-101612510D01*
X80983000Y-101882408D01*
X80983000Y-102157592D01*
X81036686Y-102427490D01*
X81141995Y-102681727D01*
X81294880Y-102910535D01*
X81489465Y-103105120D01*
X81718273Y-103258005D01*
X81795515Y-103290000D01*
X81718273Y-103321995D01*
X81489465Y-103474880D01*
X81294880Y-103669465D01*
X81141995Y-103898273D01*
X81036686Y-104152510D01*
X80983000Y-104422408D01*
X80983000Y-104697592D01*
X81036686Y-104967490D01*
X81141995Y-105221727D01*
X81294880Y-105450535D01*
X81489465Y-105645120D01*
X81718273Y-105798005D01*
X81795515Y-105830000D01*
X81718273Y-105861995D01*
X81489465Y-106014880D01*
X81294880Y-106209465D01*
X81141995Y-106438273D01*
X81036686Y-106692510D01*
X80983000Y-106962408D01*
X80983000Y-107168198D01*
X73760000Y-99945199D01*
X73760000Y-92037333D01*
X73763677Y-92000000D01*
X73749003Y-91851014D01*
X73705546Y-91707753D01*
X73634974Y-91575724D01*
X73540001Y-91459999D01*
X73424276Y-91365026D01*
X73292247Y-91294454D01*
X73148986Y-91250997D01*
X73037333Y-91240000D01*
X73000000Y-91236323D01*
X72962667Y-91240000D01*
X59949396Y-91240000D01*
X60114637Y-91074759D01*
X60271680Y-90839727D01*
X60379853Y-90578574D01*
X60435000Y-90301335D01*
X60435000Y-90018665D01*
X60379853Y-89741426D01*
X60271680Y-89480273D01*
X60114637Y-89245241D01*
X59914759Y-89045363D01*
X59679727Y-88888320D01*
X59418574Y-88780147D01*
X59141335Y-88725000D01*
X58858665Y-88725000D01*
X58581426Y-88780147D01*
X58320273Y-88888320D01*
X58085241Y-89045363D01*
X57885363Y-89245241D01*
X57728320Y-89480273D01*
X57620147Y-89741426D01*
X57565000Y-90018665D01*
X41127000Y-90018665D01*
X41127000Y-79858665D01*
X57565000Y-79858665D01*
X57565000Y-80141335D01*
X57620147Y-80418574D01*
X57728320Y-80679727D01*
X57885363Y-80914759D01*
X58085241Y-81114637D01*
X58320273Y-81271680D01*
X58581426Y-81379853D01*
X58858665Y-81435000D01*
X59141335Y-81435000D01*
X59418574Y-81379853D01*
X59679727Y-81271680D01*
X59914759Y-81114637D01*
X60114637Y-80914759D01*
X60271680Y-80679727D01*
X60379853Y-80418574D01*
X60435000Y-80141335D01*
X60435000Y-79858665D01*
X60379853Y-79581426D01*
X60271680Y-79320273D01*
X60114637Y-79085241D01*
X59914759Y-78885363D01*
X59679727Y-78728320D01*
X59418574Y-78620147D01*
X59141335Y-78565000D01*
X58858665Y-78565000D01*
X58581426Y-78620147D01*
X58320273Y-78728320D01*
X58085241Y-78885363D01*
X57885363Y-79085241D01*
X57728320Y-79320273D01*
X57620147Y-79581426D01*
X57565000Y-79858665D01*
X41127000Y-79858665D01*
X41127000Y-78775565D01*
X45214040Y-78775565D01*
X45281020Y-79015656D01*
X45530048Y-79132756D01*
X45797135Y-79199023D01*
X46072017Y-79211910D01*
X46344133Y-79170922D01*
X46603023Y-79077636D01*
X46718980Y-79015656D01*
X46785960Y-78775565D01*
X46000000Y-77989605D01*
X45214040Y-78775565D01*
X41127000Y-78775565D01*
X41127000Y-77882017D01*
X44598090Y-77882017D01*
X44639078Y-78154133D01*
X44732364Y-78413023D01*
X44794344Y-78528980D01*
X45034435Y-78595960D01*
X45820395Y-77810000D01*
X46179605Y-77810000D01*
X46965565Y-78595960D01*
X47205656Y-78528980D01*
X47322756Y-78279952D01*
X47389023Y-78012865D01*
X47401910Y-77737983D01*
X47360922Y-77465867D01*
X47267636Y-77206977D01*
X47205656Y-77091020D01*
X46965565Y-77024040D01*
X46179605Y-77810000D01*
X45820395Y-77810000D01*
X45034435Y-77024040D01*
X44794344Y-77091020D01*
X44677244Y-77340048D01*
X44610977Y-77607135D01*
X44598090Y-77882017D01*
X41127000Y-77882017D01*
X41127000Y-70052408D01*
X44603000Y-70052408D01*
X44603000Y-70327592D01*
X44656686Y-70597490D01*
X44761995Y-70851727D01*
X44914880Y-71080535D01*
X45109465Y-71275120D01*
X45338273Y-71428005D01*
X45415515Y-71460000D01*
X45338273Y-71491995D01*
X45109465Y-71644880D01*
X44914880Y-71839465D01*
X44761995Y-72068273D01*
X44656686Y-72322510D01*
X44603000Y-72592408D01*
X44603000Y-72867592D01*
X44656686Y-73137490D01*
X44761995Y-73391727D01*
X44914880Y-73620535D01*
X45109465Y-73815120D01*
X45338273Y-73968005D01*
X45415515Y-74000000D01*
X45338273Y-74031995D01*
X45109465Y-74184880D01*
X44914880Y-74379465D01*
X44761995Y-74608273D01*
X44656686Y-74862510D01*
X44603000Y-75132408D01*
X44603000Y-75407592D01*
X44656686Y-75677490D01*
X44761995Y-75931727D01*
X44914880Y-76160535D01*
X45109465Y-76355120D01*
X45338273Y-76508005D01*
X45409943Y-76537692D01*
X45396977Y-76542364D01*
X45281020Y-76604344D01*
X45214040Y-76844435D01*
X46000000Y-77630395D01*
X46785960Y-76844435D01*
X46718980Y-76604344D01*
X46583240Y-76540515D01*
X46661727Y-76508005D01*
X46890535Y-76355120D01*
X47085120Y-76160535D01*
X47238005Y-75931727D01*
X47343314Y-75677490D01*
X47397000Y-75407592D01*
X47397000Y-75132408D01*
X47343314Y-74862510D01*
X47238005Y-74608273D01*
X47085120Y-74379465D01*
X46890535Y-74184880D01*
X46661727Y-74031995D01*
X46584485Y-74000000D01*
X46661727Y-73968005D01*
X46890535Y-73815120D01*
X47085120Y-73620535D01*
X47238005Y-73391727D01*
X47343314Y-73137490D01*
X47397000Y-72867592D01*
X47397000Y-72592408D01*
X47343314Y-72322510D01*
X47238005Y-72068273D01*
X47085120Y-71839465D01*
X46890535Y-71644880D01*
X46661727Y-71491995D01*
X46584485Y-71460000D01*
X46661727Y-71428005D01*
X46890535Y-71275120D01*
X47085120Y-71080535D01*
X47238005Y-70851727D01*
X47343314Y-70597490D01*
X47397000Y-70327592D01*
X47397000Y-70052408D01*
X47343314Y-69782510D01*
X47238005Y-69528273D01*
X47085120Y-69299465D01*
X46890535Y-69104880D01*
X46661727Y-68951995D01*
X46407490Y-68846686D01*
X46137592Y-68793000D01*
X45862408Y-68793000D01*
X45592510Y-68846686D01*
X45338273Y-68951995D01*
X45109465Y-69104880D01*
X44914880Y-69299465D01*
X44761995Y-69528273D01*
X44656686Y-69782510D01*
X44603000Y-70052408D01*
X41127000Y-70052408D01*
X41127000Y-51127000D01*
X138873000Y-51127000D01*
X138873000Y-148873000D01*
%TA.AperFunction,Conductor*%
D16*
G36*
X138873000Y-148873000D02*
G01*
X41127000Y-148873000D01*
X41127000Y-143862408D01*
X84793000Y-143862408D01*
X84793000Y-144137592D01*
X84846686Y-144407490D01*
X84951995Y-144661727D01*
X85104880Y-144890535D01*
X85299465Y-145085120D01*
X85528273Y-145238005D01*
X85782510Y-145343314D01*
X86052408Y-145397000D01*
X86327592Y-145397000D01*
X86597490Y-145343314D01*
X86851727Y-145238005D01*
X87080535Y-145085120D01*
X87275120Y-144890535D01*
X87428005Y-144661727D01*
X87460000Y-144584485D01*
X87491995Y-144661727D01*
X87644880Y-144890535D01*
X87839465Y-145085120D01*
X88068273Y-145238005D01*
X88322510Y-145343314D01*
X88592408Y-145397000D01*
X88867592Y-145397000D01*
X89137490Y-145343314D01*
X89391727Y-145238005D01*
X89620535Y-145085120D01*
X89815120Y-144890535D01*
X89968005Y-144661727D01*
X90000000Y-144584485D01*
X90031995Y-144661727D01*
X90184880Y-144890535D01*
X90379465Y-145085120D01*
X90608273Y-145238005D01*
X90862510Y-145343314D01*
X91132408Y-145397000D01*
X91407592Y-145397000D01*
X91677490Y-145343314D01*
X91931727Y-145238005D01*
X92160535Y-145085120D01*
X92280090Y-144965565D01*
X93024040Y-144965565D01*
X93091020Y-145205656D01*
X93340048Y-145322756D01*
X93607135Y-145389023D01*
X93882017Y-145401910D01*
X94154133Y-145360922D01*
X94413023Y-145267636D01*
X94528980Y-145205656D01*
X94595960Y-144965565D01*
X93810000Y-144179605D01*
X93024040Y-144965565D01*
X92280090Y-144965565D01*
X92355120Y-144890535D01*
X92508005Y-144661727D01*
X92537692Y-144590057D01*
X92542364Y-144603023D01*
X92604344Y-144718980D01*
X92844435Y-144785960D01*
X93630395Y-144000000D01*
X93989605Y-144000000D01*
X94775565Y-144785960D01*
X95015656Y-144718980D01*
X95132756Y-144469952D01*
X95199023Y-144202865D01*
X95211910Y-143927983D01*
X95170922Y-143655867D01*
X95077636Y-143396977D01*
X95015656Y-143281020D01*
X94775565Y-143214040D01*
X93989605Y-144000000D01*
X93630395Y-144000000D01*
X92844435Y-143214040D01*
X92604344Y-143281020D01*
X92540515Y-143416760D01*
X92508005Y-143338273D01*
X92355120Y-143109465D01*
X92280090Y-143034435D01*
X93024040Y-143034435D01*
X93810000Y-143820395D01*
X94595960Y-143034435D01*
X94528980Y-142794344D01*
X94279952Y-142677244D01*
X94012865Y-142610977D01*
X93737983Y-142598090D01*
X93465867Y-142639078D01*
X93206977Y-142732364D01*
X93091020Y-142794344D01*
X93024040Y-143034435D01*
X92280090Y-143034435D01*
X92160535Y-142914880D01*
X91931727Y-142761995D01*
X91677490Y-142656686D01*
X91407592Y-142603000D01*
X91132408Y-142603000D01*
X90862510Y-142656686D01*
X90608273Y-142761995D01*
X90379465Y-142914880D01*
X90184880Y-143109465D01*
X90031995Y-143338273D01*
X90000000Y-143415515D01*
X89968005Y-143338273D01*
X89815120Y-143109465D01*
X89620535Y-142914880D01*
X89391727Y-142761995D01*
X89137490Y-142656686D01*
X88867592Y-142603000D01*
X88592408Y-142603000D01*
X88322510Y-142656686D01*
X88068273Y-142761995D01*
X87839465Y-142914880D01*
X87644880Y-143109465D01*
X87491995Y-143338273D01*
X87460000Y-143415515D01*
X87428005Y-143338273D01*
X87275120Y-143109465D01*
X87080535Y-142914880D01*
X86851727Y-142761995D01*
X86597490Y-142656686D01*
X86327592Y-142603000D01*
X86052408Y-142603000D01*
X85782510Y-142656686D01*
X85528273Y-142761995D01*
X85299465Y-142914880D01*
X85104880Y-143109465D01*
X84951995Y-143338273D01*
X84846686Y-143592510D01*
X84793000Y-143862408D01*
X41127000Y-143862408D01*
X41127000Y-137858665D01*
X57565000Y-137858665D01*
X57565000Y-138141335D01*
X57620147Y-138418574D01*
X57728320Y-138679727D01*
X57885363Y-138914759D01*
X58085241Y-139114637D01*
X58320273Y-139271680D01*
X58581426Y-139379853D01*
X58858665Y-139435000D01*
X59141335Y-139435000D01*
X59418574Y-139379853D01*
X59679727Y-139271680D01*
X59914759Y-139114637D01*
X60036694Y-138992702D01*
X124186903Y-138992702D01*
X124258486Y-139236671D01*
X124513996Y-139357571D01*
X124788184Y-139426300D01*
X125070512Y-139440217D01*
X125350130Y-139398787D01*
X125616292Y-139303603D01*
X125741514Y-139236671D01*
X125813097Y-138992702D01*
X125000000Y-138179605D01*
X124186903Y-138992702D01*
X60036694Y-138992702D01*
X60114637Y-138914759D01*
X60271680Y-138679727D01*
X60379853Y-138418574D01*
X60435000Y-138141335D01*
X60435000Y-138070512D01*
X123559783Y-138070512D01*
X123601213Y-138350130D01*
X123696397Y-138616292D01*
X123763329Y-138741514D01*
X124007298Y-138813097D01*
X124820395Y-138000000D01*
X125179605Y-138000000D01*
X125992702Y-138813097D01*
X126236671Y-138741514D01*
X126357571Y-138486004D01*
X126426300Y-138211816D01*
X126440217Y-137929488D01*
X126398787Y-137649870D01*
X126303603Y-137383708D01*
X126236671Y-137258486D01*
X125992702Y-137186903D01*
X125179605Y-138000000D01*
X124820395Y-138000000D01*
X124007298Y-137186903D01*
X123763329Y-137258486D01*
X123642429Y-137513996D01*
X123573700Y-137788184D01*
X123559783Y-138070512D01*
X60435000Y-138070512D01*
X60435000Y-137858665D01*
X60379853Y-137581426D01*
X60271680Y-137320273D01*
X60114637Y-137085241D01*
X60022098Y-136992702D01*
X77186903Y-136992702D01*
X77258486Y-137236671D01*
X77513996Y-137357571D01*
X77788184Y-137426300D01*
X78070512Y-137440217D01*
X78350130Y-137398787D01*
X78616292Y-137303603D01*
X78741514Y-137236671D01*
X78813097Y-136992702D01*
X78000000Y-136179605D01*
X77186903Y-136992702D01*
X60022098Y-136992702D01*
X59914759Y-136885363D01*
X59679727Y-136728320D01*
X59418574Y-136620147D01*
X59141335Y-136565000D01*
X58858665Y-136565000D01*
X58581426Y-136620147D01*
X58320273Y-136728320D01*
X58085241Y-136885363D01*
X57885363Y-137085241D01*
X57728320Y-137320273D01*
X57620147Y-137581426D01*
X57565000Y-137858665D01*
X41127000Y-137858665D01*
X41127000Y-136070512D01*
X76559783Y-136070512D01*
X76601213Y-136350130D01*
X76696397Y-136616292D01*
X76763329Y-136741514D01*
X77007298Y-136813097D01*
X77820395Y-136000000D01*
X78179605Y-136000000D01*
X78992702Y-136813097D01*
X79236671Y-136741514D01*
X79357571Y-136486004D01*
X79426300Y-136211816D01*
X79440217Y-135929488D01*
X79398787Y-135649870D01*
X79303603Y-135383708D01*
X79236671Y-135258486D01*
X78992702Y-135186903D01*
X78179605Y-136000000D01*
X77820395Y-136000000D01*
X77007298Y-135186903D01*
X76763329Y-135258486D01*
X76642429Y-135513996D01*
X76573700Y-135788184D01*
X76559783Y-136070512D01*
X41127000Y-136070512D01*
X41127000Y-135007298D01*
X77186903Y-135007298D01*
X78000000Y-135820395D01*
X78813097Y-135007298D01*
X78741514Y-134763329D01*
X78486004Y-134642429D01*
X78211816Y-134573700D01*
X77929488Y-134559783D01*
X77649870Y-134601213D01*
X77383708Y-134696397D01*
X77258486Y-134763329D01*
X77186903Y-135007298D01*
X41127000Y-135007298D01*
X41127000Y-130775565D01*
X45214040Y-130775565D01*
X45281020Y-131015656D01*
X45530048Y-131132756D01*
X45797135Y-131199023D01*
X46072017Y-131211910D01*
X46344133Y-131170922D01*
X46603023Y-131077636D01*
X46718980Y-131015656D01*
X46785960Y-130775565D01*
X46000000Y-129989605D01*
X45214040Y-130775565D01*
X41127000Y-130775565D01*
X41127000Y-129882017D01*
X44598090Y-129882017D01*
X44639078Y-130154133D01*
X44732364Y-130413023D01*
X44794344Y-130528980D01*
X45034435Y-130595960D01*
X45820395Y-129810000D01*
X46179605Y-129810000D01*
X46965565Y-130595960D01*
X47205656Y-130528980D01*
X47322756Y-130279952D01*
X47389023Y-130012865D01*
X47401910Y-129737983D01*
X47360922Y-129465867D01*
X47267636Y-129206977D01*
X47205656Y-129091020D01*
X46965565Y-129024040D01*
X46179605Y-129810000D01*
X45820395Y-129810000D01*
X45034435Y-129024040D01*
X44794344Y-129091020D01*
X44677244Y-129340048D01*
X44610977Y-129607135D01*
X44598090Y-129882017D01*
X41127000Y-129882017D01*
X41127000Y-122052408D01*
X44603000Y-122052408D01*
X44603000Y-122327592D01*
X44656686Y-122597490D01*
X44761995Y-122851727D01*
X44914880Y-123080535D01*
X45109465Y-123275120D01*
X45338273Y-123428005D01*
X45415515Y-123460000D01*
X45338273Y-123491995D01*
X45109465Y-123644880D01*
X44914880Y-123839465D01*
X44761995Y-124068273D01*
X44656686Y-124322510D01*
X44603000Y-124592408D01*
X44603000Y-124867592D01*
X44656686Y-125137490D01*
X44761995Y-125391727D01*
X44914880Y-125620535D01*
X45109465Y-125815120D01*
X45338273Y-125968005D01*
X45415515Y-126000000D01*
X45338273Y-126031995D01*
X45109465Y-126184880D01*
X44914880Y-126379465D01*
X44761995Y-126608273D01*
X44656686Y-126862510D01*
X44603000Y-127132408D01*
X44603000Y-127407592D01*
X44656686Y-127677490D01*
X44761995Y-127931727D01*
X44914880Y-128160535D01*
X45109465Y-128355120D01*
X45338273Y-128508005D01*
X45409943Y-128537692D01*
X45396977Y-128542364D01*
X45281020Y-128604344D01*
X45214040Y-128844435D01*
X46000000Y-129630395D01*
X46785960Y-128844435D01*
X46718980Y-128604344D01*
X46583240Y-128540515D01*
X46661727Y-128508005D01*
X46890535Y-128355120D01*
X47085120Y-128160535D01*
X47238005Y-127931727D01*
X47343314Y-127677490D01*
X47397000Y-127407592D01*
X47397000Y-127132408D01*
X47343314Y-126862510D01*
X47238005Y-126608273D01*
X47085120Y-126379465D01*
X46890535Y-126184880D01*
X46661727Y-126031995D01*
X46584485Y-126000000D01*
X46661727Y-125968005D01*
X46890535Y-125815120D01*
X47085120Y-125620535D01*
X47238005Y-125391727D01*
X47343314Y-125137490D01*
X47397000Y-124867592D01*
X47397000Y-124592408D01*
X47343314Y-124322510D01*
X47238005Y-124068273D01*
X47085120Y-123839465D01*
X46890535Y-123644880D01*
X46661727Y-123491995D01*
X46584485Y-123460000D01*
X46661727Y-123428005D01*
X46890535Y-123275120D01*
X47085120Y-123080535D01*
X47238005Y-122851727D01*
X47343314Y-122597490D01*
X47397000Y-122327592D01*
X47397000Y-122052408D01*
X47343314Y-121782510D01*
X47238005Y-121528273D01*
X47085120Y-121299465D01*
X46890535Y-121104880D01*
X46661727Y-120951995D01*
X46407490Y-120846686D01*
X46137592Y-120793000D01*
X45862408Y-120793000D01*
X45592510Y-120846686D01*
X45338273Y-120951995D01*
X45109465Y-121104880D01*
X44914880Y-121299465D01*
X44761995Y-121528273D01*
X44656686Y-121782510D01*
X44603000Y-122052408D01*
X41127000Y-122052408D01*
X41127000Y-114189040D01*
X57608091Y-114189040D01*
X57702930Y-114453881D01*
X57847615Y-114695131D01*
X58036586Y-114903519D01*
X58262580Y-115071037D01*
X58516913Y-115191246D01*
X58650961Y-115231904D01*
X58873000Y-115109915D01*
X58873000Y-113967000D01*
X59127000Y-113967000D01*
X59127000Y-115109915D01*
X59349039Y-115231904D01*
X59483087Y-115191246D01*
X59737420Y-115071037D01*
X59963414Y-114903519D01*
X60152385Y-114695131D01*
X60297070Y-114453881D01*
X60391909Y-114189040D01*
X60270624Y-113967000D01*
X59127000Y-113967000D01*
X58873000Y-113967000D01*
X57729376Y-113967000D01*
X57608091Y-114189040D01*
X41127000Y-114189040D01*
X41127000Y-113490960D01*
X57608091Y-113490960D01*
X57729376Y-113713000D01*
X58873000Y-113713000D01*
X58873000Y-112570085D01*
X59127000Y-112570085D01*
X59127000Y-113713000D01*
X60270624Y-113713000D01*
X60391909Y-113490960D01*
X60297070Y-113226119D01*
X60152385Y-112984869D01*
X59963414Y-112776481D01*
X59737420Y-112608963D01*
X59483087Y-112488754D01*
X59349039Y-112448096D01*
X59127000Y-112570085D01*
X58873000Y-112570085D01*
X58650961Y-112448096D01*
X58516913Y-112488754D01*
X58262580Y-112608963D01*
X58036586Y-112776481D01*
X57847615Y-112984869D01*
X57702930Y-113226119D01*
X57608091Y-113490960D01*
X41127000Y-113490960D01*
X41127000Y-104509040D01*
X57608091Y-104509040D01*
X57702930Y-104773881D01*
X57847615Y-105015131D01*
X58036586Y-105223519D01*
X58262580Y-105391037D01*
X58516913Y-105511246D01*
X58650961Y-105551904D01*
X58873000Y-105429915D01*
X58873000Y-104287000D01*
X59127000Y-104287000D01*
X59127000Y-105429915D01*
X59349039Y-105551904D01*
X59483087Y-105511246D01*
X59737420Y-105391037D01*
X59963414Y-105223519D01*
X60152385Y-105015131D01*
X60297070Y-104773881D01*
X60391909Y-104509040D01*
X60270624Y-104287000D01*
X59127000Y-104287000D01*
X58873000Y-104287000D01*
X57729376Y-104287000D01*
X57608091Y-104509040D01*
X41127000Y-104509040D01*
X41127000Y-103810960D01*
X57608091Y-103810960D01*
X57729376Y-104033000D01*
X58873000Y-104033000D01*
X58873000Y-102890085D01*
X59127000Y-102890085D01*
X59127000Y-104033000D01*
X60270624Y-104033000D01*
X60391909Y-103810960D01*
X60297070Y-103546119D01*
X60152385Y-103304869D01*
X59963414Y-103096481D01*
X59737420Y-102928963D01*
X59483087Y-102808754D01*
X59349039Y-102768096D01*
X59127000Y-102890085D01*
X58873000Y-102890085D01*
X58650961Y-102768096D01*
X58516913Y-102808754D01*
X58262580Y-102928963D01*
X58036586Y-103096481D01*
X57847615Y-103304869D01*
X57702930Y-103546119D01*
X57608091Y-103810960D01*
X41127000Y-103810960D01*
X41127000Y-90018665D01*
X57565000Y-90018665D01*
X57565000Y-90301335D01*
X57620147Y-90578574D01*
X57728320Y-90839727D01*
X57885363Y-91074759D01*
X58085241Y-91274637D01*
X58240001Y-91378044D01*
X58240001Y-91962657D01*
X58236323Y-92000000D01*
X58240000Y-92037333D01*
X58240000Y-92781956D01*
X58085241Y-92885363D01*
X57885363Y-93085241D01*
X57728320Y-93320273D01*
X57620147Y-93581426D01*
X57565000Y-93858665D01*
X57565000Y-94141335D01*
X57620147Y-94418574D01*
X57728320Y-94679727D01*
X57885363Y-94914759D01*
X58085241Y-95114637D01*
X58320273Y-95271680D01*
X58581426Y-95379853D01*
X58858665Y-95435000D01*
X59141335Y-95435000D01*
X59418574Y-95379853D01*
X59679727Y-95271680D01*
X59914759Y-95114637D01*
X60114637Y-94914759D01*
X60271680Y-94679727D01*
X60379853Y-94418574D01*
X60435000Y-94141335D01*
X60435000Y-93858665D01*
X60379853Y-93581426D01*
X60271680Y-93320273D01*
X60114637Y-93085241D01*
X59914759Y-92885363D01*
X59760000Y-92781957D01*
X59760000Y-92760000D01*
X72240000Y-92760000D01*
X72240001Y-100222668D01*
X72236324Y-100260000D01*
X72250998Y-100408985D01*
X72294454Y-100552246D01*
X72365026Y-100684276D01*
X72436201Y-100771002D01*
X72460000Y-100800001D01*
X72488998Y-100823799D01*
X81013628Y-109348430D01*
X80983000Y-109502408D01*
X80983000Y-109777592D01*
X81036686Y-110047490D01*
X81141995Y-110301727D01*
X81294880Y-110530535D01*
X81489465Y-110725120D01*
X81718273Y-110878005D01*
X81795515Y-110910000D01*
X81718273Y-110941995D01*
X81489465Y-111094880D01*
X81294880Y-111289465D01*
X81141995Y-111518273D01*
X81036686Y-111772510D01*
X80983000Y-112042408D01*
X80983000Y-112317592D01*
X81036686Y-112587490D01*
X81141995Y-112841727D01*
X81294880Y-113070535D01*
X81489465Y-113265120D01*
X81718273Y-113418005D01*
X81795515Y-113450000D01*
X81718273Y-113481995D01*
X81489465Y-113634880D01*
X81294880Y-113829465D01*
X81141995Y-114058273D01*
X81036686Y-114312510D01*
X80983000Y-114582408D01*
X80983000Y-114857592D01*
X81013628Y-115011570D01*
X70785199Y-125240000D01*
X59760000Y-125240000D01*
X59760000Y-125218043D01*
X59914759Y-125114637D01*
X60114637Y-124914759D01*
X60271680Y-124679727D01*
X60379853Y-124418574D01*
X60435000Y-124141335D01*
X60435000Y-123858665D01*
X60379853Y-123581426D01*
X60271680Y-123320273D01*
X60114637Y-123085241D01*
X59914759Y-122885363D01*
X59679727Y-122728320D01*
X59418574Y-122620147D01*
X59141335Y-122565000D01*
X58858665Y-122565000D01*
X58581426Y-122620147D01*
X58320273Y-122728320D01*
X58085241Y-122885363D01*
X57885363Y-123085241D01*
X57728320Y-123320273D01*
X57620147Y-123581426D01*
X57565000Y-123858665D01*
X57565000Y-124141335D01*
X57620147Y-124418574D01*
X57728320Y-124679727D01*
X57885363Y-124914759D01*
X58085241Y-125114637D01*
X58240001Y-125218044D01*
X58240001Y-125962657D01*
X58236323Y-126000000D01*
X58240000Y-126037332D01*
X58240000Y-126621956D01*
X58085241Y-126725363D01*
X57885363Y-126925241D01*
X57728320Y-127160273D01*
X57620147Y-127421426D01*
X57565000Y-127698665D01*
X57565000Y-127981335D01*
X57620147Y-128258574D01*
X57728320Y-128519727D01*
X57885363Y-128754759D01*
X58085241Y-128954637D01*
X58320273Y-129111680D01*
X58581426Y-129219853D01*
X58858665Y-129275000D01*
X59141335Y-129275000D01*
X59418574Y-129219853D01*
X59679727Y-129111680D01*
X59914759Y-128954637D01*
X60114637Y-128754759D01*
X60271680Y-128519727D01*
X60379853Y-128258574D01*
X60435000Y-127981335D01*
X60435000Y-127698665D01*
X60379853Y-127421426D01*
X60271680Y-127160273D01*
X60114637Y-126925241D01*
X59949396Y-126760000D01*
X71062678Y-126760000D01*
X71100000Y-126763676D01*
X71137322Y-126760000D01*
X71137333Y-126760000D01*
X71248986Y-126749003D01*
X71392247Y-126705546D01*
X71524276Y-126634974D01*
X71640001Y-126540001D01*
X71663804Y-126510997D01*
X82088430Y-116086372D01*
X82242408Y-116117000D01*
X82517592Y-116117000D01*
X82787490Y-116063314D01*
X83041727Y-115958005D01*
X83270535Y-115805120D01*
X83465120Y-115610535D01*
X83618005Y-115381727D01*
X83723314Y-115127490D01*
X83777000Y-114857592D01*
X83777000Y-114582408D01*
X83723314Y-114312510D01*
X83618005Y-114058273D01*
X83465120Y-113829465D01*
X83270535Y-113634880D01*
X83041727Y-113481995D01*
X82964485Y-113450000D01*
X83041727Y-113418005D01*
X83270535Y-113265120D01*
X83465120Y-113070535D01*
X83618005Y-112841727D01*
X83723314Y-112587490D01*
X83777000Y-112317592D01*
X83777000Y-112042408D01*
X83723314Y-111772510D01*
X83618005Y-111518273D01*
X83465120Y-111289465D01*
X83270535Y-111094880D01*
X83041727Y-110941995D01*
X82964485Y-110910000D01*
X83041727Y-110878005D01*
X83270535Y-110725120D01*
X83465120Y-110530535D01*
X83618005Y-110301727D01*
X83723314Y-110047490D01*
X83777000Y-109777592D01*
X83777000Y-109502408D01*
X83723314Y-109232510D01*
X83618005Y-108978273D01*
X83465120Y-108749465D01*
X83270535Y-108554880D01*
X83041727Y-108401995D01*
X82964485Y-108370000D01*
X83041727Y-108338005D01*
X83270535Y-108185120D01*
X83465120Y-107990535D01*
X83618005Y-107761727D01*
X83723314Y-107507490D01*
X83777000Y-107237592D01*
X83777000Y-106962408D01*
X83723314Y-106692510D01*
X83618005Y-106438273D01*
X83465120Y-106209465D01*
X83270535Y-106014880D01*
X83041727Y-105861995D01*
X82964485Y-105830000D01*
X83041727Y-105798005D01*
X83270535Y-105645120D01*
X83465120Y-105450535D01*
X83618005Y-105221727D01*
X83723314Y-104967490D01*
X83777000Y-104697592D01*
X83777000Y-104422408D01*
X83723314Y-104152510D01*
X83618005Y-103898273D01*
X83465120Y-103669465D01*
X83270535Y-103474880D01*
X83041727Y-103321995D01*
X82964485Y-103290000D01*
X83041727Y-103258005D01*
X83270535Y-103105120D01*
X83465120Y-102910535D01*
X83618005Y-102681727D01*
X83650000Y-102604485D01*
X83681995Y-102681727D01*
X83834880Y-102910535D01*
X84029465Y-103105120D01*
X84258273Y-103258005D01*
X84512510Y-103363314D01*
X84782408Y-103417000D01*
X85057592Y-103417000D01*
X85327490Y-103363314D01*
X85581727Y-103258005D01*
X85810535Y-103105120D01*
X86005120Y-102910535D01*
X86158005Y-102681727D01*
X86190000Y-102604485D01*
X86221995Y-102681727D01*
X86374880Y-102910535D01*
X86569465Y-103105120D01*
X86798273Y-103258005D01*
X87052510Y-103363314D01*
X87322408Y-103417000D01*
X87597592Y-103417000D01*
X87867490Y-103363314D01*
X88121727Y-103258005D01*
X88350535Y-103105120D01*
X88545120Y-102910535D01*
X88698005Y-102681727D01*
X88730000Y-102604485D01*
X88761995Y-102681727D01*
X88914880Y-102910535D01*
X89109465Y-103105120D01*
X89338273Y-103258005D01*
X89592510Y-103363314D01*
X89862408Y-103417000D01*
X90137592Y-103417000D01*
X90407490Y-103363314D01*
X90661727Y-103258005D01*
X90890535Y-103105120D01*
X91085120Y-102910535D01*
X91238005Y-102681727D01*
X91270000Y-102604485D01*
X91301995Y-102681727D01*
X91454880Y-102910535D01*
X91649465Y-103105120D01*
X91878273Y-103258005D01*
X92132510Y-103363314D01*
X92402408Y-103417000D01*
X92677592Y-103417000D01*
X92947490Y-103363314D01*
X93201727Y-103258005D01*
X93430535Y-103105120D01*
X93625120Y-102910535D01*
X93778005Y-102681727D01*
X93810000Y-102604485D01*
X93841995Y-102681727D01*
X93994880Y-102910535D01*
X94189465Y-103105120D01*
X94418273Y-103258005D01*
X94672510Y-103363314D01*
X94942408Y-103417000D01*
X95217592Y-103417000D01*
X95487490Y-103363314D01*
X95741727Y-103258005D01*
X95970535Y-103105120D01*
X96165120Y-102910535D01*
X96318005Y-102681727D01*
X96350000Y-102604485D01*
X96381995Y-102681727D01*
X96534880Y-102910535D01*
X96729465Y-103105120D01*
X96958273Y-103258005D01*
X97035515Y-103290000D01*
X96958273Y-103321995D01*
X96729465Y-103474880D01*
X96534880Y-103669465D01*
X96381995Y-103898273D01*
X96276686Y-104152510D01*
X96223000Y-104422408D01*
X96223000Y-104697592D01*
X96276686Y-104967490D01*
X96381995Y-105221727D01*
X96534880Y-105450535D01*
X96729465Y-105645120D01*
X96958273Y-105798005D01*
X97035515Y-105830000D01*
X96958273Y-105861995D01*
X96729465Y-106014880D01*
X96534880Y-106209465D01*
X96381995Y-106438273D01*
X96276686Y-106692510D01*
X96223000Y-106962408D01*
X96223000Y-107237592D01*
X96276686Y-107507490D01*
X96381995Y-107761727D01*
X96534880Y-107990535D01*
X96729465Y-108185120D01*
X96958273Y-108338005D01*
X97035515Y-108370000D01*
X96958273Y-108401995D01*
X96729465Y-108554880D01*
X96534880Y-108749465D01*
X96381995Y-108978273D01*
X96276686Y-109232510D01*
X96223000Y-109502408D01*
X96223000Y-109777592D01*
X96276686Y-110047490D01*
X96381995Y-110301727D01*
X96534880Y-110530535D01*
X96729465Y-110725120D01*
X96958273Y-110878005D01*
X97035515Y-110910000D01*
X96958273Y-110941995D01*
X96729465Y-111094880D01*
X96534880Y-111289465D01*
X96381995Y-111518273D01*
X96276686Y-111772510D01*
X96223000Y-112042408D01*
X96223000Y-112317592D01*
X96253628Y-112471570D01*
X89488998Y-119236201D01*
X89460000Y-119259999D01*
X89436202Y-119288997D01*
X89436201Y-119288998D01*
X89365026Y-119375724D01*
X89294454Y-119507754D01*
X89250998Y-119651015D01*
X89236324Y-119800000D01*
X89240001Y-119837333D01*
X89240000Y-135050604D01*
X89074759Y-134885363D01*
X88839727Y-134728320D01*
X88578574Y-134620147D01*
X88301335Y-134565000D01*
X88018665Y-134565000D01*
X87741426Y-134620147D01*
X87480273Y-134728320D01*
X87245241Y-134885363D01*
X87045363Y-135085241D01*
X86888320Y-135320273D01*
X86780147Y-135581426D01*
X86725000Y-135858665D01*
X86725000Y-136141335D01*
X86780147Y-136418574D01*
X86888320Y-136679727D01*
X87045363Y-136914759D01*
X87245241Y-137114637D01*
X87480273Y-137271680D01*
X87741426Y-137379853D01*
X88018665Y-137435000D01*
X88301335Y-137435000D01*
X88578574Y-137379853D01*
X88839727Y-137271680D01*
X89074759Y-137114637D01*
X89274637Y-136914759D01*
X89378043Y-136760000D01*
X89962667Y-136760000D01*
X90000000Y-136763677D01*
X90037333Y-136760000D01*
X90781957Y-136760000D01*
X90885363Y-136914759D01*
X91085241Y-137114637D01*
X91320273Y-137271680D01*
X91581426Y-137379853D01*
X91858665Y-137435000D01*
X92141335Y-137435000D01*
X92418574Y-137379853D01*
X92679727Y-137271680D01*
X92914759Y-137114637D01*
X93114637Y-136914759D01*
X93271680Y-136679727D01*
X93379853Y-136418574D01*
X93435000Y-136141335D01*
X93435000Y-135858665D01*
X100725000Y-135858665D01*
X100725000Y-136141335D01*
X100780147Y-136418574D01*
X100888320Y-136679727D01*
X101045363Y-136914759D01*
X101245241Y-137114637D01*
X101480273Y-137271680D01*
X101741426Y-137379853D01*
X102018665Y-137435000D01*
X102301335Y-137435000D01*
X102578574Y-137379853D01*
X102839727Y-137271680D01*
X103074759Y-137114637D01*
X103182098Y-137007298D01*
X124186903Y-137007298D01*
X125000000Y-137820395D01*
X125813097Y-137007298D01*
X125741514Y-136763329D01*
X125486004Y-136642429D01*
X125211816Y-136573700D01*
X124929488Y-136559783D01*
X124649870Y-136601213D01*
X124383708Y-136696397D01*
X124258486Y-136763329D01*
X124186903Y-137007298D01*
X103182098Y-137007298D01*
X103274637Y-136914759D01*
X103431680Y-136679727D01*
X103539853Y-136418574D01*
X103595000Y-136141335D01*
X103595000Y-135858665D01*
X103539853Y-135581426D01*
X103431680Y-135320273D01*
X103274637Y-135085241D01*
X103074759Y-134885363D01*
X102839727Y-134728320D01*
X102578574Y-134620147D01*
X102301335Y-134565000D01*
X102018665Y-134565000D01*
X101741426Y-134620147D01*
X101480273Y-134728320D01*
X101245241Y-134885363D01*
X101045363Y-135085241D01*
X100888320Y-135320273D01*
X100780147Y-135581426D01*
X100725000Y-135858665D01*
X93435000Y-135858665D01*
X93379853Y-135581426D01*
X93271680Y-135320273D01*
X93114637Y-135085241D01*
X92914759Y-134885363D01*
X92679727Y-134728320D01*
X92418574Y-134620147D01*
X92141335Y-134565000D01*
X91858665Y-134565000D01*
X91581426Y-134620147D01*
X91320273Y-134728320D01*
X91085241Y-134885363D01*
X90885363Y-135085241D01*
X90781957Y-135240000D01*
X90760000Y-135240000D01*
X90760000Y-120114801D01*
X96223000Y-114651802D01*
X96223000Y-114857592D01*
X96276686Y-115127490D01*
X96381995Y-115381727D01*
X96534880Y-115610535D01*
X96729465Y-115805120D01*
X96958273Y-115958005D01*
X97212510Y-116063314D01*
X97482408Y-116117000D01*
X97757592Y-116117000D01*
X98027490Y-116063314D01*
X98281727Y-115958005D01*
X98510535Y-115805120D01*
X98705120Y-115610535D01*
X98858005Y-115381727D01*
X98963314Y-115127490D01*
X99017000Y-114857592D01*
X99017000Y-114582408D01*
X98963314Y-114312510D01*
X98858005Y-114058273D01*
X98705120Y-113829465D01*
X98510535Y-113634880D01*
X98281727Y-113481995D01*
X98204485Y-113450000D01*
X98281727Y-113418005D01*
X98510535Y-113265120D01*
X98705120Y-113070535D01*
X98858005Y-112841727D01*
X98963314Y-112587490D01*
X99017000Y-112317592D01*
X99017000Y-112042408D01*
X98963314Y-111772510D01*
X98858005Y-111518273D01*
X98705120Y-111289465D01*
X98510535Y-111094880D01*
X98281727Y-110941995D01*
X98204485Y-110910000D01*
X98281727Y-110878005D01*
X98510535Y-110725120D01*
X98705120Y-110530535D01*
X98858005Y-110301727D01*
X98963314Y-110047490D01*
X99017000Y-109777592D01*
X99017000Y-109571801D01*
X115956201Y-126511003D01*
X115979999Y-126540001D01*
X116095724Y-126634974D01*
X116227753Y-126705546D01*
X116371014Y-126749003D01*
X116482667Y-126760000D01*
X116482676Y-126760000D01*
X116519999Y-126763676D01*
X116557322Y-126760000D01*
X124050604Y-126760000D01*
X123885363Y-126925241D01*
X123728320Y-127160273D01*
X123620147Y-127421426D01*
X123565000Y-127698665D01*
X123565000Y-127981335D01*
X123620147Y-128258574D01*
X123728320Y-128519727D01*
X123885363Y-128754759D01*
X124085241Y-128954637D01*
X124320273Y-129111680D01*
X124581426Y-129219853D01*
X124858665Y-129275000D01*
X125141335Y-129275000D01*
X125418574Y-129219853D01*
X125679727Y-129111680D01*
X125914759Y-128954637D01*
X126114637Y-128754759D01*
X126271680Y-128519727D01*
X126379853Y-128258574D01*
X126435000Y-127981335D01*
X126435000Y-127698665D01*
X126379853Y-127421426D01*
X126271680Y-127160273D01*
X126114637Y-126925241D01*
X125914759Y-126725363D01*
X125760000Y-126621957D01*
X125760000Y-126037332D01*
X125763677Y-126000000D01*
X125760000Y-125962667D01*
X125760000Y-125218043D01*
X125914759Y-125114637D01*
X126114637Y-124914759D01*
X126271680Y-124679727D01*
X126307848Y-124592408D01*
X132603000Y-124592408D01*
X132603000Y-124867592D01*
X132656686Y-125137490D01*
X132761995Y-125391727D01*
X132914880Y-125620535D01*
X133109465Y-125815120D01*
X133338273Y-125968005D01*
X133415515Y-126000000D01*
X133338273Y-126031995D01*
X133109465Y-126184880D01*
X132914880Y-126379465D01*
X132761995Y-126608273D01*
X132656686Y-126862510D01*
X132603000Y-127132408D01*
X132603000Y-127407592D01*
X132656686Y-127677490D01*
X132761995Y-127931727D01*
X132914880Y-128160535D01*
X133109465Y-128355120D01*
X133338273Y-128508005D01*
X133415515Y-128540000D01*
X133338273Y-128571995D01*
X133109465Y-128724880D01*
X132914880Y-128919465D01*
X132761995Y-129148273D01*
X132656686Y-129402510D01*
X132603000Y-129672408D01*
X132603000Y-129947592D01*
X132656686Y-130217490D01*
X132761995Y-130471727D01*
X132914880Y-130700535D01*
X133109465Y-130895120D01*
X133338273Y-131048005D01*
X133592510Y-131153314D01*
X133862408Y-131207000D01*
X134137592Y-131207000D01*
X134407490Y-131153314D01*
X134661727Y-131048005D01*
X134890535Y-130895120D01*
X135085120Y-130700535D01*
X135238005Y-130471727D01*
X135343314Y-130217490D01*
X135397000Y-129947592D01*
X135397000Y-129672408D01*
X135343314Y-129402510D01*
X135238005Y-129148273D01*
X135085120Y-128919465D01*
X134890535Y-128724880D01*
X134661727Y-128571995D01*
X134584485Y-128540000D01*
X134661727Y-128508005D01*
X134890535Y-128355120D01*
X135085120Y-128160535D01*
X135238005Y-127931727D01*
X135343314Y-127677490D01*
X135397000Y-127407592D01*
X135397000Y-127132408D01*
X135343314Y-126862510D01*
X135238005Y-126608273D01*
X135085120Y-126379465D01*
X134890535Y-126184880D01*
X134661727Y-126031995D01*
X134584485Y-126000000D01*
X134661727Y-125968005D01*
X134890535Y-125815120D01*
X135085120Y-125620535D01*
X135238005Y-125391727D01*
X135343314Y-125137490D01*
X135397000Y-124867592D01*
X135397000Y-124592408D01*
X135343314Y-124322510D01*
X135238005Y-124068273D01*
X135085120Y-123839465D01*
X134890535Y-123644880D01*
X134661727Y-123491995D01*
X134590057Y-123462308D01*
X134603023Y-123457636D01*
X134718980Y-123395656D01*
X134785960Y-123155565D01*
X134000000Y-122369605D01*
X133214040Y-123155565D01*
X133281020Y-123395656D01*
X133416760Y-123459485D01*
X133338273Y-123491995D01*
X133109465Y-123644880D01*
X132914880Y-123839465D01*
X132761995Y-124068273D01*
X132656686Y-124322510D01*
X132603000Y-124592408D01*
X126307848Y-124592408D01*
X126379853Y-124418574D01*
X126435000Y-124141335D01*
X126435000Y-123858665D01*
X126379853Y-123581426D01*
X126271680Y-123320273D01*
X126114637Y-123085241D01*
X125914759Y-122885363D01*
X125679727Y-122728320D01*
X125418574Y-122620147D01*
X125141335Y-122565000D01*
X124858665Y-122565000D01*
X124581426Y-122620147D01*
X124320273Y-122728320D01*
X124085241Y-122885363D01*
X123885363Y-123085241D01*
X123728320Y-123320273D01*
X123620147Y-123581426D01*
X123565000Y-123858665D01*
X123565000Y-124141335D01*
X123620147Y-124418574D01*
X123728320Y-124679727D01*
X123885363Y-124914759D01*
X124085241Y-125114637D01*
X124240001Y-125218044D01*
X124240001Y-125240000D01*
X116834802Y-125240000D01*
X113856819Y-122262017D01*
X132598090Y-122262017D01*
X132639078Y-122534133D01*
X132732364Y-122793023D01*
X132794344Y-122908980D01*
X133034435Y-122975960D01*
X133820395Y-122190000D01*
X134179605Y-122190000D01*
X134965565Y-122975960D01*
X135205656Y-122908980D01*
X135322756Y-122659952D01*
X135389023Y-122392865D01*
X135401910Y-122117983D01*
X135360922Y-121845867D01*
X135267636Y-121586977D01*
X135205656Y-121471020D01*
X134965565Y-121404040D01*
X134179605Y-122190000D01*
X133820395Y-122190000D01*
X133034435Y-121404040D01*
X132794344Y-121471020D01*
X132677244Y-121720048D01*
X132610977Y-121987135D01*
X132598090Y-122262017D01*
X113856819Y-122262017D01*
X112819237Y-121224435D01*
X133214040Y-121224435D01*
X134000000Y-122010395D01*
X134785960Y-121224435D01*
X134718980Y-120984344D01*
X134469952Y-120867244D01*
X134202865Y-120800977D01*
X133927983Y-120788090D01*
X133655867Y-120829078D01*
X133396977Y-120922364D01*
X133281020Y-120984344D01*
X133214040Y-121224435D01*
X112819237Y-121224435D01*
X105293467Y-113698665D01*
X123565000Y-113698665D01*
X123565000Y-113981335D01*
X123620147Y-114258574D01*
X123728320Y-114519727D01*
X123885363Y-114754759D01*
X124085241Y-114954637D01*
X124320273Y-115111680D01*
X124581426Y-115219853D01*
X124858665Y-115275000D01*
X125141335Y-115275000D01*
X125418574Y-115219853D01*
X125679727Y-115111680D01*
X125914759Y-114954637D01*
X126114637Y-114754759D01*
X126271680Y-114519727D01*
X126379853Y-114258574D01*
X126435000Y-113981335D01*
X126435000Y-113698665D01*
X126379853Y-113421426D01*
X126271680Y-113160273D01*
X126114637Y-112925241D01*
X125914759Y-112725363D01*
X125679727Y-112568320D01*
X125418574Y-112460147D01*
X125141335Y-112405000D01*
X124858665Y-112405000D01*
X124581426Y-112460147D01*
X124320273Y-112568320D01*
X124085241Y-112725363D01*
X123885363Y-112925241D01*
X123728320Y-113160273D01*
X123620147Y-113421426D01*
X123565000Y-113698665D01*
X105293467Y-113698665D01*
X99587504Y-107992702D01*
X124186903Y-107992702D01*
X124258486Y-108236671D01*
X124513996Y-108357571D01*
X124788184Y-108426300D01*
X125070512Y-108440217D01*
X125350130Y-108398787D01*
X125616292Y-108303603D01*
X125741514Y-108236671D01*
X125813097Y-107992702D01*
X125000000Y-107179605D01*
X124186903Y-107992702D01*
X99587504Y-107992702D01*
X98986372Y-107391571D01*
X99017000Y-107237592D01*
X99017000Y-107070512D01*
X123559783Y-107070512D01*
X123601213Y-107350130D01*
X123696397Y-107616292D01*
X123763329Y-107741514D01*
X124007298Y-107813097D01*
X124820395Y-107000000D01*
X125179605Y-107000000D01*
X125992702Y-107813097D01*
X126236671Y-107741514D01*
X126357571Y-107486004D01*
X126426300Y-107211816D01*
X126440217Y-106929488D01*
X126398787Y-106649870D01*
X126303603Y-106383708D01*
X126236671Y-106258486D01*
X125992702Y-106186903D01*
X125179605Y-107000000D01*
X124820395Y-107000000D01*
X124007298Y-106186903D01*
X123763329Y-106258486D01*
X123642429Y-106513996D01*
X123573700Y-106788184D01*
X123559783Y-107070512D01*
X99017000Y-107070512D01*
X99017000Y-106962408D01*
X98963314Y-106692510D01*
X98858005Y-106438273D01*
X98705120Y-106209465D01*
X98510535Y-106014880D01*
X98499188Y-106007298D01*
X124186903Y-106007298D01*
X125000000Y-106820395D01*
X125813097Y-106007298D01*
X125741514Y-105763329D01*
X125486004Y-105642429D01*
X125211816Y-105573700D01*
X124929488Y-105559783D01*
X124649870Y-105601213D01*
X124383708Y-105696397D01*
X124258486Y-105763329D01*
X124186903Y-106007298D01*
X98499188Y-106007298D01*
X98281727Y-105861995D01*
X98204485Y-105830000D01*
X98281727Y-105798005D01*
X98510535Y-105645120D01*
X98705120Y-105450535D01*
X98858005Y-105221727D01*
X98963314Y-104967490D01*
X99017000Y-104697592D01*
X99017000Y-104422408D01*
X98963314Y-104152510D01*
X98858005Y-103898273D01*
X98705120Y-103669465D01*
X98510535Y-103474880D01*
X98281727Y-103321995D01*
X98204485Y-103290000D01*
X98281727Y-103258005D01*
X98510535Y-103105120D01*
X98705120Y-102910535D01*
X98858005Y-102681727D01*
X98963314Y-102427490D01*
X99017000Y-102157592D01*
X99017000Y-101882408D01*
X98986372Y-101728429D01*
X104954802Y-95760000D01*
X124050604Y-95760000D01*
X123885363Y-95925241D01*
X123728320Y-96160273D01*
X123620147Y-96421426D01*
X123565000Y-96698665D01*
X123565000Y-96981335D01*
X123620147Y-97258574D01*
X123728320Y-97519727D01*
X123885363Y-97754759D01*
X124085241Y-97954637D01*
X124320273Y-98111680D01*
X124581426Y-98219853D01*
X124858665Y-98275000D01*
X125141335Y-98275000D01*
X125418574Y-98219853D01*
X125679727Y-98111680D01*
X125914759Y-97954637D01*
X126114637Y-97754759D01*
X126271680Y-97519727D01*
X126379853Y-97258574D01*
X126435000Y-96981335D01*
X126435000Y-96698665D01*
X126379853Y-96421426D01*
X126271680Y-96160273D01*
X126114637Y-95925241D01*
X125914759Y-95725363D01*
X125760000Y-95621957D01*
X125760000Y-95037333D01*
X125763677Y-95000000D01*
X125760000Y-94962667D01*
X125760000Y-94218043D01*
X125914759Y-94114637D01*
X126114637Y-93914759D01*
X126271680Y-93679727D01*
X126379853Y-93418574D01*
X126435000Y-93141335D01*
X126435000Y-92858665D01*
X126379853Y-92581426D01*
X126271680Y-92320273D01*
X126114637Y-92085241D01*
X125914759Y-91885363D01*
X125679727Y-91728320D01*
X125418574Y-91620147D01*
X125141335Y-91565000D01*
X124858665Y-91565000D01*
X124581426Y-91620147D01*
X124320273Y-91728320D01*
X124085241Y-91885363D01*
X123885363Y-92085241D01*
X123728320Y-92320273D01*
X123620147Y-92581426D01*
X123565000Y-92858665D01*
X123565000Y-93141335D01*
X123620147Y-93418574D01*
X123728320Y-93679727D01*
X123885363Y-93914759D01*
X124085241Y-94114637D01*
X124240001Y-94218044D01*
X124240001Y-94240000D01*
X104677322Y-94240000D01*
X104639999Y-94236324D01*
X104602676Y-94240000D01*
X104602667Y-94240000D01*
X104491014Y-94250997D01*
X104347753Y-94294454D01*
X104215724Y-94365026D01*
X104099999Y-94459999D01*
X104076201Y-94488997D01*
X99017000Y-99548199D01*
X99017000Y-99342408D01*
X98963314Y-99072510D01*
X98858005Y-98818273D01*
X98705120Y-98589465D01*
X98510535Y-98394880D01*
X98281727Y-98241995D01*
X98204485Y-98210000D01*
X98281727Y-98178005D01*
X98510535Y-98025120D01*
X98705120Y-97830535D01*
X98858005Y-97601727D01*
X98963314Y-97347490D01*
X99017000Y-97077592D01*
X99017000Y-96802408D01*
X98963314Y-96532510D01*
X98858005Y-96278273D01*
X98705120Y-96049465D01*
X98510535Y-95854880D01*
X98281727Y-95701995D01*
X98204485Y-95670000D01*
X98281727Y-95638005D01*
X98510535Y-95485120D01*
X98705120Y-95290535D01*
X98858005Y-95061727D01*
X98963314Y-94807490D01*
X99017000Y-94537592D01*
X99017000Y-94262408D01*
X98963314Y-93992510D01*
X98858005Y-93738273D01*
X98705120Y-93509465D01*
X98510535Y-93314880D01*
X98281727Y-93161995D01*
X98210057Y-93132308D01*
X98223023Y-93127636D01*
X98338980Y-93065656D01*
X98405960Y-92825565D01*
X97620000Y-92039605D01*
X96834040Y-92825565D01*
X96901020Y-93065656D01*
X97036760Y-93129485D01*
X96958273Y-93161995D01*
X96729465Y-93314880D01*
X96534880Y-93509465D01*
X96381995Y-93738273D01*
X96276686Y-93992510D01*
X96223000Y-94262408D01*
X96223000Y-94537592D01*
X96276686Y-94807490D01*
X96381995Y-95061727D01*
X96534880Y-95290535D01*
X96729465Y-95485120D01*
X96958273Y-95638005D01*
X97035515Y-95670000D01*
X96958273Y-95701995D01*
X96729465Y-95854880D01*
X96534880Y-96049465D01*
X96381995Y-96278273D01*
X96276686Y-96532510D01*
X96223000Y-96802408D01*
X96223000Y-97077592D01*
X96276686Y-97347490D01*
X96381995Y-97601727D01*
X96534880Y-97830535D01*
X96729465Y-98025120D01*
X96958273Y-98178005D01*
X97035515Y-98210000D01*
X96958273Y-98241995D01*
X96729465Y-98394880D01*
X96534880Y-98589465D01*
X96381995Y-98818273D01*
X96276686Y-99072510D01*
X96223000Y-99342408D01*
X96223000Y-99617592D01*
X96276686Y-99887490D01*
X96381995Y-100141727D01*
X96534880Y-100370535D01*
X96729465Y-100565120D01*
X96958273Y-100718005D01*
X97035515Y-100750000D01*
X96958273Y-100781995D01*
X96729465Y-100934880D01*
X96534880Y-101129465D01*
X96381995Y-101358273D01*
X96350000Y-101435515D01*
X96318005Y-101358273D01*
X96165120Y-101129465D01*
X95970535Y-100934880D01*
X95741727Y-100781995D01*
X95487490Y-100676686D01*
X95217592Y-100623000D01*
X94942408Y-100623000D01*
X94672510Y-100676686D01*
X94418273Y-100781995D01*
X94189465Y-100934880D01*
X93994880Y-101129465D01*
X93841995Y-101358273D01*
X93810000Y-101435515D01*
X93778005Y-101358273D01*
X93625120Y-101129465D01*
X93430535Y-100934880D01*
X93201727Y-100781995D01*
X92947490Y-100676686D01*
X92677592Y-100623000D01*
X92402408Y-100623000D01*
X92132510Y-100676686D01*
X91878273Y-100781995D01*
X91649465Y-100934880D01*
X91454880Y-101129465D01*
X91301995Y-101358273D01*
X91270000Y-101435515D01*
X91238005Y-101358273D01*
X91085120Y-101129465D01*
X90890535Y-100934880D01*
X90661727Y-100781995D01*
X90407490Y-100676686D01*
X90137592Y-100623000D01*
X89862408Y-100623000D01*
X89592510Y-100676686D01*
X89338273Y-100781995D01*
X89109465Y-100934880D01*
X88914880Y-101129465D01*
X88761995Y-101358273D01*
X88730000Y-101435515D01*
X88698005Y-101358273D01*
X88545120Y-101129465D01*
X88350535Y-100934880D01*
X88121727Y-100781995D01*
X87867490Y-100676686D01*
X87597592Y-100623000D01*
X87322408Y-100623000D01*
X87052510Y-100676686D01*
X86798273Y-100781995D01*
X86569465Y-100934880D01*
X86374880Y-101129465D01*
X86221995Y-101358273D01*
X86190000Y-101435515D01*
X86158005Y-101358273D01*
X86005120Y-101129465D01*
X85810535Y-100934880D01*
X85581727Y-100781995D01*
X85327490Y-100676686D01*
X85057592Y-100623000D01*
X84782408Y-100623000D01*
X84512510Y-100676686D01*
X84258273Y-100781995D01*
X84029465Y-100934880D01*
X83834880Y-101129465D01*
X83681995Y-101358273D01*
X83650000Y-101435515D01*
X83618005Y-101358273D01*
X83465120Y-101129465D01*
X83270535Y-100934880D01*
X83041727Y-100781995D01*
X82964485Y-100750000D01*
X83041727Y-100718005D01*
X83270535Y-100565120D01*
X83465120Y-100370535D01*
X83618005Y-100141727D01*
X83723314Y-99887490D01*
X83777000Y-99617592D01*
X83777000Y-99342408D01*
X83723314Y-99072510D01*
X83618005Y-98818273D01*
X83465120Y-98589465D01*
X83270535Y-98394880D01*
X83041727Y-98241995D01*
X82964485Y-98210000D01*
X83041727Y-98178005D01*
X83270535Y-98025120D01*
X83465120Y-97830535D01*
X83618005Y-97601727D01*
X83723314Y-97347490D01*
X83777000Y-97077592D01*
X83777000Y-96802408D01*
X83723314Y-96532510D01*
X83618005Y-96278273D01*
X83465120Y-96049465D01*
X83270535Y-95854880D01*
X83041727Y-95701995D01*
X82964485Y-95670000D01*
X83041727Y-95638005D01*
X83270535Y-95485120D01*
X83465120Y-95290535D01*
X83618005Y-95061727D01*
X83723314Y-94807490D01*
X83777000Y-94537592D01*
X83777000Y-94262408D01*
X83723314Y-93992510D01*
X83618005Y-93738273D01*
X83465120Y-93509465D01*
X83270535Y-93314880D01*
X83041727Y-93161995D01*
X82964485Y-93130000D01*
X83041727Y-93098005D01*
X83270535Y-92945120D01*
X83465120Y-92750535D01*
X83618005Y-92521727D01*
X83723314Y-92267490D01*
X83777000Y-91997592D01*
X83777000Y-91932017D01*
X96218090Y-91932017D01*
X96259078Y-92204133D01*
X96352364Y-92463023D01*
X96414344Y-92578980D01*
X96654435Y-92645960D01*
X97440395Y-91860000D01*
X97799605Y-91860000D01*
X98585565Y-92645960D01*
X98825656Y-92578980D01*
X98942756Y-92329952D01*
X99009023Y-92062865D01*
X99021910Y-91787983D01*
X98980922Y-91515867D01*
X98887636Y-91256977D01*
X98825656Y-91141020D01*
X98585565Y-91074040D01*
X97799605Y-91860000D01*
X97440395Y-91860000D01*
X96654435Y-91074040D01*
X96414344Y-91141020D01*
X96297244Y-91390048D01*
X96230977Y-91657135D01*
X96218090Y-91932017D01*
X83777000Y-91932017D01*
X83777000Y-91722408D01*
X83723314Y-91452510D01*
X83618005Y-91198273D01*
X83465120Y-90969465D01*
X83270535Y-90774880D01*
X83041727Y-90621995D01*
X82964485Y-90590000D01*
X83041727Y-90558005D01*
X83270535Y-90405120D01*
X83465120Y-90210535D01*
X83618005Y-89981727D01*
X83723314Y-89727490D01*
X83777000Y-89457592D01*
X83777000Y-89182408D01*
X83723314Y-88912510D01*
X83618005Y-88658273D01*
X83465120Y-88429465D01*
X83270535Y-88234880D01*
X83041727Y-88081995D01*
X82964485Y-88050000D01*
X83041727Y-88018005D01*
X83270535Y-87865120D01*
X83465120Y-87670535D01*
X83618005Y-87441727D01*
X83723314Y-87187490D01*
X83777000Y-86917592D01*
X83777000Y-86642408D01*
X83723314Y-86372510D01*
X83618005Y-86118273D01*
X83465120Y-85889465D01*
X83270535Y-85694880D01*
X83041727Y-85541995D01*
X82964485Y-85510000D01*
X83041727Y-85478005D01*
X83270535Y-85325120D01*
X83465120Y-85130535D01*
X83618005Y-84901727D01*
X83723314Y-84647490D01*
X83777000Y-84377592D01*
X83777000Y-84102408D01*
X83723314Y-83832510D01*
X83618005Y-83578273D01*
X83465120Y-83349465D01*
X83270535Y-83154880D01*
X83041727Y-83001995D01*
X82964485Y-82970000D01*
X83041727Y-82938005D01*
X83270535Y-82785120D01*
X83465120Y-82590535D01*
X83618005Y-82361727D01*
X83723314Y-82107490D01*
X83777000Y-81837592D01*
X83777000Y-81562408D01*
X83723314Y-81292510D01*
X83618005Y-81038273D01*
X83465120Y-80809465D01*
X83270535Y-80614880D01*
X83041727Y-80461995D01*
X82964485Y-80430000D01*
X83041727Y-80398005D01*
X83270535Y-80245120D01*
X83465120Y-80050535D01*
X83618005Y-79821727D01*
X83723314Y-79567490D01*
X83777000Y-79297592D01*
X83777000Y-79022408D01*
X83723314Y-78752510D01*
X83618005Y-78498273D01*
X83465120Y-78269465D01*
X83270535Y-78074880D01*
X83041727Y-77921995D01*
X82964485Y-77890000D01*
X83041727Y-77858005D01*
X83270535Y-77705120D01*
X83465120Y-77510535D01*
X83618005Y-77281727D01*
X83723314Y-77027490D01*
X83777000Y-76757592D01*
X83777000Y-76482408D01*
X83723314Y-76212510D01*
X83618005Y-75958273D01*
X83465120Y-75729465D01*
X83270535Y-75534880D01*
X83041727Y-75381995D01*
X82964485Y-75350000D01*
X83041727Y-75318005D01*
X83270535Y-75165120D01*
X83465120Y-74970535D01*
X83618005Y-74741727D01*
X83723314Y-74487490D01*
X83777000Y-74217592D01*
X83777000Y-73942408D01*
X83723314Y-73672510D01*
X83618005Y-73418273D01*
X83465120Y-73189465D01*
X83270535Y-72994880D01*
X83041727Y-72841995D01*
X82964485Y-72810000D01*
X83041727Y-72778005D01*
X83270535Y-72625120D01*
X83465120Y-72430535D01*
X83618005Y-72201727D01*
X83723314Y-71947490D01*
X83777000Y-71677592D01*
X83777000Y-71402408D01*
X83723314Y-71132510D01*
X83618005Y-70878273D01*
X83465120Y-70649465D01*
X83270535Y-70454880D01*
X83041727Y-70301995D01*
X82964485Y-70270000D01*
X83041727Y-70238005D01*
X83270535Y-70085120D01*
X83465120Y-69890535D01*
X83618005Y-69661727D01*
X83723314Y-69407490D01*
X83777000Y-69137592D01*
X83777000Y-68862408D01*
X83723314Y-68592510D01*
X83618005Y-68338273D01*
X83465120Y-68109465D01*
X83270535Y-67914880D01*
X83041727Y-67761995D01*
X82964485Y-67730000D01*
X83041727Y-67698005D01*
X83270535Y-67545120D01*
X83465120Y-67350535D01*
X83618005Y-67121727D01*
X83723314Y-66867490D01*
X83777000Y-66597592D01*
X83777000Y-66322408D01*
X83723314Y-66052510D01*
X83618005Y-65798273D01*
X83465120Y-65569465D01*
X83270535Y-65374880D01*
X83041727Y-65221995D01*
X82964485Y-65190000D01*
X83041727Y-65158005D01*
X83270535Y-65005120D01*
X83465120Y-64810535D01*
X83618005Y-64581727D01*
X83723314Y-64327490D01*
X83777000Y-64057592D01*
X83777000Y-63782408D01*
X83723314Y-63512510D01*
X83618005Y-63258273D01*
X83465120Y-63029465D01*
X83270535Y-62834880D01*
X83041727Y-62681995D01*
X82964485Y-62650000D01*
X83041727Y-62618005D01*
X83199763Y-62512408D01*
X83523000Y-62512408D01*
X83523000Y-62787592D01*
X83576686Y-63057490D01*
X83681995Y-63311727D01*
X83834880Y-63540535D01*
X84029465Y-63735120D01*
X84258273Y-63888005D01*
X84335515Y-63920000D01*
X84258273Y-63951995D01*
X84029465Y-64104880D01*
X83834880Y-64299465D01*
X83681995Y-64528273D01*
X83576686Y-64782510D01*
X83523000Y-65052408D01*
X83523000Y-65327592D01*
X83576686Y-65597490D01*
X83681995Y-65851727D01*
X83834880Y-66080535D01*
X84029465Y-66275120D01*
X84258273Y-66428005D01*
X84335515Y-66460000D01*
X84258273Y-66491995D01*
X84029465Y-66644880D01*
X83834880Y-66839465D01*
X83681995Y-67068273D01*
X83576686Y-67322510D01*
X83523000Y-67592408D01*
X83523000Y-67867592D01*
X83576686Y-68137490D01*
X83681995Y-68391727D01*
X83834880Y-68620535D01*
X84029465Y-68815120D01*
X84258273Y-68968005D01*
X84335515Y-69000000D01*
X84258273Y-69031995D01*
X84029465Y-69184880D01*
X83834880Y-69379465D01*
X83681995Y-69608273D01*
X83576686Y-69862510D01*
X83523000Y-70132408D01*
X83523000Y-70407592D01*
X83576686Y-70677490D01*
X83681995Y-70931727D01*
X83834880Y-71160535D01*
X84029465Y-71355120D01*
X84258273Y-71508005D01*
X84335515Y-71540000D01*
X84258273Y-71571995D01*
X84029465Y-71724880D01*
X83834880Y-71919465D01*
X83681995Y-72148273D01*
X83576686Y-72402510D01*
X83523000Y-72672408D01*
X83523000Y-72947592D01*
X83576686Y-73217490D01*
X83681995Y-73471727D01*
X83834880Y-73700535D01*
X84029465Y-73895120D01*
X84258273Y-74048005D01*
X84512510Y-74153314D01*
X84782408Y-74207000D01*
X85057592Y-74207000D01*
X85327490Y-74153314D01*
X85581727Y-74048005D01*
X85810535Y-73895120D01*
X86005120Y-73700535D01*
X86158005Y-73471727D01*
X86263314Y-73217490D01*
X86317000Y-72947592D01*
X86317000Y-72672408D01*
X86263314Y-72402510D01*
X86158005Y-72148273D01*
X86005120Y-71919465D01*
X85810535Y-71724880D01*
X85581727Y-71571995D01*
X85504485Y-71540000D01*
X85581727Y-71508005D01*
X85810535Y-71355120D01*
X86005120Y-71160535D01*
X86158005Y-70931727D01*
X86263314Y-70677490D01*
X86317000Y-70407592D01*
X86317000Y-70132408D01*
X86263314Y-69862510D01*
X86158005Y-69608273D01*
X86005120Y-69379465D01*
X85810535Y-69184880D01*
X85581727Y-69031995D01*
X85504485Y-69000000D01*
X85581727Y-68968005D01*
X85810535Y-68815120D01*
X86005120Y-68620535D01*
X86158005Y-68391727D01*
X86263314Y-68137490D01*
X86317000Y-67867592D01*
X86317000Y-67592408D01*
X86263314Y-67322510D01*
X86158005Y-67068273D01*
X86005120Y-66839465D01*
X85810535Y-66644880D01*
X85581727Y-66491995D01*
X85504485Y-66460000D01*
X85581727Y-66428005D01*
X85810535Y-66275120D01*
X86005120Y-66080535D01*
X86158005Y-65851727D01*
X86263314Y-65597490D01*
X86317000Y-65327592D01*
X86317000Y-65052408D01*
X86263314Y-64782510D01*
X86158005Y-64528273D01*
X86005120Y-64299465D01*
X85810535Y-64104880D01*
X85581727Y-63951995D01*
X85504485Y-63920000D01*
X85581727Y-63888005D01*
X85810535Y-63735120D01*
X86005120Y-63540535D01*
X86158005Y-63311727D01*
X86263314Y-63057490D01*
X86317000Y-62787592D01*
X86317000Y-62512408D01*
X86263314Y-62242510D01*
X86158005Y-61988273D01*
X86005120Y-61759465D01*
X85810535Y-61564880D01*
X85581727Y-61411995D01*
X85327490Y-61306686D01*
X85057592Y-61253000D01*
X84782408Y-61253000D01*
X84512510Y-61306686D01*
X84258273Y-61411995D01*
X84029465Y-61564880D01*
X83834880Y-61759465D01*
X83681995Y-61988273D01*
X83576686Y-62242510D01*
X83523000Y-62512408D01*
X83199763Y-62512408D01*
X83270535Y-62465120D01*
X83465120Y-62270535D01*
X83618005Y-62041727D01*
X83723314Y-61787490D01*
X83777000Y-61517592D01*
X83777000Y-61242408D01*
X96223000Y-61242408D01*
X96223000Y-61517592D01*
X96276686Y-61787490D01*
X96381995Y-62041727D01*
X96534880Y-62270535D01*
X96729465Y-62465120D01*
X96958273Y-62618005D01*
X97035515Y-62650000D01*
X96958273Y-62681995D01*
X96729465Y-62834880D01*
X96534880Y-63029465D01*
X96381995Y-63258273D01*
X96276686Y-63512510D01*
X96223000Y-63782408D01*
X96223000Y-64057592D01*
X96276686Y-64327490D01*
X96381995Y-64581727D01*
X96534880Y-64810535D01*
X96729465Y-65005120D01*
X96958273Y-65158005D01*
X97035515Y-65190000D01*
X96958273Y-65221995D01*
X96729465Y-65374880D01*
X96534880Y-65569465D01*
X96381995Y-65798273D01*
X96276686Y-66052510D01*
X96223000Y-66322408D01*
X96223000Y-66597592D01*
X96276686Y-66867490D01*
X96381995Y-67121727D01*
X96534880Y-67350535D01*
X96729465Y-67545120D01*
X96958273Y-67698005D01*
X97035515Y-67730000D01*
X96958273Y-67761995D01*
X96729465Y-67914880D01*
X96534880Y-68109465D01*
X96381995Y-68338273D01*
X96276686Y-68592510D01*
X96223000Y-68862408D01*
X96223000Y-69137592D01*
X96276686Y-69407490D01*
X96381995Y-69661727D01*
X96534880Y-69890535D01*
X96729465Y-70085120D01*
X96958273Y-70238005D01*
X97035515Y-70270000D01*
X96958273Y-70301995D01*
X96729465Y-70454880D01*
X96534880Y-70649465D01*
X96381995Y-70878273D01*
X96276686Y-71132510D01*
X96223000Y-71402408D01*
X96223000Y-71677592D01*
X96276686Y-71947490D01*
X96381995Y-72201727D01*
X96534880Y-72430535D01*
X96729465Y-72625120D01*
X96958273Y-72778005D01*
X97035515Y-72810000D01*
X96958273Y-72841995D01*
X96729465Y-72994880D01*
X96534880Y-73189465D01*
X96381995Y-73418273D01*
X96276686Y-73672510D01*
X96223000Y-73942408D01*
X96223000Y-74217592D01*
X96276686Y-74487490D01*
X96381995Y-74741727D01*
X96534880Y-74970535D01*
X96729465Y-75165120D01*
X96958273Y-75318005D01*
X97035515Y-75350000D01*
X96958273Y-75381995D01*
X96729465Y-75534880D01*
X96534880Y-75729465D01*
X96381995Y-75958273D01*
X96276686Y-76212510D01*
X96223000Y-76482408D01*
X96223000Y-76757592D01*
X96276686Y-77027490D01*
X96381995Y-77281727D01*
X96534880Y-77510535D01*
X96729465Y-77705120D01*
X96958273Y-77858005D01*
X97035515Y-77890000D01*
X96958273Y-77921995D01*
X96729465Y-78074880D01*
X96534880Y-78269465D01*
X96381995Y-78498273D01*
X96276686Y-78752510D01*
X96223000Y-79022408D01*
X96223000Y-79297592D01*
X96276686Y-79567490D01*
X96381995Y-79821727D01*
X96534880Y-80050535D01*
X96729465Y-80245120D01*
X96958273Y-80398005D01*
X97035515Y-80430000D01*
X96958273Y-80461995D01*
X96729465Y-80614880D01*
X96534880Y-80809465D01*
X96381995Y-81038273D01*
X96276686Y-81292510D01*
X96223000Y-81562408D01*
X96223000Y-81837592D01*
X96276686Y-82107490D01*
X96381995Y-82361727D01*
X96534880Y-82590535D01*
X96729465Y-82785120D01*
X96958273Y-82938005D01*
X97035515Y-82970000D01*
X96958273Y-83001995D01*
X96729465Y-83154880D01*
X96534880Y-83349465D01*
X96381995Y-83578273D01*
X96276686Y-83832510D01*
X96223000Y-84102408D01*
X96223000Y-84377592D01*
X96276686Y-84647490D01*
X96381995Y-84901727D01*
X96534880Y-85130535D01*
X96729465Y-85325120D01*
X96958273Y-85478005D01*
X97035515Y-85510000D01*
X96958273Y-85541995D01*
X96729465Y-85694880D01*
X96534880Y-85889465D01*
X96381995Y-86118273D01*
X96276686Y-86372510D01*
X96223000Y-86642408D01*
X96223000Y-86917592D01*
X96276686Y-87187490D01*
X96381995Y-87441727D01*
X96534880Y-87670535D01*
X96729465Y-87865120D01*
X96958273Y-88018005D01*
X97035515Y-88050000D01*
X96958273Y-88081995D01*
X96729465Y-88234880D01*
X96534880Y-88429465D01*
X96381995Y-88658273D01*
X96276686Y-88912510D01*
X96223000Y-89182408D01*
X96223000Y-89457592D01*
X96276686Y-89727490D01*
X96381995Y-89981727D01*
X96534880Y-90210535D01*
X96729465Y-90405120D01*
X96958273Y-90558005D01*
X97029943Y-90587692D01*
X97016977Y-90592364D01*
X96901020Y-90654344D01*
X96834040Y-90894435D01*
X97620000Y-91680395D01*
X98405960Y-90894435D01*
X98338980Y-90654344D01*
X98203240Y-90590515D01*
X98281727Y-90558005D01*
X98510535Y-90405120D01*
X98705120Y-90210535D01*
X98858005Y-89981727D01*
X98963314Y-89727490D01*
X99017000Y-89457592D01*
X99017000Y-89182408D01*
X98963314Y-88912510D01*
X98858005Y-88658273D01*
X98705120Y-88429465D01*
X98510535Y-88234880D01*
X98281727Y-88081995D01*
X98204485Y-88050000D01*
X98281727Y-88018005D01*
X98510535Y-87865120D01*
X98705120Y-87670535D01*
X98858005Y-87441727D01*
X98963314Y-87187490D01*
X99017000Y-86917592D01*
X99017000Y-86642408D01*
X98963314Y-86372510D01*
X98858005Y-86118273D01*
X98705120Y-85889465D01*
X98510535Y-85694880D01*
X98281727Y-85541995D01*
X98204485Y-85510000D01*
X98281727Y-85478005D01*
X98510535Y-85325120D01*
X98705120Y-85130535D01*
X98858005Y-84901727D01*
X98963314Y-84647490D01*
X99017000Y-84377592D01*
X99017000Y-84102408D01*
X98963314Y-83832510D01*
X98858005Y-83578273D01*
X98705120Y-83349465D01*
X98510535Y-83154880D01*
X98281727Y-83001995D01*
X98204485Y-82970000D01*
X98281727Y-82938005D01*
X98510535Y-82785120D01*
X98596990Y-82698665D01*
X123565000Y-82698665D01*
X123565000Y-82981335D01*
X123620147Y-83258574D01*
X123728320Y-83519727D01*
X123885363Y-83754759D01*
X124085241Y-83954637D01*
X124320273Y-84111680D01*
X124581426Y-84219853D01*
X124858665Y-84275000D01*
X125141335Y-84275000D01*
X125418574Y-84219853D01*
X125679727Y-84111680D01*
X125914759Y-83954637D01*
X126114637Y-83754759D01*
X126271680Y-83519727D01*
X126379853Y-83258574D01*
X126435000Y-82981335D01*
X126435000Y-82698665D01*
X126379853Y-82421426D01*
X126271680Y-82160273D01*
X126114637Y-81925241D01*
X125914759Y-81725363D01*
X125679727Y-81568320D01*
X125418574Y-81460147D01*
X125141335Y-81405000D01*
X124858665Y-81405000D01*
X124581426Y-81460147D01*
X124320273Y-81568320D01*
X124085241Y-81725363D01*
X123885363Y-81925241D01*
X123728320Y-82160273D01*
X123620147Y-82421426D01*
X123565000Y-82698665D01*
X98596990Y-82698665D01*
X98705120Y-82590535D01*
X98858005Y-82361727D01*
X98963314Y-82107490D01*
X99017000Y-81837592D01*
X99017000Y-81562408D01*
X98963314Y-81292510D01*
X98858005Y-81038273D01*
X98705120Y-80809465D01*
X98510535Y-80614880D01*
X98281727Y-80461995D01*
X98204485Y-80430000D01*
X98281727Y-80398005D01*
X98510535Y-80245120D01*
X98705120Y-80050535D01*
X98858005Y-79821727D01*
X98963314Y-79567490D01*
X99017000Y-79297592D01*
X99017000Y-79022408D01*
X98963314Y-78752510D01*
X98858005Y-78498273D01*
X98705120Y-78269465D01*
X98510535Y-78074880D01*
X98281727Y-77921995D01*
X98204485Y-77890000D01*
X98281727Y-77858005D01*
X98510535Y-77705120D01*
X98705120Y-77510535D01*
X98858005Y-77281727D01*
X98963314Y-77027490D01*
X99017000Y-76757592D01*
X99017000Y-76482408D01*
X98963314Y-76212510D01*
X98858005Y-75958273D01*
X98705120Y-75729465D01*
X98510535Y-75534880D01*
X98281727Y-75381995D01*
X98204485Y-75350000D01*
X98281727Y-75318005D01*
X98510535Y-75165120D01*
X98705120Y-74970535D01*
X98858005Y-74741727D01*
X98963314Y-74487490D01*
X99017000Y-74217592D01*
X99017000Y-73942408D01*
X98963314Y-73672510D01*
X98858005Y-73418273D01*
X98705120Y-73189465D01*
X98510535Y-72994880D01*
X98281727Y-72841995D01*
X98204485Y-72810000D01*
X98281727Y-72778005D01*
X98510535Y-72625120D01*
X98705120Y-72430535D01*
X98858005Y-72201727D01*
X98963314Y-71947490D01*
X98973146Y-71898061D01*
X102965000Y-71898061D01*
X102965000Y-72101939D01*
X103004774Y-72301898D01*
X103082795Y-72490256D01*
X103196063Y-72659774D01*
X103340226Y-72803937D01*
X103509744Y-72917205D01*
X103698102Y-72995226D01*
X103898061Y-73035000D01*
X103960199Y-73035000D01*
X106965000Y-76039802D01*
X106965000Y-76101939D01*
X107004774Y-76301898D01*
X107082795Y-76490256D01*
X107196063Y-76659774D01*
X107340226Y-76803937D01*
X107509744Y-76917205D01*
X107698102Y-76995226D01*
X107898061Y-77035000D01*
X108101939Y-77035000D01*
X108301898Y-76995226D01*
X108490256Y-76917205D01*
X108659774Y-76803937D01*
X108803937Y-76659774D01*
X108917205Y-76490256D01*
X108995226Y-76301898D01*
X109035000Y-76101939D01*
X109035000Y-75898061D01*
X108995226Y-75698102D01*
X108917205Y-75509744D01*
X108803937Y-75340226D01*
X108659774Y-75196063D01*
X108490256Y-75082795D01*
X108301898Y-75004774D01*
X108101939Y-74965000D01*
X108039802Y-74965000D01*
X105667210Y-72592408D01*
X132603000Y-72592408D01*
X132603000Y-72867592D01*
X132656686Y-73137490D01*
X132761995Y-73391727D01*
X132914880Y-73620535D01*
X133109465Y-73815120D01*
X133338273Y-73968005D01*
X133415515Y-74000000D01*
X133338273Y-74031995D01*
X133109465Y-74184880D01*
X132914880Y-74379465D01*
X132761995Y-74608273D01*
X132656686Y-74862510D01*
X132603000Y-75132408D01*
X132603000Y-75407592D01*
X132656686Y-75677490D01*
X132761995Y-75931727D01*
X132914880Y-76160535D01*
X133109465Y-76355120D01*
X133338273Y-76508005D01*
X133415515Y-76540000D01*
X133338273Y-76571995D01*
X133109465Y-76724880D01*
X132914880Y-76919465D01*
X132761995Y-77148273D01*
X132656686Y-77402510D01*
X132603000Y-77672408D01*
X132603000Y-77947592D01*
X132656686Y-78217490D01*
X132761995Y-78471727D01*
X132914880Y-78700535D01*
X133109465Y-78895120D01*
X133338273Y-79048005D01*
X133592510Y-79153314D01*
X133862408Y-79207000D01*
X134137592Y-79207000D01*
X134407490Y-79153314D01*
X134661727Y-79048005D01*
X134890535Y-78895120D01*
X135085120Y-78700535D01*
X135238005Y-78471727D01*
X135343314Y-78217490D01*
X135397000Y-77947592D01*
X135397000Y-77672408D01*
X135343314Y-77402510D01*
X135238005Y-77148273D01*
X135085120Y-76919465D01*
X134890535Y-76724880D01*
X134661727Y-76571995D01*
X134584485Y-76540000D01*
X134661727Y-76508005D01*
X134890535Y-76355120D01*
X135085120Y-76160535D01*
X135238005Y-75931727D01*
X135343314Y-75677490D01*
X135397000Y-75407592D01*
X135397000Y-75132408D01*
X135343314Y-74862510D01*
X135238005Y-74608273D01*
X135085120Y-74379465D01*
X134890535Y-74184880D01*
X134661727Y-74031995D01*
X134584485Y-74000000D01*
X134661727Y-73968005D01*
X134890535Y-73815120D01*
X135085120Y-73620535D01*
X135238005Y-73391727D01*
X135343314Y-73137490D01*
X135397000Y-72867592D01*
X135397000Y-72592408D01*
X135343314Y-72322510D01*
X135238005Y-72068273D01*
X135085120Y-71839465D01*
X134890535Y-71644880D01*
X134661727Y-71491995D01*
X134590057Y-71462308D01*
X134603023Y-71457636D01*
X134718980Y-71395656D01*
X134785960Y-71155565D01*
X134000000Y-70369605D01*
X133214040Y-71155565D01*
X133281020Y-71395656D01*
X133416760Y-71459485D01*
X133338273Y-71491995D01*
X133109465Y-71644880D01*
X132914880Y-71839465D01*
X132761995Y-72068273D01*
X132656686Y-72322510D01*
X132603000Y-72592408D01*
X105667210Y-72592408D01*
X105035000Y-71960199D01*
X105035000Y-71898061D01*
X104995226Y-71698102D01*
X104917205Y-71509744D01*
X104803937Y-71340226D01*
X104659774Y-71196063D01*
X104490256Y-71082795D01*
X104301898Y-71004774D01*
X104101939Y-70965000D01*
X103898061Y-70965000D01*
X103698102Y-71004774D01*
X103509744Y-71082795D01*
X103340226Y-71196063D01*
X103196063Y-71340226D01*
X103082795Y-71509744D01*
X103004774Y-71698102D01*
X102965000Y-71898061D01*
X98973146Y-71898061D01*
X99017000Y-71677592D01*
X99017000Y-71402408D01*
X98963314Y-71132510D01*
X98858005Y-70878273D01*
X98705120Y-70649465D01*
X98510535Y-70454880D01*
X98281727Y-70301995D01*
X98204485Y-70270000D01*
X98223757Y-70262017D01*
X132598090Y-70262017D01*
X132639078Y-70534133D01*
X132732364Y-70793023D01*
X132794344Y-70908980D01*
X133034435Y-70975960D01*
X133820395Y-70190000D01*
X134179605Y-70190000D01*
X134965565Y-70975960D01*
X135205656Y-70908980D01*
X135322756Y-70659952D01*
X135389023Y-70392865D01*
X135401910Y-70117983D01*
X135360922Y-69845867D01*
X135267636Y-69586977D01*
X135205656Y-69471020D01*
X134965565Y-69404040D01*
X134179605Y-70190000D01*
X133820395Y-70190000D01*
X133034435Y-69404040D01*
X132794344Y-69471020D01*
X132677244Y-69720048D01*
X132610977Y-69987135D01*
X132598090Y-70262017D01*
X98223757Y-70262017D01*
X98281727Y-70238005D01*
X98510535Y-70085120D01*
X98705120Y-69890535D01*
X98858005Y-69661727D01*
X98963314Y-69407490D01*
X98999725Y-69224435D01*
X133214040Y-69224435D01*
X134000000Y-70010395D01*
X134785960Y-69224435D01*
X134718980Y-68984344D01*
X134469952Y-68867244D01*
X134202865Y-68800977D01*
X133927983Y-68788090D01*
X133655867Y-68829078D01*
X133396977Y-68922364D01*
X133281020Y-68984344D01*
X133214040Y-69224435D01*
X98999725Y-69224435D01*
X99017000Y-69137592D01*
X99017000Y-68862408D01*
X98963314Y-68592510D01*
X98858005Y-68338273D01*
X98705120Y-68109465D01*
X98510535Y-67914880D01*
X98281727Y-67761995D01*
X98204485Y-67730000D01*
X98281727Y-67698005D01*
X98510535Y-67545120D01*
X98705120Y-67350535D01*
X98858005Y-67121727D01*
X98963314Y-66867490D01*
X99017000Y-66597592D01*
X99017000Y-66322408D01*
X98963314Y-66052510D01*
X98858005Y-65798273D01*
X98705120Y-65569465D01*
X98510535Y-65374880D01*
X98281727Y-65221995D01*
X98204485Y-65190000D01*
X98281727Y-65158005D01*
X98510535Y-65005120D01*
X98705120Y-64810535D01*
X98858005Y-64581727D01*
X98963314Y-64327490D01*
X99017000Y-64057592D01*
X99017000Y-63782408D01*
X98963314Y-63512510D01*
X98858005Y-63258273D01*
X98705120Y-63029465D01*
X98510535Y-62834880D01*
X98281727Y-62681995D01*
X98204485Y-62650000D01*
X98281727Y-62618005D01*
X98510535Y-62465120D01*
X98705120Y-62270535D01*
X98858005Y-62041727D01*
X98963314Y-61787490D01*
X99017000Y-61517592D01*
X99017000Y-61242408D01*
X98963314Y-60972510D01*
X98858005Y-60718273D01*
X98705120Y-60489465D01*
X98510535Y-60294880D01*
X98281727Y-60141995D01*
X98210057Y-60112308D01*
X98223023Y-60107636D01*
X98338980Y-60045656D01*
X98405960Y-59805565D01*
X97620000Y-59019605D01*
X96834040Y-59805565D01*
X96901020Y-60045656D01*
X97036760Y-60109485D01*
X96958273Y-60141995D01*
X96729465Y-60294880D01*
X96534880Y-60489465D01*
X96381995Y-60718273D01*
X96276686Y-60972510D01*
X96223000Y-61242408D01*
X83777000Y-61242408D01*
X83723314Y-60972510D01*
X83618005Y-60718273D01*
X83465120Y-60489465D01*
X83270535Y-60294880D01*
X83041727Y-60141995D01*
X82964485Y-60110000D01*
X83041727Y-60078005D01*
X83270535Y-59925120D01*
X83465120Y-59730535D01*
X83618005Y-59501727D01*
X83723314Y-59247490D01*
X83777000Y-58977592D01*
X83777000Y-58702408D01*
X93683000Y-58702408D01*
X93683000Y-58977592D01*
X93736686Y-59247490D01*
X93841995Y-59501727D01*
X93994880Y-59730535D01*
X94189465Y-59925120D01*
X94418273Y-60078005D01*
X94672510Y-60183314D01*
X94942408Y-60237000D01*
X95217592Y-60237000D01*
X95487490Y-60183314D01*
X95741727Y-60078005D01*
X95970535Y-59925120D01*
X96165120Y-59730535D01*
X96318005Y-59501727D01*
X96347692Y-59430057D01*
X96352364Y-59443023D01*
X96414344Y-59558980D01*
X96654435Y-59625960D01*
X97440395Y-58840000D01*
X97799605Y-58840000D01*
X98585565Y-59625960D01*
X98825656Y-59558980D01*
X98942756Y-59309952D01*
X99009023Y-59042865D01*
X99021910Y-58767983D01*
X98980922Y-58495867D01*
X98887636Y-58236977D01*
X98825656Y-58121020D01*
X98585565Y-58054040D01*
X97799605Y-58840000D01*
X97440395Y-58840000D01*
X96654435Y-58054040D01*
X96414344Y-58121020D01*
X96350515Y-58256760D01*
X96318005Y-58178273D01*
X96165120Y-57949465D01*
X95970535Y-57754880D01*
X95741727Y-57601995D01*
X95487490Y-57496686D01*
X95217592Y-57443000D01*
X94942408Y-57443000D01*
X94672510Y-57496686D01*
X94418273Y-57601995D01*
X94189465Y-57754880D01*
X93994880Y-57949465D01*
X93841995Y-58178273D01*
X93736686Y-58432510D01*
X93683000Y-58702408D01*
X83777000Y-58702408D01*
X83723314Y-58432510D01*
X83618005Y-58178273D01*
X83465120Y-57949465D01*
X83270535Y-57754880D01*
X83041727Y-57601995D01*
X82970057Y-57572308D01*
X82983023Y-57567636D01*
X83098980Y-57505656D01*
X83165960Y-57265565D01*
X82380000Y-56479605D01*
X81594040Y-57265565D01*
X81661020Y-57505656D01*
X81796760Y-57569485D01*
X81718273Y-57601995D01*
X81489465Y-57754880D01*
X81294880Y-57949465D01*
X81141995Y-58178273D01*
X81036686Y-58432510D01*
X80983000Y-58702408D01*
X80983000Y-58977592D01*
X81036686Y-59247490D01*
X81141995Y-59501727D01*
X81294880Y-59730535D01*
X81489465Y-59925120D01*
X81718273Y-60078005D01*
X81795515Y-60110000D01*
X81718273Y-60141995D01*
X81489465Y-60294880D01*
X81294880Y-60489465D01*
X81141995Y-60718273D01*
X81036686Y-60972510D01*
X80983000Y-61242408D01*
X80983000Y-61517592D01*
X81036686Y-61787490D01*
X81141995Y-62041727D01*
X81294880Y-62270535D01*
X81489465Y-62465120D01*
X81718273Y-62618005D01*
X81795515Y-62650000D01*
X81718273Y-62681995D01*
X81489465Y-62834880D01*
X81294880Y-63029465D01*
X81141995Y-63258273D01*
X81036686Y-63512510D01*
X80983000Y-63782408D01*
X80983000Y-64057592D01*
X81036686Y-64327490D01*
X81141995Y-64581727D01*
X81294880Y-64810535D01*
X81489465Y-65005120D01*
X81718273Y-65158005D01*
X81795515Y-65190000D01*
X81718273Y-65221995D01*
X81489465Y-65374880D01*
X81294880Y-65569465D01*
X81141995Y-65798273D01*
X81036686Y-66052510D01*
X80983000Y-66322408D01*
X80983000Y-66597592D01*
X81036686Y-66867490D01*
X81141995Y-67121727D01*
X81294880Y-67350535D01*
X81489465Y-67545120D01*
X81718273Y-67698005D01*
X81795515Y-67730000D01*
X81718273Y-67761995D01*
X81489465Y-67914880D01*
X81294880Y-68109465D01*
X81141995Y-68338273D01*
X81036686Y-68592510D01*
X80983000Y-68862408D01*
X80983000Y-69137592D01*
X81036686Y-69407490D01*
X81141995Y-69661727D01*
X81294880Y-69890535D01*
X81489465Y-70085120D01*
X81718273Y-70238005D01*
X81795515Y-70270000D01*
X81718273Y-70301995D01*
X81489465Y-70454880D01*
X81294880Y-70649465D01*
X81141995Y-70878273D01*
X81036686Y-71132510D01*
X80983000Y-71402408D01*
X80983000Y-71677592D01*
X81036686Y-71947490D01*
X81141995Y-72201727D01*
X81294880Y-72430535D01*
X81489465Y-72625120D01*
X81718273Y-72778005D01*
X81795515Y-72810000D01*
X81718273Y-72841995D01*
X81489465Y-72994880D01*
X81294880Y-73189465D01*
X81141995Y-73418273D01*
X81036686Y-73672510D01*
X80983000Y-73942408D01*
X80983000Y-74217592D01*
X81036686Y-74487490D01*
X81141995Y-74741727D01*
X81294880Y-74970535D01*
X81489465Y-75165120D01*
X81718273Y-75318005D01*
X81795515Y-75350000D01*
X81718273Y-75381995D01*
X81489465Y-75534880D01*
X81294880Y-75729465D01*
X81141995Y-75958273D01*
X81036686Y-76212510D01*
X80983000Y-76482408D01*
X80983000Y-76757592D01*
X81036686Y-77027490D01*
X81141995Y-77281727D01*
X81294880Y-77510535D01*
X81489465Y-77705120D01*
X81718273Y-77858005D01*
X81795515Y-77890000D01*
X81718273Y-77921995D01*
X81489465Y-78074880D01*
X81294880Y-78269465D01*
X81141995Y-78498273D01*
X81036686Y-78752510D01*
X80983000Y-79022408D01*
X80983000Y-79297592D01*
X81036686Y-79567490D01*
X81141995Y-79821727D01*
X81294880Y-80050535D01*
X81489465Y-80245120D01*
X81718273Y-80398005D01*
X81795515Y-80430000D01*
X81718273Y-80461995D01*
X81489465Y-80614880D01*
X81294880Y-80809465D01*
X81141995Y-81038273D01*
X81036686Y-81292510D01*
X80983000Y-81562408D01*
X80983000Y-81837592D01*
X81036686Y-82107490D01*
X81141995Y-82361727D01*
X81294880Y-82590535D01*
X81489465Y-82785120D01*
X81718273Y-82938005D01*
X81795515Y-82970000D01*
X81718273Y-83001995D01*
X81489465Y-83154880D01*
X81294880Y-83349465D01*
X81141995Y-83578273D01*
X81036686Y-83832510D01*
X80983000Y-84102408D01*
X80983000Y-84377592D01*
X81036686Y-84647490D01*
X81141995Y-84901727D01*
X81294880Y-85130535D01*
X81489465Y-85325120D01*
X81718273Y-85478005D01*
X81795515Y-85510000D01*
X81718273Y-85541995D01*
X81489465Y-85694880D01*
X81294880Y-85889465D01*
X81141995Y-86118273D01*
X81036686Y-86372510D01*
X80983000Y-86642408D01*
X80983000Y-86917592D01*
X81036686Y-87187490D01*
X81141995Y-87441727D01*
X81294880Y-87670535D01*
X81489465Y-87865120D01*
X81718273Y-88018005D01*
X81795515Y-88050000D01*
X81718273Y-88081995D01*
X81489465Y-88234880D01*
X81294880Y-88429465D01*
X81141995Y-88658273D01*
X81036686Y-88912510D01*
X80983000Y-89182408D01*
X80983000Y-89388198D01*
X60045000Y-68450199D01*
X60045000Y-57362341D01*
X60175535Y-57275120D01*
X60295090Y-57155565D01*
X61039040Y-57155565D01*
X61106020Y-57395656D01*
X61355048Y-57512756D01*
X61622135Y-57579023D01*
X61897017Y-57591910D01*
X62169133Y-57550922D01*
X62428023Y-57457636D01*
X62543980Y-57395656D01*
X62610960Y-57155565D01*
X61825000Y-56369605D01*
X61039040Y-57155565D01*
X60295090Y-57155565D01*
X60370120Y-57080535D01*
X60523005Y-56851727D01*
X60552692Y-56780057D01*
X60557364Y-56793023D01*
X60619344Y-56908980D01*
X60859435Y-56975960D01*
X61645395Y-56190000D01*
X62004605Y-56190000D01*
X62790565Y-56975960D01*
X63030656Y-56908980D01*
X63094485Y-56773240D01*
X63126995Y-56851727D01*
X63279880Y-57080535D01*
X63474465Y-57275120D01*
X63703273Y-57428005D01*
X63957510Y-57533314D01*
X64227408Y-57587000D01*
X64502592Y-57587000D01*
X64772490Y-57533314D01*
X65026727Y-57428005D01*
X65255535Y-57275120D01*
X65450120Y-57080535D01*
X65603005Y-56851727D01*
X65635000Y-56774485D01*
X65666995Y-56851727D01*
X65819880Y-57080535D01*
X66014465Y-57275120D01*
X66243273Y-57428005D01*
X66497510Y-57533314D01*
X66767408Y-57587000D01*
X67042592Y-57587000D01*
X67312490Y-57533314D01*
X67566727Y-57428005D01*
X67795535Y-57275120D01*
X67990120Y-57080535D01*
X68143005Y-56851727D01*
X68175000Y-56774485D01*
X68206995Y-56851727D01*
X68359880Y-57080535D01*
X68554465Y-57275120D01*
X68783273Y-57428005D01*
X69037510Y-57533314D01*
X69307408Y-57587000D01*
X69582592Y-57587000D01*
X69852490Y-57533314D01*
X70106727Y-57428005D01*
X70335535Y-57275120D01*
X70530120Y-57080535D01*
X70683005Y-56851727D01*
X70788314Y-56597490D01*
X70842000Y-56327592D01*
X70842000Y-56052408D01*
X70810572Y-55894408D01*
X73968000Y-55894408D01*
X73968000Y-56169592D01*
X74021686Y-56439490D01*
X74126995Y-56693727D01*
X74279880Y-56922535D01*
X74474465Y-57117120D01*
X74703273Y-57270005D01*
X74957510Y-57375314D01*
X75227408Y-57429000D01*
X75502592Y-57429000D01*
X75772490Y-57375314D01*
X76026727Y-57270005D01*
X76255535Y-57117120D01*
X76450120Y-56922535D01*
X76603005Y-56693727D01*
X76708314Y-56439490D01*
X76721735Y-56372017D01*
X80978090Y-56372017D01*
X81019078Y-56644133D01*
X81112364Y-56903023D01*
X81174344Y-57018980D01*
X81414435Y-57085960D01*
X82200395Y-56300000D01*
X82559605Y-56300000D01*
X83345565Y-57085960D01*
X83585656Y-57018980D01*
X83702756Y-56769952D01*
X83769023Y-56502865D01*
X83781910Y-56227983D01*
X83772033Y-56162408D01*
X96223000Y-56162408D01*
X96223000Y-56437592D01*
X96276686Y-56707490D01*
X96381995Y-56961727D01*
X96534880Y-57190535D01*
X96729465Y-57385120D01*
X96958273Y-57538005D01*
X97029943Y-57567692D01*
X97016977Y-57572364D01*
X96901020Y-57634344D01*
X96834040Y-57874435D01*
X97620000Y-58660395D01*
X98405960Y-57874435D01*
X98338980Y-57634344D01*
X98203240Y-57570515D01*
X98281727Y-57538005D01*
X98510535Y-57385120D01*
X98705120Y-57190535D01*
X98858005Y-56961727D01*
X98963314Y-56707490D01*
X99017000Y-56437592D01*
X99017000Y-56162408D01*
X98963692Y-55894408D01*
X123968000Y-55894408D01*
X123968000Y-56169592D01*
X124021686Y-56439490D01*
X124126995Y-56693727D01*
X124279880Y-56922535D01*
X124474465Y-57117120D01*
X124703273Y-57270005D01*
X124957510Y-57375314D01*
X125227408Y-57429000D01*
X125502592Y-57429000D01*
X125772490Y-57375314D01*
X126026727Y-57270005D01*
X126255535Y-57117120D01*
X126375090Y-56997565D01*
X127219040Y-56997565D01*
X127286020Y-57237656D01*
X127535048Y-57354756D01*
X127802135Y-57421023D01*
X128077017Y-57433910D01*
X128349133Y-57392922D01*
X128608023Y-57299636D01*
X128723980Y-57237656D01*
X128790960Y-56997565D01*
X128005000Y-56211605D01*
X127219040Y-56997565D01*
X126375090Y-56997565D01*
X126450120Y-56922535D01*
X126603005Y-56693727D01*
X126686170Y-56492949D01*
X126737364Y-56635023D01*
X126799344Y-56750980D01*
X127039435Y-56817960D01*
X127825395Y-56032000D01*
X128184605Y-56032000D01*
X128970565Y-56817960D01*
X129210656Y-56750980D01*
X129327756Y-56501952D01*
X129394023Y-56234865D01*
X129406910Y-55959983D01*
X129365922Y-55687867D01*
X129272636Y-55428977D01*
X129210656Y-55313020D01*
X128970565Y-55246040D01*
X128184605Y-56032000D01*
X127825395Y-56032000D01*
X127039435Y-55246040D01*
X126799344Y-55313020D01*
X126682349Y-55561825D01*
X126603005Y-55370273D01*
X126450120Y-55141465D01*
X126375090Y-55066435D01*
X127219040Y-55066435D01*
X128005000Y-55852395D01*
X128790960Y-55066435D01*
X128723980Y-54826344D01*
X128474952Y-54709244D01*
X128207865Y-54642977D01*
X127932983Y-54630090D01*
X127660867Y-54671078D01*
X127401977Y-54764364D01*
X127286020Y-54826344D01*
X127219040Y-55066435D01*
X126375090Y-55066435D01*
X126255535Y-54946880D01*
X126026727Y-54793995D01*
X125772490Y-54688686D01*
X125502592Y-54635000D01*
X125227408Y-54635000D01*
X124957510Y-54688686D01*
X124703273Y-54793995D01*
X124474465Y-54946880D01*
X124279880Y-55141465D01*
X124126995Y-55370273D01*
X124021686Y-55624510D01*
X123968000Y-55894408D01*
X98963692Y-55894408D01*
X98963314Y-55892510D01*
X98858005Y-55638273D01*
X98705120Y-55409465D01*
X98510535Y-55214880D01*
X98281727Y-55061995D01*
X98027490Y-54956686D01*
X97757592Y-54903000D01*
X97482408Y-54903000D01*
X97212510Y-54956686D01*
X96958273Y-55061995D01*
X96729465Y-55214880D01*
X96534880Y-55409465D01*
X96381995Y-55638273D01*
X96276686Y-55892510D01*
X96223000Y-56162408D01*
X83772033Y-56162408D01*
X83740922Y-55955867D01*
X83647636Y-55696977D01*
X83585656Y-55581020D01*
X83345565Y-55514040D01*
X82559605Y-56300000D01*
X82200395Y-56300000D01*
X81414435Y-55514040D01*
X81174344Y-55581020D01*
X81057244Y-55830048D01*
X80990977Y-56097135D01*
X80978090Y-56372017D01*
X76721735Y-56372017D01*
X76762000Y-56169592D01*
X76762000Y-55894408D01*
X76708314Y-55624510D01*
X76603005Y-55370273D01*
X76579059Y-55334435D01*
X81594040Y-55334435D01*
X82380000Y-56120395D01*
X83165960Y-55334435D01*
X83098980Y-55094344D01*
X82849952Y-54977244D01*
X82582865Y-54910977D01*
X82307983Y-54898090D01*
X82035867Y-54939078D01*
X81776977Y-55032364D01*
X81661020Y-55094344D01*
X81594040Y-55334435D01*
X76579059Y-55334435D01*
X76450120Y-55141465D01*
X76255535Y-54946880D01*
X76026727Y-54793995D01*
X75772490Y-54688686D01*
X75502592Y-54635000D01*
X75227408Y-54635000D01*
X74957510Y-54688686D01*
X74703273Y-54793995D01*
X74474465Y-54946880D01*
X74279880Y-55141465D01*
X74126995Y-55370273D01*
X74021686Y-55624510D01*
X73968000Y-55894408D01*
X70810572Y-55894408D01*
X70788314Y-55782510D01*
X70683005Y-55528273D01*
X70530120Y-55299465D01*
X70335535Y-55104880D01*
X70106727Y-54951995D01*
X69852490Y-54846686D01*
X69582592Y-54793000D01*
X69307408Y-54793000D01*
X69037510Y-54846686D01*
X68783273Y-54951995D01*
X68554465Y-55104880D01*
X68359880Y-55299465D01*
X68206995Y-55528273D01*
X68175000Y-55605515D01*
X68143005Y-55528273D01*
X67990120Y-55299465D01*
X67795535Y-55104880D01*
X67566727Y-54951995D01*
X67312490Y-54846686D01*
X67042592Y-54793000D01*
X66767408Y-54793000D01*
X66497510Y-54846686D01*
X66243273Y-54951995D01*
X66014465Y-55104880D01*
X65819880Y-55299465D01*
X65666995Y-55528273D01*
X65635000Y-55605515D01*
X65603005Y-55528273D01*
X65450120Y-55299465D01*
X65255535Y-55104880D01*
X65026727Y-54951995D01*
X64772490Y-54846686D01*
X64502592Y-54793000D01*
X64227408Y-54793000D01*
X63957510Y-54846686D01*
X63703273Y-54951995D01*
X63474465Y-55104880D01*
X63279880Y-55299465D01*
X63126995Y-55528273D01*
X63097308Y-55599943D01*
X63092636Y-55586977D01*
X63030656Y-55471020D01*
X62790565Y-55404040D01*
X62004605Y-56190000D01*
X61645395Y-56190000D01*
X60859435Y-55404040D01*
X60619344Y-55471020D01*
X60555515Y-55606760D01*
X60523005Y-55528273D01*
X60370120Y-55299465D01*
X60295090Y-55224435D01*
X61039040Y-55224435D01*
X61825000Y-56010395D01*
X62610960Y-55224435D01*
X62543980Y-54984344D01*
X62294952Y-54867244D01*
X62027865Y-54800977D01*
X61752983Y-54788090D01*
X61480867Y-54829078D01*
X61221977Y-54922364D01*
X61106020Y-54984344D01*
X61039040Y-55224435D01*
X60295090Y-55224435D01*
X60175535Y-55104880D01*
X59946727Y-54951995D01*
X59692490Y-54846686D01*
X59422592Y-54793000D01*
X59147408Y-54793000D01*
X58877510Y-54846686D01*
X58623273Y-54951995D01*
X58394465Y-55104880D01*
X58199880Y-55299465D01*
X58046995Y-55528273D01*
X57941686Y-55782510D01*
X57888000Y-56052408D01*
X57888000Y-56327592D01*
X57941686Y-56597490D01*
X58046995Y-56851727D01*
X58199880Y-57080535D01*
X58394465Y-57275120D01*
X58525000Y-57362341D01*
X58525001Y-68727668D01*
X58521324Y-68765000D01*
X58525001Y-68802333D01*
X58535998Y-68913986D01*
X58547528Y-68951995D01*
X58579454Y-69057246D01*
X58650026Y-69189276D01*
X58678881Y-69224435D01*
X58745000Y-69305001D01*
X58773998Y-69328799D01*
X81013628Y-91568430D01*
X80983000Y-91722408D01*
X80983000Y-91997592D01*
X81036686Y-92267490D01*
X81141995Y-92521727D01*
X81294880Y-92750535D01*
X81489465Y-92945120D01*
X81718273Y-93098005D01*
X81795515Y-93130000D01*
X81718273Y-93161995D01*
X81489465Y-93314880D01*
X81294880Y-93509465D01*
X81141995Y-93738273D01*
X81036686Y-93992510D01*
X80983000Y-94262408D01*
X80983000Y-94537592D01*
X81036686Y-94807490D01*
X81141995Y-95061727D01*
X81294880Y-95290535D01*
X81489465Y-95485120D01*
X81718273Y-95638005D01*
X81795515Y-95670000D01*
X81718273Y-95701995D01*
X81489465Y-95854880D01*
X81294880Y-96049465D01*
X81141995Y-96278273D01*
X81036686Y-96532510D01*
X80983000Y-96802408D01*
X80983000Y-97077592D01*
X81036686Y-97347490D01*
X81141995Y-97601727D01*
X81294880Y-97830535D01*
X81489465Y-98025120D01*
X81718273Y-98178005D01*
X81795515Y-98210000D01*
X81718273Y-98241995D01*
X81489465Y-98394880D01*
X81294880Y-98589465D01*
X81141995Y-98818273D01*
X81036686Y-99072510D01*
X80983000Y-99342408D01*
X80983000Y-99617592D01*
X81036686Y-99887490D01*
X81141995Y-100141727D01*
X81294880Y-100370535D01*
X81489465Y-100565120D01*
X81718273Y-100718005D01*
X81795515Y-100750000D01*
X81718273Y-100781995D01*
X81489465Y-100934880D01*
X81294880Y-101129465D01*
X81141995Y-101358273D01*
X81036686Y-101612510D01*
X80983000Y-101882408D01*
X80983000Y-102157592D01*
X81036686Y-102427490D01*
X81141995Y-102681727D01*
X81294880Y-102910535D01*
X81489465Y-103105120D01*
X81718273Y-103258005D01*
X81795515Y-103290000D01*
X81718273Y-103321995D01*
X81489465Y-103474880D01*
X81294880Y-103669465D01*
X81141995Y-103898273D01*
X81036686Y-104152510D01*
X80983000Y-104422408D01*
X80983000Y-104697592D01*
X81036686Y-104967490D01*
X81141995Y-105221727D01*
X81294880Y-105450535D01*
X81489465Y-105645120D01*
X81718273Y-105798005D01*
X81795515Y-105830000D01*
X81718273Y-105861995D01*
X81489465Y-106014880D01*
X81294880Y-106209465D01*
X81141995Y-106438273D01*
X81036686Y-106692510D01*
X80983000Y-106962408D01*
X80983000Y-107168198D01*
X73760000Y-99945199D01*
X73760000Y-92037333D01*
X73763677Y-92000000D01*
X73749003Y-91851014D01*
X73705546Y-91707753D01*
X73634974Y-91575724D01*
X73540001Y-91459999D01*
X73424276Y-91365026D01*
X73292247Y-91294454D01*
X73148986Y-91250997D01*
X73037333Y-91240000D01*
X73000000Y-91236323D01*
X72962667Y-91240000D01*
X59949396Y-91240000D01*
X60114637Y-91074759D01*
X60271680Y-90839727D01*
X60379853Y-90578574D01*
X60435000Y-90301335D01*
X60435000Y-90018665D01*
X60379853Y-89741426D01*
X60271680Y-89480273D01*
X60114637Y-89245241D01*
X59914759Y-89045363D01*
X59679727Y-88888320D01*
X59418574Y-88780147D01*
X59141335Y-88725000D01*
X58858665Y-88725000D01*
X58581426Y-88780147D01*
X58320273Y-88888320D01*
X58085241Y-89045363D01*
X57885363Y-89245241D01*
X57728320Y-89480273D01*
X57620147Y-89741426D01*
X57565000Y-90018665D01*
X41127000Y-90018665D01*
X41127000Y-79858665D01*
X57565000Y-79858665D01*
X57565000Y-80141335D01*
X57620147Y-80418574D01*
X57728320Y-80679727D01*
X57885363Y-80914759D01*
X58085241Y-81114637D01*
X58320273Y-81271680D01*
X58581426Y-81379853D01*
X58858665Y-81435000D01*
X59141335Y-81435000D01*
X59418574Y-81379853D01*
X59679727Y-81271680D01*
X59914759Y-81114637D01*
X60114637Y-80914759D01*
X60271680Y-80679727D01*
X60379853Y-80418574D01*
X60435000Y-80141335D01*
X60435000Y-79858665D01*
X60379853Y-79581426D01*
X60271680Y-79320273D01*
X60114637Y-79085241D01*
X59914759Y-78885363D01*
X59679727Y-78728320D01*
X59418574Y-78620147D01*
X59141335Y-78565000D01*
X58858665Y-78565000D01*
X58581426Y-78620147D01*
X58320273Y-78728320D01*
X58085241Y-78885363D01*
X57885363Y-79085241D01*
X57728320Y-79320273D01*
X57620147Y-79581426D01*
X57565000Y-79858665D01*
X41127000Y-79858665D01*
X41127000Y-78775565D01*
X45214040Y-78775565D01*
X45281020Y-79015656D01*
X45530048Y-79132756D01*
X45797135Y-79199023D01*
X46072017Y-79211910D01*
X46344133Y-79170922D01*
X46603023Y-79077636D01*
X46718980Y-79015656D01*
X46785960Y-78775565D01*
X46000000Y-77989605D01*
X45214040Y-78775565D01*
X41127000Y-78775565D01*
X41127000Y-77882017D01*
X44598090Y-77882017D01*
X44639078Y-78154133D01*
X44732364Y-78413023D01*
X44794344Y-78528980D01*
X45034435Y-78595960D01*
X45820395Y-77810000D01*
X46179605Y-77810000D01*
X46965565Y-78595960D01*
X47205656Y-78528980D01*
X47322756Y-78279952D01*
X47389023Y-78012865D01*
X47401910Y-77737983D01*
X47360922Y-77465867D01*
X47267636Y-77206977D01*
X47205656Y-77091020D01*
X46965565Y-77024040D01*
X46179605Y-77810000D01*
X45820395Y-77810000D01*
X45034435Y-77024040D01*
X44794344Y-77091020D01*
X44677244Y-77340048D01*
X44610977Y-77607135D01*
X44598090Y-77882017D01*
X41127000Y-77882017D01*
X41127000Y-70052408D01*
X44603000Y-70052408D01*
X44603000Y-70327592D01*
X44656686Y-70597490D01*
X44761995Y-70851727D01*
X44914880Y-71080535D01*
X45109465Y-71275120D01*
X45338273Y-71428005D01*
X45415515Y-71460000D01*
X45338273Y-71491995D01*
X45109465Y-71644880D01*
X44914880Y-71839465D01*
X44761995Y-72068273D01*
X44656686Y-72322510D01*
X44603000Y-72592408D01*
X44603000Y-72867592D01*
X44656686Y-73137490D01*
X44761995Y-73391727D01*
X44914880Y-73620535D01*
X45109465Y-73815120D01*
X45338273Y-73968005D01*
X45415515Y-74000000D01*
X45338273Y-74031995D01*
X45109465Y-74184880D01*
X44914880Y-74379465D01*
X44761995Y-74608273D01*
X44656686Y-74862510D01*
X44603000Y-75132408D01*
X44603000Y-75407592D01*
X44656686Y-75677490D01*
X44761995Y-75931727D01*
X44914880Y-76160535D01*
X45109465Y-76355120D01*
X45338273Y-76508005D01*
X45409943Y-76537692D01*
X45396977Y-76542364D01*
X45281020Y-76604344D01*
X45214040Y-76844435D01*
X46000000Y-77630395D01*
X46785960Y-76844435D01*
X46718980Y-76604344D01*
X46583240Y-76540515D01*
X46661727Y-76508005D01*
X46890535Y-76355120D01*
X47085120Y-76160535D01*
X47238005Y-75931727D01*
X47343314Y-75677490D01*
X47397000Y-75407592D01*
X47397000Y-75132408D01*
X47343314Y-74862510D01*
X47238005Y-74608273D01*
X47085120Y-74379465D01*
X46890535Y-74184880D01*
X46661727Y-74031995D01*
X46584485Y-74000000D01*
X46661727Y-73968005D01*
X46890535Y-73815120D01*
X47085120Y-73620535D01*
X47238005Y-73391727D01*
X47343314Y-73137490D01*
X47397000Y-72867592D01*
X47397000Y-72592408D01*
X47343314Y-72322510D01*
X47238005Y-72068273D01*
X47085120Y-71839465D01*
X46890535Y-71644880D01*
X46661727Y-71491995D01*
X46584485Y-71460000D01*
X46661727Y-71428005D01*
X46890535Y-71275120D01*
X47085120Y-71080535D01*
X47238005Y-70851727D01*
X47343314Y-70597490D01*
X47397000Y-70327592D01*
X47397000Y-70052408D01*
X47343314Y-69782510D01*
X47238005Y-69528273D01*
X47085120Y-69299465D01*
X46890535Y-69104880D01*
X46661727Y-68951995D01*
X46407490Y-68846686D01*
X46137592Y-68793000D01*
X45862408Y-68793000D01*
X45592510Y-68846686D01*
X45338273Y-68951995D01*
X45109465Y-69104880D01*
X44914880Y-69299465D01*
X44761995Y-69528273D01*
X44656686Y-69782510D01*
X44603000Y-70052408D01*
X41127000Y-70052408D01*
X41127000Y-51127000D01*
X138873000Y-51127000D01*
X138873000Y-148873000D01*
G37*
%TD.AperFunction*%
%TD*%
M02*
