M48
; DRILL file {KiCad 5.1.5+dfsg1-2build2} date Mon 07 Feb 2022 12:49:52 PM CST
; FORMAT={-:-/ absolute / inch / decimal}
; #@! TF.CreationDate,2022-02-07T12:49:52-06:00
; #@! TF.GenerationSoftware,Kicad,Pcbnew,5.1.5+dfsg1-2build2
; #@! TF.FileFunction,Plated,1,2,PTH
FMAT,2
INCH
T1C0.0157
T2C0.0300
T3C0.0354
T4C0.0394
T5C0.0512
T6C0.0591
T7C0.0689
T8C0.0984
T9C0.1181
%
G90
G05
T1
X4.45Y-3.5
X4.55Y-4.05
X4.8Y-5.55
X4.9Y-5.6
X4.95Y-5.15
X5.1Y-4.5
X5.25Y-4.8
X5.3Y-4.75
X5.4Y-5.4
X5.7Y-4.25
X5.75Y-4.15
X5.8551Y-4.1388
X5.9Y-4.1
X5.9Y-4.25
X5.9Y-4.85
X5.95Y-5.45
X6.0Y-4.1
X6.05Y-4.2
X6.1Y-4.25
X6.15Y-4.15
X6.2Y-4.2
X6.35Y-5.3
X6.4Y-5.4
X6.4Y-5.45
X6.6Y-4.65
X6.85Y-4.75
X6.85Y-5.2
X6.9Y-5.3
X6.9Y-5.4
X7.05Y-5.2
X7.1Y-5.3
X7.15Y-5.2
X7.3Y-5.3
X8.2Y-3.45
X8.65Y-2.95
X8.85Y-2.95
T2
X3.725Y-5.35
X4.1Y-5.35
X5.5587Y-5.9055
X5.6587Y-5.9055
X5.7587Y-5.9055
X5.8587Y-5.9055
X6.825Y-5.85
X7.2Y-5.85
X4.6276Y-3.6433
X4.6276Y-3.7433
X4.7276Y-3.6433
X4.7276Y-3.7433
X4.8276Y-3.6433
X4.8276Y-3.7433
X4.9276Y-3.6433
X4.9276Y-3.7433
X5.0276Y-3.6433
X5.0276Y-3.7433
X5.1276Y-3.6433
X5.1276Y-3.7433
X5.2276Y-3.6433
X5.2276Y-3.7433
X5.3276Y-3.6433
X5.3276Y-3.7433
X5.4276Y-3.6433
X5.4276Y-3.7433
X5.5276Y-3.6433
X5.5276Y-3.7433
X5.6276Y-3.6433
X5.6276Y-3.7433
X5.7276Y-3.6433
X5.7276Y-3.7433
X5.8276Y-3.6433
X5.8276Y-3.7433
X5.9276Y-3.6433
X5.9276Y-3.7433
X6.0276Y-3.6433
X6.0276Y-3.7433
X6.1276Y-3.6433
X6.1276Y-3.7433
X6.2276Y-3.6433
X6.2276Y-3.7433
X6.3276Y-3.6433
X6.3276Y-3.7433
X6.4276Y-3.6433
X6.4276Y-3.7433
X6.5276Y-3.6433
X6.5276Y-3.7433
X8.2Y-5.5
X8.4652Y-5.2348
X9.05Y-3.225
X9.05Y-3.6
X7.5Y-5.85
X7.875Y-5.85
X9.05Y-2.675
X9.05Y-3.05
X7.95Y-1.75
X8.05Y-1.75
X8.15Y-1.75
X5.25Y-5.7
X5.625Y-5.7
X8.6Y-5.1
X8.8652Y-4.8348
X8.5554Y-5.421
X8.6261Y-5.3503
X8.6968Y-5.2796
X8.7675Y-5.2089
X5.2875Y-5.1275
X5.3875Y-5.1275
X5.4875Y-5.1275
X5.5875Y-5.1275
X5.6875Y-5.1275
X5.7875Y-5.1275
X5.8875Y-5.1275
X5.9875Y-5.1275
X6.0875Y-5.1275
X6.1875Y-5.1275
X6.2875Y-5.1275
X6.3875Y-5.1275
X6.4875Y-5.1275
X6.5875Y-5.1275
X6.6875Y-5.1275
X6.7875Y-5.1275
X6.8875Y-5.1275
X6.9875Y-5.1275
X7.0875Y-5.1275
X7.1875Y-5.1275
X7.2875Y-5.1275
X7.3875Y-5.1275
X7.4875Y-5.1275
X7.5875Y-5.1275
X2.4Y-3.125
X2.4Y-3.5
X5.2866Y-4.4244
X5.2866Y-5.0244
X5.3866Y-4.4244
X5.3866Y-5.0244
X5.4866Y-4.4244
X5.4866Y-5.0244
X5.5866Y-4.4244
X5.5866Y-5.0244
X5.6866Y-4.4244
X5.6866Y-5.0244
X5.7866Y-4.4244
X5.7866Y-4.5244
X5.7866Y-4.6244
X5.7866Y-4.7244
X5.7866Y-4.8244
X5.7866Y-4.9244
X5.7866Y-5.0244
X5.8866Y-4.4244
X5.8866Y-5.0244
X5.9866Y-4.4244
X5.9866Y-5.0244
X6.0866Y-4.4244
X6.0866Y-5.0244
X6.1866Y-4.4244
X6.1866Y-5.0244
X6.2866Y-4.4244
X6.2866Y-5.0244
X6.3866Y-4.4244
X6.3866Y-5.0244
X6.4866Y-4.4244
X6.4866Y-5.0244
X6.5866Y-4.4244
X6.5866Y-5.0244
X6.6866Y-4.4244
X6.6866Y-5.0244
X6.7866Y-4.4244
X6.7866Y-5.0244
X6.8866Y-4.4244
X6.8866Y-5.0244
X6.9366Y-4.5244
X6.9866Y-4.4244
X6.9866Y-5.0244
X7.0366Y-4.5244
X7.0866Y-4.4244
X7.0866Y-5.0244
X7.1366Y-4.5244
X7.1866Y-4.4244
X7.1866Y-5.0244
X7.2366Y-4.5244
X7.2866Y-4.4244
X7.2866Y-5.0244
X7.3366Y-4.5244
X7.3866Y-4.4244
X7.3866Y-5.0244
X7.4866Y-4.4244
X7.4866Y-4.9244
X7.4866Y-5.0244
X7.5866Y-4.4244
X7.5866Y-5.0244
X5.287Y-4.3225
X5.387Y-4.3225
X5.487Y-4.3225
X5.587Y-4.3225
X5.687Y-4.3225
X5.787Y-4.3225
X5.887Y-4.3225
X5.987Y-4.3225
X6.087Y-4.3225
X6.187Y-4.3225
X6.287Y-4.3225
X6.387Y-4.3225
X6.487Y-4.3225
X6.587Y-4.3225
X6.687Y-4.3225
X6.787Y-4.3225
X6.887Y-4.3225
X6.987Y-4.3225
X7.087Y-4.3225
X7.187Y-4.3225
X7.287Y-4.3225
X7.387Y-4.3225
X7.487Y-4.3225
X7.587Y-4.3225
X5.0Y-5.275
X5.0Y-5.65
X3.8Y-5.95
X4.175Y-5.95
X8.5Y-1.75
X8.6Y-1.75
X8.7Y-1.75
X2.6Y-3.8
X2.6Y-3.9
X2.6Y-4.0
X2.6Y-4.1
X2.6Y-4.2
X2.6Y-4.3
X2.6Y-4.4
X2.6Y-4.5
X2.7Y-3.8
X2.7Y-3.9
X2.7Y-4.0
X2.7Y-4.1
X2.7Y-4.2
X2.7Y-4.3
X2.7Y-4.4
X2.7Y-4.5
X2.7Y-4.6
X2.8Y-3.8
X2.8Y-3.9
X2.8Y-4.0
X2.8Y-4.1
X2.8Y-4.2
X2.8Y-4.3
X2.8Y-4.4
X2.8Y-4.5
X2.8Y-4.6
X2.8Y-4.7
X2.9Y-3.8
X2.9Y-3.9
X2.9Y-4.0
X2.9Y-4.1
X2.9Y-4.2
X2.9Y-4.3
X2.9Y-4.4
X2.9Y-4.5
X2.9Y-4.6
X2.9Y-4.7
X2.9Y-4.8
X3.0Y-3.8
X3.0Y-3.9
X3.0Y-4.0
X3.0Y-4.1
X3.0Y-4.2
X3.0Y-4.3
X3.0Y-4.4
X3.0Y-4.5
X3.0Y-4.6
X3.0Y-4.7
X3.0Y-4.8
X3.0Y-4.9
X3.1Y-3.8
X3.1Y-3.9
X3.1Y-4.0
X3.1Y-4.1
X3.1Y-4.2
X3.1Y-4.3
X3.1Y-4.4
X3.1Y-4.5
X3.1Y-4.6
X3.1Y-4.7
X3.1Y-4.8
X3.1Y-4.9
X3.1Y-5.0
X3.2Y-3.8
X3.2Y-3.9
X3.2Y-4.0
X3.2Y-4.1
X3.2Y-4.2
X3.2Y-4.3
X3.2Y-4.4
X3.2Y-4.5
X3.2Y-4.6
X3.2Y-4.7
X3.2Y-4.8
X3.2Y-4.9
X3.2Y-5.0
X3.2Y-5.1
X3.3Y-3.8
X3.3Y-3.9
X3.3Y-4.0
X3.3Y-4.1
X3.3Y-4.2
X3.3Y-4.3
X3.3Y-4.4
X3.3Y-4.5
X3.3Y-4.6
X3.3Y-4.7
X3.3Y-4.8
X3.3Y-4.9
X3.3Y-5.0
X3.3Y-5.1
X3.3Y-5.2
X3.4Y-3.8
X3.4Y-3.9
X3.4Y-4.0
X3.4Y-4.1
X3.4Y-4.2
X3.4Y-4.3
X3.4Y-4.4
X3.4Y-4.5
X3.4Y-4.6
X3.4Y-4.7
X3.4Y-4.8
X3.4Y-4.9
X3.4Y-5.0
X3.4Y-5.1
X3.4Y-5.2
X3.5Y-3.8
X3.5Y-3.9
X3.5Y-4.0
X3.5Y-4.1
X3.5Y-4.2
X3.5Y-4.3
X3.5Y-4.4
X3.5Y-4.5
X3.5Y-4.6
X3.5Y-4.7
X3.5Y-4.8
X3.5Y-4.9
X3.5Y-5.0
X3.5Y-5.1
X3.5Y-5.2
X3.6Y-3.8
X3.6Y-3.9
X3.6Y-4.0
X3.6Y-4.1
X3.6Y-4.2
X3.6Y-4.3
X3.6Y-4.4
X3.6Y-4.5
X3.6Y-4.6
X3.6Y-4.7
X3.6Y-4.8
X3.6Y-4.9
X3.6Y-5.0
X3.6Y-5.1
X3.6Y-5.2
X3.7Y-3.8
X3.7Y-3.9
X3.7Y-4.0
X3.7Y-4.1
X3.7Y-4.2
X3.7Y-4.3
X3.7Y-4.4
X3.7Y-4.5
X3.7Y-4.6
X3.7Y-4.7
X3.7Y-4.8
X3.7Y-4.9
X3.7Y-5.0
X3.7Y-5.1
X3.7Y-5.2
X3.8Y-3.8
X3.8Y-3.9
X3.8Y-4.0
X3.8Y-4.1
X3.8Y-4.2
X3.8Y-4.3
X3.8Y-4.4
X3.8Y-4.5
X3.8Y-4.6
X3.8Y-4.7
X3.8Y-4.8
X3.8Y-4.9
X3.8Y-5.0
X3.8Y-5.1
X3.8Y-5.2
X3.9Y-3.8
X3.9Y-3.9
X3.9Y-4.0
X3.9Y-4.1
X3.9Y-4.2
X3.9Y-4.3
X3.9Y-4.4
X3.9Y-4.5
X3.9Y-4.6
X3.9Y-4.7
X3.9Y-4.8
X3.9Y-4.9
X3.9Y-5.0
X3.9Y-5.1
X3.9Y-5.2
X4.0Y-3.9
X4.0Y-4.0
X4.0Y-4.1
X4.0Y-4.2
X4.0Y-4.3
X4.0Y-4.4
X4.0Y-4.5
X4.0Y-4.6
X4.0Y-4.7
X4.0Y-4.8
X4.0Y-4.9
X4.0Y-5.0
X4.0Y-5.1
X4.0Y-5.2
X4.1Y-4.0
X4.1Y-4.1
X4.1Y-4.2
X4.1Y-4.3
X4.1Y-4.4
X4.1Y-4.5
X4.1Y-4.6
X4.1Y-4.7
X4.1Y-4.8
X4.1Y-4.9
X4.1Y-5.0
X4.1Y-5.1
X4.1Y-5.2
X4.2Y-4.1
X4.2Y-4.2
X4.2Y-4.3
X4.2Y-4.4
X4.2Y-4.5
X4.2Y-4.6
X4.2Y-4.7
X4.2Y-4.8
X4.2Y-4.9
X4.2Y-5.0
X4.2Y-5.1
X4.2Y-5.2
X4.3Y-4.2
X4.3Y-4.3
X4.3Y-4.4
X4.3Y-4.5
X4.3Y-4.6
X4.3Y-4.7
X4.3Y-4.8
X4.3Y-4.9
X4.3Y-5.0
X4.3Y-5.1
X4.3Y-5.2
X4.4Y-4.3
X4.4Y-4.4
X4.4Y-4.5
X4.4Y-4.6
X4.4Y-4.7
X4.4Y-4.8
X4.4Y-4.9
X4.4Y-5.0
X4.4Y-5.1
X4.4Y-5.2
X4.5Y-4.4
X4.5Y-4.5
X4.5Y-4.6
X4.5Y-4.7
X4.5Y-4.8
X4.5Y-4.9
X4.5Y-5.0
X4.5Y-5.1
X4.5Y-5.2
X4.6Y-4.5
X4.6Y-4.6
X4.6Y-4.7
X4.6Y-4.8
X4.6Y-4.9
X4.6Y-5.0
X4.6Y-5.1
X4.6Y-5.2
X4.7Y-4.6
X4.7Y-4.7
X4.7Y-4.8
X4.7Y-4.9
X4.7Y-5.0
X4.7Y-5.1
X4.7Y-5.2
X4.8Y-4.7
X4.8Y-4.8
X4.8Y-4.9
X4.8Y-5.0
X4.8Y-5.1
X4.8Y-5.2
X3.2Y-1.75
X3.3Y-1.75
X3.4Y-1.75
X2.6498Y-5.2089
X2.7206Y-5.2796
X2.7913Y-5.3503
X2.862Y-5.421
X4.627Y-3.901
X4.677Y-4.001
X4.727Y-3.901
X4.777Y-4.001
X4.827Y-3.901
X4.877Y-4.001
X4.927Y-3.901
X4.977Y-4.001
X5.027Y-3.901
X5.077Y-4.001
X5.127Y-3.901
X5.177Y-4.001
X5.227Y-3.901
X5.277Y-4.001
X5.327Y-3.901
X5.377Y-4.001
X5.427Y-3.901
X5.477Y-4.001
X5.527Y-3.901
X5.577Y-4.001
X5.627Y-3.901
X5.677Y-4.001
X5.727Y-3.901
X5.777Y-4.001
X5.827Y-3.901
X5.877Y-4.001
X5.927Y-3.901
X5.977Y-4.001
X6.027Y-3.901
X6.077Y-4.001
X6.127Y-3.901
X6.177Y-4.001
X6.227Y-3.901
X6.277Y-4.001
X6.327Y-3.901
X6.377Y-4.001
X6.427Y-3.901
X6.477Y-4.001
X6.527Y-3.901
X6.577Y-4.001
X9.252Y-2.9996
X9.252Y-3.0996
X9.252Y-3.1996
X9.252Y-3.2996
X2.9848Y-5.2348
X3.25Y-5.5
X4.375Y-5.95
X4.75Y-5.95
X3.75Y-1.75
X3.85Y-1.75
X3.95Y-1.75
X2.5848Y-4.8348
X2.85Y-5.1
X7.15Y-6.0
X7.525Y-6.0
X5.8Y-5.7
X6.175Y-5.7
X5.875Y-5.35
X6.25Y-5.35
X2.4Y-3.725
X2.4Y-4.1
X2.1654Y-2.9996
X2.1654Y-3.0996
X2.1654Y-3.1996
X2.1654Y-3.2996
T3
X7.15Y-5.3941
X7.15Y-5.65
X7.3272Y-5.3941
X7.3272Y-5.65
X3.7Y-5.65
X3.8Y-5.65
X4.3Y-5.65
X4.4Y-5.65
X6.5Y-5.3941
X6.5Y-5.65
X6.6772Y-5.3941
X6.6772Y-5.65
X6.8228Y-5.3941
X6.8228Y-5.65
X7.0Y-5.3941
X7.0Y-5.65
X4.6Y-5.65
X4.7Y-5.65
X4.0Y-5.65
X4.1Y-5.65
X7.5Y-5.3941
X7.5Y-5.65
X7.6772Y-5.3941
X7.6772Y-5.65
T4
X2.425Y-2.875
X2.4255Y-2.18
X3.99Y-2.18
X3.99Y-2.875
X9.0894Y-2.1051
T6
X8.9811Y-1.9969
X8.9811Y-2.2134
X9.1976Y-1.9969
X9.1976Y-2.2134
T8
X2.614Y-2.2085
X3.801Y-2.8455
T9
X4.3676Y-1.7633
X4.3676Y-3.7033
X6.7276Y-1.7633
X6.7276Y-3.7033
T5
G00X8.2Y-3.2559
M15
G01X8.2Y-3.2441
M16
G05
G00X8.8Y-3.2441
M15
G01X8.8Y-3.2559
M16
G05
T7
G00X2.3337Y-1.8327
M15
G01X2.4222Y-1.8327
M16
G05
G00X2.5945Y-1.7785
M15
G01X2.5945Y-1.8671
M16
G05
T0
M30
