%TF.GenerationSoftware,KiCad,Pcbnew,5.1.5+dfsg1-2build2*%
%TF.CreationDate,2022-02-07T12:49:49-06:00*%
%TF.ProjectId,gpsv1.3,67707376-312e-4332-9e6b-696361645f70,rev?*%
%TF.SameCoordinates,Original*%
%TF.FileFunction,Soldermask,Bot*%
%TF.FilePolarity,Negative*%
%FSLAX46Y46*%
G04 Gerber Fmt 4.6, Leading zero omitted, Abs format (unit mm)*
G04 Created by KiCad (PCBNEW 5.1.5+dfsg1-2build2) date 2022-02-07 12:49:49*
%MOMM*%
%LPD*%
G04 APERTURE LIST*
%ADD10C,1.524000*%
%ADD11C,4.000000*%
%ADD12C,2.000000*%
%ADD13C,4.500000*%
%ADD14C,3.000000*%
%ADD15O,2.000000X4.500000*%
%ADD16O,4.500000X2.000000*%
%ADD17O,1.700000X2.000000*%
%ADD18C,1.200000*%
%ADD19R,1.800000X1.800000*%
%ADD20C,1.800000*%
G04 APERTURE END LIST*
D10*
%TO.C,Proto*%
X116840000Y-129540000D03*
X119380000Y-129540000D03*
X119380000Y-127000000D03*
X116840000Y-127000000D03*
X111760000Y-124460000D03*
X114300000Y-124460000D03*
X116840000Y-124460000D03*
X119380000Y-124460000D03*
X119380000Y-121920000D03*
X116840000Y-121920000D03*
X114300000Y-121920000D03*
X111760000Y-121920000D03*
X109220000Y-121920000D03*
X106680000Y-119380000D03*
X109220000Y-119380000D03*
X111760000Y-119380000D03*
X114300000Y-119380000D03*
X116840000Y-119380000D03*
X119380000Y-119380000D03*
X116840000Y-116840000D03*
X114300000Y-116840000D03*
X111760000Y-116840000D03*
X109220000Y-116840000D03*
X106680000Y-116840000D03*
X104140000Y-116840000D03*
X104140000Y-104140000D03*
X104140000Y-106680000D03*
X106680000Y-106680000D03*
X109220000Y-109220000D03*
X106680000Y-109220000D03*
X104140000Y-109220000D03*
X104140000Y-111760000D03*
X106680000Y-111760000D03*
X109220000Y-111760000D03*
X111760000Y-111760000D03*
X114300000Y-114300000D03*
X109220000Y-114300000D03*
X111760000Y-114300000D03*
X104140000Y-114300000D03*
X106680000Y-114300000D03*
X101600000Y-114300000D03*
X101600000Y-111760000D03*
X101600000Y-109220000D03*
X101600000Y-106680000D03*
X101600000Y-104140000D03*
X101600000Y-101600000D03*
X81280000Y-127000000D03*
X96520000Y-129540000D03*
X104140000Y-129540000D03*
X114300000Y-129540000D03*
X111760000Y-129540000D03*
X101600000Y-129540000D03*
X86360000Y-129540000D03*
X88900000Y-129540000D03*
X106680000Y-129540000D03*
X109220000Y-129540000D03*
X91440000Y-129540000D03*
X99060000Y-129540000D03*
X83820000Y-129540000D03*
X93980000Y-129540000D03*
X101600000Y-127000000D03*
X114300000Y-127000000D03*
X104140000Y-127000000D03*
X91440000Y-127000000D03*
X111760000Y-127000000D03*
X83820000Y-127000000D03*
X96520000Y-127000000D03*
X93980000Y-127000000D03*
X109220000Y-127000000D03*
X86360000Y-127000000D03*
X88900000Y-127000000D03*
X106680000Y-127000000D03*
X99060000Y-127000000D03*
X88900000Y-124460000D03*
X91440000Y-124460000D03*
X86360000Y-124460000D03*
X104140000Y-124460000D03*
X101600000Y-124460000D03*
X96520000Y-124460000D03*
X93980000Y-124460000D03*
X81280000Y-124460000D03*
X109220000Y-124460000D03*
X99060000Y-124460000D03*
X83820000Y-124460000D03*
X106680000Y-124460000D03*
X78740000Y-124460000D03*
X91440000Y-121920000D03*
X99060000Y-121920000D03*
X101600000Y-121920000D03*
X81280000Y-121920000D03*
X76200000Y-121920000D03*
X106680000Y-121920000D03*
X93980000Y-121920000D03*
X78740000Y-121920000D03*
X104140000Y-121920000D03*
X96520000Y-121920000D03*
X86360000Y-121920000D03*
X88900000Y-121920000D03*
X83820000Y-121920000D03*
X78740000Y-119380000D03*
X83820000Y-119380000D03*
X104140000Y-119380000D03*
X101600000Y-119380000D03*
X76200000Y-119380000D03*
X88900000Y-119380000D03*
X93980000Y-119380000D03*
X86360000Y-119380000D03*
X99060000Y-119380000D03*
X73660000Y-119380000D03*
X91440000Y-119380000D03*
X96520000Y-119380000D03*
X81280000Y-119380000D03*
X81280000Y-116840000D03*
X96520000Y-116840000D03*
X71120000Y-116840000D03*
X88900000Y-116840000D03*
X91440000Y-116840000D03*
X101600000Y-116840000D03*
X99060000Y-116840000D03*
X76200000Y-116840000D03*
X93980000Y-116840000D03*
X73660000Y-116840000D03*
X78740000Y-116840000D03*
X86360000Y-116840000D03*
X83820000Y-116840000D03*
X91440000Y-114300000D03*
X71120000Y-114300000D03*
X78740000Y-114300000D03*
X76200000Y-114300000D03*
X93980000Y-114300000D03*
X96520000Y-114300000D03*
X68580000Y-114300000D03*
X73660000Y-114300000D03*
X83820000Y-114300000D03*
X88900000Y-114300000D03*
X99060000Y-114300000D03*
X86360000Y-114300000D03*
X81280000Y-114300000D03*
X68580000Y-111760000D03*
X73660000Y-111760000D03*
X76200000Y-111760000D03*
X83820000Y-111760000D03*
X78740000Y-111760000D03*
X88900000Y-111760000D03*
X91440000Y-111760000D03*
X93980000Y-111760000D03*
X86360000Y-111760000D03*
X81280000Y-111760000D03*
X71120000Y-111760000D03*
X96520000Y-111760000D03*
X99060000Y-111760000D03*
X93980000Y-109220000D03*
X81280000Y-109220000D03*
X71120000Y-109220000D03*
X83820000Y-109220000D03*
X96520000Y-109220000D03*
X86360000Y-109220000D03*
X88900000Y-109220000D03*
X73660000Y-109220000D03*
X78740000Y-109220000D03*
X91440000Y-109220000D03*
X99060000Y-109220000D03*
X76200000Y-109220000D03*
X68580000Y-109220000D03*
X83820000Y-106680000D03*
X93980000Y-106680000D03*
X81280000Y-106680000D03*
X96520000Y-106680000D03*
X71120000Y-106680000D03*
X73660000Y-106680000D03*
X88900000Y-106680000D03*
X78740000Y-106680000D03*
X86360000Y-106680000D03*
X91440000Y-106680000D03*
X99060000Y-106680000D03*
X76200000Y-106680000D03*
X68580000Y-106680000D03*
X88900000Y-104140000D03*
X93980000Y-104140000D03*
X78740000Y-104140000D03*
X86360000Y-104140000D03*
X73660000Y-104140000D03*
X91440000Y-104140000D03*
X83820000Y-104140000D03*
X81280000Y-104140000D03*
X71120000Y-104140000D03*
X99060000Y-104140000D03*
X96520000Y-104140000D03*
X76200000Y-104140000D03*
X68580000Y-104140000D03*
X76200000Y-101600000D03*
X71120000Y-101600000D03*
X81280000Y-101600000D03*
X73660000Y-101600000D03*
X86360000Y-101600000D03*
X91440000Y-101600000D03*
X99060000Y-101600000D03*
X93980000Y-101600000D03*
X68580000Y-101600000D03*
X88900000Y-101600000D03*
X96520000Y-101600000D03*
X78740000Y-101600000D03*
X83820000Y-101600000D03*
X88900000Y-99060000D03*
X78740000Y-99060000D03*
X71120000Y-99060000D03*
X76200000Y-99060000D03*
X86360000Y-99060000D03*
X83820000Y-99060000D03*
X96520000Y-99060000D03*
X81280000Y-99060000D03*
X99060000Y-99060000D03*
X73660000Y-99060000D03*
X93980000Y-99060000D03*
X91440000Y-99060000D03*
X68580000Y-99060000D03*
X81280000Y-129540000D03*
X83820000Y-132080000D03*
X86360000Y-132080000D03*
X88900000Y-132080000D03*
X91440000Y-132080000D03*
X93980000Y-132080000D03*
X96520000Y-132080000D03*
X99060000Y-132080000D03*
X101600000Y-132080000D03*
X104140000Y-132080000D03*
X106680000Y-132080000D03*
X109220000Y-132080000D03*
X111760000Y-132080000D03*
X114300000Y-132080000D03*
X116840000Y-132080000D03*
X119380000Y-132080000D03*
X121920000Y-132080000D03*
X121920000Y-129540000D03*
X121920000Y-127000000D03*
X121920000Y-124460000D03*
X121920000Y-121920000D03*
X78740000Y-127000000D03*
X76200000Y-124460000D03*
X73660000Y-121920000D03*
X71120000Y-119380000D03*
X68580000Y-116840000D03*
X121920000Y-119380000D03*
X119380000Y-116840000D03*
X116840000Y-114300000D03*
X114300000Y-111760000D03*
X111760000Y-109220000D03*
X109220000Y-106680000D03*
X106680000Y-104140000D03*
X104140000Y-101600000D03*
X101600000Y-99060000D03*
X66040000Y-114300000D03*
X66040000Y-111760000D03*
X66040000Y-109220000D03*
X66040000Y-106680000D03*
X66040000Y-104140000D03*
X66040000Y-101600000D03*
X66040000Y-99060000D03*
X99060000Y-96520000D03*
X96520000Y-96520000D03*
X93980000Y-96520000D03*
X91440000Y-96520000D03*
X88900000Y-96520000D03*
X83820000Y-96520000D03*
X86360000Y-96520000D03*
X81280000Y-96520000D03*
X78740000Y-96520000D03*
X76200000Y-96520000D03*
X73660000Y-96520000D03*
X71120000Y-96520000D03*
X68580000Y-96520000D03*
X66040000Y-96520000D03*
%TD*%
D11*
%TO.C,REF\002A\002A*%
X238760000Y-116840000D03*
%TD*%
%TO.C,REF\002A\002A*%
X50800000Y-116840000D03*
%TD*%
%TO.C,REF\002A\002A*%
X50800000Y-45720000D03*
%TD*%
%TO.C,REF\002A\002A*%
X238760000Y-45720000D03*
%TD*%
D12*
%TO.C,Ant1*%
X228120000Y-50720000D03*
X233620000Y-50720000D03*
X228120000Y-56220000D03*
X233620000Y-56220000D03*
D10*
X230870000Y-53470000D03*
%TD*%
%TO.C,DC-DC1*%
X101346000Y-55372000D03*
X101346000Y-73025000D03*
X61595000Y-73025000D03*
X61607700Y-55372000D03*
D13*
X66395600Y-56095900D03*
X96545400Y-72275700D03*
%TD*%
D10*
%TO.C,Debug1*%
X117525800Y-99085400D03*
X118795800Y-101625400D03*
X120065800Y-99085400D03*
X121335800Y-101625400D03*
X122605800Y-99085400D03*
X123875800Y-101625400D03*
X125145800Y-99085400D03*
X126415800Y-101625400D03*
X127685800Y-99085400D03*
X128955800Y-101625400D03*
X130225800Y-99085400D03*
X131495800Y-101625400D03*
X132765800Y-99085400D03*
X134035800Y-101625400D03*
X135305800Y-99085400D03*
X136575800Y-101625400D03*
X137845800Y-99085400D03*
X139115800Y-101625400D03*
X140385800Y-99085400D03*
X141655800Y-101625400D03*
X142925800Y-99085400D03*
X144195800Y-101625400D03*
X145465800Y-99085400D03*
X146735800Y-101625400D03*
X148005800Y-99085400D03*
X149275800Y-101625400D03*
X150545800Y-99085400D03*
X151815800Y-101625400D03*
X153085800Y-99085400D03*
X154355800Y-101625400D03*
X155625800Y-99085400D03*
X156895800Y-101625400D03*
X158165800Y-99085400D03*
X159435800Y-101625400D03*
X160705800Y-99085400D03*
X161975800Y-101625400D03*
X163245800Y-99085400D03*
X164515800Y-101625400D03*
X165785800Y-99085400D03*
X167055800Y-101625400D03*
%TD*%
%TO.C,R1*%
X82550000Y-139700000D03*
X75814808Y-132964808D03*
%TD*%
%TO.C,R2*%
X60960000Y-94615000D03*
X60960000Y-104140000D03*
%TD*%
%TO.C,R3*%
X65654808Y-122804808D03*
X72390000Y-129540000D03*
%TD*%
%TO.C,R4*%
X60960000Y-88900000D03*
X60960000Y-79375000D03*
%TD*%
%TO.C,R5*%
X229870000Y-77470000D03*
X229870000Y-67945000D03*
%TD*%
%TO.C,R6*%
X218440000Y-129540000D03*
X225175192Y-122804808D03*
%TD*%
%TO.C,R7*%
X229870000Y-81915000D03*
X229870000Y-91440000D03*
%TD*%
%TO.C,R8*%
X215015192Y-132964808D03*
X208280000Y-139700000D03*
%TD*%
%TO.C,R9*%
X156845000Y-144780000D03*
X147320000Y-144780000D03*
%TD*%
%TO.C,R10*%
X133350000Y-144780000D03*
X142875000Y-144780000D03*
%TD*%
%TO.C,Rasp1*%
X117540000Y-95080000D03*
X120080000Y-92540000D03*
X120080000Y-95080000D03*
X122620000Y-92540000D03*
X122620000Y-95080000D03*
X125160000Y-92540000D03*
X125160000Y-95080000D03*
X127700000Y-92540000D03*
X127700000Y-95080000D03*
X130240000Y-92540000D03*
X130240000Y-95080000D03*
X132780000Y-92540000D03*
X132780000Y-95080000D03*
X135320000Y-92540000D03*
X135320000Y-95080000D03*
X137860000Y-92540000D03*
X137860000Y-95080000D03*
X140400000Y-92540000D03*
X140400000Y-95080000D03*
X142940000Y-92540000D03*
X142940000Y-95080000D03*
X145480000Y-92540000D03*
X145480000Y-95080000D03*
X148020000Y-92540000D03*
X148020000Y-95080000D03*
X150560000Y-92540000D03*
X150560000Y-95080000D03*
X153100000Y-92540000D03*
X153100000Y-95080000D03*
X155640000Y-92540000D03*
X155640000Y-95080000D03*
X158180000Y-92540000D03*
X158180000Y-95080000D03*
X160720000Y-92540000D03*
X160720000Y-95080000D03*
X163260000Y-92540000D03*
X163260000Y-95080000D03*
X165800000Y-92540000D03*
X165800000Y-95080000D03*
X117540000Y-92540000D03*
D14*
X110936000Y-94064000D03*
X170880000Y-94064000D03*
X110936000Y-44788000D03*
X170880000Y-44788000D03*
%TD*%
D10*
%TO.C,Teensy1*%
X187620000Y-112380000D03*
X185080000Y-112380000D03*
X182540000Y-112380000D03*
X180000000Y-112380000D03*
X177460000Y-112380000D03*
X174920000Y-112380000D03*
X172380000Y-112380000D03*
X169840000Y-112380000D03*
X167300000Y-112380000D03*
X164760000Y-112380000D03*
X162220000Y-112380000D03*
X159680000Y-112380000D03*
X159680000Y-127620000D03*
X162220000Y-127620000D03*
X164760000Y-127620000D03*
X167300000Y-127620000D03*
X169840000Y-127620000D03*
X172380000Y-127620000D03*
X174920000Y-127620000D03*
X177460000Y-127620000D03*
X180000000Y-127620000D03*
X182540000Y-127620000D03*
X185080000Y-127620000D03*
X154600000Y-112380000D03*
X152060000Y-112380000D03*
X149520000Y-112380000D03*
X146980000Y-112380000D03*
X144440000Y-112380000D03*
X141900000Y-112380000D03*
X139360000Y-112380000D03*
X136820000Y-112380000D03*
X134280000Y-112380000D03*
X134280000Y-127620000D03*
X136820000Y-127620000D03*
X139360000Y-127620000D03*
X141900000Y-127620000D03*
X144440000Y-127620000D03*
X146980000Y-127620000D03*
X149520000Y-127620000D03*
X152060000Y-127620000D03*
X154600000Y-127620000D03*
X190160000Y-112380000D03*
X192700000Y-112380000D03*
X187620000Y-127620000D03*
X190160000Y-127620000D03*
X192700000Y-127620000D03*
X157140000Y-112380000D03*
X157140000Y-127620000D03*
X146980000Y-114920000D03*
X146980000Y-117460000D03*
X146980000Y-120000000D03*
X146980000Y-122540000D03*
X146980000Y-125080000D03*
X186350000Y-114920000D03*
X183810000Y-114920000D03*
X181270000Y-114920000D03*
X178730000Y-114920000D03*
X176190000Y-114920000D03*
X190160000Y-125080000D03*
%TD*%
%TO.C,TOF1*%
X72694077Y-137694077D03*
X70898026Y-135898026D03*
X69101974Y-134101974D03*
X67305923Y-132305923D03*
%TD*%
%TO.C,TOF2*%
X55000000Y-83810000D03*
X55000000Y-81270000D03*
X55000000Y-78730000D03*
X55000000Y-76190000D03*
%TD*%
%TO.C,TOF3*%
X235000000Y-83810000D03*
X235000000Y-81270000D03*
X235000000Y-78730000D03*
X235000000Y-76190000D03*
%TD*%
%TO.C,TOF4*%
X217305923Y-137694077D03*
X219101974Y-135898026D03*
X220898026Y-134101974D03*
X222694077Y-132305923D03*
%TD*%
%TO.C,TOF5*%
X148810000Y-150000000D03*
X146270000Y-150000000D03*
X143730000Y-150000000D03*
X141190000Y-150000000D03*
%TD*%
D15*
%TO.C,U1*%
X65900000Y-46300000D03*
D16*
X60400000Y-46550000D03*
%TD*%
D10*
%TO.C,U2*%
X134289800Y-109791500D03*
X136829800Y-109791500D03*
X139369800Y-109791500D03*
X141909800Y-109791500D03*
X144449800Y-109791500D03*
X146989800Y-109791500D03*
X149529800Y-109791500D03*
X152069800Y-109791500D03*
X154609800Y-109791500D03*
X157149800Y-109791500D03*
X159689800Y-109791500D03*
X162229800Y-109791500D03*
X164769800Y-109791500D03*
X167309800Y-109791500D03*
X169849800Y-109791500D03*
X172389800Y-109791500D03*
X174929800Y-109791500D03*
X177469800Y-109791500D03*
X180009800Y-109791500D03*
X182549800Y-109791500D03*
X185089800Y-109791500D03*
X187629800Y-109791500D03*
X190169800Y-109791500D03*
X192709800Y-109791500D03*
%TD*%
%TO.C,U3*%
X192722500Y-130238500D03*
X190182500Y-130238500D03*
X187642500Y-130238500D03*
X185102500Y-130238500D03*
X182562500Y-130238500D03*
X180022500Y-130238500D03*
X177482500Y-130238500D03*
X174942500Y-130238500D03*
X172402500Y-130238500D03*
X169862500Y-130238500D03*
X167322500Y-130238500D03*
X164782500Y-130238500D03*
X162242500Y-130238500D03*
X159702500Y-130238500D03*
X157162500Y-130238500D03*
X154622500Y-130238500D03*
X152082500Y-130238500D03*
X149542500Y-130238500D03*
X147002500Y-130238500D03*
X144462500Y-130238500D03*
X141922500Y-130238500D03*
X139382500Y-130238500D03*
X136842500Y-130238500D03*
X134302500Y-130238500D03*
%TD*%
D17*
%TO.C,U4*%
X223520000Y-82550000D03*
X208280000Y-82550000D03*
%TD*%
D10*
%TO.C,XH-3A1*%
X201930000Y-44450000D03*
X204470000Y-44450000D03*
X207010000Y-44450000D03*
%TD*%
%TO.C,XH-3A2*%
X220980000Y-44450000D03*
X218440000Y-44450000D03*
X215900000Y-44450000D03*
%TD*%
%TO.C,XH-3A3*%
X81280000Y-44450000D03*
X83820000Y-44450000D03*
X86360000Y-44450000D03*
%TD*%
%TO.C,XH-3A4*%
X100330000Y-44450000D03*
X97790000Y-44450000D03*
X95250000Y-44450000D03*
%TD*%
D18*
%TO.C,B1*%
X186110000Y-137010000D03*
X186110000Y-143510000D03*
X181610000Y-137010000D03*
X181610000Y-143510000D03*
%TD*%
%TO.C,B2*%
X173300000Y-143510000D03*
X173300000Y-137010000D03*
X177800000Y-143510000D03*
X177800000Y-137010000D03*
%TD*%
%TO.C,B3*%
X195000000Y-137010000D03*
X195000000Y-143510000D03*
X190500000Y-137010000D03*
X190500000Y-143510000D03*
%TD*%
%TO.C,B4*%
X165100000Y-143510000D03*
X165100000Y-137010000D03*
X169600000Y-143510000D03*
X169600000Y-137010000D03*
%TD*%
D19*
%TO.C,LED1*%
X93980000Y-143510000D03*
D20*
X96520000Y-143510000D03*
%TD*%
%TO.C,LED2*%
X104140000Y-143510000D03*
D19*
X101600000Y-143510000D03*
%TD*%
%TO.C,LED3*%
X109220000Y-143510000D03*
D20*
X111760000Y-143510000D03*
%TD*%
%TO.C,LED4*%
X119380000Y-143510000D03*
D19*
X116840000Y-143510000D03*
%TD*%
D10*
%TO.C,R11*%
X106045000Y-151130000D03*
X96520000Y-151130000D03*
%TD*%
%TO.C,R12*%
X104140000Y-135890000D03*
X94615000Y-135890000D03*
%TD*%
%TO.C,R13*%
X111125000Y-151130000D03*
X120650000Y-151130000D03*
%TD*%
%TO.C,R14*%
X127000000Y-133985000D03*
X127000000Y-143510000D03*
%TD*%
%TO.C,R15*%
X181610000Y-152400000D03*
X191135000Y-152400000D03*
%TD*%
%TO.C,R16*%
X182880000Y-148590000D03*
X173355000Y-148590000D03*
%TD*%
%TO.C,R17*%
X200025000Y-148590000D03*
X190500000Y-148590000D03*
%TD*%
%TO.C,R18*%
X158750000Y-135890000D03*
X149225000Y-135890000D03*
%TD*%
M02*
